#VRML V2.0 utf8
# 3D model generated by easyeda2kicad.py (https://github.com/uPesy/easyeda2kicad.py)

Shape{
    appearance Appearance {
        material  Material 	{
            diffuseColor 0.25098039215686274 0.25098039215686274 0.25098039215686274
            specularColor 0.12549019607843137 0.12549019607843137 0.12549019607843137
            ambientIntensity 0.2
            transparency 0
            shininess 0.5
        }
    }
    geometry IndexedFaceSet {
        ccw TRUE
        solid FALSE
        coord DEF co Coordinate {
            point [
                -0.0863 1.3892 -0.4921, -0.0671 -0.0849 -0.4921, -0.0863 -0.1077 -0.4921, -0.0671 -0.1065 -0.4921, 0.0385 -0.1065 -0.4921, -0.0623 0.0687 -0.4921, 0.0121 0.0687 -0.4921, 0.0121 0.0039 -0.4921, 0.0769 -0.0963 -0.4921, 0.0769 -0.0747 -0.4921, 0.0385 0.0903 -0.4921, 0.0121 -0.0177 -0.4921, 0.0121 -0.0849 -0.4921, -0.0575 -0.0177 -0.4921, -0.0575 0.0039 -0.4921, 0.1744 -0.0999 -0.4921, 0.2402 -0.1065 -0.4921, 0.1554 -0.1064 -0.4921, 0.1427 -0.1077 -0.4921, -0.0623 0.0903 -0.4921, 0.213 0.0385 -0.4921, 0.2014 0.0569 -0.4921, 0.3146 0.0903 -0.4921, 0.1424 0.0689 -0.4921, 0.1571 0.0636 -0.4921, 0.0805 -0.0767 -0.4921, 0.1708 0.0545 -0.4921, 0.1827 0.0414 -0.4921, 0.197 -0.0102 -0.4921, 0.195 -0.0315 -0.4921, 0.1896 -0.0485 -0.4921, 0.1458 -0.0853 -0.4921, 0.1275 -0.0873 -0.4921, 0.1602 -0.08 -0.4921, 0.1722 -0.0719 -0.4921, 0.1815 -0.0621 -0.4921, 0.1013 -0.0844 -0.4921, 0.1908 0.0262 -0.4921, 0.196 0.0051 -0.4921, 0.1837 0.074 -0.4921, 0.341 0.0903 -0.4921, 1.9404 1.3892 -0.4921, 0.341 -0.1065 -0.4921, 1.9404 -0.1077 -0.4921, 0.1903 -0.0898 -0.4921, 0.2051 -0.0742 -0.4921, 0.2402 -0.0849 -0.4921, 0.2155 -0.0555 -0.4921, 0.3146 -0.0849 -0.4921, 0.2215 -0.0346 -0.4921, 0.2234 -0.0118 -0.4921, 0.2205 0.0162 -0.4921, 0.165 0.0847 -0.4921, 0.143 0.0911 -0.4921, 0.1233 0.0927 -0.4921, 0.0997 0.0911 -0.4921, 0.0769 0.0849 -0.4921, 0.0769 0.0585 -0.4921, 0.0991 0.068 -0.4921, 0.123 0.0711 -0.4921, 0.1311 -0.1089 -0.4921, 1.9404 -1.3892 -0.4921, 0.1257 -0.1089 -0.4921, -0.0863 -1.3892 -0.4921, 0.1178 -0.1077 -0.4921, -1.9404 -1.3892 -0.4921, -1.9404 -0.1077 -0.4921, 0.0979 -0.105 -0.4921, -0.2784 -0.1065 -0.4921, -0.2541 -0.0526 -0.4921, -0.2428 -0.0702 -0.4921, -0.4272 -0.1065 -0.4921, -0.456 -0.1065 -0.4921, -0.3792 0.0903 -0.4921, -1.9404 1.3892 -0.4921, -0.3528 0.0903 -0.4921, -0.2266 -0.0857 -0.4921, -0.2061 -0.0977 -0.4921, -0.1834 -0.1044 -0.4921, -0.159 -0.1065 -0.4921, -0.1055 -0.1065 -0.4921, -0.1055 0.0903 -0.4921, -0.1611 0.0903 -0.4921, -0.2342 0.0646 -0.4921, -0.2481 0.0492 -0.4921, -0.2572 0.0323 -0.4921, -0.1895 0.0873 -0.4921, -0.2125 0.0792 -0.4921, -0.234 0.0648 -0.4921, -0.3072 -0.1065 -0.4921, -0.326 -0.0513 -0.4921, -0.4073 -0.0513 -0.4921, -0.2625 0.0129 -0.4921, -0.264 -0.0056 -0.4921, -0.2612 -0.032 -0.4921, -1.9115 1.4764 0.0, -1.9115 1.4462 -0.2875, -1.9884 1.4764 0.0, -1.9582 1.4462 -0.2875, 1.9884 1.4764 0.0, 1.8346 1.4743 -0.0197, 1.6654 1.4743 -0.0197, 1.8346 1.464 -0.1181, 1.9582 1.4462 -0.2875, 1.6654 1.464 -0.1181, 1.5 1.4462 -0.2875, 1.5 1.4764 0.0, 1.3346 1.4743 -0.0197, 1.1654 1.4743 -0.0197, 1.3346 1.464 -0.1181, 1.1654 1.464 -0.1181, 1.0 1.4462 -0.2875, 1.0 1.4764 0.0, 0.8346 1.464 -0.1181, 0.6654 1.464 -0.1181, 0.5 1.4462 -0.2875, 0.6654 1.4743 -0.0197, 0.5 1.4764 0.0, 0.8346 1.4743 -0.0197, 0.3346 1.464 -0.1181, 0.1654 1.464 -0.1181, 0.0 1.4462 -0.2875, 0.1654 1.4743 -0.0197, 0.0 1.4764 0.0, 0.3346 1.4743 -0.0197, -0.1654 1.464 -0.1181, -0.3346 1.464 -0.1181, -0.5 1.4462 -0.2875, -0.3346 1.4743 -0.0197, -0.5 1.4764 0.0, -0.1654 1.4743 -0.0197, -0.6654 1.464 -0.1181, -0.8346 1.464 -0.1181, -1.0 1.4462 -0.2875, -0.8346 1.4743 -0.0197, -1.0 1.4764 0.0, -0.6654 1.4743 -0.0197, -1.1654 1.464 -0.1181, -1.3346 1.464 -0.1181, -1.5 1.4462 -0.2875, -1.3346 1.4743 -0.0197, -1.5 1.4764 0.0, -1.1654 1.4743 -0.0197, -1.6654 1.464 -0.1181, -1.8346 1.464 -0.1181, -1.8346 1.4743 -0.0197, -1.6654 1.4743 -0.0197, 1.9404 1.4284 -0.4569, 1.5 1.4284 -0.4569, 1.0 1.4284 -0.4569, 0.5 1.4284 -0.4569, 0.0 1.4284 -0.4569, -0.5 1.4284 -0.4569, -1.0 1.4284 -0.4569, -1.5 1.4284 -0.4569, -1.9115 1.4284 -0.4569, -1.9404 1.4284 -0.4569, 1.8346 -1.464 -0.1181, 1.9404 -1.4284 -0.4569, 1.9874 -1.4753 -0.0098, -1.9115 -1.4284 -0.4569, -1.9115 -1.4753 -0.0098, -1.9404 -1.4284 -0.4569, -1.9874 -1.4753 -0.0098, 1.5 -1.4284 -0.4569, 1.6654 -1.464 -0.1181, 1.5 -1.4753 -0.0098, 1.6654 -1.4743 -0.0197, 1.8346 -1.4743 -0.0197, 1.3346 -1.4743 -0.0197, 1.1654 -1.4743 -0.0197, 1.0 -1.4753 -0.0098, 1.1654 -1.464 -0.1181, 1.0 -1.4284 -0.4569, 1.3346 -1.464 -0.1181, 0.8346 -1.4743 -0.0197, 0.6654 -1.4743 -0.0197, 0.5 -1.4753 -0.0098, 0.6654 -1.464 -0.1181, 0.5 -1.4284 -0.4569, 0.8346 -1.464 -0.1181, 0.0 -1.4753 -0.0098, 0.1654 -1.4743 -0.0197, 0.3346 -1.4743 -0.0197, 0.1654 -1.464 -0.1181, 0.0 -1.4284 -0.4569, 0.3346 -1.464 -0.1181, -0.5 -1.4753 -0.0098, -0.3346 -1.4743 -0.0197, -0.1654 -1.4743 -0.0197, -0.3346 -1.464 -0.1181, -0.5 -1.4284 -0.4569, -0.1654 -1.464 -0.1181, -1.0 -1.4753 -0.0098, -0.8346 -1.4743 -0.0197, -0.6654 -1.4743 -0.0197, -0.8346 -1.464 -0.1181, -1.0 -1.4284 -0.4569, -0.6654 -1.464 -0.1181, -1.1654 -1.4743 -0.0197, -1.3346 -1.4743 -0.0197, -1.5 -1.4753 -0.0098, -1.3346 -1.464 -0.1181, -1.5 -1.4284 -0.4569, -1.1654 -1.464 -0.1181, -1.8346 -1.4743 -0.0197, -1.6654 -1.4743 -0.0197, -1.8346 -1.464 -0.1181, -1.6654 -1.464 -0.1181, 1.9884 -1.4764 0.0, 1.5 -1.4764 0.0, 1.0 -1.4764 0.0, 0.5 -1.4764 0.0, 0.0 -1.4764 0.0, -0.5 -1.4764 0.0, -1.0 -1.4764 0.0, -1.5 -1.4764 0.0, -1.9115 -1.4764 0.0, -1.9884 -1.4764 0.0, 1.9795 -1.3892 -0.4569, 1.9795 1.3892 -0.4569, 2.0276 -1.4372 0.0, 2.0276 1.4372 -0.0, -1.9795 1.3892 -0.4569, -1.9795 -1.3892 -0.4569, -2.0276 1.4372 -0.0, -2.0276 -1.4372 -0.0, 1.9981 -1.4078 0.2801, 1.9795 -1.1895 0.4569, 1.9795 1.3892 0.4569, 1.9404 1.4284 0.4569, -1.9404 1.4284 0.4569, -1.9795 1.3892 0.4569, -1.9795 -1.1895 0.4569, -1.9981 -1.4078 0.2801, 1.959 -1.4469 0.2801, -1.959 -1.4469 0.2801, -1.5845 -0.9503 0.4921, -1.5966 -0.9797 0.4921, 1.9404 -1.1895 0.4921, -1.616 -1.005 0.4921, -1.6412 -1.0243 0.4921, -1.6706 -1.0365 0.4921, -1.9404 -1.1895 0.4921, -1.763 -0.8133 0.4921, -1.7337 -0.8011 0.4921, -1.9404 1.3892 0.4921, -1.7021 -1.0406 0.4921, -1.7337 -1.0365 0.4921, -1.763 -1.0243 0.4921, -1.7883 -0.8327 0.4921, -1.7021 -0.797 0.4921, -1.6706 -0.8011 0.4921, 1.9404 1.3892 0.4921, -1.6412 -0.8133 0.4921, -1.616 -0.8327 0.4921, -1.5966 -0.8579 0.4921, -1.5845 -0.8873 0.4921, -1.5803 -0.9188 0.4921, -1.7883 -1.005 0.4921, -1.8076 -0.9797 0.4921, -1.8198 -0.9503 0.4921, -1.824 -0.9188 0.4921, -1.8198 -0.8873 0.4921, -1.8076 -0.8579 0.4921, -1.8076 -0.8579 0.4921
            ]
        }
        coordIndex [
            0,1,2,-1,2,1,3,-1,2,3,4,-1,5,6,7,-1,8,4,9,-1,9,4,10,-1,11,12,13,-1,13,12,1,-1,13,1,14,-1,15,16,17,-1,17,16,18,-1,7,14,5,-1,5,14,1,-1,5,1,19,-1,19,1,0,-1,19,0,10,-1,20,21,22,-1,23,24,25,-1,25,24,26,-1,25,26,27,-1,28,29,25,-1,25,29,30,-1,31,32,33,-1,33,32,34,-1,30,35,25,-1,25,35,34,-1,25,34,36,-1,36,34,32,-1,27,37,25,-1,25,37,38,-1,25,38,28,-1,21,39,22,-1,22,39,0,-1,22,0,40,-1,40,0,41,-1,40,41,42,-1,42,41,43,-1,15,44,16,-1,16,44,45,-1,16,45,46,-1,46,45,47,-1,46,47,48,-1,47,49,48,-1,48,49,50,-1,48,50,22,-1,22,50,51,-1,22,51,20,-1,39,52,0,-1,0,52,53,-1,0,53,54,-1,54,55,0,-1,0,55,56,-1,0,56,10,-1,10,56,57,-1,10,57,9,-1,9,57,58,-1,9,58,25,-1,25,58,59,-1,25,59,23,-1,16,42,18,-1,18,42,43,-1,18,43,60,-1,60,43,61,-1,60,61,62,-1,62,61,63,-1,62,63,64,-1,65,66,63,-1,63,66,2,-1,63,2,64,-1,64,2,4,-1,64,4,67,-1,67,4,8,-1,68,69,70,-1,71,2,72,-1,72,2,66,-1,72,66,73,-1,73,66,74,-1,73,74,75,-1,75,74,0,-1,70,76,68,-1,68,76,77,-1,68,77,78,-1,79,80,2,-1,2,80,81,-1,2,81,0,-1,0,81,82,-1,83,84,75,-1,75,84,85,-1,82,86,0,-1,0,86,87,-1,0,87,75,-1,75,87,88,-1,75,88,83,-1,78,79,68,-1,68,79,2,-1,68,2,89,-1,89,2,71,-1,89,71,90,-1,90,71,91,-1,85,92,75,-1,75,92,93,-1,75,93,68,-1,68,93,94,-1,68,94,69,-1,95,96,97,-1,97,96,98,-1,99,100,101,-1,100,99,102,-1,102,99,103,-1,102,103,104,-1,104,103,105,-1,104,105,101,-1,101,105,106,-1,101,106,99,-1,106,107,108,-1,107,106,109,-1,109,106,105,-1,109,105,110,-1,110,105,111,-1,110,111,108,-1,108,111,112,-1,108,112,106,-1,113,111,114,-1,114,111,115,-1,114,115,116,-1,116,115,117,-1,116,117,118,-1,118,117,112,-1,118,112,113,-1,113,112,111,-1,119,115,120,-1,120,115,121,-1,120,121,122,-1,122,121,123,-1,122,123,124,-1,124,123,117,-1,124,117,119,-1,119,117,115,-1,125,121,126,-1,126,121,127,-1,126,127,128,-1,128,127,129,-1,128,129,130,-1,130,129,123,-1,130,123,125,-1,125,123,121,-1,131,127,132,-1,132,127,133,-1,132,133,134,-1,134,133,135,-1,134,135,136,-1,136,135,129,-1,136,129,131,-1,131,129,127,-1,137,133,138,-1,138,133,139,-1,138,139,140,-1,140,139,141,-1,140,141,142,-1,142,141,135,-1,142,135,137,-1,137,135,133,-1,143,139,144,-1,144,139,96,-1,144,96,145,-1,145,96,95,-1,145,95,146,-1,146,95,141,-1,146,141,143,-1,143,141,139,-1,103,147,105,-1,105,147,148,-1,105,148,111,-1,111,148,149,-1,111,149,115,-1,115,149,150,-1,115,150,121,-1,121,150,151,-1,121,151,127,-1,127,151,152,-1,127,152,133,-1,133,152,153,-1,133,153,139,-1,139,153,154,-1,139,154,96,-1,96,154,155,-1,96,155,98,-1,98,155,156,-1,157,158,159,-1,160,161,162,-1,162,161,163,-1,158,157,164,-1,164,157,165,-1,164,165,166,-1,166,165,167,-1,166,167,159,-1,159,167,168,-1,159,168,157,-1,169,166,170,-1,170,166,171,-1,170,171,172,-1,172,171,173,-1,172,173,174,-1,174,173,164,-1,174,164,169,-1,169,164,166,-1,175,171,176,-1,176,171,177,-1,176,177,178,-1,178,177,179,-1,178,179,180,-1,180,179,173,-1,180,173,175,-1,175,173,171,-1,181,182,183,-1,182,181,184,-1,184,181,185,-1,184,185,186,-1,186,185,179,-1,186,179,183,-1,183,179,177,-1,183,177,181,-1,187,188,189,-1,188,187,190,-1,190,187,191,-1,190,191,192,-1,192,191,185,-1,192,185,189,-1,189,185,181,-1,189,181,187,-1,193,194,195,-1,194,193,196,-1,196,193,197,-1,196,197,198,-1,198,197,191,-1,198,191,195,-1,195,191,187,-1,195,187,193,-1,199,193,200,-1,200,193,201,-1,200,201,202,-1,202,201,203,-1,202,203,204,-1,204,203,197,-1,204,197,199,-1,199,197,193,-1,161,205,206,-1,205,161,207,-1,207,161,160,-1,207,160,208,-1,208,160,203,-1,208,203,206,-1,206,203,201,-1,206,201,161,-1,159,209,166,-1,166,209,210,-1,166,210,171,-1,171,210,211,-1,171,211,177,-1,177,211,212,-1,177,212,181,-1,181,212,213,-1,181,213,187,-1,187,213,214,-1,187,214,193,-1,193,214,215,-1,193,215,201,-1,201,215,216,-1,201,216,161,-1,161,216,217,-1,161,217,163,-1,163,217,218,-1,219,220,221,-1,221,220,222,-1,223,224,225,-1,225,224,226,-1,227,221,228,-1,228,221,222,-1,228,222,229,-1,99,97,230,-1,230,97,231,-1,232,225,233,-1,233,225,226,-1,233,226,234,-1,235,236,209,-1,209,236,218,-1,237,238,239,-1,239,238,240,-1,240,241,239,-1,239,241,242,-1,239,242,243,-1,244,245,246,-1,242,247,243,-1,243,247,248,-1,243,248,249,-1,244,246,250,-1,245,251,246,-1,246,251,252,-1,246,252,253,-1,253,252,254,-1,253,254,255,-1,255,256,253,-1,253,256,257,-1,253,257,239,-1,239,257,258,-1,239,258,237,-1,249,259,243,-1,243,259,260,-1,243,260,261,-1,261,262,243,-1,243,262,263,-1,243,263,246,-1,246,263,264,-1,246,264,250,-1,
        ]
    }
}
Shape{
    appearance Appearance {
        material  Material 	{
            diffuseColor 0.5019607843137255 0.5019607843137255 0.5019607843137255
            specularColor 0.25098039215686274 0.25098039215686274 0.25098039215686274
            ambientIntensity 0.2
            transparency 0
            shininess 0.5
        }
    }
    geometry IndexedFaceSet {
        ccw TRUE
        solid FALSE
        coord DEF co Coordinate {
            point [
                -1.9404 -1.2143 0.4834, -1.959 -1.4326 0.3066, 1.9404 -1.2143 0.4834, 1.959 -1.4326 0.3066, 1.959 -1.4326 0.3066
            ]
        }
        coordIndex [
            0,1,2,-1,2,1,3,-1,
        ]
    }
}
Shape{
    appearance Appearance {
        material  Material 	{
            diffuseColor 0.25098039215686274 0.25098039215686274 0.25098039215686274
            specularColor 0.12549019607843137 0.12549019607843137 0.12549019607843137
            ambientIntensity 0.2
            transparency 0
            shininess 0.5
        }
    }
    geometry IndexedFaceSet {
        ccw TRUE
        solid FALSE
        coord DEF co Coordinate {
            point [
                1.9981 -1.4078 0.2801, 1.9795 -1.1895 0.4569, 1.9776 -1.1956 0.4642, 1.967 -1.2064 0.4764, 1.9856 -1.4246 0.2996, 1.9681 -1.2055 0.4754, 1.989 -1.4219 0.2966, 1.9691 -1.2047 0.4746, 1.9911 -1.4203 0.2948, 1.9733 -1.2014 0.4708, 1.9919 -1.4196 0.2941, 1.9752 -1.1988 0.4678, 1.9949 -1.4156 0.2894, 1.9765 -1.1971 0.4659, 1.996 -1.414 0.2876, 1.9961 -1.4139 0.2875, 1.9686 -1.4313 0.3061, 1.9702 -1.4308 0.3057, 1.9535 -1.212 0.4819, 1.9762 -1.429 0.3041, 1.9591 -1.2104 0.4804, 1.9777 -1.4286 0.3037, 1.9606 -1.2096 0.4797, 1.9824 -1.4262 0.3013, 1.9825 -1.4262 0.3012, 1.9404 -1.2143 0.4834, 1.959 -1.4326 0.3066, 1.9469 -1.2135 0.483, 1.9645 -1.4318 0.3063, 1.95 -1.2131 0.4828, 1.9535 -1.212 0.4819, 1.9404 -1.1895 0.4921, -1.9404 -1.1895 0.4921, -1.9404 -1.1984 0.491, -1.9404 -1.2143 0.4834, -1.9404 -1.2081 0.4875, 1.9404 -1.2081 0.4875, -1.9404 -1.2067 0.488, 1.9404 -1.2067 0.488, -1.9404 -1.1991 0.4909, 1.9404 -1.1991 0.4909, 1.9404 -1.1984 0.491, -1.9765 -1.1971 0.4659, -1.9776 -1.1956 0.4642, -1.9961 -1.4139 0.2875, -1.9795 -1.1895 0.4569, -1.9981 -1.4078 0.2801, -1.996 -1.414 0.2876, -1.9949 -1.4156 0.2894, -1.9752 -1.1988 0.4678, -1.9919 -1.4196 0.2941, -1.9733 -1.2014 0.4708, -1.9691 -1.2047 0.4746, -1.9911 -1.4203 0.2948, -1.989 -1.4219 0.2966, -1.9681 -1.2055 0.4754, -1.9856 -1.4246 0.2996, -1.967 -1.2064 0.4764, -1.9825 -1.4262 0.3012, -1.9824 -1.4262 0.3013, -1.9606 -1.2096 0.4797, -1.9777 -1.4286 0.3037, -1.9591 -1.2104 0.4804, -1.9762 -1.429 0.3041, -1.959 -1.4326 0.3066, -1.9645 -1.4318 0.3063, -1.9469 -1.2135 0.483, -1.9686 -1.4313 0.3061, -1.95 -1.2131 0.4828, -1.9702 -1.4308 0.3057, -1.9535 -1.212 0.4819, -1.9535 -1.212 0.4819, -1.959 -1.4469 0.2801, 1.959 -1.4469 0.2801, -1.959 -1.4454 0.2876, 1.959 -1.4454 0.2876, -1.959 -1.4444 0.2901, 1.959 -1.4444 0.2901, -1.959 -1.4424 0.2948, 1.959 -1.4424 0.2948, -1.959 -1.4395 0.2991, 1.959 -1.4395 0.2991, -1.959 -1.438 0.3013, 1.959 -1.438 0.3013, 1.9969 -1.4161 0.2809, 1.9957 -1.4159 0.2876, 1.9967 -1.4178 0.281, 1.993 -1.4239 0.2876, 1.9939 -1.4244 0.2814, 1.9927 -1.4272 0.2816, 1.9885 -1.4311 0.2876, 1.9893 -1.4317 0.2817, 1.9865 -1.4353 0.2818, 1.9825 -1.4371 0.2876, 1.9832 -1.4379 0.2817, 1.9784 -1.4415 0.2816, 1.9754 -1.4416 0.2876, 1.9759 -1.4426 0.2815, 1.969 -1.4455 0.281, 1.9674 -1.4444 0.2876, 1.9677 -1.4457 0.2809, 1.9779 -1.4313 0.3013, 1.9721 -1.4349 0.3013, 1.9657 -1.4372 0.3013, 1.9861 -1.4292 0.2948, 1.9806 -1.4347 0.2948, 1.9902 -1.4226 0.2948, 1.974 -1.4389 0.2948, 1.9667 -1.4415 0.2948, 1.9589 -1.1895 0.4875, 1.95 -1.1895 0.4909, 1.9496 -1.192 0.4909, 1.9472 -1.1963 0.4909, 1.9487 -1.1943 0.4909, 1.9452 -1.1978 0.4909, 1.9429 -1.1988 0.4909, 1.9633 -1.2028 0.4819, 1.966 -1.1964 0.4819, 1.972 -1.198 0.4746, 1.9591 -1.2082 0.4819, 1.9497 -1.2056 0.4875, 1.9535 -1.2027 0.4875, 1.9452 -1.2075 0.4875, 1.9583 -1.1943 0.4875, 1.959 -1.1895 0.4875, 1.9565 -1.1988 0.4875, 1.9669 -1.1895 0.4819, 1.9667 -1.1895 0.482, 1.9499 -1.1895 0.4909, 1.973 -1.1895 0.4748, 1.9732 -1.1895 0.4746, 1.9774 -1.1895 0.4662, 1.9775 -1.1895 0.4659, -1.9429 -1.1988 0.4909, -1.9487 -1.1943 0.4909, -1.9472 -1.1963 0.4909, -1.9496 -1.192 0.4909, -1.9452 -1.1978 0.4909, -1.9591 -1.2082 0.4819, -1.9452 -1.2075 0.4875, -1.9497 -1.2056 0.4875, -1.9633 -1.2028 0.4819, -1.966 -1.1964 0.4819, -1.972 -1.198 0.4746, -1.9732 -1.1895 0.4746, -1.9774 -1.1895 0.4662, -1.9775 -1.1895 0.4659, -1.9499 -1.1895 0.4909, -1.9535 -1.2027 0.4875, -1.9565 -1.1988 0.4875, -1.9583 -1.1943 0.4875, -1.95 -1.1895 0.4909, -1.9589 -1.1895 0.4875, -1.959 -1.1895 0.4875, -1.9667 -1.1895 0.482, -1.973 -1.1895 0.4748, -1.9669 -1.1895 0.4819, -1.9779 -1.4313 0.3013, -1.9902 -1.4226 0.2948, -1.9957 -1.4159 0.2876, -1.9969 -1.4161 0.2809, -1.9677 -1.4457 0.2809, -1.9674 -1.4444 0.2876, -1.969 -1.4455 0.281, -1.9754 -1.4416 0.2876, -1.9865 -1.4353 0.2818, -1.9832 -1.4379 0.2817, -1.9825 -1.4371 0.2876, -1.9784 -1.4415 0.2816, -1.9759 -1.4426 0.2815, -1.9893 -1.4317 0.2817, -1.9885 -1.4311 0.2876, -1.9927 -1.4272 0.2816, -1.993 -1.4239 0.2876, -1.9939 -1.4244 0.2814, -1.9967 -1.4178 0.281, -1.9861 -1.4292 0.2948, -1.9721 -1.4349 0.3013, -1.9657 -1.4372 0.3013, -1.9667 -1.4415 0.2948, -1.9806 -1.4347 0.2948, -1.974 -1.4389 0.2948, 2.0276 -1.4372 0.0, 2.0262 -1.4474 0.0, 2.0246 -1.4522 0.0, 2.0223 -1.4568 0.0, 2.0195 -1.4611 0.0, 2.0161 -1.4649 0.0, 2.0123 -1.4683 0.0, 2.008 -1.4711 0.0, 2.0034 -1.4734 0.0, 1.9986 -1.475 0.0, 1.9884 -1.4764 0.0, 1.9795 1.3892 0.4569, 1.9775 1.3892 0.4659, 1.9774 1.3892 0.4662, 1.9732 1.3892 0.4746, 1.973 1.3892 0.4748, 1.9669 1.3892 0.4819, 1.9667 1.3892 0.482, 1.959 1.3892 0.4875, 1.9589 1.3892 0.4875, 1.95 1.3892 0.4909, 1.9499 1.3892 0.4909, 1.9404 1.3892 0.4921, 1.9404 1.4284 0.4569, -1.9404 1.4284 0.4569, 1.9404 1.4263 0.4659, -1.9404 1.4263 0.4659, 1.9404 1.4262 0.4662, -1.9404 1.4262 0.4662, 1.9404 1.422 0.4746, -1.9404 1.422 0.4746, 1.9404 1.4218 0.4748, -1.9404 1.4218 0.4748, 1.9404 1.4157 0.4819, -1.9404 1.4157 0.4819, 1.9404 1.4155 0.482, -1.9404 1.4155 0.482, 1.9404 1.4078 0.4875, -1.9404 1.4078 0.4875, 1.9404 1.4077 0.4875, -1.9404 1.4077 0.4875, 1.9404 1.3988 0.4909, -1.9404 1.3988 0.4909, 1.9404 1.3987 0.4909, -1.9404 1.3987 0.4909, -1.9404 1.3892 0.4921, -1.9795 1.3892 0.4569, -1.9775 1.3892 0.4659, -1.9774 1.3892 0.4662, -1.9732 1.3892 0.4746, -1.973 1.3892 0.4748, -1.9669 1.3892 0.4819, -1.9667 1.3892 0.482, -1.959 1.3892 0.4875, -1.9589 1.3892 0.4875, -1.95 1.3892 0.4909, -1.9499 1.3892 0.4909, -1.9884 -1.4764 0.0, -1.9986 -1.475 0.0, -2.0034 -1.4734 0.0, -2.008 -1.4711 0.0, -2.0123 -1.4683 0.0, -2.0161 -1.4649 0.0, -2.0195 -1.4611 0.0, -2.0223 -1.4568 0.0, -2.0246 -1.4522 0.0, -2.0262 -1.4474 0.0, -2.0276 -1.4372 -0.0, 1.9404 -1.4284 -0.4569, 1.9491 -1.4271 -0.4577, 1.9505 -1.4269 -0.4578, 1.9572 -1.4241 -0.4582, 1.9598 -1.423 -0.4583, 1.9645 -1.4194 -0.4585, 1.9679 -1.4167 -0.4585, 1.9706 -1.4133 -0.4585, 1.9742 -1.4087 -0.4583, 1.9753 -1.406 -0.4582, 1.9781 -1.3993 -0.4578, 1.9783 -1.3979 -0.4577, 1.9795 -1.3892 -0.4569, 1.9477 1.4212 0.4746, 1.9463 1.415 0.4819, 1.9445 1.4073 0.4875, 1.9425 1.3985 0.4909, 1.9445 1.3978 0.4909, 1.949 1.3934 0.4909, 1.9479 1.3952 0.4909, 1.9497 1.3913 0.4909, 1.9491 1.4271 0.4577, 1.9486 1.4254 0.4659, 1.9505 1.4269 0.4578, 1.9565 1.4226 0.4659, 1.9572 1.4241 0.4582, 1.9598 1.423 0.4583, 1.9635 1.4182 0.4659, 1.9645 1.4194 0.4585, 1.9679 1.4167 0.4585, 1.9694 1.4123 0.4659, 1.9706 1.4133 0.4585, 1.9742 1.4087 0.4583, 1.9738 1.4053 0.4659, 1.9753 1.406 0.4582, 1.9781 1.3993 0.4578, 1.9765 1.3975 0.4659, 1.9783 1.3979 0.4577, 1.952 1.4037 0.4875, 1.9549 1.4008 0.4875, 1.9571 1.3973 0.4875, 1.9585 1.3933 0.4875, 1.9484 1.4059 0.4875, 1.9464 1.3967 0.4909, 1.9519 1.4131 0.4819, 1.9569 1.4099 0.4819, 1.9611 1.4057 0.4819, 1.9642 1.4007 0.4819, 1.9662 1.3951 0.4819, 1.9546 1.4187 0.4746, 1.9608 1.4148 0.4746, 1.966 1.4096 0.4746, 1.9699 1.4034 0.4746, 1.9723 1.3965 0.4746, -1.9723 1.3965 0.4746, -1.9662 1.3951 0.4819, -1.9585 1.3933 0.4875, -1.9497 1.3913 0.4909, -1.949 1.3934 0.4909, -1.9445 1.3978 0.4909, -1.9464 1.3967 0.4909, -1.9425 1.3985 0.4909, -1.9783 1.3979 0.4577, -1.9765 1.3975 0.4659, -1.9781 1.3993 0.4578, -1.9738 1.4053 0.4659, -1.9753 1.406 0.4582, -1.9742 1.4087 0.4583, -1.9694 1.4123 0.4659, -1.9706 1.4133 0.4585, -1.9679 1.4167 0.4585, -1.9635 1.4182 0.4659, -1.9645 1.4194 0.4585, -1.9598 1.423 0.4583, -1.9565 1.4226 0.4659, -1.9572 1.4241 0.4582, -1.9505 1.4269 0.4578, -1.9486 1.4254 0.4659, -1.9491 1.4271 0.4577, -1.9549 1.4008 0.4875, -1.952 1.4037 0.4875, -1.9484 1.4059 0.4875, -1.9445 1.4073 0.4875, -1.9571 1.3973 0.4875, -1.9479 1.3952 0.4909, -1.9642 1.4007 0.4819, -1.9611 1.4057 0.4819, -1.9569 1.4099 0.4819, -1.9519 1.4131 0.4819, -1.9463 1.415 0.4819, -1.9699 1.4034 0.4746, -1.966 1.4096 0.4746, -1.9608 1.4148 0.4746, -1.9546 1.4187 0.4746, -1.9477 1.4212 0.4746, -1.9795 -1.3892 -0.4569, -1.9783 -1.3979 -0.4577, -1.9781 -1.3993 -0.4578, -1.9753 -1.406 -0.4582, -1.9742 -1.4087 -0.4583, -1.9706 -1.4133 -0.4585, -1.9679 -1.4167 -0.4585, -1.9645 -1.4194 -0.4585, -1.9598 -1.423 -0.4583, -1.9572 -1.4241 -0.4582, -1.9505 -1.4269 -0.4578, -1.9491 -1.4271 -0.4577, -1.9404 -1.4284 -0.4569, 1.9404 -1.4263 -0.4659, -1.9404 -1.4263 -0.4659, 1.9404 -1.4262 -0.4662, -1.9404 -1.4262 -0.4662, 1.9404 -1.422 -0.4746, -1.9404 -1.422 -0.4746, 1.9404 -1.4218 -0.4748, -1.9404 -1.4218 -0.4748, 1.9404 -1.4157 -0.4819, -1.9404 -1.4157 -0.4819, 1.9404 -1.4155 -0.482, -1.9404 -1.4155 -0.482, 1.9404 -1.4078 -0.4875, -1.9404 -1.4078 -0.4875, 1.9404 -1.4077 -0.4875, -1.9404 -1.4077 -0.4875, 1.9404 -1.3988 -0.4909, -1.9404 -1.3988 -0.4909, 1.9404 -1.3987 -0.4909, -1.9404 -1.3987 -0.4909, -1.9404 -1.3892 -0.4921, 1.9404 -1.3892 -0.4921, 1.9425 -1.3985 -0.4909, 1.9479 -1.3952 -0.4909, 1.9464 -1.3967 -0.4909, 1.9589 -1.3892 -0.4875, 1.959 -1.3892 -0.4875, 1.9585 -1.3933 -0.4875, 1.9667 -1.3892 -0.482, 1.9669 -1.3892 -0.4819, 1.9662 -1.3951 -0.4819, 1.9723 -1.3965 -0.4746, 1.9765 -1.3975 -0.4659, 1.9738 -1.4053 -0.4659, 1.9565 -1.4226 -0.4659, 1.9486 -1.4254 -0.4659, 1.9694 -1.4123 -0.4659, 1.9775 -1.3892 -0.4659, 1.9774 -1.3892 -0.4662, 1.9732 -1.3892 -0.4746, 1.973 -1.3892 -0.4748, 1.9477 -1.4212 -0.4746, 1.9699 -1.4034 -0.4746, 1.9463 -1.415 -0.4819, 1.9642 -1.4007 -0.4819, 1.966 -1.4096 -0.4746, 1.9635 -1.4182 -0.4659, 1.9445 -1.4073 -0.4875, 1.9608 -1.4148 -0.4746, 1.9611 -1.4057 -0.4819, 1.9571 -1.3973 -0.4875, 1.9497 -1.3913 -0.4909, 1.952 -1.4037 -0.4875, 1.9546 -1.4187 -0.4746, 1.9519 -1.4131 -0.4819, 1.9484 -1.4059 -0.4875, 1.9445 -1.3978 -0.4909, 1.9499 -1.3892 -0.4909, 1.95 -1.3892 -0.4909, 1.9569 -1.4099 -0.4819, 1.9549 -1.4008 -0.4875, 1.949 -1.3934 -0.4909, 1.9884 1.4764 0.0, 1.9986 1.475 -0.0, 2.0034 1.4734 -0.0, 2.008 1.4711 -0.0, 2.0123 1.4683 -0.0, 2.0161 1.4649 -0.0, 2.0195 1.4611 -0.0, 2.0223 1.4568 -0.0, 2.0246 1.4522 -0.0, 2.0262 1.4474 -0.0, 2.0276 1.4372 -0.0, -2.0276 1.4372 -0.0, -2.0262 1.4474 0.0, -2.0246 1.4522 0.0, -2.0223 1.4568 0.0, -2.0195 1.4611 0.0, -2.0161 1.4649 0.0, -2.0123 1.4683 -0.0, -2.008 1.4711 0.0, -2.0034 1.4734 0.0, -1.9986 1.475 0.0, -1.9884 1.4764 0.0, -1.9499 -1.3892 -0.4909, -1.9497 -1.3913 -0.4909, -1.9464 -1.3967 -0.4909, -1.9479 -1.3952 -0.4909, -1.9445 -1.4073 -0.4875, -1.9463 -1.415 -0.4819, -1.9477 -1.4212 -0.4746, -1.9486 -1.4254 -0.4659, -1.9565 -1.4226 -0.4659, -1.9738 -1.4053 -0.4659, -1.9765 -1.3975 -0.4659, -1.9635 -1.4182 -0.4659, -1.9775 -1.3892 -0.4659, -1.9774 -1.3892 -0.4662, -1.9723 -1.3965 -0.4746, -1.9546 -1.4187 -0.4746, -1.9732 -1.3892 -0.4746, -1.973 -1.3892 -0.4748, -1.9662 -1.3951 -0.4819, -1.9519 -1.4131 -0.4819, -1.9608 -1.4148 -0.4746, -1.9694 -1.4123 -0.4659, -1.9669 -1.3892 -0.4819, -1.9667 -1.3892 -0.482, -1.9585 -1.3933 -0.4875, -1.966 -1.4096 -0.4746, -1.9569 -1.4099 -0.4819, -1.9484 -1.4059 -0.4875, -1.9425 -1.3985 -0.4909, -1.9549 -1.4008 -0.4875, -1.9699 -1.4034 -0.4746, -1.9642 -1.4007 -0.4819, -1.9571 -1.3973 -0.4875, -1.949 -1.3934 -0.4909, -1.9611 -1.4057 -0.4819, -1.952 -1.4037 -0.4875, -1.9445 -1.3978 -0.4909, -1.959 -1.3892 -0.4875, -1.9589 -1.3892 -0.4875, -1.95 -1.3892 -0.4909, 1.9795 1.3892 -0.4569, 1.9775 1.3892 -0.4659, 1.9774 1.3892 -0.4662, 1.9732 1.3892 -0.4746, 1.973 1.3892 -0.4748, 1.9669 1.3892 -0.4819, 1.9667 1.3892 -0.482, 1.959 1.3892 -0.4875, 1.9589 1.3892 -0.4875, 1.95 1.3892 -0.4909, 1.9499 1.3892 -0.4909, 1.9404 1.3892 -0.4921, 1.9783 1.3979 -0.4577, 1.9781 1.3993 -0.4578, 1.9753 1.406 -0.4582, 1.9742 1.4087 -0.4583, 1.9706 1.4133 -0.4585, 1.9679 1.4167 -0.4585, 1.9645 1.4194 -0.4585, 1.9598 1.423 -0.4583, 1.9572 1.4241 -0.4582, 1.9505 1.4269 -0.4578, 1.9491 1.4271 -0.4577, 1.9404 1.4284 -0.4569, -1.9404 1.4284 -0.4569, -1.9491 1.4271 -0.4577, -1.9505 1.4269 -0.4578, -1.9572 1.4241 -0.4582, -1.9598 1.423 -0.4583, -1.9645 1.4194 -0.4585, -1.9679 1.4167 -0.4585, -1.9706 1.4133 -0.4585, -1.9742 1.4087 -0.4583, -1.9753 1.406 -0.4582, -1.9781 1.3993 -0.4578, -1.9783 1.3979 -0.4577, -1.9795 1.3892 -0.4569, -1.9775 1.3892 -0.4659, -1.9774 1.3892 -0.4662, -1.9732 1.3892 -0.4746, -1.973 1.3892 -0.4748, -1.9669 1.3892 -0.4819, -1.9667 1.3892 -0.482, -1.959 1.3892 -0.4875, -1.9589 1.3892 -0.4875, -1.95 1.3892 -0.4909, -1.9499 1.3892 -0.4909, -1.9404 1.3892 -0.4921, 1.9497 1.3913 -0.4909, 1.9464 1.3967 -0.4909, 1.9479 1.3952 -0.4909, 1.9404 1.4077 -0.4875, 1.9404 1.4078 -0.4875, 1.9445 1.4073 -0.4875, 1.9404 1.4155 -0.482, 1.9404 1.4157 -0.4819, 1.9463 1.415 -0.4819, 1.9477 1.4212 -0.4746, 1.9486 1.4254 -0.4659, 1.9565 1.4226 -0.4659, 1.9738 1.4053 -0.4659, 1.9765 1.3975 -0.4659, 1.9635 1.4182 -0.4659, 1.9404 1.4263 -0.4659, 1.9404 1.4262 -0.4662, 1.9404 1.422 -0.4746, 1.9404 1.4218 -0.4748, 1.9723 1.3965 -0.4746, 1.9546 1.4187 -0.4746, 1.9662 1.3951 -0.4819, 1.9519 1.4131 -0.4819, 1.9608 1.4148 -0.4746, 1.9694 1.4123 -0.4659, 1.9585 1.3933 -0.4875, 1.966 1.4096 -0.4746, 1.9569 1.4099 -0.4819, 1.9484 1.4059 -0.4875, 1.9425 1.3985 -0.4909, 1.9549 1.4008 -0.4875, 1.9699 1.4034 -0.4746, 1.9642 1.4007 -0.4819, 1.9571 1.3973 -0.4875, 1.949 1.3934 -0.4909, 1.9404 1.3987 -0.4909, 1.9404 1.3988 -0.4909, 1.9611 1.4057 -0.4819, 1.952 1.4037 -0.4875, 1.9445 1.3978 -0.4909, -1.9404 1.3987 -0.4909, -1.9425 1.3985 -0.4909, -1.9479 1.3952 -0.4909, -1.9464 1.3967 -0.4909, -1.9585 1.3933 -0.4875, -1.9662 1.3951 -0.4819, -1.9723 1.3965 -0.4746, -1.9765 1.3975 -0.4659, -1.9738 1.4053 -0.4659, -1.9565 1.4226 -0.4659, -1.9486 1.4254 -0.4659, -1.9694 1.4123 -0.4659, -1.9404 1.4263 -0.4659, -1.9404 1.4262 -0.4662, -1.9477 1.4212 -0.4746, -1.9699 1.4034 -0.4746, -1.9404 1.422 -0.4746, -1.9404 1.4218 -0.4748, -1.9463 1.415 -0.4819, -1.9642 1.4007 -0.4819, -1.966 1.4096 -0.4746, -1.9635 1.4182 -0.4659, -1.9404 1.4157 -0.4819, -1.9404 1.4155 -0.482, -1.9445 1.4073 -0.4875, -1.9608 1.4148 -0.4746, -1.9611 1.4057 -0.4819, -1.9571 1.3973 -0.4875, -1.9497 1.3913 -0.4909, -1.952 1.4037 -0.4875, -1.9546 1.4187 -0.4746, -1.9519 1.4131 -0.4819, -1.9484 1.4059 -0.4875, -1.9445 1.3978 -0.4909, -1.9569 1.4099 -0.4819, -1.9549 1.4008 -0.4875, -1.949 1.3934 -0.4909, -1.9404 1.4078 -0.4875, -1.9404 1.4077 -0.4875, -1.9404 1.3988 -0.4909, -1.9404 1.3988 -0.4909
            ]
        }
        coordIndex [
            0,1,2,-1,3,4,5,-1,5,4,6,-1,5,6,7,-1,7,6,8,-1,7,8,9,-1,9,8,10,-1,9,10,11,-1,11,10,12,-1,11,12,13,-1,13,12,14,-1,13,14,2,-1,2,14,15,-1,2,15,0,-1,16,17,18,-1,18,17,19,-1,18,19,20,-1,20,19,21,-1,20,21,22,-1,22,21,23,-1,22,23,3,-1,3,23,24,-1,3,24,4,-1,25,26,27,-1,27,26,28,-1,27,28,29,-1,29,28,16,-1,29,16,30,-1,30,16,18,-1,31,32,33,-1,34,25,35,-1,35,25,36,-1,35,36,37,-1,37,36,38,-1,37,38,39,-1,39,38,40,-1,39,40,33,-1,33,40,41,-1,33,41,31,-1,42,43,44,-1,44,43,45,-1,44,45,46,-1,44,47,42,-1,42,47,48,-1,42,48,49,-1,49,48,50,-1,49,50,51,-1,51,50,52,-1,50,53,52,-1,52,53,54,-1,52,54,55,-1,55,54,56,-1,55,56,57,-1,56,58,57,-1,57,58,59,-1,57,59,60,-1,60,59,61,-1,60,61,62,-1,62,61,63,-1,64,34,65,-1,65,34,66,-1,65,66,67,-1,67,66,68,-1,67,68,69,-1,69,68,70,-1,69,70,63,-1,63,70,71,-1,63,71,62,-1,72,73,74,-1,74,73,75,-1,74,75,76,-1,76,75,77,-1,76,77,78,-1,78,77,79,-1,78,79,80,-1,80,79,81,-1,80,81,82,-1,82,81,83,-1,82,83,64,-1,64,83,26,-1,0,15,84,-1,84,15,85,-1,84,85,86,-1,86,85,87,-1,86,87,88,-1,88,87,89,-1,89,87,90,-1,89,90,91,-1,91,90,92,-1,92,90,93,-1,92,93,94,-1,94,93,95,-1,95,93,96,-1,95,96,97,-1,97,96,98,-1,98,96,99,-1,98,99,100,-1,100,99,75,-1,100,75,73,-1,101,17,102,-1,102,17,16,-1,102,16,103,-1,103,16,28,-1,103,28,26,-1,23,21,101,-1,101,21,19,-1,101,19,17,-1,104,24,23,-1,104,23,105,-1,10,8,106,-1,106,8,6,-1,106,6,104,-1,104,6,4,-1,104,4,24,-1,15,14,85,-1,85,14,12,-1,85,12,87,-1,87,12,10,-1,23,101,105,-1,105,101,102,-1,105,102,107,-1,107,102,103,-1,107,103,108,-1,26,83,103,-1,103,83,81,-1,103,81,108,-1,108,81,79,-1,108,79,77,-1,10,106,87,-1,87,106,104,-1,87,104,90,-1,90,104,105,-1,90,105,93,-1,93,105,107,-1,93,107,96,-1,96,107,108,-1,96,108,99,-1,99,108,77,-1,99,77,75,-1,109,110,111,-1,31,112,113,-1,114,112,31,-1,115,114,31,-1,116,5,117,-1,117,5,7,-1,117,7,118,-1,118,7,9,-1,118,9,11,-1,18,20,119,-1,119,20,22,-1,119,22,116,-1,116,22,3,-1,116,3,5,-1,120,30,18,-1,120,18,121,-1,30,120,29,-1,29,120,122,-1,29,122,27,-1,27,122,36,-1,27,36,25,-1,123,124,109,-1,31,41,115,-1,115,41,40,-1,115,40,38,-1,109,111,123,-1,123,111,113,-1,123,113,125,-1,125,113,112,-1,125,112,121,-1,121,112,114,-1,121,114,120,-1,120,114,115,-1,120,115,122,-1,122,115,38,-1,122,38,36,-1,117,126,127,-1,18,119,121,-1,121,119,116,-1,121,116,125,-1,125,116,117,-1,125,117,123,-1,123,117,127,-1,123,127,124,-1,111,31,113,-1,110,128,111,-1,111,128,31,-1,126,117,129,-1,129,117,118,-1,129,118,130,-1,130,118,11,-1,130,11,131,-1,131,11,13,-1,131,13,132,-1,132,13,2,-1,132,2,1,-1,37,39,133,-1,32,134,135,-1,136,134,32,-1,32,137,133,-1,62,71,138,-1,66,139,68,-1,68,139,140,-1,52,55,141,-1,141,55,57,-1,141,57,138,-1,138,57,60,-1,138,60,62,-1,141,142,52,-1,52,142,143,-1,52,143,51,-1,51,143,49,-1,144,145,42,-1,42,145,146,-1,42,146,43,-1,43,146,45,-1,39,33,133,-1,133,33,32,-1,135,137,32,-1,147,136,32,-1,66,34,139,-1,139,34,35,-1,139,35,37,-1,37,133,139,-1,139,133,137,-1,139,137,140,-1,140,137,135,-1,140,135,148,-1,148,135,134,-1,148,134,149,-1,149,134,136,-1,149,136,150,-1,147,151,136,-1,136,151,152,-1,136,152,150,-1,150,152,153,-1,150,153,154,-1,154,142,150,-1,150,142,141,-1,150,141,149,-1,149,141,138,-1,149,138,148,-1,148,138,71,-1,148,71,140,-1,140,71,70,-1,140,70,68,-1,42,49,144,-1,144,49,143,-1,144,143,155,-1,155,143,142,-1,155,142,156,-1,156,142,154,-1,61,59,157,-1,53,158,54,-1,47,159,48,-1,44,46,160,-1,161,162,163,-1,163,162,164,-1,165,166,167,-1,167,166,168,-1,167,168,164,-1,164,168,169,-1,164,169,163,-1,165,167,170,-1,170,167,171,-1,170,171,172,-1,172,171,173,-1,172,173,174,-1,174,173,175,-1,175,173,159,-1,175,159,160,-1,160,159,47,-1,160,47,44,-1,48,159,50,-1,50,159,173,-1,50,173,53,-1,54,158,56,-1,56,158,176,-1,56,176,58,-1,61,157,63,-1,63,157,177,-1,63,177,69,-1,69,177,67,-1,67,177,178,-1,67,178,65,-1,65,178,82,-1,65,82,64,-1,179,78,80,-1,58,176,59,-1,59,176,180,-1,59,180,157,-1,157,180,181,-1,157,181,177,-1,177,181,179,-1,177,179,178,-1,178,179,80,-1,178,80,82,-1,161,72,162,-1,162,72,74,-1,162,74,76,-1,53,173,158,-1,158,173,171,-1,158,171,176,-1,176,171,167,-1,176,167,180,-1,180,167,164,-1,180,164,181,-1,181,164,162,-1,181,162,179,-1,179,162,76,-1,179,76,78,-1,182,0,84,-1,182,84,183,-1,183,84,86,-1,183,86,184,-1,184,86,88,-1,184,88,185,-1,185,88,89,-1,185,89,186,-1,186,89,91,-1,186,91,187,-1,187,91,92,-1,187,92,188,-1,188,92,94,-1,188,94,189,-1,189,94,95,-1,189,95,190,-1,190,95,97,-1,190,97,191,-1,191,97,98,-1,191,98,192,-1,192,98,100,-1,192,100,73,-1,1,193,132,-1,132,193,194,-1,132,194,131,-1,131,194,195,-1,131,195,130,-1,130,195,196,-1,130,196,129,-1,129,196,197,-1,129,197,126,-1,126,197,198,-1,126,198,127,-1,127,198,199,-1,127,199,124,-1,124,199,200,-1,124,200,109,-1,109,200,201,-1,109,201,110,-1,110,201,202,-1,110,202,128,-1,202,203,128,-1,128,203,204,-1,128,204,31,-1,205,206,207,-1,207,206,208,-1,207,208,209,-1,209,208,210,-1,209,210,211,-1,211,210,212,-1,211,212,213,-1,213,212,214,-1,213,214,215,-1,215,214,216,-1,215,216,217,-1,217,216,218,-1,217,218,219,-1,219,218,220,-1,219,220,221,-1,221,220,222,-1,221,222,223,-1,223,222,224,-1,223,224,225,-1,224,226,225,-1,225,226,227,-1,225,227,204,-1,228,45,229,-1,229,45,146,-1,229,146,230,-1,230,146,145,-1,230,145,231,-1,231,145,144,-1,231,144,232,-1,232,144,155,-1,232,155,233,-1,233,155,156,-1,233,156,234,-1,234,156,154,-1,234,154,235,-1,235,154,153,-1,235,153,236,-1,236,153,152,-1,236,152,237,-1,237,152,151,-1,237,151,238,-1,151,147,238,-1,238,147,32,-1,238,32,227,-1,239,72,161,-1,239,161,240,-1,240,161,163,-1,240,163,241,-1,241,163,169,-1,241,169,242,-1,242,169,168,-1,242,168,243,-1,243,168,166,-1,243,166,244,-1,244,166,165,-1,244,165,245,-1,245,165,170,-1,245,170,246,-1,246,170,172,-1,246,172,247,-1,247,172,174,-1,247,174,248,-1,46,249,160,-1,160,249,248,-1,160,248,175,-1,175,248,174,-1,192,250,251,-1,192,251,191,-1,191,251,252,-1,191,252,190,-1,190,252,253,-1,190,253,189,-1,189,253,254,-1,189,254,188,-1,188,254,255,-1,188,255,187,-1,187,255,256,-1,187,256,186,-1,186,256,257,-1,186,257,185,-1,185,257,258,-1,185,258,184,-1,184,258,259,-1,184,259,183,-1,183,259,260,-1,183,260,182,-1,182,260,261,-1,182,261,262,-1,209,211,263,-1,213,215,264,-1,265,266,267,-1,204,268,269,-1,270,268,204,-1,267,266,204,-1,225,204,266,-1,271,272,273,-1,273,272,274,-1,273,274,275,-1,275,274,276,-1,276,274,277,-1,276,277,278,-1,278,277,279,-1,279,277,280,-1,279,280,281,-1,281,280,282,-1,282,280,283,-1,282,283,284,-1,284,283,285,-1,285,283,286,-1,285,286,287,-1,287,286,194,-1,287,194,193,-1,203,270,204,-1,217,219,265,-1,265,219,221,-1,265,221,266,-1,266,221,223,-1,266,223,225,-1,288,269,289,-1,289,269,268,-1,289,268,290,-1,290,268,270,-1,290,270,291,-1,215,217,264,-1,264,217,265,-1,264,265,292,-1,292,265,267,-1,292,267,293,-1,293,267,204,-1,203,202,270,-1,270,202,201,-1,270,201,291,-1,291,201,200,-1,291,200,199,-1,294,288,295,-1,295,288,289,-1,295,289,296,-1,296,289,290,-1,296,290,297,-1,297,290,291,-1,297,291,298,-1,298,291,199,-1,263,294,299,-1,299,294,295,-1,299,295,300,-1,300,295,296,-1,300,296,301,-1,301,296,297,-1,301,297,302,-1,302,297,298,-1,302,298,303,-1,211,213,263,-1,263,213,264,-1,263,264,294,-1,294,264,292,-1,294,292,288,-1,288,292,293,-1,288,293,269,-1,269,293,204,-1,271,205,272,-1,272,205,207,-1,272,207,209,-1,199,198,298,-1,298,198,197,-1,298,197,303,-1,303,197,196,-1,303,196,195,-1,209,263,272,-1,272,263,299,-1,272,299,274,-1,274,299,300,-1,274,300,277,-1,277,300,301,-1,277,301,280,-1,280,301,302,-1,280,302,283,-1,283,302,303,-1,283,303,286,-1,286,303,195,-1,286,195,194,-1,230,231,304,-1,232,233,305,-1,306,307,308,-1,227,309,310,-1,311,309,227,-1,308,307,227,-1,238,227,307,-1,312,313,314,-1,314,313,315,-1,314,315,316,-1,316,315,317,-1,317,315,318,-1,317,318,319,-1,319,318,320,-1,320,318,321,-1,320,321,322,-1,322,321,323,-1,323,321,324,-1,323,324,325,-1,325,324,326,-1,326,324,327,-1,326,327,328,-1,328,327,208,-1,328,208,206,-1,226,311,227,-1,234,235,306,-1,306,235,236,-1,306,236,307,-1,307,236,237,-1,307,237,238,-1,329,310,330,-1,330,310,309,-1,330,309,331,-1,331,309,311,-1,331,311,332,-1,233,234,305,-1,305,234,306,-1,305,306,333,-1,333,306,308,-1,333,308,334,-1,334,308,227,-1,226,224,311,-1,311,224,222,-1,311,222,332,-1,332,222,220,-1,332,220,218,-1,335,329,336,-1,336,329,330,-1,336,330,337,-1,337,330,331,-1,337,331,338,-1,338,331,332,-1,338,332,339,-1,339,332,218,-1,304,335,340,-1,340,335,336,-1,340,336,341,-1,341,336,337,-1,341,337,342,-1,342,337,338,-1,342,338,343,-1,343,338,339,-1,343,339,344,-1,231,232,304,-1,304,232,305,-1,304,305,335,-1,335,305,333,-1,335,333,329,-1,329,333,334,-1,329,334,310,-1,310,334,227,-1,312,228,313,-1,313,228,229,-1,313,229,230,-1,218,216,339,-1,339,216,214,-1,339,214,344,-1,344,214,212,-1,344,212,210,-1,230,304,313,-1,313,304,340,-1,313,340,315,-1,315,340,341,-1,315,341,318,-1,318,341,342,-1,318,342,321,-1,321,342,343,-1,321,343,324,-1,324,343,344,-1,324,344,327,-1,327,344,210,-1,327,210,208,-1,249,345,346,-1,249,346,248,-1,248,346,347,-1,248,347,247,-1,247,347,348,-1,247,348,246,-1,246,348,349,-1,246,349,245,-1,245,349,350,-1,245,350,244,-1,244,350,351,-1,244,351,243,-1,243,351,352,-1,243,352,242,-1,242,352,353,-1,242,353,241,-1,241,353,354,-1,241,354,240,-1,240,354,355,-1,240,355,239,-1,239,355,356,-1,239,356,357,-1,250,357,358,-1,358,357,359,-1,358,359,360,-1,360,359,361,-1,360,361,362,-1,362,361,363,-1,362,363,364,-1,364,363,365,-1,364,365,366,-1,366,365,367,-1,366,367,368,-1,368,367,369,-1,368,369,370,-1,370,369,371,-1,370,371,372,-1,372,371,373,-1,372,373,374,-1,374,373,375,-1,374,375,376,-1,375,377,376,-1,376,377,378,-1,376,378,379,-1,376,379,380,-1,381,382,379,-1,383,384,385,-1,386,387,388,-1,389,390,391,-1,254,253,392,-1,252,251,393,-1,393,251,250,-1,394,257,256,-1,391,259,258,-1,259,391,260,-1,260,391,390,-1,260,390,261,-1,262,261,395,-1,395,261,390,-1,395,390,396,-1,396,390,389,-1,396,389,397,-1,397,389,398,-1,250,358,393,-1,393,358,360,-1,393,360,399,-1,387,398,388,-1,388,398,389,-1,388,389,400,-1,400,389,391,-1,400,391,394,-1,394,391,258,-1,394,258,257,-1,360,362,399,-1,399,362,364,-1,399,364,401,-1,384,386,385,-1,385,386,388,-1,385,388,402,-1,402,388,400,-1,402,400,403,-1,403,400,394,-1,403,394,404,-1,404,394,256,-1,404,256,255,-1,364,366,401,-1,401,366,368,-1,401,368,405,-1,404,406,403,-1,403,406,407,-1,403,407,402,-1,402,407,408,-1,402,408,385,-1,385,408,409,-1,385,409,383,-1,382,381,410,-1,253,252,392,-1,392,252,393,-1,392,393,411,-1,411,393,399,-1,411,399,412,-1,412,399,401,-1,412,401,413,-1,413,401,405,-1,413,405,414,-1,414,405,380,-1,414,380,379,-1,379,415,409,-1,409,415,416,-1,409,416,383,-1,406,417,407,-1,407,417,418,-1,407,418,408,-1,408,418,419,-1,408,419,409,-1,409,419,379,-1,417,410,418,-1,418,410,381,-1,418,381,419,-1,419,381,379,-1,368,370,405,-1,405,370,372,-1,405,372,380,-1,380,372,374,-1,380,374,376,-1,255,254,404,-1,404,254,392,-1,404,392,406,-1,406,392,411,-1,406,411,417,-1,417,411,412,-1,417,412,410,-1,410,412,413,-1,410,413,382,-1,382,413,414,-1,382,414,379,-1,420,205,271,-1,420,271,421,-1,421,271,273,-1,421,273,422,-1,422,273,275,-1,422,275,423,-1,423,275,276,-1,423,276,424,-1,424,276,278,-1,424,278,425,-1,425,278,279,-1,425,279,426,-1,426,279,281,-1,426,281,427,-1,427,281,282,-1,427,282,428,-1,428,282,284,-1,428,284,429,-1,429,284,285,-1,429,285,430,-1,430,285,287,-1,430,287,193,-1,431,228,312,-1,431,312,432,-1,432,312,314,-1,432,314,433,-1,433,314,316,-1,433,316,434,-1,434,316,317,-1,434,317,435,-1,435,317,319,-1,435,319,436,-1,436,319,320,-1,436,320,437,-1,437,320,322,-1,437,322,438,-1,438,322,323,-1,438,323,439,-1,439,323,325,-1,439,325,440,-1,440,325,326,-1,440,326,441,-1,441,326,328,-1,441,328,206,-1,442,378,443,-1,444,445,378,-1,373,371,446,-1,369,367,447,-1,448,449,450,-1,349,348,451,-1,347,346,452,-1,452,346,345,-1,453,352,351,-1,450,354,353,-1,354,450,355,-1,355,450,449,-1,355,449,356,-1,357,356,359,-1,359,356,449,-1,359,449,361,-1,361,449,448,-1,361,448,363,-1,363,448,365,-1,345,454,452,-1,452,454,455,-1,452,455,456,-1,367,365,447,-1,447,365,448,-1,447,448,457,-1,457,448,450,-1,457,450,453,-1,453,450,353,-1,453,353,352,-1,455,458,456,-1,456,458,459,-1,456,459,460,-1,371,369,446,-1,446,369,447,-1,446,447,461,-1,461,447,457,-1,461,457,462,-1,462,457,453,-1,462,453,463,-1,463,453,351,-1,463,351,350,-1,459,464,460,-1,460,464,465,-1,460,465,466,-1,463,467,462,-1,462,467,468,-1,462,468,461,-1,461,468,469,-1,461,469,446,-1,446,469,470,-1,446,470,373,-1,445,444,471,-1,348,347,451,-1,451,347,452,-1,451,452,472,-1,472,452,456,-1,472,456,473,-1,473,456,460,-1,473,460,474,-1,474,460,466,-1,474,466,475,-1,475,466,443,-1,475,443,378,-1,378,377,470,-1,470,377,375,-1,470,375,373,-1,467,476,468,-1,468,476,477,-1,468,477,469,-1,469,477,478,-1,469,478,470,-1,470,478,378,-1,476,471,477,-1,477,471,444,-1,477,444,478,-1,478,444,378,-1,465,479,466,-1,466,479,480,-1,466,480,443,-1,443,480,481,-1,443,481,442,-1,350,349,463,-1,463,349,451,-1,463,451,467,-1,467,451,472,-1,467,472,476,-1,476,472,473,-1,476,473,471,-1,471,473,474,-1,471,474,445,-1,445,474,475,-1,445,475,378,-1,482,262,483,-1,483,262,395,-1,483,395,484,-1,484,395,396,-1,484,396,485,-1,485,396,397,-1,485,397,486,-1,486,397,398,-1,486,398,487,-1,487,398,387,-1,487,387,488,-1,488,387,386,-1,488,386,489,-1,489,386,384,-1,489,384,490,-1,490,384,383,-1,490,383,491,-1,491,383,416,-1,491,416,492,-1,416,415,492,-1,492,415,379,-1,492,379,493,-1,430,482,494,-1,430,494,429,-1,429,494,495,-1,429,495,428,-1,428,495,496,-1,428,496,427,-1,427,496,497,-1,427,497,426,-1,426,497,498,-1,426,498,425,-1,425,498,499,-1,425,499,424,-1,424,499,500,-1,424,500,423,-1,423,500,501,-1,423,501,422,-1,422,501,502,-1,422,502,421,-1,421,502,503,-1,421,503,420,-1,420,503,504,-1,420,504,505,-1,441,506,507,-1,441,507,440,-1,440,507,508,-1,440,508,439,-1,439,508,509,-1,439,509,438,-1,438,509,510,-1,438,510,437,-1,437,510,511,-1,437,511,436,-1,436,511,512,-1,436,512,435,-1,435,512,513,-1,435,513,434,-1,434,513,514,-1,434,514,433,-1,433,514,515,-1,433,515,432,-1,432,515,516,-1,432,516,431,-1,431,516,517,-1,431,517,518,-1,345,518,454,-1,454,518,519,-1,454,519,455,-1,455,519,520,-1,455,520,458,-1,458,520,521,-1,458,521,459,-1,459,521,522,-1,459,522,464,-1,464,522,523,-1,464,523,465,-1,465,523,524,-1,465,524,479,-1,479,524,525,-1,479,525,480,-1,480,525,526,-1,480,526,481,-1,481,526,527,-1,481,527,442,-1,527,528,442,-1,442,528,529,-1,442,529,378,-1,492,493,530,-1,531,532,493,-1,533,534,535,-1,536,537,538,-1,539,540,541,-1,497,496,542,-1,495,494,543,-1,543,494,482,-1,544,500,499,-1,541,502,501,-1,502,541,503,-1,503,541,540,-1,503,540,504,-1,505,504,545,-1,545,504,540,-1,545,540,546,-1,546,540,539,-1,546,539,547,-1,547,539,548,-1,482,483,543,-1,543,483,484,-1,543,484,549,-1,537,548,538,-1,538,548,539,-1,538,539,550,-1,550,539,541,-1,550,541,544,-1,544,541,501,-1,544,501,500,-1,484,485,549,-1,549,485,486,-1,549,486,551,-1,534,536,535,-1,535,536,538,-1,535,538,552,-1,552,538,550,-1,552,550,553,-1,553,550,544,-1,553,544,554,-1,554,544,499,-1,554,499,498,-1,486,487,551,-1,551,487,488,-1,551,488,555,-1,554,556,553,-1,553,556,557,-1,553,557,552,-1,552,557,558,-1,552,558,535,-1,535,558,559,-1,535,559,533,-1,532,531,560,-1,496,495,542,-1,542,495,543,-1,542,543,561,-1,561,543,549,-1,561,549,562,-1,562,549,551,-1,562,551,563,-1,563,551,555,-1,563,555,564,-1,564,555,530,-1,564,530,493,-1,493,565,559,-1,559,565,566,-1,559,566,533,-1,556,567,557,-1,557,567,568,-1,557,568,558,-1,558,568,569,-1,558,569,559,-1,559,569,493,-1,567,560,568,-1,568,560,531,-1,568,531,569,-1,569,531,493,-1,488,489,555,-1,555,489,490,-1,555,490,530,-1,530,490,491,-1,530,491,492,-1,498,497,554,-1,554,497,542,-1,554,542,556,-1,556,542,561,-1,556,561,567,-1,567,561,562,-1,567,562,560,-1,560,562,563,-1,560,563,532,-1,532,563,564,-1,532,564,493,-1,570,529,571,-1,572,573,529,-1,526,525,574,-1,524,523,575,-1,576,577,578,-1,510,509,579,-1,508,507,580,-1,580,507,506,-1,581,513,512,-1,578,515,514,-1,515,578,516,-1,516,578,577,-1,516,577,517,-1,518,517,519,-1,519,517,577,-1,519,577,520,-1,520,577,576,-1,520,576,521,-1,521,576,522,-1,506,582,580,-1,580,582,583,-1,580,583,584,-1,523,522,575,-1,575,522,576,-1,575,576,585,-1,585,576,578,-1,585,578,581,-1,581,578,514,-1,581,514,513,-1,583,586,584,-1,584,586,587,-1,584,587,588,-1,525,524,574,-1,574,524,575,-1,574,575,589,-1,589,575,585,-1,589,585,590,-1,590,585,581,-1,590,581,591,-1,591,581,512,-1,591,512,511,-1,587,592,588,-1,588,592,593,-1,588,593,594,-1,591,595,590,-1,590,595,596,-1,590,596,589,-1,589,596,597,-1,589,597,574,-1,574,597,598,-1,574,598,526,-1,573,572,599,-1,509,508,579,-1,579,508,580,-1,579,580,600,-1,600,580,584,-1,600,584,601,-1,601,584,588,-1,601,588,602,-1,602,588,594,-1,602,594,603,-1,603,594,571,-1,603,571,529,-1,529,528,598,-1,598,528,527,-1,598,527,526,-1,595,604,596,-1,596,604,605,-1,596,605,597,-1,597,605,606,-1,597,606,598,-1,598,606,529,-1,604,599,605,-1,605,599,572,-1,605,572,606,-1,606,572,529,-1,593,607,594,-1,594,607,608,-1,594,608,571,-1,571,608,609,-1,571,609,570,-1,511,510,591,-1,591,510,579,-1,591,579,595,-1,595,579,600,-1,595,600,604,-1,604,600,601,-1,604,601,599,-1,599,601,602,-1,599,602,573,-1,573,602,603,-1,573,603,529,-1,506,505,582,-1,582,505,545,-1,582,545,583,-1,583,545,546,-1,583,546,586,-1,586,546,547,-1,586,547,587,-1,587,547,548,-1,587,548,592,-1,592,548,537,-1,592,537,593,-1,593,537,536,-1,593,536,607,-1,607,536,534,-1,607,534,608,-1,608,534,533,-1,608,533,609,-1,609,533,566,-1,609,566,570,-1,566,565,570,-1,570,565,493,-1,570,493,529,-1,
        ]
    }
}
Shape{
    appearance Appearance {
        material  Material 	{
            diffuseColor 0.0 0.0 0.0
            specularColor 0.0 0.0 0.0
            ambientIntensity 0.2
            transparency 0
            shininess 0.5
        }
    }
    geometry IndexedFaceSet {
        ccw TRUE
        solid FALSE
        coord DEF co Coordinate {
            point [
                -1.5803 -0.9188 0.4917, -1.5803 -0.9188 0.4921, -1.5845 -0.8873 0.4917, -1.5845 -0.8873 0.4921, -1.5966 -0.8579 0.4917, -1.5966 -0.8579 0.4921, -1.616 -0.8327 0.4917, -1.616 -0.8327 0.4921, -1.6412 -0.8133 0.4917, -1.6412 -0.8133 0.4921, -1.6706 -0.8011 0.4917, -1.6706 -0.8011 0.4921, -1.7021 -0.797 0.4917, -1.7021 -0.797 0.4921, -1.7337 -0.8011 0.4917, -1.7337 -0.8011 0.4921, -1.763 -0.8133 0.4917, -1.763 -0.8133 0.4921, -1.7883 -0.8327 0.4917, -1.7883 -0.8327 0.4921, -1.8076 -0.8579 0.4917, -1.8076 -0.8579 0.4921, -1.8198 -0.8873 0.4917, -1.8198 -0.8873 0.4921, -1.824 -0.9188 0.4917, -1.824 -0.9188 0.4921, -1.8198 -0.9503 0.4917, -1.8198 -0.9503 0.4921, -1.8076 -0.9797 0.4917, -1.8076 -0.9797 0.4921, -1.7883 -1.005 0.4917, -1.7883 -1.005 0.4921, -1.763 -1.0243 0.4917, -1.763 -1.0243 0.4921, -1.7337 -1.0365 0.4917, -1.7337 -1.0365 0.4921, -1.7021 -1.0406 0.4917, -1.7021 -1.0406 0.4921, -1.6706 -1.0365 0.4917, -1.6706 -1.0365 0.4921, -1.6412 -1.0243 0.4917, -1.6412 -1.0243 0.4921, -1.616 -1.005 0.4917, -1.616 -1.005 0.4921, -1.5966 -0.9797 0.4917, -1.5966 -0.9797 0.4921, -1.5845 -0.9503 0.4917, -1.5845 -0.9503 0.4921, -1.7021 -0.9188 0.4917, -1.7021 -0.9188 0.4917
            ]
        }
        coordIndex [
            0,1,2,-1,2,1,3,-1,2,3,4,-1,4,3,5,-1,4,5,6,-1,6,5,7,-1,6,7,8,-1,8,7,9,-1,8,9,10,-1,10,9,11,-1,10,11,12,-1,12,11,13,-1,12,13,14,-1,14,13,15,-1,14,15,16,-1,16,15,17,-1,16,17,18,-1,18,17,19,-1,18,19,20,-1,20,19,21,-1,20,21,22,-1,22,21,23,-1,22,23,24,-1,24,23,25,-1,24,25,26,-1,26,25,27,-1,26,27,28,-1,28,27,29,-1,28,29,30,-1,30,29,31,-1,30,31,32,-1,32,31,33,-1,32,33,34,-1,34,33,35,-1,34,35,36,-1,36,35,37,-1,36,37,38,-1,38,37,39,-1,38,39,40,-1,40,39,41,-1,40,41,42,-1,42,41,43,-1,42,43,44,-1,44,43,45,-1,44,45,46,-1,46,45,47,-1,46,47,0,-1,0,47,1,-1,44,46,48,-1,48,46,0,-1,48,0,2,-1,38,40,48,-1,48,40,42,-1,48,42,44,-1,32,34,48,-1,48,34,36,-1,48,36,38,-1,26,28,48,-1,48,28,30,-1,48,30,32,-1,20,22,48,-1,48,22,24,-1,48,24,26,-1,14,16,48,-1,48,16,18,-1,48,18,20,-1,8,10,48,-1,48,10,12,-1,48,12,14,-1,2,4,48,-1,48,4,6,-1,48,6,8,-1,
        ]
    }
}
Shape{
    appearance Appearance {
        material  Material 	{
            diffuseColor 1.0 1.0 1.0
            specularColor 0.5019607843137255 0.5019607843137255 0.5019607843137255
            ambientIntensity 0.2
            transparency 0
            shininess 0.5
        }
    }
    geometry IndexedFaceSet {
        ccw TRUE
        solid FALSE
        coord DEF co Coordinate {
            point [
                0.3346 -2.0472 -0.4528, 0.3346 -1.819 -0.4528, 0.1654 -2.0472 -0.4528, 0.1654 -1.819 -0.4528, 0.3346 -2.0472 -0.5512, 0.1654 -2.0472 -0.5512, 0.3346 -1.8056 -0.5512, 0.1654 -1.8056 -0.5512, 0.1654 -1.7869 -0.5489, 0.3346 -1.7869 -0.5489, 0.1654 -1.7693 -0.5423, 0.3346 -1.7693 -0.5423, 0.1654 -1.7538 -0.5318, 0.3346 -1.7538 -0.5318, 0.1654 -1.7412 -0.5178, 0.3346 -1.7412 -0.5178, 0.1654 -1.7323 -0.5013, 0.3346 -1.7323 -0.5013, 0.3346 -1.5865 -0.1306, 0.1654 -1.5865 -0.1306, 0.3346 -1.5843 -0.1265, 0.1654 -1.5843 -0.1265, 0.3346 -1.5812 -0.123, 0.1654 -1.5812 -0.123, 0.3346 -1.5773 -0.1203, 0.1654 -1.5773 -0.1203, 0.3346 -1.5729 -0.1187, 0.1654 -1.5729 -0.1187, 0.3346 -1.5682 -0.1181, 0.1654 -1.5682 -0.1181, 0.3346 -1.464 -0.1181, 0.1654 -1.464 -0.1181, 0.1654 -1.5682 -0.0197, 0.3346 -1.5682 -0.0197, 0.1654 -1.4743 -0.0197, 0.3346 -1.4743 -0.0197, 0.1654 -1.5962 -0.023, 0.3346 -1.5962 -0.023, 0.1654 -1.6226 -0.0329, 0.3346 -1.6226 -0.0329, 0.1654 -1.6459 -0.0488, 0.3346 -1.6459 -0.0488, 0.1654 -1.6648 -0.0698, 0.3346 -1.6648 -0.0698, 0.1654 -1.6781 -0.0946, 0.3346 -1.6781 -0.0946, -0.1654 -2.0472 -0.4528, -0.1654 -1.819 -0.4528, -0.3346 -2.0472 -0.4528, -0.3346 -1.819 -0.4528, -0.1654 -2.0472 -0.5512, -0.3346 -2.0472 -0.5512, -0.1654 -1.8056 -0.5512, -0.3346 -1.8056 -0.5512, -0.3346 -1.7869 -0.5489, -0.1654 -1.7869 -0.5489, -0.3346 -1.7693 -0.5423, -0.1654 -1.7693 -0.5423, -0.3346 -1.7538 -0.5318, -0.1654 -1.7538 -0.5318, -0.3346 -1.7412 -0.5178, -0.1654 -1.7412 -0.5178, -0.3346 -1.7323 -0.5013, -0.1654 -1.7323 -0.5013, -0.1654 -1.5865 -0.1306, -0.3346 -1.5865 -0.1306, -0.1654 -1.5843 -0.1265, -0.3346 -1.5843 -0.1265, -0.1654 -1.5812 -0.123, -0.3346 -1.5812 -0.123, -0.1654 -1.5773 -0.1203, -0.3346 -1.5773 -0.1203, -0.1654 -1.5729 -0.1187, -0.3346 -1.5729 -0.1187, -0.1654 -1.5682 -0.1181, -0.3346 -1.5682 -0.1181, -0.1654 -1.464 -0.1181, -0.3346 -1.464 -0.1181, -0.3346 -1.5682 -0.0197, -0.1654 -1.5682 -0.0197, -0.3346 -1.4743 -0.0197, -0.1654 -1.4743 -0.0197, -0.3346 -1.5962 -0.023, -0.1654 -1.5962 -0.023, -0.3346 -1.6226 -0.0329, -0.1654 -1.6226 -0.0329, -0.3346 -1.6459 -0.0488, -0.1654 -1.6459 -0.0488, -0.3346 -1.6648 -0.0698, -0.1654 -1.6648 -0.0698, -0.3346 -1.6781 -0.0946, -0.1654 -1.6781 -0.0946, -0.6654 -2.0472 -0.4528, -0.6654 -1.819 -0.4528, -0.8346 -2.0472 -0.4528, -0.8346 -1.819 -0.4528, -0.6654 -2.0472 -0.5512, -0.8346 -2.0472 -0.5512, -0.6654 -1.8056 -0.5512, -0.8346 -1.8056 -0.5512, -0.8346 -1.7869 -0.5489, -0.6654 -1.7869 -0.5489, -0.8346 -1.7693 -0.5423, -0.6654 -1.7693 -0.5423, -0.8346 -1.7538 -0.5318, -0.6654 -1.7538 -0.5318, -0.8346 -1.7412 -0.5178, -0.6654 -1.7412 -0.5178, -0.8346 -1.7323 -0.5013, -0.6654 -1.7323 -0.5013, -0.6654 -1.5865 -0.1306, -0.8346 -1.5865 -0.1306, -0.6654 -1.5843 -0.1265, -0.8346 -1.5843 -0.1265, -0.6654 -1.5812 -0.123, -0.8346 -1.5812 -0.123, -0.6654 -1.5773 -0.1203, -0.8346 -1.5773 -0.1203, -0.6654 -1.5729 -0.1187, -0.8346 -1.5729 -0.1187, -0.6654 -1.5682 -0.1181, -0.8346 -1.5682 -0.1181, -0.6654 -1.464 -0.1181, -0.8346 -1.464 -0.1181, -0.8346 -1.5682 -0.0197, -0.6654 -1.5682 -0.0197, -0.8346 -1.4743 -0.0197, -0.6654 -1.4743 -0.0197, -0.8346 -1.5962 -0.023, -0.6654 -1.5962 -0.023, -0.8346 -1.6226 -0.0329, -0.6654 -1.6226 -0.0329, -0.8346 -1.6459 -0.0488, -0.6654 -1.6459 -0.0488, -0.8346 -1.6648 -0.0698, -0.6654 -1.6648 -0.0698, -0.8346 -1.6781 -0.0946, -0.6654 -1.6781 -0.0946, -1.1654 -2.0472 -0.4528, -1.1654 -1.819 -0.4528, -1.3346 -2.0472 -0.4528, -1.3346 -1.819 -0.4528, -1.1654 -2.0472 -0.5512, -1.3346 -2.0472 -0.5512, -1.1654 -1.8056 -0.5512, -1.3346 -1.8056 -0.5512, -1.3346 -1.7869 -0.5489, -1.1654 -1.7869 -0.5489, -1.3346 -1.7693 -0.5423, -1.1654 -1.7693 -0.5423, -1.3346 -1.7538 -0.5318, -1.1654 -1.7538 -0.5318, -1.3346 -1.7412 -0.5178, -1.1654 -1.7412 -0.5178, -1.3346 -1.7323 -0.5013, -1.1654 -1.7323 -0.5013, -1.1654 -1.5865 -0.1306, -1.3346 -1.5865 -0.1306, -1.1654 -1.5843 -0.1265, -1.3346 -1.5843 -0.1265, -1.1654 -1.5812 -0.123, -1.3346 -1.5812 -0.123, -1.1654 -1.5773 -0.1203, -1.3346 -1.5773 -0.1203, -1.1654 -1.5729 -0.1187, -1.3346 -1.5729 -0.1187, -1.1654 -1.5682 -0.1181, -1.3346 -1.5682 -0.1181, -1.1654 -1.464 -0.1181, -1.3346 -1.464 -0.1181, -1.3346 -1.5682 -0.0197, -1.1654 -1.5682 -0.0197, -1.3346 -1.4743 -0.0197, -1.1654 -1.4743 -0.0197, -1.3346 -1.5962 -0.023, -1.1654 -1.5962 -0.023, -1.3346 -1.6226 -0.0329, -1.1654 -1.6226 -0.0329, -1.3346 -1.6459 -0.0488, -1.1654 -1.6459 -0.0488, -1.3346 -1.6648 -0.0698, -1.1654 -1.6648 -0.0698, -1.3346 -1.6781 -0.0946, -1.1654 -1.6781 -0.0946, -1.6654 -2.0472 -0.4528, -1.6654 -1.819 -0.4528, -1.8346 -2.0472 -0.4528, -1.8346 -1.819 -0.4528, -1.6654 -2.0472 -0.5512, -1.8346 -2.0472 -0.5512, -1.6654 -1.8056 -0.5512, -1.8346 -1.8056 -0.5512, -1.8346 -1.7869 -0.5489, -1.6654 -1.7869 -0.5489, -1.8346 -1.7693 -0.5423, -1.6654 -1.7693 -0.5423, -1.8346 -1.7538 -0.5318, -1.6654 -1.7538 -0.5318, -1.8346 -1.7412 -0.5178, -1.6654 -1.7412 -0.5178, -1.8346 -1.7323 -0.5013, -1.6654 -1.7323 -0.5013, -1.6654 -1.5865 -0.1306, -1.8346 -1.5865 -0.1306, -1.6654 -1.5843 -0.1265, -1.8346 -1.5843 -0.1265, -1.6654 -1.5812 -0.123, -1.8346 -1.5812 -0.123, -1.6654 -1.5773 -0.1203, -1.8346 -1.5773 -0.1203, -1.6654 -1.5729 -0.1187, -1.8346 -1.5729 -0.1187, -1.6654 -1.5682 -0.1181, -1.8346 -1.5682 -0.1181, -1.6654 -1.464 -0.1181, -1.8346 -1.464 -0.1181, -1.8346 -1.5682 -0.0197, -1.6654 -1.5682 -0.0197, -1.8346 -1.4743 -0.0197, -1.6654 -1.4743 -0.0197, -1.8346 -1.5962 -0.023, -1.6654 -1.5962 -0.023, -1.8346 -1.6226 -0.0329, -1.6654 -1.6226 -0.0329, -1.8346 -1.6459 -0.0488, -1.6654 -1.6459 -0.0488, -1.8346 -1.6648 -0.0698, -1.6654 -1.6648 -0.0698, -1.8346 -1.6781 -0.0946, -1.6654 -1.6781 -0.0946, 0.8346 -2.0472 -0.4528, 0.8346 -1.819 -0.4528, 0.6654 -2.0472 -0.4528, 0.6654 -1.819 -0.4528, 0.8346 -2.0472 -0.5512, 0.6654 -2.0472 -0.5512, 0.8346 -1.8056 -0.5512, 0.6654 -1.8056 -0.5512, 0.6654 -1.7869 -0.5489, 0.8346 -1.7869 -0.5489, 0.6654 -1.7693 -0.5423, 0.8346 -1.7693 -0.5423, 0.6654 -1.7538 -0.5318, 0.8346 -1.7538 -0.5318, 0.6654 -1.7412 -0.5178, 0.8346 -1.7412 -0.5178, 0.6654 -1.7323 -0.5013, 0.8346 -1.7323 -0.5013, 0.8346 -1.5865 -0.1306, 0.6654 -1.5865 -0.1306, 0.8346 -1.5843 -0.1265, 0.6654 -1.5843 -0.1265, 0.8346 -1.5812 -0.123, 0.6654 -1.5812 -0.123, 0.8346 -1.5773 -0.1203, 0.6654 -1.5773 -0.1203, 0.8346 -1.5729 -0.1187, 0.6654 -1.5729 -0.1187, 0.8346 -1.5682 -0.1181, 0.6654 -1.5682 -0.1181, 0.8346 -1.464 -0.1181, 0.6654 -1.464 -0.1181, 0.6654 -1.5682 -0.0197, 0.8346 -1.5682 -0.0197, 0.6654 -1.4743 -0.0197, 0.8346 -1.4743 -0.0197, 0.6654 -1.5962 -0.023, 0.8346 -1.5962 -0.023, 0.6654 -1.6226 -0.0329, 0.8346 -1.6226 -0.0329, 0.6654 -1.6459 -0.0488, 0.8346 -1.6459 -0.0488, 0.6654 -1.6648 -0.0698, 0.8346 -1.6648 -0.0698, 0.6654 -1.6781 -0.0946, 0.8346 -1.6781 -0.0946, 1.3346 -2.0472 -0.4528, 1.3346 -1.819 -0.4528, 1.1654 -2.0472 -0.4528, 1.1654 -1.819 -0.4528, 1.3346 -2.0472 -0.5512, 1.1654 -2.0472 -0.5512, 1.3346 -1.8056 -0.5512, 1.1654 -1.8056 -0.5512, 1.1654 -1.7869 -0.5489, 1.3346 -1.7869 -0.5489, 1.1654 -1.7693 -0.5423, 1.3346 -1.7693 -0.5423, 1.1654 -1.7538 -0.5318, 1.3346 -1.7538 -0.5318, 1.1654 -1.7412 -0.5178, 1.3346 -1.7412 -0.5178, 1.1654 -1.7323 -0.5013, 1.3346 -1.7323 -0.5013, 1.3346 -1.5865 -0.1306, 1.1654 -1.5865 -0.1306, 1.3346 -1.5843 -0.1265, 1.1654 -1.5843 -0.1265, 1.3346 -1.5812 -0.123, 1.1654 -1.5812 -0.123, 1.3346 -1.5773 -0.1203, 1.1654 -1.5773 -0.1203, 1.3346 -1.5729 -0.1187, 1.1654 -1.5729 -0.1187, 1.3346 -1.5682 -0.1181, 1.1654 -1.5682 -0.1181, 1.3346 -1.464 -0.1181, 1.1654 -1.464 -0.1181, 1.1654 -1.5682 -0.0197, 1.3346 -1.5682 -0.0197, 1.1654 -1.4743 -0.0197, 1.3346 -1.4743 -0.0197, 1.1654 -1.5962 -0.023, 1.3346 -1.5962 -0.023, 1.1654 -1.6226 -0.0329, 1.3346 -1.6226 -0.0329, 1.1654 -1.6459 -0.0488, 1.3346 -1.6459 -0.0488, 1.1654 -1.6648 -0.0698, 1.3346 -1.6648 -0.0698, 1.1654 -1.6781 -0.0946, 1.3346 -1.6781 -0.0946, 1.8346 -2.0472 -0.4528, 1.8346 -1.819 -0.4528, 1.6654 -2.0472 -0.4528, 1.6654 -1.819 -0.4528, 1.8346 -2.0472 -0.5512, 1.6654 -2.0472 -0.5512, 1.8346 -1.8056 -0.5512, 1.6654 -1.8056 -0.5512, 1.6654 -1.7869 -0.5489, 1.8346 -1.7869 -0.5489, 1.6654 -1.7693 -0.5423, 1.8346 -1.7693 -0.5423, 1.6654 -1.7538 -0.5318, 1.8346 -1.7538 -0.5318, 1.6654 -1.7412 -0.5178, 1.8346 -1.7412 -0.5178, 1.6654 -1.7323 -0.5013, 1.8346 -1.7323 -0.5013, 1.8346 -1.5865 -0.1306, 1.6654 -1.5865 -0.1306, 1.8346 -1.5843 -0.1265, 1.6654 -1.5843 -0.1265, 1.8346 -1.5812 -0.123, 1.6654 -1.5812 -0.123, 1.8346 -1.5773 -0.1203, 1.6654 -1.5773 -0.1203, 1.8346 -1.5729 -0.1187, 1.6654 -1.5729 -0.1187, 1.8346 -1.5682 -0.1181, 1.6654 -1.5682 -0.1181, 1.8346 -1.464 -0.1181, 1.6654 -1.464 -0.1181, 1.6654 -1.5682 -0.0197, 1.8346 -1.5682 -0.0197, 1.6654 -1.4743 -0.0197, 1.8346 -1.4743 -0.0197, 1.6654 -1.5962 -0.023, 1.8346 -1.5962 -0.023, 1.6654 -1.6226 -0.0329, 1.8346 -1.6226 -0.0329, 1.6654 -1.6459 -0.0488, 1.8346 -1.6459 -0.0488, 1.6654 -1.6648 -0.0698, 1.8346 -1.6648 -0.0698, 1.6654 -1.6781 -0.0946, 1.8346 -1.6781 -0.0946, 0.3346 1.819 -0.4528, 0.3346 2.0472 -0.4528, 0.1654 1.819 -0.4528, 0.1654 2.0472 -0.4528, 0.3346 1.6781 -0.0946, 0.1654 1.6781 -0.0946, 0.1654 1.6648 -0.0698, 0.3346 1.6648 -0.0698, 0.1654 1.6459 -0.0488, 0.3346 1.6459 -0.0488, 0.1654 1.6226 -0.0329, 0.3346 1.6226 -0.0329, 0.1654 1.5962 -0.023, 0.3346 1.5962 -0.023, 0.1654 1.5682 -0.0197, 0.3346 1.5682 -0.0197, 0.3346 1.4743 -0.0197, 0.1654 1.4743 -0.0197, 0.1654 1.5682 -0.1181, 0.3346 1.5682 -0.1181, 0.1654 1.464 -0.1181, 0.3346 1.464 -0.1181, 0.3346 1.5729 -0.1187, 0.1654 1.5729 -0.1187, 0.3346 1.5773 -0.1203, 0.1654 1.5773 -0.1203, 0.3346 1.5812 -0.123, 0.1654 1.5812 -0.123, 0.3346 1.5843 -0.1265, 0.1654 1.5843 -0.1265, 0.3346 1.5865 -0.1306, 0.1654 1.5865 -0.1306, 0.3346 1.7323 -0.5013, 0.1654 1.7323 -0.5013, 0.1654 1.7412 -0.5178, 0.3346 1.7412 -0.5178, 0.1654 1.7538 -0.5318, 0.3346 1.7538 -0.5318, 0.1654 1.7693 -0.5423, 0.3346 1.7693 -0.5423, 0.1654 1.7869 -0.5489, 0.3346 1.7869 -0.5489, 0.1654 1.8056 -0.5512, 0.3346 1.8056 -0.5512, 0.3346 2.0472 -0.5512, 0.1654 2.0472 -0.5512, -0.1654 1.819 -0.4528, -0.1654 2.0472 -0.4528, -0.3346 1.819 -0.4528, -0.3346 2.0472 -0.4528, -0.1654 1.6781 -0.0946, -0.3346 1.6781 -0.0946, -0.3346 1.6648 -0.0698, -0.1654 1.6648 -0.0698, -0.3346 1.6459 -0.0488, -0.1654 1.6459 -0.0488, -0.3346 1.6226 -0.0329, -0.1654 1.6226 -0.0329, -0.3346 1.5962 -0.023, -0.1654 1.5962 -0.023, -0.3346 1.5682 -0.0197, -0.1654 1.5682 -0.0197, -0.1654 1.4743 -0.0197, -0.3346 1.4743 -0.0197, -0.3346 1.5682 -0.1181, -0.1654 1.5682 -0.1181, -0.3346 1.464 -0.1181, -0.1654 1.464 -0.1181, -0.1654 1.5729 -0.1187, -0.3346 1.5729 -0.1187, -0.1654 1.5773 -0.1203, -0.3346 1.5773 -0.1203, -0.1654 1.5812 -0.123, -0.3346 1.5812 -0.123, -0.1654 1.5843 -0.1265, -0.3346 1.5843 -0.1265, -0.1654 1.5865 -0.1306, -0.3346 1.5865 -0.1306, -0.1654 1.7323 -0.5013, -0.3346 1.7323 -0.5013, -0.3346 1.7412 -0.5178, -0.1654 1.7412 -0.5178, -0.3346 1.7538 -0.5318, -0.1654 1.7538 -0.5318, -0.3346 1.7693 -0.5423, -0.1654 1.7693 -0.5423, -0.3346 1.7869 -0.5489, -0.1654 1.7869 -0.5489, -0.3346 1.8056 -0.5512, -0.1654 1.8056 -0.5512, -0.1654 2.0472 -0.5512, -0.3346 2.0472 -0.5512, -0.6654 1.819 -0.4528, -0.6654 2.0472 -0.4528, -0.8346 1.819 -0.4528, -0.8346 2.0472 -0.4528, -0.6654 1.6781 -0.0946, -0.8346 1.6781 -0.0946, -0.8346 1.6648 -0.0698, -0.6654 1.6648 -0.0698, -0.8346 1.6459 -0.0488, -0.6654 1.6459 -0.0488, -0.8346 1.6226 -0.0329, -0.6654 1.6226 -0.0329, -0.8346 1.5962 -0.023, -0.6654 1.5962 -0.023, -0.8346 1.5682 -0.0197, -0.6654 1.5682 -0.0197, -0.6654 1.4743 -0.0197, -0.8346 1.4743 -0.0197, -0.8346 1.5682 -0.1181, -0.6654 1.5682 -0.1181, -0.8346 1.464 -0.1181, -0.6654 1.464 -0.1181, -0.6654 1.5729 -0.1187, -0.8346 1.5729 -0.1187, -0.6654 1.5773 -0.1203, -0.8346 1.5773 -0.1203, -0.6654 1.5812 -0.123, -0.8346 1.5812 -0.123, -0.6654 1.5843 -0.1265, -0.8346 1.5843 -0.1265, -0.6654 1.5865 -0.1306, -0.8346 1.5865 -0.1306, -0.6654 1.7323 -0.5013, -0.8346 1.7323 -0.5013, -0.8346 1.7412 -0.5178, -0.6654 1.7412 -0.5178, -0.8346 1.7538 -0.5318, -0.6654 1.7538 -0.5318, -0.8346 1.7693 -0.5423, -0.6654 1.7693 -0.5423, -0.8346 1.7869 -0.5489, -0.6654 1.7869 -0.5489, -0.8346 1.8056 -0.5512, -0.6654 1.8056 -0.5512, -0.6654 2.0472 -0.5512, -0.8346 2.0472 -0.5512, -1.1654 1.819 -0.4528, -1.1654 2.0472 -0.4528, -1.3346 1.819 -0.4528, -1.3346 2.0472 -0.4528, -1.1654 1.6781 -0.0946, -1.3346 1.6781 -0.0946, -1.3346 1.6648 -0.0698, -1.1654 1.6648 -0.0698, -1.3346 1.6459 -0.0488, -1.1654 1.6459 -0.0488, -1.3346 1.6226 -0.0329, -1.1654 1.6226 -0.0329, -1.3346 1.5962 -0.023, -1.1654 1.5962 -0.023, -1.3346 1.5682 -0.0197, -1.1654 1.5682 -0.0197, -1.1654 1.4743 -0.0197, -1.3346 1.4743 -0.0197, -1.3346 1.5682 -0.1181, -1.1654 1.5682 -0.1181, -1.3346 1.464 -0.1181, -1.1654 1.464 -0.1181, -1.1654 1.5729 -0.1187, -1.3346 1.5729 -0.1187, -1.1654 1.5773 -0.1203, -1.3346 1.5773 -0.1203, -1.1654 1.5812 -0.123, -1.3346 1.5812 -0.123, -1.1654 1.5843 -0.1265, -1.3346 1.5843 -0.1265, -1.1654 1.5865 -0.1306, -1.3346 1.5865 -0.1306, -1.1654 1.7323 -0.5013, -1.3346 1.7323 -0.5013, -1.3346 1.7412 -0.5178, -1.1654 1.7412 -0.5178, -1.3346 1.7538 -0.5318, -1.1654 1.7538 -0.5318, -1.3346 1.7693 -0.5423, -1.1654 1.7693 -0.5423, -1.3346 1.7869 -0.5489, -1.1654 1.7869 -0.5489, -1.3346 1.8056 -0.5512, -1.1654 1.8056 -0.5512, -1.1654 2.0472 -0.5512, -1.3346 2.0472 -0.5512, -1.6654 1.819 -0.4528, -1.6654 2.0472 -0.4528, -1.8346 1.819 -0.4528, -1.8346 2.0472 -0.4528, -1.6654 1.6781 -0.0946, -1.8346 1.6781 -0.0946, -1.8346 1.6648 -0.0698, -1.6654 1.6648 -0.0698, -1.8346 1.6459 -0.0488, -1.6654 1.6459 -0.0488, -1.8346 1.6226 -0.0329, -1.6654 1.6226 -0.0329, -1.8346 1.5962 -0.023, -1.6654 1.5962 -0.023, -1.8346 1.5682 -0.0197, -1.6654 1.5682 -0.0197, -1.6654 1.4743 -0.0197, -1.8346 1.4743 -0.0197, -1.8346 1.5682 -0.1181, -1.6654 1.5682 -0.1181, -1.8346 1.464 -0.1181, -1.6654 1.464 -0.1181, -1.6654 1.5729 -0.1187, -1.8346 1.5729 -0.1187, -1.6654 1.5773 -0.1203, -1.8346 1.5773 -0.1203, -1.6654 1.5812 -0.123, -1.8346 1.5812 -0.123, -1.6654 1.5843 -0.1265, -1.8346 1.5843 -0.1265, -1.6654 1.5865 -0.1306, -1.8346 1.5865 -0.1306, -1.6654 1.7323 -0.5013, -1.8346 1.7323 -0.5013, -1.8346 1.7412 -0.5178, -1.6654 1.7412 -0.5178, -1.8346 1.7538 -0.5318, -1.6654 1.7538 -0.5318, -1.8346 1.7693 -0.5423, -1.6654 1.7693 -0.5423, -1.8346 1.7869 -0.5489, -1.6654 1.7869 -0.5489, -1.8346 1.8056 -0.5512, -1.6654 1.8056 -0.5512, -1.6654 2.0472 -0.5512, -1.8346 2.0472 -0.5512, 0.8346 1.819 -0.4528, 0.8346 2.0472 -0.4528, 0.6654 1.819 -0.4528, 0.6654 2.0472 -0.4528, 0.8346 1.6781 -0.0946, 0.6654 1.6781 -0.0946, 0.6654 1.6648 -0.0698, 0.8346 1.6648 -0.0698, 0.6654 1.6459 -0.0488, 0.8346 1.6459 -0.0488, 0.6654 1.6226 -0.0329, 0.8346 1.6226 -0.0329, 0.6654 1.5962 -0.023, 0.8346 1.5962 -0.023, 0.6654 1.5682 -0.0197, 0.8346 1.5682 -0.0197, 0.8346 1.4743 -0.0197, 0.6654 1.4743 -0.0197, 0.6654 1.5682 -0.1181, 0.8346 1.5682 -0.1181, 0.6654 1.464 -0.1181, 0.8346 1.464 -0.1181, 0.8346 1.5729 -0.1187, 0.6654 1.5729 -0.1187, 0.8346 1.5773 -0.1203, 0.6654 1.5773 -0.1203, 0.8346 1.5812 -0.123, 0.6654 1.5812 -0.123, 0.8346 1.5843 -0.1265, 0.6654 1.5843 -0.1265, 0.8346 1.5865 -0.1306, 0.6654 1.5865 -0.1306, 0.8346 1.7323 -0.5013, 0.6654 1.7323 -0.5013, 0.6654 1.7412 -0.5178, 0.8346 1.7412 -0.5178, 0.6654 1.7538 -0.5318, 0.8346 1.7538 -0.5318, 0.6654 1.7693 -0.5423, 0.8346 1.7693 -0.5423, 0.6654 1.7869 -0.5489, 0.8346 1.7869 -0.5489, 0.6654 1.8056 -0.5512, 0.8346 1.8056 -0.5512, 0.8346 2.0472 -0.5512, 0.6654 2.0472 -0.5512, 1.3346 1.819 -0.4528, 1.3346 2.0472 -0.4528, 1.1654 1.819 -0.4528, 1.1654 2.0472 -0.4528, 1.3346 1.6781 -0.0946, 1.1654 1.6781 -0.0946, 1.1654 1.6648 -0.0698, 1.3346 1.6648 -0.0698, 1.1654 1.6459 -0.0488, 1.3346 1.6459 -0.0488, 1.1654 1.6226 -0.0329, 1.3346 1.6226 -0.0329, 1.1654 1.5962 -0.023, 1.3346 1.5962 -0.023, 1.1654 1.5682 -0.0197, 1.3346 1.5682 -0.0197, 1.3346 1.4743 -0.0197, 1.1654 1.4743 -0.0197, 1.1654 1.5682 -0.1181, 1.3346 1.5682 -0.1181, 1.1654 1.464 -0.1181, 1.3346 1.464 -0.1181, 1.3346 1.5729 -0.1187, 1.1654 1.5729 -0.1187, 1.3346 1.5773 -0.1203, 1.1654 1.5773 -0.1203, 1.3346 1.5812 -0.123, 1.1654 1.5812 -0.123, 1.3346 1.5843 -0.1265, 1.1654 1.5843 -0.1265, 1.3346 1.5865 -0.1306, 1.1654 1.5865 -0.1306, 1.3346 1.7323 -0.5013, 1.1654 1.7323 -0.5013, 1.1654 1.7412 -0.5178, 1.3346 1.7412 -0.5178, 1.1654 1.7538 -0.5318, 1.3346 1.7538 -0.5318, 1.1654 1.7693 -0.5423, 1.3346 1.7693 -0.5423, 1.1654 1.7869 -0.5489, 1.3346 1.7869 -0.5489, 1.1654 1.8056 -0.5512, 1.3346 1.8056 -0.5512, 1.3346 2.0472 -0.5512, 1.1654 2.0472 -0.5512, 1.8346 1.819 -0.4528, 1.8346 2.0472 -0.4528, 1.6654 1.819 -0.4528, 1.6654 2.0472 -0.4528, 1.8346 1.6781 -0.0946, 1.6654 1.6781 -0.0946, 1.6654 1.6648 -0.0698, 1.8346 1.6648 -0.0698, 1.6654 1.6459 -0.0488, 1.8346 1.6459 -0.0488, 1.6654 1.6226 -0.0329, 1.8346 1.6226 -0.0329, 1.6654 1.5962 -0.023, 1.8346 1.5962 -0.023, 1.6654 1.5682 -0.0197, 1.8346 1.5682 -0.0197, 1.8346 1.4743 -0.0197, 1.6654 1.4743 -0.0197, 1.6654 1.5682 -0.1181, 1.8346 1.5682 -0.1181, 1.6654 1.464 -0.1181, 1.8346 1.464 -0.1181, 1.8346 1.5729 -0.1187, 1.6654 1.5729 -0.1187, 1.8346 1.5773 -0.1203, 1.6654 1.5773 -0.1203, 1.8346 1.5812 -0.123, 1.6654 1.5812 -0.123, 1.8346 1.5843 -0.1265, 1.6654 1.5843 -0.1265, 1.8346 1.5865 -0.1306, 1.6654 1.5865 -0.1306, 1.8346 1.7323 -0.5013, 1.6654 1.7323 -0.5013, 1.6654 1.7412 -0.5178, 1.8346 1.7412 -0.5178, 1.6654 1.7538 -0.5318, 1.8346 1.7538 -0.5318, 1.6654 1.7693 -0.5423, 1.8346 1.7693 -0.5423, 1.6654 1.7869 -0.5489, 1.8346 1.7869 -0.5489, 1.6654 1.8056 -0.5512, 1.8346 1.8056 -0.5512, 1.8346 2.0472 -0.5512, 1.6654 2.0472 -0.5512, 1.6654 2.0472 -0.5512
            ]
        }
        coordIndex [
            0,1,2,-1,2,1,3,-1,4,0,5,-1,5,0,2,-1,6,4,7,-1,7,4,5,-1,6,7,8,-1,6,8,9,-1,9,8,10,-1,9,10,11,-1,11,10,12,-1,11,12,13,-1,13,12,14,-1,13,14,15,-1,15,14,16,-1,15,16,17,-1,18,17,19,-1,19,17,16,-1,18,19,20,-1,20,19,21,-1,20,21,22,-1,22,21,23,-1,22,23,24,-1,24,23,25,-1,24,25,26,-1,26,25,27,-1,26,27,28,-1,28,27,29,-1,30,28,31,-1,31,28,29,-1,32,33,34,-1,34,33,35,-1,33,32,36,-1,33,36,37,-1,37,36,38,-1,37,38,39,-1,39,38,40,-1,39,40,41,-1,41,40,42,-1,41,42,43,-1,43,42,44,-1,43,44,45,-1,1,45,3,-1,3,45,44,-1,0,4,1,-1,1,4,6,-1,6,9,1,-1,1,9,11,-1,1,11,13,-1,30,35,28,-1,28,35,33,-1,28,33,26,-1,26,33,37,-1,26,37,24,-1,24,37,39,-1,24,39,22,-1,22,39,41,-1,22,41,20,-1,20,41,43,-1,20,43,18,-1,18,43,45,-1,18,45,17,-1,17,45,1,-1,17,1,15,-1,15,1,13,-1,5,2,7,-1,7,2,3,-1,7,3,8,-1,14,12,3,-1,3,12,10,-1,3,10,8,-1,34,31,32,-1,32,31,29,-1,32,29,36,-1,36,29,27,-1,36,27,38,-1,38,27,25,-1,38,25,40,-1,40,25,23,-1,40,23,42,-1,42,23,21,-1,42,21,44,-1,44,21,19,-1,44,19,3,-1,3,19,16,-1,3,16,14,-1,46,47,48,-1,48,47,49,-1,50,46,51,-1,51,46,48,-1,52,50,53,-1,53,50,51,-1,52,53,54,-1,52,54,55,-1,55,54,56,-1,55,56,57,-1,57,56,58,-1,57,58,59,-1,59,58,60,-1,59,60,61,-1,61,60,62,-1,61,62,63,-1,64,63,65,-1,65,63,62,-1,64,65,66,-1,66,65,67,-1,66,67,68,-1,68,67,69,-1,68,69,70,-1,70,69,71,-1,70,71,72,-1,72,71,73,-1,72,73,74,-1,74,73,75,-1,76,74,77,-1,77,74,75,-1,78,79,80,-1,80,79,81,-1,79,78,82,-1,79,82,83,-1,83,82,84,-1,83,84,85,-1,85,84,86,-1,85,86,87,-1,87,86,88,-1,87,88,89,-1,89,88,90,-1,89,90,91,-1,47,91,49,-1,49,91,90,-1,46,50,47,-1,47,50,52,-1,52,55,47,-1,47,55,57,-1,47,57,59,-1,76,81,74,-1,74,81,79,-1,74,79,72,-1,72,79,83,-1,72,83,70,-1,70,83,85,-1,70,85,68,-1,68,85,87,-1,68,87,66,-1,66,87,89,-1,66,89,64,-1,64,89,91,-1,64,91,63,-1,63,91,47,-1,63,47,61,-1,61,47,59,-1,51,48,53,-1,53,48,49,-1,53,49,54,-1,60,58,49,-1,49,58,56,-1,49,56,54,-1,80,77,78,-1,78,77,75,-1,78,75,82,-1,82,75,73,-1,82,73,84,-1,84,73,71,-1,84,71,86,-1,86,71,69,-1,86,69,88,-1,88,69,67,-1,88,67,90,-1,90,67,65,-1,90,65,49,-1,49,65,62,-1,49,62,60,-1,92,93,94,-1,94,93,95,-1,96,92,97,-1,97,92,94,-1,98,96,99,-1,99,96,97,-1,98,99,100,-1,98,100,101,-1,101,100,102,-1,101,102,103,-1,103,102,104,-1,103,104,105,-1,105,104,106,-1,105,106,107,-1,107,106,108,-1,107,108,109,-1,110,109,111,-1,111,109,108,-1,110,111,112,-1,112,111,113,-1,112,113,114,-1,114,113,115,-1,114,115,116,-1,116,115,117,-1,116,117,118,-1,118,117,119,-1,118,119,120,-1,120,119,121,-1,122,120,123,-1,123,120,121,-1,124,125,126,-1,126,125,127,-1,125,124,128,-1,125,128,129,-1,129,128,130,-1,129,130,131,-1,131,130,132,-1,131,132,133,-1,133,132,134,-1,133,134,135,-1,135,134,136,-1,135,136,137,-1,93,137,95,-1,95,137,136,-1,92,96,93,-1,93,96,98,-1,98,101,93,-1,93,101,103,-1,93,103,105,-1,122,127,120,-1,120,127,125,-1,120,125,118,-1,118,125,129,-1,118,129,116,-1,116,129,131,-1,116,131,114,-1,114,131,133,-1,114,133,112,-1,112,133,135,-1,112,135,110,-1,110,135,137,-1,110,137,109,-1,109,137,93,-1,109,93,107,-1,107,93,105,-1,97,94,99,-1,99,94,95,-1,99,95,100,-1,106,104,95,-1,95,104,102,-1,95,102,100,-1,126,123,124,-1,124,123,121,-1,124,121,128,-1,128,121,119,-1,128,119,130,-1,130,119,117,-1,130,117,132,-1,132,117,115,-1,132,115,134,-1,134,115,113,-1,134,113,136,-1,136,113,111,-1,136,111,95,-1,95,111,108,-1,95,108,106,-1,138,139,140,-1,140,139,141,-1,142,138,143,-1,143,138,140,-1,144,142,145,-1,145,142,143,-1,144,145,146,-1,144,146,147,-1,147,146,148,-1,147,148,149,-1,149,148,150,-1,149,150,151,-1,151,150,152,-1,151,152,153,-1,153,152,154,-1,153,154,155,-1,156,155,157,-1,157,155,154,-1,156,157,158,-1,158,157,159,-1,158,159,160,-1,160,159,161,-1,160,161,162,-1,162,161,163,-1,162,163,164,-1,164,163,165,-1,164,165,166,-1,166,165,167,-1,168,166,169,-1,169,166,167,-1,170,171,172,-1,172,171,173,-1,171,170,174,-1,171,174,175,-1,175,174,176,-1,175,176,177,-1,177,176,178,-1,177,178,179,-1,179,178,180,-1,179,180,181,-1,181,180,182,-1,181,182,183,-1,139,183,141,-1,141,183,182,-1,138,142,139,-1,139,142,144,-1,144,147,139,-1,139,147,149,-1,139,149,151,-1,168,173,166,-1,166,173,171,-1,166,171,164,-1,164,171,175,-1,164,175,162,-1,162,175,177,-1,162,177,160,-1,160,177,179,-1,160,179,158,-1,158,179,181,-1,158,181,156,-1,156,181,183,-1,156,183,155,-1,155,183,139,-1,155,139,153,-1,153,139,151,-1,143,140,145,-1,145,140,141,-1,145,141,146,-1,152,150,141,-1,141,150,148,-1,141,148,146,-1,172,169,170,-1,170,169,167,-1,170,167,174,-1,174,167,165,-1,174,165,176,-1,176,165,163,-1,176,163,178,-1,178,163,161,-1,178,161,180,-1,180,161,159,-1,180,159,182,-1,182,159,157,-1,182,157,141,-1,141,157,154,-1,141,154,152,-1,184,185,186,-1,186,185,187,-1,188,184,189,-1,189,184,186,-1,190,188,191,-1,191,188,189,-1,190,191,192,-1,190,192,193,-1,193,192,194,-1,193,194,195,-1,195,194,196,-1,195,196,197,-1,197,196,198,-1,197,198,199,-1,199,198,200,-1,199,200,201,-1,202,201,203,-1,203,201,200,-1,202,203,204,-1,204,203,205,-1,204,205,206,-1,206,205,207,-1,206,207,208,-1,208,207,209,-1,208,209,210,-1,210,209,211,-1,210,211,212,-1,212,211,213,-1,214,212,215,-1,215,212,213,-1,216,217,218,-1,218,217,219,-1,217,216,220,-1,217,220,221,-1,221,220,222,-1,221,222,223,-1,223,222,224,-1,223,224,225,-1,225,224,226,-1,225,226,227,-1,227,226,228,-1,227,228,229,-1,185,229,187,-1,187,229,228,-1,184,188,185,-1,185,188,190,-1,190,193,185,-1,185,193,195,-1,185,195,197,-1,214,219,212,-1,212,219,217,-1,212,217,210,-1,210,217,221,-1,210,221,208,-1,208,221,223,-1,208,223,206,-1,206,223,225,-1,206,225,204,-1,204,225,227,-1,204,227,202,-1,202,227,229,-1,202,229,201,-1,201,229,185,-1,201,185,199,-1,199,185,197,-1,189,186,191,-1,191,186,187,-1,191,187,192,-1,198,196,187,-1,187,196,194,-1,187,194,192,-1,218,215,216,-1,216,215,213,-1,216,213,220,-1,220,213,211,-1,220,211,222,-1,222,211,209,-1,222,209,224,-1,224,209,207,-1,224,207,226,-1,226,207,205,-1,226,205,228,-1,228,205,203,-1,228,203,187,-1,187,203,200,-1,187,200,198,-1,230,231,232,-1,232,231,233,-1,234,230,235,-1,235,230,232,-1,236,234,237,-1,237,234,235,-1,236,237,238,-1,236,238,239,-1,239,238,240,-1,239,240,241,-1,241,240,242,-1,241,242,243,-1,243,242,244,-1,243,244,245,-1,245,244,246,-1,245,246,247,-1,248,247,249,-1,249,247,246,-1,248,249,250,-1,250,249,251,-1,250,251,252,-1,252,251,253,-1,252,253,254,-1,254,253,255,-1,254,255,256,-1,256,255,257,-1,256,257,258,-1,258,257,259,-1,260,258,261,-1,261,258,259,-1,262,263,264,-1,264,263,265,-1,263,262,266,-1,263,266,267,-1,267,266,268,-1,267,268,269,-1,269,268,270,-1,269,270,271,-1,271,270,272,-1,271,272,273,-1,273,272,274,-1,273,274,275,-1,231,275,233,-1,233,275,274,-1,230,234,231,-1,231,234,236,-1,236,239,231,-1,231,239,241,-1,231,241,243,-1,260,265,258,-1,258,265,263,-1,258,263,256,-1,256,263,267,-1,256,267,254,-1,254,267,269,-1,254,269,252,-1,252,269,271,-1,252,271,250,-1,250,271,273,-1,250,273,248,-1,248,273,275,-1,248,275,247,-1,247,275,231,-1,247,231,245,-1,245,231,243,-1,235,232,237,-1,237,232,233,-1,237,233,238,-1,244,242,233,-1,233,242,240,-1,233,240,238,-1,264,261,262,-1,262,261,259,-1,262,259,266,-1,266,259,257,-1,266,257,268,-1,268,257,255,-1,268,255,270,-1,270,255,253,-1,270,253,272,-1,272,253,251,-1,272,251,274,-1,274,251,249,-1,274,249,233,-1,233,249,246,-1,233,246,244,-1,276,277,278,-1,278,277,279,-1,280,276,281,-1,281,276,278,-1,282,280,283,-1,283,280,281,-1,282,283,284,-1,282,284,285,-1,285,284,286,-1,285,286,287,-1,287,286,288,-1,287,288,289,-1,289,288,290,-1,289,290,291,-1,291,290,292,-1,291,292,293,-1,294,293,295,-1,295,293,292,-1,294,295,296,-1,296,295,297,-1,296,297,298,-1,298,297,299,-1,298,299,300,-1,300,299,301,-1,300,301,302,-1,302,301,303,-1,302,303,304,-1,304,303,305,-1,306,304,307,-1,307,304,305,-1,308,309,310,-1,310,309,311,-1,309,308,312,-1,309,312,313,-1,313,312,314,-1,313,314,315,-1,315,314,316,-1,315,316,317,-1,317,316,318,-1,317,318,319,-1,319,318,320,-1,319,320,321,-1,277,321,279,-1,279,321,320,-1,276,280,277,-1,277,280,282,-1,282,285,277,-1,277,285,287,-1,277,287,289,-1,306,311,304,-1,304,311,309,-1,304,309,302,-1,302,309,313,-1,302,313,300,-1,300,313,315,-1,300,315,298,-1,298,315,317,-1,298,317,296,-1,296,317,319,-1,296,319,294,-1,294,319,321,-1,294,321,293,-1,293,321,277,-1,293,277,291,-1,291,277,289,-1,281,278,283,-1,283,278,279,-1,283,279,284,-1,290,288,279,-1,279,288,286,-1,279,286,284,-1,310,307,308,-1,308,307,305,-1,308,305,312,-1,312,305,303,-1,312,303,314,-1,314,303,301,-1,314,301,316,-1,316,301,299,-1,316,299,318,-1,318,299,297,-1,318,297,320,-1,320,297,295,-1,320,295,279,-1,279,295,292,-1,279,292,290,-1,322,323,324,-1,324,323,325,-1,326,322,327,-1,327,322,324,-1,328,326,329,-1,329,326,327,-1,328,329,330,-1,328,330,331,-1,331,330,332,-1,331,332,333,-1,333,332,334,-1,333,334,335,-1,335,334,336,-1,335,336,337,-1,337,336,338,-1,337,338,339,-1,340,339,341,-1,341,339,338,-1,340,341,342,-1,342,341,343,-1,342,343,344,-1,344,343,345,-1,344,345,346,-1,346,345,347,-1,346,347,348,-1,348,347,349,-1,348,349,350,-1,350,349,351,-1,352,350,353,-1,353,350,351,-1,354,355,356,-1,356,355,357,-1,355,354,358,-1,355,358,359,-1,359,358,360,-1,359,360,361,-1,361,360,362,-1,361,362,363,-1,363,362,364,-1,363,364,365,-1,365,364,366,-1,365,366,367,-1,323,367,325,-1,325,367,366,-1,322,326,323,-1,323,326,328,-1,328,331,323,-1,323,331,333,-1,323,333,335,-1,352,357,350,-1,350,357,355,-1,350,355,348,-1,348,355,359,-1,348,359,346,-1,346,359,361,-1,346,361,344,-1,344,361,363,-1,344,363,342,-1,342,363,365,-1,342,365,340,-1,340,365,367,-1,340,367,339,-1,339,367,323,-1,339,323,337,-1,337,323,335,-1,327,324,329,-1,329,324,325,-1,329,325,330,-1,336,334,325,-1,325,334,332,-1,325,332,330,-1,356,353,354,-1,354,353,351,-1,354,351,358,-1,358,351,349,-1,358,349,360,-1,360,349,347,-1,360,347,362,-1,362,347,345,-1,362,345,364,-1,364,345,343,-1,364,343,366,-1,366,343,341,-1,366,341,325,-1,325,341,338,-1,325,338,336,-1,368,369,370,-1,370,369,371,-1,372,368,373,-1,373,368,370,-1,372,373,374,-1,372,374,375,-1,375,374,376,-1,375,376,377,-1,377,376,378,-1,377,378,379,-1,379,378,380,-1,379,380,381,-1,381,380,382,-1,381,382,383,-1,384,383,385,-1,385,383,382,-1,386,387,388,-1,388,387,389,-1,387,386,390,-1,390,386,391,-1,390,391,392,-1,392,391,393,-1,392,393,394,-1,394,393,395,-1,394,395,396,-1,396,395,397,-1,396,397,398,-1,398,397,399,-1,400,398,401,-1,401,398,399,-1,400,401,402,-1,400,402,403,-1,403,402,404,-1,403,404,405,-1,405,404,406,-1,405,406,407,-1,407,406,408,-1,407,408,409,-1,409,408,410,-1,409,410,411,-1,412,411,413,-1,413,411,410,-1,369,412,371,-1,371,412,413,-1,412,369,411,-1,411,369,368,-1,411,368,409,-1,403,405,368,-1,368,405,407,-1,368,407,409,-1,384,389,383,-1,383,389,387,-1,383,387,381,-1,381,387,390,-1,381,390,379,-1,379,390,392,-1,379,392,377,-1,377,392,394,-1,377,394,375,-1,375,394,396,-1,375,396,372,-1,372,396,398,-1,372,398,368,-1,368,398,400,-1,368,400,403,-1,371,413,370,-1,370,413,410,-1,410,408,370,-1,370,408,406,-1,370,406,404,-1,388,385,386,-1,386,385,382,-1,386,382,391,-1,391,382,380,-1,391,380,393,-1,393,380,378,-1,393,378,395,-1,395,378,376,-1,395,376,397,-1,397,376,374,-1,397,374,399,-1,399,374,373,-1,399,373,401,-1,401,373,370,-1,401,370,402,-1,402,370,404,-1,414,415,416,-1,416,415,417,-1,418,414,419,-1,419,414,416,-1,418,419,420,-1,418,420,421,-1,421,420,422,-1,421,422,423,-1,423,422,424,-1,423,424,425,-1,425,424,426,-1,425,426,427,-1,427,426,428,-1,427,428,429,-1,430,429,431,-1,431,429,428,-1,432,433,434,-1,434,433,435,-1,433,432,436,-1,436,432,437,-1,436,437,438,-1,438,437,439,-1,438,439,440,-1,440,439,441,-1,440,441,442,-1,442,441,443,-1,442,443,444,-1,444,443,445,-1,446,444,447,-1,447,444,445,-1,446,447,448,-1,446,448,449,-1,449,448,450,-1,449,450,451,-1,451,450,452,-1,451,452,453,-1,453,452,454,-1,453,454,455,-1,455,454,456,-1,455,456,457,-1,458,457,459,-1,459,457,456,-1,415,458,417,-1,417,458,459,-1,458,415,457,-1,457,415,414,-1,457,414,455,-1,449,451,414,-1,414,451,453,-1,414,453,455,-1,430,435,429,-1,429,435,433,-1,429,433,427,-1,427,433,436,-1,427,436,425,-1,425,436,438,-1,425,438,423,-1,423,438,440,-1,423,440,421,-1,421,440,442,-1,421,442,418,-1,418,442,444,-1,418,444,414,-1,414,444,446,-1,414,446,449,-1,417,459,416,-1,416,459,456,-1,456,454,416,-1,416,454,452,-1,416,452,450,-1,434,431,432,-1,432,431,428,-1,432,428,437,-1,437,428,426,-1,437,426,439,-1,439,426,424,-1,439,424,441,-1,441,424,422,-1,441,422,443,-1,443,422,420,-1,443,420,445,-1,445,420,419,-1,445,419,447,-1,447,419,416,-1,447,416,448,-1,448,416,450,-1,460,461,462,-1,462,461,463,-1,464,460,465,-1,465,460,462,-1,464,465,466,-1,464,466,467,-1,467,466,468,-1,467,468,469,-1,469,468,470,-1,469,470,471,-1,471,470,472,-1,471,472,473,-1,473,472,474,-1,473,474,475,-1,476,475,477,-1,477,475,474,-1,478,479,480,-1,480,479,481,-1,479,478,482,-1,482,478,483,-1,482,483,484,-1,484,483,485,-1,484,485,486,-1,486,485,487,-1,486,487,488,-1,488,487,489,-1,488,489,490,-1,490,489,491,-1,492,490,493,-1,493,490,491,-1,492,493,494,-1,492,494,495,-1,495,494,496,-1,495,496,497,-1,497,496,498,-1,497,498,499,-1,499,498,500,-1,499,500,501,-1,501,500,502,-1,501,502,503,-1,504,503,505,-1,505,503,502,-1,461,504,463,-1,463,504,505,-1,504,461,503,-1,503,461,460,-1,503,460,501,-1,495,497,460,-1,460,497,499,-1,460,499,501,-1,476,481,475,-1,475,481,479,-1,475,479,473,-1,473,479,482,-1,473,482,471,-1,471,482,484,-1,471,484,469,-1,469,484,486,-1,469,486,467,-1,467,486,488,-1,467,488,464,-1,464,488,490,-1,464,490,460,-1,460,490,492,-1,460,492,495,-1,463,505,462,-1,462,505,502,-1,502,500,462,-1,462,500,498,-1,462,498,496,-1,480,477,478,-1,478,477,474,-1,478,474,483,-1,483,474,472,-1,483,472,485,-1,485,472,470,-1,485,470,487,-1,487,470,468,-1,487,468,489,-1,489,468,466,-1,489,466,491,-1,491,466,465,-1,491,465,493,-1,493,465,462,-1,493,462,494,-1,494,462,496,-1,506,507,508,-1,508,507,509,-1,510,506,511,-1,511,506,508,-1,510,511,512,-1,510,512,513,-1,513,512,514,-1,513,514,515,-1,515,514,516,-1,515,516,517,-1,517,516,518,-1,517,518,519,-1,519,518,520,-1,519,520,521,-1,522,521,523,-1,523,521,520,-1,524,525,526,-1,526,525,527,-1,525,524,528,-1,528,524,529,-1,528,529,530,-1,530,529,531,-1,530,531,532,-1,532,531,533,-1,532,533,534,-1,534,533,535,-1,534,535,536,-1,536,535,537,-1,538,536,539,-1,539,536,537,-1,538,539,540,-1,538,540,541,-1,541,540,542,-1,541,542,543,-1,543,542,544,-1,543,544,545,-1,545,544,546,-1,545,546,547,-1,547,546,548,-1,547,548,549,-1,550,549,551,-1,551,549,548,-1,507,550,509,-1,509,550,551,-1,550,507,549,-1,549,507,506,-1,549,506,547,-1,541,543,506,-1,506,543,545,-1,506,545,547,-1,522,527,521,-1,521,527,525,-1,521,525,519,-1,519,525,528,-1,519,528,517,-1,517,528,530,-1,517,530,515,-1,515,530,532,-1,515,532,513,-1,513,532,534,-1,513,534,510,-1,510,534,536,-1,510,536,506,-1,506,536,538,-1,506,538,541,-1,509,551,508,-1,508,551,548,-1,548,546,508,-1,508,546,544,-1,508,544,542,-1,526,523,524,-1,524,523,520,-1,524,520,529,-1,529,520,518,-1,529,518,531,-1,531,518,516,-1,531,516,533,-1,533,516,514,-1,533,514,535,-1,535,514,512,-1,535,512,537,-1,537,512,511,-1,537,511,539,-1,539,511,508,-1,539,508,540,-1,540,508,542,-1,552,553,554,-1,554,553,555,-1,556,552,557,-1,557,552,554,-1,556,557,558,-1,556,558,559,-1,559,558,560,-1,559,560,561,-1,561,560,562,-1,561,562,563,-1,563,562,564,-1,563,564,565,-1,565,564,566,-1,565,566,567,-1,568,567,569,-1,569,567,566,-1,570,571,572,-1,572,571,573,-1,571,570,574,-1,574,570,575,-1,574,575,576,-1,576,575,577,-1,576,577,578,-1,578,577,579,-1,578,579,580,-1,580,579,581,-1,580,581,582,-1,582,581,583,-1,584,582,585,-1,585,582,583,-1,584,585,586,-1,584,586,587,-1,587,586,588,-1,587,588,589,-1,589,588,590,-1,589,590,591,-1,591,590,592,-1,591,592,593,-1,593,592,594,-1,593,594,595,-1,596,595,597,-1,597,595,594,-1,553,596,555,-1,555,596,597,-1,596,553,595,-1,595,553,552,-1,595,552,593,-1,587,589,552,-1,552,589,591,-1,552,591,593,-1,568,573,567,-1,567,573,571,-1,567,571,565,-1,565,571,574,-1,565,574,563,-1,563,574,576,-1,563,576,561,-1,561,576,578,-1,561,578,559,-1,559,578,580,-1,559,580,556,-1,556,580,582,-1,556,582,552,-1,552,582,584,-1,552,584,587,-1,555,597,554,-1,554,597,594,-1,594,592,554,-1,554,592,590,-1,554,590,588,-1,572,569,570,-1,570,569,566,-1,570,566,575,-1,575,566,564,-1,575,564,577,-1,577,564,562,-1,577,562,579,-1,579,562,560,-1,579,560,581,-1,581,560,558,-1,581,558,583,-1,583,558,557,-1,583,557,585,-1,585,557,554,-1,585,554,586,-1,586,554,588,-1,598,599,600,-1,600,599,601,-1,602,598,603,-1,603,598,600,-1,602,603,604,-1,602,604,605,-1,605,604,606,-1,605,606,607,-1,607,606,608,-1,607,608,609,-1,609,608,610,-1,609,610,611,-1,611,610,612,-1,611,612,613,-1,614,613,615,-1,615,613,612,-1,616,617,618,-1,618,617,619,-1,617,616,620,-1,620,616,621,-1,620,621,622,-1,622,621,623,-1,622,623,624,-1,624,623,625,-1,624,625,626,-1,626,625,627,-1,626,627,628,-1,628,627,629,-1,630,628,631,-1,631,628,629,-1,630,631,632,-1,630,632,633,-1,633,632,634,-1,633,634,635,-1,635,634,636,-1,635,636,637,-1,637,636,638,-1,637,638,639,-1,639,638,640,-1,639,640,641,-1,642,641,643,-1,643,641,640,-1,599,642,601,-1,601,642,643,-1,642,599,641,-1,641,599,598,-1,641,598,639,-1,633,635,598,-1,598,635,637,-1,598,637,639,-1,614,619,613,-1,613,619,617,-1,613,617,611,-1,611,617,620,-1,611,620,609,-1,609,620,622,-1,609,622,607,-1,607,622,624,-1,607,624,605,-1,605,624,626,-1,605,626,602,-1,602,626,628,-1,602,628,598,-1,598,628,630,-1,598,630,633,-1,601,643,600,-1,600,643,640,-1,640,638,600,-1,600,638,636,-1,600,636,634,-1,618,615,616,-1,616,615,612,-1,616,612,621,-1,621,612,610,-1,621,610,623,-1,623,610,608,-1,623,608,625,-1,625,608,606,-1,625,606,627,-1,627,606,604,-1,627,604,629,-1,629,604,603,-1,629,603,631,-1,631,603,600,-1,631,600,632,-1,632,600,634,-1,644,645,646,-1,646,645,647,-1,648,644,649,-1,649,644,646,-1,648,649,650,-1,648,650,651,-1,651,650,652,-1,651,652,653,-1,653,652,654,-1,653,654,655,-1,655,654,656,-1,655,656,657,-1,657,656,658,-1,657,658,659,-1,660,659,661,-1,661,659,658,-1,662,663,664,-1,664,663,665,-1,663,662,666,-1,666,662,667,-1,666,667,668,-1,668,667,669,-1,668,669,670,-1,670,669,671,-1,670,671,672,-1,672,671,673,-1,672,673,674,-1,674,673,675,-1,676,674,677,-1,677,674,675,-1,676,677,678,-1,676,678,679,-1,679,678,680,-1,679,680,681,-1,681,680,682,-1,681,682,683,-1,683,682,684,-1,683,684,685,-1,685,684,686,-1,685,686,687,-1,688,687,689,-1,689,687,686,-1,645,688,647,-1,647,688,689,-1,688,645,687,-1,687,645,644,-1,687,644,685,-1,679,681,644,-1,644,681,683,-1,644,683,685,-1,660,665,659,-1,659,665,663,-1,659,663,657,-1,657,663,666,-1,657,666,655,-1,655,666,668,-1,655,668,653,-1,653,668,670,-1,653,670,651,-1,651,670,672,-1,651,672,648,-1,648,672,674,-1,648,674,644,-1,644,674,676,-1,644,676,679,-1,647,689,646,-1,646,689,686,-1,686,684,646,-1,646,684,682,-1,646,682,680,-1,664,661,662,-1,662,661,658,-1,662,658,667,-1,667,658,656,-1,667,656,669,-1,669,656,654,-1,669,654,671,-1,671,654,652,-1,671,652,673,-1,673,652,650,-1,673,650,675,-1,675,650,649,-1,675,649,677,-1,677,649,646,-1,677,646,678,-1,678,646,680,-1,690,691,692,-1,692,691,693,-1,694,690,695,-1,695,690,692,-1,694,695,696,-1,694,696,697,-1,697,696,698,-1,697,698,699,-1,699,698,700,-1,699,700,701,-1,701,700,702,-1,701,702,703,-1,703,702,704,-1,703,704,705,-1,706,705,707,-1,707,705,704,-1,708,709,710,-1,710,709,711,-1,709,708,712,-1,712,708,713,-1,712,713,714,-1,714,713,715,-1,714,715,716,-1,716,715,717,-1,716,717,718,-1,718,717,719,-1,718,719,720,-1,720,719,721,-1,722,720,723,-1,723,720,721,-1,722,723,724,-1,722,724,725,-1,725,724,726,-1,725,726,727,-1,727,726,728,-1,727,728,729,-1,729,728,730,-1,729,730,731,-1,731,730,732,-1,731,732,733,-1,734,733,735,-1,735,733,732,-1,691,734,693,-1,693,734,735,-1,734,691,733,-1,733,691,690,-1,733,690,731,-1,725,727,690,-1,690,727,729,-1,690,729,731,-1,706,711,705,-1,705,711,709,-1,705,709,703,-1,703,709,712,-1,703,712,701,-1,701,712,714,-1,701,714,699,-1,699,714,716,-1,699,716,697,-1,697,716,718,-1,697,718,694,-1,694,718,720,-1,694,720,690,-1,690,720,722,-1,690,722,725,-1,693,735,692,-1,692,735,732,-1,732,730,692,-1,692,730,728,-1,692,728,726,-1,710,707,708,-1,708,707,704,-1,708,704,713,-1,713,704,702,-1,713,702,715,-1,715,702,700,-1,715,700,717,-1,717,700,698,-1,717,698,719,-1,719,698,696,-1,719,696,721,-1,721,696,695,-1,721,695,723,-1,723,695,692,-1,723,692,724,-1,724,692,726,-1,
        ]
    }
}
Shape{
    appearance Appearance {
        material  Material 	{
            diffuseColor 0.0 0.0 0.0
            specularColor 0.0 0.0 0.0
            ambientIntensity 0.2
            transparency 0
            shininess 0.5
        }
    }
    geometry IndexedFaceSet {
        ccw TRUE
        solid FALSE
        coord DEF co Coordinate {
            point [
                -0.3792 0.0903 -0.4917, -0.456 -0.1065 -0.4917, -0.3792 0.0903 -0.4921, -0.456 -0.1065 -0.4921, -0.4272 -0.1065 -0.4917, -0.4272 -0.1065 -0.4921, -0.4073 -0.0513 -0.4917, -0.4073 -0.0513 -0.4921, -0.326 -0.0513 -0.4917, -0.326 -0.0513 -0.4921, -0.3072 -0.1065 -0.4917, -0.3072 -0.1065 -0.4921, -0.2784 -0.1065 -0.4917, -0.2784 -0.1065 -0.4921, -0.3528 0.0903 -0.4917, -0.3528 0.0903 -0.4921, -0.3326 -0.0297 -0.4917, -0.3984 -0.0297 -0.4917, -0.362 0.0525 -0.4917, -0.3639 0.0593 -0.4917, -0.3651 0.0663 -0.4917, -0.3658 0.0663 -0.4917, -0.367 0.0593 -0.4917, -0.3688 0.0525 -0.4917, -0.3326 -0.0297 -0.4921, -0.3984 -0.0297 -0.4921, -0.362 0.0525 -0.4921, -0.3639 0.0593 -0.4921, -0.3651 0.0663 -0.4921, -0.3658 0.0663 -0.4921, -0.367 0.0593 -0.4921, -0.3688 0.0525 -0.4921, -0.159 -0.1065 -0.4917, -0.1055 -0.1065 -0.4917, -0.159 -0.1065 -0.4921, -0.1055 -0.1065 -0.4921, -0.1055 0.0903 -0.4917, -0.1055 0.0903 -0.4921, -0.1611 0.0903 -0.4917, -0.1611 0.0903 -0.4921, -0.264 -0.0056 -0.4917, -0.264 -0.0056 -0.4921, -0.2625 0.0129 -0.4921, -0.2625 0.0129 -0.4917, -0.2572 0.0323 -0.4921, -0.2572 0.0323 -0.4917, -0.2481 0.0492 -0.4921, -0.2481 0.0492 -0.4917, -0.2342 0.0646 -0.4921, -0.2342 0.0646 -0.4917, -0.234 0.0648 -0.4921, -0.234 0.0648 -0.4917, -0.2125 0.0792 -0.4921, -0.2125 0.0792 -0.4917, -0.1895 0.0873 -0.4921, -0.1895 0.0873 -0.4917, -0.1834 -0.1044 -0.4921, -0.1834 -0.1044 -0.4917, -0.2061 -0.0977 -0.4921, -0.2061 -0.0977 -0.4917, -0.2266 -0.0857 -0.4921, -0.2266 -0.0857 -0.4917, -0.2428 -0.0702 -0.4921, -0.2428 -0.0702 -0.4917, -0.2541 -0.0526 -0.4921, -0.2541 -0.0526 -0.4917, -0.2612 -0.032 -0.4921, -0.2612 -0.032 -0.4917, -0.2244 0.0411 -0.4917, -0.2149 0.0512 -0.4917, -0.2005 0.0605 -0.4917, -0.1843 0.0662 -0.4917, -0.161 0.0687 -0.4917, -0.1319 0.0687 -0.4917, -0.1319 -0.0849 -0.4917, -0.1599 -0.0849 -0.4917, -0.1806 -0.083 -0.4917, -0.1972 -0.0778 -0.4917, -0.2106 -0.0699 -0.4917, -0.2217 -0.059 -0.4917, -0.23 -0.0454 -0.4917, -0.2357 -0.0269 -0.4917, -0.2375 -0.0062 -0.4917, -0.2359 0.0134 -0.4917, -0.2313 0.029 -0.4917, -0.161 0.0687 -0.4921, -0.1319 0.0687 -0.4921, -0.1843 0.0662 -0.4921, -0.2005 0.0605 -0.4921, -0.2149 0.0512 -0.4921, -0.2244 0.0411 -0.4921, -0.2313 0.029 -0.4921, -0.2359 0.0134 -0.4921, -0.2375 -0.0062 -0.4921, -0.2357 -0.0269 -0.4921, -0.23 -0.0454 -0.4921, -0.2217 -0.059 -0.4921, -0.2106 -0.0699 -0.4921, -0.1972 -0.0778 -0.4921, -0.1806 -0.083 -0.4921, -0.1599 -0.0849 -0.4921, -0.1319 -0.0849 -0.4921, -0.0671 -0.0849 -0.4917, -0.0671 -0.1065 -0.4917, -0.0671 -0.0849 -0.4921, -0.0671 -0.1065 -0.4921, 0.0385 -0.1065 -0.4917, 0.0385 -0.1065 -0.4921, 0.0385 0.0903 -0.4917, 0.0385 0.0903 -0.4921, -0.0623 0.0903 -0.4917, -0.0623 0.0903 -0.4921, -0.0623 0.0687 -0.4917, -0.0623 0.0687 -0.4921, 0.0121 0.0687 -0.4917, 0.0121 0.0687 -0.4921, 0.0121 0.0039 -0.4917, 0.0121 0.0039 -0.4921, -0.0575 0.0039 -0.4917, -0.0575 0.0039 -0.4921, -0.0575 -0.0177 -0.4917, -0.0575 -0.0177 -0.4921, 0.0121 -0.0177 -0.4917, 0.0121 -0.0177 -0.4921, 0.0121 -0.0849 -0.4917, 0.0121 -0.0849 -0.4921, 0.0769 -0.0747 -0.4917, 0.0769 -0.0963 -0.4917, 0.0769 -0.0747 -0.4921, 0.0769 -0.0963 -0.4921, 0.0979 -0.105 -0.4917, 0.1311 -0.1089 -0.4917, 0.1311 -0.1089 -0.4921, 0.1257 -0.1089 -0.4921, 0.1257 -0.1089 -0.4917, 0.1178 -0.1077 -0.4921, 0.0979 -0.105 -0.4921, 0.1427 -0.1077 -0.4921, 0.1554 -0.1064 -0.4917, 0.1554 -0.1064 -0.4921, 0.1744 -0.0999 -0.4917, 0.1744 -0.0999 -0.4921, 0.1903 -0.0898 -0.4917, 0.1903 -0.0898 -0.4921, 0.2051 -0.0742 -0.4917, 0.2051 -0.0742 -0.4921, 0.2155 -0.0555 -0.4917, 0.2155 -0.0555 -0.4921, 0.2215 -0.0346 -0.4917, 0.2215 -0.0346 -0.4921, 0.2234 -0.0118 -0.4917, 0.2234 -0.0118 -0.4921, 0.1233 0.0927 -0.4917, 0.1233 0.0927 -0.4921, 0.143 0.0911 -0.4921, 0.143 0.0911 -0.4917, 0.165 0.0847 -0.4921, 0.165 0.0847 -0.4917, 0.1837 0.074 -0.4921, 0.1837 0.074 -0.4917, 0.2014 0.0569 -0.4921, 0.2014 0.0569 -0.4917, 0.213 0.0385 -0.4921, 0.213 0.0385 -0.4917, 0.2205 0.0162 -0.4921, 0.2205 0.0162 -0.4917, 0.0769 0.0849 -0.4917, 0.0769 0.0849 -0.4921, 0.0997 0.0911 -0.4921, 0.0997 0.0911 -0.4917, 0.0769 0.0585 -0.4917, 0.0769 0.0585 -0.4921, 0.123 0.0711 -0.4917, 0.123 0.0711 -0.4921, 0.0991 0.068 -0.4921, 0.0991 0.068 -0.4917, 0.197 -0.0102 -0.4917, 0.197 -0.0102 -0.4921, 0.196 0.0051 -0.4921, 0.196 0.0051 -0.4917, 0.1908 0.0262 -0.4921, 0.1908 0.0262 -0.4917, 0.1827 0.0414 -0.4921, 0.1827 0.0414 -0.4917, 0.1708 0.0545 -0.4921, 0.1708 0.0545 -0.4917, 0.1571 0.0636 -0.4921, 0.1571 0.0636 -0.4917, 0.1424 0.0689 -0.4921, 0.1424 0.0689 -0.4917, 0.1275 -0.0873 -0.4917, 0.1275 -0.0873 -0.4921, 0.1458 -0.0853 -0.4921, 0.1458 -0.0853 -0.4917, 0.1602 -0.08 -0.4921, 0.1602 -0.08 -0.4917, 0.1722 -0.0719 -0.4921, 0.1722 -0.0719 -0.4917, 0.1815 -0.0621 -0.4921, 0.1815 -0.0621 -0.4917, 0.1896 -0.0485 -0.4921, 0.1896 -0.0485 -0.4917, 0.195 -0.0315 -0.4921, 0.195 -0.0315 -0.4917, 0.0805 -0.0767 -0.4921, 0.0805 -0.0767 -0.4917, 0.1013 -0.0844 -0.4921, 0.1013 -0.0844 -0.4917, 0.2402 -0.0849 -0.4917, 0.2402 -0.1065 -0.4917, 0.2402 -0.0849 -0.4921, 0.2402 -0.1065 -0.4921, 0.341 -0.1065 -0.4917, 0.341 -0.1065 -0.4921, 0.341 0.0903 -0.4917, 0.341 0.0903 -0.4921, 0.3146 0.0903 -0.4917, 0.3146 0.0903 -0.4921, 0.3146 -0.0849 -0.4917, 0.3146 -0.0849 -0.4921, 0.3146 -0.0849 -0.4921
            ]
        }
        coordIndex [
            0,1,2,-1,2,1,3,-1,1,4,3,-1,3,4,5,-1,4,6,5,-1,5,6,7,-1,6,8,7,-1,7,8,9,-1,8,10,9,-1,9,10,11,-1,10,12,11,-1,11,12,13,-1,12,14,13,-1,13,14,15,-1,14,0,15,-1,15,0,2,-1,16,8,17,-1,17,8,6,-1,18,14,16,-1,16,14,12,-1,16,12,8,-1,8,12,10,-1,18,19,14,-1,14,19,20,-1,14,20,0,-1,0,20,21,-1,0,21,22,-1,22,23,0,-1,0,23,17,-1,0,17,1,-1,1,17,6,-1,1,6,4,-1,16,17,24,-1,24,17,25,-1,18,16,26,-1,26,16,24,-1,18,26,27,-1,18,27,19,-1,19,27,28,-1,19,28,20,-1,21,20,29,-1,29,20,28,-1,21,29,30,-1,21,30,22,-1,22,30,31,-1,22,31,23,-1,17,23,25,-1,25,23,31,-1,32,33,34,-1,34,33,35,-1,33,36,35,-1,35,36,37,-1,36,38,37,-1,37,38,39,-1,40,41,42,-1,40,42,43,-1,43,42,44,-1,43,44,45,-1,45,44,46,-1,45,46,47,-1,47,46,48,-1,47,48,49,-1,49,48,50,-1,49,50,51,-1,51,50,52,-1,51,52,53,-1,53,52,54,-1,53,54,55,-1,55,54,39,-1,55,39,38,-1,32,34,56,-1,32,56,57,-1,57,56,58,-1,57,58,59,-1,59,58,60,-1,59,60,61,-1,61,60,62,-1,61,62,63,-1,63,62,64,-1,63,64,65,-1,65,64,66,-1,65,66,67,-1,67,66,41,-1,67,41,40,-1,45,47,68,-1,68,47,49,-1,68,49,69,-1,69,49,51,-1,69,51,70,-1,70,51,53,-1,70,53,71,-1,71,53,55,-1,71,55,72,-1,72,55,38,-1,72,38,73,-1,73,38,36,-1,73,36,74,-1,74,36,33,-1,74,33,75,-1,75,33,32,-1,75,32,76,-1,76,32,57,-1,76,57,77,-1,77,57,59,-1,77,59,78,-1,78,59,61,-1,78,61,79,-1,79,61,63,-1,79,63,80,-1,80,63,65,-1,80,65,81,-1,81,65,67,-1,81,67,82,-1,82,67,40,-1,82,40,83,-1,83,40,43,-1,83,43,84,-1,84,43,45,-1,84,45,68,-1,72,73,85,-1,85,73,86,-1,72,85,87,-1,72,87,71,-1,71,87,88,-1,71,88,70,-1,70,88,89,-1,70,89,69,-1,69,89,90,-1,69,90,68,-1,68,90,91,-1,68,91,84,-1,84,91,92,-1,84,92,83,-1,83,92,93,-1,83,93,82,-1,82,93,94,-1,82,94,81,-1,81,94,95,-1,81,95,80,-1,80,95,96,-1,80,96,79,-1,79,96,97,-1,79,97,78,-1,78,97,98,-1,78,98,77,-1,77,98,99,-1,77,99,76,-1,76,99,100,-1,76,100,75,-1,74,75,101,-1,101,75,100,-1,73,74,86,-1,86,74,101,-1,102,103,104,-1,104,103,105,-1,103,106,105,-1,105,106,107,-1,106,108,107,-1,107,108,109,-1,108,110,109,-1,109,110,111,-1,110,112,111,-1,111,112,113,-1,112,114,113,-1,113,114,115,-1,114,116,115,-1,115,116,117,-1,116,118,117,-1,117,118,119,-1,118,120,119,-1,119,120,121,-1,120,122,121,-1,121,122,123,-1,122,124,123,-1,123,124,125,-1,124,102,125,-1,125,102,104,-1,106,103,102,-1,102,124,106,-1,106,124,122,-1,106,122,108,-1,112,110,114,-1,114,110,108,-1,114,108,116,-1,116,108,122,-1,116,122,118,-1,118,122,120,-1,126,127,128,-1,128,127,129,-1,129,127,130,-1,131,132,133,-1,131,133,134,-1,134,133,135,-1,134,135,130,-1,130,135,136,-1,130,136,129,-1,132,131,137,-1,137,131,138,-1,137,138,139,-1,139,138,140,-1,139,140,141,-1,141,140,142,-1,141,142,143,-1,143,142,144,-1,143,144,145,-1,145,144,146,-1,145,146,147,-1,147,146,148,-1,147,148,149,-1,149,148,150,-1,149,150,151,-1,152,153,154,-1,152,154,155,-1,155,154,156,-1,155,156,157,-1,157,156,158,-1,157,158,159,-1,159,158,160,-1,159,160,161,-1,161,160,162,-1,161,162,163,-1,163,162,164,-1,163,164,165,-1,165,164,151,-1,165,151,150,-1,166,167,168,-1,166,168,169,-1,169,168,153,-1,169,153,152,-1,166,170,167,-1,167,170,171,-1,172,173,174,-1,172,174,175,-1,175,174,171,-1,175,171,170,-1,176,177,178,-1,176,178,179,-1,179,178,180,-1,179,180,181,-1,181,180,182,-1,181,182,183,-1,183,182,184,-1,183,184,185,-1,185,184,186,-1,185,186,187,-1,187,186,188,-1,187,188,189,-1,189,188,173,-1,189,173,172,-1,190,191,192,-1,190,192,193,-1,193,192,194,-1,193,194,195,-1,195,194,196,-1,195,196,197,-1,197,196,198,-1,197,198,199,-1,199,198,200,-1,199,200,201,-1,201,200,202,-1,201,202,203,-1,203,202,177,-1,203,177,176,-1,126,128,204,-1,126,204,205,-1,205,204,206,-1,205,206,207,-1,207,206,191,-1,207,191,190,-1,193,131,190,-1,190,131,134,-1,190,134,207,-1,207,134,130,-1,207,130,205,-1,205,130,127,-1,205,127,126,-1,170,166,175,-1,175,166,169,-1,175,169,172,-1,172,169,152,-1,172,152,189,-1,189,152,155,-1,189,155,187,-1,187,155,157,-1,187,157,185,-1,185,157,159,-1,185,159,183,-1,183,159,161,-1,183,161,181,-1,181,161,163,-1,181,163,179,-1,179,163,165,-1,179,165,176,-1,176,165,150,-1,176,150,203,-1,203,150,148,-1,203,148,201,-1,201,148,146,-1,201,146,199,-1,199,146,144,-1,199,144,197,-1,197,144,142,-1,197,142,195,-1,195,142,140,-1,195,140,193,-1,193,140,138,-1,193,138,131,-1,208,209,210,-1,210,209,211,-1,209,212,211,-1,211,212,213,-1,212,214,213,-1,213,214,215,-1,214,216,215,-1,215,216,217,-1,216,218,217,-1,217,218,219,-1,218,208,219,-1,219,208,210,-1,216,214,218,-1,218,214,212,-1,218,212,208,-1,208,212,209,-1,
        ]
    }
}
Shape{
    appearance Appearance {
        material  Material 	{
            diffuseColor 0.25098039215686274 0.25098039215686274 0.25098039215686274
            specularColor 0.12549019607843137 0.12549019607843137 0.12549019607843137
            ambientIntensity 0.2
            transparency 0
            shininess 0.5
        }
    }
    geometry IndexedFaceSet {
        ccw TRUE
        solid FALSE
        coord DEF co Coordinate {
            point [
                -0.3326 -0.0297 -0.4921, -0.3984 -0.0297 -0.4921, -0.362 0.0525 -0.4921, -0.3688 0.0525 -0.4921, -0.3639 0.0593 -0.4921, -0.367 0.0593 -0.4921, -0.3651 0.0663 -0.4921, -0.3658 0.0663 -0.4921, -0.1319 0.0687 -0.4921, -0.1319 -0.0849 -0.4921, -0.161 0.0687 -0.4921, -0.1599 -0.0849 -0.4921, -0.1806 -0.083 -0.4921, -0.2375 -0.0062 -0.4921, -0.2359 0.0134 -0.4921, -0.2313 0.029 -0.4921, -0.1843 0.0662 -0.4921, -0.1972 -0.0778 -0.4921, -0.2106 -0.0699 -0.4921, -0.2217 -0.059 -0.4921, -0.23 -0.0454 -0.4921, -0.2357 -0.0269 -0.4921, -0.2244 0.0411 -0.4921, -0.2149 0.0512 -0.4921, -0.2005 0.0605 -0.4921, -0.2005 0.0605 -0.4921
            ]
        }
        coordIndex [
            0,1,2,-1,2,1,3,-1,2,3,4,-1,4,3,5,-1,4,5,6,-1,6,5,7,-1,8,9,10,-1,10,9,11,-1,10,11,12,-1,13,14,10,-1,10,14,15,-1,10,15,16,-1,12,17,10,-1,10,17,18,-1,10,18,19,-1,19,20,10,-1,10,20,21,-1,10,21,13,-1,22,23,15,-1,15,23,24,-1,15,24,16,-1,
        ]
    }
}