#VRML V2.0 utf8
# 3D model generated by easyeda2kicad.py (https://github.com/uPesy/easyeda2kicad.py)

Shape{
    appearance Appearance {
        material  Material 	{
            diffuseColor 0.25098039215686274 0.25098039215686274 0.25098039215686274
            specularColor 0.12549019607843137 0.12549019607843137 0.12549019607843137
            ambientIntensity 0.2
            transparency 0
            shininess 0.5
        }
    }
    geometry IndexedFaceSet {
        ccw TRUE
        solid FALSE
        coord DEF co Coordinate {
            point [
                -0.3903 -0.8266 0.2269, -0.3892 -0.8261 0.2323, -0.8942 -0.8261 0.2323, 0.2109 -0.8373 0.1051, 0.2103 -0.8373 0.1048, 0.2103 -0.8379 0.0976, 0.175 -0.8351 0.1296, 0.1715 -0.8352 0.1292, 0.1916 -0.8352 0.1292, -1.3978 -0.8465 0.0, -0.8942 -0.8465 -0.0, -0.8942 -0.8379 0.0976, 0.3012 -0.8289 0.2004, 0.303 -0.8343 0.139, 0.3105 -0.8261 0.2323, 0.3105 -0.8352 0.1292, 0.303 -0.8351 0.1299, 0.2853 -0.8352 0.1292, 0.2703 -0.832 0.1658, 0.2703 -0.8343 0.139, 0.2853 -0.832 0.1658, 0.2853 -0.8343 0.139, 0.2989 -0.832 0.1658, 0.2989 -0.8312 0.1749, 0.2853 -0.8312 0.1749, 0.2853 -0.8289 0.2004, 0.2703 -0.8312 0.1749, 0.2703 -0.8289 0.2004, 0.2853 -0.8351 0.1299, 0.2599 -0.8351 0.1299, 0.2545 -0.8352 0.1292, 0.2599 -0.8281 0.2096, 0.3399 -0.8221 0.2782, 0.3105 -0.8221 0.2782, 0.3481 -0.824 0.2564, 0.3595 -0.824 0.2564, 1.3775 -0.8261 0.2323, 1.3683 -0.817 0.3368, 0.329 -0.817 0.3362, 0.3105 -0.817 0.3368, 0.318 -0.817 0.3362, 0.3105 -0.8187 0.3168, 1.3865 -0.8352 0.1292, 0.4293 -0.8281 0.2096, 0.4484 -0.8351 0.1299, 0.4402 -0.8332 0.1517, 0.4069 -0.8332 0.1517, 0.4182 -0.8281 0.2096, 0.3831 -0.832 0.1657, 0.3811 -0.8328 0.1564, 0.3877 -0.8351 0.1299, 0.3772 -0.8335 0.1481, 0.3712 -0.8341 0.141, 0.3833 -0.8315 0.1708, 0.3819 -0.8305 0.1818, 0.341 -0.8281 0.2096, 0.3532 -0.8282 0.2083, 0.3712 -0.829 0.1991, 0.374 -0.8293 0.1964, 0.379 -0.8299 0.1894, 0.363 -0.8346 0.1351, 0.3539 -0.8349 0.1315, 0.3401 -0.8351 0.1299, 0.3628 -0.8285 0.2048, 0.3992 -0.8351 0.1299, 0.4598 -0.8351 0.1299, 0.3181 -0.8351 0.1299, 0.3181 -0.8281 0.2096, -1.3892 -0.8379 0.0976, -0.8942 -0.8352 0.1292, -1.3865 -0.8352 0.1292, -1.3775 -0.8261 0.2323, -0.8942 -0.817 0.3368, -1.3683 -0.817 0.3368, -0.8942 -0.8084 0.4354, -1.3597 -0.8084 0.4354, 0.155 -0.817 0.3368, 0.1332 -0.817 0.3368, 0.1353 -0.817 0.3367, 0.1436 -0.8172 0.3342, 0.1436 -0.8182 0.3235, 0.155 -0.8261 0.2323, 0.0873 -0.8261 0.2323, 0.1004 -0.8237 0.2606, 0.094 -0.8232 0.2659, 0.1423 -0.8238 0.259, 0.1337 -0.824 0.2562, 0.0946 -0.8209 0.2924, 0.1427 -0.8181 0.324, 0.1346 -0.8178 0.327, 0.0985 -0.8221 0.278, 0.1024 -0.8226 0.2726, 0.1039 -0.8227 0.2711, 0.1092 -0.8231 0.2674, 0.1267 -0.8233 0.2644, 0.1358 -0.8232 0.2661, 0.1436 -0.8229 0.2696, 0.1436 -0.8237 0.2597, 0.1215 -0.8241 0.2551, 0.1166 -0.8241 0.2553, 0.108 -0.824 0.2571, 0.1149 -0.8233 0.2652, 0.123 -0.8233 0.2642, 0.1029 -0.8185 0.3194, 0.0986 -0.819 0.3133, 0.1084 -0.8181 0.3238, 0.1147 -0.8179 0.3268, 0.1248 -0.8177 0.3282, 0.1217 -0.8178 0.3281, 0.0945 -0.8206 0.2954, 0.0959 -0.8196 0.3065, 0.0959 -0.8216 0.2845, 0.1248 -0.8169 0.3375, 0.155 -0.8084 0.4354, 0.1247 -0.8169 0.3375, 0.0873 -0.8084 0.4354, 0.1191 -0.817 0.3368, 0.0873 -0.817 0.3368, 0.0894 -0.8186 0.3182, 0.0952 -0.818 0.3258, 0.0971 -0.8178 0.3276, 0.1046 -0.8173 0.3328, 0.113 -0.8171 0.3361, 0.0886 -0.8225 0.2734, 0.0873 -0.8223 0.2767, 0.0825 -0.8261 0.2323, 0.0825 -0.817 0.3368, 0.0856 -0.8194 0.3093, 0.0873 -0.8191 0.3131, 0.0853 -0.8218 0.2817, 0.0837 -0.8207 0.2948, 0.0838 -0.8203 0.2989, 0.2009 -0.817 0.3362, 0.2103 -0.817 0.3368, 0.1916 -0.817 0.3368, 0.17 -0.8209 0.2923, 0.17 -0.8232 0.2655, 0.1916 -0.8209 0.2923, 0.1916 -0.8232 0.2655, 0.1986 -0.8209 0.2923, 0.2027 -0.8232 0.2655, 0.1986 -0.8201 0.3015, 0.2009 -0.8178 0.327, 0.1916 -0.8201 0.3015, 0.1916 -0.8178 0.327, 0.17 -0.8201 0.3015, 0.17 -0.8178 0.327, 0.2103 -0.8261 0.2323, 0.2027 -0.824 0.2564, 0.1916 -0.8261 0.2323, 0.1916 -0.824 0.2564, 0.1597 -0.824 0.2564, 0.1597 -0.817 0.3362, 0.1916 -0.817 0.3362, 0.2399 -0.824 0.2564, 0.2178 -0.824 0.2564, 0.2407 -0.817 0.3362, 0.2545 -0.817 0.3368, 0.2178 -0.817 0.3362, 0.2809 -0.8217 0.2829, 0.2769 -0.8224 0.2746, 0.2853 -0.8261 0.2323, 0.2828 -0.8209 0.2922, 0.2853 -0.817 0.3368, 0.2817 -0.8195 0.3084, 0.283 -0.8204 0.2973, 0.271 -0.823 0.2676, 0.2627 -0.8236 0.2617, 0.2545 -0.8261 0.2323, 0.2545 -0.8238 0.2584, 0.2536 -0.8239 0.2581, 0.271 -0.818 0.3256, 0.2737 -0.8182 0.3229, 0.2787 -0.8188 0.316, 0.2529 -0.8172 0.3348, 0.2545 -0.8172 0.3342, 0.2626 -0.8175 0.3313, 0.2875 -0.824 0.2564, 0.2989 -0.824 0.2564, 0.3066 -0.8221 0.2782, 0.0929 -0.833 0.1541, 0.0949 -0.8327 0.157, 0.0964 -0.8313 0.1731, 0.118 -0.835 0.1305, 0.1144 -0.8352 0.1292, 0.1268 -0.8351 0.1299, 0.1217 -0.8348 0.1328, 0.1186 -0.8307 0.1797, 0.1152 -0.8307 0.18, 0.1098 -0.8321 0.1637, 0.099 -0.835 0.1307, 0.0873 -0.8352 0.1292, 0.1028 -0.8351 0.1292, 0.1033 -0.8352 0.1292, 0.0926 -0.8345 0.1371, 0.0914 -0.8342 0.1405, 0.0908 -0.8338 0.1451, 0.0979 -0.8325 0.1597, 0.1022 -0.8323 0.1618, 0.1034 -0.8309 0.1775, 0.1097 -0.8308 0.1795, 0.0958 -0.8348 0.133, 0.0947 -0.8347 0.1341, 0.1268 -0.8343 0.1387, 0.1265 -0.8343 0.1387, 0.1249 -0.8345 0.1362, 0.0909 -0.8337 0.1463, 0.0915 -0.8333 0.1506, 0.1549 -0.8324 0.1607, 0.1504 -0.834 0.1422, 0.155 -0.8324 0.1607, 0.154 -0.8342 0.1399, 0.155 -0.8342 0.1395, 0.0964 -0.8305 0.1828, 0.0984 -0.8304 0.184, 0.1059 -0.8301 0.1869, 0.1268 -0.8319 0.1661, 0.1264 -0.8315 0.1704, 0.1254 -0.8312 0.174, 0.1242 -0.8311 0.1761, 0.1323 -0.8305 0.1819, 0.1344 -0.8308 0.1787, 0.1519 -0.8309 0.178, 0.136 -0.8312 0.1742, 0.1508 -0.8312 0.1748, 0.1161 -0.83 0.1881, 0.1221 -0.83 0.1876, 0.1263 -0.8302 0.1863, 0.1227 -0.8309 0.1777, 0.1209 -0.8308 0.1788, 0.1537 -0.8306 0.1807, 0.1297 -0.8303 0.1845, 0.1533 -0.8322 0.1624, 0.1521 -0.8321 0.1642, 0.1368 -0.8319 0.1665, 0.151 -0.8318 0.1672, 0.1504 -0.8315 0.1715, 0.1139 -0.8352 0.129, 0.155 -0.8379 0.0976, 0.0873 -0.8379 0.0976, 0.109 -0.8352 0.1285, 0.1086 -0.8352 0.1285, 0.1504 -0.8349 0.1319, 0.1368 -0.8351 0.1299, 0.155 -0.8351 0.1302, 0.155 -0.8352 0.1292, 0.1574 -0.8351 0.1294, 0.1594 -0.8352 0.1292, 0.1659 -0.8352 0.1285, 0.1863 -0.8302 0.1856, 0.1863 -0.8311 0.1759, 0.1856 -0.8329 0.1548, 0.1874 -0.8331 0.1523, 0.1875 -0.8343 0.1385, 0.1857 -0.8346 0.1358, 0.155 -0.8305 0.1819, 0.1569 -0.8304 0.1836, 0.1593 -0.8303 0.1851, 0.1647 -0.8301 0.1872, 0.1727 -0.83 0.1881, 0.1797 -0.8301 0.1875, 0.1826 -0.8348 0.133, 0.1803 -0.8349 0.1316, 0.1885 -0.8334 0.1495, 0.189 -0.8337 0.1454, 0.1886 -0.8341 0.1417, 0.1717 -0.8307 0.18, 0.1688 -0.8307 0.1798, 0.1608 -0.8314 0.1724, 0.1661 -0.8308 0.1791, 0.1638 -0.8309 0.1779, 0.1609 -0.8315 0.171, 0.1613 -0.8316 0.1695, 0.162 -0.8317 0.1681, 0.163 -0.8318 0.1671, 0.1665 -0.832 0.1648, 0.1787 -0.8308 0.1792, 0.1727 -0.8323 0.1622, 0.1844 -0.831 0.177, 0.1766 -0.8324 0.1606, 0.1833 -0.8327 0.1569, 0.1623 -0.831 0.1766, 0.1615 -0.8311 0.1753, 0.161 -0.8312 0.1739, 0.1603 -0.8344 0.1375, 0.1656 -0.8329 0.1549, 0.1597 -0.8327 0.1576, 0.1669 -0.8345 0.1367, 0.1673 -0.8345 0.1367, 0.1722 -0.8331 0.1522, 0.1725 -0.8344 0.1372, 0.1787 -0.8338 0.1444, 0.1786 -0.8337 0.1456, 0.175 -0.8344 0.1382, 0.176 -0.8343 0.1387, 0.1771 -0.8342 0.1398, 0.178 -0.8341 0.1411, 0.1785 -0.834 0.1425, 0.1782 -0.8336 0.1472, 0.1774 -0.8335 0.1485, 0.1761 -0.8334 0.1498, 0.2387 -0.8301 0.1868, 0.2491 -0.8301 0.1868, 0.2853 -0.8281 0.2096, 0.3012 -0.8281 0.2096, 0.2204 -0.8339 0.144, 0.2216 -0.8343 0.1393, 0.2219 -0.8343 0.1393, 0.2103 -0.8313 0.173, 0.2231 -0.8339 0.1439, 0.2223 -0.8341 0.1413, 0.2103 -0.8352 0.1292, 0.2103 -0.8337 0.1461, 0.1942 -0.8301 0.1868, 0.2054 -0.8301 0.1868, 0.2167 -0.8351 0.13, 0.2163 -0.8352 0.1292, 0.2123 -0.836 0.1196, 0.1916 -0.8379 0.0976, 0.1963 -0.8374 0.1038, 0.1963 -0.8366 0.1127, 0.1983 -0.8367 0.1121, 0.202 -0.8367 0.1116, 0.2039 -0.8367 0.1118, 0.2061 -0.8366 0.1124, 0.208 -0.8365 0.1136, 0.207 -0.8374 0.1035, 0.2028 -0.8374 0.103, 0.2005 -0.8374 0.1031, 0.21 -0.8363 0.1157, 0.2103 -0.8363 0.1161, 0.2232 -0.8358 0.1213, 0.223 -0.8359 0.1208, 0.2545 -0.8379 0.0976, 0.2263 -0.8352 0.1292, 0.2182 -0.8367 0.1118, 0.2145 -0.837 0.1076, 0.2144 -0.837 0.1076, -0.1399 -0.8163 0.3451, -0.1276 -0.817 0.3368, 0.0054 -0.817 0.3368, -0.1145 -0.8178 0.3281, -0.0959 -0.8196 0.3067, -0.0838 -0.8217 0.2833, -0.08 -0.8218 0.282, -0.0632 -0.8225 0.2734, -0.1919 -0.8152 0.3576, -0.1685 -0.8154 0.3551, 0.0054 -0.8084 0.4354, -0.2202 -0.8155 0.3541, -0.2464 -0.8164 0.344, -0.3858 -0.8247 0.2492, -0.258 -0.817 0.3368, -0.2602 -0.8171 0.3354, -0.3761 -0.8229 0.2692, -0.3638 -0.8216 0.2844, -0.3584 -0.8211 0.2894, -0.3393 -0.82 0.3021, -0.318 -0.8194 0.3095, -0.2984 -0.8192 0.3116, -0.2736 -0.8181 0.324, -0.2918 -0.8192 0.3113, -0.2853 -0.8193 0.3105, -0.3212 -0.835 0.1307, -0.3314 -0.8347 0.134, -0.3516 -0.8338 0.1446, -0.3667 -0.8326 0.1579, -0.3691 -0.8324 0.1607, -0.381 -0.8308 0.1791, -0.3885 -0.8289 0.2003, -0.3906 -0.8272 0.2198, -0.307 -0.837 0.1082, -0.3155 -0.8361 0.1186, -0.3204 -0.8352 0.1292, 0.0054 -0.8379 0.0976, -0.2435 -0.8379 0.0976, 0.0054 -0.8465 -0.0, -0.2533 -0.8382 0.0938, -0.2671 -0.8384 0.0922, -0.2693 -0.8384 0.0922, -0.2827 -0.8382 0.0943, -0.2906 -0.8379 0.0976, -0.2959 -0.8377 0.0998, 0.0054 -0.8352 0.1292, -0.2137 -0.8352 0.1292, -0.2137 -0.8352 0.1291, -0.2205 -0.8363 0.1164, -0.2293 -0.8371 0.1065, -0.2406 -0.8378 0.0987, -0.2244 -0.8301 0.1869, -0.1481 -0.8266 0.2266, -0.2343 -0.8293 0.1959, -0.2464 -0.8288 0.2023, -0.0479 -0.8237 0.2602, -0.0365 -0.8251 0.2439, 0.0054 -0.8261 0.2323, -0.032 -0.8261 0.2323, -0.0298 -0.8266 0.2266, -0.063 -0.8278 0.2133, -0.0656 -0.8268 0.2242, -0.07 -0.8261 0.2323, -0.3533 -0.8261 0.2323, -0.1364 -0.8351 0.1299, -0.1402 -0.835 0.1312, -0.144 -0.8348 0.1337, -0.146 -0.8346 0.1357, -0.1443 -0.8324 0.1604, -0.1408 -0.8322 0.1628, -0.1304 -0.8293 0.1965, -0.1368 -0.8321 0.1643, -0.0378 -0.8316 0.1697, -0.0485 -0.8329 0.1551, -0.05 -0.833 0.1535, -0.065 -0.8341 0.1414, -0.35 -0.8291 0.1984, -0.3432 -0.8301 0.1867, -0.3143 -0.8306 0.1809, -0.333 -0.831 0.1763, -0.3206 -0.8317 0.1687, -0.2932 -0.829 0.1997, -0.3048 -0.8297 0.1917, -0.3547 -0.8271 0.2209, -0.3541 -0.8279 0.2123, -0.0274 -0.8282 0.209, -0.0275 -0.8284 0.2061, -0.0303 -0.83 0.1875, -0.0824 -0.8348 0.1332, -0.1003 -0.8351 0.1296, -0.1339 -0.8351 0.1296, -0.1504 -0.8336 0.1472, -0.1503 -0.8334 0.1488, -0.2101 -0.8329 0.1545, -0.1493 -0.8331 0.1531, -0.1472 -0.8327 0.1571, -0.2806 -0.8286 0.2045, -0.2671 -0.8284 0.2061, -0.2601 -0.8285 0.2057, -0.1484 -0.8343 0.1393, -0.1499 -0.8339 0.1431, -0.2104 -0.8339 0.1431, -0.2101 -0.8334 0.1489, -0.1327 -0.832 0.1647, -0.1322 -0.832 0.1647, -0.1305 -0.8321 0.1643, -0.0742 -0.8308 0.1784, -0.068 -0.8301 0.1873, -0.0641 -0.8292 0.1974, -0.0627 -0.8282 0.2084, -0.1293 -0.8321 0.1642, -0.1037 -0.8321 0.1642, -0.0935 -0.8319 0.1661, -0.0835 -0.8315 0.1707, -0.075 -0.8309 0.1776, -0.1139 -0.8233 0.2644, -0.1217 -0.8217 0.2831, -0.1338 -0.8203 0.2991, -0.1554 -0.8189 0.315, -0.1733 -0.8183 0.3215, -0.1117 -0.8244 0.2526, -0.2676 -0.8229 0.2691, -0.2718 -0.8227 0.2714, -0.2846 -0.8223 0.276, -0.2598 -0.8215 0.2857, -0.1071 -0.8244 0.2526, -0.0709 -0.826 0.234, -0.0775 -0.8253 0.2414, -0.0864 -0.8248 0.2475, -0.0963 -0.8245 0.2513, -0.1392 -0.8198 0.3042, -0.1914 -0.8182 0.3235, -0.1941 -0.8182 0.3235, -0.213 -0.8184 0.3207, -0.3177 -0.8225 0.274, -0.3304 -0.8231 0.2673, -0.3036 -0.8222 0.2773, -0.3403 -0.8238 0.2585, -0.3482 -0.8248 0.2472, -0.2316 -0.8191 0.313, -0.2473 -0.8201 0.3012, -0.2978 -0.8222 0.2776, -0.353 -0.8259 0.2346, 1.3892 -0.8379 0.0976, 0.3105 -0.8379 0.0976, 0.2853 -0.8379 0.0976, 1.3597 -0.8084 0.4354, 0.3105 -0.8084 0.4354, 0.2853 -0.8084 0.4354, 0.2545 -0.8084 0.4354, 0.2103 -0.8084 0.4354, 0.1916 -0.8084 0.4354, 1.3978 -0.8465 0.0, 0.3105 -0.8465 -0.0, 0.2853 -0.8465 -0.0, 0.2545 -0.8465 -0.0, 0.2103 -0.8465 -0.0, 0.1916 -0.8465 -0.0, 0.155 -0.8465 -0.0, 0.0873 -0.8465 -0.0, 0.0825 -0.8465 -0.0, 0.0825 -0.8379 0.0976, 0.0825 -0.8352 0.1292, 0.0812 -0.8343 0.139, 0.0812 -0.8351 0.1299, 0.0382 -0.8351 0.1299, 0.0794 -0.8289 0.2004, 0.0382 -0.8281 0.2096, 0.0794 -0.8281 0.2096, 0.0485 -0.832 0.1658, 0.0485 -0.8343 0.139, 0.0771 -0.832 0.1658, 0.0771 -0.8312 0.1749, 0.0485 -0.8312 0.1749, 0.0485 -0.8289 0.2004, 0.0485 -0.817 0.3362, 0.0485 -0.8232 0.2655, 0.0804 -0.8232 0.2655, 0.0382 -0.824 0.2564, 0.0382 -0.817 0.3362, 0.0804 -0.824 0.2564, 0.0825 -0.8084 0.4354, 1.3529 -0.8016 0.5133, 0.3105 -0.8016 0.5133, 0.2853 -0.8016 0.5133, 0.2545 -0.8016 0.5133, 0.2103 -0.8016 0.5133, 0.1916 -0.8016 0.5133, 0.155 -0.8016 0.5133, 0.0873 -0.8016 0.5133, 0.0825 -0.8016 0.5133, 0.0054 -0.8016 0.5133, -0.8942 -0.8016 0.5133, -1.3529 -0.8016 0.5133, 1.3931 0.4724 -0.502, 1.3931 0.7633 -0.502, 1.4359 0.4724 -0.0131, 1.437 0.8072 -0.0, 1.4359 -0.4724 -0.0131, 1.437 -0.8072 -0.0, 1.3931 -0.4724 -0.502, 1.3931 -0.7633 -0.502, 0.9252 -0.4724 -0.502, 0.3937 -0.8025 -0.502, 0.9252 0.4724 -0.502, 0.3937 0.8025 -0.502, 1.3539 0.8025 -0.502, 1.3539 -0.8025 -0.502, 1.364 0.8012 -0.502, 1.3901 0.7784 -0.502, 1.3918 0.7735 -0.502, 1.3918 -0.7735 -0.502, 1.3689 -0.7996 -0.502, 1.364 -0.8012 -0.502, 1.3901 -0.7784 -0.502, 1.3878 -0.783 -0.502, 1.3735 -0.7973 -0.502, 1.3689 0.7996 -0.502, 1.3735 0.7973 -0.502, 1.3878 0.783 -0.502, 1.3778 0.7944 -0.502, 1.385 0.7872 -0.502, 1.3816 0.7911 -0.502, 1.3778 -0.7944 -0.502, 1.385 -0.7872 -0.502, 1.3816 -0.7911 -0.502, -1.4359 -0.4724 -0.0131, -1.3931 -0.4724 -0.502, -1.3931 -0.7633 -0.502, -1.437 0.8072 0.0, -1.3931 0.7633 -0.502, -1.3931 0.4724 -0.502, -1.4359 0.4724 -0.0131, -1.437 -0.8072 -0.0, -0.9252 -0.4724 -0.502, -1.3539 -0.8025 -0.502, -0.3937 -0.8025 -0.502, -0.3937 0.8025 -0.502, -0.9252 0.4724 -0.502, -1.3539 0.8025 -0.502, -1.3878 -0.783 -0.502, -1.3901 -0.7784 -0.502, -1.3689 -0.7996 -0.502, -1.364 -0.8012 -0.502, -1.3918 -0.7735 -0.502, -1.3735 0.7973 -0.502, -1.3689 0.7996 -0.502, -1.3878 0.783 -0.502, -1.3901 0.7784 -0.502, -1.3918 0.7735 -0.502, -1.364 0.8012 -0.502, -1.3735 -0.7973 -0.502, -1.3778 -0.7944 -0.502, -1.385 -0.7872 -0.502, -1.3816 -0.7911 -0.502, -1.3778 0.7944 -0.502, -1.385 0.7872 -0.502, -1.3816 0.7911 -0.502, 0.3465 -0.7984 -0.5492, -0.3465 -0.7984 -0.5492, -1.3978 0.8465 0.0, 1.3978 0.8465 0.0, 0.3465 0.7984 -0.5492, -0.3465 0.7984 -0.5492, 1.3921 0.7623 0.5133, 1.3921 -0.7623 0.5133, 1.3529 0.8016 0.5133, -1.3529 0.8016 0.5133, -1.3921 0.7623 0.5133, -1.3921 -0.7623 0.5133, 0.8295 0.5073 0.5492, 0.8295 0.7623 0.5492, -1.3529 0.7623 0.5492, 1.3529 -0.7623 0.5492, 1.3529 0.7623 0.5492, 1.0516 0.5073 0.5492, 1.0516 0.7623 0.5492, -1.3529 -0.7623 0.5492, 0.8295 -0.7623 0.5492, 0.8295 -0.5073 0.5492, 1.0516 -0.7623 0.5492, 1.0516 -0.5073 0.5492, 1.0516 -0.5073 0.5492
            ]
        }
        coordIndex [
            0,1,2,-1,3,4,5,-1,6,7,8,-1,9,10,11,-1,12,13,14,-1,14,13,15,-1,15,13,16,-1,15,16,17,-1,18,19,20,-1,20,19,21,-1,20,21,22,-1,22,21,13,-1,22,13,23,-1,23,13,12,-1,23,12,24,-1,24,12,25,-1,24,25,26,-1,26,25,27,-1,16,28,17,-1,17,28,29,-1,17,29,30,-1,30,29,31,-1,32,33,34,-1,34,33,14,-1,34,14,35,-1,36,37,38,-1,38,37,39,-1,38,39,40,-1,40,39,41,-1,42,36,43,-1,44,45,46,-1,38,35,36,-1,36,35,14,-1,36,14,43,-1,43,14,47,-1,48,49,50,-1,50,49,51,-1,50,51,52,-1,48,50,53,-1,53,50,47,-1,53,47,54,-1,55,56,14,-1,57,58,47,-1,47,58,59,-1,47,59,54,-1,52,60,50,-1,50,60,61,-1,50,61,62,-1,14,56,47,-1,47,56,63,-1,47,63,57,-1,46,64,44,-1,44,64,42,-1,44,42,65,-1,65,42,43,-1,64,50,42,-1,42,50,62,-1,42,62,15,-1,15,62,66,-1,15,66,14,-1,14,66,67,-1,14,67,55,-1,9,11,68,-1,68,11,69,-1,68,69,70,-1,70,69,2,-1,70,2,71,-1,71,72,73,-1,73,72,74,-1,73,74,75,-1,76,77,78,-1,78,79,76,-1,76,79,80,-1,76,80,81,-1,82,83,84,-1,85,86,81,-1,87,88,89,-1,90,91,80,-1,80,91,92,-1,80,92,93,-1,94,95,80,-1,80,95,96,-1,80,96,81,-1,81,96,97,-1,81,97,85,-1,98,99,82,-1,82,99,100,-1,82,100,83,-1,93,101,80,-1,80,101,102,-1,80,102,94,-1,103,104,105,-1,105,104,106,-1,89,107,87,-1,87,107,108,-1,87,108,109,-1,109,108,106,-1,109,106,110,-1,110,106,104,-1,88,87,80,-1,80,87,111,-1,80,111,90,-1,112,113,114,-1,114,113,115,-1,114,115,116,-1,117,118,119,-1,119,120,117,-1,117,120,121,-1,117,121,122,-1,84,123,82,-1,82,123,124,-1,82,124,125,-1,126,127,117,-1,117,127,128,-1,117,128,118,-1,124,129,125,-1,125,129,130,-1,125,130,126,-1,126,130,131,-1,126,131,127,-1,132,133,134,-1,135,136,137,-1,137,136,138,-1,137,138,139,-1,139,138,140,-1,139,140,141,-1,141,140,142,-1,141,142,143,-1,143,142,144,-1,143,144,145,-1,145,144,146,-1,132,142,133,-1,133,142,140,-1,133,140,147,-1,147,140,148,-1,147,148,149,-1,149,148,150,-1,149,150,81,-1,81,150,151,-1,81,151,76,-1,76,151,152,-1,76,152,134,-1,134,152,153,-1,134,153,132,-1,154,155,147,-1,156,157,133,-1,147,155,133,-1,133,155,158,-1,133,158,156,-1,159,160,161,-1,159,161,162,-1,163,164,165,-1,160,166,161,-1,161,166,167,-1,161,167,168,-1,168,167,169,-1,168,169,170,-1,171,172,163,-1,163,172,173,-1,163,173,164,-1,156,174,157,-1,157,174,175,-1,157,175,163,-1,163,175,176,-1,163,176,171,-1,177,161,178,-1,178,161,14,-1,178,14,179,-1,179,14,33,-1,41,39,177,-1,177,39,163,-1,177,163,161,-1,161,163,165,-1,161,165,162,-1,180,181,182,-1,183,184,185,-1,183,185,186,-1,187,188,189,-1,190,191,192,-1,192,191,193,-1,194,195,191,-1,191,195,196,-1,181,197,182,-1,182,197,198,-1,182,198,199,-1,199,198,189,-1,199,189,200,-1,200,189,188,-1,190,201,191,-1,191,201,202,-1,191,202,194,-1,203,204,185,-1,185,204,205,-1,185,205,186,-1,82,206,207,-1,208,209,210,-1,210,209,211,-1,210,211,212,-1,180,182,207,-1,207,182,213,-1,207,213,82,-1,82,213,214,-1,82,214,215,-1,216,217,189,-1,189,217,218,-1,189,218,219,-1,220,221,222,-1,222,221,223,-1,222,223,224,-1,215,225,82,-1,82,225,226,-1,82,226,227,-1,219,228,189,-1,189,228,229,-1,189,229,187,-1,86,98,81,-1,81,98,82,-1,81,82,230,-1,230,82,227,-1,230,227,222,-1,222,227,231,-1,222,231,220,-1,232,233,234,-1,234,233,235,-1,234,235,223,-1,223,235,236,-1,223,236,224,-1,184,237,238,-1,238,237,239,-1,239,237,240,-1,239,240,241,-1,208,232,209,-1,209,232,234,-1,209,234,242,-1,242,234,243,-1,242,243,244,-1,244,243,245,-1,244,245,246,-1,246,245,247,-1,248,247,238,-1,238,247,245,-1,238,245,184,-1,184,245,243,-1,184,243,185,-1,249,250,8,-1,251,252,250,-1,253,254,8,-1,230,255,81,-1,81,255,256,-1,81,256,257,-1,257,258,81,-1,81,258,259,-1,81,259,149,-1,149,259,260,-1,149,260,249,-1,254,261,8,-1,8,261,262,-1,8,262,6,-1,252,263,250,-1,250,263,264,-1,250,264,8,-1,8,264,265,-1,8,265,253,-1,266,267,268,-1,268,267,269,-1,268,269,270,-1,268,271,266,-1,266,271,272,-1,266,272,273,-1,273,274,266,-1,266,274,275,-1,266,275,276,-1,276,275,277,-1,276,277,278,-1,278,277,279,-1,278,279,250,-1,250,279,280,-1,250,280,251,-1,281,282,270,-1,270,282,283,-1,270,283,268,-1,284,285,212,-1,212,285,286,-1,212,286,210,-1,284,287,285,-1,285,287,288,-1,285,288,289,-1,289,288,290,-1,289,291,292,-1,290,293,289,-1,289,293,294,-1,289,294,295,-1,295,296,289,-1,289,296,297,-1,289,297,291,-1,292,298,289,-1,289,298,299,-1,289,299,300,-1,301,302,168,-1,302,30,168,-1,168,30,31,-1,168,31,161,-1,161,31,303,-1,161,303,14,-1,14,303,304,-1,14,304,12,-1,305,306,307,-1,170,154,168,-1,168,154,147,-1,168,147,301,-1,301,147,308,-1,301,308,309,-1,309,308,305,-1,309,305,310,-1,310,305,307,-1,311,312,8,-1,8,312,313,-1,249,8,149,-1,149,8,313,-1,149,313,147,-1,147,313,314,-1,147,314,308,-1,315,312,316,-1,316,312,311,-1,316,311,317,-1,318,319,320,-1,248,238,7,-1,7,238,318,-1,7,318,8,-1,8,318,320,-1,8,320,311,-1,311,320,321,-1,311,321,322,-1,322,323,311,-1,311,323,324,-1,311,324,325,-1,4,326,5,-1,5,326,327,-1,5,327,318,-1,318,327,328,-1,318,328,319,-1,325,329,311,-1,311,329,330,-1,311,330,317,-1,331,332,333,-1,331,333,334,-1,332,335,333,-1,333,335,336,-1,333,336,5,-1,5,336,337,-1,5,337,3,-1,338,339,340,-1,340,339,341,-1,340,341,342,-1,342,343,340,-1,340,343,344,-1,340,344,345,-1,346,347,348,-1,346,348,349,-1,349,348,74,-1,349,74,350,-1,71,2,72,-1,72,2,1,-1,72,1,351,-1,350,74,352,-1,352,74,72,-1,352,72,353,-1,351,354,72,-1,72,354,355,-1,72,355,356,-1,356,357,72,-1,72,357,358,-1,72,358,353,-1,353,358,359,-1,353,359,360,-1,360,359,361,-1,360,361,362,-1,363,364,69,-1,364,365,69,-1,69,365,366,-1,69,366,367,-1,367,368,69,-1,69,368,369,-1,69,369,2,-1,2,369,370,-1,2,370,0,-1,371,372,69,-1,69,372,373,-1,69,373,363,-1,374,375,376,-1,376,375,377,-1,377,378,376,-1,376,378,379,-1,376,379,10,-1,10,379,380,-1,10,380,11,-1,11,380,381,-1,11,381,69,-1,69,381,382,-1,69,382,371,-1,383,384,374,-1,374,384,385,-1,374,385,386,-1,386,387,374,-1,374,387,388,-1,374,388,375,-1,389,390,391,-1,391,390,392,-1,345,393,340,-1,340,393,394,-1,340,394,395,-1,395,394,396,-1,395,396,397,-1,398,399,390,-1,390,399,400,-1,390,400,401,-1,402,403,384,-1,384,403,404,-1,384,404,405,-1,406,407,408,-1,408,407,409,-1,410,411,383,-1,383,411,412,-1,383,412,413,-1,414,415,416,-1,416,415,417,-1,416,417,418,-1,419,401,420,-1,420,401,421,-1,420,421,416,-1,416,421,422,-1,416,422,414,-1,397,423,395,-1,395,423,424,-1,395,424,383,-1,383,424,425,-1,383,425,410,-1,413,426,383,-1,383,426,427,-1,383,427,384,-1,384,427,428,-1,384,428,402,-1,429,430,431,-1,431,430,432,-1,431,432,408,-1,408,432,433,-1,408,433,406,-1,419,434,401,-1,401,434,435,-1,401,435,390,-1,390,435,436,-1,390,436,392,-1,405,437,384,-1,384,437,438,-1,384,438,439,-1,439,438,429,-1,439,429,440,-1,440,429,431,-1,409,441,408,-1,408,441,442,-1,408,442,443,-1,444,445,408,-1,408,445,446,-1,408,446,390,-1,390,446,447,-1,390,447,398,-1,443,448,408,-1,408,448,449,-1,408,449,450,-1,450,451,408,-1,408,451,452,-1,408,452,444,-1,453,454,455,-1,456,457,458,-1,400,459,401,-1,401,459,460,-1,401,460,461,-1,462,459,458,-1,458,459,400,-1,458,400,463,-1,463,400,464,-1,464,465,463,-1,463,465,466,-1,463,466,467,-1,453,455,458,-1,458,455,468,-1,458,468,456,-1,457,469,458,-1,458,469,470,-1,458,470,471,-1,472,473,474,-1,474,473,475,-1,474,475,476,-1,471,477,458,-1,458,477,478,-1,458,478,462,-1,461,479,401,-1,401,479,474,-1,401,474,480,-1,480,474,476,-1,481,42,482,-1,482,42,15,-1,482,15,483,-1,483,15,17,-1,483,17,333,-1,333,17,30,-1,333,30,334,-1,334,30,302,-1,37,484,39,-1,39,484,485,-1,39,485,163,-1,163,485,486,-1,163,486,157,-1,157,486,487,-1,157,487,133,-1,133,487,488,-1,133,488,134,-1,134,488,489,-1,134,489,76,-1,76,489,113,-1,76,113,77,-1,77,113,112,-1,490,481,491,-1,491,481,482,-1,491,482,492,-1,492,482,483,-1,492,483,493,-1,493,483,333,-1,493,333,494,-1,494,333,5,-1,494,5,495,-1,495,5,318,-1,495,318,496,-1,496,318,238,-1,496,238,497,-1,497,238,239,-1,497,239,498,-1,498,239,499,-1,498,499,376,-1,241,193,239,-1,239,193,191,-1,239,191,499,-1,499,191,500,-1,501,502,500,-1,500,502,503,-1,196,206,191,-1,191,206,82,-1,191,82,500,-1,500,82,125,-1,500,125,501,-1,501,125,504,-1,376,499,374,-1,374,499,500,-1,374,500,383,-1,383,500,503,-1,383,503,395,-1,395,503,505,-1,395,505,125,-1,125,505,506,-1,125,506,504,-1,507,508,509,-1,509,508,501,-1,509,501,510,-1,510,501,504,-1,510,504,511,-1,511,504,512,-1,513,514,515,-1,516,517,340,-1,340,517,513,-1,340,513,126,-1,126,513,515,-1,126,515,125,-1,125,515,518,-1,125,518,395,-1,395,518,516,-1,395,516,340,-1,122,116,117,-1,117,116,115,-1,117,115,126,-1,126,115,519,-1,126,519,340,-1,340,519,348,-1,340,348,338,-1,338,348,347,-1,484,520,485,-1,485,520,521,-1,485,521,486,-1,486,521,522,-1,486,522,487,-1,487,522,523,-1,487,523,488,-1,488,523,524,-1,488,524,489,-1,489,524,525,-1,489,525,113,-1,113,525,526,-1,113,526,115,-1,115,526,527,-1,115,527,519,-1,519,527,528,-1,519,528,348,-1,348,528,529,-1,348,529,74,-1,74,529,530,-1,74,530,75,-1,75,530,531,-1,532,533,534,-1,534,533,535,-1,534,535,536,-1,536,535,537,-1,536,537,538,-1,538,537,539,-1,540,541,542,-1,542,541,543,-1,542,543,532,-1,532,543,544,-1,532,544,533,-1,540,538,541,-1,541,538,539,-1,541,539,545,-1,546,547,544,-1,544,547,548,-1,544,548,533,-1,549,550,539,-1,539,550,551,-1,539,551,545,-1,549,552,550,-1,550,552,553,-1,550,553,554,-1,546,555,547,-1,547,555,556,-1,547,556,557,-1,557,556,558,-1,557,558,559,-1,559,558,560,-1,554,553,561,-1,561,553,562,-1,561,562,563,-1,564,565,566,-1,567,568,569,-1,569,570,567,-1,567,570,564,-1,567,564,571,-1,571,564,566,-1,566,565,572,-1,573,566,574,-1,574,566,572,-1,574,572,575,-1,575,572,576,-1,576,569,575,-1,575,569,568,-1,575,568,577,-1,578,579,580,-1,573,581,566,-1,566,581,580,-1,566,580,582,-1,582,580,579,-1,583,584,585,-1,585,584,586,-1,568,587,577,-1,577,587,586,-1,577,586,588,-1,588,586,584,-1,580,589,578,-1,578,589,590,-1,578,590,591,-1,591,590,592,-1,583,585,593,-1,593,585,594,-1,593,594,595,-1,490,9,574,-1,574,9,573,-1,545,490,541,-1,541,490,574,-1,541,574,596,-1,596,574,597,-1,575,577,598,-1,599,544,543,-1,600,601,543,-1,543,601,575,-1,543,575,599,-1,599,575,598,-1,596,597,600,-1,600,597,601,-1,602,603,535,-1,535,603,537,-1,599,598,604,-1,604,598,605,-1,567,571,606,-1,606,571,607,-1,608,609,610,-1,611,612,613,-1,613,612,614,-1,615,616,617,-1,618,611,619,-1,619,611,613,-1,619,613,617,-1,617,613,608,-1,617,608,615,-1,615,608,610,-1,541,596,543,-1,543,596,600,-1,575,601,574,-1,574,601,597,-1,
        ]
    }
}
Shape{
    appearance Appearance {
        material  Material 	{
            diffuseColor 1.0 1.0 1.0
            specularColor 0.5019607843137255 0.5019607843137255 0.5019607843137255
            ambientIntensity 0.2
            transparency 0
            shininess 0.5
        }
    }
    geometry IndexedFaceSet {
        ccw TRUE
        solid FALSE
        coord DEF co Coordinate {
            point [
                -0.9252 -0.4724 -0.502, -0.9252 -0.4724 -0.5531, -0.9252 0.4724 -0.502, -0.9252 0.4724 -0.5531, -1.4173 0.4724 -0.5531, -1.4173 -0.4724 -0.5531, -1.4224 -0.4724 -0.5525, -1.4224 0.4724 -0.5525, -1.4272 -0.4724 -0.5505, -1.4272 0.4724 -0.5505, -1.4312 -0.4724 -0.5474, -1.4312 0.4724 -0.5474, -1.4344 -0.4724 -0.5433, -1.4344 0.4724 -0.5433, -1.4363 -0.4724 -0.5386, -1.4363 0.4724 -0.5386, -1.437 -0.4724 -0.5335, -1.437 0.4724 -0.5335, -1.437 0.4724 -0.0197, -1.437 -0.4724 -0.0197, -1.4367 -0.4724 -0.0163, -1.4367 0.4724 -0.0163, -1.4359 -0.4724 -0.0131, -1.4359 0.4724 -0.0131, -1.3931 0.4724 -0.502, -1.3931 -0.4724 -0.502, 0.9252 0.4724 -0.502, 0.9252 0.4724 -0.5531, 0.9252 -0.4724 -0.502, 0.9252 -0.4724 -0.5531, 1.4359 0.4724 -0.0131, 1.4359 -0.4724 -0.0131, 1.4367 -0.4724 -0.0163, 1.4367 0.4724 -0.0163, 1.437 -0.4724 -0.0197, 1.437 0.4724 -0.0197, 1.437 0.4724 -0.5335, 1.437 -0.4724 -0.5335, 1.4363 -0.4724 -0.5386, 1.4363 0.4724 -0.5386, 1.4344 -0.4724 -0.5433, 1.4344 0.4724 -0.5433, 1.4312 -0.4724 -0.5474, 1.4312 0.4724 -0.5474, 1.4272 -0.4724 -0.5505, 1.4272 0.4724 -0.5505, 1.4224 -0.4724 -0.5525, 1.4224 0.4724 -0.5525, 1.4173 -0.4724 -0.5531, 1.4173 0.4724 -0.5531, 1.3931 0.4724 -0.502, 1.3931 -0.4724 -0.502, 1.3931 -0.4724 -0.502
            ]
        }
        coordIndex [
            0,1,2,-1,2,1,3,-1,4,3,5,-1,5,3,1,-1,4,5,6,-1,4,6,7,-1,7,6,8,-1,7,8,9,-1,9,8,10,-1,9,10,11,-1,11,10,12,-1,11,12,13,-1,13,12,14,-1,13,14,15,-1,15,14,16,-1,15,16,17,-1,18,17,19,-1,19,17,16,-1,18,19,20,-1,18,20,21,-1,21,20,22,-1,21,22,23,-1,24,2,3,-1,15,17,24,-1,17,18,24,-1,24,18,21,-1,24,21,23,-1,3,4,24,-1,24,4,7,-1,24,7,9,-1,9,11,24,-1,24,11,13,-1,24,13,15,-1,10,8,25,-1,22,20,25,-1,25,20,19,-1,25,19,16,-1,1,0,5,-1,5,0,25,-1,5,25,6,-1,6,25,8,-1,16,14,25,-1,25,14,12,-1,25,12,10,-1,26,27,28,-1,28,27,29,-1,30,31,32,-1,30,32,33,-1,33,32,34,-1,33,34,35,-1,36,35,37,-1,37,35,34,-1,36,37,38,-1,36,38,39,-1,39,38,40,-1,39,40,41,-1,41,40,42,-1,41,42,43,-1,43,42,44,-1,43,44,45,-1,45,44,46,-1,45,46,47,-1,47,46,48,-1,47,48,49,-1,27,49,29,-1,29,49,48,-1,43,45,50,-1,30,33,50,-1,50,33,35,-1,50,35,36,-1,27,26,49,-1,49,26,50,-1,49,50,47,-1,47,50,45,-1,36,39,50,-1,50,39,41,-1,50,41,43,-1,51,28,29,-1,38,37,51,-1,37,34,51,-1,51,34,32,-1,51,32,31,-1,29,48,51,-1,51,48,46,-1,51,46,44,-1,44,42,51,-1,51,42,40,-1,51,40,38,-1,
        ]
    }
}
Shape{
    appearance Appearance {
        material  Material 	{
            diffuseColor 0.25098039215686274 0.25098039215686274 0.25098039215686274
            specularColor 0.12549019607843137 0.12549019607843137 0.12549019607843137
            ambientIntensity 0.2
            transparency 0
            shininess 0.5
        }
    }
    geometry IndexedFaceSet {
        ccw TRUE
        solid FALSE
        coord DEF co Coordinate {
            point [
                -1.3978 0.8465 0.0, -1.3539 0.8025 -0.502, -1.364 0.8012 -0.502, -1.408 0.8451 0.0, -1.3689 0.7996 -0.502, -1.4128 0.8435 0.0, -1.3735 0.7973 -0.502, -1.4174 0.8412 0.0, -1.3778 0.7944 -0.502, -1.4217 0.8384 0.0, -1.3816 0.7911 -0.502, -1.4255 0.835 0.0, -1.4289 0.8311 0.0, -1.385 0.7872 -0.502, -1.4318 0.8269 0.0, -1.3878 0.783 -0.502, -1.434 0.8223 0.0, -1.3901 0.7784 -0.502, -1.4357 0.8174 0.0, -1.3918 0.7735 -0.502, -1.3931 0.7633 -0.502, -1.437 0.8072 0.0, 1.437 0.8072 -0.0, 1.3931 0.7633 -0.502, 1.3918 0.7735 -0.502, 1.4357 0.8174 0.0, 1.3901 0.7784 -0.502, 1.434 0.8223 0.0, 1.3878 0.783 -0.502, 1.4318 0.8269 0.0, 1.385 0.7872 -0.502, 1.4289 0.8311 0.0, 1.3816 0.7911 -0.502, 1.4255 0.835 0.0, 1.4217 0.8384 0.0, 1.3778 0.7944 -0.502, 1.4174 0.8412 0.0, 1.3735 0.7973 -0.502, 1.4128 0.8435 0.0, 1.3689 0.7996 -0.502, 1.408 0.8451 0.0, 1.364 0.8012 -0.502, 1.3539 0.8025 -0.502, 1.3978 0.8465 0.0, -1.3921 0.7623 0.5133, -1.3907 0.7724 0.514, -1.3907 0.7725 0.514, -1.3867 0.7819 0.5145, -1.3867 0.7819 0.5145, -1.3805 0.79 0.5147, -1.3724 0.7962 0.5145, -1.3724 0.7962 0.5145, -1.363 0.8001 0.514, -1.363 0.8002 0.514, -1.3529 0.8016 0.5133, -1.3529 0.7623 0.5492, 0.8295 0.7623 0.5492, -1.3529 0.772 0.548, 0.8295 0.7679 0.5488, 1.0516 0.7623 0.5492, 1.3529 0.7623 0.5492, 1.0516 0.7679 0.5488, 1.3529 0.772 0.548, 1.3529 0.781 0.5445, -1.3529 0.781 0.5445, 1.3529 0.7889 0.5389, -1.3529 0.7889 0.5389, 1.3529 0.7952 0.5315, -1.3529 0.7952 0.5315, 1.3529 0.7995 0.5228, -1.3529 0.7995 0.5228, 1.3529 0.8016 0.5133, 1.363 0.8002 0.514, 1.363 0.8001 0.514, 1.3724 0.7962 0.5145, 1.3724 0.7962 0.5145, 1.3805 0.79 0.5147, 1.3867 0.7819 0.5145, 1.3867 0.7819 0.5145, 1.3907 0.7725 0.514, 1.3907 0.7724 0.514, 1.3921 0.7623 0.5133, -1.437 -0.8072 -0.0, -1.3931 -0.7633 -0.502, -1.3918 -0.7735 -0.502, -1.4357 -0.8174 -0.0, -1.3901 -0.7784 -0.502, -1.434 -0.8223 -0.0, -1.3878 -0.783 -0.502, -1.4318 -0.8269 -0.0, -1.385 -0.7872 -0.502, -1.4289 -0.8311 -0.0, -1.3816 -0.7911 -0.502, -1.4255 -0.835 -0.0, -1.4217 -0.8384 -0.0, -1.3778 -0.7944 -0.502, -1.4174 -0.8412 -0.0, -1.3735 -0.7973 -0.502, -1.4128 -0.8435 -0.0, -1.3689 -0.7996 -0.502, -1.408 -0.8451 -0.0, -1.364 -0.8012 -0.502, -1.3539 -0.8025 -0.502, -1.3978 -0.8465 0.0, -1.3858 0.7623 0.5315, -1.3796 0.7623 0.5388, -1.3787 0.7692 0.5388, -1.371 0.7672 0.5444, -1.3622 0.7648 0.548, -1.3613 0.7672 0.548, -1.3577 0.7707 0.548, -1.3597 0.7692 0.548, -1.3554 0.7717 0.548, -1.3625 0.7623 0.548, -1.3889 0.772 0.5225, -1.3852 0.781 0.5225, -1.3792 0.7887 0.5225, -1.3715 0.7946 0.5225, -1.3625 0.7983 0.5225, -1.3529 0.7996 0.5225, -1.3529 0.772 0.548, -1.3795 0.7623 0.5389, -1.3717 0.7623 0.5444, -1.3716 0.7623 0.5445, -1.3626 0.7623 0.548, -1.3692 0.7717 0.5444, -1.3662 0.7756 0.5444, -1.3623 0.7786 0.5444, -1.3577 0.7805 0.5444, -1.3529 0.772 0.548, -1.3529 0.781 0.5445, -1.3529 0.7811 0.5444, -1.3529 0.7889 0.5389, -1.376 0.7757 0.5388, -1.3718 0.7812 0.5388, -1.3662 0.7855 0.5388, -1.3598 0.7881 0.5388, -1.39 0.7623 0.5228, -1.3859 0.7623 0.5313, -1.3848 0.7709 0.5313, -1.3815 0.7788 0.5313, -1.3762 0.7857 0.5313, -1.3694 0.7909 0.5313, -1.3614 0.7942 0.5313, -1.3902 0.7623 0.5225, -1.3529 0.7891 0.5388, -1.3529 0.7952 0.5315, -1.3529 0.7954 0.5313, -1.3529 0.7995 0.5228, 1.3529 0.7952 0.5315, 1.3529 0.7891 0.5388, 1.3598 0.7881 0.5388, 1.3577 0.7805 0.5444, 1.3554 0.7717 0.548, 1.3577 0.7707 0.548, 1.3613 0.7672 0.548, 1.3597 0.7692 0.548, 1.3622 0.7648 0.548, 1.3529 0.772 0.548, 1.3625 0.7983 0.5225, 1.3715 0.7946 0.5225, 1.3792 0.7887 0.5225, 1.3852 0.781 0.5225, 1.3889 0.772 0.5225, 1.3902 0.7623 0.5225, 1.3625 0.7623 0.548, 1.3529 0.7889 0.5389, 1.3529 0.7811 0.5444, 1.3529 0.781 0.5445, 1.3529 0.772 0.548, 1.3623 0.7786 0.5444, 1.3662 0.7756 0.5444, 1.3692 0.7717 0.5444, 1.371 0.7672 0.5444, 1.3626 0.7623 0.548, 1.3716 0.7623 0.5445, 1.3717 0.7623 0.5444, 1.3795 0.7623 0.5389, 1.3662 0.7855 0.5388, 1.3718 0.7812 0.5388, 1.376 0.7757 0.5388, 1.3787 0.7692 0.5388, 1.3529 0.7995 0.5228, 1.3529 0.7954 0.5313, 1.3614 0.7942 0.5313, 1.3694 0.7909 0.5313, 1.3762 0.7857 0.5313, 1.3815 0.7788 0.5313, 1.3848 0.7709 0.5313, 1.3529 0.7996 0.5225, 1.3796 0.7623 0.5388, 1.3858 0.7623 0.5315, 1.3859 0.7623 0.5313, 1.39 0.7623 0.5228, 1.3978 -0.8465 0.0, 1.3539 -0.8025 -0.502, 1.364 -0.8012 -0.502, 1.408 -0.8451 0.0, 1.3689 -0.7996 -0.502, 1.4128 -0.8435 0.0, 1.3735 -0.7973 -0.502, 1.4174 -0.8412 0.0, 1.3778 -0.7944 -0.502, 1.4217 -0.8384 0.0, 1.3816 -0.7911 -0.502, 1.4255 -0.835 0.0, 1.4289 -0.8311 0.0, 1.385 -0.7872 -0.502, 1.4318 -0.8269 0.0, 1.3878 -0.783 -0.502, 1.434 -0.8223 0.0, 1.3901 -0.7784 -0.502, 1.4357 -0.8174 0.0, 1.3918 -0.7735 -0.502, 1.3931 -0.7633 -0.502, 1.437 -0.8072 -0.0, -1.3529 -0.8016 0.5133, -1.363 -0.8002 0.514, -1.363 -0.8001 0.514, -1.3724 -0.7962 0.5145, -1.3724 -0.7962 0.5145, -1.3805 -0.79 0.5147, -1.3867 -0.7819 0.5145, -1.3867 -0.7819 0.5145, -1.3907 -0.7725 0.514, -1.3907 -0.7724 0.514, -1.3921 -0.7623 0.5133, -1.3902 -0.7623 0.5225, -1.39 -0.7623 0.5228, -1.3859 -0.7623 0.5313, -1.3858 -0.7623 0.5315, -1.3796 -0.7623 0.5388, -1.3795 -0.7623 0.5389, -1.3717 -0.7623 0.5444, -1.3716 -0.7623 0.5445, -1.3626 -0.7623 0.548, -1.3625 -0.7623 0.548, -1.3529 -0.7623 0.5492, 1.3921 -0.7623 0.5133, 1.3902 -0.7623 0.5225, 1.39 -0.7623 0.5228, 1.3859 -0.7623 0.5313, 1.3858 -0.7623 0.5315, 1.3796 -0.7623 0.5388, 1.3795 -0.7623 0.5389, 1.3717 -0.7623 0.5444, 1.3716 -0.7623 0.5445, 1.3626 -0.7623 0.548, 1.3625 -0.7623 0.548, 1.3529 -0.7623 0.5492, 1.3907 -0.7724 0.514, 1.3907 -0.7725 0.514, 1.3867 -0.7819 0.5145, 1.3867 -0.7819 0.5145, 1.3805 -0.79 0.5147, 1.3724 -0.7962 0.5145, 1.3724 -0.7962 0.5145, 1.363 -0.8001 0.514, 1.363 -0.8002 0.514, 1.3529 -0.8016 0.5133, -1.3529 -0.7952 0.5315, -1.3529 -0.7891 0.5388, -1.3598 -0.7881 0.5388, -1.3577 -0.7805 0.5444, -1.3554 -0.7717 0.548, -1.3577 -0.7707 0.548, -1.3613 -0.7672 0.548, -1.3597 -0.7692 0.548, -1.3622 -0.7648 0.548, -1.3529 -0.772 0.548, -1.3625 -0.7983 0.5225, -1.3715 -0.7946 0.5225, -1.3792 -0.7887 0.5225, -1.3852 -0.781 0.5225, -1.3889 -0.772 0.5225, -1.3529 -0.7889 0.5389, -1.3529 -0.7811 0.5444, -1.3529 -0.781 0.5445, -1.3529 -0.772 0.548, -1.3623 -0.7786 0.5444, -1.3662 -0.7756 0.5444, -1.3692 -0.7717 0.5444, -1.371 -0.7672 0.5444, -1.3662 -0.7855 0.5388, -1.3718 -0.7812 0.5388, -1.376 -0.7757 0.5388, -1.3787 -0.7692 0.5388, -1.3529 -0.7995 0.5228, -1.3529 -0.7954 0.5313, -1.3614 -0.7942 0.5313, -1.3694 -0.7909 0.5313, -1.3762 -0.7857 0.5313, -1.3815 -0.7788 0.5313, -1.3848 -0.7709 0.5313, -1.3529 -0.7996 0.5225, 1.3787 -0.7692 0.5388, 1.371 -0.7672 0.5444, 1.3622 -0.7648 0.548, 1.3613 -0.7672 0.548, 1.3577 -0.7707 0.548, 1.3597 -0.7692 0.548, 1.3554 -0.7717 0.548, 1.3889 -0.772 0.5225, 1.3852 -0.781 0.5225, 1.3792 -0.7887 0.5225, 1.3715 -0.7946 0.5225, 1.3625 -0.7983 0.5225, 1.3529 -0.7996 0.5225, 1.3529 -0.772 0.548, 1.3692 -0.7717 0.5444, 1.3662 -0.7756 0.5444, 1.3623 -0.7786 0.5444, 1.3577 -0.7805 0.5444, 1.3529 -0.772 0.548, 1.3529 -0.781 0.5445, 1.3529 -0.7811 0.5444, 1.3529 -0.7889 0.5389, 1.376 -0.7757 0.5388, 1.3718 -0.7812 0.5388, 1.3662 -0.7855 0.5388, 1.3598 -0.7881 0.5388, 1.3848 -0.7709 0.5313, 1.3815 -0.7788 0.5313, 1.3762 -0.7857 0.5313, 1.3694 -0.7909 0.5313, 1.3614 -0.7942 0.5313, 1.3529 -0.7891 0.5388, 1.3529 -0.7952 0.5315, 1.3529 -0.7954 0.5313, 1.3529 -0.7995 0.5228, 1.0516 -0.7623 0.5492, 1.3529 -0.772 0.548, 1.0516 -0.7679 0.5488, 0.8295 -0.7679 0.5488, 0.8295 -0.7623 0.5492, -1.3529 -0.772 0.548, -1.3529 -0.781 0.5445, 1.3529 -0.781 0.5445, -1.3529 -0.7889 0.5389, 1.3529 -0.7889 0.5389, -1.3529 -0.7952 0.5315, 1.3529 -0.7952 0.5315, -1.3529 -0.7995 0.5228, 1.3529 -0.7995 0.5228, 1.3529 -0.7995 0.5228
            ]
        }
        coordIndex [
            0,1,2,-1,0,2,3,-1,3,2,4,-1,3,4,5,-1,5,4,6,-1,5,6,7,-1,7,6,8,-1,7,8,9,-1,9,8,10,-1,9,10,11,-1,11,10,12,-1,12,10,13,-1,12,13,14,-1,14,13,15,-1,14,15,16,-1,16,15,17,-1,16,17,18,-1,17,19,18,-1,18,19,20,-1,18,20,21,-1,22,23,24,-1,22,24,25,-1,25,24,26,-1,25,26,27,-1,27,26,28,-1,27,28,29,-1,29,28,30,-1,29,30,31,-1,31,30,32,-1,31,32,33,-1,33,32,34,-1,34,32,35,-1,34,35,36,-1,36,35,37,-1,36,37,38,-1,38,37,39,-1,38,39,40,-1,39,41,40,-1,40,41,42,-1,40,42,43,-1,44,45,21,-1,21,45,18,-1,18,45,16,-1,16,45,46,-1,16,46,14,-1,14,46,47,-1,14,47,12,-1,12,47,48,-1,12,48,11,-1,11,48,49,-1,11,49,9,-1,9,49,50,-1,9,50,7,-1,7,50,51,-1,7,51,5,-1,5,51,52,-1,5,52,3,-1,52,53,3,-1,3,53,54,-1,3,54,0,-1,55,56,57,-1,57,56,58,-1,59,60,61,-1,61,60,62,-1,61,62,58,-1,58,62,57,-1,57,62,63,-1,57,63,64,-1,64,63,65,-1,64,65,66,-1,66,65,67,-1,66,67,68,-1,68,67,69,-1,68,69,70,-1,70,69,71,-1,70,71,54,-1,71,72,43,-1,43,72,40,-1,40,72,38,-1,38,72,73,-1,38,73,36,-1,36,73,74,-1,36,74,34,-1,34,74,75,-1,34,75,33,-1,33,75,76,-1,33,76,31,-1,31,76,77,-1,31,77,29,-1,29,77,78,-1,29,78,27,-1,27,78,79,-1,27,79,25,-1,79,80,25,-1,25,80,81,-1,25,81,22,-1,82,83,84,-1,82,84,85,-1,85,84,86,-1,85,86,87,-1,87,86,88,-1,87,88,89,-1,89,88,90,-1,89,90,91,-1,91,90,92,-1,91,92,93,-1,93,92,94,-1,94,92,95,-1,94,95,96,-1,96,95,97,-1,96,97,98,-1,98,97,99,-1,98,99,100,-1,99,101,100,-1,100,101,102,-1,100,102,103,-1,104,105,106,-1,107,108,109,-1,55,110,111,-1,112,110,55,-1,109,108,55,-1,113,55,108,-1,114,46,45,-1,46,114,47,-1,47,114,115,-1,47,115,48,-1,48,115,116,-1,48,116,49,-1,49,116,117,-1,49,117,50,-1,50,117,51,-1,51,117,118,-1,51,118,52,-1,52,118,53,-1,53,118,119,-1,53,119,54,-1,120,112,55,-1,121,122,107,-1,107,122,123,-1,107,123,108,-1,108,123,124,-1,108,124,113,-1,125,111,126,-1,126,111,110,-1,126,110,127,-1,127,110,112,-1,127,112,128,-1,120,129,112,-1,112,129,130,-1,112,130,128,-1,128,130,131,-1,128,131,132,-1,106,125,133,-1,133,125,126,-1,133,126,134,-1,134,126,127,-1,134,127,135,-1,135,127,128,-1,135,128,136,-1,136,128,132,-1,137,138,139,-1,139,138,104,-1,104,106,139,-1,139,106,133,-1,139,133,140,-1,140,133,134,-1,140,134,141,-1,141,134,135,-1,141,135,142,-1,142,135,136,-1,142,136,143,-1,105,121,106,-1,106,121,107,-1,106,107,125,-1,125,107,109,-1,125,109,111,-1,111,109,55,-1,137,114,144,-1,144,114,45,-1,144,45,44,-1,132,145,136,-1,136,145,146,-1,136,146,143,-1,143,146,147,-1,143,147,148,-1,137,139,114,-1,114,139,140,-1,114,140,115,-1,115,140,141,-1,115,141,116,-1,116,141,142,-1,116,142,117,-1,117,142,143,-1,117,143,118,-1,118,143,148,-1,118,148,119,-1,149,150,151,-1,152,153,154,-1,60,155,156,-1,157,155,60,-1,154,153,60,-1,158,60,153,-1,159,73,72,-1,73,159,74,-1,74,159,160,-1,74,160,75,-1,75,160,161,-1,75,161,76,-1,76,161,162,-1,76,162,77,-1,77,162,78,-1,78,162,163,-1,78,163,79,-1,79,163,80,-1,80,163,164,-1,80,164,81,-1,165,157,60,-1,166,167,152,-1,152,167,168,-1,152,168,153,-1,153,168,169,-1,153,169,158,-1,170,156,171,-1,171,156,155,-1,171,155,172,-1,172,155,157,-1,172,157,173,-1,165,174,157,-1,157,174,175,-1,157,175,173,-1,173,175,176,-1,173,176,177,-1,151,170,178,-1,178,170,171,-1,178,171,179,-1,179,171,172,-1,179,172,180,-1,180,172,173,-1,180,173,181,-1,181,173,177,-1,182,183,184,-1,184,183,149,-1,149,151,184,-1,184,151,178,-1,184,178,185,-1,185,178,179,-1,185,179,186,-1,186,179,180,-1,186,180,187,-1,187,180,181,-1,187,181,188,-1,150,166,151,-1,151,166,152,-1,151,152,170,-1,170,152,154,-1,170,154,156,-1,156,154,60,-1,182,159,189,-1,189,159,72,-1,189,72,71,-1,177,190,181,-1,181,190,191,-1,181,191,188,-1,188,191,192,-1,188,192,193,-1,182,184,159,-1,159,184,185,-1,159,185,160,-1,160,185,186,-1,160,186,161,-1,161,186,187,-1,161,187,162,-1,162,187,188,-1,162,188,163,-1,163,188,193,-1,163,193,164,-1,194,195,196,-1,194,196,197,-1,197,196,198,-1,197,198,199,-1,199,198,200,-1,199,200,201,-1,201,200,202,-1,201,202,203,-1,203,202,204,-1,203,204,205,-1,205,204,206,-1,206,204,207,-1,206,207,208,-1,208,207,209,-1,208,209,210,-1,210,209,211,-1,210,211,212,-1,211,213,212,-1,212,213,214,-1,212,214,215,-1,216,217,103,-1,103,217,100,-1,100,217,98,-1,98,217,218,-1,98,218,96,-1,96,218,219,-1,96,219,94,-1,94,219,220,-1,94,220,93,-1,93,220,221,-1,93,221,91,-1,91,221,222,-1,91,222,89,-1,89,222,223,-1,89,223,87,-1,87,223,224,-1,87,224,85,-1,224,225,85,-1,85,225,226,-1,85,226,82,-1,44,226,144,-1,144,226,227,-1,144,227,137,-1,137,227,228,-1,137,228,138,-1,138,228,229,-1,138,229,104,-1,104,229,230,-1,104,230,105,-1,105,230,231,-1,105,231,121,-1,121,231,232,-1,121,232,122,-1,122,232,233,-1,122,233,123,-1,123,233,234,-1,123,234,124,-1,124,234,235,-1,124,235,113,-1,235,236,113,-1,113,236,237,-1,113,237,55,-1,238,81,239,-1,239,81,164,-1,239,164,240,-1,240,164,193,-1,240,193,241,-1,241,193,192,-1,241,192,242,-1,242,192,191,-1,242,191,243,-1,243,191,190,-1,243,190,244,-1,244,190,177,-1,244,177,245,-1,245,177,176,-1,245,176,246,-1,246,176,175,-1,246,175,247,-1,247,175,174,-1,247,174,248,-1,174,165,248,-1,248,165,60,-1,248,60,249,-1,238,250,215,-1,215,250,212,-1,212,250,210,-1,210,250,251,-1,210,251,208,-1,208,251,252,-1,208,252,206,-1,206,252,253,-1,206,253,205,-1,205,253,254,-1,205,254,203,-1,203,254,255,-1,203,255,201,-1,201,255,256,-1,201,256,199,-1,199,256,257,-1,199,257,197,-1,257,258,197,-1,197,258,259,-1,197,259,194,-1,260,261,262,-1,263,264,265,-1,237,266,267,-1,268,266,237,-1,265,264,237,-1,269,237,264,-1,270,218,217,-1,218,270,219,-1,219,270,271,-1,219,271,220,-1,220,271,272,-1,220,272,221,-1,221,272,273,-1,221,273,222,-1,222,273,223,-1,223,273,274,-1,223,274,224,-1,224,274,225,-1,225,274,227,-1,225,227,226,-1,236,268,237,-1,275,276,263,-1,263,276,277,-1,263,277,264,-1,264,277,278,-1,264,278,269,-1,279,267,280,-1,280,267,266,-1,280,266,281,-1,281,266,268,-1,281,268,282,-1,236,235,268,-1,268,235,234,-1,268,234,282,-1,282,234,233,-1,282,233,232,-1,262,279,283,-1,283,279,280,-1,283,280,284,-1,284,280,281,-1,284,281,285,-1,285,281,282,-1,285,282,286,-1,286,282,232,-1,287,288,289,-1,289,288,260,-1,260,262,289,-1,289,262,283,-1,289,283,290,-1,290,283,284,-1,290,284,291,-1,291,284,285,-1,291,285,292,-1,292,285,286,-1,292,286,293,-1,261,275,262,-1,262,275,263,-1,262,263,279,-1,279,263,265,-1,279,265,267,-1,267,265,237,-1,287,270,294,-1,294,270,217,-1,294,217,216,-1,232,231,286,-1,286,231,230,-1,286,230,293,-1,293,230,229,-1,293,229,228,-1,287,289,270,-1,270,289,290,-1,270,290,271,-1,271,290,291,-1,271,291,272,-1,272,291,292,-1,272,292,273,-1,273,292,293,-1,273,293,274,-1,274,293,228,-1,274,228,227,-1,242,243,295,-1,296,297,298,-1,249,299,300,-1,301,299,249,-1,298,297,249,-1,248,249,297,-1,302,251,250,-1,251,302,252,-1,252,302,303,-1,252,303,253,-1,253,303,304,-1,253,304,254,-1,254,304,305,-1,254,305,255,-1,255,305,256,-1,256,305,306,-1,256,306,257,-1,257,306,258,-1,258,306,307,-1,258,307,259,-1,308,301,249,-1,244,245,296,-1,296,245,246,-1,296,246,297,-1,297,246,247,-1,297,247,248,-1,309,300,310,-1,310,300,299,-1,310,299,311,-1,311,299,301,-1,311,301,312,-1,308,313,301,-1,301,313,314,-1,301,314,312,-1,312,314,315,-1,312,315,316,-1,295,309,317,-1,317,309,310,-1,317,310,318,-1,318,310,311,-1,318,311,319,-1,319,311,312,-1,319,312,320,-1,320,312,316,-1,240,241,321,-1,321,241,242,-1,242,295,321,-1,321,295,317,-1,321,317,322,-1,322,317,318,-1,322,318,323,-1,323,318,319,-1,323,319,324,-1,324,319,320,-1,324,320,325,-1,243,244,295,-1,295,244,296,-1,295,296,309,-1,309,296,298,-1,309,298,300,-1,300,298,249,-1,240,302,239,-1,239,302,250,-1,239,250,238,-1,316,326,320,-1,320,326,327,-1,320,327,325,-1,325,327,328,-1,325,328,329,-1,240,321,302,-1,302,321,322,-1,302,322,303,-1,303,322,323,-1,303,323,304,-1,304,323,324,-1,304,324,305,-1,305,324,325,-1,305,325,306,-1,306,325,329,-1,306,329,307,-1,249,330,331,-1,331,330,332,-1,331,332,333,-1,334,237,333,-1,333,237,335,-1,333,335,331,-1,331,335,336,-1,331,336,337,-1,337,336,338,-1,337,338,339,-1,339,338,340,-1,339,340,341,-1,341,340,342,-1,341,342,343,-1,343,342,216,-1,343,216,259,-1,
        ]
    }
}
Shape{
    appearance Appearance {
        material  Material 	{
            diffuseColor 1.0 1.0 1.0
            specularColor 0.5019607843137255 0.5019607843137255 0.5019607843137255
            ambientIntensity 0.2
            transparency 0
            shininess 0.5
        }
    }
    geometry IndexedFaceSet {
        ccw TRUE
        solid FALSE
        coord DEF co Coordinate {
            point [
                0.0804 -0.8272 0.2658, 0.0804 -0.8279 0.2567, 0.0804 -0.8232 0.2655, 0.0804 -0.824 0.2564, 0.0485 -0.8272 0.2658, 0.0485 -0.8232 0.2655, 0.0485 -0.821 0.3365, 0.0485 -0.817 0.3362, 0.0382 -0.821 0.3365, 0.0382 -0.817 0.3362, 0.0382 -0.8279 0.2567, 0.0382 -0.824 0.2564, 0.1215 -0.8281 0.2554, 0.1215 -0.8241 0.2551, 0.1337 -0.824 0.2562, 0.1337 -0.828 0.2566, 0.1423 -0.8238 0.259, 0.1423 -0.8277 0.2594, 0.1436 -0.8237 0.2597, 0.1436 -0.8277 0.26, 0.1436 -0.8268 0.2699, 0.1436 -0.8229 0.2696, 0.1358 -0.8232 0.2661, 0.1358 -0.8271 0.2664, 0.1267 -0.8233 0.2644, 0.1267 -0.8272 0.2647, 0.123 -0.8233 0.2642, 0.123 -0.8273 0.2646, 0.1149 -0.8233 0.2652, 0.1149 -0.8272 0.2655, 0.1092 -0.8231 0.2674, 0.1092 -0.827 0.2677, 0.1039 -0.8227 0.2711, 0.1039 -0.8267 0.2714, 0.1024 -0.8226 0.2726, 0.1024 -0.8265 0.273, 0.0985 -0.8221 0.278, 0.0985 -0.8261 0.2784, 0.0959 -0.8216 0.2845, 0.0959 -0.8255 0.2848, 0.0946 -0.8209 0.2924, 0.0946 -0.8248 0.2928, 0.0945 -0.8206 0.2954, 0.0945 -0.8245 0.2957, 0.0959 -0.8196 0.3065, 0.0959 -0.8236 0.3068, 0.0986 -0.819 0.3133, 0.0986 -0.823 0.3137, 0.1029 -0.8185 0.3194, 0.1029 -0.8224 0.3197, 0.1084 -0.8181 0.3238, 0.1084 -0.822 0.3242, 0.1147 -0.8179 0.3268, 0.1147 -0.8218 0.3271, 0.1217 -0.8178 0.3281, 0.1217 -0.8217 0.3284, 0.1248 -0.8177 0.3282, 0.1248 -0.8217 0.3286, 0.1346 -0.8178 0.327, 0.1346 -0.8218 0.3274, 0.1427 -0.8181 0.324, 0.1427 -0.822 0.3243, 0.1436 -0.8182 0.3235, 0.1436 -0.8221 0.3238, 0.1436 -0.8211 0.3346, 0.1436 -0.8172 0.3342, 0.1247 -0.8169 0.3375, 0.1247 -0.8209 0.3379, 0.1248 -0.8209 0.3379, 0.1353 -0.817 0.3367, 0.1353 -0.8209 0.337, 0.1332 -0.817 0.3368, 0.1248 -0.8169 0.3375, 0.1191 -0.817 0.3368, 0.113 -0.821 0.3364, 0.113 -0.8171 0.3361, 0.1046 -0.8173 0.3328, 0.1046 -0.8213 0.3332, 0.0971 -0.8178 0.3276, 0.0971 -0.8217 0.3279, 0.0952 -0.818 0.3258, 0.0952 -0.8219 0.3261, 0.0894 -0.8186 0.3182, 0.0873 -0.8191 0.3131, 0.0856 -0.8233 0.3097, 0.0894 -0.8225 0.3185, 0.0856 -0.8194 0.3093, 0.0838 -0.8203 0.2989, 0.0838 -0.8242 0.2993, 0.0837 -0.8207 0.2948, 0.0837 -0.8246 0.2951, 0.0853 -0.8218 0.2817, 0.0873 -0.8223 0.2767, 0.0886 -0.8265 0.2737, 0.0853 -0.8257 0.282, 0.0886 -0.8225 0.2734, 0.094 -0.8232 0.2659, 0.094 -0.8271 0.2663, 0.1004 -0.8237 0.2606, 0.1004 -0.8276 0.2609, 0.108 -0.824 0.2571, 0.108 -0.8279 0.2574, 0.1166 -0.8241 0.2553, 0.1166 -0.828 0.2556, 0.2027 -0.8272 0.2658, 0.2027 -0.8279 0.2567, 0.2027 -0.8232 0.2655, 0.2027 -0.824 0.2564, 0.17 -0.8232 0.2655, 0.17 -0.8272 0.2658, 0.1916 -0.8232 0.2655, 0.17 -0.8248 0.2927, 0.17 -0.8209 0.2923, 0.1986 -0.8248 0.2927, 0.1916 -0.8209 0.2923, 0.1986 -0.8209 0.2923, 0.1986 -0.824 0.3018, 0.1986 -0.8201 0.3015, 0.17 -0.8201 0.3015, 0.17 -0.824 0.3018, 0.1916 -0.8201 0.3015, 0.17 -0.8218 0.3273, 0.17 -0.8178 0.327, 0.2009 -0.8218 0.3273, 0.1916 -0.8178 0.327, 0.2009 -0.8178 0.327, 0.2009 -0.821 0.3365, 0.2009 -0.817 0.3362, 0.1597 -0.817 0.3362, 0.1597 -0.821 0.3365, 0.1916 -0.817 0.3362, 0.1597 -0.8279 0.2567, 0.1597 -0.824 0.2564, 0.1916 -0.824 0.2564, 0.2676 -0.826 0.2791, 0.2636 -0.8264 0.2742, 0.271 -0.827 0.2679, 0.2621 -0.8265 0.2728, 0.2627 -0.8275 0.262, 0.2568 -0.8268 0.2694, 0.2536 -0.8278 0.2584, 0.25 -0.8271 0.2669, 0.2399 -0.8279 0.2567, 0.2398 -0.8272 0.2658, 0.2178 -0.8279 0.2567, 0.2282 -0.8272 0.2658, 0.2178 -0.821 0.3365, 0.2282 -0.8218 0.3273, 0.2407 -0.821 0.3365, 0.2403 -0.8218 0.3273, 0.2529 -0.8211 0.3352, 0.2506 -0.8219 0.3262, 0.2626 -0.8214 0.3316, 0.2575 -0.8221 0.3237, 0.271 -0.8219 0.3259, 0.2634 -0.8224 0.3198, 0.2737 -0.8221 0.3233, 0.266 -0.8227 0.3172, 0.2787 -0.8227 0.3163, 0.269 -0.8231 0.3126, 0.2817 -0.8234 0.3087, 0.2712 -0.8236 0.3065, 0.283 -0.8244 0.2976, 0.2722 -0.8244 0.2974, 0.2828 -0.8248 0.2926, 0.2719 -0.8248 0.2923, 0.2809 -0.8256 0.2832, 0.2703 -0.8255 0.285, 0.2769 -0.8264 0.275, 0.2399 -0.824 0.2564, 0.2178 -0.824 0.2564, 0.271 -0.823 0.2676, 0.2536 -0.8239 0.2581, 0.2545 -0.8238 0.2584, 0.2627 -0.8236 0.2617, 0.2769 -0.8224 0.2746, 0.2809 -0.8217 0.2829, 0.2828 -0.8209 0.2922, 0.283 -0.8204 0.2973, 0.2817 -0.8195 0.3084, 0.2787 -0.8188 0.316, 0.2737 -0.8182 0.3229, 0.271 -0.818 0.3256, 0.2407 -0.817 0.3362, 0.2626 -0.8175 0.3313, 0.2545 -0.8172 0.3342, 0.2529 -0.8172 0.3348, 0.2178 -0.817 0.3362, 0.2403 -0.8178 0.327, 0.2282 -0.8178 0.327, 0.2282 -0.8232 0.2655, 0.2398 -0.8232 0.2655, 0.2636 -0.8225 0.2738, 0.2621 -0.8226 0.2725, 0.2568 -0.8229 0.269, 0.25 -0.8231 0.2666, 0.2722 -0.8205 0.297, 0.2719 -0.8209 0.292, 0.2703 -0.8216 0.2847, 0.2676 -0.8221 0.2787, 0.2634 -0.8185 0.3195, 0.266 -0.8187 0.3168, 0.269 -0.8191 0.3122, 0.2712 -0.8197 0.3062, 0.2506 -0.8179 0.3259, 0.2575 -0.8182 0.3234, 0.2575 -0.8182 0.3234
            ]
        }
        coordIndex [
            0,1,2,-1,2,1,3,-1,4,0,5,-1,5,0,2,-1,6,4,7,-1,7,4,5,-1,8,6,9,-1,9,6,7,-1,10,8,11,-1,11,8,9,-1,1,10,3,-1,3,10,11,-1,6,8,4,-1,4,8,10,-1,4,10,0,-1,0,10,1,-1,12,13,14,-1,12,14,15,-1,15,14,16,-1,15,16,17,-1,17,16,18,-1,17,18,19,-1,20,19,21,-1,21,19,18,-1,20,21,22,-1,20,22,23,-1,23,22,24,-1,23,24,25,-1,25,24,26,-1,25,26,27,-1,27,26,28,-1,27,28,29,-1,29,28,30,-1,29,30,31,-1,31,30,32,-1,31,32,33,-1,33,32,34,-1,33,34,35,-1,35,34,36,-1,35,36,37,-1,37,36,38,-1,37,38,39,-1,39,38,40,-1,39,40,41,-1,41,40,42,-1,41,42,43,-1,43,42,44,-1,43,44,45,-1,45,44,46,-1,45,46,47,-1,47,46,48,-1,47,48,49,-1,49,48,50,-1,49,50,51,-1,51,50,52,-1,51,52,53,-1,53,52,54,-1,53,54,55,-1,55,54,56,-1,55,56,57,-1,57,56,58,-1,57,58,59,-1,59,58,60,-1,59,60,61,-1,61,60,62,-1,61,62,63,-1,64,63,65,-1,65,63,62,-1,66,67,68,-1,64,65,69,-1,64,69,70,-1,70,69,71,-1,70,71,68,-1,68,71,72,-1,68,72,66,-1,67,66,73,-1,67,73,74,-1,73,75,74,-1,74,75,76,-1,74,76,77,-1,77,76,78,-1,77,78,79,-1,79,78,80,-1,79,80,81,-1,81,80,82,-1,83,84,82,-1,82,84,85,-1,82,85,81,-1,83,86,84,-1,84,86,87,-1,84,87,88,-1,88,87,89,-1,88,89,90,-1,90,89,91,-1,92,93,91,-1,91,93,94,-1,91,94,90,-1,92,95,93,-1,93,95,96,-1,93,96,97,-1,97,96,98,-1,97,98,99,-1,99,98,100,-1,99,100,101,-1,101,100,102,-1,101,102,103,-1,103,102,13,-1,103,13,12,-1,61,63,64,-1,51,79,49,-1,49,79,81,-1,49,81,47,-1,47,81,85,-1,47,85,45,-1,61,64,59,-1,59,64,70,-1,59,70,57,-1,57,70,68,-1,57,68,55,-1,55,68,67,-1,55,67,53,-1,53,67,74,-1,53,74,51,-1,51,74,77,-1,51,77,79,-1,90,43,88,-1,88,43,45,-1,88,45,84,-1,84,45,85,-1,19,20,17,-1,17,20,23,-1,17,23,15,-1,15,23,25,-1,15,25,12,-1,12,25,27,-1,12,27,103,-1,103,27,29,-1,103,29,101,-1,101,29,31,-1,101,31,99,-1,99,31,33,-1,99,33,97,-1,97,33,35,-1,97,35,93,-1,93,35,37,-1,93,37,94,-1,94,37,39,-1,94,39,90,-1,90,39,41,-1,90,41,43,-1,104,105,106,-1,106,105,107,-1,108,109,110,-1,110,109,104,-1,110,104,106,-1,111,109,112,-1,112,109,108,-1,111,112,113,-1,113,112,114,-1,113,114,115,-1,116,113,117,-1,117,113,115,-1,118,119,120,-1,120,119,116,-1,120,116,117,-1,121,119,122,-1,122,119,118,-1,121,122,123,-1,123,122,124,-1,123,124,125,-1,126,123,127,-1,127,123,125,-1,128,129,130,-1,130,129,126,-1,130,126,127,-1,131,129,132,-1,132,129,128,-1,131,132,105,-1,105,132,133,-1,105,133,107,-1,131,105,104,-1,104,109,131,-1,131,109,111,-1,131,111,129,-1,123,126,121,-1,121,126,129,-1,121,129,119,-1,119,129,111,-1,119,111,116,-1,116,111,113,-1,134,135,136,-1,136,135,137,-1,136,137,138,-1,138,137,139,-1,138,139,140,-1,140,139,141,-1,140,141,142,-1,142,141,143,-1,142,143,144,-1,144,143,145,-1,144,145,146,-1,146,145,147,-1,146,147,148,-1,148,147,149,-1,148,149,150,-1,150,149,151,-1,150,151,152,-1,152,151,153,-1,152,153,154,-1,154,153,155,-1,154,155,156,-1,156,155,157,-1,156,157,158,-1,158,157,159,-1,158,159,160,-1,160,159,161,-1,160,161,162,-1,162,161,163,-1,162,163,164,-1,164,163,165,-1,164,165,166,-1,166,165,167,-1,166,167,168,-1,168,167,134,-1,168,134,136,-1,142,144,169,-1,169,144,170,-1,171,136,138,-1,142,169,172,-1,142,172,140,-1,140,172,173,-1,140,173,138,-1,138,173,174,-1,138,174,171,-1,136,171,175,-1,136,175,168,-1,168,175,176,-1,168,176,166,-1,166,176,177,-1,166,177,164,-1,164,177,178,-1,164,178,162,-1,162,178,179,-1,162,179,160,-1,160,179,180,-1,160,180,158,-1,158,180,181,-1,158,181,156,-1,156,181,182,-1,156,182,154,-1,183,148,150,-1,154,182,184,-1,154,184,152,-1,152,184,185,-1,152,185,150,-1,150,185,186,-1,150,186,183,-1,146,148,187,-1,187,148,183,-1,144,146,170,-1,170,146,187,-1,149,147,188,-1,188,147,189,-1,147,145,189,-1,189,145,190,-1,145,143,190,-1,190,143,191,-1,135,192,193,-1,135,193,137,-1,137,193,194,-1,137,194,139,-1,139,194,195,-1,139,195,141,-1,141,195,191,-1,141,191,143,-1,163,196,197,-1,163,197,165,-1,165,197,198,-1,165,198,167,-1,167,198,199,-1,167,199,134,-1,134,199,192,-1,134,192,135,-1,155,200,201,-1,155,201,157,-1,157,201,202,-1,157,202,159,-1,159,202,203,-1,159,203,161,-1,161,203,196,-1,161,196,163,-1,149,188,204,-1,149,204,151,-1,151,204,205,-1,151,205,153,-1,153,205,200,-1,153,200,155,-1,
        ]
    }
}
Shape{
    appearance Appearance {
        material  Material 	{
            diffuseColor 0.25098039215686274 0.25098039215686274 0.25098039215686274
            specularColor 0.12549019607843137 0.12549019607843137 0.12549019607843137
            ambientIntensity 0.2
            transparency 0
            shininess 0.5
        }
    }
    geometry IndexedFaceSet {
        ccw TRUE
        solid FALSE
        coord DEF co Coordinate {
            point [
                0.2282 -0.8178 0.327, 0.2282 -0.8232 0.2655, 0.2403 -0.8178 0.327, 0.2398 -0.8232 0.2655, 0.25 -0.8231 0.2666, 0.2568 -0.8229 0.269, 0.2621 -0.8226 0.2725, 0.2636 -0.8225 0.2738, 0.2676 -0.8221 0.2787, 0.2703 -0.8216 0.2847, 0.2719 -0.8209 0.292, 0.2722 -0.8205 0.297, 0.2712 -0.8197 0.3062, 0.269 -0.8191 0.3122, 0.266 -0.8187 0.3168, 0.2634 -0.8185 0.3195, 0.2506 -0.8179 0.3259, 0.2575 -0.8182 0.3234, 0.2575 -0.8182 0.3234
            ]
        }
        coordIndex [
            0,1,2,-1,2,1,3,-1,2,3,4,-1,4,5,2,-1,2,5,6,-1,2,6,7,-1,7,8,2,-1,2,8,9,-1,2,9,10,-1,10,11,2,-1,2,11,12,-1,2,12,13,-1,13,14,2,-1,2,14,15,-1,2,15,16,-1,16,15,17,-1,
        ]
    }
}
Shape{
    appearance Appearance {
        material  Material 	{
            diffuseColor 1.0 1.0 1.0
            specularColor 0.5019607843137255 0.5019607843137255 0.5019607843137255
            ambientIntensity 0.2
            transparency 0
            shininess 0.5
        }
    }
    geometry IndexedFaceSet {
        ccw TRUE
        solid FALSE
        coord DEF co Coordinate {
            point [
                0.3099 -0.8252 0.2876, 0.3066 -0.826 0.2786, 0.3367 -0.8252 0.2876, 0.3399 -0.826 0.2786, 0.3218 -0.8223 0.3207, 0.318 -0.821 0.3365, 0.2875 -0.8279 0.2567, 0.2989 -0.8279 0.2567, 0.3225 -0.8221 0.3231, 0.3231 -0.8219 0.3263, 0.329 -0.821 0.3365, 0.3234 -0.8219 0.3263, 0.324 -0.8222 0.3229, 0.3246 -0.8223 0.3207, 0.3595 -0.8279 0.2567, 0.3481 -0.8279 0.2567, 0.329 -0.817 0.3362, 0.3595 -0.824 0.2564, 0.318 -0.817 0.3362, 0.2875 -0.824 0.2564, 0.3105 -0.8187 0.3168, 0.2989 -0.824 0.2564, 0.3066 -0.8221 0.2782, 0.3399 -0.8221 0.2782, 0.3105 -0.8221 0.2782, 0.3481 -0.824 0.2564, 0.3099 -0.8213 0.2872, 0.3367 -0.8213 0.2872, 0.3246 -0.8184 0.3204, 0.3234 -0.8179 0.326, 0.324 -0.8182 0.3226, 0.3231 -0.8179 0.326, 0.3218 -0.8184 0.3204, 0.3225 -0.8182 0.3228, 0.3225 -0.8182 0.3228
            ]
        }
        coordIndex [
            0,1,2,-1,2,1,3,-1,4,5,0,-1,0,5,6,-1,0,6,1,-1,1,6,7,-1,4,8,5,-1,5,8,9,-1,5,9,10,-1,10,9,11,-1,10,11,12,-1,12,13,10,-1,10,13,2,-1,10,2,14,-1,14,2,3,-1,14,3,15,-1,10,14,16,-1,16,14,17,-1,5,10,18,-1,18,10,16,-1,19,6,20,-1,20,6,5,-1,20,5,18,-1,7,6,21,-1,21,6,19,-1,1,7,22,-1,22,7,21,-1,23,3,24,-1,24,3,1,-1,24,1,22,-1,15,3,25,-1,25,3,23,-1,14,15,17,-1,17,15,25,-1,0,2,26,-1,26,2,27,-1,2,13,27,-1,27,13,28,-1,11,29,30,-1,11,30,12,-1,12,30,28,-1,12,28,13,-1,11,9,29,-1,29,9,31,-1,4,32,33,-1,4,33,8,-1,8,33,31,-1,8,31,9,-1,4,0,32,-1,32,0,26,-1,
        ]
    }
}
Shape{
    appearance Appearance {
        material  Material 	{
            diffuseColor 0.25098039215686274 0.25098039215686274 0.25098039215686274
            specularColor 0.12549019607843137 0.12549019607843137 0.12549019607843137
            ambientIntensity 0.2
            transparency 0
            shininess 0.5
        }
    }
    geometry IndexedFaceSet {
        ccw TRUE
        solid FALSE
        coord DEF co Coordinate {
            point [
                0.3234 -0.8179 0.326, 0.3231 -0.8179 0.326, 0.324 -0.8182 0.3226, 0.3225 -0.8182 0.3228, 0.3246 -0.8184 0.3204, 0.3218 -0.8184 0.3204, 0.3367 -0.8213 0.2872, 0.3099 -0.8213 0.2872, 0.3099 -0.8213 0.2872
            ]
        }
        coordIndex [
            0,1,2,-1,2,1,3,-1,2,3,4,-1,4,3,5,-1,4,5,6,-1,6,5,7,-1,
        ]
    }
}
Shape{
    appearance Appearance {
        material  Material 	{
            diffuseColor 1.0 1.0 1.0
            specularColor 0.5019607843137255 0.5019607843137255 0.5019607843137255
            ambientIntensity 0.2
            transparency 0
            shininess 0.5
        }
    }
    geometry IndexedFaceSet {
        ccw TRUE
        solid FALSE
        coord DEF co Coordinate {
            point [
                0.0812 -0.8382 0.1393, 0.0812 -0.839 0.1302, 0.0812 -0.8343 0.139, 0.0812 -0.8351 0.1299, 0.0485 -0.8382 0.1393, 0.0485 -0.8343 0.139, 0.0485 -0.8359 0.1661, 0.0485 -0.832 0.1658, 0.0771 -0.8359 0.1661, 0.0771 -0.832 0.1658, 0.0771 -0.8351 0.1753, 0.0771 -0.8312 0.1749, 0.0485 -0.8351 0.1753, 0.0485 -0.8312 0.1749, 0.0485 -0.8328 0.2008, 0.0485 -0.8289 0.2004, 0.0794 -0.8328 0.2008, 0.0794 -0.8289 0.2004, 0.0794 -0.832 0.21, 0.0794 -0.8281 0.2096, 0.0382 -0.832 0.21, 0.0382 -0.8281 0.2096, 0.0382 -0.839 0.1302, 0.0382 -0.8351 0.1299, 0.1368 -0.8358 0.1669, 0.1268 -0.8365 0.1588, 0.1268 -0.837 0.1533, 0.1265 -0.8382 0.139, 0.1268 -0.8382 0.139, 0.1262 -0.8374 0.1485, 0.1268 -0.839 0.1302, 0.1368 -0.839 0.1302, 0.1011 -0.8375 0.1479, 0.1016 -0.8373 0.1501, 0.0929 -0.8369 0.1545, 0.1031 -0.8381 0.1405, 0.0958 -0.8387 0.1333, 0.1039 -0.8382 0.1396, 0.099 -0.8389 0.131, 0.1059 -0.8383 0.1383, 0.1028 -0.8391 0.1296, 0.1082 -0.8384 0.1374, 0.0949 -0.8366 0.1573, 0.1025 -0.8371 0.152, 0.0979 -0.8364 0.16, 0.1037 -0.837 0.1535, 0.1022 -0.8362 0.1622, 0.1086 -0.8391 0.1289, 0.109 -0.8391 0.1289, 0.1116 -0.8384 0.1371, 0.1139 -0.8391 0.1294, 0.1157 -0.8384 0.1376, 0.118 -0.839 0.1308, 0.1187 -0.8383 0.1387, 0.1217 -0.8388 0.1332, 0.1215 -0.8381 0.1407, 0.1249 -0.8385 0.1365, 0.1225 -0.838 0.1417, 0.1248 -0.8377 0.1449, 0.105 -0.8369 0.1545, 0.1074 -0.8368 0.1556, 0.1098 -0.8361 0.164, 0.1134 -0.8367 0.157, 0.1268 -0.8358 0.1664, 0.0915 -0.8372 0.151, 0.0909 -0.8376 0.1466, 0.101 -0.8376 0.1463, 0.0908 -0.8377 0.1455, 0.1013 -0.8378 0.144, 0.0914 -0.8381 0.1408, 0.1019 -0.838 0.1422, 0.0926 -0.8384 0.1375, 0.0947 -0.8386 0.1344, 0.0964 -0.8344 0.1832, 0.0964 -0.8352 0.1735, 0.0984 -0.8343 0.1843, 0.1034 -0.8349 0.1778, 0.1059 -0.834 0.1872, 0.1097 -0.8347 0.1798, 0.1161 -0.8339 0.1885, 0.1152 -0.8346 0.1804, 0.1221 -0.834 0.188, 0.1186 -0.8347 0.18, 0.1263 -0.8341 0.1867, 0.1209 -0.8347 0.1792, 0.1297 -0.8342 0.1848, 0.1227 -0.8348 0.178, 0.1323 -0.8345 0.1823, 0.1242 -0.835 0.1764, 0.1344 -0.8347 0.1791, 0.1254 -0.8352 0.1743, 0.136 -0.8351 0.1746, 0.1264 -0.8355 0.1708, 0.1161 -0.83 0.1881, 0.1059 -0.8301 0.1869, 0.0984 -0.8304 0.184, 0.0964 -0.8305 0.1828, 0.0964 -0.8313 0.1731, 0.1034 -0.8309 0.1775, 0.1097 -0.8308 0.1795, 0.1152 -0.8307 0.18, 0.1186 -0.8307 0.1797, 0.1209 -0.8308 0.1788, 0.1227 -0.8309 0.1777, 0.1242 -0.8311 0.1761, 0.1254 -0.8312 0.174, 0.1264 -0.8315 0.1704, 0.1268 -0.8319 0.1661, 0.1098 -0.8321 0.1637, 0.1022 -0.8323 0.1618, 0.0979 -0.8325 0.1597, 0.0949 -0.8327 0.157, 0.0929 -0.833 0.1541, 0.0915 -0.8333 0.1506, 0.0909 -0.8337 0.1463, 0.0908 -0.8338 0.1451, 0.0914 -0.8342 0.1405, 0.0926 -0.8345 0.1371, 0.0947 -0.8347 0.1341, 0.0958 -0.8348 0.133, 0.109 -0.8352 0.1285, 0.099 -0.835 0.1307, 0.1028 -0.8351 0.1292, 0.1033 -0.8352 0.1292, 0.1086 -0.8352 0.1285, 0.1139 -0.8352 0.129, 0.1144 -0.8352 0.1292, 0.118 -0.835 0.1305, 0.1217 -0.8348 0.1328, 0.1249 -0.8345 0.1362, 0.1265 -0.8343 0.1387, 0.1268 -0.8343 0.1387, 0.1268 -0.8351 0.1299, 0.1368 -0.8351 0.1299, 0.1368 -0.8319 0.1665, 0.136 -0.8312 0.1742, 0.1344 -0.8308 0.1787, 0.1323 -0.8305 0.1819, 0.1297 -0.8303 0.1845, 0.1263 -0.8302 0.1863, 0.1221 -0.83 0.1876, 0.1037 -0.8331 0.1531, 0.105 -0.833 0.1541, 0.1074 -0.8329 0.1553, 0.1134 -0.8328 0.1567, 0.101 -0.8337 0.1459, 0.1011 -0.8336 0.1475, 0.1016 -0.8334 0.1498, 0.1025 -0.8332 0.1517, 0.1039 -0.8343 0.1393, 0.1031 -0.8342 0.1401, 0.1019 -0.834 0.1418, 0.1013 -0.8339 0.1436, 0.1116 -0.8345 0.1367, 0.1082 -0.8345 0.1371, 0.1059 -0.8344 0.1379, 0.1225 -0.8341 0.1414, 0.1215 -0.8342 0.1404, 0.1187 -0.8343 0.1384, 0.1157 -0.8345 0.1372, 0.1268 -0.8331 0.153, 0.1262 -0.8335 0.1482, 0.1248 -0.8338 0.1446, 0.1268 -0.8326 0.1584, 0.1268 -0.8326 0.1584
            ]
        }
        coordIndex [
            0,1,2,-1,2,1,3,-1,4,0,5,-1,5,0,2,-1,6,4,7,-1,7,4,5,-1,8,6,9,-1,9,6,7,-1,10,8,11,-1,11,8,9,-1,12,10,13,-1,13,10,11,-1,14,12,15,-1,15,12,13,-1,16,14,17,-1,17,14,15,-1,18,16,19,-1,19,16,17,-1,20,18,21,-1,21,18,19,-1,22,20,23,-1,23,20,21,-1,1,22,3,-1,3,22,23,-1,22,1,0,-1,0,4,22,-1,22,4,6,-1,22,6,20,-1,16,18,14,-1,14,18,20,-1,14,20,12,-1,12,20,6,-1,12,6,10,-1,10,6,8,-1,24,25,26,-1,27,28,29,-1,30,31,28,-1,28,31,24,-1,28,24,29,-1,29,24,26,-1,32,33,34,-1,35,36,37,-1,37,36,38,-1,37,38,39,-1,39,38,40,-1,39,40,41,-1,34,33,42,-1,42,33,43,-1,42,43,44,-1,44,43,45,-1,44,45,46,-1,40,47,41,-1,41,47,48,-1,41,48,49,-1,49,48,50,-1,49,50,51,-1,51,50,52,-1,51,52,53,-1,53,52,54,-1,53,54,55,-1,55,54,56,-1,55,56,57,-1,57,56,27,-1,57,27,58,-1,58,27,29,-1,45,59,46,-1,46,59,60,-1,46,60,61,-1,61,60,62,-1,61,62,63,-1,34,64,32,-1,32,64,65,-1,32,65,66,-1,66,65,67,-1,66,67,68,-1,68,67,69,-1,68,69,70,-1,70,69,71,-1,70,71,35,-1,35,71,72,-1,35,72,36,-1,73,74,75,-1,75,74,76,-1,75,76,77,-1,77,76,78,-1,77,78,79,-1,79,78,80,-1,79,80,81,-1,81,80,82,-1,81,82,83,-1,83,82,84,-1,83,84,85,-1,85,84,86,-1,85,86,87,-1,87,86,88,-1,87,88,89,-1,89,88,90,-1,89,90,91,-1,91,90,92,-1,91,92,24,-1,24,92,63,-1,24,63,25,-1,25,63,62,-1,79,93,94,-1,79,94,77,-1,77,94,95,-1,77,95,75,-1,75,95,96,-1,75,96,73,-1,74,73,97,-1,97,73,96,-1,74,97,98,-1,74,98,76,-1,76,98,99,-1,76,99,78,-1,78,99,100,-1,78,100,80,-1,80,100,101,-1,80,101,82,-1,82,101,102,-1,82,102,84,-1,84,102,103,-1,84,103,86,-1,86,103,104,-1,86,104,88,-1,88,104,105,-1,88,105,90,-1,90,105,106,-1,90,106,92,-1,92,106,107,-1,92,107,63,-1,61,63,108,-1,108,63,107,-1,61,108,109,-1,61,109,46,-1,46,109,110,-1,46,110,44,-1,44,110,111,-1,44,111,42,-1,42,111,112,-1,42,112,34,-1,34,112,113,-1,34,113,64,-1,64,113,114,-1,64,114,65,-1,65,114,115,-1,65,115,67,-1,67,115,116,-1,67,116,69,-1,69,116,117,-1,69,117,71,-1,71,117,118,-1,71,118,72,-1,72,118,119,-1,72,119,36,-1,120,48,47,-1,36,119,121,-1,36,121,38,-1,38,121,122,-1,38,122,40,-1,40,122,123,-1,40,123,47,-1,47,123,124,-1,47,124,120,-1,48,120,125,-1,48,125,50,-1,50,125,126,-1,50,126,52,-1,126,127,52,-1,52,127,128,-1,52,128,54,-1,54,128,129,-1,54,129,56,-1,56,129,130,-1,56,130,27,-1,28,27,131,-1,131,27,130,-1,30,28,132,-1,132,28,131,-1,31,30,133,-1,133,30,132,-1,24,31,134,-1,134,31,133,-1,24,134,135,-1,24,135,91,-1,91,135,136,-1,91,136,89,-1,89,136,137,-1,89,137,87,-1,87,137,138,-1,87,138,85,-1,85,138,139,-1,85,139,83,-1,83,139,140,-1,83,140,81,-1,81,140,93,-1,81,93,79,-1,45,141,142,-1,45,142,59,-1,59,142,143,-1,59,143,60,-1,60,143,144,-1,60,144,62,-1,66,145,146,-1,66,146,32,-1,32,146,147,-1,32,147,33,-1,33,147,148,-1,33,148,43,-1,43,148,141,-1,43,141,45,-1,37,149,150,-1,37,150,35,-1,35,150,151,-1,35,151,70,-1,70,151,152,-1,70,152,68,-1,68,152,145,-1,68,145,66,-1,49,153,154,-1,49,154,41,-1,41,154,155,-1,41,155,39,-1,39,155,149,-1,39,149,37,-1,57,156,157,-1,57,157,55,-1,55,157,158,-1,55,158,53,-1,53,158,159,-1,53,159,51,-1,51,159,153,-1,51,153,49,-1,26,160,161,-1,26,161,29,-1,29,161,162,-1,29,162,58,-1,58,162,156,-1,58,156,57,-1,26,25,160,-1,160,25,163,-1,25,62,163,-1,163,62,144,-1,
        ]
    }
}
Shape{
    appearance Appearance {
        material  Material 	{
            diffuseColor 0.25098039215686274 0.25098039215686274 0.25098039215686274
            specularColor 0.12549019607843137 0.12549019607843137 0.12549019607843137
            ambientIntensity 0.2
            transparency 0
            shininess 0.5
        }
    }
    geometry IndexedFaceSet {
        ccw TRUE
        solid FALSE
        coord DEF co Coordinate {
            point [
                0.1268 -0.8331 0.153, 0.1268 -0.8326 0.1584, 0.1134 -0.8328 0.1567, 0.1215 -0.8342 0.1404, 0.1225 -0.8341 0.1414, 0.1074 -0.8329 0.1553, 0.105 -0.833 0.1541, 0.1157 -0.8345 0.1372, 0.1187 -0.8343 0.1384, 0.1248 -0.8338 0.1446, 0.1262 -0.8335 0.1482, 0.1037 -0.8331 0.1531, 0.1025 -0.8332 0.1517, 0.1016 -0.8334 0.1498, 0.1011 -0.8336 0.1475, 0.101 -0.8337 0.1459, 0.1013 -0.8339 0.1436, 0.1059 -0.8344 0.1379, 0.1082 -0.8345 0.1371, 0.1039 -0.8343 0.1393, 0.1116 -0.8345 0.1367, 0.1019 -0.834 0.1418, 0.1031 -0.8342 0.1401, 0.1031 -0.8342 0.1401
            ]
        }
        coordIndex [
            0,1,2,-1,3,4,2,-1,5,6,7,-1,5,7,2,-1,2,7,8,-1,2,8,3,-1,4,9,2,-1,2,9,10,-1,2,10,0,-1,6,11,7,-1,7,11,12,-1,7,12,13,-1,13,14,7,-1,7,14,15,-1,7,15,16,-1,17,18,19,-1,19,18,20,-1,19,20,7,-1,16,21,7,-1,7,21,22,-1,7,22,19,-1,
        ]
    }
}
Shape{
    appearance Appearance {
        material  Material 	{
            diffuseColor 1.0 1.0 1.0
            specularColor 0.5019607843137255 0.5019607843137255 0.5019607843137255
            ambientIntensity 0.2
            transparency 0
            shininess 0.5
        }
    }
    geometry IndexedFaceSet {
        ccw TRUE
        solid FALSE
        coord DEF co Coordinate {
            point [
                0.1504 -0.834 0.1422, 0.1504 -0.8379 0.1425, 0.154 -0.8381 0.1403, 0.1669 -0.8384 0.137, 0.1669 -0.8345 0.1367, 0.1603 -0.8344 0.1375, 0.1603 -0.8384 0.1378, 0.155 -0.8342 0.1395, 0.154 -0.8342 0.1399, 0.1504 -0.8388 0.1322, 0.1504 -0.8349 0.1319, 0.1574 -0.8391 0.1297, 0.155 -0.8351 0.1302, 0.1659 -0.8352 0.1285, 0.1659 -0.8391 0.1289, 0.1594 -0.8352 0.1292, 0.1574 -0.8351 0.1294, 0.175 -0.839 0.1299, 0.1715 -0.8352 0.1292, 0.175 -0.8351 0.1296, 0.1803 -0.8349 0.1316, 0.1803 -0.8389 0.132, 0.1826 -0.8348 0.133, 0.1826 -0.8387 0.1334, 0.1857 -0.8346 0.1358, 0.1857 -0.8385 0.1362, 0.1875 -0.8343 0.1385, 0.1875 -0.8383 0.1388, 0.1886 -0.8341 0.1417, 0.1886 -0.838 0.142, 0.189 -0.8337 0.1454, 0.189 -0.8377 0.1457, 0.1885 -0.8334 0.1495, 0.1885 -0.8373 0.1498, 0.1874 -0.8331 0.1523, 0.1874 -0.8371 0.1527, 0.1856 -0.8329 0.1548, 0.1856 -0.8368 0.1551, 0.1833 -0.8327 0.1569, 0.1833 -0.8367 0.1572, 0.1766 -0.8324 0.1606, 0.1766 -0.8363 0.1609, 0.1727 -0.8323 0.1622, 0.1727 -0.8362 0.1625, 0.1665 -0.832 0.1648, 0.1665 -0.836 0.1652, 0.163 -0.8318 0.1671, 0.163 -0.8358 0.1674, 0.162 -0.8317 0.1681, 0.162 -0.8357 0.1685, 0.1613 -0.8316 0.1695, 0.1613 -0.8356 0.1698, 0.1609 -0.8315 0.171, 0.1609 -0.8354 0.1714, 0.1608 -0.8314 0.1724, 0.1608 -0.8353 0.1727, 0.161 -0.8312 0.1739, 0.161 -0.8352 0.1743, 0.1615 -0.8311 0.1753, 0.1615 -0.835 0.1756, 0.1623 -0.831 0.1766, 0.1623 -0.8349 0.1769, 0.1638 -0.8309 0.1779, 0.1638 -0.8348 0.1782, 0.1661 -0.8308 0.1791, 0.1661 -0.8347 0.1794, 0.1688 -0.8307 0.1798, 0.1688 -0.8346 0.1801, 0.1717 -0.8307 0.18, 0.1717 -0.8346 0.1804, 0.1787 -0.8308 0.1792, 0.1787 -0.8347 0.1795, 0.1844 -0.831 0.177, 0.1844 -0.8349 0.1773, 0.1863 -0.8311 0.1759, 0.1863 -0.835 0.1762, 0.1863 -0.8341 0.1859, 0.1863 -0.8302 0.1856, 0.1797 -0.8301 0.1875, 0.1797 -0.834 0.1879, 0.1727 -0.83 0.1881, 0.1727 -0.8339 0.1885, 0.1647 -0.8301 0.1872, 0.1647 -0.834 0.1875, 0.1593 -0.8303 0.1851, 0.1593 -0.8342 0.1854, 0.1569 -0.8304 0.1836, 0.1569 -0.8343 0.1839, 0.155 -0.8305 0.1819, 0.1537 -0.8346 0.181, 0.1537 -0.8306 0.1807, 0.1519 -0.8309 0.178, 0.1519 -0.8348 0.1783, 0.1508 -0.8312 0.1748, 0.1508 -0.8351 0.1751, 0.1504 -0.8315 0.1715, 0.1504 -0.8354 0.1718, 0.151 -0.8318 0.1672, 0.151 -0.8357 0.1676, 0.1521 -0.8321 0.1642, 0.1521 -0.836 0.1646, 0.1533 -0.8322 0.1624, 0.1533 -0.8362 0.1628, 0.1656 -0.8329 0.1549, 0.1656 -0.8368 0.1552, 0.1597 -0.8366 0.158, 0.1549 -0.8324 0.1607, 0.1549 -0.8363 0.1611, 0.155 -0.8324 0.1607, 0.1597 -0.8327 0.1576, 0.1722 -0.8331 0.1522, 0.1722 -0.8371 0.1525, 0.1761 -0.8334 0.1498, 0.1761 -0.8373 0.1501, 0.1774 -0.8335 0.1485, 0.1774 -0.8374 0.1488, 0.1782 -0.8336 0.1472, 0.1782 -0.8375 0.1475, 0.1786 -0.8337 0.1456, 0.1786 -0.8376 0.146, 0.1787 -0.8338 0.1444, 0.1787 -0.8377 0.1447, 0.1785 -0.834 0.1425, 0.1785 -0.8379 0.1428, 0.178 -0.8341 0.1411, 0.178 -0.838 0.1414, 0.1771 -0.8342 0.1398, 0.1771 -0.8382 0.1401, 0.176 -0.8343 0.1387, 0.176 -0.8382 0.1391, 0.175 -0.8344 0.1382, 0.175 -0.8383 0.1385, 0.1725 -0.8344 0.1372, 0.1725 -0.8384 0.1376, 0.1673 -0.8345 0.1367, 0.1673 -0.8384 0.137, 0.2387 -0.834 0.1872, 0.2491 -0.834 0.1872, 0.2387 -0.8301 0.1868, 0.2491 -0.8301 0.1868, 0.2231 -0.8378 0.1443, 0.2231 -0.8339 0.1439, 0.2223 -0.8341 0.1413, 0.2223 -0.838 0.1416, 0.2219 -0.8343 0.1393, 0.2219 -0.8382 0.1397, 0.2216 -0.8382 0.1397, 0.2216 -0.8343 0.1393, 0.2204 -0.8378 0.1444, 0.2204 -0.8339 0.144, 0.2054 -0.8301 0.1868, 0.2054 -0.834 0.1872, 0.2103 -0.8313 0.173, 0.1942 -0.834 0.1872, 0.1942 -0.8301 0.1868, 0.2167 -0.8351 0.13, 0.2167 -0.839 0.1303, 0.2103 -0.8337 0.1461, 0.2123 -0.836 0.1196, 0.2123 -0.8399 0.12, 0.2163 -0.8352 0.1292, 0.2103 -0.8363 0.1161, 0.21 -0.8403 0.116, 0.21 -0.8363 0.1157, 0.208 -0.8365 0.1136, 0.208 -0.8404 0.1139, 0.2061 -0.8366 0.1124, 0.2061 -0.8405 0.1128, 0.2039 -0.8367 0.1118, 0.2039 -0.8406 0.1121, 0.202 -0.8367 0.1116, 0.202 -0.8406 0.1119, 0.1983 -0.8367 0.1121, 0.1983 -0.8406 0.1124, 0.1963 -0.8366 0.1127, 0.1963 -0.8405 0.1131, 0.1963 -0.8413 0.1042, 0.1963 -0.8374 0.1038, 0.2005 -0.8374 0.1031, 0.2005 -0.8414 0.1034, 0.2028 -0.8374 0.103, 0.2028 -0.8414 0.1034, 0.207 -0.8374 0.1035, 0.207 -0.8413 0.1039, 0.2103 -0.8373 0.1048, 0.2109 -0.8412 0.1054, 0.2109 -0.8373 0.1051, 0.2144 -0.837 0.1076, 0.2144 -0.841 0.1079, 0.2145 -0.837 0.1076, 0.2145 -0.841 0.108, 0.2182 -0.8367 0.1118, 0.2182 -0.8406 0.1122, 0.223 -0.8359 0.1208, 0.223 -0.8398 0.1212, 0.2232 -0.8358 0.1213, 0.2232 -0.8398 0.1216, 0.2263 -0.8352 0.1292, 0.303 -0.8382 0.1393, 0.303 -0.839 0.1302, 0.303 -0.8343 0.139, 0.303 -0.8351 0.1299, 0.2703 -0.8343 0.139, 0.2703 -0.8382 0.1393, 0.2853 -0.8343 0.139, 0.2703 -0.8359 0.1661, 0.2703 -0.832 0.1658, 0.2989 -0.832 0.1658, 0.2989 -0.8359 0.1661, 0.2853 -0.832 0.1658, 0.2989 -0.8351 0.1753, 0.2989 -0.8312 0.1749, 0.2703 -0.8312 0.1749, 0.2703 -0.8351 0.1753, 0.2853 -0.8312 0.1749, 0.2703 -0.8328 0.2008, 0.2703 -0.8289 0.2004, 0.3012 -0.8289 0.2004, 0.3012 -0.8328 0.2008, 0.2853 -0.8289 0.2004, 0.3012 -0.832 0.21, 0.3012 -0.8281 0.2096, 0.2599 -0.8281 0.2096, 0.2599 -0.832 0.21, 0.2853 -0.8281 0.2096, 0.2599 -0.839 0.1302, 0.2599 -0.8351 0.1299, 0.2853 -0.8351 0.1299, 0.3679 -0.8371 0.1525, 0.3639 -0.8375 0.1476, 0.3712 -0.838 0.1414, 0.3624 -0.8376 0.1463, 0.363 -0.8386 0.1355, 0.3571 -0.8379 0.1428, 0.3539 -0.8389 0.1319, 0.3503 -0.8381 0.1404, 0.3401 -0.839 0.1302, 0.3401 -0.8382 0.1393, 0.3181 -0.839 0.1302, 0.3284 -0.8382 0.1393, 0.3181 -0.832 0.21, 0.3284 -0.8328 0.2008, 0.341 -0.832 0.21, 0.3405 -0.8328 0.2008, 0.3532 -0.8322 0.2086, 0.3508 -0.8329 0.1997, 0.3628 -0.8325 0.2051, 0.3578 -0.8332 0.1972, 0.3712 -0.833 0.1994, 0.3637 -0.8335 0.1933, 0.374 -0.8332 0.1967, 0.3663 -0.8337 0.1906, 0.379 -0.8338 0.1898, 0.3693 -0.8341 0.186, 0.3819 -0.8345 0.1822, 0.3714 -0.8347 0.18, 0.3833 -0.8354 0.1711, 0.3724 -0.8355 0.1708, 0.3831 -0.8359 0.166, 0.3722 -0.8359 0.1658, 0.3811 -0.8367 0.1567, 0.3706 -0.8365 0.1585, 0.3772 -0.8374 0.1485, 0.3401 -0.8351 0.1299, 0.3181 -0.8351 0.1299, 0.3539 -0.8349 0.1315, 0.363 -0.8346 0.1351, 0.3712 -0.8341 0.141, 0.3772 -0.8335 0.1481, 0.3811 -0.8328 0.1564, 0.3831 -0.832 0.1657, 0.3833 -0.8315 0.1708, 0.3819 -0.8305 0.1818, 0.379 -0.8299 0.1894, 0.374 -0.8293 0.1964, 0.3712 -0.829 0.1991, 0.3628 -0.8285 0.2048, 0.3532 -0.8282 0.2083, 0.341 -0.8281 0.2096, 0.3181 -0.8281 0.2096, 0.3405 -0.8289 0.2004, 0.3284 -0.8289 0.2004, 0.3284 -0.8343 0.139, 0.3401 -0.8343 0.139, 0.3639 -0.8336 0.1473, 0.3624 -0.8337 0.1459, 0.3571 -0.834 0.1425, 0.3503 -0.8342 0.14, 0.3724 -0.8315 0.1705, 0.3722 -0.832 0.1654, 0.3706 -0.8326 0.1581, 0.3679 -0.8331 0.1522, 0.3637 -0.8296 0.1929, 0.3663 -0.8298 0.1903, 0.3693 -0.8302 0.1857, 0.3714 -0.8307 0.1797, 0.3508 -0.829 0.1993, 0.3578 -0.8292 0.1968, 0.3578 -0.8292 0.1968
            ]
        }
        coordIndex [
            0,1,2,-1,3,4,5,-1,3,5,6,-1,6,5,7,-1,6,7,2,-1,2,7,8,-1,2,8,0,-1,9,1,10,-1,10,1,0,-1,9,10,11,-1,11,10,12,-1,13,14,15,-1,15,14,11,-1,15,11,16,-1,16,11,12,-1,14,13,17,-1,17,13,18,-1,18,19,17,-1,17,19,20,-1,17,20,21,-1,21,20,22,-1,21,22,23,-1,23,22,24,-1,23,24,25,-1,25,24,26,-1,25,26,27,-1,27,26,28,-1,27,28,29,-1,29,28,30,-1,29,30,31,-1,31,30,32,-1,31,32,33,-1,33,32,34,-1,33,34,35,-1,35,34,36,-1,35,36,37,-1,37,36,38,-1,37,38,39,-1,39,38,40,-1,39,40,41,-1,41,40,42,-1,41,42,43,-1,43,42,44,-1,43,44,45,-1,45,44,46,-1,45,46,47,-1,47,46,48,-1,47,48,49,-1,49,48,50,-1,49,50,51,-1,51,50,52,-1,51,52,53,-1,53,52,54,-1,53,54,55,-1,55,54,56,-1,55,56,57,-1,57,56,58,-1,57,58,59,-1,59,58,60,-1,59,60,61,-1,61,60,62,-1,61,62,63,-1,63,62,64,-1,63,64,65,-1,65,64,66,-1,65,66,67,-1,67,66,68,-1,67,68,69,-1,69,68,70,-1,69,70,71,-1,71,70,72,-1,71,72,73,-1,73,72,74,-1,73,74,75,-1,76,75,77,-1,77,75,74,-1,76,77,78,-1,76,78,79,-1,79,78,80,-1,79,80,81,-1,81,80,82,-1,81,82,83,-1,83,82,84,-1,83,84,85,-1,85,84,86,-1,85,86,87,-1,86,88,87,-1,87,88,89,-1,88,90,89,-1,89,90,91,-1,89,91,92,-1,92,91,93,-1,92,93,94,-1,94,93,95,-1,94,95,96,-1,96,95,97,-1,96,97,98,-1,98,97,99,-1,98,99,100,-1,100,99,101,-1,100,101,102,-1,103,104,105,-1,102,101,106,-1,102,106,107,-1,107,106,108,-1,107,108,105,-1,105,108,109,-1,105,109,103,-1,104,103,110,-1,104,110,111,-1,111,110,112,-1,111,112,113,-1,113,112,114,-1,113,114,115,-1,115,114,116,-1,115,116,117,-1,117,116,118,-1,117,118,119,-1,119,118,120,-1,119,120,121,-1,121,120,122,-1,121,122,123,-1,123,122,124,-1,123,124,125,-1,125,124,126,-1,125,126,127,-1,127,126,128,-1,127,128,129,-1,129,128,130,-1,129,130,131,-1,131,130,132,-1,131,132,133,-1,133,132,134,-1,133,134,135,-1,135,134,4,-1,135,4,3,-1,59,61,87,-1,87,61,85,-1,85,61,63,-1,85,63,83,-1,125,25,27,-1,111,43,104,-1,104,43,45,-1,125,27,123,-1,123,27,29,-1,123,29,121,-1,121,29,31,-1,121,31,119,-1,119,31,33,-1,119,33,117,-1,117,33,35,-1,117,35,115,-1,115,35,37,-1,115,37,113,-1,113,37,39,-1,113,39,111,-1,111,39,41,-1,111,41,43,-1,25,125,23,-1,23,125,127,-1,23,127,21,-1,14,3,11,-1,11,3,6,-1,11,6,9,-1,9,6,2,-1,9,2,1,-1,63,65,83,-1,83,65,67,-1,83,67,81,-1,81,67,69,-1,81,69,79,-1,79,69,71,-1,79,71,76,-1,76,71,73,-1,76,73,75,-1,127,129,21,-1,21,129,131,-1,21,131,17,-1,17,131,133,-1,17,133,14,-1,14,133,135,-1,14,135,3,-1,87,89,59,-1,59,89,92,-1,59,92,57,-1,57,92,94,-1,57,94,55,-1,55,94,96,-1,55,96,53,-1,53,96,98,-1,53,98,51,-1,51,98,100,-1,51,100,49,-1,49,100,102,-1,49,102,47,-1,47,102,107,-1,47,107,45,-1,45,107,105,-1,45,105,104,-1,136,137,138,-1,138,137,139,-1,140,136,141,-1,141,136,138,-1,140,141,142,-1,140,142,143,-1,143,142,144,-1,143,144,145,-1,146,145,147,-1,147,145,144,-1,148,146,149,-1,149,146,147,-1,150,151,152,-1,152,151,148,-1,152,148,149,-1,153,151,154,-1,154,151,150,-1,155,156,157,-1,157,156,153,-1,157,153,154,-1,158,159,160,-1,160,159,156,-1,160,156,155,-1,158,161,159,-1,159,161,162,-1,161,163,162,-1,162,163,164,-1,162,164,165,-1,165,164,166,-1,165,166,167,-1,167,166,168,-1,167,168,169,-1,169,168,170,-1,169,170,171,-1,171,170,172,-1,171,172,173,-1,173,172,174,-1,173,174,175,-1,176,175,177,-1,177,175,174,-1,176,177,178,-1,176,178,179,-1,179,178,180,-1,179,180,181,-1,181,180,182,-1,181,182,183,-1,183,182,184,-1,183,184,185,-1,184,186,185,-1,185,186,187,-1,185,187,188,-1,188,187,189,-1,188,189,190,-1,190,189,191,-1,190,191,192,-1,192,191,193,-1,192,193,194,-1,194,193,195,-1,194,195,196,-1,139,137,197,-1,197,137,196,-1,197,196,195,-1,143,145,196,-1,137,136,196,-1,196,136,140,-1,196,140,143,-1,151,153,148,-1,148,153,156,-1,148,156,146,-1,145,146,196,-1,196,146,156,-1,196,156,194,-1,194,156,159,-1,194,159,192,-1,192,159,162,-1,192,162,190,-1,190,162,165,-1,175,176,173,-1,173,176,179,-1,173,179,171,-1,171,179,181,-1,171,181,169,-1,169,181,183,-1,169,183,167,-1,167,183,185,-1,167,185,165,-1,165,185,188,-1,165,188,190,-1,198,199,200,-1,200,199,201,-1,202,203,204,-1,204,203,198,-1,204,198,200,-1,205,203,206,-1,206,203,202,-1,207,208,209,-1,209,208,205,-1,209,205,206,-1,210,208,211,-1,211,208,207,-1,212,213,214,-1,214,213,210,-1,214,210,211,-1,215,213,216,-1,216,213,212,-1,217,218,219,-1,219,218,215,-1,219,215,216,-1,220,218,221,-1,221,218,217,-1,222,223,224,-1,224,223,220,-1,224,220,221,-1,225,223,226,-1,226,223,222,-1,201,199,227,-1,227,199,225,-1,227,225,226,-1,225,199,198,-1,198,203,225,-1,225,203,205,-1,225,205,223,-1,218,220,215,-1,215,220,223,-1,215,223,213,-1,213,223,205,-1,213,205,210,-1,210,205,208,-1,228,229,230,-1,230,229,231,-1,230,231,232,-1,232,231,233,-1,232,233,234,-1,234,233,235,-1,234,235,236,-1,236,235,237,-1,236,237,238,-1,238,237,239,-1,238,239,240,-1,240,239,241,-1,240,241,242,-1,242,241,243,-1,242,243,244,-1,244,243,245,-1,244,245,246,-1,246,245,247,-1,246,247,248,-1,248,247,249,-1,248,249,250,-1,250,249,251,-1,250,251,252,-1,252,251,253,-1,252,253,254,-1,254,253,255,-1,254,255,256,-1,256,255,257,-1,256,257,258,-1,258,257,259,-1,258,259,260,-1,260,259,261,-1,260,261,262,-1,262,261,228,-1,262,228,230,-1,236,238,263,-1,263,238,264,-1,236,263,265,-1,236,265,234,-1,234,265,266,-1,234,266,232,-1,232,266,267,-1,232,267,230,-1,230,267,268,-1,230,268,262,-1,262,268,269,-1,262,269,260,-1,260,269,270,-1,260,270,258,-1,258,270,271,-1,258,271,256,-1,256,271,272,-1,256,272,254,-1,254,272,273,-1,254,273,252,-1,252,273,274,-1,252,274,250,-1,250,274,275,-1,250,275,248,-1,248,275,276,-1,248,276,246,-1,246,276,277,-1,246,277,244,-1,244,277,278,-1,244,278,242,-1,240,242,279,-1,279,242,278,-1,238,240,264,-1,264,240,279,-1,243,241,280,-1,280,241,281,-1,241,239,281,-1,281,239,282,-1,239,237,282,-1,282,237,283,-1,229,284,285,-1,229,285,231,-1,231,285,286,-1,231,286,233,-1,233,286,287,-1,233,287,235,-1,235,287,283,-1,235,283,237,-1,257,288,289,-1,257,289,259,-1,259,289,290,-1,259,290,261,-1,261,290,291,-1,261,291,228,-1,228,291,284,-1,228,284,229,-1,249,292,293,-1,249,293,251,-1,251,293,294,-1,251,294,253,-1,253,294,295,-1,253,295,255,-1,255,295,288,-1,255,288,257,-1,243,280,296,-1,243,296,245,-1,245,296,297,-1,245,297,247,-1,247,297,292,-1,247,292,249,-1,
        ]
    }
}
Shape{
    appearance Appearance {
        material  Material 	{
            diffuseColor 0.25098039215686274 0.25098039215686274 0.25098039215686274
            specularColor 0.12549019607843137 0.12549019607843137 0.12549019607843137
            ambientIntensity 0.2
            transparency 0
            shininess 0.5
        }
    }
    geometry IndexedFaceSet {
        ccw TRUE
        solid FALSE
        coord DEF co Coordinate {
            point [
                0.3284 -0.8289 0.2004, 0.3284 -0.8343 0.139, 0.3405 -0.8289 0.2004, 0.3401 -0.8343 0.139, 0.3503 -0.8342 0.14, 0.3571 -0.834 0.1425, 0.3624 -0.8337 0.1459, 0.3639 -0.8336 0.1473, 0.3679 -0.8331 0.1522, 0.3706 -0.8326 0.1581, 0.3722 -0.832 0.1654, 0.3724 -0.8315 0.1705, 0.3714 -0.8307 0.1797, 0.3693 -0.8302 0.1857, 0.3663 -0.8298 0.1903, 0.3637 -0.8296 0.1929, 0.3508 -0.829 0.1993, 0.3578 -0.8292 0.1968, 0.3578 -0.8292 0.1968
            ]
        }
        coordIndex [
            0,1,2,-1,2,1,3,-1,2,3,4,-1,4,5,2,-1,2,5,6,-1,2,6,7,-1,7,8,2,-1,2,8,9,-1,2,9,10,-1,10,11,2,-1,2,11,12,-1,2,12,13,-1,13,14,2,-1,2,14,15,-1,2,15,16,-1,16,15,17,-1,
        ]
    }
}
Shape{
    appearance Appearance {
        material  Material 	{
            diffuseColor 1.0 1.0 1.0
            specularColor 0.5019607843137255 0.5019607843137255 0.5019607843137255
            ambientIntensity 0.2
            transparency 0
            shininess 0.5
        }
    }
    geometry IndexedFaceSet {
        ccw TRUE
        solid FALSE
        coord DEF co Coordinate {
            point [
                0.4101 -0.8363 0.161, 0.4069 -0.8371 0.152, 0.437 -0.8363 0.161, 0.4402 -0.8371 0.152, 0.4221 -0.8334 0.1942, 0.4182 -0.832 0.21, 0.3877 -0.839 0.1302, 0.3992 -0.839 0.1302, 0.4228 -0.8332 0.1966, 0.4234 -0.8329 0.1998, 0.4293 -0.832 0.21, 0.4237 -0.8329 0.1998, 0.4243 -0.8332 0.1964, 0.4249 -0.8334 0.1942, 0.4598 -0.839 0.1302, 0.4484 -0.839 0.1302, 0.4293 -0.8281 0.2096, 0.4598 -0.8351 0.1299, 0.4182 -0.8281 0.2096, 0.3877 -0.8351 0.1299, 0.3992 -0.8351 0.1299, 0.4069 -0.8332 0.1517, 0.4402 -0.8332 0.1517, 0.4484 -0.8351 0.1299, 0.4101 -0.8324 0.1607, 0.437 -0.8324 0.1607, 0.4249 -0.8295 0.1938, 0.4237 -0.829 0.1994, 0.4243 -0.8293 0.1961, 0.4234 -0.829 0.1994, 0.4221 -0.8295 0.1938, 0.4228 -0.8293 0.1962, 0.4228 -0.8293 0.1962
            ]
        }
        coordIndex [
            0,1,2,-1,2,1,3,-1,4,5,0,-1,0,5,6,-1,0,6,1,-1,1,6,7,-1,4,8,5,-1,5,8,9,-1,5,9,10,-1,10,9,11,-1,10,11,12,-1,12,13,10,-1,10,13,2,-1,10,2,14,-1,14,2,3,-1,14,3,15,-1,10,14,16,-1,16,14,17,-1,5,10,18,-1,18,10,16,-1,6,5,19,-1,19,5,18,-1,7,6,20,-1,20,6,19,-1,1,7,21,-1,21,7,20,-1,3,1,22,-1,22,1,21,-1,15,3,23,-1,23,3,22,-1,14,15,17,-1,17,15,23,-1,0,2,24,-1,24,2,25,-1,2,13,25,-1,25,13,26,-1,11,27,28,-1,11,28,12,-1,12,28,26,-1,12,26,13,-1,11,9,27,-1,27,9,29,-1,4,30,31,-1,4,31,8,-1,8,31,29,-1,8,29,9,-1,4,0,30,-1,30,0,24,-1,
        ]
    }
}
Shape{
    appearance Appearance {
        material  Material 	{
            diffuseColor 0.25098039215686274 0.25098039215686274 0.25098039215686274
            specularColor 0.12549019607843137 0.12549019607843137 0.12549019607843137
            ambientIntensity 0.2
            transparency 0
            shininess 0.5
        }
    }
    geometry IndexedFaceSet {
        ccw TRUE
        solid FALSE
        coord DEF co Coordinate {
            point [
                0.4237 -0.829 0.1994, 0.4234 -0.829 0.1994, 0.4243 -0.8293 0.1961, 0.4228 -0.8293 0.1962, 0.4249 -0.8295 0.1938, 0.4221 -0.8295 0.1938, 0.437 -0.8324 0.1607, 0.4101 -0.8324 0.1607, 0.4101 -0.8324 0.1607
            ]
        }
        coordIndex [
            0,1,2,-1,2,1,3,-1,2,3,4,-1,4,3,5,-1,4,5,6,-1,6,5,7,-1,
        ]
    }
}
Shape{
    appearance Appearance {
        material  Material 	{
            diffuseColor 1.0 1.0 1.0
            specularColor 0.5019607843137255 0.5019607843137255 0.5019607843137255
            ambientIntensity 0.2
            transparency 0
            shininess 0.5
        }
    }
    geometry IndexedFaceSet {
        ccw TRUE
        solid FALSE
        coord DEF co Coordinate {
            point [
                -0.3155 -0.84 0.1189, -0.307 -0.8409 0.1085, -0.3206 -0.8356 0.1691, -0.2205 -0.8402 0.1167, -0.2137 -0.8391 0.1294, -0.2104 -0.8379 0.1434, -0.2823 -0.8389 0.1321, -0.2778 -0.8391 0.129, -0.2959 -0.8416 0.1001, -0.2725 -0.8393 0.1271, -0.1304 -0.8332 0.1968, -0.1481 -0.8306 0.2269, -0.2101 -0.8369 0.1549, -0.2244 -0.834 0.1872, -0.2101 -0.8374 0.1492, -0.2406 -0.8417 0.099, -0.2293 -0.8411 0.1069, -0.333 -0.835 0.1766, -0.3314 -0.8387 0.1343, -0.3212 -0.8389 0.1311, -0.2469 -0.8367 0.1567, -0.2456 -0.8372 0.1514, -0.2456 -0.8376 0.1459, -0.247 -0.8381 0.1405, -0.2497 -0.8385 0.1357, -0.1117 -0.8283 0.253, -0.1071 -0.8283 0.253, -0.0838 -0.8256 0.2836, -0.0963 -0.8284 0.2517, -0.08 -0.8257 0.2823, -0.0864 -0.8287 0.2479, -0.0632 -0.8265 0.2737, -0.0479 -0.8276 0.2605, -0.2718 -0.8266 0.2717, -0.2676 -0.8268 0.2694, -0.2853 -0.8232 0.3108, -0.2598 -0.8254 0.2861, -0.2736 -0.822 0.3244, -0.2473 -0.824 0.3015, -0.2602 -0.821 0.3358, -0.2316 -0.823 0.3133, -0.2464 -0.8203 0.3443, -0.286 -0.8385 0.1362, -0.2884 -0.8381 0.1409, -0.2897 -0.8376 0.1461, -0.2827 -0.8421 0.0946, -0.2693 -0.8423 0.0925, -0.2676 -0.8393 0.1265, -0.2671 -0.8423 0.0925, -0.2629 -0.8393 0.127, -0.2533 -0.8422 0.0942, -0.2579 -0.8391 0.1288, -0.2535 -0.8389 0.1316, -0.1364 -0.839 0.1303, -0.1339 -0.839 0.1299, -0.1293 -0.836 0.1645, -0.2202 -0.8194 0.3544, -0.213 -0.8223 0.321, -0.1919 -0.8191 0.3579, -0.1145 -0.8217 0.3284, -0.1338 -0.8242 0.2994, -0.0959 -0.8235 0.307, -0.1217 -0.8256 0.2835, -0.1139 -0.8272 0.2648, -0.3432 -0.834 0.1871, -0.3667 -0.8366 0.1583, -0.3516 -0.8377 0.145, -0.353 -0.8299 0.2349, -0.3903 -0.8305 0.2272, -0.3547 -0.8311 0.2212, -0.3906 -0.8312 0.2201, -0.3541 -0.8318 0.2126, -0.3885 -0.8329 0.2007, -0.35 -0.833 0.1987, -0.381 -0.8347 0.1794, -0.3691 -0.8363 0.1611, -0.0775 -0.8293 0.2417, -0.0709 -0.8299 0.2343, -0.0365 -0.829 0.2443, -0.0656 -0.8308 0.2245, -0.0298 -0.8306 0.2269, -0.063 -0.8317 0.2136, -0.0274 -0.8321 0.2093, -0.0627 -0.8321 0.2088, -0.1037 -0.836 0.1645, -0.1003 -0.839 0.1299, -0.0935 -0.8358 0.1665, -0.0824 -0.8387 0.1335, -0.0835 -0.8354 0.1711, -0.065 -0.838 0.1417, -0.075 -0.8348 0.1779, -0.05 -0.837 0.1538, -0.0742 -0.8348 0.1788, -0.0485 -0.8368 0.1554, -0.068 -0.834 0.1876, -0.0378 -0.8355 0.1701, -0.0641 -0.8331 0.1977, -0.0303 -0.834 0.1879, -0.0275 -0.8323 0.2064, -0.2846 -0.8262 0.2763, -0.2918 -0.8231 0.3116, -0.2978 -0.8261 0.2779, -0.2984 -0.8231 0.312, -0.3036 -0.8261 0.2776, -0.318 -0.8233 0.3099, -0.3177 -0.8264 0.2744, -0.3393 -0.824 0.3024, -0.3304 -0.827 0.2677, -0.3584 -0.8251 0.2898, -0.3403 -0.8278 0.2589, -0.3638 -0.8255 0.2847, -0.3482 -0.8287 0.2476, -0.3761 -0.8268 0.2696, -0.3858 -0.8286 0.2495, -0.1503 -0.8374 0.1491, -0.1504 -0.8375 0.1475, -0.1322 -0.836 0.165, -0.1941 -0.8221 0.3238, -0.1914 -0.8221 0.3239, -0.1685 -0.8193 0.3555, -0.1733 -0.8223 0.3218, -0.1399 -0.8202 0.3454, -0.1554 -0.8228 0.3153, -0.1392 -0.8238 0.3046, -0.2897 -0.8372 0.1512, -0.2883 -0.8367 0.1566, -0.3143 -0.8345 0.1813, -0.2857 -0.8363 0.1615, -0.3048 -0.8336 0.192, -0.2819 -0.8359 0.1656, -0.2932 -0.8329 0.2, -0.2773 -0.8357 0.1685, -0.2806 -0.8325 0.2048, -0.2723 -0.8355 0.1703, -0.2671 -0.8323 0.2065, -0.2676 -0.8355 0.1708, -0.2601 -0.8324 0.2061, -0.2631 -0.8355 0.1703, -0.2464 -0.8327 0.2027, -0.2578 -0.8357 0.1684, -0.2343 -0.8332 0.1962, -0.2532 -0.8359 0.1654, -0.2495 -0.8363 0.1613, -0.146 -0.8385 0.1361, -0.144 -0.8387 0.1341, -0.1499 -0.8379 0.1435, -0.1484 -0.8382 0.1396, -0.1305 -0.836 0.1647, -0.1402 -0.8389 0.1316, -0.1327 -0.836 0.1651, -0.1368 -0.836 0.1646, -0.1408 -0.8361 0.1631, -0.1443 -0.8363 0.1607, -0.1472 -0.8366 0.1574, -0.1493 -0.837 0.1535, -0.0274 -0.8282 0.209, -0.0298 -0.8266 0.2266, -0.032 -0.8261 0.2323, -0.0365 -0.8251 0.2439, -0.0479 -0.8237 0.2602, -0.0632 -0.8225 0.2734, -0.08 -0.8218 0.282, -0.0838 -0.8217 0.2833, -0.0959 -0.8196 0.3067, -0.1145 -0.8178 0.3281, -0.1276 -0.817 0.3368, -0.1399 -0.8163 0.3451, -0.1685 -0.8154 0.3551, -0.1919 -0.8152 0.3576, -0.2202 -0.8155 0.3541, -0.2464 -0.8164 0.344, -0.258 -0.817 0.3368, -0.2602 -0.8171 0.3354, -0.2736 -0.8181 0.324, -0.2853 -0.8193 0.3105, -0.2918 -0.8192 0.3113, -0.2984 -0.8192 0.3116, -0.318 -0.8194 0.3095, -0.3393 -0.82 0.3021, -0.3584 -0.8211 0.2894, -0.3638 -0.8216 0.2844, -0.3858 -0.8247 0.2492, -0.3761 -0.8229 0.2692, -0.3892 -0.8261 0.2323, -0.3903 -0.8266 0.2269, -0.3906 -0.8272 0.2198, -0.3885 -0.8289 0.2003, -0.381 -0.8308 0.1791, -0.3691 -0.8324 0.1607, -0.3667 -0.8326 0.1579, -0.3516 -0.8338 0.1446, -0.3314 -0.8347 0.134, -0.3212 -0.835 0.1307, -0.3204 -0.8352 0.1292, -0.3155 -0.8361 0.1186, -0.307 -0.837 0.1082, -0.2959 -0.8377 0.0998, -0.2906 -0.8379 0.0976, -0.2827 -0.8382 0.0943, -0.2693 -0.8384 0.0922, -0.2671 -0.8384 0.0922, -0.2101 -0.8334 0.1489, -0.2533 -0.8382 0.0938, -0.2435 -0.8379 0.0976, -0.2406 -0.8378 0.0987, -0.2293 -0.8371 0.1065, -0.2205 -0.8363 0.1164, -0.2137 -0.8352 0.1291, -0.2137 -0.8352 0.1292, -0.2104 -0.8339 0.1431, -0.2101 -0.8329 0.1545, -0.1304 -0.8293 0.1965, -0.1481 -0.8266 0.2266, -0.2244 -0.8301 0.1869, -0.2343 -0.8293 0.1959, -0.2464 -0.8288 0.2023, -0.2601 -0.8285 0.2057, -0.2671 -0.8284 0.2061, -0.2806 -0.8286 0.2045, -0.2932 -0.829 0.1997, -0.3048 -0.8297 0.1917, -0.3143 -0.8306 0.1809, -0.3206 -0.8317 0.1687, -0.333 -0.831 0.1763, -0.3432 -0.8301 0.1867, -0.35 -0.8291 0.1984, -0.3541 -0.8279 0.2123, -0.3547 -0.8271 0.2209, -0.3533 -0.8261 0.2323, -0.353 -0.8259 0.2346, -0.3482 -0.8248 0.2472, -0.3403 -0.8238 0.2585, -0.3304 -0.8231 0.2673, -0.3177 -0.8225 0.274, -0.3036 -0.8222 0.2773, -0.2978 -0.8222 0.2776, -0.2846 -0.8223 0.276, -0.2718 -0.8227 0.2714, -0.2676 -0.8229 0.2691, -0.2598 -0.8215 0.2857, -0.2473 -0.8201 0.3012, -0.2316 -0.8191 0.313, -0.213 -0.8184 0.3207, -0.1941 -0.8182 0.3235, -0.1914 -0.8182 0.3235, -0.1733 -0.8183 0.3215, -0.1554 -0.8189 0.315, -0.1392 -0.8198 0.3042, -0.1338 -0.8203 0.2991, -0.1217 -0.8217 0.2831, -0.1139 -0.8233 0.2644, -0.1117 -0.8244 0.2526, -0.1071 -0.8244 0.2526, -0.0963 -0.8245 0.2513, -0.0864 -0.8248 0.2475, -0.0775 -0.8253 0.2414, -0.0709 -0.826 0.234, -0.07 -0.8261 0.2323, -0.0656 -0.8268 0.2242, -0.063 -0.8278 0.2133, -0.0627 -0.8282 0.2084, -0.0641 -0.8292 0.1974, -0.068 -0.8301 0.1873, -0.0742 -0.8308 0.1784, -0.075 -0.8309 0.1776, -0.0835 -0.8315 0.1707, -0.0935 -0.8319 0.1661, -0.1037 -0.8321 0.1642, -0.1293 -0.8321 0.1642, -0.1305 -0.8321 0.1643, -0.1322 -0.832 0.1647, -0.1327 -0.832 0.1647, -0.1368 -0.8321 0.1643, -0.1408 -0.8322 0.1628, -0.1443 -0.8324 0.1604, -0.1472 -0.8327 0.1571, -0.1493 -0.8331 0.1531, -0.1503 -0.8334 0.1488, -0.1504 -0.8336 0.1472, -0.1499 -0.8339 0.1431, -0.1484 -0.8343 0.1393, -0.146 -0.8346 0.1357, -0.144 -0.8348 0.1337, -0.1402 -0.835 0.1312, -0.1364 -0.8351 0.1299, -0.1339 -0.8351 0.1296, -0.1003 -0.8351 0.1296, -0.0824 -0.8348 0.1332, -0.065 -0.8341 0.1414, -0.05 -0.833 0.1535, -0.0485 -0.8329 0.1551, -0.0378 -0.8316 0.1697, -0.0303 -0.83 0.1875, -0.0275 -0.8284 0.2061, -0.2676 -0.8315 0.1704, -0.2631 -0.8316 0.1699, -0.2578 -0.8318 0.1681, -0.2532 -0.832 0.165, -0.2495 -0.8324 0.161, -0.2469 -0.8328 0.1563, -0.2456 -0.8332 0.1511, -0.2456 -0.8337 0.1456, -0.247 -0.8342 0.1402, -0.2497 -0.8346 0.1353, -0.2535 -0.835 0.1313, -0.2579 -0.8352 0.1284, -0.2629 -0.8354 0.1267, -0.2676 -0.8354 0.1262, -0.2725 -0.8354 0.1267, -0.2778 -0.8352 0.1286, -0.2823 -0.8349 0.1317, -0.286 -0.8346 0.1358, -0.2884 -0.8342 0.1405, -0.2897 -0.8337 0.1457, -0.2897 -0.8333 0.1509, -0.2883 -0.8328 0.1563, -0.2857 -0.8324 0.1612, -0.2819 -0.832 0.1652, -0.2773 -0.8317 0.1682, -0.2723 -0.8316 0.1699, -0.2723 -0.8316 0.1699
            ]
        }
        coordIndex [
            0,1,2,-1,3,4,5,-1,6,1,7,-1,7,1,8,-1,7,8,9,-1,10,11,12,-1,12,11,13,-1,12,13,14,-1,14,13,15,-1,14,15,5,-1,5,15,16,-1,5,16,3,-1,17,18,2,-1,2,18,19,-1,2,19,0,-1,20,21,13,-1,13,21,22,-1,13,22,15,-1,15,22,23,-1,15,23,24,-1,25,26,27,-1,27,26,28,-1,27,28,29,-1,29,28,30,-1,29,30,31,-1,31,30,32,-1,33,34,35,-1,35,34,36,-1,35,36,37,-1,37,36,38,-1,37,38,39,-1,39,38,40,-1,39,40,41,-1,6,42,1,-1,1,42,43,-1,1,43,2,-1,2,43,44,-1,8,45,9,-1,9,45,46,-1,9,46,47,-1,47,46,48,-1,47,48,49,-1,49,48,50,-1,49,50,51,-1,51,50,15,-1,51,15,52,-1,52,15,24,-1,53,54,55,-1,41,40,56,-1,56,40,57,-1,56,57,58,-1,59,60,61,-1,61,60,62,-1,61,62,27,-1,27,62,63,-1,27,63,25,-1,64,65,17,-1,17,65,66,-1,17,66,18,-1,67,68,69,-1,69,68,70,-1,69,70,71,-1,71,70,72,-1,71,72,73,-1,73,72,74,-1,73,74,64,-1,64,74,75,-1,64,75,65,-1,30,76,32,-1,32,76,77,-1,32,77,78,-1,78,77,79,-1,78,79,80,-1,80,79,81,-1,80,81,82,-1,82,81,83,-1,55,54,84,-1,84,54,85,-1,84,85,86,-1,86,85,87,-1,86,87,88,-1,88,87,89,-1,88,89,90,-1,90,89,91,-1,90,91,92,-1,92,91,93,-1,92,93,94,-1,94,93,95,-1,94,95,96,-1,96,95,97,-1,96,97,83,-1,83,97,98,-1,83,98,82,-1,33,35,99,-1,99,35,100,-1,99,100,101,-1,101,100,102,-1,101,102,103,-1,103,102,104,-1,103,104,105,-1,105,104,106,-1,105,106,107,-1,107,106,108,-1,107,108,109,-1,109,108,110,-1,109,110,111,-1,111,110,112,-1,111,112,67,-1,67,112,113,-1,67,113,68,-1,114,115,116,-1,57,117,58,-1,58,117,118,-1,58,118,119,-1,119,118,120,-1,119,120,121,-1,121,120,122,-1,121,122,59,-1,59,122,123,-1,59,123,60,-1,44,124,2,-1,2,124,125,-1,2,125,126,-1,126,125,127,-1,126,127,128,-1,128,127,129,-1,128,129,130,-1,130,129,131,-1,130,131,132,-1,132,131,133,-1,132,133,134,-1,134,133,135,-1,134,135,136,-1,136,135,137,-1,136,137,138,-1,138,137,139,-1,138,139,140,-1,140,139,141,-1,140,141,13,-1,13,141,142,-1,13,142,20,-1,116,143,144,-1,115,145,116,-1,116,145,146,-1,116,146,143,-1,55,147,53,-1,53,147,116,-1,53,116,148,-1,148,116,144,-1,116,149,114,-1,114,149,150,-1,114,150,151,-1,151,152,114,-1,114,152,153,-1,114,153,154,-1,82,155,156,-1,82,156,80,-1,80,156,157,-1,80,157,78,-1,157,158,78,-1,78,158,159,-1,78,159,32,-1,32,159,160,-1,32,160,31,-1,31,160,161,-1,31,161,29,-1,29,161,162,-1,29,162,27,-1,27,162,163,-1,27,163,61,-1,61,163,164,-1,61,164,59,-1,121,59,165,-1,165,59,164,-1,165,166,121,-1,121,166,167,-1,121,167,119,-1,119,167,168,-1,119,168,58,-1,58,168,169,-1,58,169,56,-1,56,169,170,-1,56,170,41,-1,41,170,39,-1,39,170,171,-1,39,171,172,-1,39,172,173,-1,39,173,37,-1,37,173,174,-1,37,174,35,-1,35,174,175,-1,35,175,100,-1,100,175,176,-1,100,176,102,-1,102,176,177,-1,102,177,104,-1,104,177,178,-1,104,178,106,-1,106,178,179,-1,106,179,108,-1,108,179,180,-1,108,180,110,-1,181,112,182,-1,182,112,110,-1,182,110,180,-1,183,68,181,-1,181,68,113,-1,181,113,112,-1,183,184,68,-1,68,184,185,-1,68,185,70,-1,70,185,186,-1,70,186,72,-1,72,186,187,-1,72,187,74,-1,74,187,188,-1,74,188,75,-1,75,188,189,-1,75,189,65,-1,65,189,190,-1,65,190,66,-1,66,190,191,-1,66,191,18,-1,18,191,192,-1,18,192,19,-1,19,192,193,-1,19,193,0,-1,193,194,0,-1,0,194,195,-1,0,195,1,-1,1,195,196,-1,1,196,8,-1,8,196,197,-1,8,197,45,-1,197,198,45,-1,45,198,199,-1,45,199,46,-1,46,199,200,-1,46,200,48,-1,201,14,5,-1,48,200,202,-1,203,15,202,-1,202,15,50,-1,202,50,48,-1,203,204,15,-1,15,204,205,-1,15,205,16,-1,16,205,206,-1,16,206,3,-1,3,206,207,-1,3,207,4,-1,4,207,208,-1,4,208,5,-1,5,208,209,-1,5,209,201,-1,12,14,210,-1,210,14,201,-1,10,12,211,-1,211,12,210,-1,11,10,212,-1,212,10,211,-1,13,11,213,-1,213,11,212,-1,13,213,214,-1,13,214,140,-1,140,214,215,-1,140,215,138,-1,138,215,216,-1,138,216,136,-1,136,216,217,-1,136,217,134,-1,134,217,218,-1,134,218,132,-1,132,218,219,-1,132,219,130,-1,130,219,220,-1,130,220,128,-1,128,220,221,-1,128,221,126,-1,126,221,222,-1,126,222,2,-1,2,222,223,-1,2,223,17,-1,17,223,224,-1,17,224,64,-1,64,224,225,-1,64,225,73,-1,73,225,226,-1,73,226,71,-1,71,226,227,-1,71,227,69,-1,69,227,67,-1,67,227,228,-1,228,229,67,-1,67,229,230,-1,67,230,111,-1,111,230,231,-1,111,231,109,-1,109,231,232,-1,109,232,107,-1,107,232,233,-1,107,233,105,-1,105,233,234,-1,105,234,103,-1,103,234,235,-1,103,235,101,-1,101,235,236,-1,101,236,99,-1,99,236,237,-1,99,237,33,-1,33,237,238,-1,33,238,34,-1,34,238,239,-1,34,239,36,-1,36,239,240,-1,36,240,38,-1,38,240,241,-1,38,241,40,-1,40,241,242,-1,40,242,57,-1,57,242,243,-1,57,243,117,-1,117,243,244,-1,117,244,118,-1,118,244,245,-1,118,245,120,-1,120,245,246,-1,120,246,122,-1,122,246,247,-1,122,247,123,-1,123,247,248,-1,123,248,60,-1,60,248,249,-1,60,249,62,-1,62,249,250,-1,62,250,63,-1,63,250,251,-1,63,251,25,-1,26,25,252,-1,252,25,251,-1,26,252,253,-1,26,253,28,-1,28,253,254,-1,28,254,30,-1,30,254,255,-1,30,255,76,-1,76,255,256,-1,76,256,77,-1,77,256,257,-1,77,257,79,-1,257,258,79,-1,79,258,259,-1,79,259,81,-1,81,259,260,-1,81,260,83,-1,83,260,261,-1,83,261,96,-1,96,261,262,-1,96,262,94,-1,94,262,263,-1,94,263,92,-1,92,263,264,-1,92,264,90,-1,90,264,265,-1,90,265,88,-1,88,265,266,-1,88,266,86,-1,86,266,267,-1,86,267,84,-1,55,84,268,-1,268,84,267,-1,55,268,269,-1,55,269,147,-1,147,269,270,-1,147,270,116,-1,116,270,271,-1,116,271,149,-1,149,271,272,-1,149,272,150,-1,150,272,273,-1,150,273,151,-1,151,273,274,-1,151,274,152,-1,152,274,275,-1,152,275,153,-1,153,275,276,-1,153,276,154,-1,154,276,277,-1,154,277,114,-1,114,277,278,-1,114,278,115,-1,115,278,279,-1,115,279,145,-1,145,279,280,-1,145,280,146,-1,146,280,281,-1,146,281,143,-1,143,281,282,-1,143,282,144,-1,144,282,283,-1,144,283,148,-1,148,283,284,-1,148,284,53,-1,53,284,285,-1,53,285,54,-1,85,54,286,-1,286,54,285,-1,85,286,287,-1,85,287,87,-1,87,287,288,-1,87,288,89,-1,89,288,289,-1,89,289,91,-1,91,289,290,-1,91,290,93,-1,93,290,291,-1,93,291,95,-1,95,291,292,-1,95,292,97,-1,97,292,293,-1,97,293,98,-1,98,293,155,-1,98,155,82,-1,135,294,295,-1,135,295,137,-1,137,295,296,-1,137,296,139,-1,139,296,297,-1,139,297,141,-1,141,297,298,-1,141,298,142,-1,142,298,299,-1,142,299,20,-1,20,299,300,-1,20,300,21,-1,21,300,301,-1,21,301,22,-1,22,301,302,-1,22,302,23,-1,23,302,303,-1,23,303,24,-1,24,303,304,-1,24,304,52,-1,52,304,305,-1,52,305,51,-1,51,305,306,-1,51,306,49,-1,49,306,307,-1,49,307,47,-1,47,307,308,-1,47,308,9,-1,9,308,309,-1,9,309,7,-1,7,309,310,-1,7,310,6,-1,6,310,311,-1,6,311,42,-1,42,311,312,-1,42,312,43,-1,43,312,313,-1,43,313,44,-1,44,313,314,-1,44,314,124,-1,124,314,315,-1,124,315,125,-1,125,315,316,-1,125,316,127,-1,127,316,317,-1,127,317,129,-1,129,317,318,-1,129,318,131,-1,131,318,319,-1,131,319,133,-1,133,319,294,-1,133,294,135,-1,
        ]
    }
}
Shape{
    appearance Appearance {
        material  Material 	{
            diffuseColor 0.25098039215686274 0.25098039215686274 0.25098039215686274
            specularColor 0.12549019607843137 0.12549019607843137 0.12549019607843137
            ambientIntensity 0.2
            transparency 0
            shininess 0.5
        }
    }
    geometry IndexedFaceSet {
        ccw TRUE
        solid FALSE
        coord DEF co Coordinate {
            point [
                -0.2723 -0.8316 0.1699, -0.2676 -0.8354 0.1262, -0.2676 -0.8315 0.1704, -0.2629 -0.8354 0.1267, -0.2631 -0.8316 0.1699, -0.2857 -0.8324 0.1612, -0.2883 -0.8328 0.1563, -0.2897 -0.8333 0.1509, -0.2884 -0.8342 0.1405, -0.286 -0.8346 0.1358, -0.2823 -0.8349 0.1317, -0.2535 -0.835 0.1313, -0.2495 -0.8324 0.161, -0.2532 -0.832 0.165, -0.2897 -0.8337 0.1457, -0.2773 -0.8317 0.1682, -0.2819 -0.832 0.1652, -0.2778 -0.8352 0.1286, -0.2725 -0.8354 0.1267, -0.2579 -0.8352 0.1284, -0.2578 -0.8318 0.1681, -0.247 -0.8342 0.1402, -0.2456 -0.8337 0.1456, -0.2497 -0.8346 0.1353, -0.2456 -0.8332 0.1511, -0.2469 -0.8328 0.1563, -0.2469 -0.8328 0.1563
            ]
        }
        coordIndex [
            0,1,2,-1,2,1,3,-1,2,3,4,-1,5,6,7,-1,8,9,0,-1,0,9,10,-1,11,12,13,-1,8,0,14,-1,14,0,15,-1,14,15,7,-1,7,15,16,-1,7,16,5,-1,10,17,0,-1,0,17,18,-1,0,18,1,-1,3,19,4,-1,4,19,11,-1,4,11,20,-1,20,11,13,-1,21,22,23,-1,23,22,24,-1,23,24,11,-1,11,24,25,-1,11,25,12,-1,
        ]
    }
}
Shape{
    appearance Appearance {
        material  Material 	{
            diffuseColor 1.0 1.0 1.0
            specularColor 0.5019607843137255 0.5019607843137255 0.5019607843137255
            ambientIntensity 0.2
            transparency 0
            shininess 0.5
        }
    }
    geometry IndexedFaceSet {
        ccw TRUE
        solid FALSE
        coord DEF co Coordinate {
            point [
                0.8295 -0.7679 0.5488, 0.8295 -0.5073 0.5488, 0.8295 -0.7623 0.5492, 0.8295 -0.5073 0.5492, 1.0516 -0.5073 0.5488, 1.0516 -0.5073 0.5492, 1.0516 -0.7623 0.5492, 1.0516 -0.7679 0.5488, 1.0516 0.7679 0.5488, 1.0516 0.5073 0.5488, 1.0516 0.7623 0.5492, 1.0516 0.5073 0.5492, 0.8295 0.5073 0.5488, 0.8295 0.5073 0.5492, 0.8295 0.7623 0.5492, 0.8295 0.7679 0.5488, 0.8295 0.7679 0.5488
            ]
        }
        coordIndex [
            0,1,2,-1,2,1,3,-1,1,4,3,-1,3,4,5,-1,5,4,6,-1,6,4,7,-1,4,1,7,-1,7,1,0,-1,8,9,10,-1,10,9,11,-1,9,12,11,-1,11,12,13,-1,13,12,14,-1,14,12,15,-1,9,8,12,-1,12,8,15,-1,
        ]
    }
}