#VRML V2.0 utf8
# 3D model generated by easyeda2kicad.py (https://github.com/uPesy/easyeda2kicad.py)

Shape{
    appearance Appearance {
        material  Material 	{
            diffuseColor 0.7019607843137254 0.7019607843137254 0.35294117647058826
            specularColor 0.050980392156862744 0.050980392156862744 0.023529411764705882
            ambientIntensity 0.2
            transparency 0
            shininess 0.5
        }
    }
    geometry IndexedFaceSet {
        ccw TRUE
        solid FALSE
        coord DEF co Coordinate {
            point [
                -0.0163 0.8182 0.5118, -0.0086 -0.04 0.5118, -0.0163 -0.0491 0.5118, -0.0086 -0.0487 0.5118, 0.0336 -0.0487 0.5118, 0.049 -0.0446 0.5118, 0.049 -0.0359 0.5118, 0.0336 0.0301 0.5118, -0.0067 0.0214 0.5118, 0.023 0.0214 0.5118, 0.023 -0.0045 0.5118, 0.023 -0.0131 0.5118, 0.023 -0.04 0.5118, -0.0048 -0.0131 0.5118, -0.0048 -0.0045 0.5118, 0.088 -0.046 0.5118, 0.1143 -0.0487 0.5118, 0.0803 -0.0486 0.5118, 0.0753 -0.0491 0.5118, 0.4276 -0.0491 0.5118, 0.1546 -0.0487 0.5118, 0.4276 0.8182 0.5118, 0.1546 0.0301 0.5118, 0.144 0.0301 0.5118, -0.0067 0.0301 0.5118, 0.0752 0.0215 0.5118, 0.0811 0.0194 0.5118, 0.0504 -0.0367 0.5118, 0.0865 0.0158 0.5118, 0.0913 0.0105 0.5118, 0.097 -0.0101 0.5118, 0.0962 -0.0186 0.5118, 0.094 -0.0254 0.5118, 0.0765 -0.0401 0.5118, 0.0692 -0.041 0.5118, 0.0823 -0.038 0.5118, 0.0871 -0.0348 0.5118, 0.0908 -0.0309 0.5118, 0.0587 -0.0398 0.5118, 0.0945 0.0044 0.5118, 0.0966 -0.004 0.5118, 0.0917 0.0235 0.5118, 0.0988 0.0167 0.5118, 0.1034 0.0093 0.5118, 0.0943 -0.0419 0.5118, 0.1002 -0.0357 0.5118, 0.1143 -0.04 0.5118, 0.1044 -0.0282 0.5118, 0.144 -0.04 0.5118, 0.1068 -0.0199 0.5118, 0.1075 -0.0108 0.5118, 0.1064 0.0004 0.5118, 0.0842 0.0279 0.5118, 0.0754 0.0304 0.5118, 0.0675 0.031 0.5118, 0.0581 0.0304 0.5118, 0.049 0.0279 0.5118, 0.049 0.0174 0.5118, 0.0578 0.0212 0.5118, 0.0674 0.0224 0.5118, 0.0706 -0.0496 0.5118, 0.4276 -0.8182 0.5118, 0.0685 -0.0496 0.5118, -0.0163 -0.8182 0.5118, 0.0653 -0.0491 0.5118, -0.4276 -0.8182 0.5118, -0.4276 -0.0491 0.5118, 0.0574 -0.048 0.5118, -0.0931 -0.0487 0.5118, -0.0835 -0.0271 0.5118, -0.0789 -0.0341 0.5118, -0.1527 -0.0487 0.5118, -0.1642 -0.0487 0.5118, -0.1335 0.0301 0.5118, -0.4276 0.8182 0.5118, -0.1229 0.0301 0.5118, -0.0725 -0.0403 0.5118, -0.0642 -0.0451 0.5118, -0.0552 -0.0478 0.5118, -0.0454 -0.0487 0.5118, -0.024 -0.0487 0.5118, -0.024 0.0301 0.5118, -0.0462 0.0301 0.5118, -0.0755 0.0198 0.5118, -0.081 0.0136 0.5118, -0.0847 0.0069 0.5118, -0.0576 0.0289 0.5118, -0.0668 0.0256 0.5118, -0.0754 0.0199 0.5118, -0.1047 -0.0487 0.5118, -0.1122 -0.0266 0.5118, -0.1447 -0.0266 0.5118, -0.0868 -0.0009 0.5118, -0.0874 -0.0083 0.5118, -0.0863 -0.0188 0.5118, 0.9 -0.0 0.0, 0.9034 -0.0259 0.0, 0.9 -0.3863 0.0, 0.9134 -0.05 0.0, 0.9293 -0.0707 0.0, 0.9913 -0.5677 0.0, 1.0 -0.1 0.0, 1.0031 -0.5681 0.0, 1.0227 -0.0974 0.0, 1.0227 -0.5648 0.0, 0.917 -0.488 0.0, 0.9272 -0.5138 0.0, 0.9333 -0.5251 0.0, 0.9488 -0.5537 0.0, 0.9647 -0.5613 0.0, 0.9784 -0.5655 0.0, 0.95 -0.0866 0.0, 0.9741 -0.0966 0.0, 0.9034 -0.4327 0.0, 0.9135 -0.4772 0.0, 1.0609 0.0793 0.0031, 1.05 0.0866 0.0016, 1.0838 0.5571 0.0082, 1.0383 0.0924 0.0005, 1.0258 0.0964 0.0001, 1.082 0.5573 0.0076, 1.0227 0.0974 0.0, 1.0227 0.5648 0.0, 1.1129 -0.5523 0.0179, 1.0838 -0.5571 0.0082, 1.0838 -0.0537 0.0081, 1.0924 -0.0383 0.0105, 1.0966 -0.0259 0.0119, 1.1407 -0.547 0.0318, 1.0991 -0.0131 0.0127, 1.1 -0.0 0.013, 1.0866 -0.05 0.0088, 1.0991 0.0131 0.0127, 1.1407 0.547 0.0318, 1.0966 0.0259 0.0119, 1.0924 0.0383 0.0105, 1.0863 0.0498 0.0088, 1.1129 0.5523 0.0179, 1.0838 0.0546 0.008, 1.0707 0.0707 0.0049, 1.082 -0.5573 0.0076, 1.0259 -0.0966 0.0, 1.0383 -0.0924 0.0005, 1.05 -0.0866 0.0016, 1.0609 -0.0793 0.0031, 1.0707 -0.0707 0.0049, 1.1432 0.5465 0.033, 1.1432 -0.5465 0.033, 1.1718 0.54 0.0531, 1.1718 -0.54 0.0531, 1.1893 0.5352 0.0696, 1.1893 -0.5352 0.0696, 1.1978 0.5329 0.0777, 1.1978 -0.5329 0.0777, 1.2272 0.5227 0.1181, 1.2272 -0.5227 0.1181, -0.9 -0.0 0.0, -0.9034 0.0259 0.0, -0.9 0.3863 0.0, -0.9134 0.05 0.0, -0.9293 0.0707 0.0, -0.9913 0.5677 0.0, -1.0 0.1 0.0, -1.0031 0.5681 0.0, -1.0227 0.0974 0.0, -1.0227 0.5648 0.0, -0.917 0.488 0.0, -0.9272 0.5138 0.0, -0.9333 0.5251 -0.0, -0.9488 0.5537 0.0, -0.9647 0.5613 0.0, -0.9784 0.5655 0.0, -0.95 0.0866 0.0, -0.9741 0.0966 0.0, -0.9034 0.4327 0.0, -0.9135 0.4772 0.0, -1.2638 0.9684 0.5357, -0.7806 0.9684 0.5357, -0.8574 0.9389 0.4847, -0.9523 0.8886 0.3976, -1.0303 0.8287 0.2939, -1.0752 0.7797 0.209, 1.2638 -0.9684 0.5357, 0.7806 -0.9684 0.5357, 0.8574 -0.9389 0.4847, 0.9523 -0.8886 0.3976, 1.0303 -0.8287 0.2939, 1.0752 -0.7797 0.209, -0.917 -0.488 0.0, -0.933 -0.5254 -0.0, -1.0 -0.1 0.0, -0.9741 -0.0966 0.0, -0.95 -0.0866 0.0, -0.9 -0.3863 0.0, -0.9293 -0.0707 0.0, -1.0227 -0.5648 0.0, -1.0227 -0.0974 0.0, -1.0098 -0.5675 0.0, -0.9135 -0.4772 0.0, -0.9134 -0.05 0.0, -0.9034 -0.0259 0.0, -0.9349 -0.5298 0.0, -0.9488 -0.5537 0.0, -0.9619 -0.5601 0.0, -0.975 -0.5647 0.0, -0.9873 -0.5672 0.0, -0.9034 -0.4327 0.0, 1.5 0.7638 0.6538, 1.5 0.7638 3.874, 1.5 -0.7638 0.6538, 1.5 -0.7638 3.874, -1.2638 1.0 3.874, 1.2638 1.0 3.874, -1.2638 1.0 0.6538, 1.2638 1.0 0.6538, -1.5 -0.7638 0.6538, -1.5 -0.7638 3.874, -1.5 0.7638 0.6538, -1.5 0.7638 3.874, 1.2638 -1.0 3.874, -1.2638 -1.0 3.874, 1.2638 -1.0 0.6538, -1.2638 -1.0 0.6538, 1.2638 -0.7638 4.1102, 1.2638 0.7638 4.1102, -1.2638 -0.7638 4.1102, -1.2638 0.7638 4.1102, 0.95 0.0866 0.0, 0.9293 0.0707 0.0, 0.9 0.3863 0.0, 0.9741 0.0966 0.0, 0.9134 0.05 0.0, 0.9034 0.0259 0.0, 0.917 0.488 0.0, 0.933 0.5254 -0.0, 1.0 0.1 0.0, 1.0098 0.5675 0.0, 0.9135 0.4772 0.0, 0.9349 0.5298 0.0, 0.9488 0.5537 0.0, 0.9619 0.5601 0.0, 0.975 0.5647 0.0, 0.9873 0.5672 0.0, 0.9034 0.4327 0.0, -0.7806 -0.9684 0.5357, -1.2638 -0.9684 0.5357, -0.7843 -0.9671 0.5336, -0.8869 -0.9251 0.4609, -1.0752 -0.7797 0.209, -1.0476 -0.8117 0.2644, -0.9758 -0.8728 0.3703, 1.4684 -0.7638 0.5357, 1.4684 0.7638 0.5357, -1.2272 -0.5227 0.1181, -1.4684 -0.7638 0.5357, -1.2272 0.5227 0.1181, -1.4684 0.7638 0.5357, 0.7806 0.9684 0.5357, 1.2638 0.9684 0.5357, 0.7843 0.9671 0.5336, 0.8869 0.9251 0.4609, 1.0752 0.7797 0.209, 1.0476 0.8117 0.2644, 0.9758 0.8728 0.3703, -0.9 0.409 0.0394, -0.9 -0.409 0.0394, -0.4819 0.8154 0.5087, -0.5496 0.8033 0.4947, -0.5638 0.8008 0.4917, -0.5494 -0.8027 0.494, -0.5101 -0.8119 0.5046, -0.6654 -0.7625 0.4476, -0.7338 -0.7206 0.3991, -0.6629 0.7622 0.4472, -0.6421 0.7736 0.4603, -0.5901 -0.7932 0.483, -0.6637 -0.7632 0.4484, -0.8361 -0.6132 0.2752, -0.8357 0.6132 0.2751, -0.793 -0.6683 0.3387, -0.8294 0.6242 0.2878, -0.7603 -0.6972 0.3721, -0.7774 0.684 0.3569, -0.7606 0.6974 0.3723, -0.7141 0.7343 0.415, -0.8409 -0.6071 0.2681, -0.8756 -0.5389 0.1893, -0.8681 0.5568 0.21, -0.882 0.5144 0.1611, -0.8954 -0.4659 0.105, -0.8822 -0.5145 0.1612, -0.892 0.4842 0.1262, 0.882 -0.5144 0.1611, 0.8822 0.5145 0.1612, 0.8954 0.4659 0.105, 0.9 0.409 0.0394, 0.9 -0.409 0.0394, 0.892 -0.4842 0.1262, 0.8756 0.5389 0.1893, 0.8357 -0.6132 0.2751, 0.8409 0.6071 0.2681, 0.8361 0.6132 0.2752, 0.8681 -0.5568 0.21, 0.793 0.6683 0.3387, 0.8294 -0.6242 0.2878, 0.7603 0.6972 0.3721, 0.7338 0.7206 0.3991, 0.6629 -0.7622 0.4472, 0.6654 0.7625 0.4476, 0.6637 0.7632 0.4484, 0.7774 -0.684 0.3569, 0.7606 -0.6974 0.3723, 0.7141 -0.7343 0.415, 0.5901 0.7932 0.483, 0.6421 -0.7736 0.4603, 0.5494 0.8027 0.494, 0.5101 0.8119 0.5046, 0.5638 -0.8008 0.4917, 0.5496 -0.8033 0.4947, 0.4819 -0.8154 0.5087, -1.2638 0.992 3.9352, 1.2638 0.992 3.9352, -1.2638 0.9684 3.9921, 1.2638 0.9684 3.9921, -1.2638 0.9308 4.041, 1.2638 0.9308 4.041, -1.2638 0.8819 4.0786, 1.2638 0.8819 4.0786, -1.2638 0.8249 4.1022, 1.2638 0.8249 4.1022, -1.492 0.7638 3.9352, -1.4842 0.8228 3.9352, -1.3661 0.8228 4.0786, -1.3167 0.7943 4.1022, -1.307 0.807 4.1022, -1.2796 0.8228 4.1022, -1.3228 0.7796 4.1022, -1.3779 0.7943 4.0786, -1.4251 0.807 4.041, -1.3249 0.7638 4.1022, -1.3473 0.8473 4.0786, -1.2943 0.8167 4.1022, -1.3228 0.8661 4.0786, -1.2943 0.8779 4.0786, -1.3819 0.7638 4.0786, -1.4308 0.7638 4.041, -1.4684 0.7638 3.9921, -1.4084 0.8473 4.041, -1.3819 0.8819 4.041, -1.3473 0.9084 4.041, -1.307 0.9251 4.041, -1.4614 0.8167 3.9921, -1.4409 0.8661 3.9921, -1.4084 0.9084 3.9921, -1.3661 0.9409 3.9921, -1.3167 0.9614 3.9921, -1.4614 0.8779 3.9352, -1.4251 0.9251 3.9352, -1.3779 0.9614 3.9352, -1.3228 0.9842 3.9352, -1.492 0.8249 3.874, -1.4684 0.8819 3.874, -1.4308 0.9308 3.874, -1.3819 0.9684 3.874, -1.3249 0.992 3.874, -1.492 -0.7638 3.9352, -1.4684 -0.7638 3.9921, -1.4308 -0.7638 4.041, -1.3819 -0.7638 4.0786, -1.3249 -0.7638 4.1022, 1.2638 -0.992 3.9352, -1.2638 -0.992 3.9352, 1.2638 -0.9684 3.9921, -1.2638 -0.9684 3.9921, 1.2638 -0.9308 4.041, -1.2638 -0.9308 4.041, 1.2638 -0.8819 4.0786, -1.2638 -0.8819 4.0786, 1.2638 -0.8249 4.1022, -1.2638 -0.8249 4.1022, 1.492 0.7638 3.9352, 1.492 -0.7638 3.9352, 1.4684 0.7638 3.9921, 1.4684 -0.7638 3.9921, 1.4308 0.7638 4.041, 1.4308 -0.7638 4.041, 1.3819 0.7638 4.0786, 1.3819 -0.7638 4.0786, 1.3249 0.7638 4.1022, 1.3249 -0.7638 4.1022, 1.3228 0.9842 3.9352, 1.3228 0.8661 4.0786, 1.2943 0.8167 4.1022, 1.307 0.807 4.1022, 1.3228 0.7796 4.1022, 1.2796 0.8228 4.1022, 1.2943 0.8779 4.0786, 1.307 0.9251 4.041, 1.3473 0.8473 4.0786, 1.3167 0.7943 4.1022, 1.3661 0.8228 4.0786, 1.3779 0.7943 4.0786, 1.3473 0.9084 4.041, 1.3819 0.8819 4.041, 1.4084 0.8473 4.041, 1.4251 0.807 4.041, 1.3167 0.9614 3.9921, 1.3661 0.9409 3.9921, 1.4084 0.9084 3.9921, 1.4409 0.8661 3.9921, 1.4614 0.8167 3.9921, 1.3779 0.9614 3.9352, 1.4251 0.9251 3.9352, 1.4614 0.8779 3.9352, 1.4842 0.8228 3.9352, 1.3249 0.992 3.874, 1.3819 0.9684 3.874, 1.4308 0.9308 3.874, 1.4684 0.8819 3.874, 1.492 0.8249 3.874, -1.3249 0.992 0.6538, -1.3819 0.9684 0.6538, -1.4308 0.9308 0.6538, -1.4684 0.8819 0.6538, -1.492 0.8249 0.6538, -1.3228 -0.9842 3.9352, -1.3228 -0.8661 4.0786, -1.2943 -0.8167 4.1022, -1.307 -0.807 4.1022, -1.3228 -0.7796 4.1022, -1.2796 -0.8228 4.1022, -1.2943 -0.8779 4.0786, -1.307 -0.9251 4.041, -1.3473 -0.8473 4.0786, -1.3167 -0.7943 4.1022, -1.3661 -0.8228 4.0786, -1.3779 -0.7943 4.0786, -1.3473 -0.9084 4.041, -1.3819 -0.8819 4.041, -1.4084 -0.8473 4.041, -1.4251 -0.807 4.041, -1.3167 -0.9614 3.9921, -1.3661 -0.9409 3.9921, -1.4084 -0.9084 3.9921, -1.4409 -0.8661 3.9921, -1.4614 -0.8167 3.9921, -1.3779 -0.9614 3.9352, -1.4251 -0.9251 3.9352, -1.4614 -0.8779 3.9352, -1.4842 -0.8228 3.9352, -1.3249 -0.992 3.874, -1.3819 -0.9684 3.874, -1.4308 -0.9308 3.874, -1.4684 -0.8819 3.874, -1.492 -0.8249 3.874, 1.4842 -0.8228 3.9352, 1.3661 -0.8228 4.0786, 1.3167 -0.7943 4.1022, 1.307 -0.807 4.1022, 1.2796 -0.8228 4.1022, 1.3228 -0.7796 4.1022, 1.3779 -0.7943 4.0786, 1.4251 -0.807 4.041, 1.3473 -0.8473 4.0786, 1.2943 -0.8167 4.1022, 1.3228 -0.8661 4.0786, 1.2943 -0.8779 4.0786, 1.4084 -0.8473 4.041, 1.3819 -0.8819 4.041, 1.3473 -0.9084 4.041, 1.307 -0.9251 4.041, 1.4614 -0.8167 3.9921, 1.4409 -0.8661 3.9921, 1.4084 -0.9084 3.9921, 1.3661 -0.9409 3.9921, 1.3167 -0.9614 3.9921, 1.4614 -0.8779 3.9352, 1.4251 -0.9251 3.9352, 1.3779 -0.9614 3.9352, 1.3228 -0.9842 3.9352, 1.492 -0.8249 3.874, 1.4684 -0.8819 3.874, 1.4308 -0.9308 3.874, 1.3819 -0.9684 3.874, 1.3249 -0.992 3.874, 1.492 0.8249 0.6538, 1.4684 0.8819 0.6538, 1.4308 0.9308 0.6538, 1.3819 0.9684 0.6538, 1.3249 0.992 0.6538, -1.207 0.5625 0.0936, -1.4519 0.8098 0.5186, -1.206 0.5639 0.0929, -1.4498 0.8135 0.5178, -1.1873 0.5901 0.0799, -1.4265 0.8537 0.508, -1.1757 0.6031 0.0748, -1.4242 0.8563 0.5078, -1.1645 0.6155 0.07, -1.3932 0.8932 0.5044, -1.1394 0.6382 0.0638, -1.1387 0.6387 0.0638, -1.113 0.6577 0.0613, -1.3563 0.9242 0.5078, -1.0953 0.6675 0.0626, -1.3537 0.9265 0.508, -1.0604 0.6868 0.0653, -1.3135 0.9498 0.5178, -1.0592 0.6873 0.0655, -1.3098 0.9519 0.5186, -1.0627 0.7045 0.0911, -1.0609 0.6956 0.0778, -1.0751 0.7786 0.2071, -1.0723 0.758 0.1734, -1.07 0.7404 0.1446, -1.4912 0.7638 0.593, -1.4938 0.7638 0.6001, -1.486 0.8233 0.6001, -1.4683 0.8186 0.5491, -1.4472 0.8697 0.5491, -1.4135 0.9135 0.5491, -1.3697 0.9472 0.5491, -1.3186 0.9683 0.5491, -1.2638 0.9755 0.5491, -1.463 0.8788 0.6001, -1.4264 0.9264 0.6001, -1.3788 0.963 0.6001, -1.3233 0.986 0.6001, -1.4755 0.7638 0.5491, -1.2638 0.9938 0.6001, -1.2638 0.9912 0.593, -0.908 0.462 0.0088, -0.9053 0.4436 0.0194, -0.5922 0.986 0.5738, -0.6182 0.9823 0.5674, -0.6106 0.9852 0.5716, -0.6194 0.9845 0.57, -0.7032 0.978 0.5543, -0.7273 0.9559 0.5223, -0.744 0.973 0.5446, -0.7781 0.9687 0.5364, -0.8274 0.918 0.4573, -1.037 0.7473 0.1654, -0.9854 0.8119 0.2759, -1.0524 0.6729 0.0469, -1.0525 0.6731 0.0471, -1.0138 0.6555 0.0501, -1.0584 0.6846 0.0617, -0.9884 0.723 0.1606, -1.006 0.6224 0.0104, -1.0175 0.6339 0.0155, -1.0225 0.639 0.0177, -1.0242 0.6407 0.0189, -1.0325 0.6491 0.0244, -1.0398 0.6574 0.0318, -1.0481 0.6668 0.0402, -1.0522 0.6725 0.0464, -0.9622 0.5718 0.0009, -0.9709 0.5835 0.0015, -0.967 0.6226 0.0603, -0.9736 0.5871 0.0016, -0.9744 0.5882 0.0017, -0.9804 0.5948 0.003, -0.989 0.6043 0.005, -0.9988 0.6151 0.0072, -1.0042 0.6206 0.0096, -0.9297 0.5814 0.0771, -0.9042 0.5343 0.0995, -0.4276 0.8592 0.5154, -0.4889 0.8963 0.5223, -0.4276 0.8989 0.5261, -0.4276 0.8658 0.5172, -0.4934 0.9337 0.5394, -0.4276 0.9363 0.5435, -0.4276 0.9114 0.5319, -0.5023 0.9891 0.583, -0.4276 0.99 0.586, -0.4984 0.9674 0.5628, -0.4276 0.97 0.5671, -0.4276 0.9532 0.5553, -0.4851 0.8565 0.5119, -0.5715 0.8422 0.4933, -0.6537 0.8155 0.4589, -0.7287 0.7772 0.4094, -0.7937 0.7281 0.3462, -0.9145 0.8695 0.3743, -0.9426 0.7862 0.2642, -0.8784 0.8426 0.357, -0.7984 0.8902 0.4354, -0.706 0.9275 0.4969, -0.6048 0.9534 0.5397, -0.5188 0.9889 0.5824, -0.8459 0.6699 0.2716, -0.8833 0.6045 0.1883, -0.9094 0.6497 0.1723, -0.8712 0.7135 0.2621, -0.8167 0.7705 0.3427, -0.7482 0.8185 0.411, -0.6686 0.8561 0.4647, -0.5811 0.8822 0.5021, -0.945 0.6899 0.1629, -0.9039 0.7529 0.2596, -0.8453 0.8091 0.3463, -0.7717 0.8567 0.4198, -0.6862 0.8939 0.4775, -0.5923 0.9197 0.5177, -0.9053 -0.4436 0.0194, -0.908 -0.462 0.0088, -1.1432 0.5465 0.033, -1.1407 0.547 0.0318, -1.1828 -0.5372 0.0625, -1.0838 -0.0537 0.0081, -1.0707 -0.0707 0.0049, -1.0835 -0.5569 0.0095, -1.0609 -0.0793 0.0031, -1.05 -0.0866 0.0016, -1.0383 -0.0924 0.0005, -1.0259 -0.0966 0.0, -1.0378 -0.5632 0.0005, -1.0863 0.0498 0.0088, -1.0924 0.0383 0.0105, -1.0838 0.0546 0.008, -1.1129 0.5523 0.0179, -1.0838 0.5571 0.0082, -1.0966 0.0259 0.0119, -1.0991 0.0131 0.0127, -1.1 -0.0 0.013, -1.0966 -0.0259 0.0119, -1.1405 -0.5469 0.0321, -1.0991 -0.0131 0.0127, -1.0924 -0.0383 0.0105, -1.0866 -0.05 0.0088, -1.1272 -0.5497 0.0244, -1.0977 -0.5549 0.0122, -1.082 0.5573 0.0076, -1.0258 0.0964 0.0001, -1.0383 0.0924 0.0005, -1.05 0.0866 0.0016, -1.0609 0.0793 0.0031, -1.0707 0.0707 0.0049, -1.1559 -0.5437 0.0411, -1.1718 0.54 0.0531, -1.1893 -0.5352 0.0695, -1.1893 0.5352 0.0696, -1.2069 -0.5301 0.0884, -1.1978 0.5329 0.0777, -1.3098 -0.9519 0.5186, -1.063 -0.7049 0.0914, -1.0679 -0.7282 0.1257, -1.0751 -0.7786 0.2071, -1.0692 -0.7371 0.1401, -1.0951 -0.6674 0.0628, -1.074 -0.6804 0.0632, -1.061 -0.6959 0.0781, -1.0604 -0.6868 0.0653, -1.0592 -0.6873 0.0655, -1.3135 -0.9498 0.5178, -1.3537 -0.9265 0.508, -1.3563 -0.9242 0.5078, -1.1266 -0.6482 0.0622, -1.3932 -0.8932 0.5044, -1.1385 -0.6385 0.0641, -1.1514 -0.6279 0.0663, -1.4242 -0.8563 0.5078, -1.1747 -0.6048 0.0738, -1.176 -0.6032 0.0745, -1.4265 -0.8537 0.508, -1.1957 -0.5791 0.085, -1.4498 -0.8135 0.5178, -1.2056 -0.5638 0.0932, -1.4519 -0.8098 0.5186, -1.2135 -0.5515 0.0998, -1.4938 -0.7638 0.6001, -1.4912 -0.7638 0.593, -1.4755 -0.7638 0.5491, -1.492 -0.8249 0.6538, -1.4684 -0.8819 0.6538, -1.4308 -0.9308 0.6538, -1.3819 -0.9684 0.6538, -1.3249 -0.992 0.6538, 1.3249 -0.992 0.6538, 1.3819 -0.9684 0.6538, 1.4308 -0.9308 0.6538, 1.4684 -0.8819 0.6538, 1.492 -0.8249 0.6538, 1.4938 0.7638 0.6001, 1.4938 -0.7638 0.6001, 1.4912 0.7638 0.593, 1.4912 -0.7638 0.593, 1.4755 0.7638 0.5491, 1.4755 -0.7638 0.5491, 1.2638 0.9912 0.593, 1.2638 0.9938 0.6001, 1.3233 0.986 0.6001, 1.3186 0.9683 0.5491, 1.3135 0.9498 0.5178, 1.3098 0.9519 0.5186, 1.3537 0.9265 0.508, 1.3697 0.9472 0.5491, 1.3563 0.9242 0.5078, 1.4135 0.9135 0.5491, 1.3932 0.8932 0.5044, 1.4472 0.8697 0.5491, 1.4242 0.8563 0.5078, 1.4265 0.8537 0.508, 1.4683 0.8186 0.5491, 1.4498 0.8135 0.5178, 1.4519 0.8098 0.5186, 1.3788 0.963 0.6001, 1.4264 0.9264 0.6001, 1.463 0.8788 0.6001, 1.486 0.8233 0.6001, 1.2638 0.9755 0.5491, 0.6595 0.9814 0.5625, 0.6106 0.9852 0.5716, 0.7781 0.9687 0.5364, 0.7032 0.978 0.5543, 0.5922 0.986 0.5738, 0.5416 0.988 0.5797, 0.5188 0.9889 0.5824, 0.4276 0.99 0.586, 0.4276 0.8592 0.5154, 0.4276 0.8658 0.5172, 0.4276 0.8989 0.5261, 0.4276 0.9114 0.5319, 0.4276 0.9363 0.5435, 0.4276 0.9532 0.5553, 0.4276 0.97 0.5671, 0.9053 0.4436 0.0194, 0.908 0.462 0.0088, -1.0467 -0.7302 0.1362, -0.9319 -0.5643 0.0533, -0.7598 -0.9453 0.504, -0.7781 -0.9687 0.5364, -0.5944 -0.986 0.5738, -0.602 -0.9857 0.5729, -0.6549 -0.9749 0.5548, -0.6595 -0.9815 0.5626, -0.6899 -0.9793 0.5572, -0.535 -0.964 0.5572, -0.4276 -0.97 0.5671, -0.4276 -0.99 0.586, -0.6389 -0.9462 0.5278, -0.5416 -0.988 0.5797, -0.5142 -0.989 0.5827, -0.9067 -0.5166 0.0773, -0.9712 -0.5833 0.0018, -0.9595 -0.5684 0.0006, -0.9537 -0.5611 0.0001, -1.0175 -0.634 0.0158, -1.0043 -0.6207 0.0095, -0.9694 -0.6057 0.0346, -1.0005 -0.6169 0.0077, -0.9832 -0.5983 0.0033, -0.981 -0.5959 0.0028, -0.9809 -0.5958 0.0027, -0.9714 -0.5836 0.0018, -1.0257 -0.6422 0.0197, -1.0242 -0.6406 0.0189, -1.0168 -0.6385 0.0224, -1.019 -0.6354 0.0165, -1.0537 -0.6749 0.0492, -0.9967 -0.7063 0.1332, -1.0524 -0.6728 0.0469, -1.0496 -0.6688 0.0423, -1.0398 -0.6574 0.0318, -1.0337 -0.6504 0.0254, -1.0273 -0.6438 0.0208, -1.0009 -0.7955 0.2479, -0.8901 -0.5872 0.1663, -0.8573 -0.6533 0.2505, -0.8096 -0.7128 0.3266, -0.7491 -0.7638 0.3921, -0.8546 -0.9047 0.4346, -0.936 -0.8543 0.3484, -0.6781 -0.8048 0.445, -0.5992 -0.8347 0.4837, -0.7361 -0.917 0.4796, -0.8235 -0.8772 0.414, -0.8979 -0.8278 0.3326, -0.9565 -0.7702 0.2379, -0.5148 -0.853 0.5074, -0.9162 -0.6328 0.1487, -0.9524 -0.6733 0.1375, -0.8829 -0.6973 0.2392, -0.9165 -0.7369 0.235, -0.8333 -0.7555 0.3214, -0.8632 -0.7943 0.3234, -0.7697 -0.8054 0.3923, -0.7948 -0.8437 0.3997, -0.6945 -0.8455 0.4496, -0.7141 -0.8834 0.4613, -0.6106 -0.875 0.4917, -0.624 -0.9125 0.5065, -0.5206 -0.8929 0.5174, -0.5274 -0.9303 0.5341, -0.4276 -0.8592 0.5154, -0.4276 -0.8658 0.5172, -0.4276 -0.8989 0.5261, -0.4276 -0.9114 0.5319, -0.4276 -0.9363 0.5435, -0.4276 -0.9532 0.5553, -1.2638 -0.9912 0.593, -1.2638 -0.9938 0.6001, -1.3233 -0.986 0.6001, -1.3186 -0.9683 0.5491, -1.3697 -0.9472 0.5491, -1.4135 -0.9135 0.5491, -1.4472 -0.8697 0.5491, -1.4683 -0.8186 0.5491, -1.3788 -0.963 0.6001, -1.4264 -0.9264 0.6001, -1.463 -0.8788 0.6001, -1.486 -0.8233 0.6001, -1.2638 -0.9755 0.5491, 1.486 -0.8233 0.6001, 1.4683 -0.8186 0.5491, 1.4498 -0.8135 0.5178, 1.4519 -0.8098 0.5186, 1.4265 -0.8537 0.508, 1.4472 -0.8697 0.5491, 1.4242 -0.8563 0.5078, 1.4135 -0.9135 0.5491, 1.3932 -0.8932 0.5044, 1.3697 -0.9472 0.5491, 1.3563 -0.9242 0.5078, 1.3537 -0.9265 0.508, 1.3186 -0.9683 0.5491, 1.3135 -0.9498 0.5178, 1.3098 -0.9519 0.5186, 1.2638 -0.9755 0.5491, 1.463 -0.8788 0.6001, 1.4264 -0.9264 0.6001, 1.3788 -0.963 0.6001, 1.3233 -0.986 0.6001, 1.2638 -0.9938 0.6001, 1.2638 -0.9912 0.593, 1.063 0.7049 0.0914, 1.0679 0.7282 0.1257, 1.0751 0.7786 0.2071, 1.0692 0.7371 0.1401, 1.0592 0.6873 0.0655, 1.061 0.6959 0.0781, 1.0604 0.6868 0.0653, 1.0953 0.6675 0.0626, 1.113 0.6577 0.0613, 1.1387 0.6387 0.0638, 1.1394 0.6382 0.0638, 1.1645 0.6155 0.07, 1.1757 0.6031 0.0748, 1.1873 0.5901 0.0799, 1.206 0.5639 0.0929, 1.207 0.5625 0.0936, 1.0467 0.7302 0.1362, 0.9319 0.5643 0.0533, 0.7598 0.9453 0.504, 0.6549 0.9749 0.5548, 0.6389 0.9462 0.5278, 0.535 0.964 0.5572, 0.9067 0.5166 0.0773, 0.9712 0.5833 0.0018, 0.9595 0.5684 0.0006, 0.9537 0.5611 0.0001, 1.0175 0.634 0.0158, 1.0043 0.6207 0.0095, 0.9694 0.6057 0.0346, 1.0005 0.6169 0.0077, 0.9832 0.5983 0.0033, 0.981 0.5959 0.0028, 0.9809 0.5958 0.0027, 0.9714 0.5836 0.0018, 1.0257 0.6422 0.0197, 1.0242 0.6406 0.0189, 1.0168 0.6385 0.0224, 1.019 0.6354 0.0165, 1.0537 0.6749 0.0492, 0.9967 0.7063 0.1332, 1.0524 0.6728 0.0469, 1.0496 0.6688 0.0423, 1.0398 0.6574 0.0318, 1.0337 0.6504 0.0254, 1.0273 0.6438 0.0208, 1.0009 0.7955 0.2479, 0.8901 0.5872 0.1663, 0.8573 0.6533 0.2505, 0.8096 0.7128 0.3266, 0.7491 0.7638 0.3921, 0.8546 0.9047 0.4346, 0.936 0.8543 0.3484, 0.6781 0.8048 0.445, 0.5992 0.8347 0.4837, 0.7361 0.917 0.4796, 0.8235 0.8772 0.414, 0.8979 0.8278 0.3326, 0.9565 0.7702 0.2379, 0.5148 0.853 0.5074, 0.9162 0.6328 0.1487, 0.9524 0.6733 0.1375, 0.8829 0.6973 0.2392, 0.9165 0.7369 0.235, 0.8333 0.7555 0.3214, 0.8632 0.7943 0.3234, 0.7697 0.8054 0.3923, 0.7948 0.8437 0.3997, 0.6945 0.8455 0.4496, 0.7141 0.8834 0.4613, 0.6106 0.875 0.4917, 0.624 0.9125 0.5065, 0.5206 0.8929 0.5174, 0.5274 0.9303 0.5341, 0.4276 -0.99 0.586, 0.4276 -0.97 0.5671, 0.4276 -0.9532 0.5553, 0.4276 -0.9363 0.5435, 0.4276 -0.9114 0.5319, 0.4276 -0.8989 0.5261, 0.4276 -0.8658 0.5172, 0.4276 -0.8592 0.5154, 0.5023 -0.9892 0.5832, 0.5142 -0.989 0.5827, 0.5944 -0.986 0.5738, 0.602 -0.9857 0.5729, 0.6194 -0.9844 0.5698, 0.6899 -0.9793 0.5572, 0.744 -0.9728 0.5444, 0.7781 -0.9687 0.5364, 1.207 -0.5625 0.0936, 1.206 -0.5639 0.0929, 1.1873 -0.5901 0.0799, 1.1757 -0.6031 0.0748, 1.1645 -0.6155 0.07, 1.1394 -0.6382 0.0638, 1.1387 -0.6387 0.0638, 1.113 -0.6577 0.0613, 1.0953 -0.6675 0.0626, 1.0627 -0.7045 0.0911, 1.0609 -0.6956 0.0778, 1.0604 -0.6868 0.0653, 1.0592 -0.6873 0.0655, 1.0751 -0.7786 0.2071, 1.0723 -0.758 0.1734, 1.07 -0.7404 0.1446, 0.6182 -0.9823 0.5674, 0.7273 -0.9559 0.5223, 0.8274 -0.918 0.4573, 1.037 -0.7473 0.1654, 0.9854 -0.8119 0.2759, 1.0524 -0.6729 0.0469, 1.0525 -0.6731 0.0471, 1.0138 -0.6555 0.0501, 1.0584 -0.6846 0.0617, 0.9884 -0.723 0.1606, 1.006 -0.6224 0.0104, 1.0175 -0.6339 0.0155, 1.0225 -0.639 0.0177, 1.0242 -0.6407 0.0189, 1.0325 -0.6491 0.0244, 1.0398 -0.6574 0.0318, 1.0481 -0.6668 0.0402, 1.0522 -0.6725 0.0464, 0.9622 -0.5718 0.0009, 0.9709 -0.5835 0.0015, 0.967 -0.6226 0.0603, 0.9736 -0.5871 0.0016, 0.9744 -0.5882 0.0017, 0.9804 -0.5948 0.003, 0.989 -0.6043 0.005, 0.9988 -0.6151 0.0072, 1.0042 -0.6206 0.0096, 0.9297 -0.5814 0.0771, 0.908 -0.462 0.0088, 0.9042 -0.5343 0.0995, 0.4889 -0.8963 0.5223, 0.4934 -0.9337 0.5394, 0.4984 -0.9674 0.5628, 0.4851 -0.8565 0.5119, 0.5715 -0.8422 0.4933, 0.6537 -0.8155 0.4589, 0.7287 -0.7772 0.4094, 0.7937 -0.7281 0.3462, 0.9145 -0.8695 0.3743, 0.9426 -0.7862 0.2642, 0.8784 -0.8426 0.357, 0.7984 -0.8902 0.4354, 0.706 -0.9275 0.4969, 0.6048 -0.9534 0.5397, 0.8459 -0.6699 0.2716, 0.8833 -0.6045 0.1883, 0.9094 -0.6497 0.1723, 0.8712 -0.7135 0.2621, 0.8167 -0.7705 0.3427, 0.7482 -0.8185 0.411, 0.6686 -0.8561 0.4647, 0.5811 -0.8822 0.5021, 0.945 -0.6899 0.1629, 0.9039 -0.7529 0.2596, 0.8453 -0.8091 0.3463, 0.7717 -0.8567 0.4198, 0.6862 -0.8939 0.4775, 0.5923 -0.9197 0.5177, 0.9053 -0.4436 0.0194, 0.9053 -0.4436 0.0194
            ]
        }
        coordIndex [
            0,1,2,-1,2,1,3,-1,2,3,4,-1,5,4,6,-1,6,4,7,-1,8,9,10,-1,11,12,13,-1,13,12,1,-1,13,1,14,-1,15,16,17,-1,17,16,18,-1,19,20,21,-1,21,20,22,-1,21,22,0,-1,0,22,23,-1,10,14,8,-1,8,14,1,-1,8,1,24,-1,24,1,0,-1,24,0,7,-1,25,26,27,-1,27,26,28,-1,27,28,29,-1,30,31,27,-1,27,31,32,-1,33,34,35,-1,35,34,36,-1,32,37,27,-1,27,37,36,-1,27,36,38,-1,38,36,34,-1,29,39,27,-1,27,39,40,-1,27,40,30,-1,41,0,42,-1,42,0,23,-1,42,23,43,-1,15,44,16,-1,16,44,45,-1,16,45,46,-1,46,45,47,-1,46,47,48,-1,47,49,48,-1,48,49,50,-1,48,50,23,-1,23,50,51,-1,23,51,43,-1,41,52,0,-1,0,52,53,-1,0,53,54,-1,54,55,0,-1,0,55,56,-1,0,56,7,-1,7,56,57,-1,7,57,6,-1,6,57,58,-1,6,58,27,-1,27,58,59,-1,27,59,25,-1,16,20,18,-1,18,20,19,-1,18,19,60,-1,60,19,61,-1,60,61,62,-1,62,61,63,-1,62,63,64,-1,65,66,63,-1,63,66,2,-1,63,2,64,-1,64,2,4,-1,64,4,67,-1,67,4,5,-1,68,69,70,-1,71,2,72,-1,72,2,66,-1,72,66,73,-1,73,66,74,-1,73,74,75,-1,75,74,0,-1,70,76,68,-1,68,76,77,-1,68,77,78,-1,79,80,2,-1,2,80,81,-1,2,81,0,-1,0,81,82,-1,83,84,75,-1,75,84,85,-1,82,86,0,-1,0,86,87,-1,0,87,75,-1,75,87,88,-1,75,88,83,-1,78,79,68,-1,68,79,2,-1,68,2,89,-1,89,2,71,-1,89,71,90,-1,90,71,91,-1,85,92,75,-1,75,92,93,-1,75,93,68,-1,68,93,94,-1,68,94,69,-1,95,96,97,-1,97,96,98,-1,97,98,99,-1,100,101,102,-1,102,101,103,-1,102,103,104,-1,105,101,106,-1,106,101,107,-1,108,107,109,-1,109,107,101,-1,109,101,110,-1,110,101,100,-1,99,111,97,-1,97,111,112,-1,97,112,113,-1,113,112,101,-1,113,101,114,-1,114,101,105,-1,115,116,117,-1,116,118,117,-1,117,118,119,-1,117,119,120,-1,120,119,121,-1,120,121,122,-1,123,124,125,-1,126,127,128,-1,128,127,129,-1,128,129,130,-1,123,125,128,-1,128,125,131,-1,128,131,126,-1,130,132,133,-1,133,132,134,-1,134,135,133,-1,133,135,136,-1,133,136,137,-1,137,136,138,-1,137,138,117,-1,117,138,139,-1,117,139,115,-1,104,103,140,-1,140,103,141,-1,140,141,124,-1,124,141,142,-1,124,142,143,-1,143,144,124,-1,124,144,145,-1,124,145,125,-1,130,133,128,-1,128,133,146,-1,128,146,147,-1,147,146,148,-1,147,148,149,-1,149,148,150,-1,149,150,151,-1,151,150,152,-1,151,152,153,-1,153,152,154,-1,153,154,155,-1,156,157,158,-1,158,157,159,-1,158,159,160,-1,161,162,163,-1,163,162,164,-1,163,164,165,-1,166,162,167,-1,167,162,168,-1,169,168,170,-1,170,168,162,-1,170,162,171,-1,171,162,161,-1,160,172,158,-1,158,172,173,-1,158,173,174,-1,174,173,162,-1,174,162,175,-1,175,162,166,-1,176,177,178,-1,178,179,176,-1,176,179,180,-1,176,180,181,-1,182,183,184,-1,184,185,182,-1,182,185,186,-1,182,186,187,-1,188,189,190,-1,191,192,193,-1,193,192,194,-1,195,196,197,-1,197,196,190,-1,188,190,198,-1,194,199,193,-1,193,199,200,-1,193,200,156,-1,189,201,190,-1,190,201,202,-1,190,202,203,-1,203,204,190,-1,190,204,205,-1,190,205,197,-1,191,193,190,-1,190,193,206,-1,190,206,198,-1,207,208,209,-1,209,208,210,-1,211,212,213,-1,213,212,214,-1,215,216,217,-1,217,216,218,-1,219,220,221,-1,221,220,222,-1,223,224,225,-1,225,224,226,-1,227,228,229,-1,227,229,230,-1,228,231,229,-1,229,231,232,-1,229,232,95,-1,233,234,235,-1,122,121,236,-1,236,121,235,-1,233,235,237,-1,234,238,235,-1,235,238,239,-1,235,239,240,-1,240,241,235,-1,235,241,242,-1,235,242,236,-1,230,229,235,-1,235,229,243,-1,235,243,237,-1,244,245,246,-1,246,245,247,-1,248,249,245,-1,245,249,250,-1,245,250,247,-1,251,155,252,-1,252,155,154,-1,253,254,255,-1,255,254,256,-1,257,258,259,-1,259,258,260,-1,261,262,258,-1,258,262,263,-1,258,263,260,-1,158,264,156,-1,156,264,265,-1,156,265,193,-1,266,74,66,-1,266,66,267,-1,268,267,269,-1,269,267,66,-1,269,66,270,-1,270,66,65,-1,271,272,273,-1,268,269,274,-1,274,269,275,-1,274,275,273,-1,273,275,276,-1,273,276,271,-1,277,278,279,-1,279,278,280,-1,279,280,281,-1,280,282,281,-1,281,282,283,-1,281,283,272,-1,272,283,284,-1,272,284,273,-1,277,285,278,-1,278,285,286,-1,278,286,287,-1,287,286,288,-1,289,265,264,-1,286,290,288,-1,288,290,289,-1,288,289,291,-1,291,289,264,-1,292,293,294,-1,295,296,294,-1,294,296,297,-1,294,297,292,-1,298,299,300,-1,300,299,301,-1,293,292,298,-1,298,292,302,-1,298,302,299,-1,301,299,303,-1,303,299,304,-1,303,304,305,-1,306,307,308,-1,308,307,309,-1,304,310,305,-1,305,310,311,-1,305,311,306,-1,306,311,312,-1,306,312,307,-1,309,307,313,-1,313,307,314,-1,313,314,315,-1,315,19,316,-1,316,19,21,-1,314,317,315,-1,315,317,318,-1,315,318,19,-1,19,318,319,-1,19,319,61,-1,97,296,95,-1,95,296,295,-1,95,295,229,-1,212,211,320,-1,212,320,321,-1,321,320,322,-1,321,322,323,-1,323,322,324,-1,323,324,325,-1,325,324,326,-1,325,326,327,-1,327,326,328,-1,327,328,329,-1,329,328,226,-1,329,226,224,-1,218,330,331,-1,332,333,334,-1,226,328,335,-1,334,333,226,-1,336,226,333,-1,336,333,337,-1,337,333,332,-1,337,332,338,-1,339,226,336,-1,340,341,342,-1,342,341,335,-1,342,335,343,-1,343,335,328,-1,343,328,326,-1,339,336,344,-1,344,336,337,-1,344,337,345,-1,345,337,338,-1,345,338,346,-1,347,340,348,-1,348,340,342,-1,348,342,349,-1,349,342,343,-1,349,343,350,-1,350,343,326,-1,350,326,324,-1,351,347,352,-1,352,347,348,-1,352,348,353,-1,353,348,349,-1,353,349,354,-1,354,349,350,-1,354,350,355,-1,355,350,324,-1,355,324,322,-1,330,351,331,-1,331,351,352,-1,331,352,356,-1,356,352,353,-1,356,353,357,-1,357,353,354,-1,357,354,358,-1,358,354,355,-1,358,355,359,-1,359,355,322,-1,359,322,320,-1,218,331,360,-1,360,331,356,-1,360,356,361,-1,361,356,357,-1,361,357,362,-1,362,357,358,-1,362,358,363,-1,363,358,359,-1,363,359,364,-1,364,359,320,-1,364,320,211,-1,341,226,335,-1,330,346,351,-1,351,346,338,-1,351,338,347,-1,347,338,332,-1,347,332,340,-1,340,332,334,-1,340,334,341,-1,341,334,226,-1,218,216,365,-1,218,365,330,-1,330,365,366,-1,330,366,346,-1,346,366,367,-1,346,367,345,-1,345,367,368,-1,345,368,344,-1,344,368,369,-1,344,369,339,-1,339,369,225,-1,339,225,226,-1,220,219,370,-1,220,370,371,-1,371,370,372,-1,371,372,373,-1,373,372,374,-1,373,374,375,-1,375,374,376,-1,375,376,377,-1,377,376,378,-1,377,378,379,-1,379,378,223,-1,379,223,225,-1,210,208,380,-1,210,380,381,-1,381,380,382,-1,381,382,383,-1,383,382,384,-1,383,384,385,-1,385,384,386,-1,385,386,387,-1,387,386,388,-1,387,388,389,-1,389,388,224,-1,389,224,223,-1,212,321,390,-1,391,392,393,-1,224,388,394,-1,393,392,224,-1,395,224,392,-1,395,392,396,-1,396,392,391,-1,396,391,397,-1,329,224,395,-1,398,399,400,-1,400,399,394,-1,400,394,401,-1,401,394,388,-1,401,388,386,-1,329,395,327,-1,327,395,396,-1,327,396,325,-1,325,396,397,-1,325,397,323,-1,402,398,403,-1,403,398,400,-1,403,400,404,-1,404,400,401,-1,404,401,405,-1,405,401,386,-1,405,386,384,-1,406,402,407,-1,407,402,403,-1,407,403,408,-1,408,403,404,-1,408,404,409,-1,409,404,405,-1,409,405,410,-1,410,405,384,-1,410,384,382,-1,321,406,390,-1,390,406,407,-1,390,407,411,-1,411,407,408,-1,411,408,412,-1,412,408,409,-1,412,409,413,-1,413,409,410,-1,413,410,414,-1,414,410,382,-1,414,382,380,-1,212,390,415,-1,415,390,411,-1,415,411,416,-1,416,411,412,-1,416,412,417,-1,417,412,413,-1,417,413,418,-1,418,413,414,-1,418,414,419,-1,419,414,380,-1,419,380,208,-1,399,224,394,-1,321,323,406,-1,406,323,397,-1,406,397,402,-1,402,397,391,-1,402,391,398,-1,398,391,393,-1,398,393,399,-1,399,393,224,-1,211,213,420,-1,211,420,364,-1,364,420,421,-1,364,421,363,-1,363,421,422,-1,363,422,362,-1,362,422,423,-1,362,423,361,-1,361,423,424,-1,361,424,360,-1,360,424,217,-1,360,217,218,-1,220,371,425,-1,426,427,428,-1,225,369,429,-1,428,427,225,-1,430,225,427,-1,430,427,431,-1,431,427,426,-1,431,426,432,-1,379,225,430,-1,433,434,435,-1,435,434,429,-1,435,429,436,-1,436,429,369,-1,436,369,368,-1,379,430,377,-1,377,430,431,-1,377,431,375,-1,375,431,432,-1,375,432,373,-1,437,433,438,-1,438,433,435,-1,438,435,439,-1,439,435,436,-1,439,436,440,-1,440,436,368,-1,440,368,367,-1,441,437,442,-1,442,437,438,-1,442,438,443,-1,443,438,439,-1,443,439,444,-1,444,439,440,-1,444,440,445,-1,445,440,367,-1,445,367,366,-1,371,441,425,-1,425,441,442,-1,425,442,446,-1,446,442,443,-1,446,443,447,-1,447,443,444,-1,447,444,448,-1,448,444,445,-1,448,445,449,-1,449,445,366,-1,449,366,365,-1,220,425,450,-1,450,425,446,-1,450,446,451,-1,451,446,447,-1,451,447,452,-1,452,447,448,-1,452,448,453,-1,453,448,449,-1,453,449,454,-1,454,449,365,-1,454,365,216,-1,434,225,429,-1,371,373,441,-1,441,373,432,-1,441,432,437,-1,437,432,426,-1,437,426,433,-1,433,426,428,-1,433,428,434,-1,434,428,225,-1,210,381,455,-1,456,457,458,-1,223,378,459,-1,458,457,223,-1,460,223,457,-1,460,457,461,-1,461,457,456,-1,461,456,462,-1,389,223,460,-1,463,464,465,-1,465,464,459,-1,465,459,466,-1,466,459,378,-1,466,378,376,-1,389,460,387,-1,387,460,461,-1,387,461,385,-1,385,461,462,-1,385,462,383,-1,467,463,468,-1,468,463,465,-1,468,465,469,-1,469,465,466,-1,469,466,470,-1,470,466,376,-1,470,376,374,-1,471,467,472,-1,472,467,468,-1,472,468,473,-1,473,468,469,-1,473,469,474,-1,474,469,470,-1,474,470,475,-1,475,470,374,-1,475,374,372,-1,381,471,455,-1,455,471,472,-1,455,472,476,-1,476,472,473,-1,476,473,477,-1,477,473,474,-1,477,474,478,-1,478,474,475,-1,478,475,479,-1,479,475,372,-1,479,372,370,-1,210,455,480,-1,480,455,476,-1,480,476,481,-1,481,476,477,-1,481,477,482,-1,482,477,478,-1,482,478,483,-1,483,478,479,-1,483,479,484,-1,484,479,370,-1,484,370,219,-1,464,223,459,-1,381,383,471,-1,471,383,462,-1,471,462,467,-1,467,462,456,-1,467,456,463,-1,463,456,458,-1,463,458,464,-1,464,458,223,-1,208,207,485,-1,208,485,419,-1,419,485,486,-1,419,486,418,-1,418,486,487,-1,418,487,417,-1,417,487,488,-1,417,488,416,-1,416,488,489,-1,416,489,415,-1,415,489,214,-1,415,214,212,-1,255,256,490,-1,490,256,491,-1,490,491,492,-1,492,491,493,-1,492,493,494,-1,494,493,495,-1,494,495,496,-1,496,495,497,-1,496,497,498,-1,498,497,499,-1,498,499,500,-1,500,499,501,-1,501,499,502,-1,502,499,503,-1,502,503,504,-1,504,503,505,-1,504,505,506,-1,506,505,507,-1,506,507,508,-1,509,510,507,-1,507,510,511,-1,507,511,508,-1,176,181,509,-1,509,181,512,-1,512,513,509,-1,509,513,514,-1,509,514,510,-1,515,516,517,-1,516,217,424,-1,518,493,491,-1,493,518,495,-1,495,518,519,-1,495,519,497,-1,497,519,520,-1,497,520,499,-1,499,520,521,-1,499,521,503,-1,503,521,505,-1,505,521,522,-1,505,522,507,-1,507,522,509,-1,509,522,523,-1,509,523,176,-1,516,424,517,-1,517,424,423,-1,517,423,524,-1,524,423,422,-1,524,422,525,-1,525,422,421,-1,525,421,526,-1,526,421,420,-1,526,420,527,-1,515,518,528,-1,528,518,491,-1,528,491,256,-1,420,213,527,-1,527,213,529,-1,527,529,530,-1,515,517,518,-1,518,517,524,-1,518,524,519,-1,519,524,525,-1,519,525,520,-1,520,525,526,-1,520,526,521,-1,521,526,527,-1,521,527,522,-1,522,527,530,-1,522,530,523,-1,174,175,531,-1,531,532,174,-1,174,532,264,-1,174,264,158,-1,533,534,535,-1,535,534,536,-1,536,534,537,-1,537,534,538,-1,537,538,539,-1,539,538,540,-1,540,538,541,-1,540,541,177,-1,542,511,510,-1,512,543,513,-1,513,543,542,-1,513,542,514,-1,514,542,510,-1,544,545,546,-1,546,545,547,-1,547,508,546,-1,546,508,511,-1,546,511,548,-1,549,550,546,-1,546,550,551,-1,551,552,546,-1,546,552,553,-1,546,553,554,-1,554,555,546,-1,546,555,556,-1,546,556,544,-1,557,558,559,-1,559,558,560,-1,560,561,559,-1,559,561,562,-1,559,562,563,-1,563,564,559,-1,559,564,565,-1,559,565,549,-1,167,168,566,-1,566,168,169,-1,566,169,557,-1,531,175,567,-1,567,175,166,-1,567,166,167,-1,568,74,266,-1,569,570,571,-1,572,573,574,-1,575,576,577,-1,577,576,578,-1,577,578,579,-1,568,266,580,-1,580,266,267,-1,580,267,581,-1,267,268,581,-1,581,268,274,-1,581,274,582,-1,582,274,273,-1,582,273,583,-1,273,284,583,-1,583,284,283,-1,583,283,584,-1,177,541,178,-1,178,541,585,-1,178,585,179,-1,179,585,543,-1,179,543,180,-1,180,543,512,-1,180,512,181,-1,511,542,548,-1,548,542,543,-1,548,543,586,-1,586,543,585,-1,586,585,587,-1,587,585,541,-1,587,541,588,-1,588,541,538,-1,588,538,589,-1,589,538,534,-1,589,534,590,-1,590,534,533,-1,590,533,577,-1,577,533,591,-1,577,591,575,-1,283,282,584,-1,584,282,280,-1,584,280,592,-1,592,280,278,-1,592,278,593,-1,593,278,287,-1,593,287,567,-1,567,287,288,-1,567,288,291,-1,167,566,567,-1,567,566,594,-1,567,594,593,-1,593,594,595,-1,593,595,592,-1,592,595,596,-1,592,596,584,-1,584,596,597,-1,584,597,583,-1,583,597,598,-1,583,598,582,-1,582,598,599,-1,582,599,581,-1,581,599,569,-1,581,569,580,-1,580,569,571,-1,580,571,568,-1,557,559,566,-1,566,559,600,-1,566,600,594,-1,594,600,601,-1,594,601,595,-1,595,601,602,-1,595,602,596,-1,596,602,603,-1,596,603,597,-1,597,603,604,-1,597,604,598,-1,598,604,605,-1,598,605,599,-1,599,605,572,-1,599,572,569,-1,569,572,574,-1,569,574,570,-1,549,546,559,-1,559,546,548,-1,559,548,600,-1,600,548,586,-1,600,586,601,-1,601,586,587,-1,601,587,602,-1,602,587,588,-1,602,588,603,-1,603,588,589,-1,603,589,604,-1,604,589,590,-1,604,590,605,-1,605,590,577,-1,605,577,572,-1,572,577,579,-1,572,579,573,-1,531,567,532,-1,532,567,291,-1,532,291,264,-1,193,265,606,-1,193,606,206,-1,206,606,607,-1,206,607,198,-1,608,609,610,-1,611,612,613,-1,613,612,614,-1,613,614,615,-1,615,616,613,-1,613,616,617,-1,613,617,618,-1,618,617,196,-1,618,196,195,-1,619,620,609,-1,619,609,621,-1,621,609,622,-1,621,622,623,-1,620,624,609,-1,609,624,625,-1,609,625,626,-1,627,628,629,-1,629,628,626,-1,627,630,628,-1,628,630,631,-1,628,631,632,-1,632,631,611,-1,632,611,633,-1,633,611,613,-1,165,164,634,-1,634,164,635,-1,634,635,623,-1,623,635,636,-1,623,636,637,-1,637,638,623,-1,623,638,639,-1,623,639,621,-1,626,628,609,-1,609,628,640,-1,609,640,610,-1,608,610,641,-1,641,610,642,-1,641,642,643,-1,643,642,644,-1,643,644,645,-1,645,644,253,-1,645,253,255,-1,646,647,648,-1,248,245,649,-1,649,245,646,-1,649,646,650,-1,650,646,648,-1,651,652,653,-1,653,652,654,-1,653,654,655,-1,647,646,653,-1,653,646,656,-1,653,656,651,-1,656,657,651,-1,651,657,658,-1,651,658,659,-1,659,658,660,-1,659,660,661,-1,661,660,662,-1,662,660,663,-1,662,663,664,-1,664,663,665,-1,665,663,666,-1,665,666,667,-1,667,666,668,-1,667,668,669,-1,669,668,670,-1,669,670,671,-1,671,670,254,-1,671,254,253,-1,215,217,672,-1,672,217,516,-1,672,516,673,-1,673,516,515,-1,673,515,674,-1,674,515,528,-1,674,528,254,-1,254,528,256,-1,216,215,675,-1,216,675,454,-1,454,675,676,-1,454,676,453,-1,453,676,677,-1,453,677,452,-1,452,677,678,-1,452,678,451,-1,451,678,679,-1,451,679,450,-1,450,679,222,-1,450,222,220,-1,219,221,680,-1,219,680,484,-1,484,680,681,-1,484,681,483,-1,483,681,682,-1,483,682,482,-1,482,682,683,-1,482,683,481,-1,481,683,684,-1,481,684,480,-1,480,684,209,-1,480,209,210,-1,207,209,685,-1,685,209,686,-1,685,686,687,-1,687,686,688,-1,687,688,689,-1,689,688,690,-1,689,690,252,-1,252,690,251,-1,691,692,693,-1,692,214,489,-1,694,695,696,-1,695,694,697,-1,697,694,698,-1,697,698,699,-1,699,698,700,-1,699,700,701,-1,701,700,702,-1,701,702,703,-1,703,702,704,-1,704,702,705,-1,704,705,706,-1,706,705,707,-1,707,705,689,-1,707,689,252,-1,692,489,693,-1,693,489,488,-1,693,488,708,-1,708,488,487,-1,708,487,709,-1,709,487,486,-1,709,486,710,-1,710,486,485,-1,710,485,711,-1,691,694,712,-1,712,694,696,-1,712,696,258,-1,485,207,711,-1,711,207,685,-1,711,685,687,-1,691,693,694,-1,694,693,708,-1,694,708,698,-1,698,708,709,-1,698,709,700,-1,700,709,710,-1,700,710,702,-1,702,710,711,-1,702,711,705,-1,705,711,687,-1,705,687,689,-1,713,714,691,-1,258,257,712,-1,712,257,715,-1,712,715,691,-1,691,715,716,-1,691,716,713,-1,714,717,691,-1,691,717,718,-1,691,718,719,-1,720,576,530,-1,576,575,530,-1,530,575,591,-1,530,591,533,-1,533,535,530,-1,530,535,536,-1,530,536,537,-1,537,539,530,-1,530,539,540,-1,530,540,523,-1,523,540,177,-1,523,177,176,-1,213,214,529,-1,529,214,692,-1,529,692,530,-1,530,692,691,-1,530,691,720,-1,720,691,719,-1,0,74,568,-1,21,0,721,-1,721,0,568,-1,721,568,722,-1,722,568,571,-1,722,571,723,-1,723,571,570,-1,723,570,724,-1,724,570,574,-1,724,574,725,-1,725,574,573,-1,725,573,726,-1,726,573,579,-1,726,579,727,-1,727,579,578,-1,727,578,720,-1,720,578,576,-1,229,295,728,-1,229,728,243,-1,243,728,729,-1,243,729,237,-1,606,265,289,-1,647,653,730,-1,201,189,731,-1,732,733,244,-1,734,735,736,-1,736,735,737,-1,736,737,732,-1,732,737,738,-1,732,738,733,-1,739,740,741,-1,734,742,743,-1,743,742,739,-1,743,739,744,-1,744,739,741,-1,198,607,188,-1,188,607,745,-1,746,747,731,-1,747,748,731,-1,731,748,202,-1,731,202,201,-1,749,750,751,-1,750,752,751,-1,751,752,753,-1,751,753,754,-1,754,755,751,-1,751,755,756,-1,751,756,746,-1,757,758,759,-1,759,758,760,-1,759,760,749,-1,655,761,762,-1,762,761,763,-1,762,763,764,-1,764,765,762,-1,762,765,766,-1,762,766,759,-1,759,766,767,-1,759,767,757,-1,647,730,648,-1,768,649,730,-1,730,649,650,-1,730,650,648,-1,607,606,745,-1,745,606,289,-1,745,289,769,-1,769,289,290,-1,290,286,769,-1,769,286,285,-1,769,285,770,-1,770,285,277,-1,770,277,771,-1,277,279,771,-1,771,279,281,-1,771,281,772,-1,244,246,732,-1,732,246,247,-1,732,247,773,-1,773,247,250,-1,773,250,774,-1,774,250,249,-1,774,249,768,-1,768,249,248,-1,768,248,649,-1,281,272,772,-1,772,272,271,-1,772,271,775,-1,775,271,276,-1,775,276,776,-1,734,736,742,-1,742,736,732,-1,742,732,777,-1,777,732,773,-1,777,773,778,-1,778,773,774,-1,778,774,779,-1,779,774,768,-1,779,768,780,-1,780,768,730,-1,780,730,762,-1,762,730,653,-1,762,653,655,-1,270,781,269,-1,269,781,776,-1,269,776,275,-1,275,776,276,-1,746,731,751,-1,751,731,782,-1,751,782,783,-1,783,782,784,-1,783,784,785,-1,785,784,786,-1,785,786,787,-1,787,786,788,-1,787,788,789,-1,789,788,790,-1,789,790,791,-1,791,790,792,-1,791,792,793,-1,793,792,794,-1,793,794,795,-1,270,65,781,-1,781,65,796,-1,781,796,797,-1,797,794,781,-1,781,794,792,-1,781,792,776,-1,776,792,790,-1,776,790,775,-1,775,790,788,-1,775,788,772,-1,772,788,786,-1,772,786,771,-1,771,786,784,-1,771,784,770,-1,770,784,782,-1,770,782,769,-1,769,782,731,-1,769,731,745,-1,745,731,189,-1,745,189,188,-1,797,798,794,-1,794,798,799,-1,794,799,795,-1,795,799,800,-1,795,800,801,-1,749,751,759,-1,759,751,783,-1,759,783,762,-1,762,783,785,-1,762,785,780,-1,780,785,787,-1,780,787,779,-1,779,787,789,-1,779,789,778,-1,778,789,791,-1,778,791,777,-1,777,791,793,-1,777,793,742,-1,742,793,795,-1,742,795,739,-1,739,795,801,-1,739,801,740,-1,802,803,804,-1,803,222,679,-1,805,656,646,-1,656,805,657,-1,657,805,806,-1,657,806,658,-1,658,806,807,-1,658,807,660,-1,660,807,808,-1,660,808,663,-1,663,808,666,-1,666,808,809,-1,666,809,668,-1,668,809,670,-1,670,809,674,-1,670,674,254,-1,803,679,804,-1,804,679,678,-1,804,678,810,-1,810,678,677,-1,810,677,811,-1,811,677,676,-1,811,676,812,-1,812,676,675,-1,812,675,813,-1,802,805,814,-1,814,805,646,-1,814,646,245,-1,675,215,813,-1,813,215,672,-1,813,672,673,-1,802,804,805,-1,805,804,810,-1,805,810,806,-1,806,810,811,-1,806,811,807,-1,807,811,812,-1,807,812,808,-1,808,812,813,-1,808,813,809,-1,809,813,673,-1,809,673,674,-1,688,686,815,-1,686,209,684,-1,816,817,818,-1,817,816,819,-1,819,816,820,-1,819,820,821,-1,821,820,822,-1,821,822,823,-1,823,822,824,-1,823,824,825,-1,825,824,826,-1,826,824,827,-1,826,827,828,-1,828,827,829,-1,829,827,830,-1,829,830,182,-1,686,684,815,-1,815,684,683,-1,815,683,831,-1,831,683,682,-1,831,682,832,-1,832,682,681,-1,832,681,833,-1,833,681,680,-1,833,680,834,-1,688,816,690,-1,690,816,818,-1,690,818,251,-1,680,221,834,-1,834,221,835,-1,834,835,836,-1,688,815,816,-1,816,815,831,-1,816,831,820,-1,820,831,832,-1,820,832,822,-1,822,832,833,-1,822,833,824,-1,824,833,834,-1,824,834,827,-1,827,834,836,-1,827,836,830,-1,696,837,838,-1,261,258,839,-1,839,258,696,-1,839,696,840,-1,840,696,838,-1,841,842,843,-1,843,842,844,-1,837,696,842,-1,842,696,695,-1,842,695,844,-1,695,697,844,-1,844,697,699,-1,844,699,845,-1,845,699,701,-1,845,701,846,-1,846,701,847,-1,847,701,848,-1,848,701,703,-1,848,703,849,-1,849,703,704,-1,849,704,850,-1,850,704,706,-1,850,706,851,-1,851,706,707,-1,851,707,852,-1,852,707,252,-1,852,252,154,-1,728,295,294,-1,837,842,853,-1,238,234,854,-1,855,715,257,-1,717,714,856,-1,856,714,713,-1,856,713,855,-1,855,713,716,-1,855,716,715,-1,717,857,718,-1,718,857,858,-1,718,858,719,-1,719,858,727,-1,719,727,720,-1,237,729,233,-1,233,729,859,-1,860,861,854,-1,861,862,854,-1,854,862,239,-1,854,239,238,-1,863,864,865,-1,864,866,865,-1,865,866,867,-1,865,867,868,-1,868,869,865,-1,865,869,870,-1,865,870,860,-1,871,872,873,-1,873,872,874,-1,873,874,863,-1,841,875,876,-1,876,875,877,-1,876,877,878,-1,878,879,876,-1,876,879,880,-1,876,880,873,-1,873,880,881,-1,873,881,871,-1,837,853,838,-1,882,839,853,-1,853,839,840,-1,853,840,838,-1,729,728,859,-1,859,728,294,-1,859,294,883,-1,883,294,293,-1,293,298,883,-1,883,298,300,-1,883,300,884,-1,884,300,301,-1,884,301,885,-1,301,303,885,-1,885,303,305,-1,885,305,886,-1,257,259,855,-1,855,259,260,-1,855,260,887,-1,887,260,263,-1,887,263,888,-1,888,263,262,-1,888,262,882,-1,882,262,261,-1,882,261,839,-1,305,306,886,-1,886,306,308,-1,886,308,889,-1,889,308,309,-1,889,309,890,-1,717,856,857,-1,857,856,855,-1,857,855,891,-1,891,855,887,-1,891,887,892,-1,892,887,888,-1,892,888,893,-1,893,888,882,-1,893,882,894,-1,894,882,853,-1,894,853,876,-1,876,853,842,-1,876,842,841,-1,316,895,315,-1,315,895,890,-1,315,890,313,-1,313,890,309,-1,860,854,865,-1,865,854,896,-1,865,896,897,-1,897,896,898,-1,897,898,899,-1,899,898,900,-1,899,900,901,-1,901,900,902,-1,901,902,903,-1,903,902,904,-1,903,904,905,-1,905,904,906,-1,905,906,907,-1,907,906,908,-1,907,908,909,-1,316,21,895,-1,895,21,721,-1,895,721,722,-1,722,908,895,-1,895,908,906,-1,895,906,890,-1,890,906,904,-1,890,904,889,-1,889,904,902,-1,889,902,886,-1,886,902,900,-1,886,900,885,-1,885,900,898,-1,885,898,884,-1,884,898,896,-1,884,896,883,-1,883,896,854,-1,883,854,859,-1,859,854,234,-1,859,234,233,-1,722,723,908,-1,908,723,724,-1,908,724,909,-1,909,724,725,-1,909,725,726,-1,863,865,873,-1,873,865,897,-1,873,897,876,-1,876,897,899,-1,876,899,894,-1,894,899,901,-1,894,901,893,-1,893,901,903,-1,893,903,892,-1,892,903,905,-1,892,905,891,-1,891,905,907,-1,891,907,857,-1,857,907,909,-1,857,909,858,-1,858,909,726,-1,858,726,727,-1,65,63,796,-1,796,63,797,-1,910,741,911,-1,911,741,740,-1,911,740,912,-1,912,740,801,-1,912,801,913,-1,913,801,800,-1,913,800,914,-1,914,800,799,-1,914,799,915,-1,915,799,798,-1,915,798,916,-1,916,798,797,-1,916,797,917,-1,917,797,63,-1,917,63,61,-1,737,735,802,-1,245,244,814,-1,814,244,733,-1,814,733,802,-1,802,733,738,-1,802,738,737,-1,735,734,802,-1,802,734,743,-1,802,743,744,-1,741,910,836,-1,910,918,836,-1,836,918,919,-1,836,919,920,-1,920,921,836,-1,836,921,922,-1,836,922,923,-1,923,924,836,-1,836,924,925,-1,836,925,830,-1,830,925,183,-1,830,183,182,-1,221,222,835,-1,835,222,803,-1,835,803,836,-1,836,803,802,-1,836,802,741,-1,741,802,744,-1,155,251,926,-1,926,251,818,-1,926,818,927,-1,927,818,817,-1,927,817,928,-1,928,817,819,-1,928,819,929,-1,929,819,821,-1,929,821,930,-1,930,821,823,-1,930,823,931,-1,931,823,932,-1,932,823,933,-1,933,823,825,-1,933,825,934,-1,829,935,828,-1,828,935,936,-1,828,936,826,-1,825,826,934,-1,934,826,936,-1,934,936,937,-1,937,936,938,-1,182,187,829,-1,829,187,939,-1,939,940,829,-1,829,940,941,-1,829,941,935,-1,920,942,921,-1,921,942,922,-1,922,942,923,-1,923,942,943,-1,923,943,924,-1,924,943,925,-1,925,943,944,-1,925,944,183,-1,945,936,935,-1,939,946,940,-1,940,946,945,-1,940,945,941,-1,941,945,935,-1,947,948,949,-1,949,948,950,-1,950,938,949,-1,949,938,936,-1,949,936,951,-1,952,953,949,-1,949,953,954,-1,954,955,949,-1,949,955,956,-1,949,956,957,-1,957,958,949,-1,949,958,959,-1,949,959,947,-1,960,961,962,-1,962,961,963,-1,963,964,962,-1,962,964,965,-1,962,965,966,-1,966,967,962,-1,962,967,968,-1,962,968,952,-1,106,107,969,-1,969,107,108,-1,969,108,960,-1,970,114,971,-1,971,114,105,-1,971,105,106,-1,917,61,319,-1,972,915,916,-1,973,913,914,-1,918,910,974,-1,974,910,911,-1,974,911,912,-1,917,319,975,-1,975,319,318,-1,975,318,976,-1,318,317,976,-1,976,317,314,-1,976,314,977,-1,977,314,307,-1,977,307,978,-1,307,312,978,-1,978,312,311,-1,978,311,979,-1,183,944,184,-1,184,944,980,-1,184,980,185,-1,185,980,946,-1,185,946,186,-1,186,946,939,-1,186,939,187,-1,936,945,951,-1,951,945,946,-1,951,946,981,-1,981,946,980,-1,981,980,982,-1,982,980,944,-1,982,944,983,-1,983,944,943,-1,983,943,984,-1,984,943,942,-1,984,942,985,-1,985,942,920,-1,985,920,974,-1,974,920,919,-1,974,919,918,-1,311,310,979,-1,979,310,304,-1,979,304,986,-1,986,304,299,-1,986,299,987,-1,987,299,302,-1,987,302,971,-1,971,302,292,-1,971,292,297,-1,106,969,971,-1,971,969,988,-1,971,988,987,-1,987,988,989,-1,987,989,986,-1,986,989,990,-1,986,990,979,-1,979,990,991,-1,979,991,978,-1,978,991,992,-1,978,992,977,-1,977,992,993,-1,977,993,976,-1,976,993,972,-1,976,972,975,-1,975,972,916,-1,975,916,917,-1,960,962,969,-1,969,962,994,-1,969,994,988,-1,988,994,995,-1,988,995,989,-1,989,995,996,-1,989,996,990,-1,990,996,997,-1,990,997,991,-1,991,997,998,-1,991,998,992,-1,992,998,999,-1,992,999,993,-1,993,999,973,-1,993,973,972,-1,972,973,914,-1,972,914,915,-1,952,949,962,-1,962,949,951,-1,962,951,994,-1,994,951,981,-1,994,981,995,-1,995,981,982,-1,995,982,996,-1,996,982,983,-1,996,983,997,-1,997,983,984,-1,997,984,998,-1,998,984,985,-1,998,985,999,-1,999,985,974,-1,999,974,973,-1,973,974,912,-1,973,912,913,-1,970,971,1000,-1,1000,971,297,-1,1000,297,296,-1,113,114,970,-1,970,1000,113,-1,113,1000,296,-1,113,296,97,-1,
        ]
    }
}
Shape{
    appearance Appearance {
        material  Material 	{
            diffuseColor 0.6666666666666666 0.6666666666666666 0.6666666666666666
            specularColor 0.4666666666666667 0.4666666666666667 0.4666666666666667
            ambientIntensity 0.2
            transparency 0
            shininess 0.5
        }
    }
    geometry IndexedFaceSet {
        ccw TRUE
        solid FALSE
        coord DEF co Coordinate {
            point [
                -1.0259 -0.0966 -1.9685, -1.0 -0.1 -1.9685, -1.0 -0.1 0.0, -0.9741 -0.0966 -1.9685, -0.9741 -0.0966 0.0, -0.95 -0.0866 -1.9685, -0.95 -0.0866 0.0, -0.9293 -0.0707 -1.9685, -0.9293 -0.0707 0.0, -0.9134 -0.05 -1.9685, -0.9134 -0.05 0.0, -0.9034 -0.0259 -1.9685, -0.9034 -0.0259 0.0, -0.9 0.0 -1.9685, -0.9 -0.0 0.0, -0.9034 0.0259 -1.9685, -0.9034 0.0259 0.0, -0.9134 0.05 -1.9685, -0.9134 0.05 0.0, -0.9293 0.0707 -1.9685, -0.9293 0.0707 0.0, -0.95 0.0866 -1.9685, -0.95 0.0866 0.0, -0.9741 0.0966 -1.9685, -0.9741 0.0966 0.0, -1.0 0.1 -1.9685, -1.0 0.1 0.0, -1.0227 0.0974 0.0, -1.0258 0.0964 0.0001, -1.0259 0.0966 -1.9685, -1.0383 0.0924 0.0005, -1.05 0.0866 -1.9685, -1.05 0.0866 0.0016, -1.0609 0.0793 0.0031, -1.0707 0.0707 -1.9685, -1.0707 0.0707 0.0049, -1.0838 0.0546 0.008, -1.0866 0.05 -1.9685, -1.0863 0.0498 0.0088, -1.0924 0.0383 0.0105, -1.0966 0.0259 -1.9685, -1.0966 0.0259 0.0119, -1.0991 0.0131 0.0127, -1.1 -0.0 -1.9685, -1.1 -0.0 0.013, -1.0991 -0.0131 0.0127, -1.0966 -0.0259 -1.9685, -1.0966 -0.0259 0.0119, -1.0924 -0.0383 0.0105, -1.0866 -0.05 -1.9685, -1.0866 -0.05 0.0088, -1.0838 -0.0537 0.0081, -1.0707 -0.0707 -1.9685, -1.0707 -0.0707 0.0049, -1.05 -0.0866 -1.9685, -1.05 -0.0866 0.0016, -1.0609 -0.0793 0.0031, -1.0227 -0.0974 0.0, -1.0259 -0.0966 0.0, -1.0383 -0.0924 0.0005, -1.0 -0.0 -1.9685, 1.0227 -0.0974 0.0, 1.0 -0.1 -1.9685, 1.0259 -0.0966 0.0, 1.0259 -0.0966 -1.9685, 1.0383 -0.0924 0.0005, 1.05 -0.0866 -1.9685, 1.0838 -0.0537 0.0081, 1.0707 -0.0707 0.0049, 1.0707 -0.0707 -1.9685, 1.0609 -0.0793 0.0031, 1.05 -0.0866 0.0016, 1.0866 -0.05 0.0088, 1.0866 -0.05 -1.9685, 1.0924 -0.0383 0.0105, 1.0966 -0.0259 -1.9685, 1.0966 -0.0259 0.0119, 1.0991 -0.0131 0.0127, 1.1 0.0 -1.9685, 1.1 -0.0 0.013, 1.0991 0.0131 0.0127, 1.0966 0.0259 -1.9685, 1.0966 0.0259 0.0119, 1.0924 0.0383 0.0105, 1.0866 0.05 -1.9685, 1.0863 0.0498 0.0088, 1.0838 0.0546 0.008, 1.0707 0.0707 -1.9685, 1.0707 0.0707 0.0049, 1.05 0.0866 -1.9685, 1.05 0.0866 0.0016, 1.0609 0.0793 0.0031, 1.0 0.1 0.0, 1.0227 0.0974 0.0, 1.0259 0.0966 -1.9685, 1.0258 0.0964 0.0001, 1.0383 0.0924 0.0005, 1.0 -0.1 0.0, 0.9741 -0.0966 0.0, 0.9741 -0.0966 -1.9685, 0.95 -0.0866 0.0, 0.95 -0.0866 -1.9685, 0.9293 -0.0707 0.0, 0.9293 -0.0707 -1.9685, 0.9134 -0.05 0.0, 0.9134 -0.05 -1.9685, 0.9034 -0.0259 0.0, 0.9034 -0.0259 -1.9685, 0.9 -0.0 0.0, 0.9 -0.0 -1.9685, 0.9034 0.0259 0.0, 0.9034 0.0259 -1.9685, 0.9134 0.05 0.0, 0.9134 0.05 -1.9685, 0.9293 0.0707 0.0, 0.9293 0.0707 -1.9685, 0.95 0.0866 0.0, 0.95 0.0866 -1.9685, 0.9741 0.0966 0.0, 0.9741 0.0966 -1.9685, 1.0 0.1 -1.9685, 1.0 -0.0 -1.9685, 1.0 -0.0 -1.9685
            ]
        }
        coordIndex [
            0,1,2,-1,2,1,3,-1,2,3,4,-1,4,3,5,-1,4,5,6,-1,6,5,7,-1,6,7,8,-1,8,7,9,-1,8,9,10,-1,10,9,11,-1,10,11,12,-1,12,11,13,-1,12,13,14,-1,14,13,15,-1,14,15,16,-1,16,15,17,-1,16,17,18,-1,18,17,19,-1,18,19,20,-1,20,19,21,-1,20,21,22,-1,22,21,23,-1,22,23,24,-1,24,23,25,-1,24,25,26,-1,26,25,27,-1,27,25,28,-1,28,25,29,-1,28,29,30,-1,30,29,31,-1,30,31,32,-1,32,31,33,-1,33,31,34,-1,33,34,35,-1,35,34,36,-1,36,34,37,-1,36,37,38,-1,38,37,39,-1,39,37,40,-1,39,40,41,-1,41,40,42,-1,42,40,43,-1,42,43,44,-1,44,43,45,-1,45,43,46,-1,45,46,47,-1,47,46,48,-1,48,46,49,-1,48,49,50,-1,50,49,51,-1,51,49,52,-1,51,52,53,-1,54,55,52,-1,52,55,56,-1,52,56,53,-1,2,57,0,-1,0,57,58,-1,0,58,54,-1,54,58,59,-1,54,59,55,-1,49,46,60,-1,60,46,43,-1,60,43,40,-1,0,54,60,-1,60,54,52,-1,60,52,49,-1,5,3,60,-1,60,3,1,-1,60,1,0,-1,11,9,60,-1,60,9,7,-1,60,7,5,-1,17,15,60,-1,60,15,13,-1,60,13,11,-1,23,21,60,-1,60,21,19,-1,60,19,17,-1,31,29,60,-1,60,29,25,-1,60,25,23,-1,40,37,60,-1,60,37,34,-1,60,34,31,-1,61,62,63,-1,63,62,64,-1,63,64,65,-1,65,64,66,-1,67,68,69,-1,69,68,70,-1,69,70,66,-1,66,70,71,-1,66,71,65,-1,67,69,72,-1,72,69,73,-1,72,73,74,-1,74,73,75,-1,74,75,76,-1,76,75,77,-1,77,75,78,-1,77,78,79,-1,79,78,80,-1,80,78,81,-1,80,81,82,-1,82,81,83,-1,83,81,84,-1,83,84,85,-1,85,84,86,-1,86,84,87,-1,86,87,88,-1,89,90,87,-1,87,90,91,-1,87,91,88,-1,92,93,94,-1,94,93,95,-1,94,95,89,-1,89,95,96,-1,89,96,90,-1,61,97,62,-1,62,97,98,-1,62,98,99,-1,99,98,100,-1,99,100,101,-1,101,100,102,-1,101,102,103,-1,103,102,104,-1,103,104,105,-1,105,104,106,-1,105,106,107,-1,107,106,108,-1,107,108,109,-1,109,108,110,-1,109,110,111,-1,111,110,112,-1,111,112,113,-1,113,112,114,-1,113,114,115,-1,115,114,116,-1,115,116,117,-1,117,116,118,-1,117,118,119,-1,119,118,92,-1,119,92,120,-1,120,92,94,-1,84,81,121,-1,121,81,78,-1,121,78,75,-1,94,89,121,-1,121,89,87,-1,121,87,84,-1,117,119,121,-1,121,119,120,-1,121,120,94,-1,111,113,121,-1,121,113,115,-1,121,115,117,-1,105,107,121,-1,121,107,109,-1,121,109,111,-1,99,101,121,-1,121,101,103,-1,121,103,105,-1,66,64,121,-1,121,64,62,-1,121,62,99,-1,75,73,121,-1,121,73,69,-1,121,69,66,-1,
        ]
    }
}
Shape{
    appearance Appearance {
        material  Material 	{
            diffuseColor 1.0 1.0 1.0
            specularColor 0.8784313725490196 0.8784313725490196 0.8784313725490196
            ambientIntensity 0.2
            transparency 0
            shininess 0.5
        }
    }
    geometry IndexedFaceSet {
        ccw TRUE
        solid FALSE
        coord DEF co Coordinate {
            point [
                -0.1335 0.0301 0.5197, -0.1642 -0.0487 0.5197, -0.1335 0.0301 0.5118, -0.1642 -0.0487 0.5118, -0.1527 -0.0487 0.5197, -0.1527 -0.0487 0.5118, -0.1447 -0.0266 0.5197, -0.1447 -0.0266 0.5118, -0.1122 -0.0266 0.5197, -0.1122 -0.0266 0.5118, -0.1047 -0.0487 0.5197, -0.1047 -0.0487 0.5118, -0.0931 -0.0487 0.5197, -0.0931 -0.0487 0.5118, -0.1229 0.0301 0.5197, -0.1229 0.0301 0.5118, -0.1148 -0.0179 0.5197, -0.1412 -0.0179 0.5197, -0.1266 0.015 0.5197, -0.1273 0.0177 0.5197, -0.1278 0.0205 0.5197, -0.1281 0.0205 0.5197, -0.1286 0.0177 0.5197, -0.1293 0.015 0.5197, -0.1148 -0.0179 0.5118, -0.1412 -0.0179 0.5118, -0.1266 0.015 0.5118, -0.1273 0.0177 0.5118, -0.1278 0.0205 0.5118, -0.1281 0.0205 0.5118, -0.1286 0.0177 0.5118, -0.1293 0.015 0.5118, -0.0454 -0.0487 0.5197, -0.024 -0.0487 0.5197, -0.0454 -0.0487 0.5118, -0.024 -0.0487 0.5118, -0.024 0.0301 0.5197, -0.024 0.0301 0.5118, -0.0462 0.0301 0.5197, -0.0462 0.0301 0.5118, -0.0874 -0.0083 0.5197, -0.0874 -0.0083 0.5118, -0.0868 -0.0009 0.5118, -0.0868 -0.0009 0.5197, -0.0847 0.0069 0.5118, -0.0847 0.0069 0.5197, -0.081 0.0136 0.5118, -0.081 0.0136 0.5197, -0.0755 0.0198 0.5118, -0.0755 0.0198 0.5197, -0.0754 0.0199 0.5118, -0.0754 0.0199 0.5197, -0.0668 0.0256 0.5118, -0.0668 0.0256 0.5197, -0.0576 0.0289 0.5118, -0.0576 0.0289 0.5197, -0.0552 -0.0478 0.5118, -0.0552 -0.0478 0.5197, -0.0642 -0.0451 0.5118, -0.0642 -0.0451 0.5197, -0.0725 -0.0403 0.5118, -0.0725 -0.0403 0.5197, -0.0789 -0.0341 0.5118, -0.0789 -0.0341 0.5197, -0.0835 -0.0271 0.5118, -0.0835 -0.0271 0.5197, -0.0863 -0.0188 0.5118, -0.0863 -0.0188 0.5197, -0.0716 0.0104 0.5197, -0.0678 0.0145 0.5197, -0.062 0.0182 0.5197, -0.0555 0.0205 0.5197, -0.0462 0.0214 0.5197, -0.0346 0.0214 0.5197, -0.0346 -0.04 0.5197, -0.0457 -0.04 0.5197, -0.0541 -0.0392 0.5197, -0.0607 -0.0372 0.5197, -0.066 -0.034 0.5197, -0.0705 -0.0296 0.5197, -0.0738 -0.0242 0.5197, -0.0761 -0.0168 0.5197, -0.0768 -0.0085 0.5197, -0.0762 -0.0007 0.5197, -0.0743 0.0055 0.5197, -0.0462 0.0214 0.5118, -0.0346 0.0214 0.5118, -0.0555 0.0205 0.5118, -0.062 0.0182 0.5118, -0.0678 0.0145 0.5118, -0.0716 0.0104 0.5118, -0.0743 0.0055 0.5118, -0.0762 -0.0007 0.5118, -0.0768 -0.0085 0.5118, -0.0761 -0.0168 0.5118, -0.0738 -0.0242 0.5118, -0.0705 -0.0296 0.5118, -0.066 -0.034 0.5118, -0.0607 -0.0372 0.5118, -0.0541 -0.0392 0.5118, -0.0457 -0.04 0.5118, -0.0346 -0.04 0.5118, -0.0086 -0.04 0.5197, -0.0086 -0.0487 0.5197, -0.0086 -0.04 0.5118, -0.0086 -0.0487 0.5118, 0.0336 -0.0487 0.5197, 0.0336 -0.0487 0.5118, 0.0336 0.0301 0.5197, 0.0336 0.0301 0.5118, -0.0067 0.0301 0.5197, -0.0067 0.0301 0.5118, -0.0067 0.0214 0.5197, -0.0067 0.0214 0.5118, 0.023 0.0214 0.5197, 0.023 0.0214 0.5118, 0.023 -0.0045 0.5197, 0.023 -0.0045 0.5118, -0.0048 -0.0045 0.5197, -0.0048 -0.0045 0.5118, -0.0048 -0.0131 0.5197, -0.0048 -0.0131 0.5118, 0.023 -0.0131 0.5197, 0.023 -0.0131 0.5118, 0.023 -0.04 0.5197, 0.023 -0.04 0.5118, 0.049 -0.0359 0.5197, 0.049 -0.0446 0.5197, 0.049 -0.0359 0.5118, 0.049 -0.0446 0.5118, 0.0574 -0.048 0.5197, 0.0706 -0.0496 0.5197, 0.0706 -0.0496 0.5118, 0.0685 -0.0496 0.5118, 0.0685 -0.0496 0.5197, 0.0653 -0.0491 0.5118, 0.0574 -0.048 0.5118, 0.1075 -0.0108 0.5197, 0.1075 -0.0108 0.5118, 0.1068 -0.0199 0.5118, 0.1068 -0.0199 0.5197, 0.1044 -0.0282 0.5118, 0.1044 -0.0282 0.5197, 0.1002 -0.0357 0.5118, 0.1002 -0.0357 0.5197, 0.0943 -0.0419 0.5118, 0.0943 -0.0419 0.5197, 0.088 -0.046 0.5118, 0.088 -0.046 0.5197, 0.0803 -0.0486 0.5118, 0.0803 -0.0486 0.5197, 0.0753 -0.0491 0.5118, 0.0675 0.031 0.5197, 0.0675 0.031 0.5118, 0.0754 0.0304 0.5118, 0.0754 0.0304 0.5197, 0.0842 0.0279 0.5118, 0.0842 0.0279 0.5197, 0.0917 0.0235 0.5118, 0.0917 0.0235 0.5197, 0.0988 0.0167 0.5118, 0.0988 0.0167 0.5197, 0.1034 0.0093 0.5118, 0.1034 0.0093 0.5197, 0.1064 0.0004 0.5118, 0.1064 0.0004 0.5197, 0.049 0.0279 0.5197, 0.049 0.0279 0.5118, 0.0581 0.0304 0.5118, 0.0581 0.0304 0.5197, 0.049 0.0174 0.5197, 0.049 0.0174 0.5118, 0.0674 0.0224 0.5197, 0.0674 0.0224 0.5118, 0.0578 0.0212 0.5118, 0.0578 0.0212 0.5197, 0.097 -0.0101 0.5197, 0.097 -0.0101 0.5118, 0.0966 -0.004 0.5118, 0.0966 -0.004 0.5197, 0.0945 0.0044 0.5118, 0.0945 0.0044 0.5197, 0.0913 0.0105 0.5118, 0.0913 0.0105 0.5197, 0.0865 0.0158 0.5118, 0.0865 0.0158 0.5197, 0.0811 0.0194 0.5118, 0.0811 0.0194 0.5197, 0.0752 0.0215 0.5118, 0.0752 0.0215 0.5197, 0.0692 -0.041 0.5197, 0.0692 -0.041 0.5118, 0.0765 -0.0401 0.5118, 0.0765 -0.0401 0.5197, 0.0823 -0.038 0.5118, 0.0823 -0.038 0.5197, 0.0871 -0.0348 0.5118, 0.0871 -0.0348 0.5197, 0.0908 -0.0309 0.5118, 0.0908 -0.0309 0.5197, 0.094 -0.0254 0.5118, 0.094 -0.0254 0.5197, 0.0962 -0.0186 0.5118, 0.0962 -0.0186 0.5197, 0.0504 -0.0367 0.5118, 0.0504 -0.0367 0.5197, 0.0587 -0.0398 0.5118, 0.0587 -0.0398 0.5197, 0.1143 -0.04 0.5197, 0.1143 -0.0487 0.5197, 0.1143 -0.04 0.5118, 0.1143 -0.0487 0.5118, 0.1546 -0.0487 0.5197, 0.1546 -0.0487 0.5118, 0.1546 0.0301 0.5197, 0.1546 0.0301 0.5118, 0.144 0.0301 0.5197, 0.144 0.0301 0.5118, 0.144 -0.04 0.5197, 0.144 -0.04 0.5118, 0.144 -0.04 0.5118
            ]
        }
        coordIndex [
            0,1,2,-1,2,1,3,-1,1,4,3,-1,3,4,5,-1,4,6,5,-1,5,6,7,-1,6,8,7,-1,7,8,9,-1,8,10,9,-1,9,10,11,-1,10,12,11,-1,11,12,13,-1,12,14,13,-1,13,14,15,-1,14,0,15,-1,15,0,2,-1,16,8,17,-1,17,8,6,-1,18,14,16,-1,16,14,12,-1,16,12,8,-1,8,12,10,-1,18,19,14,-1,14,19,20,-1,14,20,0,-1,0,20,21,-1,0,21,22,-1,22,23,0,-1,0,23,17,-1,0,17,1,-1,1,17,6,-1,1,6,4,-1,16,17,24,-1,24,17,25,-1,18,16,26,-1,26,16,24,-1,18,26,27,-1,18,27,19,-1,19,27,28,-1,19,28,20,-1,21,20,29,-1,29,20,28,-1,21,29,30,-1,21,30,22,-1,22,30,31,-1,22,31,23,-1,17,23,25,-1,25,23,31,-1,32,33,34,-1,34,33,35,-1,33,36,35,-1,35,36,37,-1,36,38,37,-1,37,38,39,-1,40,41,42,-1,40,42,43,-1,43,42,44,-1,43,44,45,-1,45,44,46,-1,45,46,47,-1,47,46,48,-1,47,48,49,-1,49,48,50,-1,49,50,51,-1,51,50,52,-1,51,52,53,-1,53,52,54,-1,53,54,55,-1,55,54,39,-1,55,39,38,-1,32,34,56,-1,32,56,57,-1,57,56,58,-1,57,58,59,-1,59,58,60,-1,59,60,61,-1,61,60,62,-1,61,62,63,-1,63,62,64,-1,63,64,65,-1,65,64,66,-1,65,66,67,-1,67,66,41,-1,67,41,40,-1,45,47,68,-1,68,47,49,-1,68,49,69,-1,69,49,51,-1,69,51,70,-1,70,51,53,-1,70,53,71,-1,71,53,55,-1,71,55,72,-1,72,55,38,-1,72,38,73,-1,73,38,36,-1,73,36,74,-1,74,36,33,-1,74,33,75,-1,75,33,32,-1,75,32,76,-1,76,32,57,-1,76,57,77,-1,77,57,59,-1,77,59,78,-1,78,59,61,-1,78,61,79,-1,79,61,63,-1,79,63,80,-1,80,63,65,-1,80,65,81,-1,81,65,67,-1,81,67,82,-1,82,67,40,-1,82,40,83,-1,83,40,43,-1,83,43,84,-1,84,43,45,-1,84,45,68,-1,72,73,85,-1,85,73,86,-1,72,85,87,-1,72,87,71,-1,71,87,88,-1,71,88,70,-1,70,88,89,-1,70,89,69,-1,69,89,90,-1,69,90,68,-1,68,90,91,-1,68,91,84,-1,84,91,92,-1,84,92,83,-1,83,92,93,-1,83,93,82,-1,82,93,94,-1,82,94,81,-1,81,94,95,-1,81,95,80,-1,80,95,96,-1,80,96,79,-1,79,96,97,-1,79,97,78,-1,78,97,98,-1,78,98,77,-1,77,98,99,-1,77,99,76,-1,76,99,100,-1,76,100,75,-1,74,75,101,-1,101,75,100,-1,73,74,86,-1,86,74,101,-1,102,103,104,-1,104,103,105,-1,103,106,105,-1,105,106,107,-1,106,108,107,-1,107,108,109,-1,108,110,109,-1,109,110,111,-1,110,112,111,-1,111,112,113,-1,112,114,113,-1,113,114,115,-1,114,116,115,-1,115,116,117,-1,116,118,117,-1,117,118,119,-1,118,120,119,-1,119,120,121,-1,120,122,121,-1,121,122,123,-1,122,124,123,-1,123,124,125,-1,124,102,125,-1,125,102,104,-1,106,103,102,-1,102,124,106,-1,106,124,122,-1,106,122,108,-1,112,110,114,-1,114,110,108,-1,114,108,116,-1,116,108,122,-1,116,122,118,-1,118,122,120,-1,126,127,128,-1,128,127,129,-1,129,127,130,-1,131,132,133,-1,131,133,134,-1,134,133,135,-1,134,135,130,-1,130,135,136,-1,130,136,129,-1,137,138,139,-1,137,139,140,-1,140,139,141,-1,140,141,142,-1,142,141,143,-1,142,143,144,-1,144,143,145,-1,144,145,146,-1,146,145,147,-1,146,147,148,-1,148,147,149,-1,148,149,150,-1,150,149,131,-1,131,149,151,-1,131,151,132,-1,152,153,154,-1,152,154,155,-1,155,154,156,-1,155,156,157,-1,157,156,158,-1,157,158,159,-1,159,158,160,-1,159,160,161,-1,161,160,162,-1,161,162,163,-1,163,162,164,-1,163,164,165,-1,165,164,138,-1,165,138,137,-1,166,167,168,-1,166,168,169,-1,169,168,153,-1,169,153,152,-1,166,170,167,-1,167,170,171,-1,172,173,174,-1,172,174,175,-1,175,174,171,-1,175,171,170,-1,176,177,178,-1,176,178,179,-1,179,178,180,-1,179,180,181,-1,181,180,182,-1,181,182,183,-1,183,182,184,-1,183,184,185,-1,185,184,186,-1,185,186,187,-1,187,186,188,-1,187,188,189,-1,189,188,173,-1,189,173,172,-1,190,191,192,-1,190,192,193,-1,193,192,194,-1,193,194,195,-1,195,194,196,-1,195,196,197,-1,197,196,198,-1,197,198,199,-1,199,198,200,-1,199,200,201,-1,201,200,202,-1,201,202,203,-1,203,202,177,-1,203,177,176,-1,126,128,204,-1,126,204,205,-1,205,204,206,-1,205,206,207,-1,207,206,191,-1,207,191,190,-1,193,131,190,-1,190,131,134,-1,190,134,207,-1,207,134,130,-1,207,130,205,-1,205,130,127,-1,205,127,126,-1,170,166,175,-1,175,166,169,-1,175,169,172,-1,172,169,152,-1,172,152,189,-1,189,152,155,-1,189,155,187,-1,187,155,157,-1,187,157,185,-1,185,157,159,-1,185,159,183,-1,183,159,161,-1,183,161,181,-1,181,161,163,-1,181,163,179,-1,179,163,165,-1,179,165,176,-1,176,165,137,-1,176,137,203,-1,203,137,140,-1,203,140,201,-1,201,140,142,-1,201,142,199,-1,199,142,144,-1,199,144,197,-1,197,144,146,-1,197,146,195,-1,195,146,148,-1,195,148,193,-1,193,148,150,-1,193,150,131,-1,208,209,210,-1,210,209,211,-1,209,212,211,-1,211,212,213,-1,212,214,213,-1,213,214,215,-1,214,216,215,-1,215,216,217,-1,216,218,217,-1,217,218,219,-1,218,208,219,-1,219,208,210,-1,216,214,218,-1,218,214,212,-1,218,212,208,-1,208,212,209,-1,
        ]
    }
}
Shape{
    appearance Appearance {
        material  Material 	{
            diffuseColor 0.7019607843137254 0.7019607843137254 0.35294117647058826
            specularColor 0.050980392156862744 0.050980392156862744 0.023529411764705882
            ambientIntensity 0.2
            transparency 0
            shininess 0.5
        }
    }
    geometry IndexedFaceSet {
        ccw TRUE
        solid FALSE
        coord DEF co Coordinate {
            point [
                -0.1148 -0.0179 0.5118, -0.1412 -0.0179 0.5118, -0.1266 0.015 0.5118, -0.1293 0.015 0.5118, -0.1273 0.0177 0.5118, -0.1286 0.0177 0.5118, -0.1278 0.0205 0.5118, -0.1281 0.0205 0.5118, -0.0346 0.0214 0.5118, -0.0346 -0.04 0.5118, -0.0462 0.0214 0.5118, -0.0457 -0.04 0.5118, -0.0541 -0.0392 0.5118, -0.0768 -0.0085 0.5118, -0.0762 -0.0007 0.5118, -0.0743 0.0055 0.5118, -0.0555 0.0205 0.5118, -0.0607 -0.0372 0.5118, -0.066 -0.034 0.5118, -0.0705 -0.0296 0.5118, -0.0738 -0.0242 0.5118, -0.0761 -0.0168 0.5118, -0.0716 0.0104 0.5118, -0.0678 0.0145 0.5118, -0.062 0.0182 0.5118, -1.0592 -0.6873 0.0655, -1.0604 -0.6868 0.0653, -1.0537 -0.6749 0.0492, -1.0556 -0.6715 0.0464, -1.0257 -0.6422 0.0197, -1.0273 -0.6438 0.0208, -1.0438 -0.6333 0.0173, -1.0337 -0.6504 0.0254, -1.0501 -0.6535 0.0303, -1.0398 -0.6574 0.0318, -1.0528 -0.6625 0.0383, -1.0496 -0.6688 0.0423, -1.0524 -0.6728 0.0469, -1.019 -0.6354 0.0165, -1.016 -0.6187 0.0087, -1.0175 -0.634 0.0158, -1.0043 -0.6207 0.0095, -1.0005 -0.6169 0.0077, -1.0129 -0.5935 0.0022, -0.9832 -0.5983 0.0033, -0.9832 -0.596 0.0027, -0.981 -0.5959 0.0028, -0.975 -0.5647 0.0, -0.9714 -0.5836 0.0018, -0.9873 -0.5672 0.0, -0.9809 -0.5958 0.0027, -0.9488 -0.5537 0.0, -0.9537 -0.5611 0.0001, -0.9619 -0.5601 0.0, -0.9595 -0.5684 0.0006, -0.9712 -0.5833 0.0018, -1.03 -0.5884 0.002, -1.0227 -0.5648 0.0, -1.0098 -0.5675 0.0, -1.0335 -0.5999 0.0049, -1.0371 -0.6114 0.0078, -1.0242 -0.6406 0.0189, -1.2272 -0.5227 0.1181, -1.2069 -0.5301 0.0884, -1.2089 -0.5354 0.091, -1.2106 -0.5408 0.0938, -1.2122 -0.5461 0.0968, -1.1893 -0.5352 0.0695, -1.1828 -0.5372 0.0625, -1.1871 -0.5478 0.0672, -1.2056 -0.5638 0.0932, -1.2135 -0.5515 0.0998, -1.176 -0.6032 0.0745, -1.1957 -0.5791 0.085, -1.1936 -0.5688 0.0784, -1.1405 -0.5469 0.0321, -1.1272 -0.5497 0.0244, -1.136 -0.5704 0.0307, -1.1385 -0.6385 0.0641, -1.1514 -0.6279 0.0663, -1.1482 -0.6099 0.0518, -1.0835 -0.5569 0.0095, -1.0378 -0.5632 0.0005, -1.049 -0.5966 0.0052, -1.0951 -0.6674 0.0628, -1.1266 -0.6482 0.0622, -1.1227 -0.6275 0.0437, -1.074 -0.6804 0.0632, -1.0675 -0.6568 0.0374, -1.0591 -0.6283 0.0178, -1.0977 -0.5549 0.0122, -1.108 -0.5802 0.0183, -1.1165 -0.6046 0.0289, -1.143 -0.5906 0.0399, -1.1559 -0.5437 0.0411, -1.1625 -0.5595 0.047, -1.168 -0.5751 0.0544, -1.172 -0.5902 0.0634, -1.1747 -0.6048 0.0738, -1.1907 -0.5584 0.0725, -0.9784 0.5655 0.0, -0.9709 0.5835 0.0015, -0.9647 0.5613 0.0, -0.9622 0.5718 0.0009, -0.9488 0.5537 0.0, -0.9913 0.5677 0.0, -0.9744 0.5882 0.0017, -0.9736 0.5871 0.0016, -1.0175 0.6339 0.0155, -1.006 0.6224 0.0104, -1.0055 0.6204 0.0096, -1.0042 0.6206 0.0096, -1.0041 0.595 0.0023, -0.9988 0.6151 0.0072, -0.9886 0.5961 0.0026, -0.989 0.6043 0.005, -0.9804 0.5948 0.003, -1.0438 0.6333 0.0173, -1.0242 0.6407 0.0189, -1.0371 0.6114 0.0078, -1.0225 0.639 0.0177, -1.0525 0.6731 0.0471, -1.0524 0.6729 0.0469, -1.0556 0.6715 0.0464, -1.0522 0.6725 0.0464, -1.0528 0.6625 0.0383, -1.0481 0.6668 0.0402, -1.0501 0.6535 0.0303, -1.0398 0.6574 0.0318, -1.0325 0.6491 0.0244, -1.0584 0.6846 0.0617, -1.0604 0.6868 0.0653, -1.0592 0.6873 0.0655, -1.0227 0.5648 0.0, -1.0031 0.5681 0.0, -1.0335 0.5999 0.0049, -1.03 0.5884 0.002, -1.2007 0.5404 0.0812, -1.1978 0.5329 0.0777, -1.2272 0.5227 0.1181, -1.207 0.5625 0.0936, -1.2052 0.5552 0.0892, -1.206 0.5639 0.0929, -1.1849 0.5779 0.0717, -1.1873 0.5901 0.0799, -1.1757 0.6031 0.0748, -1.1616 0.5993 0.0578, -1.1893 0.5352 0.0696, -1.1771 0.5528 0.0583, -1.1718 0.54 0.0531, -1.1508 0.5645 0.0391, -1.1432 0.5465 0.033, -1.1407 0.547 0.0318, -1.1225 0.5753 0.0241, -1.1129 0.5523 0.0179, -1.113 0.6577 0.0613, -1.1086 0.6361 0.0407, -1.1387 0.6387 0.0638, -1.1359 0.6188 0.0474, -1.1394 0.6382 0.0638, -1.1645 0.6155 0.07, -1.2031 0.5478 0.085, -1.1815 0.5655 0.0645, -1.157 0.5822 0.0474, -1.1302 0.5976 0.0341, -1.1018 0.6115 0.0246, -1.0928 0.5849 0.0134, -1.0953 0.6675 0.0626, -1.0838 0.5571 0.0082, -1.082 0.5573 0.0076, 1.2052 0.5552 0.0892, 1.207 0.5625 0.0936, 1.2272 0.5227 0.1181, 1.1893 0.5352 0.0696, 1.1771 0.5528 0.0583, 1.1978 0.5329 0.0777, 1.2007 0.5404 0.0812, 1.1718 0.54 0.0531, 1.1432 0.5465 0.033, 1.1508 0.5645 0.0391, 1.1407 0.547 0.0318, 1.1225 0.5753 0.0241, 1.2031 0.5478 0.085, 1.1815 0.5655 0.0645, 1.1849 0.5779 0.0717, 1.157 0.5822 0.0474, 1.1616 0.5993 0.0578, 1.1302 0.5976 0.0341, 1.1359 0.6188 0.0474, 1.1387 0.6387 0.0638, 1.1394 0.6382 0.0638, 1.1645 0.6155 0.07, 1.1757 0.6031 0.0748, 1.1873 0.5901 0.0799, 1.206 0.5639 0.0929, 1.082 0.5573 0.0076, 1.0928 0.5849 0.0134, 1.0838 0.5571 0.0082, 1.1129 0.5523 0.0179, 1.113 0.6577 0.0613, 1.1086 0.6361 0.0407, 1.1018 0.6115 0.0246, 1.0227 0.5648 0.0, 1.0299 0.5883 0.0029, 1.0336 0.6 0.0044, 1.037 0.6111 0.0087, 1.0438 0.6333 0.0173, 1.0499 0.653 0.0311, 1.0529 0.6628 0.038, 1.0554 0.6708 0.0471, 1.0953 0.6675 0.0626, 1.0604 0.6868 0.0653, 1.0592 0.6873 0.0655, 1.0537 0.6749 0.0492, 1.0257 0.6422 0.0197, 1.0273 0.6438 0.0208, 1.0337 0.6504 0.0254, 1.0398 0.6574 0.0318, 1.0496 0.6688 0.0423, 1.0524 0.6728 0.0469, 1.019 0.6354 0.0165, 1.016 0.6187 0.0087, 1.0175 0.634 0.0158, 1.0043 0.6207 0.0095, 1.0005 0.6169 0.0077, 1.0129 0.5935 0.0022, 0.9832 0.5983 0.0033, 0.9832 0.596 0.0027, 0.981 0.5959 0.0028, 0.975 0.5647 0.0, 0.9714 0.5836 0.0018, 0.9873 0.5672 0.0, 0.9809 0.5958 0.0027, 0.9488 0.5537 0.0, 0.9537 0.5611 0.0001, 0.9619 0.5601 0.0, 0.9595 0.5684 0.0006, 0.9712 0.5833 0.0018, 1.0098 0.5675 0.0, 1.0242 0.6406 0.0189, 0.9784 -0.5655 0.0, 0.9709 -0.5835 0.0015, 0.9647 -0.5613 0.0, 0.9622 -0.5718 0.0009, 0.9488 -0.5537 0.0, 0.9913 -0.5677 0.0, 0.9744 -0.5882 0.0017, 0.9736 -0.5871 0.0016, 1.0175 -0.6339 0.0155, 1.006 -0.6224 0.0104, 1.0055 -0.6204 0.0096, 1.0042 -0.6206 0.0096, 1.0041 -0.595 0.0023, 0.9988 -0.6151 0.0072, 0.9886 -0.5961 0.0026, 0.989 -0.6043 0.005, 0.9804 -0.5948 0.003, 1.0438 -0.6333 0.0173, 1.0242 -0.6407 0.0189, 1.0371 -0.6114 0.0078, 1.0225 -0.639 0.0177, 1.0525 -0.6731 0.0471, 1.0524 -0.6729 0.0469, 1.0556 -0.6715 0.0464, 1.0522 -0.6725 0.0464, 1.0528 -0.6625 0.0383, 1.0481 -0.6668 0.0402, 1.0501 -0.6535 0.0303, 1.0398 -0.6574 0.0318, 1.0325 -0.6491 0.0244, 1.0584 -0.6846 0.0617, 1.0604 -0.6868 0.0653, 1.0592 -0.6873 0.0655, 1.0227 -0.5648 0.0, 1.0031 -0.5681 0.0, 1.0335 -0.5999 0.0049, 1.03 -0.5884 0.002, 1.2007 -0.5404 0.0812, 1.1978 -0.5329 0.0777, 1.2272 -0.5227 0.1181, 1.207 -0.5625 0.0936, 1.2052 -0.5552 0.0892, 1.206 -0.5639 0.0929, 1.1849 -0.5779 0.0717, 1.1873 -0.5901 0.0799, 1.1757 -0.6031 0.0748, 1.1616 -0.5993 0.0578, 1.1893 -0.5352 0.0696, 1.1771 -0.5528 0.0583, 1.1718 -0.54 0.0531, 1.1508 -0.5645 0.0391, 1.1432 -0.5465 0.033, 1.1407 -0.547 0.0318, 1.1225 -0.5753 0.0241, 1.1129 -0.5523 0.0179, 1.113 -0.6577 0.0613, 1.1086 -0.6361 0.0407, 1.1387 -0.6387 0.0638, 1.1359 -0.6188 0.0474, 1.1394 -0.6382 0.0638, 1.1645 -0.6155 0.07, 1.2031 -0.5478 0.085, 1.1815 -0.5655 0.0645, 1.157 -0.5822 0.0474, 1.1302 -0.5976 0.0341, 1.1018 -0.6115 0.0246, 1.0928 -0.5849 0.0134, 1.0953 -0.6675 0.0626, 1.0838 -0.5571 0.0082, 1.082 -0.5573 0.0076, 1.082 -0.5573 0.0076
            ]
        }
        coordIndex [
            0,1,2,-1,2,1,3,-1,2,3,4,-1,4,3,5,-1,4,5,6,-1,6,5,7,-1,8,9,10,-1,10,9,11,-1,10,11,12,-1,13,14,10,-1,10,14,15,-1,10,15,16,-1,12,17,10,-1,10,17,18,-1,10,18,19,-1,19,20,10,-1,10,20,21,-1,10,21,13,-1,22,23,15,-1,15,23,24,-1,15,24,16,-1,25,26,27,-1,27,26,28,-1,29,30,31,-1,31,30,32,-1,31,32,33,-1,33,32,34,-1,33,34,35,-1,35,34,36,-1,35,36,28,-1,28,36,37,-1,28,37,27,-1,38,39,40,-1,40,39,41,-1,41,39,42,-1,42,39,43,-1,42,43,44,-1,44,43,45,-1,44,45,46,-1,47,48,49,-1,49,48,50,-1,51,52,53,-1,53,52,54,-1,53,54,47,-1,47,54,55,-1,47,55,48,-1,56,57,58,-1,56,43,59,-1,59,43,39,-1,59,39,60,-1,60,39,38,-1,60,38,31,-1,31,38,61,-1,31,61,29,-1,56,58,43,-1,43,58,49,-1,43,49,45,-1,45,49,50,-1,45,50,46,-1,62,63,64,-1,62,65,66,-1,67,68,69,-1,70,71,66,-1,66,71,62,-1,64,65,62,-1,72,73,74,-1,75,76,77,-1,78,79,80,-1,81,82,83,-1,84,85,86,-1,26,87,28,-1,28,87,88,-1,28,88,35,-1,35,88,33,-1,33,88,31,-1,31,88,89,-1,31,89,60,-1,60,89,83,-1,60,83,59,-1,82,57,83,-1,83,57,56,-1,83,56,59,-1,90,81,91,-1,91,81,83,-1,91,83,92,-1,92,83,89,-1,92,89,86,-1,86,89,88,-1,86,88,84,-1,84,88,87,-1,76,90,77,-1,77,90,91,-1,77,91,93,-1,93,91,92,-1,93,92,80,-1,80,92,86,-1,80,86,78,-1,78,86,85,-1,94,75,95,-1,95,75,77,-1,95,77,96,-1,96,77,93,-1,96,93,97,-1,97,93,80,-1,97,80,98,-1,98,80,79,-1,68,94,69,-1,69,94,95,-1,69,95,99,-1,99,95,96,-1,99,96,74,-1,74,96,97,-1,74,97,72,-1,72,97,98,-1,63,67,64,-1,64,67,69,-1,64,69,65,-1,65,69,99,-1,65,99,66,-1,66,99,74,-1,66,74,70,-1,70,74,73,-1,100,101,102,-1,102,101,103,-1,102,103,104,-1,105,106,100,-1,100,106,107,-1,100,107,101,-1,108,109,110,-1,110,109,111,-1,110,111,112,-1,112,111,113,-1,112,113,114,-1,114,113,115,-1,114,115,116,-1,117,118,119,-1,119,118,120,-1,121,122,123,-1,123,122,124,-1,123,124,125,-1,125,124,126,-1,125,126,127,-1,127,126,128,-1,127,128,117,-1,117,128,129,-1,117,129,118,-1,121,123,130,-1,130,123,131,-1,130,131,132,-1,133,112,134,-1,134,112,114,-1,134,114,105,-1,105,114,116,-1,105,116,106,-1,120,108,119,-1,119,108,110,-1,119,110,135,-1,135,110,112,-1,135,112,136,-1,136,112,133,-1,137,138,139,-1,139,140,141,-1,141,140,142,-1,141,142,143,-1,142,144,143,-1,143,144,145,-1,143,145,146,-1,138,137,147,-1,147,137,148,-1,147,148,149,-1,149,148,150,-1,149,150,151,-1,151,150,152,-1,152,150,153,-1,152,153,154,-1,155,156,157,-1,157,156,158,-1,157,158,159,-1,159,158,146,-1,159,146,160,-1,160,146,145,-1,139,161,137,-1,137,161,162,-1,137,162,148,-1,148,162,163,-1,148,163,150,-1,150,163,164,-1,150,164,153,-1,153,164,165,-1,153,165,166,-1,125,167,123,-1,123,167,131,-1,127,156,125,-1,125,156,155,-1,125,155,167,-1,127,165,156,-1,156,165,164,-1,156,164,158,-1,158,164,163,-1,158,163,146,-1,146,163,162,-1,146,162,143,-1,143,162,161,-1,143,161,141,-1,141,161,139,-1,127,117,165,-1,165,117,119,-1,165,119,166,-1,166,119,135,-1,166,135,136,-1,154,153,168,-1,168,153,166,-1,168,166,169,-1,169,166,136,-1,169,136,133,-1,170,171,172,-1,173,174,175,-1,175,174,176,-1,175,176,172,-1,173,177,174,-1,174,177,178,-1,174,178,179,-1,179,178,180,-1,179,180,181,-1,172,182,170,-1,170,182,183,-1,170,183,184,-1,184,183,185,-1,184,185,186,-1,186,185,187,-1,186,187,188,-1,189,190,188,-1,188,190,191,-1,188,191,186,-1,186,191,192,-1,186,192,184,-1,184,192,193,-1,184,193,170,-1,170,193,194,-1,170,194,171,-1,195,196,197,-1,197,196,181,-1,197,181,198,-1,198,181,180,-1,199,189,200,-1,200,189,188,-1,200,188,201,-1,201,188,187,-1,195,202,203,-1,195,203,196,-1,196,203,204,-1,196,204,205,-1,205,201,196,-1,196,201,187,-1,196,187,181,-1,181,187,185,-1,181,185,179,-1,179,185,183,-1,179,183,174,-1,174,183,182,-1,174,182,176,-1,176,182,172,-1,205,206,201,-1,201,206,207,-1,201,207,200,-1,200,207,208,-1,200,208,199,-1,199,208,209,-1,199,209,210,-1,210,209,211,-1,212,211,213,-1,213,211,209,-1,214,215,206,-1,206,215,216,-1,206,216,207,-1,207,216,217,-1,207,217,208,-1,208,217,218,-1,208,218,209,-1,209,218,219,-1,209,219,213,-1,220,221,222,-1,222,221,223,-1,223,221,224,-1,224,221,225,-1,224,225,226,-1,226,225,227,-1,226,227,228,-1,229,230,231,-1,231,230,232,-1,233,234,235,-1,235,234,236,-1,235,236,229,-1,229,236,237,-1,229,237,230,-1,203,202,238,-1,203,225,204,-1,204,225,221,-1,204,221,205,-1,205,221,220,-1,205,220,206,-1,206,220,239,-1,206,239,214,-1,203,238,225,-1,225,238,231,-1,225,231,227,-1,227,231,232,-1,227,232,228,-1,240,241,242,-1,242,241,243,-1,242,243,244,-1,245,246,240,-1,240,246,247,-1,240,247,241,-1,248,249,250,-1,250,249,251,-1,250,251,252,-1,252,251,253,-1,252,253,254,-1,254,253,255,-1,254,255,256,-1,257,258,259,-1,259,258,260,-1,261,262,263,-1,263,262,264,-1,263,264,265,-1,265,264,266,-1,265,266,267,-1,267,266,268,-1,267,268,257,-1,257,268,269,-1,257,269,258,-1,261,263,270,-1,270,263,271,-1,270,271,272,-1,273,252,274,-1,274,252,254,-1,274,254,245,-1,245,254,256,-1,245,256,246,-1,260,248,259,-1,259,248,250,-1,259,250,275,-1,275,250,252,-1,275,252,276,-1,276,252,273,-1,277,278,279,-1,279,280,281,-1,281,280,282,-1,281,282,283,-1,282,284,283,-1,283,284,285,-1,283,285,286,-1,278,277,287,-1,287,277,288,-1,287,288,289,-1,289,288,290,-1,289,290,291,-1,291,290,292,-1,292,290,293,-1,292,293,294,-1,295,296,297,-1,297,296,298,-1,297,298,299,-1,299,298,286,-1,299,286,300,-1,300,286,285,-1,279,301,277,-1,277,301,302,-1,277,302,288,-1,288,302,303,-1,288,303,290,-1,290,303,304,-1,290,304,293,-1,293,304,305,-1,293,305,306,-1,265,307,263,-1,263,307,271,-1,267,296,265,-1,265,296,295,-1,265,295,307,-1,267,305,296,-1,296,305,304,-1,296,304,298,-1,298,304,303,-1,298,303,286,-1,286,303,302,-1,286,302,283,-1,283,302,301,-1,283,301,281,-1,281,301,279,-1,267,257,305,-1,305,257,259,-1,305,259,306,-1,306,259,275,-1,306,275,276,-1,294,293,308,-1,308,293,306,-1,308,306,309,-1,309,306,276,-1,309,276,273,-1,
        ]
    }
}