#VRML V2.0 utf8
# 3D model generated by easyeda2kicad.py (https://github.com/uPesy/easyeda2kicad.py)

Shape{
    appearance Appearance {
        material  Material 	{
            diffuseColor 0.8117647058823529 0.8117647058823529 0.8117647058823529
            specularColor 0.7529411764705882 0.7529411764705882 0.7529411764705882
            ambientIntensity 0.2
            transparency 0
            shininess 0.5
        }
    }
    geometry IndexedFaceSet {
        ccw TRUE
        solid FALSE
        coord DEF co Coordinate {
            point [
                0.5315 0.7677 0.0, 0.4528 0.7677 0.0, 0.4528 1.0506 0.0, 0.5315 1.0506 0.0, 0.5315 0.8858 0.1575, 0.5315 1.122 0.0861, 0.5315 1.1166 0.1134, 0.5315 1.1011 0.1366, 0.5315 1.0507 0.1575, 0.5315 1.078 0.152, 0.5315 0.6941 0.0389, 0.5315 1.122 0.0714, 0.5315 1.1166 0.0441, 0.5315 1.1011 0.0209, 0.5315 1.078 0.0054, 0.5315 0.0995 0.2205, 0.5315 0.0995 0.0389, 0.5315 0.7672 0.2205, 0.4528 0.8858 0.1575, 0.4528 0.7672 0.2205, -2.4213 0.5334 0.3543, -2.4213 0.5565 1.3948, -2.4213 0.5334 1.3391, -2.4213 0.582 1.4118, -2.4213 0.5394 1.3692, -2.4213 0.6925 0.3543, -2.4213 0.6122 1.4178, -2.4213 0.6925 1.4178, -2.4213 0.1899 1.1365, -2.4213 0.1903 1.1934, -2.4213 0.182 1.2207, -2.4213 0.1135 1.3844, -2.4213 0.1378 0.8906, -2.4213 0.1017 1.402, -2.4213 0.193 1.1649, -2.4213 0.084 1.4137, -2.4213 0.0632 1.4178, -2.4213 0.0104 0.3543, -2.4213 0.1378 0.3543, -2.4213 0.0104 1.4178, -2.5 0.5334 0.3543, -2.5 0.5334 1.3391, -2.5 0.5394 1.3692, -2.5 0.5565 1.3948, -2.5 0.582 1.4118, -2.5 0.6122 1.4178, -2.5 0.6925 1.4178, -2.5 0.6925 0.3543, -2.5 0.0104 0.3543, -2.5 0.0104 1.4178, -2.5 0.0632 1.4178, -2.5 0.084 1.4137, -2.5 0.1378 0.8906, -2.5 0.1017 1.402, -2.5 0.1135 1.3844, -2.5 0.1899 1.1365, -2.5 0.182 1.2207, -2.5 0.193 1.1649, -2.5 0.1903 1.1934, -2.5 0.1378 0.3543, -1.9291 0.5334 1.3391, -1.9291 0.5565 1.3948, -1.9291 0.5394 1.3692, -1.9291 0.5334 0.3543, -1.9291 0.582 1.4118, -1.9291 0.6122 1.4178, -1.9291 0.6925 1.4178, -1.9291 0.6925 0.3543, -1.9291 0.1017 1.402, -1.9291 0.1378 0.8906, -1.9291 0.1135 1.3844, -1.9291 0.1899 1.1365, -1.9291 0.1903 1.1934, -1.9291 0.182 1.2207, -1.9291 0.193 1.1649, -1.9291 0.084 1.4137, -1.9291 0.0632 1.4178, -1.9291 0.1378 0.3543, -1.9291 0.0104 0.3543, -1.9291 0.0104 1.4178, -2.0079 0.6925 0.3543, -2.0079 0.6925 1.4178, -2.0079 0.6122 1.4178, -2.0079 0.5565 1.3948, -2.0079 0.582 1.4118, -2.0079 0.5394 1.3692, -2.0079 0.5334 1.3391, -2.0079 0.5334 0.3543, -2.0079 0.1899 1.1365, -2.0079 0.182 1.2207, -2.0079 0.1903 1.1934, -2.0079 0.1135 1.3844, -2.0079 0.1378 0.8906, -2.0079 0.1017 1.402, -2.0079 0.193 1.1649, -2.0079 0.084 1.4137, -2.0079 0.0632 1.4178, -2.0079 0.0104 0.3543, -2.0079 0.1378 0.3543, -2.0079 0.0104 1.4178, -1.437 0.5334 1.3391, -1.437 0.5565 1.3948, -1.437 0.5394 1.3692, -1.437 0.5334 0.3543, -1.437 0.582 1.4118, -1.437 0.6122 1.4178, -1.437 0.6925 1.4178, -1.437 0.6925 0.3543, -1.437 0.1017 1.402, -1.437 0.1378 0.8906, -1.437 0.1135 1.3844, -1.437 0.1899 1.1365, -1.437 0.1903 1.1934, -1.437 0.182 1.2207, -1.437 0.193 1.1649, -1.437 0.084 1.4137, -1.437 0.0632 1.4178, -1.437 0.1378 0.3543, -1.437 0.0104 0.3543, -1.437 0.0104 1.4178, -1.5157 0.6925 0.3543, -1.5157 0.6925 1.4178, -1.5157 0.6122 1.4178, -1.5157 0.5565 1.3948, -1.5157 0.582 1.4118, -1.5157 0.5394 1.3692, -1.5157 0.5334 1.3391, -1.5157 0.5334 0.3543, -1.5157 0.1899 1.1365, -1.5157 0.182 1.2207, -1.5157 0.1903 1.1934, -1.5157 0.1135 1.3844, -1.5157 0.1378 0.8906, -1.5157 0.1017 1.402, -1.5157 0.193 1.1649, -1.5157 0.084 1.4137, -1.5157 0.0632 1.4178, -1.5157 0.0104 0.3543, -1.5157 0.1378 0.3543, -1.5157 0.0104 1.4178, -0.9449 0.5334 1.3391, -0.9449 0.5565 1.3948, -0.9449 0.5394 1.3692, -0.9449 0.5334 0.3543, -0.9449 0.582 1.4118, -0.9449 0.6122 1.4178, -0.9449 0.6925 1.4178, -0.9449 0.6925 0.3543, -0.9449 0.1017 1.402, -0.9449 0.1378 0.8906, -0.9449 0.1135 1.3844, -0.9449 0.1899 1.1365, -0.9449 0.1903 1.1934, -0.9449 0.182 1.2207, -0.9449 0.193 1.1649, -0.9449 0.084 1.4137, -0.9449 0.0632 1.4178, -0.9449 0.1378 0.3543, -0.9449 0.0104 0.3543, -0.9449 0.0104 1.4178, -1.0236 0.6925 0.3543, -1.0236 0.6925 1.4178, -1.0236 0.6122 1.4178, -1.0236 0.5565 1.3948, -1.0236 0.582 1.4118, -1.0236 0.5394 1.3692, -1.0236 0.5334 1.3391, -1.0236 0.5334 0.3543, -1.0236 0.1899 1.1365, -1.0236 0.182 1.2207, -1.0236 0.1903 1.1934, -1.0236 0.1135 1.3844, -1.0236 0.1378 0.8906, -1.0236 0.1017 1.402, -1.0236 0.193 1.1649, -1.0236 0.084 1.4137, -1.0236 0.0632 1.4178, -1.0236 0.0104 0.3543, -1.0236 0.1378 0.3543, -1.0236 0.0104 1.4178, -0.4528 0.5334 1.3391, -0.4528 0.5565 1.3948, -0.4528 0.5394 1.3692, -0.4528 0.5334 0.3543, -0.4528 0.582 1.4118, -0.4528 0.6122 1.4178, -0.4528 0.6925 1.4178, -0.4528 0.6925 0.3543, -0.4528 0.1017 1.402, -0.4528 0.1378 0.8906, -0.4528 0.1135 1.3844, -0.4528 0.1899 1.1365, -0.4528 0.1903 1.1934, -0.4528 0.182 1.2207, -0.4528 0.193 1.1649, -0.4528 0.084 1.4137, -0.4528 0.0632 1.4178, -0.4528 0.1378 0.3543, -0.4528 0.0104 0.3543, -0.4528 0.0104 1.4178, -0.5315 0.6925 0.3543, -0.5315 0.6925 1.4178, -0.5315 0.6122 1.4178, -0.5315 0.5565 1.3948, -0.5315 0.582 1.4118, -0.5315 0.5394 1.3692, -0.5315 0.5334 1.3391, -0.5315 0.5334 0.3543, -0.5315 0.1899 1.1365, -0.5315 0.182 1.2207, -0.5315 0.1903 1.1934, -0.5315 0.1135 1.3844, -0.5315 0.1378 0.8906, -0.5315 0.1017 1.402, -0.5315 0.193 1.1649, -0.5315 0.084 1.4137, -0.5315 0.0632 1.4178, -0.5315 0.0104 0.3543, -0.5315 0.1378 0.3543, -0.5315 0.0104 1.4178, 0.0394 0.5334 1.3391, 0.0394 0.5565 1.3948, 0.0394 0.5394 1.3692, 0.0394 0.5334 0.3543, 0.0394 0.582 1.4118, 0.0394 0.6122 1.4178, 0.0394 0.6925 1.4178, 0.0394 0.6925 0.3543, 0.0394 0.1017 1.402, 0.0394 0.1378 0.8906, 0.0394 0.1135 1.3844, 0.0394 0.1899 1.1365, 0.0394 0.1903 1.1934, 0.0394 0.182 1.2207, 0.0394 0.193 1.1649, 0.0394 0.084 1.4137, 0.0394 0.0632 1.4178, 0.0394 0.1378 0.3543, 0.0394 0.0104 0.3543, 0.0394 0.0104 1.4178, -0.0394 0.6925 0.3543, -0.0394 0.6925 1.4178, -0.0394 0.6122 1.4178, -0.0394 0.5565 1.3948, -0.0394 0.582 1.4118, -0.0394 0.5394 1.3692, -0.0394 0.5334 1.3391, -0.0394 0.5334 0.3543, -0.0394 0.1899 1.1365, -0.0394 0.182 1.2207, -0.0394 0.1903 1.1934, -0.0394 0.1135 1.3844, -0.0394 0.1378 0.8906, -0.0394 0.1017 1.402, -0.0394 0.193 1.1649, -0.0394 0.084 1.4137, -0.0394 0.0632 1.4178, -0.0394 0.0104 0.3543, -0.0394 0.1378 0.3543, -0.0394 0.0104 1.4178, 0.5315 0.5334 1.3391, 0.5315 0.5565 1.3948, 0.5315 0.5394 1.3692, 0.5315 0.5334 0.3543, 0.5315 0.582 1.4118, 0.5315 0.6122 1.4178, 0.5315 0.6925 1.4178, 0.5315 0.6925 0.3543, 0.5315 0.1017 1.402, 0.5315 0.1378 0.8906, 0.5315 0.1135 1.3844, 0.5315 0.1899 1.1365, 0.5315 0.1903 1.1934, 0.5315 0.182 1.2207, 0.5315 0.193 1.1649, 0.5315 0.084 1.4137, 0.5315 0.0632 1.4178, 0.5315 0.1378 0.3543, 0.5315 0.0104 0.3543, 0.5315 0.0104 1.4178, 0.4528 0.6925 0.3543, 0.4528 0.6925 1.4178, 0.4528 0.6122 1.4178, 0.4528 0.5565 1.3948, 0.4528 0.582 1.4118, 0.4528 0.5394 1.3692, 0.4528 0.5334 1.3391, 0.4528 0.5334 0.3543, 0.4528 0.1899 1.1365, 0.4528 0.182 1.2207, 0.4528 0.1903 1.1934, 0.4528 0.1135 1.3844, 0.4528 0.1378 0.8906, 0.4528 0.1017 1.402, 0.4528 0.193 1.1649, 0.4528 0.084 1.4137, 0.4528 0.0632 1.4178, 0.4528 0.0104 0.3543, 0.4528 0.1378 0.3543, 0.4528 0.0104 1.4178, 1.0236 0.5334 1.3391, 1.0236 0.5565 1.3948, 1.0236 0.5394 1.3692, 1.0236 0.5334 0.3543, 1.0236 0.582 1.4118, 1.0236 0.6122 1.4178, 1.0236 0.6925 1.4178, 1.0236 0.6925 0.3543, 1.0236 0.1017 1.402, 1.0236 0.1378 0.8906, 1.0236 0.1135 1.3844, 1.0236 0.1899 1.1365, 1.0236 0.1903 1.1934, 1.0236 0.182 1.2207, 1.0236 0.193 1.1649, 1.0236 0.084 1.4137, 1.0236 0.0632 1.4178, 1.0236 0.1378 0.3543, 1.0236 0.0104 0.3543, 1.0236 0.0104 1.4178, 0.9449 0.6925 0.3543, 0.9449 0.6925 1.4178, 0.9449 0.6122 1.4178, 0.9449 0.5565 1.3948, 0.9449 0.582 1.4118, 0.9449 0.5394 1.3692, 0.9449 0.5334 1.3391, 0.9449 0.5334 0.3543, 0.9449 0.1899 1.1365, 0.9449 0.182 1.2207, 0.9449 0.1903 1.1934, 0.9449 0.1135 1.3844, 0.9449 0.1378 0.8906, 0.9449 0.1017 1.402, 0.9449 0.193 1.1649, 0.9449 0.084 1.4137, 0.9449 0.0632 1.4178, 0.9449 0.0104 0.3543, 0.9449 0.1378 0.3543, 0.9449 0.0104 1.4178, 1.5157 0.5334 1.3391, 1.5157 0.5565 1.3948, 1.5157 0.5394 1.3692, 1.5157 0.5334 0.3543, 1.5157 0.582 1.4118, 1.5157 0.6122 1.4178, 1.5157 0.6925 1.4178, 1.5157 0.6925 0.3543, 1.5157 0.1017 1.402, 1.5157 0.1378 0.8906, 1.5157 0.1135 1.3844, 1.5157 0.1899 1.1365, 1.5157 0.1903 1.1934, 1.5157 0.182 1.2207, 1.5157 0.193 1.1649, 1.5157 0.084 1.4137, 1.5157 0.0632 1.4178, 1.5157 0.1378 0.3543, 1.5157 0.0104 0.3543, 1.5157 0.0104 1.4178, 1.437 0.6925 0.3543, 1.437 0.6925 1.4178, 1.437 0.6122 1.4178, 1.437 0.5565 1.3948, 1.437 0.582 1.4118, 1.437 0.5394 1.3692, 1.437 0.5334 1.3391, 1.437 0.5334 0.3543, 1.437 0.1899 1.1365, 1.437 0.182 1.2207, 1.437 0.1903 1.1934, 1.437 0.1135 1.3844, 1.437 0.1378 0.8906, 1.437 0.1017 1.402, 1.437 0.193 1.1649, 1.437 0.084 1.4137, 1.437 0.0632 1.4178, 1.437 0.0104 0.3543, 1.437 0.1378 0.3543, 1.437 0.0104 1.4178, 2.0079 0.5334 1.3391, 2.0079 0.5565 1.3948, 2.0079 0.5394 1.3692, 2.0079 0.5334 0.3543, 2.0079 0.582 1.4118, 2.0079 0.6122 1.4178, 2.0079 0.6925 1.4178, 2.0079 0.6925 0.3543, 2.0079 0.1017 1.402, 2.0079 0.1378 0.8906, 2.0079 0.1135 1.3844, 2.0079 0.1899 1.1365, 2.0079 0.1903 1.1934, 2.0079 0.182 1.2207, 2.0079 0.193 1.1649, 2.0079 0.084 1.4137, 2.0079 0.0632 1.4178, 2.0079 0.1378 0.3543, 2.0079 0.0104 0.3543, 2.0079 0.0104 1.4178, 1.9291 0.6925 0.3543, 1.9291 0.6925 1.4178, 1.9291 0.6122 1.4178, 1.9291 0.5565 1.3948, 1.9291 0.582 1.4118, 1.9291 0.5394 1.3692, 1.9291 0.5334 1.3391, 1.9291 0.5334 0.3543, 1.9291 0.1899 1.1365, 1.9291 0.182 1.2207, 1.9291 0.1903 1.1934, 1.9291 0.1135 1.3844, 1.9291 0.1378 0.8906, 1.9291 0.1017 1.402, 1.9291 0.193 1.1649, 1.9291 0.084 1.4137, 1.9291 0.0632 1.4178, 1.9291 0.0104 0.3543, 1.9291 0.1378 0.3543, 1.9291 0.0104 1.4178, 2.5 0.5334 1.3391, 2.5 0.5565 1.3948, 2.5 0.5394 1.3692, 2.5 0.5334 0.3543, 2.5 0.582 1.4118, 2.5 0.6122 1.4178, 2.5 0.6925 1.4178, 2.5 0.6925 0.3543, 2.5 0.1017 1.402, 2.5 0.1378 0.8906, 2.5 0.1135 1.3844, 2.5 0.1899 1.1365, 2.5 0.1903 1.1934, 2.5 0.182 1.2207, 2.5 0.193 1.1649, 2.5 0.084 1.4137, 2.5 0.0632 1.4178, 2.5 0.1378 0.3543, 2.5 0.0104 0.3543, 2.5 0.0104 1.4178, 2.4213 0.6925 0.3543, 2.4213 0.6925 1.4178, 2.4213 0.6122 1.4178, 2.4213 0.5565 1.3948, 2.4213 0.582 1.4118, 2.4213 0.5394 1.3692, 2.4213 0.5334 1.3391, 2.4213 0.5334 0.3543, 2.4213 0.1899 1.1365, 2.4213 0.182 1.2207, 2.4213 0.1903 1.1934, 2.4213 0.1135 1.3844, 2.4213 0.1378 0.8906, 2.4213 0.1017 1.402, 2.4213 0.193 1.1649, 2.4213 0.084 1.4137, 2.4213 0.0632 1.4178, 2.4213 0.0104 0.3543, 2.4213 0.1378 0.3543, 2.4213 0.0104 1.4178, -2.9906 -0.4329 0.0, -2.9906 -0.4329 -0.0079, -2.9906 -0.5116 -0.0079, -2.9906 -0.5116 0.0, -2.9808 -0.5116 -0.0079, -2.9808 -0.5116 0.0, -2.9808 -0.4429 -0.0079, -2.9808 -0.4429 0.0, -2.9316 -0.4429 -0.0079, -2.9316 -0.4429 0.0, -2.9316 -0.4329 -0.0079, -2.9316 -0.4329 0.0, -2.9037 -0.4966 -0.0079, -2.9135 -0.4999 -0.0079, -2.907 -0.4915 -0.0079, -2.8545 -0.4915 -0.0079, -2.8561 -0.4999 -0.0079, -2.8643 -0.4915 -0.0079, -2.9004 -0.4346 -0.0079, -2.8922 -0.4429 -0.0079, -2.8988 -0.4446 -0.0079, -2.8774 -0.4429 -0.0079, -2.8692 -0.4346 -0.0079, -2.8709 -0.4446 -0.0079, -2.8627 -0.4379 -0.0079, -2.866 -0.448 -0.0079, -2.8774 -0.4329 -0.0079, -2.8922 -0.4329 -0.0079, -2.9037 -0.448 -0.0079, -2.907 -0.4379 -0.0079, -2.907 -0.453 -0.0079, -2.9135 -0.4446 -0.0079, -2.9168 -0.4513 -0.0079, -2.9086 -0.4597 -0.0079, -2.9168 -0.4932 -0.0079, -2.9086 -0.4848 -0.0079, -2.9185 -0.4848 -0.0079, -2.9185 -0.4597 -0.0079, -2.8988 -0.4999 -0.0079, -2.907 -0.5066 -0.0079, -2.9004 -0.51 -0.0079, -2.8922 -0.5016 -0.0079, -2.8774 -0.5116 -0.0079, -2.8922 -0.5116 -0.0079, -2.8774 -0.5016 -0.0079, -2.8709 -0.4999 -0.0079, -2.8692 -0.51 -0.0079, -2.866 -0.4966 -0.0079, -2.8627 -0.5066 -0.0079, -2.8561 -0.4446 -0.0079, -2.8643 -0.453 -0.0079, -2.8545 -0.453 -0.0079, -2.8414 -0.4329 -0.0079, -2.8315 -0.4697 -0.0079, -2.8414 -0.5116 -0.0079, -2.8315 -0.4798 -0.0079, -2.7823 -0.4329 -0.0079, -2.8315 -0.4429 -0.0079, -2.7889 -0.4697 -0.0079, -2.7889 -0.4798 -0.0079, -2.8315 -0.5016 -0.0079, -2.7823 -0.5016 -0.0079, -2.7823 -0.5116 -0.0079, -2.7823 -0.4429 -0.0079, -2.7052 -0.4513 -0.0079, -2.7134 -0.4597 -0.0079, -2.715 -0.453 -0.0079, -2.7036 -0.4597 -0.0079, -2.7134 -0.4848 -0.0079, -2.7036 -0.4848 -0.0079, -2.7085 -0.4999 -0.0079, -2.7183 -0.4966 -0.0079, -2.715 -0.4915 -0.0079, -2.7232 -0.4999 -0.0079, -2.715 -0.5066 -0.0079, -2.7216 -0.51 -0.0079, -2.7298 -0.5016 -0.0079, -2.7298 -0.5116 -0.0079, -2.7052 -0.4932 -0.0079, -2.7593 -0.5016 -0.0079, -2.7692 -0.5116 -0.0079, -2.7593 -0.4429 -0.0079, -2.7692 -0.4329 -0.0079, -2.7298 -0.4429 -0.0079, -2.7216 -0.4346 -0.0079, -2.7232 -0.4446 -0.0079, -2.7183 -0.448 -0.0079, -2.715 -0.4379 -0.0079, -2.7085 -0.4446 -0.0079, -2.7298 -0.4329 -0.0079, -2.6248 -0.4329 -0.0079, -2.6511 -0.5116 -0.0079, -2.6429 -0.4597 -0.0079, -2.674 -0.453 -0.0079, -2.6904 -0.4329 -0.0079, -2.6806 -0.4329 -0.0079, -2.6724 -0.4597 -0.0079, -2.6347 -0.4329 -0.0079, -2.6412 -0.453 -0.0079, -2.6642 -0.5116 -0.0079, -2.6576 -0.5049 -0.0079, -2.8643 -0.453 0.0, -2.8545 -0.453 0.0, -2.8561 -0.4446 0.0, -2.8627 -0.4379 0.0, -2.8692 -0.4346 0.0, -2.8774 -0.4329 0.0, -2.8922 -0.4329 0.0, -2.9004 -0.4346 0.0, -2.907 -0.4379 0.0, -2.9135 -0.4446 0.0, -2.9168 -0.4513 0.0, -2.9185 -0.4597 0.0, -2.9185 -0.4848 0.0, -2.9168 -0.4932 0.0, -2.9135 -0.4999 0.0, -2.907 -0.5066 0.0, -2.9004 -0.51 0.0, -2.8922 -0.5116 0.0, -2.8774 -0.5116 0.0, -2.8692 -0.51 0.0, -2.8627 -0.5066 0.0, -2.8561 -0.4999 0.0, -2.8545 -0.4915 0.0, -2.8643 -0.4915 0.0, -2.866 -0.4966 0.0, -2.8709 -0.4999 0.0, -2.8774 -0.5016 0.0, -2.8922 -0.5016 0.0, -2.8988 -0.4999 0.0, -2.9037 -0.4966 0.0, -2.907 -0.4915 0.0, -2.9086 -0.4848 0.0, -2.9086 -0.4597 0.0, -2.907 -0.453 0.0, -2.9037 -0.448 0.0, -2.8988 -0.4446 0.0, -2.8922 -0.4429 0.0, -2.8774 -0.4429 0.0, -2.8709 -0.4446 0.0, -2.866 -0.448 0.0, -2.8315 -0.4429 0.0, -2.7823 -0.4429 0.0, -2.7823 -0.4329 0.0, -2.8414 -0.4329 0.0, -2.8414 -0.5116 0.0, -2.7823 -0.5116 0.0, -2.7823 -0.5016 0.0, -2.8315 -0.5016 0.0, -2.8315 -0.4798 0.0, -2.7889 -0.4798 0.0, -2.7889 -0.4697 0.0, -2.8315 -0.4697 0.0, -2.7692 -0.5116 0.0, -2.7298 -0.5116 0.0, -2.7216 -0.51 0.0, -2.715 -0.5066 0.0, -2.7085 -0.4999 0.0, -2.7052 -0.4932 0.0, -2.7036 -0.4848 0.0, -2.7036 -0.4597 0.0, -2.7052 -0.4513 0.0, -2.7085 -0.4446 0.0, -2.715 -0.4379 0.0, -2.7216 -0.4346 0.0, -2.7298 -0.4329 0.0, -2.7692 -0.4329 0.0, -2.7298 -0.5016 0.0, -2.7593 -0.5016 0.0, -2.7593 -0.4429 0.0, -2.7298 -0.4429 0.0, -2.7232 -0.4446 0.0, -2.7183 -0.448 0.0, -2.715 -0.453 0.0, -2.7134 -0.4597 0.0, -2.7134 -0.4848 0.0, -2.715 -0.4915 0.0, -2.7183 -0.4966 0.0, -2.7232 -0.4999 0.0, -2.6642 -0.5116 0.0, -2.6511 -0.5116 0.0, -2.6248 -0.4329 0.0, -2.6347 -0.4329 0.0, -2.6412 -0.453 0.0, -2.674 -0.453 0.0, -2.6806 -0.4329 0.0, -2.6904 -0.4329 0.0, -2.6429 -0.4597 0.0, -2.6576 -0.5049 0.0, -2.6724 -0.4597 0.0, -2.4213 1.0507 0.1575, -2.4213 1.1011 0.1366, -2.4213 1.078 0.152, -2.4213 1.122 0.0861, -2.4213 0.8858 0.1575, -2.4213 0.6941 0.0389, -2.4213 0.7672 0.2205, -2.4213 0.0995 0.2205, -2.4213 1.1166 0.1134, -2.4213 1.1166 0.0441, -2.4213 1.122 0.0714, -2.4213 1.1011 0.0209, -2.4213 1.0506 0.0, -2.4213 1.078 0.0054, -2.4213 0.7677 0.0, -2.4213 0.0995 0.0389, -2.5 0.7672 0.2205, -2.5 0.8858 0.1575, -2.5 0.0995 0.0389, -2.5 0.0995 0.2205, -2.5 1.0507 0.1575, -2.5 1.078 0.152, -2.5 1.1011 0.1366, -2.5 0.7677 0.0, -2.5 1.1011 0.0209, -2.5 1.0506 0.0, -2.5 1.1166 0.1134, -2.5 1.122 0.0861, -2.5 0.6941 0.0389, -2.5 1.122 0.0714, -2.5 1.1166 0.0441, -2.5 1.078 0.0054, -1.9291 0.8858 0.1575, -1.9291 1.122 0.0861, -1.9291 1.1166 0.1134, -1.9291 1.1011 0.1366, -1.9291 1.0507 0.1575, -1.9291 1.078 0.152, -1.9291 0.6941 0.0389, -1.9291 1.122 0.0714, -1.9291 1.1166 0.0441, -1.9291 1.1011 0.0209, -1.9291 0.7677 0.0, -1.9291 1.0506 0.0, -1.9291 1.078 0.0054, -1.9291 0.0995 0.2205, -1.9291 0.0995 0.0389, -1.9291 0.7672 0.2205, -2.0079 0.8858 0.1575, -2.0079 0.7672 0.2205, -2.0079 1.0507 0.1575, -2.0079 1.078 0.152, -2.0079 1.1011 0.1366, -2.0079 1.122 0.0861, -2.0079 0.6941 0.0389, -2.0079 0.0995 0.2205, -2.0079 1.1166 0.1134, -2.0079 1.122 0.0714, -2.0079 1.1166 0.0441, -2.0079 1.1011 0.0209, -2.0079 1.078 0.0054, -2.0079 1.0506 0.0, -2.0079 0.7677 0.0, -2.0079 0.0995 0.0389, -1.437 0.8858 0.1575, -1.437 1.122 0.0861, -1.437 1.1166 0.1134, -1.437 1.1011 0.1366, -1.437 1.0507 0.1575, -1.437 1.078 0.152, -1.437 0.6941 0.0389, -1.437 1.122 0.0714, -1.437 1.1166 0.0441, -1.437 1.1011 0.0209, -1.437 0.7677 0.0, -1.437 1.0506 0.0, -1.437 1.078 0.0054, -1.437 0.0995 0.2205, -1.437 0.0995 0.0389, -1.437 0.7672 0.2205, -1.5157 0.8858 0.1575, -1.5157 0.7672 0.2205, -1.5157 1.0507 0.1575, -1.5157 1.078 0.152, -1.5157 1.1011 0.1366, -1.5157 1.122 0.0861, -1.5157 0.6941 0.0389, -1.5157 0.0995 0.2205, -1.5157 1.1166 0.1134, -1.5157 1.122 0.0714, -1.5157 1.1166 0.0441, -1.5157 1.1011 0.0209, -1.5157 1.078 0.0054, -1.5157 1.0506 0.0, -1.5157 0.7677 0.0, -1.5157 0.0995 0.0389, -0.9449 0.8858 0.1575, -0.9449 1.122 0.0861, -0.9449 1.1166 0.1134, -0.9449 1.1011 0.1366, -0.9449 1.0507 0.1575, -0.9449 1.078 0.152, -0.9449 0.6941 0.0389, -0.9449 1.122 0.0714, -0.9449 1.1166 0.0441, -0.9449 1.1011 0.0209, -0.9449 0.7677 0.0, -0.9449 1.0506 0.0, -0.9449 1.078 0.0054, -0.9449 0.0995 0.2205, -0.9449 0.0995 0.0389, -0.9449 0.7672 0.2205, -1.0236 0.8858 0.1575, -1.0236 0.7672 0.2205, -1.0236 1.0507 0.1575, -1.0236 1.078 0.152, -1.0236 1.1011 0.1366, -1.0236 1.122 0.0861, -1.0236 0.6941 0.0389, -1.0236 0.0995 0.2205, -1.0236 1.1166 0.1134, -1.0236 1.122 0.0714, -1.0236 1.1166 0.0441, -1.0236 1.1011 0.0209, -1.0236 1.078 0.0054, -1.0236 1.0506 0.0, -1.0236 0.7677 0.0, -1.0236 0.0995 0.0389, -0.4528 0.8858 0.1575, -0.4528 1.122 0.0861, -0.4528 1.1166 0.1134, -0.4528 1.1011 0.1366, -0.4528 1.0507 0.1575, -0.4528 1.078 0.152, -0.4528 0.6941 0.0389, -0.4528 1.122 0.0714, -0.4528 1.1166 0.0441, -0.4528 1.1011 0.0209, -0.4528 0.7677 0.0, -0.4528 1.0506 0.0, -0.4528 1.078 0.0054, -0.4528 0.0995 0.2205, -0.4528 0.0995 0.0389, -0.4528 0.7672 0.2205, -0.5315 0.8858 0.1575, -0.5315 0.7672 0.2205, -0.5315 1.0507 0.1575, -0.5315 1.078 0.152, -0.5315 1.1011 0.1366, -0.5315 1.122 0.0861, -0.5315 0.6941 0.0389, -0.5315 0.0995 0.2205, -0.5315 1.1166 0.1134, -0.5315 1.122 0.0714, -0.5315 1.1166 0.0441, -0.5315 1.1011 0.0209, -0.5315 1.078 0.0054, -0.5315 1.0506 0.0, -0.5315 0.7677 0.0, -0.5315 0.0995 0.0389, 0.0394 0.8858 0.1575, 0.0394 1.122 0.0861, 0.0394 1.1166 0.1134, 0.0394 1.1011 0.1366, 0.0394 1.0507 0.1575, 0.0394 1.078 0.152, 0.0394 0.6941 0.0389, 0.0394 1.122 0.0714, 0.0394 1.1166 0.0441, 0.0394 1.1011 0.0209, 0.0394 0.7677 0.0, 0.0394 1.0506 0.0, 0.0394 1.078 0.0054, 0.0394 0.0995 0.2205, 0.0394 0.0995 0.0389, 0.0394 0.7672 0.2205, -0.0394 0.8858 0.1575, -0.0394 0.7672 0.2205, -0.0394 1.0507 0.1575, -0.0394 1.078 0.152, -0.0394 1.1011 0.1366, -0.0394 1.122 0.0861, -0.0394 0.6941 0.0389, -0.0394 0.0995 0.2205, -0.0394 1.1166 0.1134, -0.0394 1.122 0.0714, -0.0394 1.1166 0.0441, -0.0394 1.1011 0.0209, -0.0394 1.078 0.0054, -0.0394 1.0506 0.0, -0.0394 0.7677 0.0, -0.0394 0.0995 0.0389, 0.4528 0.0995 0.2205, 0.4528 0.0995 0.0389, 0.4528 0.6941 0.0389, 0.4528 1.0507 0.1575, 0.4528 1.078 0.152, 0.4528 1.1011 0.1366, 0.4528 1.122 0.0861, 0.4528 1.1166 0.1134, 0.4528 1.122 0.0714, 0.4528 1.1166 0.0441, 0.4528 1.1011 0.0209, 0.4528 1.078 0.0054, 1.0236 0.8858 0.1575, 1.0236 1.122 0.0861, 1.0236 1.1166 0.1134, 1.0236 1.1011 0.1366, 1.0236 1.0507 0.1575, 1.0236 1.078 0.152, 1.0236 0.6941 0.0389, 1.0236 1.122 0.0714, 1.0236 1.1166 0.0441, 1.0236 1.1011 0.0209, 1.0236 0.7677 0.0, 1.0236 1.0506 0.0, 1.0236 1.078 0.0054, 1.0236 0.0995 0.2205, 1.0236 0.0995 0.0389, 1.0236 0.7672 0.2205, 0.9449 0.8858 0.1575, 0.9449 0.7672 0.2205, 0.9449 1.0507 0.1575, 0.9449 1.078 0.152, 0.9449 1.1011 0.1366, 0.9449 1.122 0.0861, 0.9449 0.6941 0.0389, 0.9449 0.0995 0.2205, 0.9449 1.1166 0.1134, 0.9449 1.122 0.0714, 0.9449 1.1166 0.0441, 0.9449 1.1011 0.0209, 0.9449 1.078 0.0054, 0.9449 1.0506 0.0, 0.9449 0.7677 0.0, 0.9449 0.0995 0.0389, 1.5157 0.8858 0.1575, 1.5157 1.122 0.0861, 1.5157 1.1166 0.1134, 1.5157 1.1011 0.1366, 1.5157 1.0507 0.1575, 1.5157 1.078 0.152, 1.5157 0.6941 0.0389, 1.5157 1.122 0.0714, 1.5157 1.1166 0.0441, 1.5157 1.1011 0.0209, 1.5157 0.7677 0.0, 1.5157 1.0506 0.0, 1.5157 1.078 0.0054, 1.5157 0.0995 0.2205, 1.5157 0.0995 0.0389, 1.5157 0.7672 0.2205, 1.437 0.8858 0.1575, 1.437 0.7672 0.2205, 1.437 1.0507 0.1575, 1.437 1.078 0.152, 1.437 1.1011 0.1366, 1.437 1.122 0.0861, 1.437 0.6941 0.0389, 1.437 0.0995 0.2205, 1.437 1.1166 0.1134, 1.437 1.122 0.0714, 1.437 1.1166 0.0441, 1.437 1.1011 0.0209, 1.437 1.078 0.0054, 1.437 1.0506 0.0, 1.437 0.7677 0.0, 1.437 0.0995 0.0389, 2.0079 0.8858 0.1575, 2.0079 1.122 0.0861, 2.0079 1.1166 0.1134, 2.0079 1.1011 0.1366, 2.0079 1.0507 0.1575, 2.0079 1.078 0.152, 2.0079 0.6941 0.0389, 2.0079 1.122 0.0714, 2.0079 1.1166 0.0441, 2.0079 1.1011 0.0209, 2.0079 0.7677 0.0, 2.0079 1.0506 0.0, 2.0079 1.078 0.0054, 2.0079 0.0995 0.2205, 2.0079 0.0995 0.0389, 2.0079 0.7672 0.2205, 1.9291 0.8858 0.1575, 1.9291 0.7672 0.2205, 1.9291 1.0507 0.1575, 1.9291 1.078 0.152, 1.9291 1.1011 0.1366, 1.9291 1.122 0.0861, 1.9291 0.6941 0.0389, 1.9291 0.0995 0.2205, 1.9291 1.1166 0.1134, 1.9291 1.122 0.0714, 1.9291 1.1166 0.0441, 1.9291 1.1011 0.0209, 1.9291 1.078 0.0054, 1.9291 1.0506 0.0, 1.9291 0.7677 0.0, 1.9291 0.0995 0.0389, 2.5 0.8858 0.1575, 2.5 1.122 0.0861, 2.5 1.1166 0.1134, 2.5 1.1011 0.1366, 2.5 1.0507 0.1575, 2.5 1.078 0.152, 2.5 0.6941 0.0389, 2.5 1.122 0.0714, 2.5 1.1166 0.0441, 2.5 1.1011 0.0209, 2.5 0.7677 0.0, 2.5 1.0506 0.0, 2.5 1.078 0.0054, 2.5 0.0995 0.2205, 2.5 0.0995 0.0389, 2.5 0.7672 0.2205, 2.4213 0.8858 0.1575, 2.4213 0.7672 0.2205, 2.4213 1.0507 0.1575, 2.4213 1.078 0.152, 2.4213 1.1011 0.1366, 2.4213 1.122 0.0861, 2.4213 0.6941 0.0389, 2.4213 0.0995 0.2205, 2.4213 1.1166 0.1134, 2.4213 1.122 0.0714, 2.4213 1.1166 0.0441, 2.4213 1.1011 0.0209, 2.4213 1.078 0.0054, 2.4213 1.0506 0.0, 2.4213 0.7677 0.0, 2.4213 0.0995 0.0389, -3.1496 -0.3092 1.5105, -3.2283 -0.3092 1.5105, -3.2283 -0.3092 0.2052, -3.1496 -0.3092 0.2052, -3.1496 0.8398 0.7808, -3.1496 0.8641 0.7981, -3.1496 0.8802 0.8232, -3.1496 0.7454 0.7315, -3.1496 0.8071 1.5105, -3.1496 0.8858 0.8524, -3.1496 0.7697 0.7488, -3.1496 -0.7677 -0.0394, -3.1496 -0.8465 0.0394, -3.1496 -0.8405 0.0092, -3.1496 -0.8234 -0.0163, -3.1496 0.7293 0.7064, -3.1496 0.4818 0.3751, -3.1496 0.5059 0.3924, -3.1496 0.7237 0.6771, -3.1496 0.6779 0.4717, -3.1496 0.7181 0.514, -3.1496 0.702 0.489, -3.1496 0.7237 0.5432, -3.1496 -0.8405 0.1565, -3.1496 -0.8465 0.1264, -3.1496 -0.7677 0.2052, -3.1496 -0.7979 -0.0334, -3.1496 0.4658 0.3501, -3.1496 0.0357 0.1009, -3.1496 0.4602 0.2577, -3.1496 0.4602 0.3209, -3.1496 0.3984 0.1808, -3.1496 0.4428 0.2084, -3.1496 0.4229 0.1908, -3.1496 0.4557 0.2315, -3.1496 -0.043 -0.0394, -3.1496 -0.0129 -0.0334, -3.1496 0.0127 -0.0163, -3.1496 0.0298 0.0092, -3.1496 0.0357 0.0394, -3.1496 -0.7979 0.1992, -3.1496 -0.8234 0.1821, -3.1496 0.8628 1.4874, -3.1496 0.8372 1.5045, -3.1496 0.8858 1.4318, -3.1496 0.8798 1.4619, -3.2283 0.8628 1.4874, -3.2283 0.8798 1.4619, -3.2283 0.8858 1.4318, -3.2283 0.8372 1.5045, -3.2283 0.8071 1.5105, -3.2283 0.8398 0.7808, -3.2283 0.8802 0.8232, -3.2283 0.8641 0.7981, -3.2283 -0.8405 0.0092, -3.2283 -0.7677 -0.0394, -3.2283 -0.8234 -0.0163, -3.2283 0.7697 0.7488, -3.2283 0.8858 0.8524, -3.2283 0.7454 0.7315, -3.2283 0.7237 0.6771, -3.2283 0.5059 0.3924, -3.2283 0.7293 0.7064, -3.2283 0.4818 0.3751, -3.2283 0.6779 0.4717, -3.2283 0.7181 0.514, -3.2283 0.702 0.489, -3.2283 0.7237 0.5432, -3.2283 -0.8465 0.1264, -3.2283 -0.8405 0.1565, -3.2283 -0.7677 0.2052, -3.2283 0.0357 0.1009, -3.2283 0.4658 0.3501, -3.2283 0.4602 0.3209, -3.2283 0.4602 0.2577, -3.2283 0.3984 0.1808, -3.2283 0.4428 0.2084, -3.2283 0.4229 0.1908, -3.2283 0.4557 0.2315, -3.2283 -0.8465 0.0394, -3.2283 -0.7979 -0.0334, -3.2283 0.0127 -0.0163, -3.2283 -0.0129 -0.0334, -3.2283 -0.043 -0.0394, -3.2283 0.0357 0.0394, -3.2283 0.0298 0.0092, -3.2283 -0.7979 0.1992, -3.2283 -0.8234 0.1821, 3.2283 -0.3092 0.2052, 3.1496 -0.3092 1.5105, 3.1496 -0.3092 0.2052, 3.2283 -0.3092 1.5105, 3.1496 0.8398 0.7808, 3.1496 0.8802 0.8232, 3.1496 0.8641 0.7981, 3.1496 -0.8405 0.0092, 3.1496 -0.7677 -0.0394, 3.1496 -0.8234 -0.0163, 3.1496 0.7697 0.7488, 3.1496 0.8858 0.8524, 3.1496 0.8858 1.4318, 3.1496 0.7454 0.7315, 3.1496 0.8071 1.5105, 3.1496 0.7237 0.6771, 3.1496 0.5059 0.3924, 3.1496 0.7293 0.7064, 3.1496 0.4818 0.3751, 3.1496 0.6779 0.4717, 3.1496 0.7181 0.514, 3.1496 0.702 0.489, 3.1496 0.7237 0.5432, 3.1496 -0.8465 0.1264, 3.1496 -0.8405 0.1565, 3.1496 -0.7677 0.2052, 3.1496 0.0357 0.1009, 3.1496 0.4658 0.3501, 3.1496 0.4602 0.3209, 3.1496 0.4602 0.2577, 3.1496 0.3984 0.1808, 3.1496 0.4428 0.2084, 3.1496 0.4229 0.1908, 3.1496 0.4557 0.2315, 3.1496 -0.8465 0.0394, 3.1496 -0.7979 -0.0334, 3.1496 0.0127 -0.0163, 3.1496 -0.0129 -0.0334, 3.1496 -0.043 -0.0394, 3.1496 0.0357 0.0394, 3.1496 0.0298 0.0092, 3.1496 -0.7979 0.1992, 3.1496 -0.8234 0.1821, 3.1496 0.8628 1.4874, 3.1496 0.8372 1.5045, 3.1496 0.8798 1.4619, 3.2283 0.8628 1.4874, 3.2283 0.8798 1.4619, 3.2283 0.8858 1.4318, 3.2283 0.8372 1.5045, 3.2283 0.8071 1.5105, 3.2283 0.8398 0.7808, 3.2283 0.8641 0.7981, 3.2283 0.8802 0.8232, 3.2283 0.7454 0.7315, 3.2283 0.8858 0.8524, 3.2283 0.7697 0.7488, 3.2283 -0.7677 -0.0394, 3.2283 -0.8465 0.0394, 3.2283 -0.8405 0.0092, 3.2283 -0.8234 -0.0163, 3.2283 0.7293 0.7064, 3.2283 0.4818 0.3751, 3.2283 0.5059 0.3924, 3.2283 0.7237 0.6771, 3.2283 0.6779 0.4717, 3.2283 0.7181 0.514, 3.2283 0.702 0.489, 3.2283 0.7237 0.5432, 3.2283 -0.8405 0.1565, 3.2283 -0.8465 0.1264, 3.2283 -0.7677 0.2052, 3.2283 -0.7979 -0.0334, 3.2283 0.4658 0.3501, 3.2283 0.0357 0.1009, 3.2283 0.4602 0.2577, 3.2283 0.4602 0.3209, 3.2283 0.3984 0.1808, 3.2283 0.4428 0.2084, 3.2283 0.4229 0.1908, 3.2283 0.4557 0.2315, 3.2283 -0.043 -0.0394, 3.2283 -0.0129 -0.0334, 3.2283 0.0127 -0.0163, 3.2283 0.0298 0.0092, 3.2283 0.0357 0.0394, 3.2283 -0.7979 0.1992, 3.2283 -0.8234 0.1821, 3.2283 -0.8234 0.1821
            ]
        }
        coordIndex [
            0,1,2,-1,0,2,3,-1,4,5,6,-1,7,4,6,-1,8,7,9,-1,10,11,5,-1,12,10,13,-1,13,0,3,-1,14,13,3,-1,12,11,10,-1,0,13,10,-1,5,4,10,-1,15,16,4,-1,4,17,15,-1,4,16,10,-1,4,7,8,-1,4,18,19,-1,4,19,17,-1,20,21,22,-1,21,20,23,-1,22,21,24,-1,25,26,20,-1,27,26,25,-1,23,20,26,-1,28,29,30,-1,31,32,30,-1,33,32,31,-1,32,28,30,-1,34,29,28,-1,35,32,33,-1,36,32,35,-1,37,32,36,-1,38,32,37,-1,39,37,36,-1,40,22,41,-1,22,40,20,-1,41,42,43,-1,40,43,44,-1,43,40,41,-1,44,45,40,-1,46,47,45,-1,45,47,40,-1,48,49,50,-1,51,52,50,-1,53,54,52,-1,53,52,51,-1,55,52,56,-1,57,55,58,-1,55,56,58,-1,54,56,52,-1,50,52,48,-1,48,52,59,-1,46,27,25,-1,46,25,47,-1,27,46,45,-1,27,45,26,-1,23,43,21,-1,23,26,44,-1,44,43,23,-1,26,45,44,-1,42,21,43,-1,24,42,41,-1,42,24,21,-1,24,41,22,-1,52,38,59,-1,38,52,32,-1,32,52,55,-1,32,55,28,-1,34,57,58,-1,28,57,34,-1,28,55,57,-1,34,58,29,-1,58,56,29,-1,29,56,30,-1,30,56,54,-1,30,54,31,-1,33,53,51,-1,31,53,33,-1,31,54,53,-1,33,51,35,-1,51,50,35,-1,35,50,36,-1,36,50,49,-1,36,49,39,-1,48,39,49,-1,39,48,37,-1,60,61,62,-1,63,64,61,-1,61,60,63,-1,64,63,65,-1,66,65,67,-1,65,63,67,-1,68,69,70,-1,71,72,73,-1,73,70,69,-1,74,72,71,-1,71,73,69,-1,69,68,75,-1,69,75,76,-1,77,69,78,-1,78,69,76,-1,76,79,78,-1,67,80,81,-1,67,81,66,-1,66,81,82,-1,66,82,65,-1,64,83,61,-1,64,65,84,-1,84,83,64,-1,65,82,84,-1,85,61,83,-1,62,85,86,-1,85,62,61,-1,62,86,60,-1,60,86,87,-1,60,87,63,-1,87,82,80,-1,86,85,83,-1,87,83,84,-1,83,87,86,-1,84,82,87,-1,82,81,80,-1,88,89,90,-1,91,89,92,-1,93,91,92,-1,92,89,88,-1,94,88,90,-1,95,93,92,-1,96,95,92,-1,97,96,92,-1,98,97,92,-1,99,96,97,-1,79,99,97,-1,79,97,78,-1,76,96,99,-1,76,99,79,-1,68,93,95,-1,70,93,68,-1,70,91,93,-1,68,95,75,-1,95,96,75,-1,75,96,76,-1,73,89,91,-1,73,91,70,-1,74,94,90,-1,71,94,74,-1,71,88,94,-1,74,90,72,-1,90,89,72,-1,72,89,73,-1,69,92,88,-1,69,88,71,-1,92,77,98,-1,77,92,69,-1,100,101,102,-1,103,104,101,-1,101,100,103,-1,104,103,105,-1,106,105,107,-1,105,103,107,-1,108,109,110,-1,111,112,113,-1,113,110,109,-1,114,112,111,-1,111,113,109,-1,109,108,115,-1,109,115,116,-1,117,109,118,-1,118,109,116,-1,116,119,118,-1,107,120,121,-1,107,121,106,-1,106,121,122,-1,106,122,105,-1,104,123,101,-1,104,105,124,-1,124,123,104,-1,105,122,124,-1,125,101,123,-1,102,125,126,-1,125,102,101,-1,102,126,100,-1,100,126,127,-1,100,127,103,-1,127,122,120,-1,126,125,123,-1,127,123,124,-1,123,127,126,-1,124,122,127,-1,122,121,120,-1,128,129,130,-1,131,129,132,-1,133,131,132,-1,132,129,128,-1,134,128,130,-1,135,133,132,-1,136,135,132,-1,137,136,132,-1,138,137,132,-1,139,136,137,-1,119,139,137,-1,119,137,118,-1,116,136,139,-1,116,139,119,-1,108,133,135,-1,110,133,108,-1,110,131,133,-1,108,135,115,-1,135,136,115,-1,115,136,116,-1,113,129,131,-1,113,131,110,-1,114,134,130,-1,111,134,114,-1,111,128,134,-1,114,130,112,-1,130,129,112,-1,112,129,113,-1,109,132,128,-1,109,128,111,-1,132,117,138,-1,117,132,109,-1,140,141,142,-1,143,144,141,-1,141,140,143,-1,144,143,145,-1,146,145,147,-1,145,143,147,-1,148,149,150,-1,151,152,153,-1,153,150,149,-1,154,152,151,-1,151,153,149,-1,149,148,155,-1,149,155,156,-1,157,149,158,-1,158,149,156,-1,156,159,158,-1,147,160,161,-1,147,161,146,-1,146,161,162,-1,146,162,145,-1,144,163,141,-1,144,145,164,-1,164,163,144,-1,145,162,164,-1,165,141,163,-1,142,165,166,-1,165,142,141,-1,142,166,140,-1,140,166,167,-1,140,167,143,-1,167,162,160,-1,166,165,163,-1,167,163,164,-1,163,167,166,-1,164,162,167,-1,162,161,160,-1,168,169,170,-1,171,169,172,-1,173,171,172,-1,172,169,168,-1,174,168,170,-1,175,173,172,-1,176,175,172,-1,177,176,172,-1,178,177,172,-1,179,176,177,-1,159,179,177,-1,159,177,158,-1,156,176,179,-1,156,179,159,-1,148,173,175,-1,150,173,148,-1,150,171,173,-1,148,175,155,-1,175,176,155,-1,155,176,156,-1,153,169,171,-1,153,171,150,-1,154,174,170,-1,151,174,154,-1,151,168,174,-1,154,170,152,-1,170,169,152,-1,152,169,153,-1,149,172,168,-1,149,168,151,-1,172,157,178,-1,157,172,149,-1,180,181,182,-1,183,184,181,-1,181,180,183,-1,184,183,185,-1,186,185,187,-1,185,183,187,-1,188,189,190,-1,191,192,193,-1,193,190,189,-1,194,192,191,-1,191,193,189,-1,189,188,195,-1,189,195,196,-1,197,189,198,-1,198,189,196,-1,196,199,198,-1,187,200,201,-1,187,201,186,-1,186,201,202,-1,186,202,185,-1,184,203,181,-1,184,185,204,-1,204,203,184,-1,185,202,204,-1,205,181,203,-1,182,205,206,-1,205,182,181,-1,182,206,180,-1,180,206,207,-1,180,207,183,-1,207,202,200,-1,206,205,203,-1,207,203,204,-1,203,207,206,-1,204,202,207,-1,202,201,200,-1,208,209,210,-1,211,209,212,-1,213,211,212,-1,212,209,208,-1,214,208,210,-1,215,213,212,-1,216,215,212,-1,217,216,212,-1,218,217,212,-1,219,216,217,-1,199,219,217,-1,199,217,198,-1,196,216,219,-1,196,219,199,-1,188,213,215,-1,190,213,188,-1,190,211,213,-1,188,215,195,-1,215,216,195,-1,195,216,196,-1,193,209,211,-1,193,211,190,-1,194,214,210,-1,191,214,194,-1,191,208,214,-1,194,210,192,-1,210,209,192,-1,192,209,193,-1,189,212,208,-1,189,208,191,-1,212,197,218,-1,197,212,189,-1,220,221,222,-1,223,224,221,-1,221,220,223,-1,224,223,225,-1,226,225,227,-1,225,223,227,-1,228,229,230,-1,231,232,233,-1,233,230,229,-1,234,232,231,-1,231,233,229,-1,229,228,235,-1,229,235,236,-1,237,229,238,-1,238,229,236,-1,236,239,238,-1,227,240,241,-1,227,241,226,-1,226,241,242,-1,226,242,225,-1,224,243,221,-1,224,225,244,-1,244,243,224,-1,225,242,244,-1,245,221,243,-1,222,245,246,-1,245,222,221,-1,222,246,220,-1,220,246,247,-1,220,247,223,-1,247,242,240,-1,246,245,243,-1,247,243,244,-1,243,247,246,-1,244,242,247,-1,242,241,240,-1,248,249,250,-1,251,249,252,-1,253,251,252,-1,252,249,248,-1,254,248,250,-1,255,253,252,-1,256,255,252,-1,257,256,252,-1,258,257,252,-1,259,256,257,-1,239,259,257,-1,239,257,238,-1,236,256,259,-1,236,259,239,-1,228,253,255,-1,230,253,228,-1,230,251,253,-1,228,255,235,-1,255,256,235,-1,235,256,236,-1,233,249,251,-1,233,251,230,-1,234,254,250,-1,231,254,234,-1,231,248,254,-1,234,250,232,-1,250,249,232,-1,232,249,233,-1,229,252,248,-1,229,248,231,-1,252,237,258,-1,237,252,229,-1,260,261,262,-1,263,264,261,-1,261,260,263,-1,264,263,265,-1,266,265,267,-1,265,263,267,-1,268,269,270,-1,271,272,273,-1,273,270,269,-1,274,272,271,-1,271,273,269,-1,269,268,275,-1,269,275,276,-1,277,269,278,-1,278,269,276,-1,276,279,278,-1,267,280,281,-1,267,281,266,-1,266,281,282,-1,266,282,265,-1,264,283,261,-1,264,265,284,-1,284,283,264,-1,265,282,284,-1,285,261,283,-1,262,285,286,-1,285,262,261,-1,262,286,260,-1,260,286,287,-1,260,287,263,-1,287,282,280,-1,286,285,283,-1,287,283,284,-1,283,287,286,-1,284,282,287,-1,282,281,280,-1,288,289,290,-1,291,289,292,-1,293,291,292,-1,292,289,288,-1,294,288,290,-1,295,293,292,-1,296,295,292,-1,297,296,292,-1,298,297,292,-1,299,296,297,-1,279,299,297,-1,279,297,278,-1,276,296,299,-1,276,299,279,-1,268,293,295,-1,270,293,268,-1,270,291,293,-1,268,295,275,-1,295,296,275,-1,275,296,276,-1,273,289,291,-1,273,291,270,-1,274,294,290,-1,271,294,274,-1,271,288,294,-1,274,290,272,-1,290,289,272,-1,272,289,273,-1,269,292,288,-1,269,288,271,-1,292,277,298,-1,277,292,269,-1,300,301,302,-1,303,304,301,-1,301,300,303,-1,304,303,305,-1,306,305,307,-1,305,303,307,-1,308,309,310,-1,311,312,313,-1,313,310,309,-1,314,312,311,-1,311,313,309,-1,309,308,315,-1,309,315,316,-1,317,309,318,-1,318,309,316,-1,316,319,318,-1,307,320,321,-1,307,321,306,-1,306,321,322,-1,306,322,305,-1,304,323,301,-1,304,305,324,-1,324,323,304,-1,305,322,324,-1,325,301,323,-1,302,325,326,-1,325,302,301,-1,302,326,300,-1,300,326,327,-1,300,327,303,-1,327,322,320,-1,326,325,323,-1,327,323,324,-1,323,327,326,-1,324,322,327,-1,322,321,320,-1,328,329,330,-1,331,329,332,-1,333,331,332,-1,332,329,328,-1,334,328,330,-1,335,333,332,-1,336,335,332,-1,337,336,332,-1,338,337,332,-1,339,336,337,-1,319,339,337,-1,319,337,318,-1,316,336,339,-1,316,339,319,-1,308,333,335,-1,310,333,308,-1,310,331,333,-1,308,335,315,-1,335,336,315,-1,315,336,316,-1,313,329,331,-1,313,331,310,-1,314,334,330,-1,311,334,314,-1,311,328,334,-1,314,330,312,-1,330,329,312,-1,312,329,313,-1,309,332,328,-1,309,328,311,-1,332,317,338,-1,317,332,309,-1,340,341,342,-1,343,344,341,-1,341,340,343,-1,344,343,345,-1,346,345,347,-1,345,343,347,-1,348,349,350,-1,351,352,353,-1,353,350,349,-1,354,352,351,-1,351,353,349,-1,349,348,355,-1,349,355,356,-1,357,349,358,-1,358,349,356,-1,356,359,358,-1,347,360,361,-1,347,361,346,-1,346,361,362,-1,346,362,345,-1,344,363,341,-1,344,345,364,-1,364,363,344,-1,345,362,364,-1,365,341,363,-1,342,365,366,-1,365,342,341,-1,342,366,340,-1,340,366,367,-1,340,367,343,-1,367,362,360,-1,366,365,363,-1,367,363,364,-1,363,367,366,-1,364,362,367,-1,362,361,360,-1,368,369,370,-1,371,369,372,-1,373,371,372,-1,372,369,368,-1,374,368,370,-1,375,373,372,-1,376,375,372,-1,377,376,372,-1,378,377,372,-1,379,376,377,-1,359,379,377,-1,359,377,358,-1,356,376,379,-1,356,379,359,-1,348,373,375,-1,350,373,348,-1,350,371,373,-1,348,375,355,-1,375,376,355,-1,355,376,356,-1,353,369,371,-1,353,371,350,-1,354,374,370,-1,351,374,354,-1,351,368,374,-1,354,370,352,-1,370,369,352,-1,352,369,353,-1,349,372,368,-1,349,368,351,-1,372,357,378,-1,357,372,349,-1,380,381,382,-1,383,384,381,-1,381,380,383,-1,384,383,385,-1,386,385,387,-1,385,383,387,-1,388,389,390,-1,391,392,393,-1,393,390,389,-1,394,392,391,-1,391,393,389,-1,389,388,395,-1,389,395,396,-1,397,389,398,-1,398,389,396,-1,396,399,398,-1,387,400,401,-1,387,401,386,-1,386,401,402,-1,386,402,385,-1,384,403,381,-1,384,385,404,-1,404,403,384,-1,385,402,404,-1,405,381,403,-1,382,405,406,-1,405,382,381,-1,382,406,380,-1,380,406,407,-1,380,407,383,-1,407,402,400,-1,406,405,403,-1,407,403,404,-1,403,407,406,-1,404,402,407,-1,402,401,400,-1,408,409,410,-1,411,409,412,-1,413,411,412,-1,412,409,408,-1,414,408,410,-1,415,413,412,-1,416,415,412,-1,417,416,412,-1,418,417,412,-1,419,416,417,-1,399,419,417,-1,399,417,398,-1,396,416,419,-1,396,419,399,-1,388,413,415,-1,390,413,388,-1,390,411,413,-1,388,415,395,-1,415,416,395,-1,395,416,396,-1,393,409,411,-1,393,411,390,-1,394,414,410,-1,391,414,394,-1,391,408,414,-1,394,410,392,-1,410,409,392,-1,392,409,393,-1,389,412,408,-1,389,408,391,-1,412,397,418,-1,397,412,389,-1,420,421,422,-1,423,424,421,-1,421,420,423,-1,424,423,425,-1,426,425,427,-1,425,423,427,-1,428,429,430,-1,431,432,433,-1,433,430,429,-1,434,432,431,-1,431,433,429,-1,429,428,435,-1,429,435,436,-1,437,429,438,-1,438,429,436,-1,436,439,438,-1,427,440,441,-1,427,441,426,-1,426,441,442,-1,426,442,425,-1,424,443,421,-1,424,425,444,-1,444,443,424,-1,425,442,444,-1,445,421,443,-1,422,445,446,-1,445,422,421,-1,422,446,420,-1,420,446,447,-1,420,447,423,-1,447,442,440,-1,446,445,443,-1,447,443,444,-1,443,447,446,-1,444,442,447,-1,442,441,440,-1,448,449,450,-1,451,449,452,-1,453,451,452,-1,452,449,448,-1,454,448,450,-1,455,453,452,-1,456,455,452,-1,457,456,452,-1,458,457,452,-1,459,456,457,-1,439,459,457,-1,439,457,438,-1,436,456,459,-1,436,459,439,-1,428,453,455,-1,430,453,428,-1,430,451,453,-1,428,455,435,-1,455,456,435,-1,435,456,436,-1,433,449,451,-1,433,451,430,-1,434,454,450,-1,431,454,434,-1,431,448,454,-1,434,450,432,-1,450,449,432,-1,432,449,433,-1,429,452,448,-1,429,448,431,-1,452,437,458,-1,437,452,429,-1,460,461,462,-1,460,462,463,-1,463,462,464,-1,463,464,465,-1,465,464,466,-1,465,466,467,-1,467,466,468,-1,467,468,469,-1,469,468,470,-1,469,470,471,-1,471,470,461,-1,471,461,460,-1,466,470,468,-1,466,462,461,-1,466,464,462,-1,470,466,461,-1,472,473,474,-1,475,476,477,-1,478,479,480,-1,481,482,483,-1,483,484,485,-1,486,479,487,-1,488,489,480,-1,490,491,488,-1,492,491,490,-1,490,493,492,-1,474,494,495,-1,493,496,497,-1,498,499,472,-1,500,499,498,-1,501,500,498,-1,502,503,504,-1,505,506,504,-1,507,508,505,-1,477,476,507,-1,485,509,510,-1,476,508,507,-1,508,506,505,-1,506,502,504,-1,503,501,504,-1,503,500,501,-1,472,499,473,-1,473,494,474,-1,494,496,495,-1,495,496,493,-1,497,492,493,-1,488,491,489,-1,480,489,478,-1,478,487,479,-1,486,481,479,-1,486,482,481,-1,482,484,483,-1,484,509,485,-1,509,511,510,-1,512,513,514,-1,513,515,514,-1,512,516,517,-1,515,518,519,-1,520,521,522,-1,522,514,520,-1,520,514,515,-1,518,515,513,-1,513,512,517,-1,516,523,517,-1,524,525,526,-1,527,525,524,-1,527,528,525,-1,527,529,528,-1,530,531,532,-1,533,531,534,-1,535,533,534,-1,535,536,533,-1,536,535,537,-1,528,538,532,-1,539,537,540,-1,541,540,542,-1,543,544,545,-1,539,536,537,-1,546,545,547,-1,534,531,530,-1,530,532,538,-1,538,528,529,-1,546,548,526,-1,548,524,526,-1,548,546,547,-1,547,545,544,-1,549,543,541,-1,544,543,549,-1,540,541,539,-1,549,541,542,-1,550,551,552,-1,553,554,555,-1,553,556,554,-1,557,550,558,-1,552,556,558,-1,552,558,550,-1,551,559,560,-1,556,553,558,-1,551,560,552,-1,560,559,556,-1,554,556,559,-1,561,510,511,-1,561,511,562,-1,562,511,509,-1,562,509,563,-1,563,509,484,-1,563,484,564,-1,564,484,482,-1,564,482,565,-1,565,482,486,-1,565,486,566,-1,566,486,487,-1,566,487,567,-1,567,487,478,-1,567,478,568,-1,568,478,489,-1,568,489,569,-1,569,489,491,-1,569,491,570,-1,570,491,492,-1,570,492,571,-1,571,492,497,-1,571,497,572,-1,572,497,496,-1,572,496,573,-1,573,496,494,-1,573,494,574,-1,574,494,473,-1,574,473,575,-1,575,473,499,-1,575,499,576,-1,576,499,500,-1,576,500,577,-1,577,500,503,-1,577,503,578,-1,578,503,502,-1,578,502,579,-1,579,502,506,-1,579,506,580,-1,580,506,508,-1,580,508,581,-1,581,508,476,-1,581,476,582,-1,582,476,475,-1,582,475,583,-1,583,475,477,-1,583,477,584,-1,584,477,507,-1,584,507,585,-1,585,507,505,-1,585,505,586,-1,586,505,504,-1,586,504,587,-1,587,504,501,-1,587,501,588,-1,588,501,498,-1,588,498,589,-1,589,498,472,-1,589,472,590,-1,590,472,474,-1,590,474,591,-1,591,474,495,-1,591,495,592,-1,592,495,493,-1,592,493,593,-1,593,493,490,-1,593,490,594,-1,594,490,488,-1,594,488,595,-1,595,488,480,-1,595,480,596,-1,596,480,479,-1,596,479,597,-1,597,479,481,-1,597,481,598,-1,598,481,483,-1,598,483,599,-1,599,483,485,-1,599,485,600,-1,600,485,510,-1,600,510,561,-1,601,517,523,-1,601,523,602,-1,602,523,516,-1,602,516,603,-1,603,516,512,-1,603,512,604,-1,604,512,514,-1,604,514,605,-1,605,514,522,-1,605,522,606,-1,606,522,521,-1,606,521,607,-1,607,521,520,-1,607,520,608,-1,608,520,515,-1,608,515,609,-1,609,515,519,-1,609,519,610,-1,610,519,518,-1,610,518,611,-1,611,518,513,-1,611,513,612,-1,612,513,517,-1,612,517,601,-1,613,540,537,-1,613,537,614,-1,614,537,535,-1,614,535,615,-1,615,535,534,-1,615,534,616,-1,616,534,530,-1,616,530,617,-1,617,530,538,-1,617,538,618,-1,618,538,529,-1,618,529,619,-1,619,529,527,-1,619,527,620,-1,620,527,524,-1,620,524,621,-1,621,524,548,-1,621,548,622,-1,622,548,547,-1,622,547,623,-1,623,547,544,-1,623,544,624,-1,624,544,549,-1,624,549,625,-1,625,549,542,-1,625,542,626,-1,626,542,540,-1,626,540,613,-1,627,536,539,-1,627,539,628,-1,628,539,541,-1,628,541,629,-1,629,541,543,-1,629,543,630,-1,630,543,545,-1,630,545,631,-1,631,545,546,-1,631,546,632,-1,632,546,526,-1,632,526,633,-1,633,526,525,-1,633,525,634,-1,634,525,528,-1,634,528,635,-1,635,528,532,-1,635,532,636,-1,636,532,531,-1,636,531,637,-1,637,531,533,-1,637,533,638,-1,638,533,536,-1,638,536,627,-1,639,559,551,-1,639,551,640,-1,640,551,550,-1,640,550,641,-1,641,550,557,-1,641,557,642,-1,642,557,558,-1,642,558,643,-1,643,558,553,-1,643,553,644,-1,644,553,555,-1,644,555,645,-1,645,555,554,-1,645,554,646,-1,646,554,559,-1,646,559,639,-1,647,552,560,-1,647,560,648,-1,648,560,556,-1,648,556,649,-1,649,556,552,-1,649,552,647,-1,650,651,652,-1,653,654,655,-1,656,657,654,-1,654,658,651,-1,651,650,654,-1,658,654,653,-1,655,659,660,-1,661,662,663,-1,655,661,659,-1,655,664,661,-1,661,664,662,-1,660,653,655,-1,655,654,665,-1,665,654,657,-1,666,654,667,-1,654,666,656,-1,668,669,667,-1,670,671,672,-1,673,674,675,-1,667,672,676,-1,672,667,670,-1,676,677,667,-1,678,679,680,-1,674,681,675,-1,678,680,674,-1,678,677,679,-1,678,674,673,-1,678,667,677,-1,678,668,667,-1,669,666,667,-1,668,665,657,-1,668,657,669,-1,665,668,678,-1,665,678,655,-1,655,678,673,-1,655,673,664,-1,664,673,675,-1,664,675,662,-1,663,674,661,-1,663,662,681,-1,681,674,663,-1,662,675,681,-1,680,661,674,-1,659,680,679,-1,680,659,661,-1,659,679,660,-1,660,679,677,-1,660,677,653,-1,658,672,651,-1,658,653,676,-1,676,672,658,-1,653,677,676,-1,671,651,672,-1,652,671,670,-1,671,652,651,-1,652,670,650,-1,650,670,667,-1,650,667,654,-1,682,683,684,-1,685,682,684,-1,686,685,687,-1,688,689,683,-1,690,688,691,-1,691,692,693,-1,694,691,693,-1,690,689,688,-1,692,691,688,-1,683,682,688,-1,695,696,682,-1,682,697,695,-1,682,696,688,-1,682,685,686,-1,682,698,699,-1,682,699,697,-1,700,701,702,-1,703,704,698,-1,699,698,705,-1,698,702,706,-1,702,698,700,-1,706,703,698,-1,704,707,708,-1,709,710,711,-1,704,708,709,-1,704,709,712,-1,709,711,712,-1,707,704,703,-1,704,713,698,-1,713,705,698,-1,695,705,713,-1,695,713,696,-1,696,713,704,-1,696,704,688,-1,688,704,712,-1,688,712,692,-1,692,712,711,-1,692,711,693,-1,694,709,691,-1,694,693,710,-1,710,709,694,-1,693,711,710,-1,708,691,709,-1,690,708,707,-1,708,690,691,-1,690,707,689,-1,689,707,703,-1,689,703,683,-1,684,702,685,-1,684,683,706,-1,706,702,684,-1,683,703,706,-1,701,685,702,-1,687,701,700,-1,701,687,685,-1,687,700,686,-1,686,700,698,-1,686,698,682,-1,714,715,716,-1,717,714,716,-1,718,717,719,-1,720,721,715,-1,722,720,723,-1,723,724,725,-1,726,723,725,-1,722,721,720,-1,724,723,720,-1,715,714,720,-1,727,728,714,-1,714,729,727,-1,714,728,720,-1,714,717,718,-1,714,730,731,-1,714,731,729,-1,732,733,734,-1,735,736,730,-1,731,730,737,-1,730,734,738,-1,734,730,732,-1,738,735,730,-1,736,739,740,-1,741,742,743,-1,736,740,741,-1,736,741,744,-1,741,743,744,-1,739,736,735,-1,736,745,730,-1,745,737,730,-1,727,737,745,-1,727,745,728,-1,728,745,736,-1,728,736,720,-1,720,736,744,-1,720,744,724,-1,724,744,743,-1,724,743,725,-1,726,741,723,-1,726,725,742,-1,742,741,726,-1,725,743,742,-1,740,723,741,-1,722,740,739,-1,740,722,723,-1,722,739,721,-1,721,739,735,-1,721,735,715,-1,716,734,717,-1,716,715,738,-1,738,734,716,-1,715,735,738,-1,733,717,734,-1,719,733,732,-1,733,719,717,-1,719,732,718,-1,718,732,730,-1,718,730,714,-1,746,747,748,-1,749,746,748,-1,750,749,751,-1,752,753,747,-1,754,752,755,-1,755,756,757,-1,758,755,757,-1,754,753,752,-1,756,755,752,-1,747,746,752,-1,759,760,746,-1,746,761,759,-1,746,760,752,-1,746,749,750,-1,746,762,763,-1,746,763,761,-1,764,765,766,-1,767,768,762,-1,763,762,769,-1,762,766,770,-1,766,762,764,-1,770,767,762,-1,768,771,772,-1,773,774,775,-1,768,772,773,-1,768,773,776,-1,773,775,776,-1,771,768,767,-1,768,777,762,-1,777,769,762,-1,759,769,777,-1,759,777,760,-1,760,777,768,-1,760,768,752,-1,752,768,776,-1,752,776,756,-1,756,776,775,-1,756,775,757,-1,758,773,755,-1,758,757,774,-1,774,773,758,-1,757,775,774,-1,772,755,773,-1,754,772,771,-1,772,754,755,-1,754,771,753,-1,753,771,767,-1,753,767,747,-1,748,766,749,-1,748,747,770,-1,770,766,748,-1,747,767,770,-1,765,749,766,-1,751,765,764,-1,765,751,749,-1,751,764,750,-1,750,764,762,-1,750,762,746,-1,778,779,780,-1,781,778,780,-1,782,781,783,-1,784,785,779,-1,786,784,787,-1,787,788,789,-1,790,787,789,-1,786,785,784,-1,788,787,784,-1,779,778,784,-1,791,792,778,-1,778,793,791,-1,778,792,784,-1,778,781,782,-1,778,794,795,-1,778,795,793,-1,796,797,798,-1,799,800,794,-1,795,794,801,-1,794,798,802,-1,798,794,796,-1,802,799,794,-1,800,803,804,-1,805,806,807,-1,800,804,805,-1,800,805,808,-1,805,807,808,-1,803,800,799,-1,800,809,794,-1,809,801,794,-1,791,801,809,-1,791,809,792,-1,792,809,800,-1,792,800,784,-1,784,800,808,-1,784,808,788,-1,788,808,807,-1,788,807,789,-1,790,805,787,-1,790,789,806,-1,806,805,790,-1,789,807,806,-1,804,787,805,-1,786,804,803,-1,804,786,787,-1,786,803,785,-1,785,803,799,-1,785,799,779,-1,780,798,781,-1,780,779,802,-1,802,798,780,-1,779,799,802,-1,797,781,798,-1,783,797,796,-1,797,783,781,-1,783,796,782,-1,782,796,794,-1,782,794,778,-1,810,811,812,-1,813,810,812,-1,814,813,815,-1,816,817,811,-1,818,816,819,-1,819,820,821,-1,822,819,821,-1,818,817,816,-1,820,819,816,-1,811,810,816,-1,823,824,810,-1,810,825,823,-1,810,824,816,-1,810,813,814,-1,810,826,827,-1,810,827,825,-1,828,829,830,-1,831,832,826,-1,827,826,833,-1,826,830,834,-1,830,826,828,-1,834,831,826,-1,832,835,836,-1,837,838,839,-1,832,836,837,-1,832,837,840,-1,837,839,840,-1,835,832,831,-1,832,841,826,-1,841,833,826,-1,823,833,841,-1,823,841,824,-1,824,841,832,-1,824,832,816,-1,816,832,840,-1,816,840,820,-1,820,840,839,-1,820,839,821,-1,822,837,819,-1,822,821,838,-1,838,837,822,-1,821,839,838,-1,836,819,837,-1,818,836,835,-1,836,818,819,-1,818,835,817,-1,817,835,831,-1,817,831,811,-1,812,830,813,-1,812,811,834,-1,834,830,812,-1,811,831,834,-1,829,813,830,-1,815,829,828,-1,829,815,813,-1,815,828,814,-1,814,828,826,-1,814,826,810,-1,15,842,843,-1,15,843,16,-1,16,843,844,-1,16,844,10,-1,10,844,1,-1,10,1,0,-1,845,846,847,-1,848,844,18,-1,19,18,842,-1,18,847,849,-1,847,18,845,-1,849,848,18,-1,844,850,851,-1,852,853,2,-1,844,851,852,-1,844,852,1,-1,852,2,1,-1,850,844,848,-1,844,843,18,-1,843,842,18,-1,14,852,13,-1,14,3,853,-1,853,852,14,-1,3,2,853,-1,851,13,852,-1,12,851,850,-1,851,12,13,-1,12,850,11,-1,11,850,848,-1,11,848,5,-1,6,847,7,-1,6,5,849,-1,849,847,6,-1,5,848,849,-1,846,7,847,-1,9,846,845,-1,846,9,7,-1,9,845,8,-1,8,845,18,-1,8,18,4,-1,854,855,856,-1,857,854,856,-1,858,857,859,-1,860,861,855,-1,862,860,863,-1,863,864,865,-1,866,863,865,-1,862,861,860,-1,864,863,860,-1,855,854,860,-1,867,868,854,-1,854,869,867,-1,854,868,860,-1,854,857,858,-1,854,870,871,-1,854,871,869,-1,872,873,874,-1,875,876,870,-1,871,870,877,-1,870,874,878,-1,874,870,872,-1,878,875,870,-1,876,879,880,-1,881,882,883,-1,876,880,881,-1,876,881,884,-1,881,883,884,-1,879,876,875,-1,876,885,870,-1,885,877,870,-1,867,877,885,-1,867,885,868,-1,868,885,876,-1,868,876,860,-1,860,876,884,-1,860,884,864,-1,864,884,883,-1,864,883,865,-1,866,881,863,-1,866,865,882,-1,882,881,866,-1,865,883,882,-1,880,863,881,-1,862,880,879,-1,880,862,863,-1,862,879,861,-1,861,879,875,-1,861,875,855,-1,856,874,857,-1,856,855,878,-1,878,874,856,-1,855,875,878,-1,873,857,874,-1,859,873,872,-1,873,859,857,-1,859,872,858,-1,858,872,870,-1,858,870,854,-1,886,887,888,-1,889,886,888,-1,890,889,891,-1,892,893,887,-1,894,892,895,-1,895,896,897,-1,898,895,897,-1,894,893,892,-1,896,895,892,-1,887,886,892,-1,899,900,886,-1,886,901,899,-1,886,900,892,-1,886,889,890,-1,886,902,903,-1,886,903,901,-1,904,905,906,-1,907,908,902,-1,903,902,909,-1,902,906,910,-1,906,902,904,-1,910,907,902,-1,908,911,912,-1,913,914,915,-1,908,912,913,-1,908,913,916,-1,913,915,916,-1,911,908,907,-1,908,917,902,-1,917,909,902,-1,899,909,917,-1,899,917,900,-1,900,917,908,-1,900,908,892,-1,892,908,916,-1,892,916,896,-1,896,916,915,-1,896,915,897,-1,898,913,895,-1,898,897,914,-1,914,913,898,-1,897,915,914,-1,912,895,913,-1,894,912,911,-1,912,894,895,-1,894,911,893,-1,893,911,907,-1,893,907,887,-1,888,906,889,-1,888,887,910,-1,910,906,888,-1,887,907,910,-1,905,889,906,-1,891,905,904,-1,905,891,889,-1,891,904,890,-1,890,904,902,-1,890,902,886,-1,918,919,920,-1,921,918,920,-1,922,921,923,-1,924,925,919,-1,926,924,927,-1,927,928,929,-1,930,927,929,-1,926,925,924,-1,928,927,924,-1,919,918,924,-1,931,932,918,-1,918,933,931,-1,918,932,924,-1,918,921,922,-1,918,934,935,-1,918,935,933,-1,936,937,938,-1,939,940,934,-1,935,934,941,-1,934,938,942,-1,938,934,936,-1,942,939,934,-1,940,943,944,-1,945,946,947,-1,940,944,945,-1,940,945,948,-1,945,947,948,-1,943,940,939,-1,940,949,934,-1,949,941,934,-1,931,941,949,-1,931,949,932,-1,932,949,940,-1,932,940,924,-1,924,940,948,-1,924,948,928,-1,928,948,947,-1,928,947,929,-1,930,945,927,-1,930,929,946,-1,946,945,930,-1,929,947,946,-1,944,927,945,-1,926,944,943,-1,944,926,927,-1,926,943,925,-1,925,943,939,-1,925,939,919,-1,920,938,921,-1,920,919,942,-1,942,938,920,-1,919,939,942,-1,937,921,938,-1,923,937,936,-1,937,923,921,-1,923,936,922,-1,922,936,934,-1,922,934,918,-1,950,951,952,-1,953,950,952,-1,954,953,955,-1,956,957,951,-1,958,956,959,-1,959,960,961,-1,962,959,961,-1,958,957,956,-1,960,959,956,-1,951,950,956,-1,963,964,950,-1,950,965,963,-1,950,964,956,-1,950,953,954,-1,950,966,967,-1,950,967,965,-1,968,969,970,-1,971,972,966,-1,967,966,973,-1,966,970,974,-1,970,966,968,-1,974,971,966,-1,972,975,976,-1,977,978,979,-1,972,976,977,-1,972,977,980,-1,977,979,980,-1,975,972,971,-1,972,981,966,-1,981,973,966,-1,963,973,981,-1,963,981,964,-1,964,981,972,-1,964,972,956,-1,956,972,980,-1,956,980,960,-1,960,980,979,-1,960,979,961,-1,962,977,959,-1,962,961,978,-1,978,977,962,-1,961,979,978,-1,976,959,977,-1,958,976,975,-1,976,958,959,-1,958,975,957,-1,957,975,971,-1,957,971,951,-1,952,970,953,-1,952,951,974,-1,974,970,952,-1,951,971,974,-1,969,953,970,-1,955,969,968,-1,969,955,953,-1,955,968,954,-1,954,968,966,-1,954,966,950,-1,982,983,984,-1,982,984,985,-1,986,987,988,-1,989,990,982,-1,986,988,991,-1,986,991,992,-1,993,994,995,-1,996,993,995,-1,997,998,999,-1,1000,999,1001,-1,1002,1001,1003,-1,1004,1000,1001,-1,1004,1001,1002,-1,997,999,1000,-1,1005,1006,1007,-1,996,1008,993,-1,1009,985,1010,-1,1011,1012,1013,-1,1014,1013,1015,-1,1013,1016,1011,-1,1014,1016,1013,-1,1017,1018,1019,-1,1012,1010,1013,-1,1010,1012,1009,-1,994,993,1006,-1,1017,1020,1021,-1,1019,1020,1017,-1,1017,1021,1010,-1,1022,1023,1007,-1,1007,1006,993,-1,1023,1005,1007,-1,1007,993,985,-1,993,1017,985,-1,997,982,998,-1,989,992,990,-1,997,989,982,-1,985,998,982,-1,1009,998,985,-1,1017,1010,985,-1,1024,1025,990,-1,990,992,1026,-1,990,1026,1027,-1,1024,990,1027,-1,992,991,1026,-1,1028,1024,1027,-1,1026,1029,1027,-1,1028,1027,1029,-1,1030,1029,1026,-1,1031,1024,1028,-1,1025,1031,1032,-1,1031,1025,1024,-1,1025,1032,990,-1,983,982,990,-1,983,990,1032,-1,1033,1034,1035,-1,1036,1037,1038,-1,1033,1039,1040,-1,1040,1034,1033,-1,1039,1030,1040,-1,1041,1032,1039,-1,1042,1043,1044,-1,983,1044,1045,-1,1042,1046,1043,-1,1047,1048,1046,-1,1049,1046,1042,-1,1049,1047,1046,-1,1043,1045,1044,-1,1050,1051,1052,-1,1053,984,1054,-1,1053,1054,1055,-1,1056,1057,1055,-1,1058,1059,1057,-1,1057,1056,1060,-1,1058,1057,1060,-1,1055,1057,1053,-1,1037,1036,1061,-1,1062,1038,1037,-1,1063,1064,1065,-1,1065,1066,1067,-1,1063,1065,1067,-1,1065,1053,1066,-1,1068,1052,1069,-1,1052,1051,1069,-1,1050,1037,1061,-1,1052,1037,1050,-1,1037,1052,984,-1,1065,1037,984,-1,983,1032,1041,-1,1044,983,1041,-1,984,983,1045,-1,1054,984,1045,-1,1065,984,1053,-1,1028,1032,1031,-1,1032,1030,1039,-1,1030,1032,1029,-1,1028,1029,1032,-1,1052,985,984,-1,985,1052,1007,-1,1069,1023,1022,-1,1007,1068,1022,-1,1069,1022,1068,-1,1052,1068,1007,-1,1051,1023,1069,-1,1005,1051,1050,-1,1051,1005,1023,-1,1005,1050,1006,-1,1061,1006,1050,-1,1006,1061,994,-1,1038,996,995,-1,994,1036,995,-1,1038,995,1036,-1,1061,1036,994,-1,1062,996,1038,-1,1008,1062,1037,-1,1062,1008,996,-1,1008,1037,993,-1,1065,993,1037,-1,993,1065,1017,-1,1063,1019,1018,-1,1017,1064,1018,-1,1063,1018,1064,-1,1065,1064,1017,-1,1067,1019,1063,-1,1020,1067,1066,-1,1067,1020,1019,-1,1020,1066,1021,-1,1053,1010,1021,-1,1053,1021,1066,-1,1057,1010,1053,-1,1010,1057,1013,-1,1058,1014,1015,-1,1013,1059,1015,-1,1058,1015,1059,-1,1057,1059,1013,-1,1060,1014,1058,-1,1016,1060,1056,-1,1060,1016,1014,-1,1016,1056,1011,-1,1055,1012,1011,-1,1055,1011,1056,-1,998,1054,1045,-1,999,998,1045,-1,999,1045,1043,-1,998,1009,1054,-1,1054,1009,1055,-1,1009,1012,1055,-1,1046,999,1043,-1,999,1046,1001,-1,1048,1047,1003,-1,1001,1046,1048,-1,1048,1003,1001,-1,1003,1047,1002,-1,1047,1049,1002,-1,1002,1049,1004,-1,1042,1000,1004,-1,1042,1004,1049,-1,989,1044,1041,-1,992,989,1041,-1,992,1041,1039,-1,989,997,1044,-1,1044,997,1042,-1,997,1000,1042,-1,1033,992,1039,-1,992,1033,986,-1,1035,1034,987,-1,986,1033,1035,-1,1035,987,986,-1,987,1034,988,-1,1034,1040,988,-1,988,1040,991,-1,1030,991,1040,-1,991,1030,1026,-1,1070,1071,1072,-1,1070,1073,1071,-1,1074,1075,1076,-1,1077,1078,1079,-1,1074,1080,1081,-1,1081,1075,1074,-1,1080,1082,1081,-1,1083,1084,1080,-1,1085,1086,1087,-1,1071,1087,1088,-1,1085,1089,1086,-1,1090,1091,1089,-1,1092,1089,1085,-1,1092,1090,1089,-1,1086,1088,1087,-1,1093,1094,1095,-1,1096,1072,1097,-1,1096,1097,1098,-1,1099,1100,1098,-1,1101,1102,1100,-1,1100,1099,1103,-1,1101,1100,1103,-1,1098,1100,1096,-1,1078,1077,1104,-1,1105,1079,1078,-1,1106,1107,1108,-1,1108,1109,1110,-1,1106,1108,1110,-1,1108,1096,1109,-1,1111,1095,1112,-1,1095,1094,1112,-1,1093,1078,1104,-1,1095,1078,1093,-1,1078,1095,1072,-1,1108,1078,1072,-1,1071,1084,1083,-1,1087,1071,1083,-1,1072,1071,1088,-1,1097,1072,1088,-1,1108,1072,1096,-1,1113,1084,1114,-1,1084,1082,1080,-1,1082,1084,1115,-1,1113,1115,1084,-1,1113,1116,1117,-1,1118,1115,1117,-1,1113,1117,1115,-1,1082,1115,1118,-1,1114,1116,1113,-1,1119,1114,1084,-1,1114,1119,1116,-1,1119,1084,1120,-1,1121,1122,1123,-1,1124,1120,1073,-1,1121,1123,1125,-1,1121,1125,1126,-1,1127,1128,1129,-1,1130,1127,1129,-1,1131,1132,1133,-1,1134,1133,1135,-1,1136,1135,1137,-1,1138,1134,1135,-1,1138,1135,1136,-1,1131,1133,1134,-1,1139,1140,1141,-1,1130,1142,1127,-1,1143,1070,1144,-1,1145,1146,1147,-1,1148,1147,1149,-1,1147,1150,1145,-1,1148,1150,1147,-1,1151,1152,1153,-1,1146,1144,1147,-1,1144,1146,1143,-1,1128,1127,1140,-1,1151,1154,1155,-1,1153,1154,1151,-1,1151,1155,1144,-1,1156,1157,1141,-1,1141,1140,1127,-1,1157,1139,1141,-1,1141,1127,1070,-1,1127,1151,1070,-1,1131,1073,1132,-1,1124,1126,1120,-1,1131,1124,1073,-1,1070,1132,1073,-1,1143,1132,1070,-1,1151,1144,1070,-1,1116,1119,1120,-1,1120,1126,1118,-1,1120,1118,1117,-1,1116,1120,1117,-1,1126,1125,1118,-1,1081,1118,1125,-1,1081,1082,1118,-1,1076,1075,1122,-1,1121,1074,1076,-1,1076,1122,1121,-1,1122,1075,1123,-1,1075,1081,1123,-1,1123,1081,1125,-1,1080,1121,1126,-1,1080,1074,1121,-1,1124,1087,1083,-1,1126,1124,1083,-1,1126,1083,1080,-1,1124,1131,1087,-1,1087,1131,1085,-1,1131,1134,1085,-1,1134,1138,1092,-1,1092,1085,1134,-1,1091,1090,1137,-1,1135,1089,1091,-1,1091,1137,1135,-1,1137,1090,1136,-1,1090,1092,1136,-1,1136,1092,1138,-1,1086,1135,1133,-1,1086,1089,1135,-1,1132,1097,1088,-1,1133,1088,1086,-1,1132,1088,1133,-1,1143,1097,1132,-1,1097,1143,1098,-1,1143,1146,1098,-1,1146,1145,1099,-1,1099,1098,1146,-1,1101,1148,1149,-1,1147,1102,1149,-1,1101,1149,1102,-1,1100,1102,1147,-1,1103,1148,1101,-1,1150,1103,1099,-1,1103,1150,1148,-1,1150,1099,1145,-1,1096,1147,1144,-1,1096,1100,1147,-1,1144,1155,1109,-1,1109,1096,1144,-1,1106,1153,1152,-1,1151,1107,1152,-1,1106,1152,1107,-1,1108,1107,1151,-1,1110,1153,1106,-1,1154,1110,1109,-1,1110,1154,1153,-1,1154,1109,1155,-1,1078,1151,1127,-1,1078,1108,1151,-1,1079,1130,1129,-1,1128,1077,1129,-1,1079,1129,1077,-1,1104,1077,1128,-1,1105,1130,1079,-1,1142,1105,1078,-1,1105,1142,1130,-1,1142,1078,1127,-1,1093,1128,1140,-1,1093,1104,1128,-1,1112,1157,1156,-1,1141,1111,1156,-1,1112,1156,1111,-1,1095,1111,1141,-1,1094,1157,1112,-1,1139,1094,1093,-1,1094,1139,1157,-1,1139,1093,1140,-1,1072,1141,1070,-1,1072,1095,1141,-1,1073,1120,1084,-1,1084,1071,1073,-1,
        ]
    }
}
Shape{
    appearance Appearance {
        material  Material 	{
            diffuseColor 0.8470588235294118 0.803921568627451 0.7372549019607844
            specularColor 0.7529411764705882 0.7529411764705882 0.7529411764705882
            ambientIntensity 0.2
            transparency 0
            shininess 0.5
        }
    }
    geometry IndexedFaceSet {
        ccw TRUE
        solid FALSE
        coord DEF co Coordinate {
            point [
                -3.3465 0.4685 0.2205, -3.2677 0.5709 0.2205, -3.2677 0.4685 0.2205, -3.3465 0.5709 0.2205, 3.2677 0.4685 0.2205, 3.2677 0.5709 0.2205, 3.3465 0.5709 0.2205, 3.3465 0.4685 0.2205, -2.5 0.0995 0.2205, -2.5394 0.4685 0.2205, -2.5 0.7672 0.2205, 2.4213 0.7672 0.2205, 3.1102 0.8465 0.2205, 2.5 0.7672 0.2205, -2.0472 0.4685 0.2205, -2.3819 0.4685 0.2205, -2.0079 0.7672 0.2205, -1.9291 0.7672 0.2205, -1.5157 0.7672 0.2205, -1.8898 0.4685 0.2205, -1.5157 0.0995 0.2205, -1.5551 0.4685 0.2205, -1.0236 0.0995 0.2205, -1.063 0.4685 0.2205, -1.0236 0.7672 0.2205, -2.5394 -0.0197 0.2205, -1.3976 0.4685 0.2205, -0.0394 0.7672 0.2205, -0.4528 0.7672 0.2205, -3.1102 0.8465 0.2205, -2.0079 0.0995 0.2205, -2.0472 -0.0197 0.2205, -0.9055 0.4685 0.2205, -0.5315 0.7672 0.2205, -0.5709 0.4685 0.2205, 0.4134 0.4685 0.2205, 0.0787 0.4685 0.2205, 0.4528 0.7672 0.2205, -1.5551 -0.0197 0.2205, -0.0394 0.0995 0.2205, -0.0787 0.4685 0.2205, -1.063 -0.0197 0.2205, 0.9449 0.7672 0.2205, 0.5315 0.7672 0.2205, 1.063 0.4685 0.2205, 1.0236 0.7672 0.2205, 1.437 0.7672 0.2205, -0.5315 0.0995 0.2205, -0.5709 -0.0197 0.2205, 0.9449 0.0995 0.2205, 0.9055 0.4685 0.2205, 2.0079 0.7672 0.2205, 2.0472 0.4685 0.2205, 1.9291 0.7672 0.2205, 1.8898 0.4685 0.2205, 1.5551 0.4685 0.2205, 1.3976 0.4685 0.2205, 1.437 0.0995 0.2205, -0.0787 -0.0197 0.2205, 0.4528 0.0995 0.2205, 0.4134 -0.0197 0.2205, 1.5157 0.7672 0.2205, 0.9055 -0.0197 0.2205, 1.9291 0.0995 0.2205, 2.4213 0.0995 0.2205, 2.3819 0.4685 0.2205, 1.3976 -0.0197 0.2205, 2.3819 -0.0197 0.2205, 1.8898 -0.0197 0.2205, 2.5394 0.4685 0.2205, 3.1102 0.4685 0.2205, 2.5 0.0995 0.2205, 2.5394 -0.0197 0.2205, 0.5709 0.4685 0.2205, 2.0079 0.0995 0.2205, 2.0472 -0.0197 0.2205, 1.5157 0.0995 0.2205, 1.5551 -0.0197 0.2205, 0.0394 0.7672 0.2205, 1.0236 0.0995 0.2205, 1.063 -0.0197 0.2205, -0.4134 0.4685 0.2205, 0.5315 0.0995 0.2205, 0.5709 -0.0197 0.2205, 0.0394 0.0995 0.2205, 0.0787 -0.0197 0.2205, -0.9449 0.7672 0.2205, -0.4528 0.0995 0.2205, -0.4134 -0.0197 0.2205, -1.437 0.7672 0.2205, -0.9449 0.0995 0.2205, -0.9055 -0.0197 0.2205, -1.437 0.0995 0.2205, -1.3976 -0.0197 0.2205, -1.9291 0.0995 0.2205, -1.8898 -0.0197 0.2205, -2.4213 0.7672 0.2205, -2.4213 0.0995 0.2205, -2.3819 -0.0197 0.2205, -3.1102 0.4685 0.2205, -3.2677 0.4685 0.0, -3.2677 0.0591 0.2205, -3.2677 0.5709 1.4961, -3.2677 0.8465 1.4961, -3.2677 0.8465 1.5354, -3.2677 0.0591 0.0, -3.2677 -0.3346 0.2205, -3.2677 -0.3346 1.5354, -3.3465 0.4685 0.0, -3.3465 0.0591 0.0, 3.3465 0.0591 0.0, 3.2677 0.4685 0.0, 3.3465 0.4685 0.0, 3.2677 0.0591 0.0, 1.8898 0.4685 0.0, 1.8898 -0.0197 0.0, 1.5551 0.4685 0.0, 2.5394 -0.0197 0.0, 3.1102 0.4685 0.0, 3.1102 -0.8465 0.0, 1.063 -0.0197 0.0, 1.6437 -0.1969 0.0, 0.9055 -0.0197 0.0, 0.4134 -0.0197 0.0, 0.5709 -0.0197 0.0, 1.5551 -0.0197 0.0, 1.3976 -0.0197 0.0, 1.063 0.4685 0.0, 1.3976 0.4685 0.0, -1.6437 -0.1969 0.0, -0.0787 -0.0197 0.0, 0.0787 -0.0197 0.0, 0.5709 0.4685 0.0, 0.9055 0.4685 0.0, -0.9055 -0.0197 0.0, -0.5709 -0.0197 0.0, 0.0787 0.4685 0.0, 0.4134 0.4685 0.0, -2.6511 -0.5116 0.0, -2.6248 -0.4329 0.0, -2.5 -0.689 0.0, -0.4134 -0.0197 0.0, -0.4134 0.4685 0.0, -0.0787 0.4685 0.0, -1.7224 -0.2756 0.0, -2.3425 -0.1772 0.0, -1.7224 -0.6102 0.0, -1.8839 -0.4528 0.0, -0.9055 0.4685 0.0, -0.5709 0.4685 0.0, -2.0472 -0.0197 0.0, -2.3819 -0.0197 0.0, -1.063 -0.0197 0.0, -1.3976 0.4685 0.0, -1.063 0.4685 0.0, -2.5 -0.1772 0.0, -1.3976 -0.0197 0.0, -1.5551 -0.0197 0.0, -1.8898 0.4685 0.0, -1.5551 0.4685 0.0, -2.6806 -0.4329 0.0, -2.6904 -0.4329 0.0, 2.5 -0.689 0.0, 2.5 -0.1772 0.0, -1.8898 -0.0197 0.0, -2.3819 0.4685 0.0, -2.0472 0.4685 0.0, -2.7216 -0.4346 0.0, -2.7298 -0.4329 0.0, -2.5394 -0.0197 0.0, -3.1102 0.4685 0.0, -2.5394 0.4685 0.0, 2.5394 0.4685 0.0, 2.3425 -0.4528 0.0, 1.7224 -0.2756 0.0, 2.3425 -0.1772 0.0, 2.0472 0.4685 0.0, 2.3819 -0.0197 0.0, 2.0472 -0.0197 0.0, 2.3819 0.4685 0.0, -2.6347 -0.4329 0.0, -2.7889 -0.4697 0.0, -2.8315 -0.4697 0.0, -2.8315 -0.4429 0.0, -2.674 -0.453 0.0, -2.6412 -0.453 0.0, -2.6642 -0.5116 0.0, -2.7298 -0.5116 0.0, -2.7692 -0.5116 0.0, -2.7692 -0.4329 0.0, -2.7052 -0.4513 0.0, -2.7036 -0.4597 0.0, -2.7085 -0.4446 0.0, -2.715 -0.4379 0.0, -2.7036 -0.4848 0.0, -2.7052 -0.4932 0.0, -2.7085 -0.4999 0.0, -2.715 -0.5066 0.0, -2.7216 -0.51 0.0, -2.7823 -0.5116 0.0, -2.7823 -0.4329 0.0, -2.7889 -0.4798 0.0, -2.8315 -0.5016 0.0, -2.8315 -0.4798 0.0, -2.7823 -0.4429 0.0, -2.7823 -0.5016 0.0, -2.8414 -0.5116 0.0, -2.8774 -0.5116 0.0, -2.8988 -0.4446 0.0, -2.8922 -0.4429 0.0, -2.8709 -0.4446 0.0, -2.8545 -0.4915 0.0, -2.8545 -0.453 0.0, -2.8414 -0.4329 0.0, -2.8774 -0.4329 0.0, -2.9086 -0.4597 0.0, -2.8643 -0.453 0.0, -2.8774 -0.4429 0.0, -2.866 -0.448 0.0, -2.8692 -0.4346 0.0, -2.9037 -0.448 0.0, -2.907 -0.453 0.0, -2.9086 -0.4848 0.0, -2.8643 -0.4915 0.0, -2.9185 -0.4597 0.0, -2.9808 -0.4429 0.0, -2.9168 -0.4513 0.0, -2.866 -0.4966 0.0, -2.9037 -0.4966 0.0, -2.8709 -0.4999 0.0, -2.8988 -0.4999 0.0, -2.8774 -0.5016 0.0, -2.8922 -0.5016 0.0, -2.8922 -0.5116 0.0, -2.8692 -0.51 0.0, -2.8627 -0.5066 0.0, -2.8561 -0.4999 0.0, -2.907 -0.4915 0.0, -2.9808 -0.5116 0.0, -2.9004 -0.51 0.0, -2.907 -0.5066 0.0, -2.9135 -0.4999 0.0, -2.9185 -0.4848 0.0, -2.9316 -0.4429 0.0, -2.907 -0.4379 0.0, -2.9135 -0.4446 0.0, -2.9316 -0.4329 0.0, -2.9004 -0.4346 0.0, -2.9906 -0.4329 0.0, -2.8922 -0.4329 0.0, -2.8627 -0.4379 0.0, -2.8561 -0.4446 0.0, -3.1102 -0.8465 0.0, -2.9168 -0.4932 0.0, -2.9906 -0.5116 0.0, -1.6437 -0.689 0.0, 1.6437 -0.689 0.0, -2.3425 -0.4528 0.0, 1.8839 -0.689 0.0, 1.7224 -0.6102 0.0, 1.8839 -0.4528 0.0, -1.8839 -0.689 0.0, -2.7134 -0.4848 0.0, -2.715 -0.4915 0.0, -2.7183 -0.4966 0.0, -2.7134 -0.4597 0.0, -2.7298 -0.4429 0.0, -2.7232 -0.4446 0.0, -2.7232 -0.4999 0.0, -2.7183 -0.448 0.0, -2.715 -0.453 0.0, -2.7298 -0.5016 0.0, -2.7593 -0.5016 0.0, -2.7593 -0.4429 0.0, -2.6724 -0.4597 0.0, -2.6429 -0.4597 0.0, -2.6576 -0.5049 0.0, 1.7224 -0.6102 1.6142, 1.7224 -0.2756 1.6142, 1.6437 -0.1969 1.6142, 1.2303 -0.1969 0.8661, -1.2303 -0.1969 0.8661, -1.6437 -0.1969 1.6142, -1.2303 -0.1969 1.4567, 1.2303 -0.1969 1.4567, -1.7224 -0.2756 1.6142, -1.7224 -0.6102 1.6142, -1.6437 -0.689 1.6142, 1.6437 -0.689 1.6142, 2.1063 -0.0197 1.6142, 2.1477 -0.0197 1.6142, -0.0591 -0.0197 1.6142, 3.0315 -0.3346 1.6142, 3.3465 0.8465 1.6142, 3.0315 0.7087 1.6142, -2.3425 -0.1772 1.6142, -2.3228 -0.0197 1.6142, -2.4016 -0.0197 1.6142, 2.0276 -0.0197 1.6142, 2.5197 -0.0197 1.6142, 2.5 -0.1772 1.6142, 2.5984 -0.0197 1.6142, -3.3465 0.8465 1.6142, -3.0315 0.7087 1.6142, -2.5197 0.7087 1.6142, 2.1063 0.1378 1.6142, 2.0276 0.1378 1.6142, 0.4331 0.7087 1.6142, 0.5512 0.7087 1.6142, 1.9094 -0.0197 1.6142, 1.8307 -0.0197 1.6142, 1.9094 0.1378 1.6142, 1.8307 0.1378 1.6142, 1.6142 -0.0197 1.6142, 1.5354 -0.0197 1.6142, 0.0591 0.7087 1.6142, 1.6142 0.1378 1.6142, 1.5354 0.1378 1.6142, 1.4173 -0.0197 1.6142, 1.3386 -0.0197 1.6142, -0.0591 0.7087 1.6142, -0.4331 0.7087 1.6142, 1.4173 0.1378 1.6142, 1.3386 0.1378 1.6142, 1.122 -0.0197 1.6142, 1.0433 -0.0197 1.6142, 0.9252 -0.0197 1.6142, -0.5512 0.7087 1.6142, 1.122 0.1378 1.6142, 1.0433 0.1378 1.6142, -0.9252 0.7087 1.6142, 0.8465 -0.0197 1.6142, 0.6299 -0.0197 1.6142, -1.0433 0.7087 1.6142, 0.9252 0.1378 1.6142, 0.8465 0.1378 1.6142, -1.4173 0.7087 1.6142, 0.5512 -0.0197 1.6142, 0.4331 -0.0197 1.6142, 0.3543 -0.0197 1.6142, 0.6299 0.1378 1.6142, 0.5512 0.1378 1.6142, -1.5354 0.7087 1.6142, -1.9094 0.7087 1.6142, 0.1378 -0.0197 1.6142, 0.0591 -0.0197 1.6142, 0.4331 0.1378 1.6142, 0.3543 0.1378 1.6142, -2.0276 0.7087 1.6142, -2.4016 0.7087 1.6142, 0.1378 0.1378 1.6142, 0.0591 0.1378 1.6142, -0.1378 -0.0197 1.6142, -0.0591 0.1378 1.6142, -0.1378 0.1378 1.6142, -1.8839 -0.689 1.6142, -1.8839 -0.4528 1.6142, -0.4331 -0.0197 1.6142, -0.3543 -0.0197 1.6142, -0.3543 0.1378 1.6142, -0.4331 0.1378 1.6142, -0.5512 -0.0197 1.6142, -0.6299 -0.0197 1.6142, -0.5512 0.1378 1.6142, -0.6299 0.1378 1.6142, -2.1477 -0.2958 1.6142, -2.3425 -0.4528 1.6142, -0.8465 -0.0197 1.6142, -0.9252 -0.0197 1.6142, -0.8465 0.1378 1.6142, -0.9252 0.1378 1.6142, -1.0433 -0.0197 1.6142, -1.122 -0.0197 1.6142, -1.0433 0.1378 1.6142, -1.122 0.1378 1.6142, -1.3386 -0.0197 1.6142, -1.4173 -0.0197 1.6142, -1.3386 0.1378 1.6142, -1.4173 0.1378 1.6142, -1.6142 -0.0197 1.6142, -1.5354 -0.0197 1.6142, -1.8307 -0.0197 1.6142, -1.5354 0.1378 1.6142, -1.6142 0.1378 1.6142, -2.0276 -0.0197 1.6142, -1.9094 -0.0197 1.6142, -2.1063 -0.0197 1.6142, -3.0315 -0.3346 1.6142, -1.8307 0.1378 1.6142, -1.9094 0.1378 1.6142, -2.1477 -0.0197 1.6142, -2.0276 0.1378 1.6142, -2.1063 0.1378 1.6142, -3.3465 -0.8465 1.6142, -3.1299 -0.4528 1.6142, -2.2883 -0.2958 1.6142, -2.5 -0.1772 1.6142, -2.3228 0.1378 1.6142, -2.4016 0.1378 1.6142, -2.5197 -0.0197 1.6142, -2.5984 -0.0197 1.6142, -2.5197 0.1378 1.6142, -2.5984 0.1378 1.6142, -2.6575 -0.0197 1.6142, -2.6181 -0.4528 1.6142, -2.6575 -0.3346 1.6142, 0.9252 0.7087 1.6142, 1.0433 0.7087 1.6142, 1.4173 0.7087 1.6142, 1.5354 0.7087 1.6142, 1.9094 0.7087 1.6142, 2.0276 0.7087 1.6142, 2.4016 0.7087 1.6142, 2.5197 0.7087 1.6142, 2.4016 -0.0197 1.6142, 2.6181 -0.4528 1.6142, 2.6575 -0.3346 1.6142, 2.5 -0.689 1.6142, 2.3228 -0.0197 1.6142, 2.3425 -0.1772 1.6142, 2.5984 0.1378 1.6142, 2.5197 0.1378 1.6142, 2.4016 0.1378 1.6142, 2.3228 0.1378 1.6142, 2.2883 -0.0197 1.6142, 2.2883 -0.2958 1.6142, 2.6575 -0.0197 1.6142, 3.3465 -0.8465 1.6142, 2.1477 -0.2958 1.6142, 2.3425 -0.4528 1.6142, -2.5 -0.689 1.6142, -2.2883 -0.0197 1.6142, 1.8839 -0.4528 1.6142, 1.8839 -0.689 1.6142, -2.6181 -0.689 1.6142, -3.1299 -0.689 1.6142, 3.1299 -0.4528 1.6142, 2.6181 -0.689 1.6142, 3.1299 -0.689 1.6142, -3.3465 0.5709 1.4961, -3.3465 0.8465 1.4961, -3.3465 0.0591 0.2205, -3.3465 -0.8465 0.2205, -3.1102 -0.8465 0.2205, -3.1102 -0.3346 0.2205, -3.1102 -0.3346 1.5354, -3.1102 0.8465 1.5354, 3.1102 0.8465 1.5354, 3.2677 0.8465 1.5354, 3.3465 0.8465 1.4961, 3.2677 0.8465 1.4961, 3.1102 -0.3346 1.5354, 3.2677 -0.3346 1.5354, 3.2677 0.0591 0.2205, 3.2677 0.5709 1.4961, 3.2677 -0.3346 0.2205, 3.1102 -0.3346 0.2205, 3.1102 -0.8465 0.2205, 3.3465 0.5709 1.4961, 3.3465 0.0591 0.2205, 3.3465 -0.8465 0.2205, 3.1299 -0.4528 0.3543, 3.1299 -0.689 0.3543, 2.6181 -0.689 0.3543, 2.6181 -0.4528 0.3543, -2.6181 -0.689 0.3543, -3.1299 -0.4528 0.3543, -3.1299 -0.689 0.3543, -2.6181 -0.4528 0.3543, 2.1477 -0.2958 0.3543, 2.1477 -0.0197 0.3543, -2.4016 -0.0197 0.3543, -2.5197 -0.0197 0.3543, -2.7362 -0.0197 0.3543, -2.7362 -0.0197 1.5354, -2.5984 -0.0197 0.3543, -1.9094 -0.0197 0.3543, -2.0276 -0.0197 0.3543, -1.4173 -0.0197 0.3543, -1.5354 -0.0197 0.3543, -1.6142 -0.0197 0.3543, -1.8307 -0.0197 0.3543, -0.9252 -0.0197 0.3543, -1.0433 -0.0197 0.3543, -1.122 -0.0197 0.3543, -1.3386 -0.0197 0.3543, -0.4331 -0.0197 0.3543, -0.5512 -0.0197 0.3543, -0.6299 -0.0197 0.3543, -0.8465 -0.0197 0.3543, 0.0591 -0.0197 0.3543, -0.0591 -0.0197 0.3543, -0.1378 -0.0197 0.3543, -0.3543 -0.0197 0.3543, 0.5512 -0.0197 0.3543, 0.4331 -0.0197 0.3543, 0.3543 -0.0197 0.3543, 0.1378 -0.0197 0.3543, 1.0433 -0.0197 0.3543, 0.9252 -0.0197 0.3543, 0.8465 -0.0197 0.3543, 0.6299 -0.0197 0.3543, 1.5354 -0.0197 0.3543, 1.4173 -0.0197 0.3543, 1.3386 -0.0197 0.3543, 1.122 -0.0197 0.3543, 2.0276 -0.0197 0.3543, 1.9094 -0.0197 0.3543, 1.8307 -0.0197 0.3543, 1.6142 -0.0197 0.3543, 2.7362 -0.0197 0.3543, 2.7362 -0.0197 1.5354, 2.5984 -0.0197 0.3543, 2.5197 -0.0197 0.3543, 2.4016 -0.0197 0.3543, 2.1063 -0.0197 0.3543, 2.3228 -0.0197 0.3543, 2.2883 -0.0197 0.3543, -2.2883 -0.0197 0.3543, -2.3228 -0.0197 0.3543, -2.1063 -0.0197 0.3543, -2.1477 -0.0197 0.3543, -2.4016 0.1378 0.3543, -2.4213 0.5334 0.3543, -2.1063 0.1378 0.3543, -2.0079 0.5334 0.3543, -2.0276 0.1378 0.3543, -2.0079 0.0104 0.3543, -2.0079 0.1378 0.3543, -0.5512 0.6299 0.3543, -0.9252 0.6299 0.3543, -0.5315 0.5334 0.3543, -0.0591 0.1378 0.3543, -0.0394 0.1378 0.3543, -0.0394 0.5334 0.3543, 0.0394 0.1378 0.3543, -1.8307 0.1378 0.3543, -2.1477 -0.2958 0.3543, -2.2883 -0.2958 0.3543, 0.4528 0.5334 0.3543, 0.3543 0.1378 0.3543, 0.4331 0.1378 0.3543, 1.9094 0.6299 0.3543, 1.9291 0.6925 0.3543, 1.9094 0.7087 0.3543, -1.6142 0.1378 0.3543, -1.5157 0.1378 0.3543, -1.5354 0.1378 0.3543, -1.5157 0.0104 0.3543, 0.4528 0.1378 0.3543, -0.4331 0.6299 0.3543, -0.0591 0.6299 0.3543, -1.3386 0.1378 0.3543, 0.5315 0.1378 0.3543, -1.122 0.1378 0.3543, -1.0236 0.1378 0.3543, -1.0433 0.1378 0.3543, -1.0236 0.0104 0.3543, 0.9449 0.5334 0.3543, 0.8465 0.1378 0.3543, 0.9252 0.1378 0.3543, 2.4016 0.6299 0.3543, 2.4213 0.6925 0.3543, 2.4016 0.7087 0.3543, -0.8465 0.1378 0.3543, 0.9449 0.1378 0.3543, 0.0591 0.6299 0.3543, 0.4331 0.6299 0.3543, -0.6299 0.1378 0.3543, -0.5315 0.1378 0.3543, -0.5512 0.1378 0.3543, -0.5315 0.0104 0.3543, 0.5512 0.6299 0.3543, 0.5315 0.6925 0.3543, 0.5315 0.5334 0.3543, 1.0236 0.1378 0.3543, -0.3543 0.1378 0.3543, 1.437 0.5334 0.3543, 1.3386 0.1378 0.3543, 1.4173 0.1378 0.3543, -0.1378 0.1378 0.3543, -0.0394 0.0104 0.3543, 1.437 0.1378 0.3543, 0.9252 0.6299 0.3543, 0.1378 0.1378 0.3543, 1.0433 0.6299 0.3543, 1.0236 0.6925 0.3543, 1.0236 0.5334 0.3543, 1.5157 0.1378 0.3543, 0.4528 0.0104 0.3543, 1.8307 0.1378 0.3543, 1.9094 0.1378 0.3543, 1.9291 0.5334 0.3543, 1.5157 0.5334 0.3543, 0.6299 0.1378 0.3543, 1.9291 0.1378 0.3543, 1.4173 0.6299 0.3543, 0.9449 0.0104 0.3543, 1.5157 0.6925 0.3543, 1.5354 0.6299 0.3543, 2.0079 0.1378 0.3543, 1.122 0.1378 0.3543, 2.1063 0.1378 0.3543, 2.3228 0.1378 0.3543, 2.0079 0.5334 0.3543, 1.437 0.0104 0.3543, 2.4213 0.5334 0.3543, 1.6142 0.1378 0.3543, 2.0276 0.6299 0.3543, 2.0079 0.6925 0.3543, 2.4016 0.1378 0.3543, 1.9291 0.0104 0.3543, 2.4213 0.1378 0.3543, 2.5 0.1378 0.3543, 2.2883 -0.2958 0.3543, 2.9528 0.6299 0.3543, 2.5 0.5334 0.3543, 2.5984 0.1378 0.3543, 2.4213 0.0104 0.3543, 2.5197 0.6299 0.3543, 2.7362 -0.2559 0.3543, 2.9528 -0.2559 0.3543, 1.437 0.6925 0.3543, 1.4173 0.7087 0.3543, 0.0394 0.6925 0.3543, 0.0394 0.5334 0.3543, -0.4528 0.1378 0.3543, -0.4528 0.6925 0.3543, -0.4528 0.5334 0.3543, -1.0433 0.6299 0.3543, -1.4173 0.6299 0.3543, -1.0236 0.5334 0.3543, -0.9449 0.6925 0.3543, -0.9449 0.5334 0.3543, 0.9252 0.7087 0.3543, 0.9449 0.6925 0.3543, -1.437 0.6925 0.3543, -1.437 0.5334 0.3543, 0.4331 0.7087 0.3543, 0.4528 0.6925 0.3543, -0.9449 0.1378 0.3543, -0.0394 0.6925 0.3543, -0.0591 0.7087 0.3543, -1.5157 0.5334 0.3543, -1.5354 0.6299 0.3543, -1.9094 0.6299 0.3543, -0.5315 0.6925 0.3543, -0.5512 0.7087 0.3543, -1.0236 0.6925 0.3543, -1.0433 0.7087 0.3543, -1.9291 0.6925 0.3543, -1.9291 0.5334 0.3543, -1.437 0.1378 0.3543, -1.5157 0.6925 0.3543, -1.5354 0.7087 0.3543, -2.4016 0.6299 0.3543, -2.0276 0.6299 0.3543, -2.0079 0.6925 0.3543, -2.0276 0.7087 0.3543, -2.5984 0.1378 0.3543, -2.5 0.5334 0.3543, -2.9528 0.6299 0.3543, -2.4213 0.6925 0.3543, -2.5 0.6925 0.3543, -2.5197 0.7087 0.3543, -2.5197 0.6299 0.3543, -2.9528 -0.2559 0.3543, -2.7362 -0.2559 0.3543, -2.5 0.0104 0.3543, -2.5197 0.1378 0.3543, -2.5 0.1378 0.3543, -1.9291 0.1378 0.3543, -2.3228 0.1378 0.3543, 2.5197 0.1378 0.3543, 2.5 0.0104 0.3543, 2.5197 0.7087 0.3543, 2.5 0.6925 0.3543, 2.0276 0.1378 0.3543, 2.0079 0.0104 0.3543, 2.0276 0.7087 0.3543, 1.5354 0.1378 0.3543, 1.5157 0.0104 0.3543, 1.5354 0.7087 0.3543, 1.0433 0.1378 0.3543, 1.0236 0.0104 0.3543, 1.0433 0.7087 0.3543, 0.5512 0.1378 0.3543, 0.5315 0.0104 0.3543, 0.5512 0.7087 0.3543, 0.0591 0.1378 0.3543, 0.0394 0.0104 0.3543, 0.0591 0.7087 0.3543, -0.4331 0.1378 0.3543, -0.4528 0.0104 0.3543, -0.4331 0.7087 0.3543, -0.9252 0.1378 0.3543, -0.9449 0.0104 0.3543, -0.9252 0.7087 0.3543, -1.4173 0.1378 0.3543, -1.437 0.0104 0.3543, -1.4173 0.7087 0.3543, -1.9094 0.1378 0.3543, -1.9291 0.0104 0.3543, -1.9094 0.7087 0.3543, -2.4213 0.1378 0.3543, -2.4213 0.0104 0.3543, -2.4016 0.7087 0.3543, -2.7362 -0.2559 1.5354, -2.9528 -0.2559 1.5354, -2.9528 0.6299 1.5354, -2.5197 0.6299 1.5354, -2.0276 0.6299 1.5354, -2.4016 0.6299 1.5354, -1.5354 0.6299 1.5354, -1.9094 0.6299 1.5354, -1.0433 0.6299 1.5354, -1.4173 0.6299 1.5354, -0.5512 0.6299 1.5354, -0.9252 0.6299 1.5354, -0.0591 0.6299 1.5354, -0.4331 0.6299 1.5354, 0.4331 0.6299 1.5354, 0.0591 0.6299 1.5354, 0.9252 0.6299 1.5354, 0.5512 0.6299 1.5354, 1.4173 0.6299 1.5354, 1.0433 0.6299 1.5354, 1.9094 0.6299 1.5354, 1.5354 0.6299 1.5354, 2.4016 0.6299 1.5354, 2.0276 0.6299 1.5354, 2.9528 0.6299 1.5354, 2.5197 0.6299 1.5354, 2.9528 -0.2559 1.5354, 2.7362 -0.2559 1.5354, -1.2303 -0.3937 1.1417, 1.2303 -0.3937 1.1417, -1.2303 -0.3937 0.8661, 1.2303 -0.3937 0.8661, 1.2303 -0.3937 0.8661
            ]
        }
        coordIndex [
            0,1,2,-1,0,3,1,-1,4,5,6,-1,6,7,4,-1,8,9,10,-1,11,12,13,-1,14,15,16,-1,17,18,19,-1,20,21,18,-1,22,23,24,-1,8,25,9,-1,26,24,23,-1,27,28,29,-1,30,31,14,-1,32,33,34,-1,35,36,37,-1,20,38,21,-1,27,39,40,-1,12,27,29,-1,22,41,23,-1,12,42,43,-1,44,45,46,-1,47,48,34,-1,49,50,42,-1,51,11,52,-1,53,54,55,-1,56,46,57,-1,39,58,40,-1,46,56,44,-1,59,60,35,-1,12,53,61,-1,49,62,50,-1,53,63,54,-1,64,65,11,-1,57,66,56,-1,52,11,65,-1,64,67,65,-1,63,68,54,-1,69,13,70,-1,67,71,72,-1,72,71,69,-1,67,64,71,-1,71,13,69,-1,51,53,12,-1,50,73,42,-1,70,13,12,-1,68,74,75,-1,75,74,52,-1,68,63,74,-1,74,51,52,-1,12,61,46,-1,37,59,35,-1,11,51,12,-1,66,76,77,-1,77,76,55,-1,66,57,76,-1,76,61,55,-1,45,42,12,-1,37,36,78,-1,55,61,53,-1,62,79,80,-1,80,79,44,-1,62,49,79,-1,79,45,44,-1,12,43,37,-1,81,27,40,-1,46,45,12,-1,60,82,83,-1,83,82,73,-1,60,59,82,-1,82,43,73,-1,78,27,12,-1,47,34,33,-1,73,43,42,-1,58,84,85,-1,85,84,36,-1,58,39,84,-1,84,78,36,-1,29,28,33,-1,32,86,33,-1,37,78,12,-1,48,87,88,-1,88,87,81,-1,48,47,87,-1,87,28,81,-1,86,29,33,-1,89,29,24,-1,81,28,27,-1,41,90,91,-1,91,90,32,-1,41,22,90,-1,90,86,32,-1,89,18,29,-1,18,21,19,-1,29,86,24,-1,38,92,93,-1,93,92,26,-1,38,20,92,-1,92,89,26,-1,17,29,18,-1,14,16,30,-1,26,89,24,-1,31,94,95,-1,95,94,19,-1,31,30,94,-1,94,17,19,-1,96,10,29,-1,29,16,96,-1,29,17,16,-1,25,97,98,-1,98,97,15,-1,25,8,97,-1,97,96,15,-1,29,10,99,-1,9,99,10,-1,15,96,16,-1,100,2,101,-1,102,103,104,-1,105,100,101,-1,106,101,107,-1,104,107,102,-1,101,102,107,-1,101,2,102,-1,102,2,1,-1,108,100,105,-1,105,109,108,-1,110,111,112,-1,110,113,111,-1,114,115,116,-1,117,118,119,-1,120,121,122,-1,123,124,121,-1,122,121,124,-1,115,125,116,-1,126,127,128,-1,129,130,121,-1,123,121,131,-1,126,120,127,-1,122,132,133,-1,129,134,135,-1,122,124,132,-1,123,136,137,-1,138,139,140,-1,130,129,141,-1,123,131,136,-1,130,142,143,-1,144,145,129,-1,146,147,144,-1,130,141,142,-1,135,148,149,-1,150,145,151,-1,135,134,148,-1,152,153,154,-1,155,140,139,-1,155,151,145,-1,152,156,153,-1,157,158,159,-1,160,161,155,-1,119,162,163,-1,157,164,158,-1,150,165,166,-1,161,167,168,-1,150,151,165,-1,169,170,171,-1,115,121,125,-1,172,118,117,-1,173,174,175,-1,176,177,178,-1,176,179,177,-1,180,155,139,-1,160,155,180,-1,181,182,183,-1,184,160,185,-1,164,129,145,-1,117,119,163,-1,150,164,145,-1,160,180,185,-1,134,129,152,-1,141,129,135,-1,186,140,187,-1,161,168,155,-1,187,140,188,-1,189,188,181,-1,190,161,191,-1,189,155,168,-1,161,190,192,-1,161,193,167,-1,161,192,193,-1,186,191,161,-1,194,191,186,-1,195,194,186,-1,196,195,186,-1,197,196,186,-1,198,197,186,-1,187,198,186,-1,140,199,188,-1,189,200,155,-1,201,202,203,-1,204,189,181,-1,201,181,188,-1,188,205,201,-1,206,140,207,-1,188,199,205,-1,201,205,202,-1,199,140,206,-1,208,209,210,-1,206,211,212,-1,213,155,200,-1,200,189,204,-1,183,204,181,-1,155,213,214,-1,212,215,216,-1,210,209,217,-1,208,210,218,-1,219,214,213,-1,218,220,208,-1,220,216,221,-1,216,220,218,-1,221,216,215,-1,222,211,223,-1,224,225,226,-1,223,227,228,-1,228,227,229,-1,230,229,231,-1,231,232,230,-1,212,213,206,-1,233,207,140,-1,206,234,235,-1,229,230,228,-1,206,235,236,-1,237,223,228,-1,223,237,222,-1,215,211,222,-1,206,236,211,-1,211,215,212,-1,206,207,234,-1,233,140,238,-1,233,238,239,-1,239,238,240,-1,240,238,241,-1,225,242,238,-1,224,242,225,-1,225,243,226,-1,244,245,243,-1,246,247,244,-1,246,244,243,-1,248,170,169,-1,247,246,249,-1,249,246,155,-1,249,155,214,-1,213,250,219,-1,250,213,251,-1,213,212,251,-1,170,248,252,-1,238,242,253,-1,248,155,246,-1,226,243,245,-1,238,140,254,-1,253,241,238,-1,248,254,252,-1,140,252,254,-1,186,138,140,-1,255,256,119,-1,151,155,169,-1,155,248,169,-1,147,257,144,-1,129,156,152,-1,258,259,260,-1,252,140,261,-1,131,121,130,-1,258,162,119,-1,256,258,119,-1,256,259,258,-1,121,126,125,-1,115,175,121,-1,163,175,177,-1,177,175,178,-1,175,115,178,-1,163,177,117,-1,119,252,255,-1,174,260,259,-1,261,255,252,-1,261,146,255,-1,261,147,146,-1,257,145,144,-1,156,129,157,-1,164,157,129,-1,120,126,121,-1,173,260,174,-1,175,174,121,-1,262,263,264,-1,265,266,267,-1,262,264,268,-1,265,269,270,-1,267,269,265,-1,265,262,266,-1,271,266,262,-1,272,273,271,-1,262,268,271,-1,271,273,266,-1,274,275,276,-1,277,278,174,-1,174,259,277,-1,174,278,279,-1,174,279,121,-1,121,280,129,-1,280,281,129,-1,282,281,283,-1,282,283,279,-1,282,129,281,-1,279,280,121,-1,283,284,279,-1,279,284,280,-1,129,282,285,-1,129,285,144,-1,285,286,146,-1,146,144,285,-1,146,286,287,-1,146,287,255,-1,287,288,256,-1,256,255,287,-1,256,288,277,-1,256,277,259,-1,289,279,290,-1,279,291,282,-1,292,293,294,-1,295,296,297,-1,298,279,289,-1,299,300,301,-1,302,303,304,-1,289,305,306,-1,307,308,293,-1,309,279,298,-1,289,306,298,-1,310,279,309,-1,309,311,312,-1,313,279,310,-1,309,312,310,-1,314,279,313,-1,315,293,302,-1,313,316,317,-1,318,279,314,-1,313,317,314,-1,319,279,318,-1,320,302,321,-1,318,322,323,-1,324,279,319,-1,318,323,319,-1,279,325,326,-1,321,302,327,-1,324,328,329,-1,327,302,330,-1,279,326,331,-1,324,329,325,-1,279,331,332,-1,330,302,333,-1,326,334,335,-1,333,302,336,-1,279,332,337,-1,326,335,331,-1,338,339,279,-1,332,340,341,-1,342,302,343,-1,344,279,339,-1,332,341,337,-1,345,279,344,-1,338,346,347,-1,348,302,349,-1,279,345,291,-1,338,347,339,-1,344,350,351,-1,349,302,304,-1,352,282,291,-1,344,351,345,-1,291,353,354,-1,355,286,356,-1,291,354,352,-1,357,282,358,-1,358,359,360,-1,361,282,357,-1,358,360,357,-1,362,282,361,-1,361,363,364,-1,365,366,356,-1,361,364,362,-1,367,368,282,-1,367,369,370,-1,368,371,282,-1,367,370,368,-1,371,372,282,-1,371,373,374,-1,282,372,375,-1,371,374,372,-1,282,375,376,-1,375,377,378,-1,379,282,380,-1,375,378,376,-1,282,379,381,-1,380,382,383,-1,384,282,385,-1,380,383,379,-1,384,386,282,-1,387,303,302,-1,381,388,389,-1,365,285,282,-1,381,389,385,-1,390,282,386,-1,384,391,392,-1,390,365,282,-1,384,392,386,-1,393,394,302,-1,395,295,366,-1,282,381,385,-1,396,295,297,-1,296,397,398,-1,399,396,297,-1,296,398,297,-1,400,396,399,-1,399,401,402,-1,403,396,400,-1,399,402,400,-1,394,404,387,-1,396,403,405,-1,302,348,343,-1,302,342,336,-1,302,320,315,-1,307,293,315,-1,406,293,308,-1,407,293,406,-1,408,293,407,-1,409,293,408,-1,410,293,409,-1,411,293,410,-1,412,293,411,-1,413,293,412,-1,294,293,413,-1,300,299,414,-1,415,292,416,-1,300,417,415,-1,300,415,416,-1,418,419,414,-1,301,420,421,-1,421,299,301,-1,422,423,414,-1,424,419,418,-1,419,424,425,-1,414,423,418,-1,300,426,301,-1,288,287,427,-1,425,428,429,-1,393,355,430,-1,396,405,404,-1,295,431,296,-1,395,431,295,-1,365,395,366,-1,432,277,433,-1,362,367,282,-1,428,432,429,-1,416,426,300,-1,433,427,417,-1,288,427,433,-1,338,279,337,-1,325,279,324,-1,429,419,425,-1,419,300,414,-1,427,287,393,-1,355,393,287,-1,355,287,286,-1,352,358,282,-1,365,356,285,-1,285,356,286,-1,376,380,282,-1,428,290,279,-1,432,428,278,-1,428,279,278,-1,433,277,288,-1,432,278,277,-1,393,430,434,-1,404,405,387,-1,393,434,435,-1,430,404,434,-1,435,394,393,-1,387,302,394,-1,396,404,430,-1,427,293,436,-1,293,292,436,-1,437,427,438,-1,427,436,438,-1,417,427,437,-1,437,415,417,-1,292,415,436,-1,439,3,0,-1,302,440,439,-1,393,439,441,-1,302,439,393,-1,441,439,0,-1,0,108,109,-1,0,109,441,-1,393,441,442,-1,443,106,444,-1,441,106,442,-1,441,101,106,-1,443,442,106,-1,106,107,445,-1,106,445,444,-1,444,170,252,-1,170,444,99,-1,444,252,443,-1,445,446,99,-1,444,445,99,-1,99,446,29,-1,293,447,446,-1,447,29,446,-1,448,293,449,-1,29,447,12,-1,440,302,104,-1,302,293,446,-1,446,104,302,-1,104,103,440,-1,450,448,449,-1,447,293,448,-1,448,451,447,-1,451,448,452,-1,111,113,453,-1,448,450,454,-1,454,5,4,-1,448,454,452,-1,4,111,453,-1,4,453,454,-1,455,452,453,-1,454,453,452,-1,455,451,452,-1,455,456,451,-1,451,70,447,-1,119,456,457,-1,447,70,12,-1,119,118,456,-1,118,70,456,-1,451,456,70,-1,108,2,100,-1,108,0,2,-1,111,4,7,-1,7,112,111,-1,170,9,171,-1,170,99,9,-1,165,14,166,-1,165,15,14,-1,158,21,159,-1,158,19,21,-1,153,23,154,-1,153,26,23,-1,148,34,149,-1,148,32,34,-1,142,40,143,-1,142,81,40,-1,136,35,137,-1,136,36,35,-1,132,50,133,-1,132,73,50,-1,127,56,128,-1,127,44,56,-1,116,54,114,-1,116,55,54,-1,176,65,179,-1,176,52,65,-1,172,69,70,-1,70,118,172,-1,458,427,459,-1,112,459,110,-1,459,427,460,-1,459,112,7,-1,7,458,459,-1,7,6,458,-1,427,458,293,-1,458,449,293,-1,459,455,453,-1,460,455,459,-1,457,455,460,-1,455,457,456,-1,427,457,460,-1,457,427,393,-1,443,119,457,-1,457,393,443,-1,393,442,443,-1,443,252,119,-1,113,110,459,-1,113,459,453,-1,450,449,458,-1,450,458,454,-1,454,458,6,-1,454,6,5,-1,169,171,9,-1,9,25,169,-1,151,169,25,-1,25,98,151,-1,165,151,98,-1,98,15,165,-1,150,14,31,-1,150,166,14,-1,164,150,31,-1,31,95,164,-1,158,95,19,-1,158,164,95,-1,157,21,38,-1,157,159,21,-1,156,157,38,-1,38,93,156,-1,153,93,26,-1,153,156,93,-1,152,23,41,-1,152,154,23,-1,134,152,41,-1,41,91,134,-1,148,91,32,-1,148,134,91,-1,135,34,48,-1,135,149,34,-1,141,135,48,-1,48,88,141,-1,142,88,81,-1,142,141,88,-1,130,40,58,-1,130,143,40,-1,131,130,58,-1,58,85,131,-1,136,85,36,-1,136,131,85,-1,123,35,60,-1,123,137,35,-1,124,123,60,-1,60,83,124,-1,132,83,73,-1,132,124,83,-1,122,50,62,-1,122,133,50,-1,120,122,62,-1,62,80,120,-1,127,80,44,-1,127,120,80,-1,126,56,66,-1,126,128,56,-1,125,126,66,-1,66,77,125,-1,116,77,55,-1,116,125,77,-1,115,54,68,-1,115,114,54,-1,178,115,68,-1,68,75,178,-1,176,75,52,-1,176,178,75,-1,177,65,67,-1,177,179,65,-1,117,177,67,-1,67,72,117,-1,172,72,69,-1,172,117,72,-1,439,103,102,-1,439,440,103,-1,3,102,1,-1,3,439,102,-1,104,446,445,-1,445,107,104,-1,441,105,101,-1,441,109,105,-1,438,436,461,-1,461,462,438,-1,437,438,462,-1,462,463,437,-1,415,437,463,-1,463,464,415,-1,436,415,464,-1,464,461,436,-1,462,464,463,-1,464,462,461,-1,465,466,467,-1,466,465,468,-1,435,434,465,-1,465,467,435,-1,394,435,467,-1,467,466,394,-1,404,394,466,-1,466,468,404,-1,434,404,468,-1,468,465,434,-1,417,163,162,-1,417,300,163,-1,300,175,163,-1,300,419,175,-1,419,173,175,-1,419,429,173,-1,429,260,173,-1,429,432,260,-1,432,258,260,-1,432,433,258,-1,433,162,258,-1,433,417,162,-1,430,261,140,-1,430,355,261,-1,355,147,261,-1,355,356,147,-1,356,257,147,-1,356,366,257,-1,366,145,257,-1,366,295,145,-1,295,155,145,-1,295,396,155,-1,396,140,155,-1,396,430,140,-1,290,428,469,-1,469,470,290,-1,399,297,471,-1,471,472,399,-1,403,473,474,-1,403,400,475,-1,403,475,473,-1,384,385,476,-1,476,477,384,-1,380,376,478,-1,478,479,380,-1,381,379,480,-1,480,481,381,-1,371,368,482,-1,482,483,371,-1,375,372,484,-1,484,485,375,-1,361,357,486,-1,486,487,361,-1,367,362,488,-1,488,489,367,-1,291,345,490,-1,490,491,291,-1,358,352,492,-1,492,493,358,-1,338,337,494,-1,494,495,338,-1,344,339,496,-1,496,497,344,-1,326,325,498,-1,498,499,326,-1,332,331,500,-1,500,501,332,-1,318,314,502,-1,502,503,318,-1,324,319,504,-1,504,505,324,-1,309,298,506,-1,506,507,309,-1,313,310,508,-1,508,509,313,-1,510,426,511,-1,301,426,512,-1,426,510,512,-1,414,299,513,-1,513,514,414,-1,289,290,470,-1,470,515,289,-1,516,424,418,-1,516,517,424,-1,296,431,518,-1,518,519,296,-1,520,390,386,-1,520,521,390,-1,471,297,398,-1,471,398,522,-1,523,524,525,-1,526,527,528,-1,529,530,531,-1,532,533,534,-1,533,535,534,-1,527,526,477,-1,536,481,480,-1,537,518,538,-1,539,540,541,-1,521,518,537,-1,542,543,544,-1,536,480,545,-1,546,547,548,-1,549,539,541,-1,550,534,551,-1,548,547,479,-1,552,485,484,-1,549,553,539,-1,552,484,554,-1,555,556,557,-1,558,559,560,-1,561,562,563,-1,557,556,483,-1,564,489,488,-1,565,558,560,-1,566,539,567,-1,564,488,568,-1,569,570,571,-1,572,573,574,-1,565,575,558,-1,571,570,487,-1,576,493,492,-1,577,578,579,-1,576,492,580,-1,533,532,581,-1,582,577,579,-1,572,558,583,-1,581,532,491,-1,584,497,496,-1,585,586,587,-1,582,588,577,-1,584,496,540,-1,549,541,589,-1,590,591,592,-1,593,590,592,-1,589,541,495,-1,594,501,500,-1,592,591,595,-1,577,596,585,-1,594,500,559,-1,565,560,597,-1,598,593,599,-1,600,592,595,-1,597,560,499,-1,601,505,504,-1,602,603,604,-1,592,600,604,-1,601,504,578,-1,582,579,605,-1,606,604,603,-1,542,599,592,-1,605,579,503,-1,607,509,508,-1,608,609,604,-1,603,610,606,-1,607,508,590,-1,595,591,611,-1,612,613,606,-1,606,610,612,-1,611,591,507,-1,602,515,470,-1,469,614,470,-1,614,517,470,-1,615,616,617,-1,517,516,603,-1,470,517,602,-1,561,608,606,-1,517,603,602,-1,612,610,618,-1,615,617,510,-1,619,616,615,-1,618,610,514,-1,617,512,510,-1,620,621,510,-1,621,615,510,-1,534,580,532,-1,622,623,596,-1,587,578,577,-1,624,625,566,-1,531,569,626,-1,570,569,531,-1,574,559,558,-1,627,628,550,-1,629,630,631,-1,570,531,568,-1,625,540,539,-1,632,633,530,-1,634,583,635,-1,628,580,534,-1,636,637,630,-1,638,567,639,-1,631,555,640,-1,633,568,531,-1,641,642,551,-1,556,555,631,-1,643,644,645,-1,646,647,529,-1,631,554,556,-1,554,631,637,-1,648,649,629,-1,645,650,651,-1,643,546,652,-1,653,654,644,-1,643,547,546,-1,655,525,656,-1,657,658,656,-1,547,643,545,-1,651,545,643,-1,659,660,661,-1,523,655,662,-1,663,664,665,-1,666,473,661,-1,473,666,667,-1,659,661,473,-1,475,659,473,-1,525,524,526,-1,665,661,660,-1,472,668,669,-1,668,670,669,-1,525,526,528,-1,525,528,671,-1,672,518,521,-1,518,672,519,-1,672,521,524,-1,520,524,521,-1,673,617,616,-1,673,613,674,-1,513,674,618,-1,673,674,513,-1,513,618,514,-1,606,613,616,-1,619,675,676,-1,675,563,676,-1,673,616,613,-1,676,616,619,-1,590,593,607,-1,606,562,561,-1,676,563,562,-1,604,677,602,-1,677,600,678,-1,506,678,611,-1,677,678,506,-1,506,611,507,-1,604,600,677,-1,608,679,609,-1,679,544,609,-1,588,593,577,-1,606,608,604,-1,578,587,601,-1,592,543,542,-1,609,544,543,-1,593,680,607,-1,680,588,681,-1,502,681,605,-1,680,681,502,-1,502,605,503,-1,593,588,680,-1,599,682,598,-1,682,623,598,-1,575,587,558,-1,592,599,593,-1,559,574,594,-1,577,622,596,-1,598,623,622,-1,587,683,601,-1,683,575,684,-1,498,684,597,-1,683,684,498,-1,498,597,499,-1,587,575,683,-1,585,685,586,-1,685,634,586,-1,553,574,539,-1,577,585,587,-1,540,625,584,-1,558,635,583,-1,586,634,635,-1,574,686,594,-1,686,553,687,-1,494,687,589,-1,686,687,494,-1,494,589,495,-1,574,553,686,-1,572,688,573,-1,688,638,573,-1,535,625,534,-1,558,572,574,-1,580,628,576,-1,539,639,567,-1,573,638,639,-1,625,689,584,-1,689,535,690,-1,490,690,581,-1,689,690,490,-1,490,581,491,-1,625,535,689,-1,566,691,624,-1,691,642,624,-1,626,628,531,-1,539,566,625,-1,568,633,564,-1,534,641,551,-1,624,642,641,-1,628,692,576,-1,692,626,693,-1,486,693,571,-1,692,693,486,-1,486,571,487,-1,628,626,692,-1,550,694,627,-1,694,647,627,-1,640,633,631,-1,534,550,628,-1,554,637,552,-1,531,646,529,-1,627,647,646,-1,633,695,564,-1,695,640,696,-1,482,696,557,-1,695,696,482,-1,482,557,483,-1,633,640,695,-1,530,697,632,-1,697,649,632,-1,652,637,643,-1,531,530,633,-1,545,651,536,-1,631,648,629,-1,632,649,648,-1,637,698,552,-1,698,652,699,-1,478,699,548,-1,698,699,478,-1,478,548,479,-1,637,652,698,-1,630,700,636,-1,700,654,636,-1,671,651,525,-1,631,630,637,-1,524,523,672,-1,643,653,644,-1,636,654,653,-1,651,701,536,-1,701,671,702,-1,476,702,527,-1,701,702,476,-1,476,527,477,-1,651,671,701,-1,645,703,650,-1,703,658,650,-1,704,523,660,-1,643,645,651,-1,670,704,660,-1,525,657,656,-1,650,658,657,-1,523,522,672,-1,522,704,705,-1,471,705,668,-1,522,705,471,-1,471,668,472,-1,523,704,522,-1,655,706,662,-1,706,664,662,-1,660,669,670,-1,523,525,655,-1,669,660,659,-1,660,663,665,-1,662,664,663,-1,365,390,521,-1,521,537,365,-1,395,365,537,-1,537,538,395,-1,431,395,538,-1,538,518,431,-1,672,397,296,-1,672,296,519,-1,522,398,397,-1,522,397,672,-1,669,401,399,-1,669,399,472,-1,659,402,401,-1,659,401,669,-1,475,400,402,-1,475,402,659,-1,707,474,473,-1,473,667,707,-1,707,405,403,-1,707,403,474,-1,387,707,708,-1,707,387,405,-1,303,387,708,-1,303,708,709,-1,709,708,666,-1,666,661,709,-1,661,710,709,-1,661,665,710,-1,655,711,712,-1,655,656,711,-1,645,713,714,-1,645,644,713,-1,630,715,716,-1,630,629,715,-1,530,717,718,-1,530,529,717,-1,550,719,720,-1,550,551,719,-1,566,721,722,-1,566,567,721,-1,572,723,724,-1,572,583,723,-1,585,725,726,-1,585,596,725,-1,599,727,728,-1,599,542,727,-1,608,729,730,-1,608,561,729,-1,731,732,619,-1,619,615,731,-1,664,304,710,-1,710,665,664,-1,304,709,710,-1,709,304,303,-1,348,712,711,-1,712,348,349,-1,342,714,713,-1,714,342,343,-1,333,716,715,-1,716,333,336,-1,327,718,717,-1,718,327,330,-1,320,720,719,-1,720,320,321,-1,307,722,721,-1,722,307,315,-1,406,724,723,-1,724,406,308,-1,408,726,725,-1,726,408,407,-1,410,728,727,-1,728,410,409,-1,412,730,729,-1,730,412,411,-1,731,294,413,-1,731,413,732,-1,711,658,348,-1,711,656,658,-1,658,343,348,-1,658,703,343,-1,714,703,645,-1,714,343,703,-1,706,712,349,-1,706,655,712,-1,349,304,664,-1,664,706,349,-1,713,654,342,-1,713,644,654,-1,654,336,342,-1,654,700,336,-1,716,700,630,-1,716,336,700,-1,715,649,333,-1,715,629,649,-1,649,330,333,-1,649,697,330,-1,718,697,530,-1,718,330,697,-1,717,647,327,-1,717,529,647,-1,647,321,327,-1,647,694,321,-1,720,694,550,-1,720,321,694,-1,719,642,320,-1,719,551,642,-1,642,315,320,-1,642,691,315,-1,722,691,566,-1,722,315,691,-1,721,638,307,-1,721,567,638,-1,638,308,307,-1,638,688,308,-1,724,688,572,-1,724,308,688,-1,723,634,406,-1,723,583,634,-1,634,407,406,-1,634,685,407,-1,726,685,585,-1,726,407,685,-1,725,623,408,-1,725,596,623,-1,623,409,408,-1,623,682,409,-1,728,682,599,-1,728,409,682,-1,727,544,410,-1,727,542,544,-1,544,411,410,-1,544,679,411,-1,730,679,608,-1,730,411,679,-1,729,563,412,-1,729,561,563,-1,563,413,412,-1,563,675,413,-1,732,675,619,-1,732,413,675,-1,292,731,733,-1,731,292,294,-1,416,733,734,-1,733,416,292,-1,734,426,416,-1,426,734,511,-1,511,734,620,-1,620,510,511,-1,734,733,621,-1,621,620,734,-1,733,731,615,-1,615,621,733,-1,708,707,667,-1,667,666,708,-1,301,617,420,-1,617,301,512,-1,420,673,421,-1,673,420,617,-1,421,513,299,-1,513,421,673,-1,414,610,422,-1,610,414,514,-1,422,603,423,-1,603,422,610,-1,423,516,418,-1,516,423,603,-1,425,424,517,-1,517,614,425,-1,428,425,614,-1,614,469,428,-1,289,602,305,-1,602,289,515,-1,305,677,306,-1,677,305,602,-1,306,506,298,-1,506,306,677,-1,309,591,311,-1,591,309,507,-1,311,590,312,-1,590,311,591,-1,312,508,310,-1,508,312,590,-1,313,607,316,-1,607,313,509,-1,316,680,317,-1,680,316,607,-1,317,502,314,-1,502,317,680,-1,318,579,322,-1,579,318,503,-1,322,578,323,-1,578,322,579,-1,323,504,319,-1,504,323,578,-1,324,601,328,-1,601,324,505,-1,328,683,329,-1,683,328,601,-1,329,498,325,-1,498,329,683,-1,326,560,334,-1,560,326,499,-1,334,559,335,-1,559,334,560,-1,335,500,331,-1,500,335,559,-1,332,594,340,-1,594,332,501,-1,340,686,341,-1,686,340,594,-1,341,494,337,-1,494,341,686,-1,338,541,346,-1,541,338,495,-1,346,540,347,-1,540,346,541,-1,347,496,339,-1,496,347,540,-1,344,584,350,-1,584,344,497,-1,350,689,351,-1,689,350,584,-1,351,490,345,-1,490,351,689,-1,291,532,353,-1,532,291,491,-1,353,580,354,-1,580,353,532,-1,354,492,352,-1,492,354,580,-1,358,576,359,-1,576,358,493,-1,359,692,360,-1,692,359,576,-1,360,486,357,-1,486,360,692,-1,361,570,363,-1,570,361,487,-1,363,568,364,-1,568,363,570,-1,364,488,362,-1,488,364,568,-1,367,564,369,-1,564,367,489,-1,369,695,370,-1,695,369,564,-1,370,482,368,-1,482,370,695,-1,371,556,373,-1,556,371,483,-1,373,554,374,-1,554,373,556,-1,374,484,372,-1,484,374,554,-1,375,552,377,-1,552,375,485,-1,377,698,378,-1,698,377,552,-1,378,478,376,-1,478,378,698,-1,380,547,382,-1,547,380,479,-1,382,545,383,-1,545,382,547,-1,383,480,379,-1,480,383,545,-1,381,536,388,-1,536,381,481,-1,388,701,389,-1,701,388,536,-1,389,476,385,-1,476,389,701,-1,384,526,391,-1,526,384,477,-1,391,524,392,-1,524,391,526,-1,392,520,386,-1,520,392,524,-1,735,284,283,-1,284,735,736,-1,735,281,737,-1,281,735,283,-1,735,737,738,-1,735,738,736,-1,736,738,280,-1,736,280,284,-1,280,738,737,-1,280,737,281,-1,
        ]
    }
}