#VRML V2.0 utf8
# 3D model generated by easyeda2kicad.py (https://github.com/uPesy/easyeda2kicad.py)

Shape{
    appearance Appearance {
        material  Material 	{
            diffuseColor 0.20784313725490197 0.20784313725490197 0.20784313725490197
            specularColor 0.01568627450980392 0.01568627450980392 0.01568627450980392
            ambientIntensity 0.2
            transparency 0
            shininess 0.5
        }
    }
    geometry IndexedFaceSet {
        ccw TRUE
        solid FALSE
        coord DEF co Coordinate {
            point [
                -1.813 -1.2953 0.1969, -2.0 -1.2953 0.1969, -2.0 -1.2106 0.1969, 0.1224 -0.5561 0.1969, 0.1224 -0.5777 0.1969, 0.1032 -0.5891 0.1969, 0.2358 -0.5711 0.1969, 0.2506 -0.5555 0.1969, 0.2857 -0.5879 0.1969, 0.3298 -0.5891 0.1969, 0.1882 -0.5891 0.1969, 0.1452 -0.3902 0.1969, 0.1224 -0.3964 0.1969, 0.1032 -0.2573 0.1969, 0.1224 -0.4228 0.1969, 0.1446 -0.4133 0.1969, 0.126 -0.558 0.1969, 0.1685 -0.4102 0.1969, 0.1879 -0.4124 0.1969, 0.2585 -0.4429 0.1969, 0.2469 -0.4245 0.1969, 0.3298 -0.2573 0.1969, 0.2292 -0.4074 0.1969, 0.2857 -0.5663 0.1969, 0.2009 -0.5877 0.1969, 0.2199 -0.5812 0.1969, 0.2026 -0.4177 0.1969, 0.2163 -0.4268 0.1969, 0.2282 -0.44 0.1969, 0.2425 -0.4915 0.1969, 0.2405 -0.5128 0.1969, 0.2351 -0.5298 0.1969, 0.1913 -0.5666 0.1969, 0.173 -0.5687 0.1969, 0.2057 -0.5613 0.1969, 0.2177 -0.5532 0.1969, 0.227 -0.5434 0.1969, 0.1468 -0.5658 0.1969, 0.261 -0.5368 0.1969, 0.267 -0.5159 0.1969, 0.3298 -0.5663 0.1969, 0.2689 -0.4932 0.1969, 0.266 -0.4652 0.1969, 0.2363 -0.4551 0.1969, 0.2415 -0.4762 0.1969, 0.2105 -0.3966 0.1969, 0.1885 -0.3902 0.1969, 0.1688 -0.3886 0.1969, 0.3601 -0.5663 0.1969, 0.3601 -0.391 0.1969, 0.3865 -0.391 0.1969, 0.5062 -0.2573 0.1969, 0.3865 -0.5879 0.1969, -0.3034 -0.2573 0.1969, -0.3034 -0.4012 0.1969, -0.3073 -0.391 0.1969, -0.5182 -0.2573 0.1969, -0.3817 -0.5879 0.1969, -0.3034 -0.5891 0.1969, -0.4105 -0.5879 0.1969, -0.5182 -0.5891 0.1969, -0.3337 -0.391 0.1969, -0.2805 -0.5326 0.1969, -0.3034 -0.5326 0.1969, -0.3618 -0.5326 0.1969, -0.2026 -0.4321 0.1969, -0.2117 -0.449 0.1969, -0.2617 -0.5879 0.1969, -0.2329 -0.5879 0.1969, -0.0408 -0.5891 0.1969, -0.144 -0.3941 0.1969, -0.1156 -0.391 0.1969, -0.0408 -0.2573 0.1969, -0.06 -0.391 0.1969, -0.2086 -0.5339 0.1969, -0.1973 -0.5515 0.1969, -0.1811 -0.567 0.1969, -0.1606 -0.579 0.1969, -0.167 -0.4021 0.1969, -0.1885 -0.4165 0.1969, -0.1887 -0.4167 0.1969, -0.217 -0.4684 0.1969, -0.2185 -0.487 0.1969, -0.2157 -0.5133 0.1969, -0.1379 -0.5857 0.1969, -0.1135 -0.5879 0.1969, -0.06 -0.5879 0.1969, -0.3034 0.5 0.1969, -0.5182 0.5 0.1969, -0.5182 0.874 0.1969, -0.626 0.874 0.1969, -1.0 0.5 0.1969, -0.626 1.126 0.1969, -1.0 1.2953 0.1969, -0.5182 1.126 0.1969, -0.5182 1.2953 0.1969, -0.374 1.126 0.1969, -0.3034 1.2953 0.1969, -0.374 0.874 0.1969, -0.374 -0.126 0.1969, -0.5182 -0.126 0.1969, -0.626 -0.126 0.1969, -1.0 -0.2573 0.1969, -0.626 0.126 0.1969, -0.5182 0.126 0.1969, -0.374 0.126 0.1969, -0.3034 -1.2106 0.1969, -0.5182 -1.2106 0.1969, -0.5182 -1.126 0.1969, -0.626 -1.126 0.1969, -1.0 -1.2106 0.1969, -0.626 -0.874 0.1969, -1.0 -0.7321 0.1969, -0.5182 -0.874 0.1969, -0.5182 -0.7321 0.1969, -0.374 -0.874 0.1969, -0.3034 -0.7321 0.1969, -0.374 -1.126 0.1969, 0.5062 0.5 0.1969, 0.5062 0.874 0.1969, 1.0 0.5 0.1969, 0.626 0.874 0.1969, 1.0 1.2953 0.1969, 0.626 1.126 0.1969, 0.5062 1.2953 0.1969, 0.5062 1.126 0.1969, 0.3298 1.2953 0.1969, 0.374 1.126 0.1969, 0.5062 0.126 0.1969, 0.3298 0.5 0.1969, 0.374 0.874 0.1969, 0.626 0.126 0.1969, 0.626 -0.126 0.1969, 1.0 -0.2573 0.1969, 0.5062 -0.126 0.1969, 0.374 -0.126 0.1969, 0.374 0.126 0.1969, 1.0 -1.2106 0.1969, 0.5062 -1.2106 0.1969, 0.626 -1.126 0.1969, 0.5062 -1.126 0.1969, 1.0 -0.7321 0.1969, 0.626 -0.874 0.1969, 0.5062 -0.7321 0.1969, 0.5062 -0.874 0.1969, 0.3298 -0.7321 0.1969, 0.374 -1.126 0.1969, 0.3298 -1.2106 0.1969, 0.374 -0.874 0.1969, 0.1712 -0.5902 0.1969, 0.1032 -0.7321 0.1969, 0.1633 -0.5891 0.1969, 0.1434 -0.5863 0.1969, 0.1032 -1.2953 0.1969, 0.1032 -1.2106 0.1969, 0.3298 -1.2953 0.1969, 0.5062 -1.2953 0.1969, 1.0 -1.2953 0.1969, 2.0 -1.2953 0.1969, 2.0 -1.2106 0.1969, -1.0 -1.2953 0.1969, -0.5182 -1.2953 0.1969, -0.3034 -1.2953 0.1969, -0.0408 -1.2953 0.1969, -0.0408 -1.2106 0.1969, 1.626 -1.126 0.1969, 1.374 -1.126 0.1969, 1.374 -0.874 0.1969, 1.626 -0.874 0.1969, 2.0 -0.7321 0.1969, -0.0408 -0.7321 0.1969, -1.813 -1.2106 0.1969, -1.626 -1.126 0.1969, -1.374 -1.126 0.1969, -1.626 -0.874 0.1969, -1.813 -0.7321 0.1969, -1.374 -0.874 0.1969, 0.1766 -0.5903 0.1969, 0.5062 -0.5891 0.1969, 1.0 -0.5891 0.1969, 2.0 -0.5891 0.1969, -1.813 -0.5891 0.1969, -1.0 -0.5891 0.1969, 0.3298 -0.5879 0.1969, 2.0 -0.2573 0.1969, -0.0216 -0.5879 0.1969, 0.084 -0.5879 0.1969, 0.084 -0.391 0.1969, -0.0216 -0.5663 0.1969, -0.0168 -0.4126 0.1969, -0.0168 -0.391 0.1969, 0.0576 -0.499 0.1969, 0.0576 -0.5663 0.1969, -0.012 -0.499 0.1969, -0.012 -0.4774 0.1969, 0.0576 -0.4774 0.1969, 0.0576 -0.4126 0.1969, -1.813 -0.2573 0.1969, 1.626 -0.126 0.1969, 1.374 -0.126 0.1969, 1.374 0.126 0.1969, 1.626 0.126 0.1969, 2.0 0.5 0.1969, -0.0408 0.5 0.1969, 0.1032 0.5 0.1969, -1.374 0.126 0.1969, -1.374 -0.126 0.1969, -1.626 -0.126 0.1969, -1.626 0.126 0.1969, -1.813 0.5 0.1969, 1.626 0.874 0.1969, 1.374 0.874 0.1969, 1.374 1.126 0.1969, 1.626 1.126 0.1969, 2.0 1.2953 0.1969, -0.0408 1.2953 0.1969, 0.1032 1.2953 0.1969, -1.626 1.126 0.1969, -1.813 1.2953 0.1969, -1.374 1.126 0.1969, -1.374 0.874 0.1969, -1.626 0.874 0.1969, -2.0 -0.7321 0.1969, -2.0 -0.5891 0.1969, -2.0 -0.2573 0.1969, -2.0 0.5 0.1969, -2.0 1.2953 0.1969, -2.0 1.2953 0.1969
            ]
        }
        coordIndex [
            0,1,2,-1,3,4,5,-1,6,7,8,-1,9,10,8,-1,11,12,13,-1,13,12,14,-1,13,14,3,-1,3,14,15,-1,3,15,16,-1,16,15,17,-1,16,17,18,-1,19,20,21,-1,21,20,22,-1,8,7,23,-1,10,24,8,-1,8,24,25,-1,8,25,6,-1,18,26,16,-1,16,26,27,-1,16,27,28,-1,29,30,16,-1,16,30,31,-1,32,33,34,-1,34,33,35,-1,31,36,16,-1,16,36,35,-1,16,35,37,-1,37,35,33,-1,7,38,23,-1,23,38,39,-1,23,39,40,-1,40,39,41,-1,40,41,21,-1,21,41,42,-1,21,42,19,-1,28,43,16,-1,16,43,44,-1,16,44,29,-1,22,45,21,-1,21,45,46,-1,21,46,13,-1,13,46,47,-1,13,47,11,-1,48,40,49,-1,49,40,21,-1,49,21,50,-1,50,21,51,-1,50,51,52,-1,53,54,55,-1,53,55,56,-1,57,58,59,-1,59,58,60,-1,59,60,61,-1,62,58,63,-1,63,58,57,-1,63,57,64,-1,54,65,66,-1,62,67,58,-1,58,67,68,-1,58,68,69,-1,70,53,71,-1,71,53,72,-1,71,72,73,-1,73,72,69,-1,74,75,68,-1,68,75,76,-1,68,76,77,-1,70,78,53,-1,53,78,79,-1,53,79,54,-1,54,79,80,-1,54,80,65,-1,66,81,54,-1,54,81,82,-1,54,82,68,-1,68,82,83,-1,68,83,74,-1,77,84,68,-1,68,84,85,-1,68,85,69,-1,69,85,86,-1,69,86,73,-1,87,88,89,-1,89,88,90,-1,90,88,91,-1,90,91,92,-1,92,91,93,-1,92,93,94,-1,94,93,95,-1,94,95,96,-1,96,95,97,-1,96,97,98,-1,99,53,100,-1,100,53,56,-1,100,56,101,-1,101,56,102,-1,101,102,103,-1,103,102,91,-1,103,91,104,-1,104,91,88,-1,104,88,105,-1,105,88,87,-1,106,107,108,-1,108,107,109,-1,109,107,110,-1,109,110,111,-1,111,110,112,-1,111,112,113,-1,113,112,114,-1,113,114,115,-1,115,114,116,-1,115,116,117,-1,118,119,120,-1,120,119,121,-1,120,121,122,-1,122,121,123,-1,122,123,124,-1,124,123,125,-1,124,125,126,-1,126,125,127,-1,128,129,118,-1,118,129,130,-1,118,130,119,-1,128,118,131,-1,131,118,120,-1,131,120,132,-1,132,120,133,-1,132,133,134,-1,134,133,51,-1,134,51,135,-1,135,51,21,-1,135,21,136,-1,137,138,139,-1,139,138,140,-1,137,139,141,-1,141,139,142,-1,141,142,143,-1,143,142,144,-1,143,144,145,-1,140,138,146,-1,146,138,147,-1,146,147,148,-1,149,150,151,-1,151,150,5,-1,151,5,152,-1,152,5,4,-1,153,154,155,-1,155,154,147,-1,155,147,156,-1,156,147,138,-1,156,138,157,-1,157,138,137,-1,157,137,158,-1,158,137,159,-1,160,110,161,-1,161,110,107,-1,161,107,162,-1,162,107,106,-1,162,106,163,-1,163,106,164,-1,163,164,153,-1,165,159,166,-1,166,159,137,-1,166,137,167,-1,167,137,141,-1,167,141,168,-1,168,141,169,-1,168,169,165,-1,165,169,159,-1,154,150,147,-1,147,150,145,-1,147,145,148,-1,148,145,144,-1,108,117,106,-1,106,117,116,-1,106,116,164,-1,164,116,170,-1,171,172,173,-1,172,171,174,-1,174,171,175,-1,174,175,176,-1,176,175,112,-1,176,112,173,-1,173,112,110,-1,173,110,171,-1,171,110,160,-1,171,160,0,-1,149,177,150,-1,150,177,10,-1,150,10,145,-1,145,10,9,-1,145,9,143,-1,143,9,178,-1,143,178,141,-1,141,178,179,-1,141,179,169,-1,169,179,180,-1,175,181,112,-1,112,181,182,-1,112,182,114,-1,114,182,60,-1,114,60,116,-1,116,60,58,-1,116,58,170,-1,170,58,69,-1,8,183,9,-1,9,183,52,-1,9,52,178,-1,178,52,51,-1,178,51,179,-1,179,51,133,-1,179,133,180,-1,180,133,184,-1,69,185,186,-1,153,164,154,-1,154,164,170,-1,154,170,150,-1,150,170,69,-1,150,69,5,-1,5,69,186,-1,5,186,187,-1,185,69,188,-1,188,69,72,-1,188,72,189,-1,3,5,13,-1,13,5,187,-1,13,187,72,-1,72,187,190,-1,72,190,189,-1,191,192,193,-1,193,192,188,-1,193,188,194,-1,194,188,189,-1,194,189,195,-1,195,189,196,-1,181,197,182,-1,182,197,102,-1,182,102,60,-1,60,102,56,-1,60,56,61,-1,61,56,55,-1,198,184,199,-1,199,184,133,-1,199,133,200,-1,200,133,120,-1,200,120,201,-1,201,120,202,-1,201,202,198,-1,198,202,184,-1,99,105,53,-1,53,105,87,-1,53,87,72,-1,72,87,203,-1,72,203,13,-1,13,203,204,-1,13,204,21,-1,21,204,129,-1,21,129,136,-1,136,129,128,-1,205,91,206,-1,206,91,102,-1,206,102,207,-1,207,102,197,-1,207,197,208,-1,208,197,209,-1,208,209,205,-1,205,209,91,-1,210,202,211,-1,211,202,120,-1,211,120,212,-1,212,120,122,-1,212,122,213,-1,213,122,214,-1,213,214,210,-1,210,214,202,-1,89,98,87,-1,87,98,97,-1,87,97,203,-1,203,97,215,-1,203,215,204,-1,204,215,216,-1,204,216,129,-1,129,216,126,-1,129,126,130,-1,130,126,127,-1,217,218,219,-1,219,218,93,-1,219,93,220,-1,220,93,91,-1,220,91,221,-1,221,91,209,-1,221,209,217,-1,217,209,218,-1,0,2,171,-1,171,2,222,-1,171,222,175,-1,175,222,223,-1,175,223,181,-1,181,223,224,-1,181,224,197,-1,197,224,225,-1,197,225,209,-1,209,225,226,-1,209,226,218,-1,
        ]
    }
}
Shape{
    appearance Appearance {
        material  Material 	{
            diffuseColor 0.8274509803921568 0.6666666666666666 0.12941176470588237
            specularColor 0.8274509803921568 0.6666666666666666 0.12941176470588237
            ambientIntensity 0.2
            transparency 0
            shininess 0.5
        }
    }
    geometry IndexedFaceSet {
        ccw TRUE
        solid FALSE
        coord DEF co Coordinate {
            point [
                1.4331 -0.9331 -1.1811, 1.374 -0.874 -0.9607, 1.5669 -0.9331 -1.1811, 1.626 -0.874 -0.9607, 1.374 -1.126 -0.9607, 1.4331 -1.0669 -1.1811, 1.5669 -1.0669 -1.1811, 1.626 -1.126 -0.9607, 1.626 -0.874 0.1969, 1.626 -1.126 0.1969, 1.374 -1.126 0.1969, 1.374 -0.874 0.1969, 1.4331 0.0669 -1.1811, 1.374 0.126 -0.9607, 1.5669 0.0669 -1.1811, 1.626 0.126 -0.9607, 1.374 -0.126 -0.9607, 1.4331 -0.0669 -1.1811, 1.5669 -0.0669 -1.1811, 1.626 -0.126 -0.9607, 1.626 0.126 0.1969, 1.626 -0.126 0.1969, 1.374 -0.126 0.1969, 1.374 0.126 0.1969, 1.4331 1.0669 -1.1811, 1.374 1.126 -0.9607, 1.5669 1.0669 -1.1811, 1.626 1.126 -0.9607, 1.374 0.874 -0.9607, 1.4331 0.9331 -1.1811, 1.5669 0.9331 -1.1811, 1.626 0.874 -0.9607, 1.626 1.126 0.1969, 1.626 0.874 0.1969, 1.374 0.874 0.1969, 1.374 1.126 0.1969, 0.4331 -0.9331 -1.1811, 0.374 -0.874 -0.9607, 0.5669 -0.9331 -1.1811, 0.626 -0.874 -0.9607, 0.374 -1.126 -0.9607, 0.4331 -1.0669 -1.1811, 0.5669 -1.0669 -1.1811, 0.626 -1.126 -0.9607, 0.626 -0.874 0.1969, 0.626 -1.126 0.1969, 0.374 -1.126 0.1969, 0.374 -0.874 0.1969, 0.4331 0.0669 -1.1811, 0.374 0.126 -0.9607, 0.5669 0.0669 -1.1811, 0.626 0.126 -0.9607, 0.374 -0.126 -0.9607, 0.4331 -0.0669 -1.1811, 0.5669 -0.0669 -1.1811, 0.626 -0.126 -0.9607, 0.626 0.126 0.1969, 0.626 -0.126 0.1969, 0.374 -0.126 0.1969, 0.374 0.126 0.1969, 0.4331 1.0669 -1.1811, 0.374 1.126 -0.9607, 0.5669 1.0669 -1.1811, 0.626 1.126 -0.9607, 0.374 0.874 -0.9607, 0.4331 0.9331 -1.1811, 0.5669 0.9331 -1.1811, 0.626 0.874 -0.9607, 0.626 1.126 0.1969, 0.626 0.874 0.1969, 0.374 0.874 0.1969, 0.374 1.126 0.1969, -0.5669 -0.9331 -1.1811, -0.626 -0.874 -0.9607, -0.4331 -0.9331 -1.1811, -0.374 -0.874 -0.9607, -0.626 -1.126 -0.9607, -0.5669 -1.0669 -1.1811, -0.4331 -1.0669 -1.1811, -0.374 -1.126 -0.9607, -0.374 -0.874 0.1969, -0.374 -1.126 0.1969, -0.626 -1.126 0.1969, -0.626 -0.874 0.1969, -0.5669 0.0669 -1.1811, -0.626 0.126 -0.9607, -0.4331 0.0669 -1.1811, -0.374 0.126 -0.9607, -0.626 -0.126 -0.9607, -0.5669 -0.0669 -1.1811, -0.4331 -0.0669 -1.1811, -0.374 -0.126 -0.9607, -0.374 0.126 0.1969, -0.374 -0.126 0.1969, -0.626 -0.126 0.1969, -0.626 0.126 0.1969, -0.5669 1.0669 -1.1811, -0.626 1.126 -0.9607, -0.4331 1.0669 -1.1811, -0.374 1.126 -0.9607, -0.626 0.874 -0.9607, -0.5669 0.9331 -1.1811, -0.4331 0.9331 -1.1811, -0.374 0.874 -0.9607, -0.374 1.126 0.1969, -0.374 0.874 0.1969, -0.626 0.874 0.1969, -0.626 1.126 0.1969, -1.5669 -0.9331 -1.1811, -1.626 -0.874 -0.9607, -1.4331 -0.9331 -1.1811, -1.374 -0.874 -0.9607, -1.626 -1.126 -0.9607, -1.5669 -1.0669 -1.1811, -1.4331 -1.0669 -1.1811, -1.374 -1.126 -0.9607, -1.374 -0.874 0.1969, -1.374 -1.126 0.1969, -1.626 -1.126 0.1969, -1.626 -0.874 0.1969, 1.626 -1.126 3.1418, 1.5669 -1.0669 3.3622, 1.374 -1.126 3.1418, 1.4331 -1.0669 3.3622, 1.5669 -0.9331 3.3622, 1.626 -0.874 3.1418, 1.374 -0.874 3.1418, 1.4331 -0.9331 3.3622, 1.626 -0.874 1.0, 1.374 -0.874 1.0, 1.374 -1.126 1.0, 1.626 -1.126 1.0, 1.626 -0.126 3.1418, 1.5669 -0.0669 3.3622, 1.374 -0.126 3.1418, 1.4331 -0.0669 3.3622, 1.5669 0.0669 3.3622, 1.626 0.126 3.1418, 1.374 0.126 3.1418, 1.4331 0.0669 3.3622, 1.626 0.126 1.0, 1.374 0.126 1.0, 1.374 -0.126 1.0, 1.626 -0.126 1.0, 1.626 0.874 3.1418, 1.5669 0.9331 3.3622, 1.374 0.874 3.1418, 1.4331 0.9331 3.3622, 1.5669 1.0669 3.3622, 1.626 1.126 3.1418, 1.374 1.126 3.1418, 1.4331 1.0669 3.3622, 1.626 1.126 1.0, 1.374 1.126 1.0, 1.374 0.874 1.0, 1.626 0.874 1.0, 0.626 -1.126 3.1418, 0.5669 -1.0669 3.3622, 0.374 -1.126 3.1418, 0.4331 -1.0669 3.3622, 0.5669 -0.9331 3.3622, 0.626 -0.874 3.1418, 0.374 -0.874 3.1418, 0.4331 -0.9331 3.3622, 0.626 -0.874 1.0, 0.374 -0.874 1.0, 0.374 -1.126 1.0, 0.626 -1.126 1.0, 0.626 -0.126 3.1418, 0.5669 -0.0669 3.3622, 0.374 -0.126 3.1418, 0.4331 -0.0669 3.3622, 0.5669 0.0669 3.3622, 0.626 0.126 3.1418, 0.374 0.126 3.1418, 0.4331 0.0669 3.3622, 0.626 0.126 1.0, 0.374 0.126 1.0, 0.374 -0.126 1.0, 0.626 -0.126 1.0, 0.626 0.874 3.1418, 0.5669 0.9331 3.3622, 0.374 0.874 3.1418, 0.4331 0.9331 3.3622, 0.5669 1.0669 3.3622, 0.626 1.126 3.1418, 0.374 1.126 3.1418, 0.4331 1.0669 3.3622, 0.626 1.126 1.0, 0.374 1.126 1.0, 0.374 0.874 1.0, 0.626 0.874 1.0, -0.374 -1.126 3.1418, -0.4331 -1.0669 3.3622, -0.626 -1.126 3.1418, -0.5669 -1.0669 3.3622, -0.4331 -0.9331 3.3622, -0.374 -0.874 3.1418, -0.626 -0.874 3.1418, -0.5669 -0.9331 3.3622, -0.374 -0.874 1.0, -0.626 -0.874 1.0, -0.626 -1.126 1.0, -0.374 -1.126 1.0, -0.374 -0.126 3.1418, -0.4331 -0.0669 3.3622, -0.626 -0.126 3.1418, -0.5669 -0.0669 3.3622, -0.4331 0.0669 3.3622, -0.374 0.126 3.1418, -0.626 0.126 3.1418, -0.5669 0.0669 3.3622, -0.374 0.126 1.0, -0.626 0.126 1.0, -0.626 -0.126 1.0, -0.374 -0.126 1.0, -0.374 0.874 3.1418, -0.4331 0.9331 3.3622, -0.626 0.874 3.1418, -0.5669 0.9331 3.3622, -0.4331 1.0669 3.3622, -0.374 1.126 3.1418, -0.626 1.126 3.1418, -0.5669 1.0669 3.3622, -0.374 1.126 1.0, -0.626 1.126 1.0, -0.626 0.874 1.0, -0.374 0.874 1.0, -1.374 -1.126 3.1418, -1.4331 -1.0669 3.3622, -1.626 -1.126 3.1418, -1.5669 -1.0669 3.3622, -1.4331 -0.9331 3.3622, -1.374 -0.874 3.1418, -1.626 -0.874 3.1418, -1.5669 -0.9331 3.3622, -1.374 -0.874 1.0, -1.626 -0.874 1.0, -1.626 -1.126 1.0, -1.374 -1.126 1.0, -1.374 -1.126 1.0
            ]
        }
        coordIndex [
            0,1,2,-1,2,1,3,-1,1,0,4,-1,4,0,5,-1,6,7,5,-1,5,7,4,-1,2,3,6,-1,6,3,7,-1,3,8,7,-1,7,8,9,-1,7,9,4,-1,4,9,10,-1,4,10,1,-1,1,10,11,-1,1,11,3,-1,3,11,8,-1,2,6,0,-1,0,6,5,-1,12,13,14,-1,14,13,15,-1,13,12,16,-1,16,12,17,-1,18,19,17,-1,17,19,16,-1,14,15,18,-1,18,15,19,-1,15,20,19,-1,19,20,21,-1,19,21,16,-1,16,21,22,-1,16,22,13,-1,13,22,23,-1,13,23,15,-1,15,23,20,-1,14,18,12,-1,12,18,17,-1,24,25,26,-1,26,25,27,-1,25,24,28,-1,28,24,29,-1,30,31,29,-1,29,31,28,-1,26,27,30,-1,30,27,31,-1,27,32,31,-1,31,32,33,-1,31,33,28,-1,28,33,34,-1,28,34,25,-1,25,34,35,-1,25,35,27,-1,27,35,32,-1,26,30,24,-1,24,30,29,-1,36,37,38,-1,38,37,39,-1,37,36,40,-1,40,36,41,-1,42,43,41,-1,41,43,40,-1,38,39,42,-1,42,39,43,-1,39,44,43,-1,43,44,45,-1,43,45,40,-1,40,45,46,-1,40,46,37,-1,37,46,47,-1,37,47,39,-1,39,47,44,-1,38,42,36,-1,36,42,41,-1,48,49,50,-1,50,49,51,-1,49,48,52,-1,52,48,53,-1,54,55,53,-1,53,55,52,-1,50,51,54,-1,54,51,55,-1,51,56,55,-1,55,56,57,-1,55,57,52,-1,52,57,58,-1,52,58,49,-1,49,58,59,-1,49,59,51,-1,51,59,56,-1,50,54,48,-1,48,54,53,-1,60,61,62,-1,62,61,63,-1,61,60,64,-1,64,60,65,-1,66,67,65,-1,65,67,64,-1,62,63,66,-1,66,63,67,-1,63,68,67,-1,67,68,69,-1,67,69,64,-1,64,69,70,-1,64,70,61,-1,61,70,71,-1,61,71,63,-1,63,71,68,-1,62,66,60,-1,60,66,65,-1,72,73,74,-1,74,73,75,-1,73,72,76,-1,76,72,77,-1,78,79,77,-1,77,79,76,-1,74,75,78,-1,78,75,79,-1,75,80,79,-1,79,80,81,-1,79,81,76,-1,76,81,82,-1,76,82,73,-1,73,82,83,-1,73,83,75,-1,75,83,80,-1,74,78,72,-1,72,78,77,-1,84,85,86,-1,86,85,87,-1,85,84,88,-1,88,84,89,-1,90,91,89,-1,89,91,88,-1,86,87,90,-1,90,87,91,-1,87,92,91,-1,91,92,93,-1,91,93,88,-1,88,93,94,-1,88,94,85,-1,85,94,95,-1,85,95,87,-1,87,95,92,-1,86,90,84,-1,84,90,89,-1,96,97,98,-1,98,97,99,-1,97,96,100,-1,100,96,101,-1,102,103,101,-1,101,103,100,-1,98,99,102,-1,102,99,103,-1,99,104,103,-1,103,104,105,-1,103,105,100,-1,100,105,106,-1,100,106,97,-1,97,106,107,-1,97,107,99,-1,99,107,104,-1,98,102,96,-1,96,102,101,-1,108,109,110,-1,110,109,111,-1,109,108,112,-1,112,108,113,-1,114,115,113,-1,113,115,112,-1,110,111,114,-1,114,111,115,-1,111,116,115,-1,115,116,117,-1,115,117,112,-1,112,117,118,-1,112,118,109,-1,109,118,119,-1,109,119,111,-1,111,119,116,-1,110,114,108,-1,108,114,113,-1,120,121,122,-1,122,121,123,-1,121,120,124,-1,124,120,125,-1,126,127,125,-1,125,127,124,-1,122,123,126,-1,126,123,127,-1,121,124,123,-1,123,124,127,-1,125,128,126,-1,126,128,129,-1,126,129,122,-1,122,129,130,-1,122,130,120,-1,120,130,131,-1,120,131,125,-1,125,131,128,-1,132,133,134,-1,134,133,135,-1,133,132,136,-1,136,132,137,-1,138,139,137,-1,137,139,136,-1,134,135,138,-1,138,135,139,-1,133,136,135,-1,135,136,139,-1,137,140,138,-1,138,140,141,-1,138,141,134,-1,134,141,142,-1,134,142,132,-1,132,142,143,-1,132,143,137,-1,137,143,140,-1,144,145,146,-1,146,145,147,-1,145,144,148,-1,148,144,149,-1,150,151,149,-1,149,151,148,-1,146,147,150,-1,150,147,151,-1,145,148,147,-1,147,148,151,-1,149,152,150,-1,150,152,153,-1,150,153,146,-1,146,153,154,-1,146,154,144,-1,144,154,155,-1,144,155,149,-1,149,155,152,-1,156,157,158,-1,158,157,159,-1,157,156,160,-1,160,156,161,-1,162,163,161,-1,161,163,160,-1,158,159,162,-1,162,159,163,-1,157,160,159,-1,159,160,163,-1,161,164,162,-1,162,164,165,-1,162,165,158,-1,158,165,166,-1,158,166,156,-1,156,166,167,-1,156,167,161,-1,161,167,164,-1,168,169,170,-1,170,169,171,-1,169,168,172,-1,172,168,173,-1,174,175,173,-1,173,175,172,-1,170,171,174,-1,174,171,175,-1,169,172,171,-1,171,172,175,-1,173,176,174,-1,174,176,177,-1,174,177,170,-1,170,177,178,-1,170,178,168,-1,168,178,179,-1,168,179,173,-1,173,179,176,-1,180,181,182,-1,182,181,183,-1,181,180,184,-1,184,180,185,-1,186,187,185,-1,185,187,184,-1,182,183,186,-1,186,183,187,-1,181,184,183,-1,183,184,187,-1,185,188,186,-1,186,188,189,-1,186,189,182,-1,182,189,190,-1,182,190,180,-1,180,190,191,-1,180,191,185,-1,185,191,188,-1,192,193,194,-1,194,193,195,-1,193,192,196,-1,196,192,197,-1,198,199,197,-1,197,199,196,-1,194,195,198,-1,198,195,199,-1,193,196,195,-1,195,196,199,-1,197,200,198,-1,198,200,201,-1,198,201,194,-1,194,201,202,-1,194,202,192,-1,192,202,203,-1,192,203,197,-1,197,203,200,-1,204,205,206,-1,206,205,207,-1,205,204,208,-1,208,204,209,-1,210,211,209,-1,209,211,208,-1,206,207,210,-1,210,207,211,-1,205,208,207,-1,207,208,211,-1,209,212,210,-1,210,212,213,-1,210,213,206,-1,206,213,214,-1,206,214,204,-1,204,214,215,-1,204,215,209,-1,209,215,212,-1,216,217,218,-1,218,217,219,-1,217,216,220,-1,220,216,221,-1,222,223,221,-1,221,223,220,-1,218,219,222,-1,222,219,223,-1,217,220,219,-1,219,220,223,-1,221,224,222,-1,222,224,225,-1,222,225,218,-1,218,225,226,-1,218,226,216,-1,216,226,227,-1,216,227,221,-1,221,227,224,-1,228,229,230,-1,230,229,231,-1,229,228,232,-1,232,228,233,-1,234,235,233,-1,233,235,232,-1,230,231,234,-1,234,231,235,-1,229,232,231,-1,231,232,235,-1,233,236,234,-1,234,236,237,-1,234,237,230,-1,230,237,238,-1,230,238,228,-1,228,238,239,-1,228,239,233,-1,233,239,236,-1,
        ]
    }
}
Shape{
    appearance Appearance {
        material  Material 	{
            diffuseColor 0.20784313725490197 0.20784313725490197 0.20784313725490197
            specularColor 0.01568627450980392 0.01568627450980392 0.01568627450980392
            ambientIntensity 0.2
            transparency 0
            shininess 0.5
        }
    }
    geometry IndexedFaceSet {
        ccw TRUE
        solid FALSE
        coord DEF co Coordinate {
            point [
                1.9213 -1.4921 0.0, 1.0787 -1.4921 0.0, 1.0 -1.4134 0.0, 2.0 -1.2953 0.0, 2.0 -1.4134 0.0, 0.9213 -1.4921 0.0, 0.0787 -1.4921 0.0, 0.0 -1.4134 0.0, -2.0 -1.2953 0.0, -0.0787 -1.4921 0.0, -0.9213 -1.4921 0.0, -1.0 -1.4134 0.0, -1.0787 -1.4921 0.0, -2.0 -1.4134 0.0, -1.9213 -1.4921 0.0, -2.0 1.4134 1.0, -1.9213 1.4921 1.0, -2.0 1.4134 0.0, -1.9213 1.4921 0.0, -2.0 1.2953 0.0, -2.0 1.2953 0.1969, -2.0 -1.2953 0.1969, -2.0 -1.4134 1.0, -1.9213 -1.4921 1.0, -1.0787 -1.4921 1.0, -1.0 -1.4134 1.0, -1.0787 1.4921 1.0, -1.0 1.4134 1.0, -1.0787 1.4921 -0.0, -1.0 1.4134 -0.0, -1.374 1.126 1.0, -1.374 0.874 1.0, -1.0 0.5 1.0, -1.626 1.126 1.0, -2.0 0.5 1.0, -1.626 0.874 1.0, -0.374 1.126 1.0, -0.374 0.874 1.0, -0.0 0.5 1.0, -0.626 0.874 1.0, -0.626 1.126 1.0, -0.9213 1.4921 1.0, -0.0787 1.4921 1.0, 0.626 1.126 1.0, 0.626 0.874 1.0, 1.0 0.5 1.0, 0.374 0.874 1.0, 0.374 1.126 1.0, -0.0 1.4134 1.0, 0.0787 1.4921 1.0, 0.9213 1.4921 1.0, 1.626 1.126 1.0, 1.626 0.874 1.0, 1.813 0.5 1.0, 1.374 0.874 1.0, 1.374 1.126 1.0, 1.0 1.4134 1.0, 1.0787 1.4921 1.0, 1.813 1.4921 1.0, 1.9213 1.4921 1.0, 2.0 1.4134 1.0, 1.813 -1.3091 1.0, 1.813 -1.4921 1.0, 1.9213 -1.4921 1.0, 1.0787 -1.4921 1.0, 1.0 -1.4134 1.0, 1.0 -1.3091 1.0, 0.9213 -1.4921 1.0, 0.0787 -1.4921 1.0, -0.0 -1.4134 1.0, -0.0 -1.3091 1.0, -1.0 -1.3091 1.0, -2.0 -1.3091 1.0, -0.0787 -1.4921 1.0, -0.9213 -1.4921 1.0, -1.626 -0.874 1.0, -2.0 -0.5 1.0, -1.626 -1.126 1.0, -1.374 -1.126 1.0, -1.374 -0.874 1.0, -1.0 -0.5 1.0, -0.626 -0.874 1.0, -0.626 -1.126 1.0, -0.374 -1.126 1.0, -0.374 -0.874 1.0, -0.0 -0.5 1.0, 0.374 -0.874 1.0, 0.374 -1.126 1.0, 0.626 -1.126 1.0, 0.626 -0.874 1.0, 1.0 -0.5 1.0, 1.374 -0.874 1.0, 1.374 -1.126 1.0, 1.626 -1.126 1.0, 1.626 -0.874 1.0, 1.813 -0.5 1.0, -1.626 -0.126 1.0, -1.374 -0.126 1.0, -1.374 0.126 1.0, -1.626 0.126 1.0, -0.626 0.126 1.0, -0.626 -0.126 1.0, -0.374 -0.126 1.0, -0.374 0.126 1.0, 0.374 0.126 1.0, 0.374 -0.126 1.0, 0.626 -0.126 1.0, 0.626 0.126 1.0, 1.374 0.126 1.0, 1.374 -0.126 1.0, 1.626 -0.126 1.0, 1.626 0.126 1.0, 2.0 0.5 1.0, 2.0 -0.5 1.0, 2.0 -1.3091 1.0, 2.0 -1.4134 1.0, 1.9213 1.4921 0.0, 2.0 1.4134 0.0, 2.0 1.2953 0.0, 0.0787 1.4921 0.0, 0.9213 1.4921 0.0, -0.0 1.4134 0.0, 1.0 1.4134 0.0, 1.0787 1.4921 0.0, -0.9213 1.4921 0.0, -0.0787 1.4921 0.0, 2.0 -1.2953 0.1969, 2.0 1.2953 0.1969, 2.0 1.2953 0.1969
            ]
        }
        coordIndex [
            0,1,2,-1,3,4,0,-1,5,6,2,-1,2,6,7,-1,0,2,3,-1,3,2,7,-1,3,7,8,-1,9,10,7,-1,7,10,11,-1,7,11,8,-1,8,11,12,-1,8,12,13,-1,13,12,14,-1,15,16,17,-1,17,16,18,-1,17,19,20,-1,8,13,21,-1,21,13,22,-1,21,22,20,-1,20,22,15,-1,20,15,17,-1,23,22,14,-1,14,22,13,-1,24,23,12,-1,12,23,14,-1,25,24,11,-1,11,24,12,-1,26,27,28,-1,28,27,29,-1,16,26,18,-1,18,26,28,-1,30,31,32,-1,26,16,33,-1,32,31,34,-1,16,15,33,-1,33,15,34,-1,33,34,35,-1,35,34,31,-1,36,37,38,-1,38,37,32,-1,32,37,39,-1,32,39,40,-1,33,30,26,-1,26,30,32,-1,26,32,27,-1,27,32,40,-1,27,40,41,-1,41,40,42,-1,43,44,45,-1,45,44,38,-1,38,44,46,-1,38,46,47,-1,40,36,42,-1,42,36,38,-1,42,38,48,-1,48,38,47,-1,48,47,49,-1,49,47,50,-1,51,52,53,-1,53,52,45,-1,45,52,54,-1,45,54,55,-1,47,43,50,-1,50,43,45,-1,50,45,56,-1,56,45,55,-1,56,55,57,-1,57,55,58,-1,55,51,58,-1,58,51,53,-1,58,53,59,-1,59,53,60,-1,61,62,63,-1,64,62,65,-1,65,62,61,-1,65,61,66,-1,67,65,68,-1,68,65,66,-1,68,66,69,-1,69,66,70,-1,69,70,71,-1,72,22,23,-1,73,69,74,-1,74,69,71,-1,74,71,25,-1,25,71,72,-1,25,72,24,-1,24,72,23,-1,75,76,77,-1,77,76,72,-1,77,72,78,-1,78,72,71,-1,78,71,79,-1,79,71,80,-1,79,80,75,-1,75,80,76,-1,81,80,82,-1,82,80,71,-1,82,71,83,-1,83,71,70,-1,83,70,84,-1,84,70,85,-1,84,85,81,-1,81,85,80,-1,86,85,87,-1,87,85,70,-1,87,70,88,-1,88,70,66,-1,88,66,89,-1,89,66,90,-1,89,90,86,-1,86,90,85,-1,91,90,92,-1,92,90,66,-1,92,66,93,-1,93,66,61,-1,93,61,94,-1,94,61,95,-1,94,95,91,-1,91,95,90,-1,96,76,97,-1,97,76,80,-1,97,80,98,-1,98,80,32,-1,98,32,99,-1,99,32,34,-1,99,34,96,-1,96,34,76,-1,100,32,101,-1,101,32,80,-1,101,80,102,-1,102,80,85,-1,102,85,103,-1,103,85,38,-1,103,38,100,-1,100,38,32,-1,104,38,105,-1,105,38,85,-1,105,85,106,-1,106,85,90,-1,106,90,107,-1,107,90,45,-1,107,45,104,-1,104,45,38,-1,108,45,109,-1,109,45,90,-1,109,90,110,-1,110,90,95,-1,110,95,111,-1,111,95,53,-1,111,53,108,-1,108,53,45,-1,60,53,112,-1,112,53,95,-1,112,95,113,-1,113,95,61,-1,113,61,114,-1,114,61,63,-1,114,63,115,-1,116,117,118,-1,18,28,17,-1,17,28,29,-1,17,29,19,-1,119,120,121,-1,121,120,122,-1,121,122,118,-1,118,122,123,-1,118,123,116,-1,124,125,29,-1,29,125,121,-1,29,121,19,-1,19,121,118,-1,27,41,29,-1,29,41,124,-1,74,25,10,-1,10,25,11,-1,73,74,9,-1,9,74,10,-1,69,73,7,-1,7,73,9,-1,42,48,125,-1,125,48,121,-1,41,42,124,-1,124,42,125,-1,48,49,121,-1,121,49,119,-1,68,69,6,-1,6,69,7,-1,67,68,5,-1,5,68,6,-1,65,67,2,-1,2,67,5,-1,50,56,120,-1,120,56,122,-1,49,50,119,-1,119,50,120,-1,56,57,122,-1,122,57,123,-1,64,65,1,-1,1,65,2,-1,63,64,0,-1,0,64,1,-1,115,63,4,-1,4,63,0,-1,4,3,126,-1,118,117,127,-1,127,117,60,-1,127,60,126,-1,126,60,115,-1,126,115,4,-1,59,60,116,-1,116,60,117,-1,57,59,123,-1,123,59,116,-1,21,126,8,-1,8,126,3,-1,127,20,118,-1,118,20,19,-1,
        ]
    }
}
Shape{
    appearance Appearance {
        material  Material 	{
            diffuseColor 0.8274509803921568 0.6666666666666666 0.12941176470588237
            specularColor 0.8274509803921568 0.6666666666666666 0.12941176470588237
            ambientIntensity 0.2
            transparency 0
            shininess 0.5
        }
    }
    geometry IndexedFaceSet {
        ccw TRUE
        solid FALSE
        coord DEF co Coordinate {
            point [
                -1.4331 1.0669 -1.1811, -1.4331 0.9331 -1.1811, -1.5669 1.0669 -1.1811, -1.5669 0.9331 -1.1811, -1.626 1.126 -0.9607, -1.626 1.126 0.1969, -1.374 1.126 -0.9607, -1.374 1.126 0.1969, -1.626 0.874 -0.9607, -1.626 0.874 0.1969, -1.374 0.874 -0.9607, -1.374 0.874 0.1969, -1.374 0.874 3.1418, -1.374 0.874 1.0, -1.374 1.126 3.1418, -1.374 1.126 1.0, -1.626 0.874 3.1418, -1.626 0.874 1.0, -1.626 1.126 3.1418, -1.626 1.126 1.0, -1.4331 0.9331 3.3622, -1.4331 1.0669 3.3622, -1.5669 0.9331 3.3622, -1.5669 1.0669 3.3622, -1.374 -0.126 3.1418, -1.374 -0.126 1.0, -1.374 0.126 3.1418, -1.374 0.126 1.0, -1.626 -0.126 3.1418, -1.626 -0.126 1.0, -1.626 0.126 3.1418, -1.626 0.126 1.0, -1.4331 -0.0669 3.3622, -1.4331 0.0669 3.3622, -1.5669 -0.0669 3.3622, -1.5669 0.0669 3.3622, -1.4331 0.0669 -1.1811, -1.4331 -0.0669 -1.1811, -1.5669 0.0669 -1.1811, -1.5669 -0.0669 -1.1811, -1.626 0.126 -0.9607, -1.626 0.126 0.1969, -1.374 0.126 -0.9607, -1.374 0.126 0.1969, -1.626 -0.126 -0.9607, -1.626 -0.126 0.1969, -1.374 -0.126 -0.9607, -1.374 -0.126 0.1969, -1.374 -0.126 0.1969
            ]
        }
        coordIndex [
            0,1,2,-1,2,1,3,-1,4,5,6,-1,6,5,7,-1,8,9,4,-1,4,9,5,-1,10,11,8,-1,8,11,9,-1,6,7,10,-1,10,7,11,-1,12,13,14,-1,14,13,15,-1,16,17,12,-1,12,17,13,-1,18,19,16,-1,16,19,17,-1,14,15,18,-1,18,15,19,-1,20,21,22,-1,22,21,23,-1,1,10,3,-1,3,10,8,-1,0,6,1,-1,1,6,10,-1,4,2,8,-1,8,2,3,-1,2,4,0,-1,0,4,6,-1,18,23,14,-1,14,23,21,-1,16,22,18,-1,18,22,23,-1,20,12,21,-1,21,12,14,-1,12,20,16,-1,16,20,22,-1,24,25,26,-1,26,25,27,-1,28,29,24,-1,24,29,25,-1,30,31,28,-1,28,31,29,-1,26,27,30,-1,30,27,31,-1,32,33,34,-1,34,33,35,-1,28,34,30,-1,30,34,35,-1,30,35,26,-1,26,35,33,-1,32,24,33,-1,33,24,26,-1,24,32,28,-1,28,32,34,-1,36,37,38,-1,38,37,39,-1,40,41,42,-1,42,41,43,-1,44,45,40,-1,40,45,41,-1,46,47,44,-1,44,47,45,-1,42,43,46,-1,46,43,47,-1,36,42,37,-1,37,42,46,-1,37,46,39,-1,39,46,44,-1,40,38,44,-1,44,38,39,-1,38,40,36,-1,36,40,42,-1,
        ]
    }
}
Shape{
    appearance Appearance {
        material  Material 	{
            diffuseColor 1.0 1.0 1.0
            specularColor 0.8784313725490196 0.8784313725490196 0.8784313725490196
            ambientIntensity 0.2
            transparency 0
            shininess 0.5
        }
    }
    geometry IndexedFaceSet {
        ccw TRUE
        solid FALSE
        coord DEF co Coordinate {
            point [
                -0.3337 -0.391 0.2047, -0.4105 -0.5879 0.2047, -0.3337 -0.391 0.1969, -0.4105 -0.5879 0.1969, -0.3817 -0.5879 0.2047, -0.3817 -0.5879 0.1969, -0.3618 -0.5326 0.2047, -0.3618 -0.5326 0.1969, -0.3034 -0.5326 0.1969, -0.2805 -0.5326 0.2047, -0.2805 -0.5326 0.1969, -0.2617 -0.5879 0.2047, -0.2617 -0.5879 0.1969, -0.2329 -0.5879 0.2047, -0.2329 -0.5879 0.1969, -0.3034 -0.4012 0.1969, -0.3073 -0.391 0.2047, -0.3073 -0.391 0.1969, -0.2871 -0.511 0.2047, -0.3529 -0.511 0.2047, -0.3165 -0.4288 0.2047, -0.3184 -0.422 0.2047, -0.3196 -0.415 0.2047, -0.3203 -0.415 0.2047, -0.3215 -0.422 0.2047, -0.3233 -0.4288 0.2047, -0.2871 -0.511 0.1969, -0.3529 -0.511 0.1969, -0.3165 -0.4288 0.1969, -0.3184 -0.422 0.1969, -0.3196 -0.415 0.1969, -0.3203 -0.415 0.1969, -0.3215 -0.422 0.1969, -0.3233 -0.4288 0.1969, -0.1135 -0.5879 0.2047, -0.06 -0.5879 0.2047, -0.1135 -0.5879 0.1969, -0.06 -0.5879 0.1969, -0.06 -0.391 0.2047, -0.06 -0.391 0.1969, -0.1156 -0.391 0.2047, -0.1156 -0.391 0.1969, -0.2185 -0.487 0.2047, -0.2185 -0.487 0.1969, -0.217 -0.4684 0.1969, -0.217 -0.4684 0.2047, -0.2117 -0.449 0.1969, -0.2117 -0.449 0.2047, -0.2026 -0.4321 0.1969, -0.2026 -0.4321 0.2047, -0.1887 -0.4167 0.1969, -0.1887 -0.4167 0.2047, -0.1885 -0.4165 0.1969, -0.1885 -0.4165 0.2047, -0.167 -0.4021 0.1969, -0.167 -0.4021 0.2047, -0.144 -0.3941 0.1969, -0.144 -0.3941 0.2047, -0.1379 -0.5857 0.1969, -0.1379 -0.5857 0.2047, -0.1606 -0.579 0.1969, -0.1606 -0.579 0.2047, -0.1811 -0.567 0.1969, -0.1811 -0.567 0.2047, -0.1973 -0.5515 0.1969, -0.1973 -0.5515 0.2047, -0.2086 -0.5339 0.1969, -0.2086 -0.5339 0.2047, -0.2157 -0.5133 0.1969, -0.2157 -0.5133 0.2047, -0.1789 -0.4402 0.2047, -0.1694 -0.4301 0.2047, -0.155 -0.4208 0.2047, -0.1388 -0.4151 0.2047, -0.1155 -0.4126 0.2047, -0.0864 -0.4126 0.2047, -0.0864 -0.5663 0.2047, -0.1144 -0.5663 0.2047, -0.1351 -0.5643 0.2047, -0.1517 -0.5592 0.2047, -0.1651 -0.5512 0.2047, -0.1762 -0.5403 0.2047, -0.1845 -0.5267 0.2047, -0.1902 -0.5082 0.2047, -0.192 -0.4875 0.2047, -0.1904 -0.4679 0.2047, -0.1858 -0.4524 0.2047, -0.1155 -0.4126 0.1969, -0.0864 -0.4126 0.1969, -0.1388 -0.4151 0.1969, -0.155 -0.4208 0.1969, -0.1694 -0.4301 0.1969, -0.1789 -0.4402 0.1969, -0.1858 -0.4524 0.1969, -0.1904 -0.4679 0.1969, -0.192 -0.4875 0.1969, -0.1902 -0.5082 0.1969, -0.1845 -0.5267 0.1969, -0.1762 -0.5403 0.1969, -0.1651 -0.5512 0.1969, -0.1517 -0.5592 0.1969, -0.1351 -0.5643 0.1969, -0.1144 -0.5663 0.1969, -0.0864 -0.5663 0.1969, -0.0216 -0.5663 0.2047, -0.0216 -0.5879 0.2047, -0.0216 -0.5663 0.1969, -0.0216 -0.5879 0.1969, 0.084 -0.5879 0.2047, 0.084 -0.5879 0.1969, 0.084 -0.391 0.2047, 0.084 -0.391 0.1969, -0.0168 -0.391 0.2047, -0.0168 -0.391 0.1969, -0.0168 -0.4126 0.2047, -0.0168 -0.4126 0.1969, 0.0576 -0.4126 0.2047, 0.0576 -0.4126 0.1969, 0.0576 -0.4774 0.2047, 0.0576 -0.4774 0.1969, -0.012 -0.4774 0.2047, -0.012 -0.4774 0.1969, -0.012 -0.499 0.2047, -0.012 -0.499 0.1969, 0.0576 -0.499 0.2047, 0.0576 -0.499 0.1969, 0.0576 -0.5663 0.2047, 0.0576 -0.5663 0.1969, 0.1224 -0.5561 0.2047, 0.1224 -0.5777 0.2047, 0.1224 -0.5561 0.1969, 0.1224 -0.5777 0.1969, 0.1434 -0.5863 0.2047, 0.1766 -0.5903 0.2047, 0.1766 -0.5903 0.1969, 0.1712 -0.5902 0.1969, 0.1712 -0.5902 0.2047, 0.1633 -0.5891 0.1969, 0.1434 -0.5863 0.1969, 0.2689 -0.4932 0.2047, 0.2689 -0.4932 0.1969, 0.267 -0.5159 0.1969, 0.267 -0.5159 0.2047, 0.261 -0.5368 0.1969, 0.261 -0.5368 0.2047, 0.2506 -0.5555 0.1969, 0.2506 -0.5555 0.2047, 0.2358 -0.5711 0.1969, 0.2358 -0.5711 0.2047, 0.2199 -0.5812 0.1969, 0.2199 -0.5812 0.2047, 0.2009 -0.5877 0.1969, 0.2009 -0.5877 0.2047, 0.1882 -0.5891 0.1969, 0.1688 -0.3886 0.2047, 0.1688 -0.3886 0.1969, 0.1885 -0.3902 0.1969, 0.1885 -0.3902 0.2047, 0.2105 -0.3966 0.1969, 0.2105 -0.3966 0.2047, 0.2292 -0.4074 0.1969, 0.2292 -0.4074 0.2047, 0.2469 -0.4245 0.1969, 0.2469 -0.4245 0.2047, 0.2585 -0.4429 0.1969, 0.2585 -0.4429 0.2047, 0.266 -0.4652 0.1969, 0.266 -0.4652 0.2047, 0.1224 -0.3964 0.2047, 0.1224 -0.3964 0.1969, 0.1452 -0.3902 0.1969, 0.1452 -0.3902 0.2047, 0.1224 -0.4228 0.2047, 0.1224 -0.4228 0.1969, 0.1685 -0.4102 0.2047, 0.1685 -0.4102 0.1969, 0.1446 -0.4133 0.1969, 0.1446 -0.4133 0.2047, 0.2425 -0.4915 0.2047, 0.2425 -0.4915 0.1969, 0.2415 -0.4762 0.1969, 0.2415 -0.4762 0.2047, 0.2363 -0.4551 0.1969, 0.2363 -0.4551 0.2047, 0.2282 -0.44 0.1969, 0.2282 -0.44 0.2047, 0.2163 -0.4268 0.1969, 0.2163 -0.4268 0.2047, 0.2026 -0.4177 0.1969, 0.2026 -0.4177 0.2047, 0.1879 -0.4124 0.1969, 0.1879 -0.4124 0.2047, 0.173 -0.5687 0.2047, 0.173 -0.5687 0.1969, 0.1913 -0.5666 0.1969, 0.1913 -0.5666 0.2047, 0.2057 -0.5613 0.1969, 0.2057 -0.5613 0.2047, 0.2177 -0.5532 0.1969, 0.2177 -0.5532 0.2047, 0.227 -0.5434 0.1969, 0.227 -0.5434 0.2047, 0.2351 -0.5298 0.1969, 0.2351 -0.5298 0.2047, 0.2405 -0.5128 0.1969, 0.2405 -0.5128 0.2047, 0.126 -0.558 0.1969, 0.126 -0.558 0.2047, 0.1468 -0.5658 0.1969, 0.1468 -0.5658 0.2047, 0.2857 -0.5663 0.2047, 0.2857 -0.5879 0.2047, 0.2857 -0.5663 0.1969, 0.2857 -0.5879 0.1969, 0.3298 -0.5879 0.1969, 0.3865 -0.5879 0.2047, 0.3865 -0.5879 0.1969, 0.3865 -0.391 0.2047, 0.3865 -0.391 0.1969, 0.3601 -0.391 0.2047, 0.3601 -0.391 0.1969, 0.3601 -0.5663 0.2047, 0.3601 -0.5663 0.1969, 0.3298 -0.5663 0.1969, 0.3298 -0.5663 0.1969
            ]
        }
        coordIndex [
            0,1,2,-1,2,1,3,-1,1,4,3,-1,3,4,5,-1,4,6,5,-1,5,6,7,-1,7,6,8,-1,8,6,9,-1,8,9,10,-1,9,11,10,-1,10,11,12,-1,11,13,12,-1,12,13,14,-1,14,13,15,-1,15,13,16,-1,15,16,17,-1,16,0,17,-1,17,0,2,-1,18,9,19,-1,19,9,6,-1,20,16,18,-1,18,16,13,-1,18,13,9,-1,9,13,11,-1,20,21,16,-1,16,21,22,-1,16,22,0,-1,0,22,23,-1,0,23,24,-1,24,25,0,-1,0,25,19,-1,0,19,1,-1,1,19,6,-1,1,6,4,-1,18,19,26,-1,26,19,27,-1,20,18,28,-1,28,18,26,-1,20,28,29,-1,20,29,21,-1,21,29,30,-1,21,30,22,-1,23,22,31,-1,31,22,30,-1,23,31,32,-1,23,32,24,-1,24,32,33,-1,24,33,25,-1,19,25,27,-1,27,25,33,-1,34,35,36,-1,36,35,37,-1,35,38,37,-1,37,38,39,-1,38,40,39,-1,39,40,41,-1,42,43,44,-1,42,44,45,-1,45,44,46,-1,45,46,47,-1,47,46,48,-1,47,48,49,-1,49,48,50,-1,49,50,51,-1,51,50,52,-1,51,52,53,-1,53,52,54,-1,53,54,55,-1,55,54,56,-1,55,56,57,-1,57,56,41,-1,57,41,40,-1,34,36,58,-1,34,58,59,-1,59,58,60,-1,59,60,61,-1,61,60,62,-1,61,62,63,-1,63,62,64,-1,63,64,65,-1,65,64,66,-1,65,66,67,-1,67,66,68,-1,67,68,69,-1,69,68,43,-1,69,43,42,-1,47,49,70,-1,70,49,51,-1,70,51,71,-1,71,51,53,-1,71,53,72,-1,72,53,55,-1,72,55,73,-1,73,55,57,-1,73,57,74,-1,74,57,40,-1,74,40,75,-1,75,40,38,-1,75,38,76,-1,76,38,35,-1,76,35,77,-1,77,35,34,-1,77,34,78,-1,78,34,59,-1,78,59,79,-1,79,59,61,-1,79,61,80,-1,80,61,63,-1,80,63,81,-1,81,63,65,-1,81,65,82,-1,82,65,67,-1,82,67,83,-1,83,67,69,-1,83,69,84,-1,84,69,42,-1,84,42,85,-1,85,42,45,-1,85,45,86,-1,86,45,47,-1,86,47,70,-1,74,75,87,-1,87,75,88,-1,74,87,89,-1,74,89,73,-1,73,89,90,-1,73,90,72,-1,72,90,91,-1,72,91,71,-1,71,91,92,-1,71,92,70,-1,70,92,93,-1,70,93,86,-1,86,93,94,-1,86,94,85,-1,85,94,95,-1,85,95,84,-1,84,95,96,-1,84,96,83,-1,83,96,97,-1,83,97,82,-1,82,97,98,-1,82,98,81,-1,81,98,99,-1,81,99,80,-1,80,99,100,-1,80,100,79,-1,79,100,101,-1,79,101,78,-1,78,101,102,-1,78,102,77,-1,76,77,103,-1,103,77,102,-1,75,76,88,-1,88,76,103,-1,104,105,106,-1,106,105,107,-1,105,108,107,-1,107,108,109,-1,108,110,109,-1,109,110,111,-1,110,112,111,-1,111,112,113,-1,112,114,113,-1,113,114,115,-1,114,116,115,-1,115,116,117,-1,116,118,117,-1,117,118,119,-1,118,120,119,-1,119,120,121,-1,120,122,121,-1,121,122,123,-1,122,124,123,-1,123,124,125,-1,124,126,125,-1,125,126,127,-1,126,104,127,-1,127,104,106,-1,108,105,104,-1,104,126,108,-1,108,126,124,-1,108,124,110,-1,114,112,116,-1,116,112,110,-1,116,110,118,-1,118,110,124,-1,118,124,120,-1,120,124,122,-1,128,129,130,-1,130,129,131,-1,131,129,132,-1,133,134,135,-1,133,135,136,-1,136,135,137,-1,136,137,132,-1,132,137,138,-1,132,138,131,-1,139,140,141,-1,139,141,142,-1,142,141,143,-1,142,143,144,-1,144,143,145,-1,144,145,146,-1,146,145,147,-1,146,147,148,-1,148,147,149,-1,148,149,150,-1,150,149,151,-1,150,151,152,-1,152,151,133,-1,133,151,153,-1,133,153,134,-1,154,155,156,-1,154,156,157,-1,157,156,158,-1,157,158,159,-1,159,158,160,-1,159,160,161,-1,161,160,162,-1,161,162,163,-1,163,162,164,-1,163,164,165,-1,165,164,166,-1,165,166,167,-1,167,166,140,-1,167,140,139,-1,168,169,170,-1,168,170,171,-1,171,170,155,-1,171,155,154,-1,168,172,169,-1,169,172,173,-1,174,175,176,-1,174,176,177,-1,177,176,173,-1,177,173,172,-1,178,179,180,-1,178,180,181,-1,181,180,182,-1,181,182,183,-1,183,182,184,-1,183,184,185,-1,185,184,186,-1,185,186,187,-1,187,186,188,-1,187,188,189,-1,189,188,190,-1,189,190,191,-1,191,190,175,-1,191,175,174,-1,192,193,194,-1,192,194,195,-1,195,194,196,-1,195,196,197,-1,197,196,198,-1,197,198,199,-1,199,198,200,-1,199,200,201,-1,201,200,202,-1,201,202,203,-1,203,202,204,-1,203,204,205,-1,205,204,179,-1,205,179,178,-1,128,130,206,-1,128,206,207,-1,207,206,208,-1,207,208,209,-1,209,208,193,-1,209,193,192,-1,195,133,192,-1,192,133,136,-1,192,136,209,-1,209,136,132,-1,209,132,207,-1,207,132,129,-1,207,129,128,-1,172,168,177,-1,177,168,171,-1,177,171,174,-1,174,171,154,-1,174,154,191,-1,191,154,157,-1,191,157,189,-1,189,157,159,-1,189,159,187,-1,187,159,161,-1,187,161,185,-1,185,161,163,-1,185,163,183,-1,183,163,165,-1,183,165,181,-1,181,165,167,-1,181,167,178,-1,178,167,139,-1,178,139,205,-1,205,139,142,-1,205,142,203,-1,203,142,144,-1,203,144,201,-1,201,144,146,-1,201,146,199,-1,199,146,148,-1,199,148,197,-1,197,148,150,-1,197,150,195,-1,195,150,152,-1,195,152,133,-1,210,211,212,-1,212,211,213,-1,213,211,214,-1,214,211,215,-1,214,215,216,-1,215,217,216,-1,216,217,218,-1,217,219,218,-1,218,219,220,-1,219,221,220,-1,220,221,222,-1,222,221,223,-1,223,221,210,-1,223,210,212,-1,219,217,221,-1,221,217,215,-1,221,215,210,-1,210,215,211,-1,
        ]
    }
}
Shape{
    appearance Appearance {
        material  Material 	{
            diffuseColor 0.20784313725490197 0.20784313725490197 0.20784313725490197
            specularColor 0.01568627450980392 0.01568627450980392 0.01568627450980392
            ambientIntensity 0.2
            transparency 0
            shininess 0.5
        }
    }
    geometry IndexedFaceSet {
        ccw TRUE
        solid FALSE
        coord DEF co Coordinate {
            point [
                -0.2871 -0.511 0.1969, -0.3529 -0.511 0.1969, -0.3165 -0.4288 0.1969, -0.3233 -0.4288 0.1969, -0.3184 -0.422 0.1969, -0.3215 -0.422 0.1969, -0.3196 -0.415 0.1969, -0.3203 -0.415 0.1969, -0.0864 -0.4126 0.1969, -0.0864 -0.5663 0.1969, -0.1155 -0.4126 0.1969, -0.1144 -0.5663 0.1969, -0.1351 -0.5643 0.1969, -0.192 -0.4875 0.1969, -0.1904 -0.4679 0.1969, -0.1858 -0.4524 0.1969, -0.1388 -0.4151 0.1969, -0.1517 -0.5592 0.1969, -0.1651 -0.5512 0.1969, -0.1762 -0.5403 0.1969, -0.1845 -0.5267 0.1969, -0.1902 -0.5082 0.1969, -0.1789 -0.4402 0.1969, -0.1694 -0.4301 0.1969, -0.155 -0.4208 0.1969, -0.155 -0.4208 0.1969
            ]
        }
        coordIndex [
            0,1,2,-1,2,1,3,-1,2,3,4,-1,4,3,5,-1,4,5,6,-1,6,5,7,-1,8,9,10,-1,10,9,11,-1,10,11,12,-1,13,14,10,-1,10,14,15,-1,10,15,16,-1,12,17,10,-1,10,17,18,-1,10,18,19,-1,19,20,10,-1,10,20,21,-1,10,21,13,-1,22,23,15,-1,15,23,24,-1,15,24,16,-1,
        ]
    }
}