#VRML V2.0 utf8
# 3D model generated by easyeda2kicad.py (https://github.com/uPesy/easyeda2kicad.py)

Shape{
    appearance Appearance {
        material  Material 	{
            diffuseColor 0.14901960784313725 0.14901960784313725 0.14901960784313725
            specularColor 0.07450980392156863 0.07450980392156863 0.07450980392156863
            ambientIntensity 0.2
            transparency 0
            shininess 0.5
        }
    }
    geometry IndexedFaceSet {
        ccw TRUE
        solid FALSE
        coord DEF co Coordinate {
            point [
                -0.8661 1.2756 0.4685, -0.6475 1.2756 0.4685, -0.6475 1.2756 0.3236, -0.0073 1.2756 0.1169, -0.0079 1.2756 0.197, 0.0252 1.2756 0.2193, -0.3569 1.2756 0.1145, -0.357 1.2756 0.1147, -0.3548 1.2756 0.1147, -0.1432 1.2756 0.1155, -0.1353 1.2756 0.1147, -0.161 1.2756 0.1147, -0.0191 1.2756 0.3239, -0.0191 1.2756 0.3236, -0.0522 1.2756 0.3236, -0.0582 1.2756 0.2616, -0.057 1.2756 0.2651, -0.057 1.2756 0.2422, 0.094 1.2756 0.2624, 0.0786 1.2756 0.2493, 0.0252 1.2756 0.3236, 0.0252 1.2756 0.2422, 0.1692 1.2756 0.3342, 0.1536 1.2756 0.3236, 0.1439 1.2756 0.317, 0.1254 1.2756 0.2953, 0.1135 1.2756 0.2718, 0.1109 1.2756 0.2709, 0.1977 1.2756 0.3445, 0.0252 1.2756 0.4685, 0.8661 1.2756 0.3236, 0.2918 1.2756 0.3236, 0.8661 1.2756 0.4685, 0.2896 1.2756 0.3254, 0.2757 1.2756 0.3339, 0.2494 1.2756 0.3439, 0.2211 1.2756 0.3471, 0.8661 1.2756 0.2422, 0.4143 1.2756 0.2422, 0.4075 1.2756 0.2574, 0.3936 1.2756 0.2749, 0.3505 1.2756 0.2991, 0.3279 1.2756 0.3018, 0.3031 1.2756 0.3141, 0.3214 1.2756 0.3014, 0.3148 1.2756 0.3005, 0.3898 1.2756 0.2785, 0.3716 1.2756 0.2911, 0.3797 1.2756 0.1328, 0.3973 1.2756 0.148, 0.8661 1.2756 0.1147, 0.3593 1.2756 0.1226, 0.4101 1.2756 0.1665, 0.4182 1.2756 0.1877, 0.8661 1.2756 0.2193, 0.4208 1.2756 0.2102, 0.4206 1.2756 0.2155, 0.4199 1.2756 0.2193, 0.4167 1.2756 0.2369, 0.352 1.2756 0.1203, 0.3494 1.2756 0.1147, 0.3464 1.2756 0.1082, 0.8661 1.2756 0.1014, 0.341 1.2756 0.1014, 0.3381 1.2756 0.0977, 0.8661 1.2756 0.0426, 0.327 1.2756 0.0892, 0.255 1.2756 0.1014, 0.2605 1.2756 0.0952, 0.0252 1.2756 0.0426, 0.272 1.2756 0.0875, 0.2847 1.2756 0.0828, 0.2982 1.2756 0.0812, 0.3005 1.2756 0.0813, 0.3139 1.2756 0.0835, 0.2464 1.2756 0.1147, 0.251 1.2756 0.1058, 0.0252 1.2756 0.1014, 0.2548 1.2756 0.176, 0.1782 1.2756 0.2153, 0.2647 1.2756 0.1851, 0.2767 1.2756 0.1917, 0.1752 1.2756 0.1487, 0.1717 1.2756 0.1511, 0.1608 1.2756 0.185, 0.0577 1.2756 0.1968, 0.0604 1.2756 0.1766, 0.0252 1.2756 0.1147, 0.0946 1.2756 0.1299, 0.1121 1.2756 0.1215, 0.0934 1.2756 0.2029, 0.0964 1.2756 0.2138, 0.0995 1.2756 0.2193, 0.3839 1.2756 0.2193, 0.1677 1.2756 0.1526, 0.1633 1.2756 0.1532, 0.1628 1.2756 0.1531, 0.3805 1.2756 0.1887, 0.3733 1.2756 0.1763, 0.3446 1.2756 0.1709, 0.3631 1.2756 0.1658, 0.3511 1.2756 0.1585, 0.3234 1.2756 0.1895, 0.3351 1.2756 0.1815, 0.3849 1.2756 0.2111, 0.3844 1.2756 0.2027, 0.0677 1.2756 0.1587, 0.0791 1.2756 0.1429, 0.1611 1.2756 0.1527, 0.1599 1.2756 0.1526, 0.1343 1.2756 0.1524, 0.1811 1.2756 0.1356, 0.1809 1.2756 0.1379, 0.2408 1.2756 0.1435, 0.1798 1.2756 0.1422, 0.1775 1.2756 0.1461, 0.1049 1.2756 0.1663, 0.0987 1.2756 0.1749, 0.0946 1.2756 0.1849, 0.093 1.2756 0.1965, 0.1717 1.2756 0.1199, 0.1753 1.2756 0.1226, 0.2444 1.2756 0.1185, 0.1767 1.2756 0.1239, 0.1791 1.2756 0.1275, 0.1806 1.2756 0.1314, 0.2411 1.2756 0.1326, 0.2409 1.2756 0.1378, 0.3107 1.2756 0.1942, 0.2974 1.2756 0.1957, 0.2905 1.2756 0.1952, 0.1311 1.2756 0.1176, 0.1647 1.2756 0.1179, 0.1679 1.2756 0.1184, 0.1234 1.2756 0.1545, 0.1134 1.2756 0.1592, 0.1416 1.2756 0.2412, 0.3783 1.2756 0.2372, 0.3832 1.2756 0.2245, 0.1371 1.2756 0.2412, 0.1019 1.2756 0.2234, 0.1072 1.2756 0.2294, 0.1159 1.2756 0.2357, 0.1258 1.2756 0.2397, 0.1539 1.2756 0.2759, 0.1667 1.2756 0.2913, 0.2975 1.2756 0.2589, 0.1677 1.2756 0.2922, 0.1836 1.2756 0.3034, 0.2886 1.2756 0.2769, 0.3748 1.2756 0.2422, 0.3019 1.2756 0.2613, 0.1418 1.2756 0.2422, 0.1451 1.2756 0.2575, 0.3147 1.2756 0.266, 0.3276 1.2756 0.2676, 0.3328 1.2756 0.2674, 0.2757 1.2756 0.292, 0.2014 1.2756 0.3104, 0.2605 1.2756 0.303, 0.2208 1.2756 0.313, 0.2419 1.2756 0.3104, 0.3469 1.2756 0.2644, 0.3597 1.2756 0.2579, 0.3704 1.2756 0.2486, 0.0736 1.2756 0.2422, 0.0671 1.2756 0.233, 0.0617 1.2756 0.2193, 0.0602 1.2756 0.2156, -0.2797 1.2756 0.3236, -0.2886 1.2756 0.322, -0.2996 1.2756 0.322, -0.2554 1.2756 0.2422, -0.2575 1.2756 0.2422, -0.2797 1.2756 0.2993, -0.2575 1.2756 0.2422, -0.2554 1.2756 0.2193, -0.2689 1.2756 0.2421, -0.2797 1.2756 0.2193, -0.269 1.2756 0.2422, -0.2797 1.2756 0.2422, -0.2797 1.2756 0.2639, -0.2768 1.2756 0.2639, -0.3101 1.2756 0.2637, -0.318 1.2756 0.2422, -0.3181 1.2756 0.2418, -0.3296 1.2756 0.2417, -0.3548 1.2756 0.2193, -0.3293 1.2756 0.2422, -0.3548 1.2756 0.2422, -0.3548 1.2756 0.3236, -0.1689 1.2756 0.2789, -0.1804 1.2756 0.2422, -0.169 1.2756 0.288, -0.1804 1.2756 0.3236, -0.161 1.2756 0.2881, -0.1714 1.2756 0.3137, -0.1715 1.2756 0.3229, -0.161 1.2756 0.3236, -0.161 1.2756 0.3229, -0.1403 1.2756 0.2791, -0.1401 1.2756 0.2521, -0.161 1.2756 0.2789, -0.161 1.2756 0.252, -0.1728 1.2756 0.2519, -0.1728 1.2756 0.2428, -0.161 1.2756 0.2422, -0.161 1.2756 0.3137, -0.1405 1.2756 0.3139, -0.1404 1.2756 0.2882, -0.1303 1.2756 0.3232, -0.1246 1.2756 0.3236, -0.1297 1.2756 0.2431, -0.1142 1.2756 0.3213, -0.1102 1.2756 0.3226, -0.1102 1.2756 0.3236, -0.1069 1.2756 0.3236, -0.161 1.2756 0.2429, -0.1246 1.2756 0.2422, -0.1141 1.2756 0.3105, -0.1138 1.2756 0.2564, -0.1129 1.2756 0.3112, -0.066 1.2756 0.2927, -0.1102 1.2756 0.2549, -0.0686 1.2756 0.2998, -0.0724 1.2756 0.3055, -0.0648 1.2756 0.2827, -0.0648 1.2756 0.2819, -0.1055 1.2756 0.2528, -0.0964 1.2756 0.2513, -0.1047 1.2756 0.3143, -0.0953 1.2756 0.3154, -0.0918 1.2756 0.3153, -0.0848 1.2756 0.3139, -0.1102 1.2756 0.3122, -0.0786 1.2756 0.3109, -0.0734 1.2756 0.3067, -0.066 1.2756 0.2721, -0.0685 1.2756 0.2656, -0.0725 1.2756 0.2598, -0.0798 1.2756 0.2542, -0.0856 1.2756 0.2521, -0.0931 1.2756 0.2512, -0.0745 1.2756 0.2579, -0.0844 1.2756 0.3236, -0.0846 1.2756 0.3236, -0.057 1.2756 0.4685, -0.096 1.2756 0.3247, -0.1064 1.2756 0.3237, -0.1102 1.2756 0.4685, -0.0953 1.2756 0.3248, -0.0602 1.2756 0.306, -0.0658 1.2756 0.3132, -0.057 1.2756 0.3236, -0.0681 1.2756 0.3153, -0.076 1.2756 0.3206, -0.0562 1.2756 0.2973, -0.057 1.2756 0.2991, -0.0552 1.2756 0.2702, -0.0522 1.2756 0.2422, -0.054 1.2756 0.2821, -0.0542 1.2756 0.2869, -0.0776 1.2756 0.2443, -0.0701 1.2756 0.248, -0.0861 1.2756 0.2423, -0.0641 1.2756 0.2531, -0.0628 1.2756 0.2546, -0.0935 1.2756 0.2422, -0.0915 1.2756 0.242, -0.1102 1.2756 0.2193, -0.0878 1.2756 0.2422, -0.1137 1.2756 0.2465, -0.1102 1.2756 0.2422, -0.1102 1.2756 0.2452, -0.106 1.2756 0.2436, -0.0186 1.2756 0.253, -0.0505 1.2756 0.2528, -0.0504 1.2756 0.2437, -0.0082 1.2756 0.244, -0.0088 1.2756 0.324, -0.0522 1.2756 0.4685, -0.1199 1.2756 0.1579, -0.1203 1.2756 0.1615, -0.1214 1.2756 0.1509, -0.1203 1.2756 0.154, -0.1196 1.2756 0.1285, -0.1235 1.2756 0.126, -0.1246 1.2756 0.1256, -0.1246 1.2756 0.1469, -0.1227 1.2756 0.1488, -0.1243 1.2756 0.1471, -0.1348 1.2756 0.1147, -0.1267 1.2756 0.1156, -0.1246 1.2756 0.1147, -0.1246 1.2756 0.1163, -0.1102 1.2756 0.1147, -0.1195 1.2756 0.1181, -0.161 1.2756 0.1014, -0.1246 1.2756 0.1014, -0.135 1.2756 0.1147, -0.1558 1.2756 0.1718, -0.1557 1.2756 0.1621, -0.1264 1.2756 0.17, -0.1294 1.2756 0.1718, -0.1246 1.2756 0.2193, -0.1577 1.2756 0.1274, -0.1565 1.2756 0.1242, -0.1546 1.2756 0.1216, -0.1215 1.2756 0.1647, -0.1234 1.2756 0.1674, -0.1246 1.2756 0.1685, -0.1349 1.2756 0.1737, -0.1423 1.2756 0.1745, -0.161 1.2756 0.2193, -0.1478 1.2756 0.1741, -0.155 1.2756 0.1409, -0.1568 1.2756 0.1381, -0.1579 1.2756 0.1352, -0.1583 1.2756 0.1314, -0.1517 1.2756 0.1191, -0.1487 1.2756 0.1173, -0.1412 1.2756 0.1663, -0.1383 1.2756 0.1661, -0.1302 1.2756 0.1587, -0.1356 1.2756 0.1654, -0.1333 1.2756 0.1643, -0.1303 1.2756 0.1574, -0.1307 1.2756 0.1558, -0.1314 1.2756 0.1545, -0.1324 1.2756 0.1534, -0.1359 1.2756 0.1511, -0.1478 1.2756 0.1655, -0.1421 1.2756 0.1484, -0.1535 1.2756 0.1634, -0.146 1.2756 0.1468, -0.1526 1.2756 0.143, -0.1318 1.2756 0.1629, -0.1309 1.2756 0.1617, -0.1304 1.2756 0.1603, -0.1298 1.2756 0.1236, -0.1349 1.2756 0.1412, -0.129 1.2756 0.1439, -0.1361 1.2756 0.1229, -0.1365 1.2756 0.1229, -0.1415 1.2756 0.1384, -0.1417 1.2756 0.1234, -0.148 1.2756 0.1305, -0.1479 1.2756 0.1318, -0.1443 1.2756 0.1243, -0.1452 1.2756 0.1249, -0.1463 1.2756 0.1259, -0.1472 1.2756 0.1272, -0.1477 1.2756 0.1286, -0.1474 1.2756 0.1333, -0.1467 1.2756 0.1347, -0.1454 1.2756 0.136, -0.2296 1.2756 0.1954, -0.2554 1.2756 0.1952, -0.2554 1.2756 0.1147, -0.2554 1.2756 0.1152, -0.2291 1.2756 0.1154, -0.1896 1.2756 0.1298, -0.1908 1.2756 0.1251, -0.1911 1.2756 0.1251, -0.2187 1.2756 0.1726, -0.1804 1.2756 0.2193, -0.2083 1.2756 0.1727, -0.1804 1.2756 0.1571, -0.1923 1.2756 0.1297, -0.1916 1.2756 0.1271, -0.1804 1.2756 0.1147, -0.1804 1.2756 0.1299, -0.1638 1.2756 0.173, -0.175 1.2756 0.1729, -0.1858 1.2756 0.1158, -0.1853 1.2756 0.1147, -0.1813 1.2756 0.1054, -0.1789 1.2756 0.1014, -0.1793 1.2756 0.1018, -0.1804 1.2756 0.1037, -0.1652 1.2756 0.0897, -0.1653 1.2756 0.0986, -0.1734 1.2756 0.0977, -0.1756 1.2756 0.0985, -0.1775 1.2756 0.0998, -0.1674 1.2756 0.0979, -0.171 1.2756 0.0974, -0.1797 1.2756 0.0907, -0.1758 1.2756 0.0893, -0.1804 1.2756 0.0426, -0.1717 1.2756 0.0888, -0.161 1.2756 0.0426, -0.1695 1.2756 0.0889, -0.1893 1.2756 0.1014, -0.1876 1.2756 0.0982, -0.2554 1.2756 0.0426, -0.1839 1.2756 0.0938, -0.1833 1.2756 0.0932, -0.1804 1.2756 0.0912, -0.1953 1.2756 0.1147, -0.1922 1.2756 0.107, -0.2554 1.2756 0.1014, -0.2721 1.2756 0.1151, -0.2797 1.2756 0.1147, -0.2722 1.2756 0.1242, -0.2397 1.2756 0.1513, -0.2395 1.2756 0.1244, -0.2554 1.2756 0.1512, -0.2554 1.2756 0.1243, -0.2683 1.2756 0.1511, -0.2684 1.2756 0.1603, -0.2709 1.2756 0.1951, -0.2708 1.2756 0.1859, -0.2554 1.2756 0.186, -0.2554 1.2756 0.1604, -0.2399 1.2756 0.1861, -0.2397 1.2756 0.1605, -0.3879 1.2756 0.1943, -0.399 1.2756 0.1942, -0.3684 1.2756 0.1147, -0.3683 1.2756 0.1144, -0.4175 1.2756 0.114, -0.4289 1.2756 0.1139, -0.6475 1.2756 0.1014, -0.3548 1.2756 0.1014, -0.4173 1.2756 0.1147, -0.4095 1.2756 0.136, -0.3762 1.2756 0.1362, -0.0522 1.2756 0.2193, -0.0088 1.2756 0.3236, -0.0179 1.2756 0.1529, -0.0177 1.2756 0.126, -0.0465 1.2756 0.1527, -0.0505 1.2756 0.1258, -0.0466 1.2756 0.1619, -0.0491 1.2756 0.1875, -0.018 1.2756 0.1621, -0.0182 1.2756 0.1877, -0.0491 1.2756 0.1967, -0.0522 1.2756 0.1147, -0.0504 1.2756 0.1166, -0.057 1.2756 0.2193, -0.057 1.2756 0.1147, -0.0643 1.2756 0.1439, -0.0659 1.2756 0.16, -0.0623 1.2756 0.1411, -0.0608 1.2756 0.1376, -0.0993 1.2756 0.171, -0.102 1.2756 0.1684, -0.0857 1.2756 0.1749, -0.0918 1.2756 0.1743, -0.096 1.2756 0.1729, -0.0909 1.2756 0.1194, -0.0874 1.2756 0.1171, -0.0959 1.2756 0.1163, -0.0833 1.2756 0.1156, -0.0781 1.2756 0.1151, -0.0617 1.2756 0.1239, -0.0606 1.2756 0.1273, -0.0763 1.2756 0.1739, -0.0687 1.2756 0.1712, -0.0659 1.2756 0.1697, -0.0675 1.2756 0.1465, -0.0719 1.2756 0.1487, -0.0723 1.2756 0.164, -0.0792 1.2756 0.1504, -0.0881 1.2756 0.1664, -0.0847 1.2756 0.1667, -0.0786 1.2756 0.1661, -0.104 1.2756 0.1651, -0.1055 1.2756 0.1605, -0.1062 1.2756 0.153, -0.096 1.2756 0.1251, -0.0957 1.2756 0.1251, -0.0941 1.2756 0.1228, -0.1059 1.2756 0.1162, -0.0683 1.2756 0.1173, -0.0649 1.2756 0.1197, -0.0638 1.2756 0.1208, -0.0962 1.2756 0.1527, -0.0958 1.2756 0.1571, -0.0948 1.2756 0.1607, -0.0937 1.2756 0.1627, -0.0721 1.2756 0.1158, -0.0601 1.2756 0.1319, -0.0601 1.2756 0.1333, -0.0922 1.2756 0.1644, -0.0904 1.2756 0.1655, -0.0522 1.2756 0.1014, -0.057 1.2756 0.1014, -0.1102 1.2756 0.1014, -0.0522 1.2756 0.0426, -0.057 1.2756 0.0426, -0.1102 1.2756 0.0426, -0.1246 1.2756 0.0426, -0.2237 1.2756 0.2441, -0.2099 1.2756 0.2425, -0.224 1.2756 0.321, -0.2554 1.2756 0.3236, -0.2113 1.2756 0.3226, -0.2509 1.2756 0.2683, -0.2468 1.2756 0.2601, -0.1879 1.2756 0.2427, -0.1885 1.2756 0.3227, -0.253 1.2756 0.2776, -0.2411 1.2756 0.2535, -0.2328 1.2756 0.2476, -0.2336 1.2756 0.3173, -0.2415 1.2756 0.3118, -0.2448 1.2756 0.3084, -0.2496 1.2756 0.3013, -0.2523 1.2756 0.2934, -0.2534 1.2756 0.2833, -0.1246 1.2756 0.4685, -0.161 1.2756 0.4685, -0.1804 1.2756 0.4685, -0.2554 1.2756 0.4685, -0.2797 1.2756 0.4685, -0.3548 1.2756 0.4685, -0.2873 1.2756 0.1149, -0.3093 1.2756 0.1148, -0.323 1.2756 0.1164, -0.3503 1.2756 0.1406, -0.3462 1.2756 0.1324, -0.2878 1.2756 0.195, -0.3107 1.2756 0.1949, -0.3234 1.2756 0.1933, -0.333 1.2756 0.1896, -0.3404 1.2756 0.1258, -0.3322 1.2756 0.1199, -0.3409 1.2756 0.184, -0.3442 1.2756 0.1807, -0.3489 1.2756 0.1735, -0.3517 1.2756 0.1657, -0.3527 1.2756 0.1555, -0.3524 1.2756 0.1499, -0.2797 1.2756 0.1014, -0.4286 1.2756 0.1147, -0.6475 1.2756 0.1147, -0.6475 1.2756 0.2193, -0.6475 1.2756 0.2422, -0.2797 1.2756 0.0426, -0.3548 1.2756 0.0426, -0.6475 1.2756 0.0426, -0.8661 1.2756 0.3236, -0.8661 1.2756 0.2422, -0.8661 1.2756 0.2193, -0.8661 1.2756 0.1147, -0.8661 1.2756 0.1014, -0.8661 1.2756 0.0426, 0.8661 1.2756 0.0039, 0.0252 1.2756 0.0039, -0.0522 1.2756 0.0039, -0.057 1.2756 0.0039, -0.1102 1.2756 0.0039, -0.1246 1.2756 0.0039, -0.161 1.2756 0.0039, -0.1804 1.2756 0.0039, -0.2554 1.2756 0.0039, -0.2797 1.2756 0.0039, -0.3548 1.2756 0.0039, -0.6475 1.2756 0.0039, -0.8661 1.2756 0.0039, 0.8661 -1.2756 0.4685, -0.8661 -1.2756 0.4685, -0.8661 -1.2756 0.0039, 0.8661 -1.2756 0.0039, 0.8661 -1.2756 0.0039
            ]
        }
        coordIndex [
            0,1,2,-1,3,4,5,-1,6,7,8,-1,9,10,11,-1,12,13,14,-1,15,16,17,-1,18,19,20,-1,20,19,21,-1,22,23,20,-1,20,23,24,-1,20,24,25,-1,25,26,20,-1,20,26,27,-1,20,27,18,-1,28,22,29,-1,30,31,32,-1,32,31,33,-1,33,34,32,-1,32,34,35,-1,32,35,29,-1,29,35,36,-1,29,36,28,-1,37,38,30,-1,30,38,39,-1,30,39,40,-1,30,41,31,-1,31,41,42,-1,31,42,43,-1,43,42,44,-1,43,44,45,-1,40,46,30,-1,30,46,47,-1,30,47,41,-1,48,49,50,-1,48,50,51,-1,49,52,50,-1,50,52,53,-1,50,53,54,-1,54,53,55,-1,55,56,54,-1,54,56,57,-1,54,57,37,-1,37,57,58,-1,37,58,38,-1,59,51,60,-1,60,51,50,-1,60,50,61,-1,61,50,62,-1,61,62,63,-1,63,62,64,-1,64,62,65,-1,64,65,66,-1,67,68,69,-1,69,68,70,-1,69,70,71,-1,71,72,69,-1,69,72,73,-1,69,73,65,-1,65,73,74,-1,65,74,66,-1,75,76,77,-1,78,79,80,-1,80,79,81,-1,82,83,84,-1,85,86,87,-1,88,89,87,-1,90,91,79,-1,79,91,92,-1,79,92,93,-1,83,94,84,-1,84,94,95,-1,84,95,96,-1,97,98,99,-1,99,98,100,-1,99,100,101,-1,102,93,103,-1,103,93,104,-1,103,104,99,-1,99,104,105,-1,99,105,97,-1,86,106,87,-1,87,106,107,-1,87,107,88,-1,96,108,84,-1,84,108,109,-1,84,109,110,-1,111,112,113,-1,113,112,114,-1,113,114,84,-1,84,114,115,-1,84,115,82,-1,116,117,84,-1,84,117,118,-1,84,118,79,-1,79,118,119,-1,79,119,90,-1,120,121,122,-1,122,121,123,-1,123,124,122,-1,122,124,125,-1,122,125,126,-1,126,125,111,-1,126,111,127,-1,127,111,113,-1,102,128,93,-1,93,128,129,-1,93,129,79,-1,79,129,130,-1,79,130,81,-1,89,131,87,-1,87,131,132,-1,87,132,122,-1,122,132,133,-1,122,133,120,-1,110,134,84,-1,84,134,135,-1,84,135,116,-1,136,137,138,-1,138,93,136,-1,136,93,92,-1,136,92,139,-1,139,92,140,-1,140,141,139,-1,139,141,142,-1,139,142,143,-1,144,145,146,-1,145,147,146,-1,146,147,148,-1,146,148,149,-1,150,146,151,-1,137,136,150,-1,150,136,152,-1,150,152,146,-1,146,152,153,-1,146,153,144,-1,151,154,150,-1,150,154,155,-1,150,155,156,-1,149,148,157,-1,157,148,158,-1,157,158,159,-1,159,158,160,-1,159,160,161,-1,162,163,156,-1,156,163,164,-1,156,164,150,-1,19,165,21,-1,21,165,166,-1,21,166,5,-1,5,166,167,-1,5,167,168,-1,169,170,171,-1,172,173,174,-1,175,176,177,-1,177,176,178,-1,177,178,179,-1,178,180,179,-1,179,180,181,-1,179,181,182,-1,183,181,184,-1,184,181,180,-1,184,180,185,-1,185,180,178,-1,185,178,186,-1,186,178,187,-1,186,187,188,-1,188,187,189,-1,188,189,171,-1,171,189,190,-1,171,190,169,-1,191,192,193,-1,193,192,194,-1,195,193,196,-1,196,193,194,-1,196,194,197,-1,197,194,198,-1,197,198,199,-1,200,201,202,-1,202,201,203,-1,202,203,191,-1,191,203,204,-1,191,204,192,-1,192,204,205,-1,192,205,206,-1,196,207,195,-1,195,207,208,-1,195,208,209,-1,199,198,210,-1,210,198,211,-1,210,211,212,-1,213,211,214,-1,214,211,215,-1,214,215,216,-1,205,217,206,-1,206,217,212,-1,206,212,218,-1,218,212,211,-1,218,211,219,-1,219,211,213,-1,220,219,221,-1,222,223,224,-1,224,223,225,-1,222,226,223,-1,223,226,227,-1,223,227,228,-1,228,227,229,-1,230,231,223,-1,223,231,232,-1,223,232,233,-1,220,221,223,-1,223,221,234,-1,223,234,230,-1,233,235,223,-1,223,235,236,-1,223,236,225,-1,237,238,239,-1,240,241,227,-1,227,241,242,-1,227,242,229,-1,237,239,227,-1,227,239,243,-1,227,243,240,-1,244,245,246,-1,247,248,249,-1,246,245,249,-1,249,245,250,-1,249,250,247,-1,251,252,253,-1,253,252,254,-1,253,254,255,-1,14,256,253,-1,253,256,257,-1,253,257,251,-1,16,258,259,-1,259,258,260,-1,259,260,14,-1,14,260,261,-1,14,261,256,-1,262,263,17,-1,262,17,264,-1,263,265,17,-1,17,265,266,-1,17,266,15,-1,267,268,269,-1,269,268,270,-1,219,220,218,-1,218,220,271,-1,218,271,272,-1,272,271,273,-1,272,273,274,-1,13,275,14,-1,14,275,276,-1,14,276,259,-1,259,276,277,-1,259,277,278,-1,22,20,29,-1,29,20,279,-1,29,279,280,-1,281,282,269,-1,283,284,285,-1,286,287,288,-1,283,285,289,-1,286,288,285,-1,285,288,290,-1,285,290,289,-1,291,292,293,-1,293,292,294,-1,293,294,295,-1,295,294,296,-1,295,296,285,-1,297,11,298,-1,298,11,10,-1,298,10,299,-1,300,301,11,-1,302,303,304,-1,305,306,11,-1,11,306,307,-1,282,308,269,-1,269,308,309,-1,269,309,304,-1,304,309,310,-1,304,310,302,-1,303,311,304,-1,304,311,312,-1,304,312,313,-1,313,312,314,-1,313,314,300,-1,315,316,301,-1,301,316,317,-1,301,317,11,-1,11,317,318,-1,11,318,305,-1,307,319,11,-1,11,319,320,-1,11,320,9,-1,321,322,323,-1,323,322,324,-1,323,324,325,-1,323,326,321,-1,321,326,327,-1,321,327,328,-1,328,329,321,-1,321,329,330,-1,321,330,331,-1,331,330,332,-1,331,332,333,-1,333,332,334,-1,333,334,301,-1,301,334,335,-1,301,335,315,-1,336,337,325,-1,325,337,338,-1,325,338,323,-1,339,340,287,-1,287,340,341,-1,287,341,288,-1,339,342,340,-1,340,342,343,-1,340,343,344,-1,344,343,345,-1,344,346,347,-1,345,348,344,-1,344,348,349,-1,344,349,350,-1,350,351,344,-1,344,351,352,-1,344,352,346,-1,347,353,344,-1,344,353,354,-1,344,354,355,-1,356,357,176,-1,358,359,360,-1,361,362,363,-1,364,365,366,-1,366,365,367,-1,366,367,368,-1,368,367,361,-1,368,361,369,-1,369,361,363,-1,370,371,11,-1,11,371,372,-1,300,11,313,-1,313,11,372,-1,313,372,365,-1,365,372,373,-1,365,373,367,-1,374,371,375,-1,375,371,370,-1,375,370,376,-1,297,377,11,-1,11,377,378,-1,11,378,370,-1,370,378,379,-1,370,379,376,-1,380,381,297,-1,382,383,384,-1,297,381,377,-1,377,381,385,-1,377,385,384,-1,384,385,386,-1,384,386,382,-1,387,388,389,-1,389,388,390,-1,389,390,391,-1,391,390,392,-1,393,394,395,-1,394,396,395,-1,395,396,397,-1,395,397,389,-1,389,397,398,-1,389,398,387,-1,399,400,401,-1,359,358,402,-1,402,358,403,-1,402,403,404,-1,405,406,407,-1,407,406,408,-1,407,408,409,-1,409,408,404,-1,409,404,410,-1,176,357,178,-1,178,357,411,-1,178,411,412,-1,412,413,414,-1,414,413,415,-1,414,415,416,-1,8,7,187,-1,187,7,417,-1,187,417,418,-1,419,420,421,-1,422,421,423,-1,423,421,420,-1,423,420,424,-1,421,425,419,-1,419,425,426,-1,419,426,427,-1,4,428,5,-1,5,428,259,-1,5,259,21,-1,21,259,278,-1,21,278,20,-1,20,278,429,-1,20,429,279,-1,430,431,432,-1,432,431,433,-1,432,433,434,-1,434,433,435,-1,434,435,436,-1,436,435,437,-1,4,438,428,-1,428,438,435,-1,428,435,439,-1,439,435,433,-1,433,440,439,-1,439,440,3,-1,439,3,87,-1,87,3,5,-1,87,5,85,-1,85,5,168,-1,279,12,280,-1,280,12,14,-1,280,14,246,-1,246,14,253,-1,246,253,244,-1,244,253,255,-1,16,259,17,-1,17,259,428,-1,17,428,441,-1,441,428,439,-1,441,439,442,-1,443,444,445,-1,445,444,446,-1,269,447,448,-1,449,450,269,-1,269,450,451,-1,269,451,447,-1,452,453,454,-1,454,453,455,-1,454,455,456,-1,442,457,458,-1,459,441,460,-1,460,441,461,-1,264,17,270,-1,270,17,441,-1,270,441,269,-1,269,441,459,-1,269,459,449,-1,443,462,444,-1,444,462,463,-1,444,463,464,-1,464,463,465,-1,466,467,465,-1,465,467,468,-1,465,468,464,-1,448,469,269,-1,269,469,470,-1,269,470,471,-1,472,473,454,-1,454,473,474,-1,454,474,452,-1,284,281,285,-1,285,281,269,-1,285,269,295,-1,295,269,471,-1,295,471,475,-1,476,477,442,-1,442,477,478,-1,442,478,457,-1,479,480,465,-1,465,480,481,-1,465,481,482,-1,475,454,295,-1,295,454,456,-1,295,456,442,-1,442,456,483,-1,442,483,476,-1,458,484,442,-1,442,484,485,-1,442,485,441,-1,441,485,446,-1,441,446,461,-1,461,446,444,-1,482,486,465,-1,465,486,487,-1,465,487,466,-1,122,75,87,-1,87,75,77,-1,87,77,439,-1,439,77,488,-1,439,488,442,-1,442,488,489,-1,442,489,295,-1,295,489,490,-1,295,490,293,-1,293,490,298,-1,293,298,291,-1,291,298,299,-1,76,67,77,-1,77,67,69,-1,77,69,488,-1,488,69,491,-1,488,491,489,-1,489,491,492,-1,489,492,490,-1,490,492,493,-1,490,493,298,-1,298,493,494,-1,298,494,297,-1,297,494,391,-1,297,391,380,-1,380,391,392,-1,274,267,272,-1,272,267,269,-1,272,269,218,-1,218,269,304,-1,218,304,206,-1,206,304,313,-1,206,313,192,-1,192,313,365,-1,192,365,172,-1,172,495,496,-1,497,498,499,-1,499,498,194,-1,500,501,172,-1,172,496,192,-1,192,496,502,-1,192,502,194,-1,194,502,503,-1,194,503,499,-1,500,172,504,-1,501,505,172,-1,172,505,506,-1,172,506,495,-1,497,507,498,-1,498,507,508,-1,498,508,509,-1,509,510,498,-1,498,510,511,-1,498,511,512,-1,170,169,174,-1,174,169,498,-1,174,498,172,-1,172,498,512,-1,172,512,504,-1,248,216,249,-1,249,216,215,-1,249,215,513,-1,513,215,211,-1,513,211,514,-1,514,211,198,-1,514,198,515,-1,515,198,194,-1,515,194,516,-1,516,194,498,-1,516,498,517,-1,517,498,169,-1,517,169,518,-1,518,169,190,-1,414,410,412,-1,412,410,404,-1,412,404,178,-1,178,404,403,-1,178,403,519,-1,519,403,520,-1,520,403,8,-1,520,8,521,-1,522,523,8,-1,519,524,178,-1,178,524,525,-1,178,525,187,-1,187,525,526,-1,187,526,527,-1,523,528,8,-1,8,528,529,-1,8,529,521,-1,527,530,187,-1,187,530,531,-1,187,531,532,-1,532,533,187,-1,187,533,534,-1,187,534,8,-1,8,534,535,-1,8,535,522,-1,420,6,424,-1,424,6,8,-1,424,8,536,-1,536,8,403,-1,536,403,401,-1,401,403,358,-1,401,358,399,-1,399,358,360,-1,399,360,364,-1,364,360,356,-1,364,356,365,-1,365,356,176,-1,365,176,172,-1,172,176,175,-1,172,175,173,-1,422,423,537,-1,537,423,538,-1,537,538,418,-1,418,538,539,-1,418,539,187,-1,187,539,540,-1,187,540,189,-1,189,540,2,-1,189,2,190,-1,190,2,1,-1,190,1,518,-1,400,393,401,-1,401,393,395,-1,401,395,536,-1,536,395,541,-1,536,541,424,-1,424,541,542,-1,424,542,423,-1,423,542,543,-1,0,2,544,-1,544,2,540,-1,544,540,545,-1,545,540,539,-1,545,539,546,-1,546,539,538,-1,546,538,547,-1,547,538,423,-1,547,423,548,-1,548,423,543,-1,548,543,549,-1,65,550,69,-1,69,550,551,-1,69,551,491,-1,491,551,552,-1,491,552,492,-1,492,552,553,-1,492,553,493,-1,493,553,554,-1,493,554,494,-1,494,554,555,-1,494,555,391,-1,391,555,556,-1,391,556,389,-1,389,556,557,-1,389,557,395,-1,395,557,558,-1,395,558,541,-1,541,558,559,-1,541,559,542,-1,542,559,560,-1,542,560,543,-1,543,560,561,-1,543,561,549,-1,549,561,562,-1,563,32,29,-1,563,29,564,-1,564,29,280,-1,564,280,246,-1,246,249,564,-1,564,249,513,-1,564,513,514,-1,514,515,564,-1,564,515,516,-1,564,516,517,-1,517,518,564,-1,564,518,1,-1,564,1,0,-1,565,562,566,-1,566,562,550,-1,
        ]
    }
}
Shape{
    appearance Appearance {
        material  Material 	{
            diffuseColor 0.7529411764705882 0.7529411764705882 0.7529411764705882
            specularColor 0.3764705882352941 0.3764705882352941 0.3764705882352941
            ambientIntensity 0.2
            transparency 0
            shininess 0.5
        }
    }
    geometry IndexedFaceSet {
        ccw TRUE
        solid FALSE
        coord DEF co Coordinate {
            point [
                -1.2992 -1.2795 0.0, -0.8661 -1.2795 0.0, -1.2992 -1.2795 0.4724, -0.8661 -1.2795 0.4724, -1.2992 1.2795 0.4724, -0.8661 1.2795 0.4724, -1.2992 1.2795 0.0, -0.8661 1.2795 0.0, 1.3386 -1.2402 0.0394, 1.3386 1.2402 0.0394, 1.3386 -1.2402 0.4331, 1.3386 1.2402 0.4331, 1.2992 1.2795 0.0, 0.8661 1.2795 0.0, 1.2992 1.2795 0.4724, 0.8661 1.2795 0.4724, -1.3386 1.2402 0.0394, -1.3386 -1.2402 0.0394, -1.3386 1.2402 0.4331, -1.3386 -1.2402 0.4331, 1.2992 -1.2795 0.4724, 0.8661 -1.2795 0.4724, 1.2992 -1.2795 0.0, 0.8661 -1.2795 0.0, 0.8661 -1.2795 0.0
            ]
        }
        coordIndex [
            0,1,2,-1,2,1,3,-1,4,5,6,-1,6,5,7,-1,6,7,0,-1,0,7,1,-1,2,3,4,-1,4,3,5,-1,8,9,10,-1,10,9,11,-1,12,13,14,-1,14,13,15,-1,16,17,18,-1,18,17,19,-1,20,21,22,-1,22,21,23,-1,14,15,20,-1,20,15,21,-1,22,23,12,-1,12,23,13,-1,
        ]
    }
}
Shape{
    appearance Appearance {
        material  Material 	{
            diffuseColor 0.14901960784313725 0.14901960784313725 0.14901960784313725
            specularColor 0.07450980392156863 0.07450980392156863 0.07450980392156863
            ambientIntensity 0.2
            transparency 0
            shininess 0.5
        }
    }
    geometry IndexedFaceSet {
        ccw TRUE
        solid FALSE
        coord DEF co Coordinate {
            point [
                -0.8661 -1.2756 0.4685, -0.8661 -1.2795 0.4724, -0.8661 -1.2756 0.0039, -0.8661 -1.2795 0.0, -0.8661 1.2756 0.0039, -0.8661 1.2795 0.0, -0.8661 1.2756 0.4685, -0.8661 1.2795 0.4724, 0.8661 -1.2756 0.4685, 0.8661 -1.2795 0.4724, 0.8661 1.2756 0.4685, 0.8661 1.2795 0.4724, 0.8661 1.2756 0.0039, 0.8661 1.2795 0.0, 0.8661 -1.2756 0.0039, 0.8661 -1.2795 0.0, 0.8661 -1.2795 0.0
            ]
        }
        coordIndex [
            0,1,2,-1,2,1,3,-1,2,3,4,-1,4,3,5,-1,4,5,6,-1,6,5,7,-1,6,7,0,-1,0,7,1,-1,8,9,10,-1,10,9,11,-1,10,11,12,-1,12,11,13,-1,12,13,14,-1,14,13,15,-1,14,15,8,-1,8,15,9,-1,8,0,14,-1,14,0,2,-1,
        ]
    }
}
Shape{
    appearance Appearance {
        material  Material 	{
            diffuseColor 0.7529411764705882 0.7529411764705882 0.7529411764705882
            specularColor 0.3764705882352941 0.3764705882352941 0.3764705882352941
            ambientIntensity 0.2
            transparency 0
            shininess 0.5
        }
    }
    geometry IndexedFaceSet {
        ccw TRUE
        solid FALSE
        coord DEF co Coordinate {
            point [
                1.3374 1.2489 0.4418, 1.3386 1.2402 0.4331, 1.3386 1.2402 0.0394, 1.3372 1.2503 0.4433, 1.3331 1.2597 0.0198, 1.3333 1.2598 0.4528, 1.3344 1.2571 0.45, 1.3376 1.2489 0.0306, 1.3371 1.2503 0.0292, 1.3347 1.2572 0.0223, 1.3269 1.2678 0.0117, 1.3271 1.268 0.4609, 1.3297 1.2645 0.4574, 1.33 1.2647 0.0148, 1.3188 1.2741 0.0055, 1.3188 1.2741 0.467, 1.3238 1.2709 0.4639, 1.3238 1.2709 0.0086, 1.3163 1.2756 0.4685, 1.3163 1.2756 0.0039, 1.3094 1.2782 0.4711, 1.3094 1.2782 0.0013, 1.308 1.2785 0.4715, 1.308 1.2785 0.0011, 1.3036 1.2793 0.4722, 1.2992 1.2795 0.4724, 1.3036 1.2793 0.0002, 1.2992 1.2795 0.0, 1.3347 -1.2572 0.4502, 1.3376 -1.2489 0.4418, 1.3386 -1.2402 0.4331, 1.33 -1.2647 0.4576, 1.3238 -1.2709 0.4639, 1.3163 -1.2756 0.4685, 1.3122 -1.2773 0.4702, 1.308 -1.2785 0.4715, 1.3036 -1.2793 0.4722, 1.2992 -1.2795 0.4724, 1.2992 -1.2795 0.0, 1.3036 -1.2793 0.0002, 1.308 -1.2785 0.001, 1.3122 -1.2773 0.0022, 1.3163 -1.2756 0.0039, 1.3238 -1.2709 0.0086, 1.33 -1.2647 0.0148, 1.3347 -1.2572 0.0223, 1.3376 -1.2489 0.0306, 1.3386 -1.2402 0.0394, -1.3386 -1.2402 0.0394, -1.3376 -1.2489 0.0306, -1.3386 -1.2402 0.4331, -1.3374 -1.2489 0.4418, -1.3372 -1.2503 0.4433, -1.3371 -1.2503 0.0292, -1.3344 -1.2571 0.45, -1.3347 -1.2572 0.0223, -1.3333 -1.2598 0.4528, -1.3331 -1.2597 0.0198, -1.3297 -1.2645 0.4574, -1.33 -1.2647 0.0148, -1.3271 -1.268 0.4609, -1.3269 -1.2678 0.0117, -1.3238 -1.2709 0.4639, -1.3238 -1.2709 0.0086, -1.3188 -1.2741 0.0055, -1.3188 -1.2741 0.467, -1.3163 -1.2756 0.0039, -1.3163 -1.2756 0.4685, -1.3094 -1.2782 0.0013, -1.3094 -1.2782 0.4711, -1.308 -1.2785 0.0011, -1.308 -1.2785 0.4715, -1.3036 -1.2793 0.0002, -1.3036 -1.2793 0.4722, -1.2992 -1.2795 0.0, -1.2992 -1.2795 0.4724, -1.3372 1.2503 0.4433, -1.3386 1.2402 0.4331, -1.3333 1.2598 0.4528, -1.3271 1.268 0.4609, -1.3232 1.2714 0.4643, -1.3189 1.2743 0.4672, -1.3143 1.2765 0.4694, -1.3094 1.2782 0.4711, -1.3044 1.2792 0.4721, -1.2992 1.2795 0.4724, -1.2992 1.2795 0.0, -1.3044 1.2792 0.0003, -1.3094 1.2782 0.0013, -1.3143 1.2765 0.003, -1.3189 1.2743 0.0053, -1.3232 1.2714 0.0081, -1.3271 1.268 0.0115, -1.3333 1.2598 0.0197, -1.3372 1.2503 0.0292, -1.3386 1.2402 0.0394, -1.3386 1.2402 0.0394
            ]
        }
        coordIndex [
            0,1,2,-1,0,2,3,-1,4,5,6,-1,2,7,3,-1,3,7,8,-1,3,8,6,-1,6,8,9,-1,6,9,4,-1,10,11,12,-1,5,4,12,-1,12,4,13,-1,12,13,10,-1,14,15,16,-1,11,10,16,-1,16,10,17,-1,16,17,14,-1,15,14,18,-1,18,14,19,-1,18,19,20,-1,20,19,21,-1,20,21,22,-1,22,21,23,-1,22,23,24,-1,24,23,25,-1,25,23,26,-1,25,26,27,-1,28,29,0,-1,0,29,30,-1,0,30,1,-1,0,3,28,-1,28,3,6,-1,28,6,31,-1,6,5,31,-1,31,5,12,-1,31,12,32,-1,32,12,11,-1,11,16,32,-1,32,16,15,-1,32,15,33,-1,15,18,33,-1,33,18,20,-1,33,20,34,-1,34,20,22,-1,34,22,35,-1,35,22,24,-1,35,24,36,-1,36,24,25,-1,36,25,37,-1,38,27,39,-1,39,27,26,-1,39,26,40,-1,40,26,23,-1,40,23,41,-1,41,23,21,-1,41,21,42,-1,42,21,19,-1,42,19,43,-1,19,14,43,-1,43,14,17,-1,43,17,44,-1,17,10,44,-1,44,10,13,-1,44,13,45,-1,13,4,45,-1,45,4,9,-1,45,9,46,-1,46,9,8,-1,8,7,46,-1,46,7,2,-1,46,2,47,-1,33,43,32,-1,32,43,44,-1,32,44,31,-1,31,44,45,-1,31,45,28,-1,28,45,46,-1,28,46,29,-1,29,46,47,-1,29,47,30,-1,37,38,36,-1,36,38,39,-1,36,39,35,-1,35,39,40,-1,35,40,34,-1,34,40,41,-1,34,41,33,-1,33,41,42,-1,33,42,43,-1,48,49,50,-1,50,49,51,-1,51,49,52,-1,52,49,53,-1,52,53,54,-1,54,53,55,-1,54,55,56,-1,56,55,57,-1,56,57,58,-1,58,57,59,-1,58,59,60,-1,60,59,61,-1,60,61,62,-1,61,63,62,-1,62,63,64,-1,62,64,65,-1,65,64,66,-1,65,66,67,-1,67,66,68,-1,67,68,69,-1,69,68,70,-1,69,70,71,-1,71,70,72,-1,71,72,73,-1,73,72,74,-1,73,74,75,-1,76,77,50,-1,50,51,76,-1,76,51,52,-1,76,52,78,-1,52,54,78,-1,78,54,56,-1,78,56,79,-1,56,58,79,-1,79,58,60,-1,79,60,80,-1,60,62,80,-1,80,62,65,-1,80,65,81,-1,81,65,67,-1,81,67,82,-1,82,67,69,-1,82,69,83,-1,83,69,84,-1,84,69,71,-1,84,71,85,-1,85,71,73,-1,85,73,75,-1,86,74,87,-1,87,74,72,-1,87,72,88,-1,72,70,88,-1,88,70,68,-1,88,68,89,-1,89,68,66,-1,89,66,90,-1,90,66,64,-1,90,64,91,-1,91,64,63,-1,91,63,92,-1,63,61,92,-1,92,61,59,-1,92,59,93,-1,59,57,93,-1,93,57,55,-1,93,55,94,-1,48,95,49,-1,49,95,94,-1,49,94,53,-1,53,94,55,-1,79,93,78,-1,78,93,94,-1,78,94,76,-1,76,94,95,-1,76,95,77,-1,85,86,84,-1,84,86,87,-1,84,87,83,-1,83,87,88,-1,83,88,82,-1,82,88,89,-1,82,89,81,-1,81,89,90,-1,81,90,80,-1,80,90,91,-1,80,91,79,-1,79,91,92,-1,79,92,93,-1,
        ]
    }
}
Shape{
    appearance Appearance {
        material  Material 	{
            diffuseColor 1.0 1.0 1.0
            specularColor 0.5019607843137255 0.5019607843137255 0.5019607843137255
            ambientIntensity 0.2
            transparency 0
            shininess 0.5
        }
    }
    geometry IndexedFaceSet {
        ccw TRUE
        solid FALSE
        coord DEF co Coordinate {
            point [
                -0.0505 1.276 0.2528, -0.0504 1.276 0.2437, -0.0505 1.2756 0.2528, -0.0504 1.2756 0.2437, -0.0186 1.276 0.253, -0.0186 1.2756 0.253, -0.0191 1.276 0.3239, -0.0191 1.2756 0.3236, -0.0191 1.2756 0.3239, -0.0088 1.276 0.324, -0.0088 1.2756 0.324, -0.0082 1.2756 0.244, -0.0082 1.276 0.244, -0.0088 1.2756 0.3236, -0.0915 1.276 0.242, -0.0915 1.2756 0.242, -0.0935 1.2756 0.2422, -0.106 1.276 0.2436, -0.106 1.2756 0.2436, -0.1102 1.2756 0.2452, -0.1137 1.276 0.2465, -0.1137 1.2756 0.2465, -0.1138 1.276 0.2564, -0.1138 1.2756 0.2564, -0.1102 1.2756 0.2549, -0.1055 1.276 0.2528, -0.1055 1.2756 0.2528, -0.0964 1.2756 0.2513, -0.0964 1.276 0.2513, -0.0931 1.2756 0.2512, -0.0931 1.276 0.2512, -0.0856 1.2756 0.2521, -0.0856 1.276 0.2521, -0.0798 1.2756 0.2542, -0.0798 1.276 0.2542, -0.0745 1.2756 0.2579, -0.0745 1.276 0.2579, -0.0725 1.2756 0.2598, -0.0725 1.276 0.2598, -0.0685 1.2756 0.2656, -0.0685 1.276 0.2656, -0.066 1.2756 0.2721, -0.066 1.276 0.2721, -0.0648 1.2756 0.2819, -0.0648 1.276 0.2819, -0.0648 1.2756 0.2827, -0.0648 1.276 0.2827, -0.066 1.2756 0.2927, -0.066 1.276 0.2927, -0.0686 1.2756 0.2998, -0.0686 1.276 0.2998, -0.0724 1.2756 0.3055, -0.0724 1.276 0.3055, -0.0734 1.2756 0.3067, -0.0734 1.276 0.3067, -0.0786 1.2756 0.3109, -0.0786 1.276 0.3109, -0.0848 1.2756 0.3139, -0.0848 1.276 0.3139, -0.0918 1.2756 0.3153, -0.0918 1.276 0.3153, -0.0953 1.2756 0.3154, -0.0953 1.276 0.3154, -0.1141 1.2756 0.3105, -0.1141 1.276 0.3105, -0.1129 1.276 0.3112, -0.1047 1.2756 0.3143, -0.1047 1.276 0.3143, -0.1102 1.2756 0.3122, -0.1129 1.2756 0.3112, -0.1142 1.276 0.3213, -0.1142 1.2756 0.3213, -0.1069 1.2756 0.3236, -0.1064 1.276 0.3237, -0.1102 1.2756 0.3226, -0.1064 1.2756 0.3237, -0.096 1.2756 0.3247, -0.096 1.276 0.3247, -0.0953 1.2756 0.3248, -0.0953 1.276 0.3248, -0.0846 1.2756 0.3236, -0.0846 1.276 0.3236, -0.0844 1.2756 0.3236, -0.076 1.276 0.3206, -0.076 1.2756 0.3206, -0.0681 1.2756 0.3153, -0.0681 1.276 0.3153, -0.0658 1.2756 0.3132, -0.0658 1.276 0.3132, -0.0602 1.2756 0.306, -0.0602 1.276 0.306, -0.057 1.2756 0.2991, -0.0562 1.276 0.2973, -0.0562 1.2756 0.2973, -0.0542 1.2756 0.2869, -0.0542 1.276 0.2869, -0.054 1.2756 0.2821, -0.054 1.276 0.2821, -0.0552 1.2756 0.2702, -0.0552 1.276 0.2702, -0.057 1.2756 0.2651, -0.0582 1.276 0.2616, -0.0582 1.2756 0.2616, -0.0628 1.2756 0.2546, -0.0628 1.276 0.2546, -0.0641 1.2756 0.2531, -0.0641 1.276 0.2531, -0.0878 1.2756 0.2422, -0.0861 1.276 0.2423, -0.0861 1.2756 0.2423, -0.0776 1.276 0.2443, -0.0776 1.2756 0.2443, -0.0701 1.276 0.248, -0.0701 1.2756 0.248, -0.1728 1.276 0.2519, -0.1728 1.276 0.2428, -0.1728 1.2756 0.2519, -0.1728 1.2756 0.2428, -0.1401 1.2756 0.2521, -0.1401 1.276 0.2521, -0.161 1.2756 0.252, -0.1403 1.276 0.2791, -0.1403 1.2756 0.2791, -0.1689 1.2756 0.2789, -0.1689 1.276 0.2789, -0.161 1.2756 0.2789, -0.169 1.276 0.288, -0.169 1.2756 0.288, -0.1404 1.2756 0.2882, -0.1404 1.276 0.2882, -0.161 1.2756 0.2881, -0.1405 1.276 0.3139, -0.1405 1.2756 0.3139, -0.1714 1.2756 0.3137, -0.1714 1.276 0.3137, -0.161 1.2756 0.3137, -0.1715 1.276 0.3229, -0.1715 1.2756 0.3229, -0.1303 1.2756 0.3232, -0.1303 1.276 0.3232, -0.161 1.2756 0.3229, -0.1297 1.276 0.2431, -0.1297 1.2756 0.2431, -0.161 1.2756 0.2429, -0.238 1.276 0.2651, -0.2338 1.276 0.2598, -0.2411 1.276 0.2535, -0.2322 1.276 0.2584, -0.2328 1.276 0.2476, -0.2269 1.276 0.255, -0.2237 1.276 0.2441, -0.22 1.276 0.2526, -0.2099 1.276 0.2425, -0.2099 1.276 0.2516, -0.1879 1.276 0.2427, -0.1983 1.276 0.2517, -0.1885 1.276 0.3227, -0.1987 1.276 0.3135, -0.2113 1.276 0.3226, -0.2108 1.276 0.3134, -0.224 1.276 0.321, -0.2208 1.276 0.3123, -0.2336 1.276 0.3173, -0.2277 1.276 0.3098, -0.2415 1.276 0.3118, -0.2339 1.276 0.3057, -0.2448 1.276 0.3084, -0.2366 1.276 0.3029, -0.2496 1.276 0.3013, -0.2395 1.276 0.2982, -0.2523 1.276 0.2934, -0.2416 1.276 0.2921, -0.2534 1.276 0.2833, -0.2425 1.276 0.2831, -0.253 1.276 0.2776, -0.2422 1.276 0.2785, -0.2509 1.276 0.2683, -0.2407 1.276 0.2711, -0.2468 1.276 0.2601, -0.2099 1.2756 0.2425, -0.1879 1.2756 0.2427, -0.2237 1.2756 0.2441, -0.2328 1.2756 0.2476, -0.2411 1.2756 0.2535, -0.2468 1.2756 0.2601, -0.2509 1.2756 0.2683, -0.253 1.2756 0.2776, -0.2534 1.2756 0.2833, -0.2523 1.2756 0.2934, -0.2496 1.2756 0.3013, -0.2448 1.2756 0.3084, -0.2415 1.2756 0.3118, -0.2336 1.2756 0.3173, -0.224 1.2756 0.321, -0.2113 1.2756 0.3226, -0.1885 1.2756 0.3227, -0.2108 1.2756 0.3134, -0.1987 1.2756 0.3135, -0.1983 1.2756 0.2517, -0.2099 1.2756 0.2516, -0.2338 1.2756 0.2598, -0.2322 1.2756 0.2584, -0.2269 1.2756 0.255, -0.22 1.2756 0.2526, -0.2425 1.2756 0.2831, -0.2422 1.2756 0.2785, -0.2407 1.2756 0.2711, -0.238 1.2756 0.2651, -0.2339 1.2756 0.3057, -0.2366 1.2756 0.3029, -0.2395 1.2756 0.2982, -0.2416 1.2756 0.2921, -0.2208 1.2756 0.3123, -0.2277 1.2756 0.3098, -0.2277 1.2756 0.3098
            ]
        }
        coordIndex [
            0,1,2,-1,2,1,3,-1,4,0,5,-1,5,0,2,-1,4,5,6,-1,6,5,7,-1,6,7,8,-1,9,6,10,-1,10,6,8,-1,11,12,13,-1,13,12,9,-1,13,9,10,-1,1,12,3,-1,3,12,11,-1,6,9,4,-1,4,9,12,-1,4,12,0,-1,0,12,1,-1,14,15,16,-1,14,16,17,-1,16,18,17,-1,17,18,19,-1,17,19,20,-1,20,19,21,-1,22,20,23,-1,23,20,21,-1,22,23,24,-1,22,24,25,-1,24,26,25,-1,25,26,27,-1,25,27,28,-1,28,27,29,-1,28,29,30,-1,30,29,31,-1,30,31,32,-1,32,31,33,-1,32,33,34,-1,34,33,35,-1,34,35,36,-1,36,35,37,-1,36,37,38,-1,38,37,39,-1,38,39,40,-1,40,39,41,-1,40,41,42,-1,42,41,43,-1,42,43,44,-1,44,43,45,-1,44,45,46,-1,46,45,47,-1,46,47,48,-1,48,47,49,-1,48,49,50,-1,50,49,51,-1,50,51,52,-1,52,51,53,-1,52,53,54,-1,54,53,55,-1,54,55,56,-1,56,55,57,-1,56,57,58,-1,58,57,59,-1,58,59,60,-1,60,59,61,-1,60,61,62,-1,63,64,65,-1,62,61,66,-1,62,66,67,-1,67,66,68,-1,67,68,65,-1,65,68,69,-1,65,69,63,-1,70,64,71,-1,71,64,63,-1,72,73,74,-1,74,73,70,-1,74,70,71,-1,72,75,73,-1,73,75,76,-1,73,76,77,-1,77,76,78,-1,77,78,79,-1,79,78,80,-1,79,80,81,-1,81,80,82,-1,81,82,83,-1,82,84,83,-1,83,84,85,-1,83,85,86,-1,86,85,87,-1,86,87,88,-1,88,87,89,-1,88,89,90,-1,90,89,91,-1,90,91,92,-1,91,93,92,-1,92,93,94,-1,92,94,95,-1,95,94,96,-1,95,96,97,-1,97,96,98,-1,97,98,99,-1,99,98,100,-1,99,100,101,-1,100,102,101,-1,101,102,103,-1,101,103,104,-1,104,103,105,-1,104,105,106,-1,15,14,107,-1,107,14,108,-1,107,108,109,-1,109,108,110,-1,109,110,111,-1,111,110,112,-1,111,112,113,-1,113,112,106,-1,113,106,105,-1,65,64,70,-1,40,42,99,-1,48,50,90,-1,99,42,97,-1,90,50,88,-1,65,70,67,-1,67,70,73,-1,67,73,62,-1,62,73,77,-1,62,77,60,-1,60,77,79,-1,60,79,58,-1,58,79,81,-1,58,81,56,-1,20,22,17,-1,17,22,25,-1,17,25,14,-1,81,83,56,-1,56,83,86,-1,56,86,54,-1,54,86,88,-1,54,88,52,-1,52,88,50,-1,99,101,40,-1,40,101,104,-1,40,104,38,-1,38,104,106,-1,38,106,36,-1,36,106,112,-1,36,112,34,-1,34,112,110,-1,34,110,32,-1,32,110,108,-1,32,108,30,-1,30,108,14,-1,30,14,28,-1,28,14,25,-1,42,44,97,-1,97,44,46,-1,97,46,95,-1,95,46,48,-1,95,48,92,-1,92,48,90,-1,114,115,116,-1,116,115,117,-1,118,119,120,-1,120,119,114,-1,120,114,116,-1,121,119,122,-1,122,119,118,-1,123,124,125,-1,125,124,121,-1,125,121,122,-1,126,124,127,-1,127,124,123,-1,128,129,130,-1,130,129,126,-1,130,126,127,-1,131,129,132,-1,132,129,128,-1,133,134,135,-1,135,134,131,-1,135,131,132,-1,136,134,137,-1,137,134,133,-1,138,139,140,-1,140,139,136,-1,140,136,137,-1,141,139,142,-1,142,139,138,-1,117,115,143,-1,143,115,141,-1,143,141,142,-1,141,115,114,-1,114,119,141,-1,141,119,121,-1,141,121,139,-1,134,136,131,-1,131,136,139,-1,131,139,129,-1,129,139,121,-1,129,121,126,-1,126,121,124,-1,144,145,146,-1,146,145,147,-1,146,147,148,-1,148,147,149,-1,148,149,150,-1,150,149,151,-1,150,151,152,-1,152,151,153,-1,152,153,154,-1,154,153,155,-1,154,155,156,-1,156,155,157,-1,156,157,158,-1,158,157,159,-1,158,159,160,-1,160,159,161,-1,160,161,162,-1,162,161,163,-1,162,163,164,-1,164,163,165,-1,164,165,166,-1,166,165,167,-1,166,167,168,-1,168,167,169,-1,168,169,170,-1,170,169,171,-1,170,171,172,-1,172,171,173,-1,172,173,174,-1,174,173,175,-1,174,175,176,-1,176,175,177,-1,176,177,178,-1,178,177,144,-1,178,144,146,-1,152,154,179,-1,179,154,180,-1,152,179,181,-1,152,181,150,-1,150,181,182,-1,150,182,148,-1,148,182,183,-1,148,183,146,-1,146,183,184,-1,146,184,178,-1,178,184,185,-1,178,185,176,-1,176,185,186,-1,176,186,174,-1,174,186,187,-1,174,187,172,-1,172,187,188,-1,172,188,170,-1,170,188,189,-1,170,189,168,-1,168,189,190,-1,168,190,166,-1,166,190,191,-1,166,191,164,-1,164,191,192,-1,164,192,162,-1,162,192,193,-1,162,193,160,-1,160,193,194,-1,160,194,158,-1,156,158,195,-1,195,158,194,-1,154,156,180,-1,180,156,195,-1,159,157,196,-1,196,157,197,-1,157,155,197,-1,197,155,198,-1,155,153,198,-1,198,153,199,-1,145,200,201,-1,145,201,147,-1,147,201,202,-1,147,202,149,-1,149,202,203,-1,149,203,151,-1,151,203,199,-1,151,199,153,-1,173,204,205,-1,173,205,175,-1,175,205,206,-1,175,206,177,-1,177,206,207,-1,177,207,144,-1,144,207,200,-1,144,200,145,-1,165,208,209,-1,165,209,167,-1,167,209,210,-1,167,210,169,-1,169,210,211,-1,169,211,171,-1,171,211,204,-1,171,204,173,-1,159,196,212,-1,159,212,161,-1,161,212,213,-1,161,213,163,-1,163,213,208,-1,163,208,165,-1,
        ]
    }
}
Shape{
    appearance Appearance {
        material  Material 	{
            diffuseColor 0.14901960784313725 0.14901960784313725 0.14901960784313725
            specularColor 0.07450980392156863 0.07450980392156863 0.07450980392156863
            ambientIntensity 0.2
            transparency 0
            shininess 0.5
        }
    }
    geometry IndexedFaceSet {
        ccw TRUE
        solid FALSE
        coord DEF co Coordinate {
            point [
                -0.1987 1.2756 0.3135, -0.1983 1.2756 0.2517, -0.2108 1.2756 0.3134, -0.2099 1.2756 0.2516, -0.22 1.2756 0.2526, -0.2269 1.2756 0.255, -0.2322 1.2756 0.2584, -0.2338 1.2756 0.2598, -0.238 1.2756 0.2651, -0.2407 1.2756 0.2711, -0.2422 1.2756 0.2785, -0.2425 1.2756 0.2831, -0.2416 1.2756 0.2921, -0.2395 1.2756 0.2982, -0.2366 1.2756 0.3029, -0.2339 1.2756 0.3057, -0.2208 1.2756 0.3123, -0.2277 1.2756 0.3098, -0.2277 1.2756 0.3098
            ]
        }
        coordIndex [
            0,1,2,-1,2,1,3,-1,2,3,4,-1,4,5,2,-1,2,5,6,-1,2,6,7,-1,7,8,2,-1,2,8,9,-1,2,9,10,-1,10,11,2,-1,2,11,12,-1,2,12,13,-1,13,14,2,-1,2,14,15,-1,2,15,16,-1,16,15,17,-1,
        ]
    }
}
Shape{
    appearance Appearance {
        material  Material 	{
            diffuseColor 1.0 1.0 1.0
            specularColor 0.5019607843137255 0.5019607843137255 0.5019607843137255
            ambientIntensity 0.2
            transparency 0
            shininess 0.5
        }
    }
    geometry IndexedFaceSet {
        ccw TRUE
        solid FALSE
        coord DEF co Coordinate {
            point [
                -0.2801 1.276 0.273, -0.2923 1.276 0.3062, -0.2886 1.276 0.322, -0.2575 1.276 0.2422, -0.2689 1.276 0.2421, -0.2768 1.276 0.2639, -0.293 1.276 0.3085, -0.2937 1.276 0.3118, -0.2996 1.276 0.322, -0.2939 1.276 0.3118, -0.2946 1.276 0.3084, -0.2951 1.276 0.3061, -0.307 1.276 0.2728, -0.3296 1.276 0.2417, -0.3181 1.276 0.2418, -0.3101 1.276 0.2637, -0.2996 1.2756 0.322, -0.3293 1.2756 0.2422, -0.3296 1.2756 0.2417, -0.2886 1.2756 0.322, -0.2575 1.2756 0.2422, -0.2575 1.2756 0.2422, -0.2797 1.2756 0.2993, -0.2689 1.2756 0.2421, -0.2768 1.2756 0.2639, -0.269 1.2756 0.2422, -0.3101 1.2756 0.2637, -0.2797 1.2756 0.2639, -0.318 1.2756 0.2422, -0.3181 1.2756 0.2418, -0.2801 1.2756 0.273, -0.307 1.2756 0.2728, -0.2951 1.2756 0.3061, -0.2939 1.2756 0.3118, -0.2946 1.2756 0.3084, -0.2937 1.2756 0.3118, -0.2923 1.2756 0.3062, -0.293 1.2756 0.3085, -0.293 1.2756 0.3085
            ]
        }
        coordIndex [
            0,1,2,-1,3,4,5,-1,1,6,2,-1,2,6,7,-1,2,7,8,-1,8,7,9,-1,8,9,10,-1,10,11,8,-1,8,11,12,-1,8,12,13,-1,14,13,15,-1,15,13,12,-1,15,12,5,-1,5,12,0,-1,5,0,3,-1,3,0,2,-1,16,8,17,-1,17,8,13,-1,17,13,18,-1,2,8,19,-1,19,8,16,-1,20,21,3,-1,20,3,22,-1,22,3,2,-1,22,2,19,-1,4,3,23,-1,23,3,21,-1,24,5,25,-1,25,5,4,-1,25,4,23,-1,26,15,27,-1,27,15,5,-1,27,5,24,-1,15,26,14,-1,14,26,28,-1,14,28,29,-1,13,14,18,-1,18,14,29,-1,0,12,30,-1,30,12,31,-1,12,11,31,-1,31,11,32,-1,9,33,34,-1,9,34,10,-1,10,34,32,-1,10,32,11,-1,9,7,33,-1,33,7,35,-1,1,36,37,-1,1,37,6,-1,6,37,35,-1,6,35,7,-1,1,0,36,-1,36,0,30,-1,
        ]
    }
}
Shape{
    appearance Appearance {
        material  Material 	{
            diffuseColor 0.14901960784313725 0.14901960784313725 0.14901960784313725
            specularColor 0.07450980392156863 0.07450980392156863 0.07450980392156863
            ambientIntensity 0.2
            transparency 0
            shininess 0.5
        }
    }
    geometry IndexedFaceSet {
        ccw TRUE
        solid FALSE
        coord DEF co Coordinate {
            point [
                -0.2939 1.2756 0.3118, -0.2937 1.2756 0.3118, -0.2946 1.2756 0.3084, -0.293 1.2756 0.3085, -0.2951 1.2756 0.3061, -0.2923 1.2756 0.3062, -0.307 1.2756 0.2728, -0.2801 1.2756 0.273, -0.2801 1.2756 0.273
            ]
        }
        coordIndex [
            0,1,2,-1,2,1,3,-1,2,3,4,-1,4,3,5,-1,4,5,6,-1,6,5,7,-1,
        ]
    }
}
Shape{
    appearance Appearance {
        material  Material 	{
            diffuseColor 1.0 1.0 1.0
            specularColor 0.5019607843137255 0.5019607843137255 0.5019607843137255
            ambientIntensity 0.2
            transparency 0
            shininess 0.5
        }
    }
    geometry IndexedFaceSet {
        ccw TRUE
        solid FALSE
        coord DEF co Coordinate {
            point [
                -0.0505 1.276 0.1258, -0.0504 1.276 0.1166, -0.0505 1.2756 0.1258, -0.0504 1.2756 0.1166, -0.0177 1.276 0.126, -0.0177 1.2756 0.126, -0.0179 1.276 0.1529, -0.0179 1.2756 0.1529, -0.0465 1.276 0.1527, -0.0465 1.2756 0.1527, -0.0466 1.276 0.1619, -0.0466 1.2756 0.1619, -0.018 1.276 0.1621, -0.018 1.2756 0.1621, -0.0182 1.276 0.1877, -0.0182 1.2756 0.1877, -0.0491 1.276 0.1875, -0.0491 1.2756 0.1875, -0.0491 1.276 0.1967, -0.0491 1.2756 0.1967, -0.0079 1.276 0.197, -0.0079 1.2756 0.197, -0.0073 1.276 0.1169, -0.0073 1.2756 0.1169, -0.0959 1.276 0.1163, -0.1059 1.276 0.1162, -0.096 1.276 0.1251, -0.1062 1.276 0.153, -0.0962 1.276 0.1527, -0.0743 1.276 0.1409, -0.0768 1.276 0.142, -0.0957 1.276 0.1251, -0.0904 1.276 0.1267, -0.0941 1.276 0.1228, -0.0876 1.276 0.1248, -0.0827 1.276 0.1433, -0.0961 1.276 0.145, -0.0961 1.276 0.1395, -0.0961 1.276 0.1388, -0.0954 1.276 0.1344, -0.0939 1.276 0.1308, -0.0917 1.276 0.1279, -0.0958 1.276 0.1571, -0.1055 1.276 0.1605, -0.0948 1.276 0.1607, -0.104 1.276 0.1651, -0.0937 1.276 0.1627, -0.102 1.276 0.1684, -0.0922 1.276 0.1644, -0.0993 1.276 0.171, -0.0904 1.276 0.1655, -0.096 1.276 0.1729, -0.0881 1.276 0.1664, -0.0918 1.276 0.1743, -0.0847 1.276 0.1667, -0.0857 1.276 0.1749, -0.0786 1.276 0.1661, -0.0763 1.276 0.1739, -0.0723 1.276 0.164, -0.0687 1.276 0.1712, -0.0659 1.276 0.16, -0.0659 1.276 0.1697, -0.0723 1.276 0.1268, -0.0649 1.276 0.1197, -0.0731 1.276 0.1259, -0.0683 1.276 0.1173, -0.0751 1.276 0.1245, -0.0721 1.276 0.1158, -0.0774 1.276 0.1237, -0.0781 1.276 0.1151, -0.0808 1.276 0.1233, -0.0833 1.276 0.1156, -0.0845 1.276 0.1237, -0.0874 1.276 0.1171, -0.0909 1.276 0.1194, -0.0704 1.276 0.1342, -0.0601 1.276 0.1333, -0.0703 1.276 0.1326, -0.0601 1.276 0.1319, -0.0705 1.276 0.1303, -0.0606 1.276 0.1273, -0.0712 1.276 0.1285, -0.0617 1.276 0.1239, -0.0638 1.276 0.1208, -0.0792 1.276 0.1504, -0.0719 1.276 0.1487, -0.073 1.276 0.1398, -0.0675 1.276 0.1465, -0.0718 1.276 0.1384, -0.0643 1.276 0.1439, -0.0709 1.276 0.1365, -0.0623 1.276 0.1411, -0.0608 1.276 0.1376, -0.0857 1.2756 0.1749, -0.0763 1.2756 0.1739, -0.0687 1.2756 0.1712, -0.0659 1.2756 0.1697, -0.0659 1.2756 0.16, -0.0723 1.2756 0.164, -0.0786 1.2756 0.1661, -0.0847 1.2756 0.1667, -0.0881 1.2756 0.1664, -0.0904 1.2756 0.1655, -0.0922 1.2756 0.1644, -0.0937 1.2756 0.1627, -0.0948 1.2756 0.1607, -0.0958 1.2756 0.1571, -0.0962 1.2756 0.1527, -0.0792 1.2756 0.1504, -0.0719 1.2756 0.1487, -0.0675 1.2756 0.1465, -0.0643 1.2756 0.1439, -0.0623 1.2756 0.1411, -0.0608 1.2756 0.1376, -0.0601 1.2756 0.1333, -0.0601 1.2756 0.1319, -0.0606 1.2756 0.1273, -0.0617 1.2756 0.1239, -0.0638 1.2756 0.1208, -0.0649 1.2756 0.1197, -0.0683 1.2756 0.1173, -0.0721 1.2756 0.1158, -0.0781 1.2756 0.1151, -0.0833 1.2756 0.1156, -0.0874 1.2756 0.1171, -0.0909 1.2756 0.1194, -0.0941 1.2756 0.1228, -0.0957 1.2756 0.1251, -0.096 1.2756 0.1251, -0.0959 1.2756 0.1163, -0.1059 1.2756 0.1162, -0.1062 1.2756 0.153, -0.1055 1.2756 0.1605, -0.104 1.2756 0.1651, -0.102 1.2756 0.1684, -0.0993 1.2756 0.171, -0.096 1.2756 0.1729, -0.0918 1.2756 0.1743, -0.073 1.2756 0.1398, -0.0743 1.2756 0.1409, -0.0768 1.2756 0.142, -0.0827 1.2756 0.1433, -0.0703 1.2756 0.1326, -0.0704 1.2756 0.1342, -0.0709 1.2756 0.1365, -0.0718 1.2756 0.1384, -0.0731 1.2756 0.1259, -0.0723 1.2756 0.1268, -0.0712 1.2756 0.1285, -0.0705 1.2756 0.1303, -0.0808 1.2756 0.1233, -0.0774 1.2756 0.1237, -0.0751 1.2756 0.1245, -0.0917 1.2756 0.1279, -0.0904 1.2756 0.1267, -0.0876 1.2756 0.1248, -0.0845 1.2756 0.1237, -0.0961 1.2756 0.1395, -0.0961 1.2756 0.1388, -0.0954 1.2756 0.1344, -0.0939 1.2756 0.1308, -0.0961 1.2756 0.145, -0.0961 1.2756 0.145
            ]
        }
        coordIndex [
            0,1,2,-1,2,1,3,-1,4,0,5,-1,5,0,2,-1,6,4,7,-1,7,4,5,-1,8,6,9,-1,9,6,7,-1,10,8,11,-1,11,8,9,-1,12,10,13,-1,13,10,11,-1,14,12,15,-1,15,12,13,-1,16,14,17,-1,17,14,15,-1,18,16,19,-1,19,16,17,-1,20,18,21,-1,21,18,19,-1,22,20,23,-1,23,20,21,-1,1,22,3,-1,3,22,23,-1,22,1,0,-1,0,4,22,-1,22,4,6,-1,22,6,20,-1,16,18,14,-1,14,18,20,-1,14,20,12,-1,12,20,6,-1,12,6,10,-1,10,6,8,-1,24,25,26,-1,26,25,27,-1,28,29,30,-1,31,32,33,-1,33,32,34,-1,35,36,27,-1,27,36,37,-1,37,38,27,-1,27,38,39,-1,27,39,26,-1,26,39,40,-1,26,40,31,-1,31,40,41,-1,31,41,32,-1,30,35,28,-1,28,35,27,-1,28,27,42,-1,42,27,43,-1,42,43,44,-1,44,43,45,-1,44,45,46,-1,46,45,47,-1,46,47,48,-1,48,47,49,-1,48,49,50,-1,50,49,51,-1,50,51,52,-1,52,51,53,-1,52,53,54,-1,54,53,55,-1,54,55,56,-1,56,55,57,-1,56,57,58,-1,58,57,59,-1,58,59,60,-1,60,59,61,-1,62,63,64,-1,64,63,65,-1,64,65,66,-1,66,65,67,-1,66,67,68,-1,68,67,69,-1,68,69,70,-1,70,69,71,-1,70,71,72,-1,72,71,73,-1,72,73,34,-1,34,73,74,-1,34,74,33,-1,75,76,77,-1,77,76,78,-1,77,78,79,-1,79,78,80,-1,79,80,81,-1,81,80,82,-1,81,82,62,-1,62,82,83,-1,62,83,63,-1,28,84,29,-1,29,84,85,-1,29,85,86,-1,86,85,87,-1,86,87,88,-1,88,87,89,-1,88,89,90,-1,90,89,91,-1,90,91,75,-1,75,91,92,-1,75,92,76,-1,55,93,94,-1,55,94,57,-1,57,94,95,-1,57,95,59,-1,59,95,96,-1,59,96,61,-1,60,61,97,-1,97,61,96,-1,60,97,98,-1,60,98,58,-1,58,98,99,-1,58,99,56,-1,56,99,100,-1,56,100,54,-1,54,100,101,-1,54,101,52,-1,52,101,102,-1,52,102,50,-1,50,102,103,-1,50,103,48,-1,48,103,104,-1,48,104,46,-1,46,104,105,-1,46,105,44,-1,44,105,106,-1,44,106,42,-1,42,106,107,-1,42,107,28,-1,84,28,108,-1,108,28,107,-1,84,108,109,-1,84,109,85,-1,85,109,110,-1,85,110,87,-1,87,110,111,-1,87,111,89,-1,89,111,112,-1,89,112,91,-1,91,112,113,-1,91,113,92,-1,92,113,114,-1,92,114,76,-1,76,114,115,-1,76,115,78,-1,78,115,116,-1,78,116,80,-1,80,116,117,-1,80,117,82,-1,82,117,118,-1,82,118,83,-1,83,118,119,-1,83,119,63,-1,63,119,120,-1,63,120,65,-1,65,120,121,-1,65,121,67,-1,67,121,122,-1,67,122,69,-1,69,122,123,-1,69,123,71,-1,71,123,124,-1,71,124,73,-1,73,124,125,-1,73,125,74,-1,74,125,126,-1,74,126,33,-1,33,126,127,-1,33,127,31,-1,26,31,128,-1,128,31,127,-1,24,26,129,-1,129,26,128,-1,25,24,130,-1,130,24,129,-1,27,25,131,-1,131,25,130,-1,27,131,132,-1,27,132,43,-1,43,132,133,-1,43,133,45,-1,45,133,134,-1,45,134,47,-1,47,134,135,-1,47,135,49,-1,49,135,136,-1,49,136,51,-1,51,136,137,-1,51,137,53,-1,53,137,93,-1,53,93,55,-1,86,138,139,-1,86,139,29,-1,29,139,140,-1,29,140,30,-1,30,140,141,-1,30,141,35,-1,77,142,143,-1,77,143,75,-1,75,143,144,-1,75,144,90,-1,90,144,145,-1,90,145,88,-1,88,145,138,-1,88,138,86,-1,64,146,147,-1,64,147,62,-1,62,147,148,-1,62,148,81,-1,81,148,149,-1,81,149,79,-1,79,149,142,-1,79,142,77,-1,70,150,151,-1,70,151,68,-1,68,151,152,-1,68,152,66,-1,66,152,146,-1,66,146,64,-1,41,153,154,-1,41,154,32,-1,32,154,155,-1,32,155,34,-1,34,155,156,-1,34,156,72,-1,72,156,150,-1,72,150,70,-1,37,157,158,-1,37,158,38,-1,38,158,159,-1,38,159,39,-1,39,159,160,-1,39,160,40,-1,40,160,153,-1,40,153,41,-1,37,36,157,-1,157,36,161,-1,36,35,161,-1,161,35,141,-1,
        ]
    }
}
Shape{
    appearance Appearance {
        material  Material 	{
            diffuseColor 0.14901960784313725 0.14901960784313725 0.14901960784313725
            specularColor 0.07450980392156863 0.07450980392156863 0.07450980392156863
            ambientIntensity 0.2
            transparency 0
            shininess 0.5
        }
    }
    geometry IndexedFaceSet {
        ccw TRUE
        solid FALSE
        coord DEF co Coordinate {
            point [
                -0.0961 1.2756 0.145, -0.0827 1.2756 0.1433, -0.0961 1.2756 0.1395, -0.0768 1.2756 0.142, -0.0743 1.2756 0.1409, -0.073 1.2756 0.1398, -0.0961 1.2756 0.1388, -0.0954 1.2756 0.1344, -0.0718 1.2756 0.1384, -0.0939 1.2756 0.1308, -0.0723 1.2756 0.1268, -0.0731 1.2756 0.1259, -0.0904 1.2756 0.1267, -0.0712 1.2756 0.1285, -0.0876 1.2756 0.1248, -0.0845 1.2756 0.1237, -0.0808 1.2756 0.1233, -0.0709 1.2756 0.1365, -0.0704 1.2756 0.1342, -0.0917 1.2756 0.1279, -0.0703 1.2756 0.1326, -0.0705 1.2756 0.1303, -0.0751 1.2756 0.1245, -0.0774 1.2756 0.1237, -0.0774 1.2756 0.1237
            ]
        }
        coordIndex [
            0,1,2,-1,2,1,3,-1,3,4,2,-1,2,4,5,-1,2,5,6,-1,6,5,7,-1,7,5,8,-1,7,8,9,-1,10,11,12,-1,10,12,13,-1,14,12,15,-1,15,12,16,-1,8,17,9,-1,9,17,18,-1,9,18,19,-1,19,18,20,-1,19,20,12,-1,12,20,21,-1,12,21,13,-1,11,22,12,-1,12,22,23,-1,12,23,16,-1,
        ]
    }
}
Shape{
    appearance Appearance {
        material  Material 	{
            diffuseColor 1.0 1.0 1.0
            specularColor 0.5019607843137255 0.5019607843137255 0.5019607843137255
            ambientIntensity 0.2
            transparency 0
            shininess 0.5
        }
    }
    geometry IndexedFaceSet {
        ccw TRUE
        solid FALSE
        coord DEF co Coordinate {
            point [
                -0.1361 1.276 0.1229, -0.1361 1.2756 0.1229, -0.1298 1.2756 0.1236, -0.1246 1.2756 0.1256, -0.1235 1.276 0.126, -0.1298 1.276 0.1236, -0.1235 1.2756 0.126, -0.1196 1.2756 0.1285, -0.1196 1.276 0.1285, -0.1195 1.276 0.1181, -0.1195 1.2756 0.1181, -0.1246 1.2756 0.1163, -0.1267 1.276 0.1156, -0.1267 1.2756 0.1156, -0.135 1.276 0.1147, -0.1348 1.2756 0.1147, -0.135 1.2756 0.1147, -0.1353 1.2756 0.1147, -0.1432 1.276 0.1155, -0.1432 1.2756 0.1155, -0.1487 1.2756 0.1173, -0.1487 1.276 0.1173, -0.1517 1.2756 0.1191, -0.1517 1.276 0.1191, -0.1546 1.2756 0.1216, -0.1546 1.276 0.1216, -0.1565 1.2756 0.1242, -0.1565 1.276 0.1242, -0.1577 1.2756 0.1274, -0.1577 1.276 0.1274, -0.1583 1.2756 0.1314, -0.1583 1.276 0.1314, -0.1579 1.2756 0.1352, -0.1579 1.276 0.1352, -0.1568 1.2756 0.1381, -0.1568 1.276 0.1381, -0.155 1.2756 0.1409, -0.155 1.276 0.1409, -0.1526 1.2756 0.143, -0.1526 1.276 0.143, -0.146 1.2756 0.1468, -0.146 1.276 0.1468, -0.1421 1.2756 0.1484, -0.1421 1.276 0.1484, -0.1359 1.2756 0.1511, -0.1359 1.276 0.1511, -0.1324 1.2756 0.1534, -0.1324 1.276 0.1534, -0.1314 1.2756 0.1545, -0.1314 1.276 0.1545, -0.1307 1.2756 0.1558, -0.1307 1.276 0.1558, -0.1303 1.2756 0.1574, -0.1303 1.276 0.1574, -0.1302 1.2756 0.1587, -0.1302 1.276 0.1587, -0.1304 1.2756 0.1603, -0.1304 1.276 0.1603, -0.1309 1.2756 0.1617, -0.1309 1.276 0.1617, -0.1318 1.2756 0.1629, -0.1318 1.276 0.1629, -0.1333 1.2756 0.1643, -0.1333 1.276 0.1643, -0.1356 1.2756 0.1654, -0.1356 1.276 0.1654, -0.1383 1.2756 0.1661, -0.1383 1.276 0.1661, -0.1412 1.2756 0.1663, -0.1412 1.276 0.1663, -0.1478 1.2756 0.1655, -0.1478 1.276 0.1655, -0.1535 1.2756 0.1634, -0.1535 1.276 0.1634, -0.1557 1.2756 0.1621, -0.1557 1.276 0.1621, -0.1558 1.276 0.1718, -0.1558 1.2756 0.1718, -0.1478 1.2756 0.1741, -0.1478 1.276 0.1741, -0.1423 1.2756 0.1745, -0.1423 1.276 0.1745, -0.1349 1.2756 0.1737, -0.1349 1.276 0.1737, -0.1294 1.2756 0.1718, -0.1294 1.276 0.1718, -0.1264 1.2756 0.17, -0.1264 1.276 0.17, -0.1234 1.276 0.1674, -0.1246 1.2756 0.1685, -0.1234 1.2756 0.1674, -0.1215 1.2756 0.1647, -0.1215 1.276 0.1647, -0.1203 1.2756 0.1615, -0.1203 1.276 0.1615, -0.1199 1.2756 0.1579, -0.1199 1.276 0.1579, -0.1203 1.2756 0.154, -0.1203 1.276 0.154, -0.1214 1.2756 0.1509, -0.1214 1.276 0.1509, -0.1227 1.2756 0.1488, -0.1227 1.276 0.1488, -0.1349 1.2756 0.1412, -0.1349 1.276 0.1412, -0.129 1.276 0.1439, -0.1243 1.2756 0.1471, -0.1243 1.276 0.1471, -0.1246 1.2756 0.1469, -0.129 1.2756 0.1439, -0.1415 1.2756 0.1384, -0.1415 1.276 0.1384, -0.1454 1.2756 0.136, -0.1454 1.276 0.136, -0.1467 1.2756 0.1347, -0.1467 1.276 0.1347, -0.1474 1.2756 0.1333, -0.1474 1.276 0.1333, -0.1479 1.2756 0.1318, -0.1479 1.276 0.1318, -0.148 1.2756 0.1305, -0.148 1.276 0.1305, -0.1477 1.2756 0.1286, -0.1477 1.276 0.1286, -0.1472 1.2756 0.1272, -0.1472 1.276 0.1272, -0.1463 1.2756 0.1259, -0.1463 1.276 0.1259, -0.1452 1.2756 0.1249, -0.1452 1.276 0.1249, -0.1443 1.2756 0.1243, -0.1443 1.276 0.1243, -0.1417 1.2756 0.1234, -0.1417 1.276 0.1234, -0.1365 1.2756 0.1229, -0.1365 1.276 0.1229, -0.2083 1.276 0.1727, -0.2187 1.276 0.1726, -0.2083 1.2756 0.1727, -0.2187 1.2756 0.1726, -0.1923 1.276 0.1297, -0.1923 1.2756 0.1297, -0.1916 1.2756 0.1271, -0.1916 1.276 0.1271, -0.1911 1.2756 0.1251, -0.1911 1.276 0.1251, -0.1908 1.276 0.1251, -0.1908 1.2756 0.1251, -0.1896 1.276 0.1298, -0.1896 1.2756 0.1298, -0.175 1.2756 0.1729, -0.175 1.276 0.1729, -0.1804 1.2756 0.1571, -0.1638 1.276 0.173, -0.1638 1.2756 0.173, -0.1858 1.2756 0.1158, -0.1858 1.276 0.1158, -0.1804 1.2756 0.1299, -0.1813 1.2756 0.1054, -0.1813 1.276 0.1054, -0.1853 1.2756 0.1147, -0.1804 1.2756 0.1037, -0.1793 1.276 0.1018, -0.1793 1.2756 0.1018, -0.1789 1.2756 0.1014, -0.1775 1.276 0.0998, -0.1775 1.2756 0.0998, -0.1756 1.2756 0.0985, -0.1756 1.276 0.0985, -0.1734 1.2756 0.0977, -0.1734 1.276 0.0977, -0.171 1.2756 0.0974, -0.171 1.276 0.0974, -0.1674 1.2756 0.0979, -0.1674 1.276 0.0979, -0.1653 1.2756 0.0986, -0.1653 1.276 0.0986, -0.1652 1.276 0.0897, -0.1652 1.2756 0.0897, -0.1695 1.2756 0.0889, -0.1695 1.276 0.0889, -0.1717 1.2756 0.0888, -0.1717 1.276 0.0888, -0.1758 1.2756 0.0893, -0.1758 1.276 0.0893, -0.1797 1.2756 0.0907, -0.1797 1.276 0.0907, -0.1804 1.2756 0.0912, -0.1833 1.276 0.0932, -0.1922 1.2756 0.107, -0.1922 1.276 0.107, -0.1893 1.2756 0.1014, -0.1876 1.276 0.0982, -0.1876 1.2756 0.0982, -0.1839 1.276 0.0938, -0.1839 1.2756 0.0938, -0.1833 1.2756 0.0932, -0.1953 1.2756 0.1147, -0.2722 1.276 0.1242, -0.2721 1.276 0.1151, -0.2722 1.2756 0.1242, -0.2721 1.2756 0.1151, -0.2395 1.2756 0.1244, -0.2395 1.276 0.1244, -0.2554 1.2756 0.1243, -0.2397 1.276 0.1513, -0.2397 1.2756 0.1513, -0.2683 1.2756 0.1511, -0.2683 1.276 0.1511, -0.2554 1.2756 0.1512, -0.2684 1.276 0.1603, -0.2684 1.2756 0.1603, -0.2397 1.2756 0.1605, -0.2397 1.276 0.1605, -0.2554 1.2756 0.1604, -0.2399 1.276 0.1861, -0.2399 1.2756 0.1861, -0.2708 1.2756 0.1859, -0.2708 1.276 0.1859, -0.2554 1.2756 0.186, -0.2709 1.276 0.1951, -0.2709 1.2756 0.1951, -0.2296 1.2756 0.1954, -0.2296 1.276 0.1954, -0.2554 1.2756 0.1952, -0.2291 1.276 0.1154, -0.2291 1.2756 0.1154, -0.2554 1.2756 0.1152, -0.3374 1.276 0.1373, -0.3331 1.276 0.1321, -0.3404 1.276 0.1258, -0.3316 1.276 0.1307, -0.3322 1.276 0.1199, -0.3262 1.276 0.1273, -0.323 1.276 0.1164, -0.3193 1.276 0.1249, -0.3093 1.276 0.1148, -0.3093 1.276 0.1239, -0.2873 1.276 0.1149, -0.2977 1.276 0.124, -0.2878 1.276 0.195, -0.2981 1.276 0.1857, -0.3107 1.276 0.1949, -0.3102 1.276 0.1856, -0.3234 1.276 0.1933, -0.3201 1.276 0.1845, -0.333 1.276 0.1896, -0.3271 1.276 0.182, -0.3409 1.276 0.184, -0.3332 1.276 0.1779, -0.3442 1.276 0.1807, -0.3359 1.276 0.1752, -0.3489 1.276 0.1735, -0.3389 1.276 0.1705, -0.3517 1.276 0.1657, -0.341 1.276 0.1644, -0.3527 1.276 0.1555, -0.3419 1.276 0.1553, -0.3524 1.276 0.1499, -0.3416 1.276 0.1508, -0.3503 1.276 0.1406, -0.3401 1.276 0.1433, -0.3462 1.276 0.1324, -0.3093 1.2756 0.1148, -0.2873 1.2756 0.1149, -0.323 1.2756 0.1164, -0.3322 1.2756 0.1199, -0.3404 1.2756 0.1258, -0.3462 1.2756 0.1324, -0.3503 1.2756 0.1406, -0.3524 1.2756 0.1499, -0.3527 1.2756 0.1555, -0.3517 1.2756 0.1657, -0.3489 1.2756 0.1735, -0.3442 1.2756 0.1807, -0.3409 1.2756 0.184, -0.333 1.2756 0.1896, -0.3234 1.2756 0.1933, -0.3107 1.2756 0.1949, -0.2878 1.2756 0.195, -0.3102 1.2756 0.1856, -0.2981 1.2756 0.1857, -0.2977 1.2756 0.124, -0.3093 1.2756 0.1239, -0.3331 1.2756 0.1321, -0.3316 1.2756 0.1307, -0.3262 1.2756 0.1273, -0.3193 1.2756 0.1249, -0.3419 1.2756 0.1553, -0.3416 1.2756 0.1508, -0.3401 1.2756 0.1433, -0.3374 1.2756 0.1373, -0.3332 1.2756 0.1779, -0.3359 1.2756 0.1752, -0.3389 1.2756 0.1705, -0.341 1.2756 0.1644, -0.3201 1.2756 0.1845, -0.3271 1.2756 0.182, -0.3271 1.2756 0.182
            ]
        }
        coordIndex [
            0,1,2,-1,3,4,2,-1,2,4,5,-1,2,5,0,-1,3,6,4,-1,4,6,7,-1,4,7,8,-1,9,8,10,-1,10,8,7,-1,9,10,11,-1,9,11,12,-1,12,11,13,-1,12,13,14,-1,14,13,15,-1,14,15,16,-1,14,16,17,-1,14,17,18,-1,17,19,18,-1,18,19,20,-1,18,20,21,-1,21,20,22,-1,21,22,23,-1,23,22,24,-1,23,24,25,-1,25,24,26,-1,25,26,27,-1,27,26,28,-1,27,28,29,-1,29,28,30,-1,29,30,31,-1,31,30,32,-1,31,32,33,-1,33,32,34,-1,33,34,35,-1,35,34,36,-1,35,36,37,-1,37,36,38,-1,37,38,39,-1,39,38,40,-1,39,40,41,-1,41,40,42,-1,41,42,43,-1,43,42,44,-1,43,44,45,-1,45,44,46,-1,45,46,47,-1,47,46,48,-1,47,48,49,-1,49,48,50,-1,49,50,51,-1,51,50,52,-1,51,52,53,-1,53,52,54,-1,53,54,55,-1,55,54,56,-1,55,56,57,-1,57,56,58,-1,57,58,59,-1,59,58,60,-1,59,60,61,-1,61,60,62,-1,61,62,63,-1,63,62,64,-1,63,64,65,-1,65,64,66,-1,65,66,67,-1,67,66,68,-1,67,68,69,-1,69,68,70,-1,69,70,71,-1,71,70,72,-1,71,72,73,-1,73,72,74,-1,73,74,75,-1,76,75,77,-1,77,75,74,-1,76,77,78,-1,76,78,79,-1,79,78,80,-1,79,80,81,-1,81,80,82,-1,81,82,83,-1,83,82,84,-1,83,84,85,-1,85,84,86,-1,85,86,87,-1,88,87,89,-1,89,87,86,-1,89,90,88,-1,88,90,91,-1,88,91,92,-1,92,91,93,-1,92,93,94,-1,94,93,95,-1,94,95,96,-1,96,95,97,-1,96,97,98,-1,98,97,99,-1,98,99,100,-1,100,99,101,-1,100,101,102,-1,103,104,105,-1,102,101,106,-1,102,106,107,-1,107,106,108,-1,107,108,105,-1,105,108,109,-1,105,109,103,-1,104,103,110,-1,104,110,111,-1,111,110,112,-1,111,112,113,-1,113,112,114,-1,113,114,115,-1,115,114,116,-1,115,116,117,-1,117,116,118,-1,117,118,119,-1,119,118,120,-1,119,120,121,-1,121,120,122,-1,121,122,123,-1,123,122,124,-1,123,124,125,-1,125,124,126,-1,125,126,127,-1,127,126,128,-1,127,128,129,-1,129,128,130,-1,129,130,131,-1,131,130,132,-1,131,132,133,-1,133,132,134,-1,133,134,135,-1,135,134,1,-1,135,1,0,-1,61,63,85,-1,85,63,83,-1,111,43,104,-1,104,43,45,-1,21,23,127,-1,127,23,25,-1,127,25,125,-1,125,25,27,-1,125,27,123,-1,123,27,29,-1,123,29,121,-1,121,29,31,-1,121,31,119,-1,119,31,33,-1,119,33,117,-1,117,33,35,-1,117,35,115,-1,115,35,37,-1,115,37,113,-1,113,37,39,-1,113,39,111,-1,111,39,41,-1,111,41,43,-1,14,0,12,-1,12,0,5,-1,12,5,9,-1,9,5,4,-1,9,4,8,-1,63,65,83,-1,83,65,67,-1,83,67,81,-1,81,67,69,-1,81,69,79,-1,79,69,71,-1,79,71,76,-1,76,71,73,-1,76,73,75,-1,127,129,21,-1,21,129,131,-1,21,131,18,-1,18,131,133,-1,18,133,14,-1,14,133,135,-1,14,135,0,-1,85,87,61,-1,61,87,88,-1,61,88,59,-1,59,88,92,-1,59,92,57,-1,57,92,94,-1,57,94,55,-1,55,94,96,-1,55,96,53,-1,53,96,98,-1,53,98,51,-1,51,98,100,-1,51,100,49,-1,49,100,102,-1,49,102,47,-1,47,102,107,-1,47,107,45,-1,45,107,105,-1,45,105,104,-1,136,137,138,-1,138,137,139,-1,140,136,141,-1,141,136,138,-1,140,141,142,-1,140,142,143,-1,143,142,144,-1,143,144,145,-1,146,145,147,-1,147,145,144,-1,148,146,149,-1,149,146,147,-1,150,151,152,-1,152,151,148,-1,152,148,149,-1,153,151,154,-1,154,151,150,-1,155,156,157,-1,157,156,153,-1,157,153,154,-1,158,159,160,-1,160,159,156,-1,160,156,155,-1,159,158,161,-1,159,161,162,-1,161,163,162,-1,162,163,164,-1,162,164,165,-1,164,166,165,-1,165,166,167,-1,165,167,168,-1,168,167,169,-1,168,169,170,-1,170,169,171,-1,170,171,172,-1,172,171,173,-1,172,173,174,-1,174,173,175,-1,174,175,176,-1,177,176,178,-1,178,176,175,-1,177,178,179,-1,177,179,180,-1,180,179,181,-1,180,181,182,-1,182,181,183,-1,182,183,184,-1,184,183,185,-1,184,185,186,-1,186,185,187,-1,186,187,188,-1,189,190,191,-1,191,190,192,-1,191,192,193,-1,193,192,194,-1,193,194,195,-1,195,194,188,-1,195,188,196,-1,196,188,187,-1,139,137,197,-1,197,137,190,-1,197,190,189,-1,143,145,190,-1,137,136,190,-1,190,136,140,-1,190,140,143,-1,151,153,148,-1,148,153,156,-1,148,156,146,-1,192,162,194,-1,194,162,165,-1,176,177,174,-1,174,177,180,-1,174,180,172,-1,172,180,182,-1,172,182,170,-1,170,182,184,-1,170,184,168,-1,168,184,186,-1,168,186,165,-1,165,186,188,-1,165,188,194,-1,145,146,190,-1,190,146,156,-1,190,156,192,-1,192,156,159,-1,192,159,162,-1,198,199,200,-1,200,199,201,-1,202,203,204,-1,204,203,198,-1,204,198,200,-1,205,203,206,-1,206,203,202,-1,207,208,209,-1,209,208,205,-1,209,205,206,-1,210,208,211,-1,211,208,207,-1,212,213,214,-1,214,213,210,-1,214,210,211,-1,215,213,216,-1,216,213,212,-1,217,218,219,-1,219,218,215,-1,219,215,216,-1,220,218,221,-1,221,218,217,-1,222,223,224,-1,224,223,220,-1,224,220,221,-1,225,223,226,-1,226,223,222,-1,201,199,227,-1,227,199,225,-1,227,225,226,-1,218,220,215,-1,215,220,223,-1,215,223,213,-1,199,198,225,-1,225,198,203,-1,225,203,205,-1,208,210,205,-1,205,210,213,-1,205,213,225,-1,225,213,223,-1,228,229,230,-1,230,229,231,-1,230,231,232,-1,232,231,233,-1,232,233,234,-1,234,233,235,-1,234,235,236,-1,236,235,237,-1,236,237,238,-1,238,237,239,-1,238,239,240,-1,240,239,241,-1,240,241,242,-1,242,241,243,-1,242,243,244,-1,244,243,245,-1,244,245,246,-1,246,245,247,-1,246,247,248,-1,248,247,249,-1,248,249,250,-1,250,249,251,-1,250,251,252,-1,252,251,253,-1,252,253,254,-1,254,253,255,-1,254,255,256,-1,256,255,257,-1,256,257,258,-1,258,257,259,-1,258,259,260,-1,260,259,261,-1,260,261,262,-1,262,261,228,-1,262,228,230,-1,236,238,263,-1,263,238,264,-1,236,263,265,-1,236,265,234,-1,234,265,266,-1,234,266,232,-1,232,266,267,-1,232,267,230,-1,230,267,268,-1,230,268,262,-1,262,268,269,-1,262,269,260,-1,260,269,270,-1,260,270,258,-1,258,270,271,-1,258,271,256,-1,256,271,272,-1,256,272,254,-1,254,272,273,-1,254,273,252,-1,252,273,274,-1,252,274,250,-1,250,274,275,-1,250,275,248,-1,248,275,276,-1,248,276,246,-1,246,276,277,-1,246,277,244,-1,244,277,278,-1,244,278,242,-1,240,242,279,-1,279,242,278,-1,238,240,264,-1,264,240,279,-1,243,241,280,-1,280,241,281,-1,241,239,281,-1,281,239,282,-1,239,237,282,-1,282,237,283,-1,229,284,285,-1,229,285,231,-1,231,285,286,-1,231,286,233,-1,233,286,287,-1,233,287,235,-1,235,287,283,-1,235,283,237,-1,257,288,289,-1,257,289,259,-1,259,289,290,-1,259,290,261,-1,261,290,291,-1,261,291,228,-1,228,291,284,-1,228,284,229,-1,249,292,293,-1,249,293,251,-1,251,293,294,-1,251,294,253,-1,253,294,295,-1,253,295,255,-1,255,295,288,-1,255,288,257,-1,243,280,296,-1,243,296,245,-1,245,296,297,-1,245,297,247,-1,247,297,292,-1,247,292,249,-1,
        ]
    }
}
Shape{
    appearance Appearance {
        material  Material 	{
            diffuseColor 0.14901960784313725 0.14901960784313725 0.14901960784313725
            specularColor 0.07450980392156863 0.07450980392156863 0.07450980392156863
            ambientIntensity 0.2
            transparency 0
            shininess 0.5
        }
    }
    geometry IndexedFaceSet {
        ccw TRUE
        solid FALSE
        coord DEF co Coordinate {
            point [
                -0.2981 1.2756 0.1857, -0.2977 1.2756 0.124, -0.3102 1.2756 0.1856, -0.3093 1.2756 0.1239, -0.3193 1.2756 0.1249, -0.3262 1.2756 0.1273, -0.3316 1.2756 0.1307, -0.3331 1.2756 0.1321, -0.3374 1.2756 0.1373, -0.3401 1.2756 0.1433, -0.3416 1.2756 0.1508, -0.3419 1.2756 0.1553, -0.341 1.2756 0.1644, -0.3389 1.2756 0.1705, -0.3359 1.2756 0.1752, -0.3332 1.2756 0.1779, -0.3201 1.2756 0.1845, -0.3271 1.2756 0.182, -0.3271 1.2756 0.182
            ]
        }
        coordIndex [
            0,1,2,-1,2,1,3,-1,2,3,4,-1,4,5,2,-1,2,5,6,-1,2,6,7,-1,7,8,2,-1,2,8,9,-1,2,9,10,-1,10,11,2,-1,2,11,12,-1,2,12,13,-1,13,14,2,-1,2,14,15,-1,2,15,16,-1,16,15,17,-1,
        ]
    }
}
Shape{
    appearance Appearance {
        material  Material 	{
            diffuseColor 1.0 1.0 1.0
            specularColor 0.5019607843137255 0.5019607843137255 0.5019607843137255
            ambientIntensity 0.2
            transparency 0
            shininess 0.5
        }
    }
    geometry IndexedFaceSet {
        ccw TRUE
        solid FALSE
        coord DEF co Coordinate {
            point [
                -0.3795 1.276 0.1452, -0.3917 1.276 0.1784, -0.3879 1.276 0.1943, -0.3569 1.276 0.1145, -0.3683 1.276 0.1144, -0.3762 1.276 0.1362, -0.3924 1.276 0.1808, -0.3931 1.276 0.184, -0.399 1.276 0.1942, -0.3933 1.276 0.184, -0.3939 1.276 0.1806, -0.3945 1.276 0.1784, -0.4064 1.276 0.1451, -0.4289 1.276 0.1139, -0.4175 1.276 0.114, -0.4095 1.276 0.136, -0.399 1.2756 0.1942, -0.4286 1.2756 0.1147, -0.4289 1.2756 0.1139, -0.3879 1.2756 0.1943, -0.357 1.2756 0.1147, -0.3569 1.2756 0.1145, -0.3683 1.2756 0.1144, -0.3762 1.2756 0.1362, -0.3684 1.2756 0.1147, -0.4095 1.2756 0.136, -0.4173 1.2756 0.1147, -0.4175 1.2756 0.114, -0.3795 1.2756 0.1452, -0.4064 1.2756 0.1451, -0.3945 1.2756 0.1784, -0.3933 1.2756 0.184, -0.3939 1.2756 0.1806, -0.3931 1.2756 0.184, -0.3917 1.2756 0.1784, -0.3924 1.2756 0.1808, -0.3924 1.2756 0.1808
            ]
        }
        coordIndex [
            0,1,2,-1,3,4,5,-1,1,6,2,-1,2,6,7,-1,2,7,8,-1,8,7,9,-1,8,9,10,-1,10,11,8,-1,8,11,12,-1,8,12,13,-1,14,13,15,-1,15,13,12,-1,15,12,5,-1,5,12,0,-1,5,0,3,-1,3,0,2,-1,16,8,17,-1,17,8,13,-1,17,13,18,-1,2,8,19,-1,19,8,16,-1,2,19,3,-1,3,19,20,-1,3,20,21,-1,4,3,22,-1,22,3,21,-1,23,5,24,-1,24,5,4,-1,24,4,22,-1,15,5,25,-1,25,5,23,-1,15,25,14,-1,14,25,26,-1,14,26,27,-1,13,14,18,-1,18,14,27,-1,0,12,28,-1,28,12,29,-1,12,11,29,-1,29,11,30,-1,9,31,32,-1,9,32,10,-1,10,32,30,-1,10,30,11,-1,9,7,31,-1,31,7,33,-1,1,34,35,-1,1,35,6,-1,6,35,33,-1,6,33,7,-1,1,0,34,-1,34,0,28,-1,
        ]
    }
}
Shape{
    appearance Appearance {
        material  Material 	{
            diffuseColor 0.14901960784313725 0.14901960784313725 0.14901960784313725
            specularColor 0.07450980392156863 0.07450980392156863 0.07450980392156863
            ambientIntensity 0.2
            transparency 0
            shininess 0.5
        }
    }
    geometry IndexedFaceSet {
        ccw TRUE
        solid FALSE
        coord DEF co Coordinate {
            point [
                -0.3933 1.2756 0.184, -0.3931 1.2756 0.184, -0.3939 1.2756 0.1806, -0.3924 1.2756 0.1808, -0.3945 1.2756 0.1784, -0.3917 1.2756 0.1784, -0.4064 1.2756 0.1451, -0.3795 1.2756 0.1452, -0.3795 1.2756 0.1452
            ]
        }
        coordIndex [
            0,1,2,-1,2,1,3,-1,2,3,4,-1,4,3,5,-1,4,5,6,-1,6,5,7,-1,
        ]
    }
}
Shape{
    appearance Appearance {
        material  Material 	{
            diffuseColor 1.0 1.0 1.0
            specularColor 0.5019607843137255 0.5019607843137255 0.5019607843137255
            ambientIntensity 0.2
            transparency 0
            shininess 0.5
        }
    }
    geometry IndexedFaceSet {
        ccw TRUE
        solid FALSE
        coord DEF co Coordinate {
            point [
                0.3464 1.276 0.1082, 0.3381 1.276 0.0977, 0.3511 1.276 0.1585, 0.1608 1.276 0.185, 0.1782 1.276 0.2153, 0.2548 1.276 0.176, 0.2935 1.276 0.1593, 0.2882 1.276 0.1573, 0.3597 1.276 0.2579, 0.3469 1.276 0.2644, 0.3505 1.276 0.2991, 0.3148 1.276 0.3005, 0.2975 1.276 0.2589, 0.2886 1.276 0.2769, 0.3279 1.276 0.3018, 0.2836 1.276 0.1542, 0.28 1.276 0.1501, 0.2408 1.276 0.1435, 0.3038 1.276 0.1591, 0.3107 1.276 0.1942, 0.3088 1.276 0.1572, 0.3234 1.276 0.1895, 0.3132 1.276 0.1541, 0.3351 1.276 0.1815, 0.3155 1.276 0.1517, 0.3446 1.276 0.1709, 0.3185 1.276 0.147, 0.3202 1.276 0.1417, 0.3205 1.276 0.1361, 0.2767 1.276 0.1917, 0.2905 1.276 0.1952, 0.2974 1.276 0.1957, 0.1416 1.276 0.2412, 0.1371 1.276 0.2412, 0.1135 1.276 0.2718, 0.1258 1.276 0.2397, 0.1109 1.276 0.2709, 0.1159 1.276 0.2357, 0.094 1.276 0.2624, 0.0786 1.276 0.2493, 0.3031 1.276 0.3141, 0.2757 1.276 0.292, 0.2896 1.276 0.3254, 0.2605 1.276 0.303, 0.2757 1.276 0.3339, 0.3631 1.276 0.1658, 0.3593 1.276 0.1226, 0.352 1.276 0.1203, 0.3328 1.276 0.2674, 0.3276 1.276 0.2676, 0.3214 1.276 0.3014, 0.3147 1.276 0.266, 0.3019 1.276 0.2613, 0.2776 1.276 0.1454, 0.2763 1.276 0.1401, 0.2409 1.276 0.1378, 0.2763 1.276 0.1349, 0.2411 1.276 0.1326, 0.2982 1.276 0.1598, 0.2647 1.276 0.1851, 0.1072 1.276 0.2294, 0.1019 1.276 0.2234, 0.0671 1.276 0.233, 0.0964 1.276 0.2138, 0.0602 1.276 0.2156, 0.0934 1.276 0.2029, 0.0577 1.276 0.1968, 0.093 1.276 0.1965, 0.0604 1.276 0.1766, 0.0946 1.276 0.1849, 0.0677 1.276 0.1587, 0.0987 1.276 0.1749, 0.0791 1.276 0.1429, 0.1049 1.276 0.1663, 0.0946 1.276 0.1299, 0.1134 1.276 0.1592, 0.1121 1.276 0.1215, 0.1234 1.276 0.1545, 0.1311 1.276 0.1176, 0.1343 1.276 0.1524, 0.1647 1.276 0.1179, 0.1599 1.276 0.1526, 0.1679 1.276 0.1184, 0.1439 1.276 0.317, 0.1667 1.276 0.2913, 0.1254 1.276 0.2953, 0.1539 1.276 0.2759, 0.1451 1.276 0.2575, 0.3716 1.276 0.2911, 0.3898 1.276 0.2785, 0.3704 1.276 0.2486, 0.3936 1.276 0.2749, 0.3783 1.276 0.2372, 0.4075 1.276 0.2574, 0.3832 1.276 0.2245, 0.3195 1.276 0.1308, 0.3173 1.276 0.126, 0.1628 1.276 0.1531, 0.1767 1.276 0.1239, 0.1753 1.276 0.1226, 0.2494 1.276 0.3439, 0.2419 1.276 0.3104, 0.2211 1.276 0.3471, 0.2208 1.276 0.313, 0.1977 1.276 0.3445, 0.2014 1.276 0.3104, 0.1692 1.276 0.3342, 0.1836 1.276 0.3034, 0.1677 1.276 0.2922, 0.4167 1.276 0.2369, 0.4206 1.276 0.2155, 0.3849 1.276 0.2111, 0.4208 1.276 0.2102, 0.3844 1.276 0.2027, 0.4182 1.276 0.1877, 0.3805 1.276 0.1887, 0.4101 1.276 0.1665, 0.3733 1.276 0.1763, 0.3973 1.276 0.148, 0.3797 1.276 0.1328, 0.2444 1.276 0.1185, 0.2777 1.276 0.1294, 0.251 1.276 0.1058, 0.2804 1.276 0.1246, 0.2605 1.276 0.0952, 0.2835 1.276 0.1211, 0.272 1.276 0.0875, 0.2879 1.276 0.118, 0.2847 1.276 0.0828, 0.2928 1.276 0.1161, 0.2982 1.276 0.0812, 0.2985 1.276 0.1154, 0.3005 1.276 0.0813, 0.2995 1.276 0.1154, 0.3139 1.276 0.0835, 0.3046 1.276 0.1163, 0.327 1.276 0.0892, 0.3097 1.276 0.1186, 0.314 1.276 0.1219, 0.1611 1.276 0.1527, 0.1717 1.276 0.1199, 0.1811 1.276 0.1356, 0.1806 1.276 0.1314, 0.1791 1.276 0.1275, 0.1677 1.276 0.1526, 0.1717 1.276 0.1511, 0.1809 1.276 0.1379, 0.1752 1.276 0.1487, 0.1775 1.276 0.1461, 0.1798 1.276 0.1422, 0.1633 1.276 0.1532, 0.0577 1.2756 0.1968, 0.0602 1.2756 0.2156, 0.0736 1.2756 0.2422, 0.0617 1.2756 0.2193, 0.0671 1.2756 0.233, 0.0786 1.2756 0.2493, 0.094 1.2756 0.2624, 0.1109 1.2756 0.2709, 0.1135 1.2756 0.2718, 0.1254 1.2756 0.2953, 0.1439 1.2756 0.317, 0.1536 1.2756 0.3236, 0.1692 1.2756 0.3342, 0.1977 1.2756 0.3445, 0.2211 1.2756 0.3471, 0.2494 1.2756 0.3439, 0.2757 1.2756 0.3339, 0.2896 1.2756 0.3254, 0.3148 1.2756 0.3005, 0.2918 1.2756 0.3236, 0.3031 1.2756 0.3141, 0.3214 1.2756 0.3014, 0.3279 1.2756 0.3018, 0.3505 1.2756 0.2991, 0.3716 1.2756 0.2911, 0.3898 1.2756 0.2785, 0.3936 1.2756 0.2749, 0.4208 1.2756 0.2102, 0.4075 1.2756 0.2574, 0.4143 1.2756 0.2422, 0.4167 1.2756 0.2369, 0.4199 1.2756 0.2193, 0.4206 1.2756 0.2155, 0.4182 1.2756 0.1877, 0.4101 1.2756 0.1665, 0.3973 1.2756 0.148, 0.3797 1.2756 0.1328, 0.3593 1.2756 0.1226, 0.352 1.2756 0.1203, 0.3494 1.2756 0.1147, 0.341 1.2756 0.1014, 0.3464 1.2756 0.1082, 0.3381 1.2756 0.0977, 0.327 1.2756 0.0892, 0.3139 1.2756 0.0835, 0.3005 1.2756 0.0813, 0.2982 1.2756 0.0812, 0.2847 1.2756 0.0828, 0.2464 1.2756 0.1147, 0.272 1.2756 0.0875, 0.2605 1.2756 0.0952, 0.255 1.2756 0.1014, 0.251 1.2756 0.1058, 0.2444 1.2756 0.1185, 0.2411 1.2756 0.1326, 0.2409 1.2756 0.1378, 0.2408 1.2756 0.1435, 0.1608 1.2756 0.185, 0.1782 1.2756 0.2153, 0.2548 1.2756 0.176, 0.2647 1.2756 0.1851, 0.2767 1.2756 0.1917, 0.2905 1.2756 0.1952, 0.2974 1.2756 0.1957, 0.3107 1.2756 0.1942, 0.3234 1.2756 0.1895, 0.3351 1.2756 0.1815, 0.3446 1.2756 0.1709, 0.3511 1.2756 0.1585, 0.3631 1.2756 0.1658, 0.3733 1.2756 0.1763, 0.3805 1.2756 0.1887, 0.3844 1.2756 0.2027, 0.3849 1.2756 0.2111, 0.3839 1.2756 0.2193, 0.3832 1.2756 0.2245, 0.3783 1.2756 0.2372, 0.3748 1.2756 0.2422, 0.3704 1.2756 0.2486, 0.3597 1.2756 0.2579, 0.3469 1.2756 0.2644, 0.3328 1.2756 0.2674, 0.3276 1.2756 0.2676, 0.3147 1.2756 0.266, 0.3019 1.2756 0.2613, 0.2975 1.2756 0.2589, 0.2886 1.2756 0.2769, 0.2757 1.2756 0.292, 0.2605 1.2756 0.303, 0.2419 1.2756 0.3104, 0.2208 1.2756 0.313, 0.2014 1.2756 0.3104, 0.1836 1.2756 0.3034, 0.1677 1.2756 0.2922, 0.1667 1.2756 0.2913, 0.1539 1.2756 0.2759, 0.1451 1.2756 0.2575, 0.1418 1.2756 0.2422, 0.1416 1.2756 0.2412, 0.1371 1.2756 0.2412, 0.1258 1.2756 0.2397, 0.1159 1.2756 0.2357, 0.1072 1.2756 0.2294, 0.1019 1.2756 0.2234, 0.0995 1.2756 0.2193, 0.0964 1.2756 0.2138, 0.0934 1.2756 0.2029, 0.093 1.2756 0.1965, 0.0946 1.2756 0.1849, 0.0987 1.2756 0.1749, 0.1049 1.2756 0.1663, 0.1134 1.2756 0.1592, 0.1234 1.2756 0.1545, 0.1343 1.2756 0.1524, 0.1599 1.2756 0.1526, 0.1611 1.2756 0.1527, 0.1628 1.2756 0.1531, 0.1633 1.2756 0.1532, 0.1677 1.2756 0.1526, 0.1717 1.2756 0.1511, 0.1752 1.2756 0.1487, 0.1775 1.2756 0.1461, 0.1798 1.2756 0.1422, 0.1809 1.2756 0.1379, 0.1811 1.2756 0.1356, 0.1806 1.2756 0.1314, 0.1791 1.2756 0.1275, 0.1767 1.2756 0.1239, 0.1753 1.2756 0.1226, 0.1717 1.2756 0.1199, 0.1679 1.2756 0.1184, 0.1647 1.2756 0.1179, 0.1311 1.2756 0.1176, 0.1121 1.2756 0.1215, 0.0946 1.2756 0.1299, 0.0791 1.2756 0.1429, 0.0677 1.2756 0.1587, 0.0604 1.2756 0.1766, 0.2982 1.2756 0.1598, 0.2935 1.2756 0.1593, 0.2882 1.2756 0.1573, 0.2836 1.2756 0.1542, 0.28 1.2756 0.1501, 0.2776 1.2756 0.1454, 0.2763 1.2756 0.1401, 0.2763 1.2756 0.1349, 0.2777 1.2756 0.1294, 0.2804 1.2756 0.1246, 0.2835 1.2756 0.1211, 0.2879 1.2756 0.118, 0.2928 1.2756 0.1161, 0.2985 1.2756 0.1154, 0.2995 1.2756 0.1154, 0.3046 1.2756 0.1163, 0.3097 1.2756 0.1186, 0.314 1.2756 0.1219, 0.3173 1.2756 0.126, 0.3195 1.2756 0.1308, 0.3205 1.2756 0.1361, 0.3202 1.2756 0.1417, 0.3185 1.2756 0.147, 0.3155 1.2756 0.1517, 0.3132 1.2756 0.1541, 0.3088 1.2756 0.1572, 0.3038 1.2756 0.1591, 0.3038 1.2756 0.1591
            ]
        }
        coordIndex [
            0,1,2,-1,3,4,5,-1,6,7,3,-1,8,9,10,-1,11,12,13,-1,10,9,14,-1,7,15,3,-1,3,15,16,-1,3,16,17,-1,18,19,20,-1,20,19,21,-1,20,21,22,-1,22,21,23,-1,22,23,24,-1,24,23,25,-1,24,25,26,-1,26,25,2,-1,26,2,27,-1,27,2,28,-1,29,30,18,-1,18,30,31,-1,18,31,19,-1,32,33,34,-1,34,33,35,-1,34,35,36,-1,36,35,37,-1,36,37,38,-1,38,37,39,-1,11,13,40,-1,40,13,41,-1,40,41,42,-1,42,41,43,-1,42,43,44,-1,45,46,2,-1,2,46,47,-1,2,47,0,-1,9,48,14,-1,14,48,49,-1,14,49,50,-1,50,49,51,-1,50,51,11,-1,11,51,52,-1,11,52,12,-1,16,53,17,-1,17,53,54,-1,17,54,55,-1,55,54,56,-1,55,56,57,-1,6,3,58,-1,58,3,5,-1,58,5,18,-1,18,5,59,-1,18,59,29,-1,37,60,39,-1,39,60,61,-1,39,61,62,-1,62,61,63,-1,62,63,64,-1,64,63,65,-1,64,65,66,-1,66,65,67,-1,66,67,68,-1,68,67,69,-1,68,69,70,-1,70,69,71,-1,70,71,72,-1,72,71,73,-1,72,73,74,-1,74,73,75,-1,74,75,76,-1,76,75,77,-1,76,77,78,-1,78,77,79,-1,78,79,80,-1,80,79,81,-1,80,81,82,-1,83,84,85,-1,85,84,86,-1,85,86,34,-1,34,86,87,-1,34,87,32,-1,10,88,8,-1,8,88,89,-1,8,89,90,-1,90,89,91,-1,90,91,92,-1,92,91,93,-1,92,93,94,-1,28,2,95,-1,95,2,1,-1,95,1,96,-1,97,98,99,-1,44,43,100,-1,100,43,101,-1,100,101,102,-1,102,101,103,-1,102,103,104,-1,104,103,105,-1,104,105,106,-1,106,105,107,-1,106,107,83,-1,83,107,108,-1,83,108,84,-1,93,109,94,-1,94,109,110,-1,94,110,111,-1,111,110,112,-1,111,112,113,-1,113,112,114,-1,113,114,115,-1,115,114,116,-1,115,116,117,-1,117,116,118,-1,117,118,45,-1,45,118,119,-1,45,119,46,-1,57,56,120,-1,120,56,121,-1,120,121,122,-1,122,121,123,-1,122,123,124,-1,124,123,125,-1,124,125,126,-1,126,125,127,-1,126,127,128,-1,128,127,129,-1,128,129,130,-1,130,129,131,-1,130,131,132,-1,132,131,133,-1,132,133,134,-1,134,133,135,-1,134,135,136,-1,136,135,137,-1,136,137,1,-1,1,137,138,-1,1,138,96,-1,81,139,82,-1,82,139,97,-1,82,97,140,-1,140,97,99,-1,141,142,97,-1,97,142,143,-1,97,143,98,-1,144,145,146,-1,145,147,146,-1,146,147,148,-1,146,148,149,-1,141,97,146,-1,146,97,150,-1,146,150,144,-1,66,151,152,-1,153,39,62,-1,66,152,64,-1,64,152,154,-1,64,154,62,-1,62,154,155,-1,62,155,153,-1,153,156,39,-1,39,156,157,-1,39,157,38,-1,38,157,158,-1,38,158,36,-1,36,158,159,-1,36,159,34,-1,34,159,160,-1,34,160,85,-1,85,160,161,-1,85,161,83,-1,83,161,162,-1,83,162,106,-1,162,163,106,-1,106,163,164,-1,106,164,104,-1,104,164,165,-1,104,165,102,-1,102,165,166,-1,102,166,100,-1,100,166,167,-1,100,167,44,-1,44,167,168,-1,44,168,42,-1,169,11,40,-1,42,168,170,-1,42,170,40,-1,40,170,171,-1,40,171,169,-1,11,169,172,-1,11,172,50,-1,50,172,173,-1,50,173,14,-1,14,173,174,-1,14,174,10,-1,10,174,175,-1,10,175,88,-1,88,175,176,-1,88,176,89,-1,89,176,177,-1,89,177,91,-1,178,112,110,-1,91,177,179,-1,91,179,93,-1,93,179,180,-1,93,180,109,-1,180,181,109,-1,109,181,182,-1,109,182,110,-1,110,182,183,-1,110,183,178,-1,112,178,184,-1,112,184,114,-1,114,184,185,-1,114,185,116,-1,116,185,186,-1,116,186,118,-1,118,186,187,-1,118,187,119,-1,119,187,188,-1,119,188,46,-1,46,188,189,-1,46,189,47,-1,47,189,190,-1,191,1,0,-1,47,190,0,-1,0,190,192,-1,0,192,191,-1,191,193,1,-1,1,193,194,-1,1,194,136,-1,136,194,195,-1,136,195,134,-1,134,195,196,-1,134,196,132,-1,132,196,197,-1,132,197,130,-1,130,197,198,-1,199,120,122,-1,130,198,128,-1,128,198,200,-1,128,200,126,-1,126,200,201,-1,126,201,124,-1,124,201,202,-1,124,202,122,-1,122,202,203,-1,122,203,199,-1,199,204,120,-1,120,204,205,-1,120,205,57,-1,57,205,206,-1,57,206,55,-1,17,55,207,-1,207,55,206,-1,3,17,208,-1,208,17,207,-1,4,3,209,-1,209,3,208,-1,5,4,210,-1,210,4,209,-1,5,210,211,-1,5,211,59,-1,59,211,212,-1,59,212,29,-1,29,212,213,-1,29,213,30,-1,30,213,214,-1,30,214,31,-1,31,214,215,-1,31,215,19,-1,19,215,216,-1,19,216,21,-1,21,216,217,-1,21,217,23,-1,23,217,218,-1,23,218,25,-1,25,218,219,-1,25,219,2,-1,2,219,220,-1,2,220,45,-1,45,220,221,-1,45,221,117,-1,117,221,222,-1,117,222,115,-1,115,222,223,-1,115,223,113,-1,113,223,224,-1,113,224,111,-1,94,111,225,-1,225,111,224,-1,225,226,94,-1,94,226,227,-1,94,227,92,-1,92,227,228,-1,92,228,90,-1,228,229,90,-1,90,229,230,-1,90,230,8,-1,8,230,231,-1,8,231,9,-1,9,231,232,-1,9,232,48,-1,48,232,233,-1,48,233,49,-1,49,233,234,-1,49,234,51,-1,51,234,235,-1,51,235,52,-1,52,235,236,-1,52,236,12,-1,12,236,237,-1,12,237,13,-1,13,237,238,-1,13,238,41,-1,41,238,239,-1,41,239,43,-1,43,239,240,-1,43,240,101,-1,101,240,241,-1,101,241,103,-1,103,241,242,-1,103,242,105,-1,105,242,243,-1,105,243,107,-1,107,243,244,-1,107,244,108,-1,108,244,245,-1,108,245,84,-1,84,245,246,-1,84,246,86,-1,86,246,247,-1,86,247,87,-1,87,247,32,-1,32,247,248,-1,32,248,249,-1,33,32,250,-1,250,32,249,-1,33,250,251,-1,33,251,35,-1,35,251,252,-1,35,252,37,-1,37,252,253,-1,37,253,60,-1,60,253,254,-1,60,254,61,-1,61,254,255,-1,61,255,63,-1,255,256,63,-1,63,256,257,-1,63,257,65,-1,65,257,258,-1,65,258,67,-1,67,258,259,-1,67,259,69,-1,69,259,260,-1,69,260,71,-1,71,260,261,-1,71,261,73,-1,73,261,262,-1,73,262,75,-1,75,262,263,-1,75,263,77,-1,77,263,264,-1,77,264,79,-1,81,79,265,-1,265,79,264,-1,81,265,266,-1,81,266,139,-1,139,266,267,-1,139,267,97,-1,97,267,268,-1,97,268,150,-1,150,268,269,-1,150,269,144,-1,144,269,270,-1,144,270,145,-1,145,270,271,-1,145,271,147,-1,147,271,272,-1,147,272,148,-1,148,272,273,-1,148,273,149,-1,149,273,274,-1,149,274,146,-1,146,274,275,-1,146,275,141,-1,141,275,276,-1,141,276,142,-1,142,276,277,-1,142,277,143,-1,143,277,278,-1,143,278,98,-1,98,278,279,-1,98,279,99,-1,99,279,280,-1,99,280,140,-1,140,280,281,-1,140,281,82,-1,82,281,282,-1,82,282,80,-1,78,80,283,-1,283,80,282,-1,78,283,284,-1,78,284,76,-1,76,284,285,-1,76,285,74,-1,74,285,286,-1,74,286,72,-1,72,286,287,-1,72,287,70,-1,70,287,288,-1,70,288,68,-1,68,288,151,-1,68,151,66,-1,58,289,290,-1,58,290,6,-1,6,290,291,-1,6,291,7,-1,7,291,292,-1,7,292,15,-1,15,292,293,-1,15,293,16,-1,16,293,294,-1,16,294,53,-1,53,294,295,-1,53,295,54,-1,54,295,296,-1,54,296,56,-1,56,296,297,-1,56,297,121,-1,121,297,298,-1,121,298,123,-1,123,298,299,-1,123,299,125,-1,125,299,300,-1,125,300,127,-1,127,300,301,-1,127,301,129,-1,129,301,302,-1,129,302,131,-1,131,302,303,-1,131,303,133,-1,133,303,304,-1,133,304,135,-1,135,304,305,-1,135,305,137,-1,137,305,306,-1,137,306,138,-1,138,306,307,-1,138,307,96,-1,96,307,308,-1,96,308,95,-1,95,308,309,-1,95,309,28,-1,28,309,310,-1,28,310,27,-1,27,310,311,-1,27,311,26,-1,26,311,312,-1,26,312,24,-1,24,312,313,-1,24,313,22,-1,22,313,314,-1,22,314,20,-1,20,314,315,-1,20,315,18,-1,18,315,289,-1,18,289,58,-1,
        ]
    }
}
Shape{
    appearance Appearance {
        material  Material 	{
            diffuseColor 0.14901960784313725 0.14901960784313725 0.14901960784313725
            specularColor 0.07450980392156863 0.07450980392156863 0.07450980392156863
            ambientIntensity 0.2
            transparency 0
            shininess 0.5
        }
    }
    geometry IndexedFaceSet {
        ccw TRUE
        solid FALSE
        coord DEF co Coordinate {
            point [
                0.2995 1.2756 0.1154, 0.3132 1.2756 0.1541, 0.3155 1.2756 0.1517, 0.2928 1.2756 0.1161, 0.2879 1.2756 0.118, 0.2935 1.2756 0.1593, 0.2982 1.2756 0.1598, 0.3038 1.2756 0.1591, 0.3088 1.2756 0.1572, 0.3195 1.2756 0.1308, 0.3173 1.2756 0.126, 0.314 1.2756 0.1219, 0.2985 1.2756 0.1154, 0.3185 1.2756 0.147, 0.3202 1.2756 0.1417, 0.3205 1.2756 0.1361, 0.3097 1.2756 0.1186, 0.3046 1.2756 0.1163, 0.2835 1.2756 0.1211, 0.2804 1.2756 0.1246, 0.2777 1.2756 0.1294, 0.2763 1.2756 0.1349, 0.2763 1.2756 0.1401, 0.2776 1.2756 0.1454, 0.28 1.2756 0.1501, 0.2836 1.2756 0.1542, 0.2882 1.2756 0.1573, 0.2882 1.2756 0.1573
            ]
        }
        coordIndex [
            0,1,2,-1,3,4,5,-1,6,7,0,-1,0,7,8,-1,0,8,1,-1,9,10,2,-1,2,10,11,-1,6,0,5,-1,5,0,12,-1,5,12,3,-1,13,14,2,-1,2,14,15,-1,2,15,9,-1,11,16,2,-1,2,16,17,-1,2,17,0,-1,4,18,5,-1,5,18,19,-1,5,19,20,-1,20,21,5,-1,5,21,22,-1,5,22,23,-1,23,24,5,-1,5,24,25,-1,5,25,26,-1,
        ]
    }
}