#VRML V2.0 utf8
# 3D model generated by easyeda2kicad.py (https://github.com/uPesy/easyeda2kicad.py)

Shape{
    appearance Appearance {
        material  Material 	{
            diffuseColor 0.8117647058823529 0.8117647058823529 0.8117647058823529
            specularColor 0.7529411764705882 0.7529411764705882 0.7529411764705882
            ambientIntensity 0.2
            transparency 0
            shininess 0.5
        }
    }
    geometry IndexedFaceSet {
        ccw TRUE
        solid FALSE
        coord DEF co Coordinate {
            point [
                -1.132 0.5937 0.9843, 1.1348 0.5757 0.9843, -1.1348 0.5757 0.9843, 1.1722 0.5383 0.9843, 1.1902 0.5355 0.9843, 1.6732 0.3887 0.9843, 1.6762 0.413 0.9843, 1.6848 0.4002 0.9843, 1.6589 0.5212 0.9843, 1.6244 0.5355 0.9843, 1.6431 0.5318 0.9843, 1.6732 0.4866 0.9843, 1.6695 0.5053 0.9843, 1.6732 0.428 0.9843, 1.132 0.5937 0.9843, 1.1431 0.5595 0.9843, -1.132 0.6786 0.9843, -1.128 0.6936 0.9843, -1.102 0.7087 0.9843, -1.117 0.7046 0.9843, 1.128 0.6936 0.9843, 1.102 0.7087 0.9843, 1.117 0.7046 0.9843, 1.132 0.6786 0.9843, -1.1431 0.5595 0.9843, -1.6695 0.5053 0.9843, -1.6244 0.5355 0.9843, -1.6732 0.4866 0.9843, 1.156 0.5466 0.9843, -1.156 0.5466 0.9843, -1.1722 -0.5383 0.9843, -1.1902 -0.5355 0.9843, -1.6732 -0.3887 0.9843, -1.1722 0.5383 0.9843, -1.6762 0.413 0.9843, -1.6732 0.3887 0.9843, -1.6848 0.4002 0.9843, -1.6732 0.428 0.9843, -1.1902 0.5355 0.9843, -1.6431 0.5318 0.9843, -1.6589 0.5212 0.9843, -1.6975 0.3917 0.9843, -1.7126 0.3887 0.9843, -1.6244 -0.5355 0.9843, -1.6732 -0.4866 0.9843, -1.6732 -0.428 0.9843, -1.6762 -0.413 0.9843, -1.6848 -0.4002 0.9843, -1.6975 -0.3917 0.9843, -1.7126 -0.3887 0.9843, -1.6431 -0.5318 0.9843, -1.6589 -0.5212 0.9843, -1.6695 -0.5053 0.9843, 1.156 -0.5466 0.9843, -1.156 -0.5466 0.9843, 1.128 -0.6936 0.9843, 1.117 -0.7046 0.9843, 1.102 -0.7087 0.9843, 1.132 -0.6786 0.9843, -1.132 -0.5937 0.9843, -1.1348 -0.5757 0.9843, 1.132 -0.5937 0.9843, 1.1348 -0.5757 0.9843, -1.117 -0.7046 0.9843, -1.128 -0.6936 0.9843, -1.102 -0.7087 0.9843, -1.132 -0.6786 0.9843, -1.1431 -0.5595 0.9843, 1.1722 -0.5383 0.9843, 1.1902 -0.5355 0.9843, 1.6732 -0.3887 0.9843, 1.6762 -0.413 0.9843, 1.1431 -0.5595 0.9843, 1.6975 -0.3917 0.9843, 1.6848 -0.4002 0.9843, 1.6431 -0.5318 0.9843, 1.6244 -0.5355 0.9843, 1.6589 -0.5212 0.9843, 1.6695 -0.5053 0.9843, 1.6732 -0.4866 0.9843, 1.6732 -0.428 0.9843, 1.7126 0.3887 0.9843, 1.6975 0.3917 0.9843, 1.7126 -0.3887 0.9843, 1.6732 0.1296 0.9646, 1.6732 -0.1296 0.9646, 1.6732 0.3887 0.9646, 1.6732 -0.3887 0.9646, 1.752 0.3887 1.0039, 1.7414 0.3887 1.0433, 1.7493 0.3887 1.0243, 1.752 0.3887 0.6561, 1.6732 0.3887 0.7589, 1.7289 0.3887 1.0596, 1.6732 0.3887 0.6561, 1.7126 0.3887 1.0721, 1.6732 0.3887 0.8617, 1.6849 0.4 1.0818, 1.6977 0.3916 1.0788, 1.6763 0.4127 1.0826, 1.6732 0.428 1.0827, 1.6732 -0.4866 1.0827, 1.6732 -0.428 1.0827, 1.6732 0.4866 1.0827, 1.7126 -0.3887 1.0721, 1.6977 -0.3916 1.0788, 1.6849 -0.4 1.0818, 1.6763 -0.4127 1.0826, 1.6732 -0.1427 1.0827, 1.6732 0.1427 1.0827, 1.7289 -0.3887 1.0596, 1.7493 -0.3887 1.0243, 1.7414 -0.3887 1.0433, 1.752 -0.3887 1.0039, 0.9835 -0.0452 1.0827, 1.0056 -0.0452 1.0827, 0.9448 0.0281 1.0827, 1.0387 -0.0339 1.0827, 0.9779 0.062 1.0827, 1.0276 -0.0395 1.0827, 0.9338 0.0112 1.0827, 0.9338 -0.0057 1.0827, 0.9393 -0.017 1.0827, 0.9503 -0.0282 1.0827, 0.9669 -0.0395 1.0827, 1.0056 0.1691 1.0827, 1.0166 0.1409 1.0827, 1.0166 0.1522 1.0827, 1.0056 0.124 1.0827, 0.9945 0.1748 1.0827, 0.9835 0.1748 1.0827, 0.9724 0.1184 1.0827, 0.9724 0.1691 1.0827, 0.9614 0.1409 1.0827, 0.9669 0.1635 1.0827, 0.9614 0.1522 1.0827, 0.9835 0.1015 1.0827, -1.6244 0.5355 1.0827, -1.6431 0.5318 1.0827, -1.6589 0.5212 1.0827, 1.6695 0.5053 1.0827, 1.6589 0.5212 1.0827, 1.6244 0.5355 1.0827, 1.1902 0.5355 1.0827, 1.6431 0.5318 1.0827, 1.1325 0.1973 1.0827, 1.1657 0.1973 1.0827, 0.9945 0.1973 1.0827, 1.1722 0.5383 1.0827, 0.9835 0.1973 1.0827, 0.9393 0.1353 1.0827, 0.9393 0.1522 1.0827, 0.8675 0.1297 1.0827, -1.128 0.6936 1.0827, -1.102 0.7087 1.0827, -1.117 0.7046 1.0827, -1.132 0.6786 1.0827, 0.7129 0.1917 1.0827, -1.132 0.5937 1.0827, -1.1348 0.5757 1.0827, 0.6908 0.1804 1.0827, -1.1431 0.5595 1.0827, 1.128 0.6936 1.0827, 1.117 0.7046 1.0827, 1.102 0.7087 1.0827, 1.132 0.5937 1.0827, 1.132 0.6786 1.0827, 0.9338 0.0507 1.0827, 0.8344 0.1297 1.0827, -1.6695 0.5053 1.0827, -1.6732 0.4866 1.0827, 0.6522 0.1071 1.0827, 0.6577 0.1353 1.0827, -1.1722 0.5383 1.0827, 0.9669 0.0845 1.0827, 0.9586 0.0986 1.0827, 0.9505 0.1128 1.0827, 0.8289 0.1466 1.0827, 0.7405 0.1635 1.0827, 0.7019 0.1466 1.0827, 0.8344 -0.0 1.0827, 0.8675 -0.0 1.0827, 0.9172 0.0281 1.0827, -1.6732 0.2568 1.0827, -1.6732 0.0856 1.0827, 0.7129 -0.0621 1.0827, 1.1431 -0.5595 1.0827, 1.156 -0.5466 1.0827, -1.1902 0.5355 1.0827, -1.6732 0.428 1.0827, 1.0608 -0.0677 1.0827, 1.0276 -0.0621 1.0827, 1.0056 -0.0677 1.0827, 0.9172 -0.017 1.0827, 0.862 -0.0282 1.0827, 0.9282 -0.0339 1.0827, -1.6732 -0.0856 1.0827, -1.6732 -0.2568 1.0827, -1.1722 -0.5383 1.0827, -1.1902 -0.5355 1.0827, -1.6732 -0.428 1.0827, -1.6431 -0.5318 1.0827, -1.6244 -0.5355 1.0827, -1.6589 -0.5212 1.0827, -1.6732 -0.4866 1.0827, -1.6695 -0.5053 1.0827, 1.102 -0.7087 1.0827, 1.128 -0.6936 1.0827, 1.132 -0.6786 1.0827, 1.1902 -0.5355 1.0827, 1.0884 -0.0677 1.0827, -1.1348 -0.5757 1.0827, -1.132 -0.5937 1.0827, 1.132 -0.5937 1.0827, -1.1431 -0.5595 1.0827, 1.1348 -0.5757 1.0827, -1.117 -0.7046 1.0827, -1.102 -0.7087 1.0827, -1.128 -0.6936 1.0827, -1.132 -0.6786 1.0827, 1.117 -0.7046 1.0827, 1.1657 -0.0677 1.0827, 0.989 -0.0677 1.0827, 0.9669 -0.0621 1.0827, 0.8178 -0.0621 1.0827, 1.1325 -0.0677 1.0827, 1.2872 -0.0677 1.0827, 1.3313 -0.0677 1.0827, 1.6244 -0.5355 1.0827, 1.6589 -0.5212 1.0827, 1.6695 -0.5053 1.0827, 1.6431 -0.5318 1.0827, 1.2319 0.0902 1.0827, 0.9448 -0.0508 1.0827, 0.8399 -0.0508 1.0827, 1.1657 0.0225 1.0827, 1.2043 0.062 1.0827, 1.1348 0.5757 1.0827, 1.2872 0.1973 1.0827, 1.1657 0.0676 1.0827, 1.3313 0.1973 1.0827, 1.0387 0.1353 1.0827, 1.0387 0.1522 1.0827, 1.1722 -0.5383 1.0827, 0.9447 0.124 1.0827, 0.6687 -0.0282 1.0827, 0.6577 -0.0057 1.0827, 0.6522 0.0225 1.0827, 0.6687 0.1578 1.0827, -1.156 0.5466 1.0827, 1.1431 0.5595 1.0827, 0.7902 0.1635 1.0827, 0.7405 0.1973 1.0827, 1.0111 0.1917 1.0827, 1.0221 0.186 1.0827, 1.0332 0.1691 1.0827, 1.0884 0.0451 1.0827, 1.0276 0.1127 1.0827, 0.9945 0.0789 1.0827, 1.0552 -0.017 1.0827, 1.0608 -0.0057 1.0827, 1.0663 0.0112 1.0827, 1.0663 0.0451 1.0827, 1.0884 0.0112 1.0827, 1.0773 -0.017 1.0827, 1.0663 -0.0339 1.0827, 1.0497 -0.0508 1.0827, 0.7902 -0.0677 1.0827, 0.7405 -0.0677 1.0827, 0.6853 0.0225 1.0827, 0.6908 -0.0508 1.0827, 0.8399 0.1804 1.0827, 0.862 0.1578 1.0827, 0.9448 0.1691 1.0827, 0.9117 0.0112 1.0827, -1.156 -0.5466 1.0827, 0.9117 -0.0 1.0827, 0.6853 0.1071 1.0827, 0.7184 -0.0282 1.0827, 0.7405 -0.0339 1.0827, 0.7019 -0.017 1.0827, 0.7902 -0.0339 1.0827, 0.8289 -0.017 1.0827, 0.8123 -0.0282 1.0827, 0.8178 0.1917 1.0827, 0.9559 0.186 1.0827, 0.9669 0.1917 1.0827, 0.8123 0.1578 1.0827, 1.156 0.5466 1.0827, 0.7902 0.1973 1.0827, 0.7184 0.1578 1.0827, 0.6908 0.1297 1.0827, 0.6908 -0.0 1.0827, 0.8344 -0.0 1.0787, 0.8675 -0.0 1.0787, 0.862 -0.0282 1.0787, 0.8399 -0.0508 1.0787, 0.8178 -0.0621 1.0787, 0.7902 -0.0677 1.0787, 0.7405 -0.0677 1.0787, 0.7129 -0.0621 1.0787, 0.6908 -0.0508 1.0787, 0.6687 -0.0282 1.0787, 0.6577 -0.0057 1.0787, 0.6522 0.0225 1.0787, 0.6522 0.1071 1.0787, 0.6577 0.1353 1.0787, 0.6687 0.1578 1.0787, 0.6908 0.1804 1.0787, 0.7129 0.1917 1.0787, 0.7405 0.1973 1.0787, 0.7902 0.1973 1.0787, 0.8178 0.1917 1.0787, 0.8399 0.1804 1.0787, 0.862 0.1578 1.0787, 0.8675 0.1297 1.0787, 0.8344 0.1297 1.0787, 0.8289 0.1466 1.0787, 0.8123 0.1578 1.0787, 0.7902 0.1635 1.0787, 0.7405 0.1635 1.0787, 0.7184 0.1578 1.0787, 0.7019 0.1466 1.0787, 0.6908 0.1297 1.0787, 0.6853 0.1071 1.0787, 0.6853 0.0225 1.0787, 0.6908 -0.0 1.0787, 0.7019 -0.017 1.0787, 0.7184 -0.0282 1.0787, 0.7405 -0.0339 1.0787, 0.7902 -0.0339 1.0787, 0.8123 -0.0282 1.0787, 0.8289 -0.017 1.0787, 1.0056 0.1691 1.0787, 1.0166 0.1522 1.0787, 1.0221 0.186 1.0787, 0.9669 -0.0621 1.0787, 0.9835 -0.0452 1.0787, 0.9669 -0.0395 1.0787, 0.9505 0.1128 1.0787, 0.9614 0.1409 1.0787, 0.9447 0.124 1.0787, 0.9282 -0.0339 1.0787, 0.9338 -0.0057 1.0787, 0.9172 -0.017 1.0787, 0.9117 -0.0 1.0787, 0.9393 -0.017 1.0787, 0.9503 -0.0282 1.0787, 0.9448 -0.0508 1.0787, 0.989 -0.0677 1.0787, 1.0056 -0.0452 1.0787, 1.0056 -0.0677 1.0787, 1.0276 -0.0621 1.0787, 1.0497 -0.0508 1.0787, 1.0387 -0.0339 1.0787, 1.0608 -0.0057 1.0787, 1.0773 -0.017 1.0787, 1.0663 0.0112 1.0787, 1.0608 -0.0677 1.0787, 1.0884 -0.0677 1.0787, 1.0663 -0.0339 1.0787, 1.0884 0.0112 1.0787, 1.0884 0.0451 1.0787, 1.0663 0.0451 1.0787, 1.0276 -0.0395 1.0787, 1.0552 -0.017 1.0787, 1.0332 0.1691 1.0787, 1.0387 0.1522 1.0787, 1.0111 0.1917 1.0787, 0.9945 0.1748 1.0787, 0.9835 0.1973 1.0787, 0.9835 0.1748 1.0787, 0.9586 0.0986 1.0787, 0.9669 0.0845 1.0787, 0.9724 0.1184 1.0787, 0.9393 0.1353 1.0787, 1.0387 0.1353 1.0787, 1.0166 0.1409 1.0787, 1.0276 0.1127 1.0787, 0.9393 0.1522 1.0787, 0.9835 0.1015 1.0787, 0.9779 0.062 1.0787, 1.0056 0.124 1.0787, 0.9945 0.0789 1.0787, 0.9448 0.0281 1.0787, 0.9338 0.0507 1.0787, 0.9338 0.0112 1.0787, 0.9669 0.1635 1.0787, 0.9669 0.1917 1.0787, 0.9559 0.186 1.0787, 0.9614 0.1522 1.0787, 0.9448 0.1691 1.0787, 0.9724 0.1691 1.0787, 0.9945 0.1973 1.0787, 0.9117 0.0112 1.0787, 0.9172 0.0281 1.0787, 1.2319 0.0902 1.0787, 1.2872 0.1973 1.0787, 1.1657 0.0676 1.0787, 1.2043 0.062 1.0787, 1.1657 0.0225 1.0787, 1.1325 -0.0677 1.0787, 1.2872 -0.0677 1.0787, 1.3313 -0.0677 1.0787, 1.3313 0.1973 1.0787, 1.1657 0.1973 1.0787, 1.1325 0.1973 1.0787, 1.1657 -0.0677 1.0787, -1.6849 -0.4 1.0818, -1.6977 -0.3916 1.0788, -1.7126 -0.3887 1.0721, -1.6763 -0.4127 1.0826, -1.752 -0.3887 0.6561, -1.6732 -0.3887 0.6561, -1.6732 -0.3887 0.7589, -1.7414 -0.3887 1.0433, -1.752 -0.3887 1.0039, -1.7493 -0.3887 1.0243, -1.6732 -0.3887 0.8617, -1.6732 -0.3887 0.9646, -1.7289 -0.3887 1.0596, -1.6732 0.2332 0.9646, -1.6732 0.0777 0.9646, -1.6732 0.3887 0.9646, -1.6732 -0.0777 0.9646, -1.6732 -0.2332 0.9646, -1.752 0.3887 0.6561, -1.752 0.3887 1.0039, -1.6732 0.3887 0.8617, -1.7493 0.3887 1.0243, -1.7414 0.3887 1.0433, -1.6732 0.3887 0.7589, -1.6732 0.3887 0.6561, -1.7289 0.3887 1.0596, -1.7126 0.3887 1.0721, -1.6977 0.3916 1.0788, -1.6849 0.4 1.0818, -1.6763 0.4127 1.0826, -1.752 0.6526 0.5773, -1.752 0.6132 0.6167, -1.752 0.6496 0.5924, -1.752 0.428 0.6167, -1.752 0.1913 0.3862, -1.752 0.413 0.6197, -1.752 0.2123 0.3675, -1.752 0.6526 0.3497, -1.752 0.2658 0.3104, -1.752 -0.3917 0.641, -1.752 0.3917 0.641, -1.752 -0.6132 0.6167, -1.752 -0.6526 0.5773, -1.752 -0.6496 0.5924, -1.752 0.2308 0.3316, -1.752 0.4002 0.6282, -1.752 0.1773 0.3887, -1.752 0.6132 0.3104, -1.752 0.6411 0.3219, -1.752 0.6283 0.3134, -1.752 0.6411 0.6052, -1.752 0.6283 0.6137, -1.752 0.6496 0.3347, -1.752 0.2518 0.3129, -1.752 0.2396 0.3204, -1.752 -0.6526 0.3497, -1.752 -0.6132 0.3104, -1.752 -0.6496 0.3347, -1.752 -0.1773 0.3887, -1.752 -0.1913 0.3862, -1.752 -0.413 0.6197, -1.752 -0.4002 0.6282, -1.752 0.2035 0.3787, -1.752 -0.428 0.6167, -1.752 -0.6411 0.3219, -1.752 -0.2035 0.3787, -1.752 -0.2518 0.3129, -1.752 -0.2658 0.3104, -1.752 -0.2396 0.3204, -1.752 -0.2308 0.3316, -1.752 -0.2123 0.3675, -1.752 -0.6283 0.3134, -1.752 -0.6283 0.6137, -1.752 -0.6411 0.6052, -1.6732 -0.6411 0.6052, -1.6732 -0.6526 0.5773, -1.6732 -0.6496 0.5924, -1.6732 -0.6132 0.6167, -1.6732 -0.6283 0.6137, -1.6732 -0.6526 0.3497, -1.6732 -0.2658 0.3104, -1.6732 -0.6132 0.3104, -1.6732 -0.6411 0.3219, -1.6732 -0.6283 0.3134, -1.6732 -0.6496 0.3347, -1.6732 -0.2518 0.3129, -1.6732 -0.2308 0.3316, -1.6732 -0.2396 0.3204, -1.6732 -0.2123 0.3675, -1.6732 -0.1913 0.3862, -1.6732 -0.1773 0.3887, -1.6732 -0.2035 0.3787, -1.6732 0.1773 0.3887, -1.6732 0.2035 0.3787, -1.6732 0.2123 0.3675, -1.6732 0.1913 0.3862, -1.6732 0.2308 0.3316, -1.6732 0.2396 0.3204, -1.6732 0.2658 0.3104, -1.6732 0.2518 0.3129, -1.6732 0.6132 0.3104, -1.6732 0.6411 0.3219, -1.6732 0.6526 0.3497, -1.6732 0.6496 0.3347, -1.6732 0.6283 0.3134, -1.6732 0.6526 0.5773, -1.6732 0.6411 0.6052, -1.6732 0.6132 0.6167, -1.6732 0.6283 0.6137, -1.6732 0.6496 0.5924, -1.6732 0.428 0.6167, -1.6732 0.3917 0.641, -1.6732 0.4002 0.6282, -1.6732 0.413 0.6197, -1.6732 -0.428 0.6167, -1.6732 -0.413 0.6197, -1.6732 -0.4002 0.6282, -1.6732 -0.3917 0.641, 1.752 -0.6526 0.3497, 1.752 -0.6526 0.5773, 1.6732 -0.6526 0.5773, 1.6732 -0.6526 0.3497, 1.6732 -0.6411 0.6052, 1.752 -0.6411 0.6052, 1.752 -0.6283 0.6137, 1.752 -0.6132 0.6167, 1.6732 -0.6283 0.6137, 1.6732 -0.6132 0.6167, 1.6732 -0.6496 0.5924, 1.752 -0.6496 0.5924, 1.752 0.413 0.6197, 1.752 0.1913 0.3862, 1.752 0.428 0.6167, 1.752 -0.2123 0.3675, 1.752 -0.2658 0.3104, 1.752 -0.6411 0.3219, 1.752 -0.6283 0.3134, 1.752 -0.6132 0.3104, 1.752 0.2123 0.3675, 1.752 0.2658 0.3104, 1.752 0.6526 0.3497, 1.752 -0.3917 0.641, 1.752 -0.3887 0.6561, 1.752 0.3917 0.641, 1.752 0.6132 0.6167, 1.752 0.6526 0.5773, 1.752 0.6496 0.5924, 1.752 0.2308 0.3316, 1.752 0.4002 0.6282, 1.752 0.1773 0.3887, 1.752 0.6132 0.3104, 1.752 0.6283 0.3134, 1.752 0.6411 0.3219, 1.752 0.6411 0.6052, 1.752 0.6283 0.6137, 1.752 0.6496 0.3347, 1.752 0.2396 0.3204, 1.752 0.2518 0.3129, 1.752 -0.6496 0.3347, 1.752 -0.4002 0.6282, 1.752 -0.1773 0.3887, 1.752 0.2035 0.3787, 1.752 -0.413 0.6197, 1.752 -0.1913 0.3862, 1.752 -0.428 0.6167, 1.752 -0.2035 0.3787, 1.752 -0.2518 0.3129, 1.752 -0.2396 0.3204, 1.752 -0.2308 0.3316, 1.6732 -0.428 0.6167, 1.6732 -0.3887 0.6561, 1.6732 -0.413 0.6197, 1.6732 -0.3917 0.641, 1.6732 -0.4002 0.6282, 1.6732 -0.3887 0.7589, 1.6732 -0.3887 0.8617, 1.6732 0.428 0.6167, 1.6732 0.3917 0.641, 1.6732 0.413 0.6197, 1.6732 0.4002 0.6282, 1.6732 0.6132 0.6167, 1.6732 0.6411 0.6052, 1.6732 0.6496 0.5924, 1.6732 0.6526 0.5773, 1.6732 0.6283 0.6137, 1.6732 0.6526 0.3497, 1.6732 0.6411 0.3219, 1.6732 0.6283 0.3134, 1.6732 0.6132 0.3104, 1.6732 0.6496 0.3347, 1.6732 0.2658 0.3104, 1.6732 0.2396 0.3204, 1.6732 0.2518 0.3129, 1.6732 0.2308 0.3316, 1.6732 0.2123 0.3675, 1.6732 0.1773 0.3887, 1.6732 0.2035 0.3787, 1.6732 0.1913 0.3862, 1.6732 -0.1773 0.3887, 1.6732 -0.2123 0.3675, 1.6732 -0.1913 0.3862, 1.6732 -0.2035 0.3787, 1.6732 -0.2308 0.3316, 1.6732 -0.2518 0.3129, 1.6732 -0.2396 0.3204, 1.6732 -0.2658 0.3104, 1.6732 -0.6132 0.3104, 1.6732 -0.6411 0.3219, 1.6732 -0.6496 0.3347, 1.6732 -0.6283 0.3134, -1.1024 0.7137 0.1378, -1.1024 0.7087 0.1378, -1.0236 0.7087 0.1378, -0.9449 0.7087 0.1378, -0.8661 0.7137 0.1378, -0.8661 0.7087 0.1378, -1.1024 0.6463 -0.3014, -1.1024 0.6969 -0.315, -1.1024 0.6707 -0.3115, -1.1024 0.7137 -0.1753, -1.1024 0.671 0.1378, -1.1024 0.6253 -0.2853, -1.1024 0.7353 -0.1969, -1.1024 0.599 -0.2399, -1.1024 0.6092 -0.2643, -1.1024 1.4764 -0.1969, -1.1024 1.4764 -0.315, -1.1024 0.7245 -0.194, -1.1024 0.7166 -0.1861, -1.1024 0.5956 -0.2136, -1.1024 0.6333 0.1378, -1.1024 0.5956 0.1378, 0.8661 0.6463 -0.3014, 0.8661 0.6969 -0.315, 0.8661 0.6707 -0.3115, 0.8661 0.7087 0.1378, 0.8661 0.7137 -0.1753, 0.8661 0.671 0.1378, 0.8661 0.6253 -0.2853, 0.8661 0.7353 -0.1969, 0.8661 0.599 -0.2399, 0.8661 0.6092 -0.2643, 0.8661 1.4764 -0.1969, 0.8661 1.4764 -0.315, 0.8661 0.7245 -0.194, 0.8661 0.7166 -0.1861, 0.8661 0.5956 -0.2136, 0.8661 0.7137 0.1378, 0.8661 0.6333 0.1378, 0.8661 0.5956 0.1378, 1.1024 0.5956 0.1378, 1.1024 0.5956 -0.2136, 1.1024 0.6969 -0.315, 1.1024 0.7353 -0.1969, 1.1024 0.6253 -0.2853, 1.1024 0.6463 -0.3014, 1.1024 0.6707 -0.3115, 1.1024 0.6092 -0.2643, 1.1024 0.599 -0.2399, 1.1024 1.4764 -0.315, 1.1024 1.4764 -0.1969, 1.1024 0.7245 -0.194, 1.1024 0.7166 -0.1861, 1.1024 0.7137 -0.1753, 1.1024 0.7137 0.1378, 1.1024 0.7087 0.1378, 1.1024 0.6333 0.1378, 1.1024 0.671 0.1378, 0.9134 0.7087 0.1378, 1.0551 0.7087 0.1378, 0.9606 0.7087 0.1378, 1.0079 0.7087 0.1378, -0.1181 0.6463 -0.3014, -0.1181 0.6969 -0.315, -0.1181 0.6707 -0.3115, -0.1181 0.7087 0.1378, -0.1181 0.7137 -0.1753, -0.1181 0.671 0.1378, -0.1181 0.6253 -0.2853, -0.1181 0.7353 -0.1969, -0.1181 0.599 -0.2399, -0.1181 0.6092 -0.2643, -0.1181 1.4764 -0.1969, -0.1181 1.4764 -0.315, -0.1181 0.7245 -0.194, -0.1181 0.7166 -0.1861, -0.1181 0.5956 -0.2136, -0.1181 0.7137 0.1378, -0.1181 0.6333 0.1378, -0.1181 0.5956 0.1378, 0.1181 0.5956 0.1378, 0.1181 0.5956 -0.2136, 0.1181 0.6969 -0.315, 0.1181 0.7353 -0.1969, 0.1181 0.6253 -0.2853, 0.1181 0.6463 -0.3014, 0.1181 0.6707 -0.3115, 0.1181 0.6092 -0.2643, 0.1181 0.599 -0.2399, 0.1181 1.4764 -0.315, 0.1181 1.4764 -0.1969, 0.1181 0.7245 -0.194, 0.1181 0.7166 -0.1861, 0.1181 0.7137 -0.1753, 0.1181 0.7137 0.1378, 0.1181 0.7087 0.1378, 0.1181 0.6333 0.1378, 0.1181 0.671 0.1378, -0.0709 0.7087 0.1378, 0.0709 0.7087 0.1378, -0.0236 0.7087 0.1378, 0.0236 0.7087 0.1378, -0.8661 0.6969 -0.315, -0.8661 0.7353 -0.1969, -0.8661 0.6253 -0.2853, -0.8661 0.6463 -0.3014, -0.8661 0.6707 -0.3115, -0.8661 0.6092 -0.2643, -0.8661 0.599 -0.2399, -0.8661 1.4764 -0.315, -0.8661 1.4764 -0.1969, -0.8661 0.7245 -0.194, -0.8661 0.7166 -0.1861, -0.8661 0.5956 -0.2136, -0.8661 0.7137 -0.1753, -0.8661 0.5956 0.1378, -0.8661 0.6333 0.1378, -0.8661 0.671 0.1378, -0.8661 0.671 0.1378
            ]
        }
        coordIndex [
            0,1,2,-1,3,4,5,-1,5,4,6,-1,6,7,5,-1,8,9,10,-1,9,11,4,-1,9,12,11,-1,8,12,9,-1,11,13,4,-1,4,13,6,-1,1,0,14,-1,2,1,15,-1,16,17,18,-1,18,17,19,-1,20,21,22,-1,18,0,16,-1,14,18,21,-1,23,14,21,-1,23,21,20,-1,14,0,18,-1,2,15,24,-1,25,26,27,-1,24,15,28,-1,24,28,29,-1,28,3,29,-1,30,31,32,-1,3,33,29,-1,34,35,36,-1,34,37,38,-1,39,26,40,-1,40,26,25,-1,38,27,26,-1,37,27,38,-1,35,41,36,-1,33,35,38,-1,38,35,34,-1,35,42,41,-1,32,35,30,-1,43,44,31,-1,35,33,30,-1,45,46,31,-1,47,32,46,-1,32,47,48,-1,32,48,49,-1,43,50,51,-1,52,43,51,-1,43,52,44,-1,46,32,31,-1,45,31,44,-1,53,54,30,-1,55,56,57,-1,55,57,58,-1,59,60,61,-1,57,61,58,-1,62,61,60,-1,57,59,61,-1,63,64,65,-1,64,66,65,-1,59,65,66,-1,65,59,57,-1,67,62,60,-1,33,3,68,-1,69,70,71,-1,72,67,54,-1,72,62,67,-1,68,53,30,-1,53,72,54,-1,68,30,33,-1,70,73,74,-1,69,68,70,-1,75,76,77,-1,78,76,79,-1,78,77,76,-1,79,76,69,-1,74,71,70,-1,69,71,80,-1,69,80,79,-1,81,5,82,-1,70,83,73,-1,3,70,68,-1,5,7,82,-1,3,5,70,-1,84,85,5,-1,84,5,86,-1,85,70,5,-1,85,87,70,-1,88,89,90,-1,88,81,89,-1,81,91,92,-1,89,81,93,-1,92,91,94,-1,93,81,95,-1,86,81,96,-1,81,86,5,-1,92,96,81,-1,88,91,81,-1,82,7,97,-1,82,98,81,-1,98,82,97,-1,81,98,95,-1,99,97,7,-1,6,100,99,-1,99,7,6,-1,6,13,100,-1,101,79,80,-1,101,80,102,-1,100,11,103,-1,11,100,13,-1,83,104,105,-1,106,73,105,-1,83,105,73,-1,106,74,73,-1,74,106,107,-1,102,71,107,-1,74,107,71,-1,102,80,71,-1,105,98,97,-1,108,102,107,-1,109,107,99,-1,109,108,107,-1,104,110,95,-1,99,106,97,-1,89,111,90,-1,110,112,93,-1,88,90,113,-1,111,113,90,-1,112,111,89,-1,93,95,110,-1,89,93,112,-1,95,98,104,-1,105,97,106,-1,104,98,105,-1,106,99,107,-1,109,99,100,-1,114,115,116,-1,117,118,119,-1,120,121,122,-1,122,116,120,-1,122,123,116,-1,123,124,116,-1,115,118,116,-1,124,114,116,-1,119,118,115,-1,125,126,127,-1,125,128,126,-1,125,129,128,-1,130,128,129,-1,131,130,132,-1,133,132,134,-1,133,134,135,-1,132,133,131,-1,128,130,131,-1,128,131,136,-1,137,138,139,-1,140,141,142,-1,103,142,143,-1,141,144,142,-1,103,140,142,-1,143,145,146,-1,103,143,100,-1,147,148,149,-1,150,151,152,-1,153,154,155,-1,154,153,156,-1,157,158,159,-1,160,159,161,-1,162,163,164,-1,154,156,158,-1,165,164,154,-1,166,164,165,-1,166,162,164,-1,165,154,158,-1,167,152,168,-1,169,170,137,-1,171,172,173,-1,167,174,175,-1,175,176,152,-1,177,178,179,-1,180,181,182,-1,173,183,184,-1,185,186,187,-1,173,188,183,-1,169,137,139,-1,188,137,170,-1,189,188,170,-1,183,188,189,-1,190,191,192,-1,193,194,195,-1,196,197,198,-1,198,197,199,-1,200,199,197,-1,201,202,203,-1,204,205,202,-1,202,205,203,-1,204,202,199,-1,206,207,208,-1,199,200,204,-1,190,209,210,-1,211,212,213,-1,186,214,215,-1,212,206,213,-1,208,213,206,-1,216,217,218,-1,218,217,219,-1,212,219,217,-1,217,206,212,-1,207,206,220,-1,102,221,209,-1,215,211,213,-1,215,214,211,-1,209,192,222,-1,222,223,224,-1,221,225,209,-1,102,226,221,-1,108,227,226,-1,209,228,101,-1,228,229,230,-1,228,231,229,-1,230,101,228,-1,101,102,209,-1,232,227,109,-1,233,195,234,-1,225,210,209,-1,235,226,236,-1,237,165,157,-1,238,146,239,-1,146,238,143,-1,143,238,100,-1,109,100,240,-1,100,238,240,-1,109,240,232,-1,227,108,109,-1,235,221,226,-1,108,226,102,-1,241,145,242,-1,222,243,209,-1,152,244,150,-1,196,245,246,-1,247,196,246,-1,248,249,173,-1,247,171,184,-1,250,237,157,-1,177,251,178,-1,148,147,143,-1,250,157,252,-1,145,143,147,-1,145,147,253,-1,145,253,254,-1,145,254,255,-1,145,255,242,-1,256,257,258,-1,258,259,260,-1,260,261,258,-1,261,262,258,-1,256,241,257,-1,262,256,258,-1,225,145,256,-1,241,256,145,-1,225,256,263,-1,225,263,264,-1,264,265,225,-1,192,209,190,-1,225,265,210,-1,233,234,223,-1,266,191,190,-1,222,224,267,-1,224,223,234,-1,243,268,187,-1,187,268,185,-1,181,194,193,-1,185,214,186,-1,269,182,167,-1,245,198,270,-1,152,167,175,-1,271,272,273,-1,182,181,274,-1,275,185,270,-1,276,274,181,-1,193,276,181,-1,194,234,195,-1,269,167,277,-1,243,222,267,-1,278,279,280,-1,268,243,267,-1,280,279,281,-1,185,275,214,-1,282,281,283,-1,270,198,275,-1,245,196,198,-1,247,184,196,-1,284,285,286,-1,184,171,173,-1,284,286,149,-1,248,173,172,-1,160,249,248,-1,177,287,251,-1,160,161,249,-1,157,165,158,-1,160,157,159,-1,252,288,250,-1,148,288,289,-1,252,289,288,-1,149,148,289,-1,149,289,284,-1,285,271,273,-1,284,271,285,-1,272,151,273,-1,272,152,151,-1,178,290,179,-1,244,152,176,-1,177,179,168,-1,168,179,291,-1,167,168,277,-1,291,277,168,-1,269,180,182,-1,180,269,292,-1,180,292,280,-1,282,280,281,-1,280,282,180,-1,181,180,293,-1,293,294,181,-1,194,181,294,-1,294,295,194,-1,234,194,295,-1,295,296,234,-1,224,234,296,-1,296,297,224,-1,267,224,297,-1,297,298,267,-1,268,267,298,-1,298,299,268,-1,185,268,299,-1,299,300,185,-1,270,185,300,-1,300,301,270,-1,245,270,301,-1,301,302,245,-1,246,245,302,-1,302,303,246,-1,247,246,303,-1,303,304,247,-1,171,247,304,-1,304,305,171,-1,172,171,305,-1,305,306,172,-1,248,172,306,-1,306,307,248,-1,160,248,307,-1,307,308,160,-1,157,160,308,-1,308,309,157,-1,252,157,309,-1,309,310,252,-1,289,252,310,-1,310,311,289,-1,284,289,311,-1,311,312,284,-1,271,284,312,-1,312,313,271,-1,272,271,313,-1,313,314,272,-1,152,272,314,-1,314,315,152,-1,168,152,315,-1,315,316,168,-1,177,168,316,-1,316,317,177,-1,287,177,317,-1,317,318,287,-1,251,287,318,-1,318,319,251,-1,178,251,319,-1,319,320,178,-1,290,178,320,-1,320,321,290,-1,179,290,321,-1,321,322,179,-1,291,179,322,-1,322,323,291,-1,277,291,323,-1,323,324,277,-1,269,277,324,-1,324,325,269,-1,292,269,325,-1,325,326,292,-1,280,292,326,-1,326,327,280,-1,278,280,327,-1,327,328,278,-1,279,278,328,-1,328,329,279,-1,281,279,329,-1,329,330,281,-1,283,281,330,-1,330,331,283,-1,282,283,331,-1,331,332,282,-1,180,282,332,-1,332,293,180,-1,322,307,323,-1,315,314,316,-1,300,329,328,-1,330,297,331,-1,331,296,332,-1,298,329,299,-1,327,301,328,-1,326,302,327,-1,303,302,326,-1,326,325,303,-1,323,306,324,-1,325,305,304,-1,321,308,322,-1,309,308,321,-1,320,309,321,-1,311,310,319,-1,318,312,319,-1,317,313,318,-1,316,314,317,-1,332,295,293,-1,314,313,317,-1,313,312,318,-1,312,311,319,-1,310,320,319,-1,310,309,320,-1,322,308,307,-1,307,306,323,-1,306,305,324,-1,324,305,325,-1,304,303,325,-1,327,302,301,-1,328,301,300,-1,300,299,329,-1,298,330,329,-1,298,297,330,-1,297,296,331,-1,296,295,332,-1,295,294,293,-1,333,334,335,-1,336,337,338,-1,339,340,341,-1,342,343,344,-1,343,345,344,-1,346,342,347,-1,348,338,347,-1,337,349,350,-1,351,352,350,-1,352,353,354,-1,355,356,357,-1,358,359,360,-1,360,353,358,-1,361,357,356,-1,361,362,363,-1,363,357,361,-1,364,350,352,-1,365,360,355,-1,356,355,360,-1,353,360,365,-1,353,365,354,-1,366,334,367,-1,335,334,366,-1,368,369,333,-1,333,335,368,-1,369,370,371,-1,372,373,374,-1,375,341,340,-1,374,340,339,-1,376,377,378,-1,379,375,340,-1,380,373,381,-1,378,382,383,-1,384,385,386,-1,387,388,389,-1,380,374,373,-1,372,374,339,-1,379,390,391,-1,340,390,379,-1,391,387,389,-1,390,387,391,-1,392,371,388,-1,387,392,388,-1,371,370,388,-1,369,393,370,-1,393,369,368,-1,377,367,334,-1,367,377,376,-1,382,378,377,-1,383,382,380,-1,381,354,383,-1,373,384,381,-1,351,350,349,-1,349,337,336,-1,336,338,348,-1,394,386,395,-1,348,347,342,-1,346,343,342,-1,345,386,394,-1,343,386,345,-1,395,386,385,-1,385,384,373,-1,381,383,380,-1,383,354,365,-1,352,354,364,-1,396,397,398,-1,399,398,400,-1,398,401,400,-1,402,403,396,-1,402,396,399,-1,396,404,397,-1,405,406,398,-1,398,399,396,-1,406,401,398,-1,400,401,407,-1,174,167,385,-1,385,373,174,-1,372,175,373,-1,175,372,176,-1,373,175,174,-1,372,339,176,-1,341,244,339,-1,244,341,150,-1,339,244,176,-1,341,375,150,-1,151,150,375,-1,375,379,151,-1,273,151,379,-1,379,391,273,-1,285,273,391,-1,391,389,285,-1,286,285,389,-1,389,388,286,-1,149,286,388,-1,388,370,149,-1,147,149,370,-1,370,393,147,-1,253,147,393,-1,393,368,253,-1,254,253,368,-1,368,335,254,-1,255,254,335,-1,335,366,255,-1,242,255,366,-1,366,367,242,-1,241,242,367,-1,367,376,241,-1,257,241,376,-1,376,378,257,-1,258,257,378,-1,378,383,258,-1,259,258,383,-1,383,365,259,-1,260,259,365,-1,365,355,260,-1,261,260,355,-1,355,357,261,-1,262,261,357,-1,357,363,262,-1,256,262,363,-1,363,362,256,-1,263,256,362,-1,362,361,263,-1,264,263,361,-1,361,356,264,-1,265,264,356,-1,356,360,265,-1,210,265,360,-1,360,359,210,-1,190,210,359,-1,359,358,190,-1,266,190,358,-1,358,353,266,-1,191,266,353,-1,353,352,191,-1,192,191,352,-1,352,351,192,-1,222,192,351,-1,351,349,222,-1,223,222,349,-1,349,336,223,-1,233,223,336,-1,336,348,233,-1,195,233,348,-1,348,342,195,-1,193,195,342,-1,342,344,193,-1,276,193,344,-1,344,345,276,-1,274,276,345,-1,345,394,274,-1,182,274,394,-1,394,395,182,-1,167,182,395,-1,395,385,167,-1,119,115,350,-1,350,364,119,-1,117,119,364,-1,364,354,117,-1,118,117,354,-1,354,381,118,-1,116,118,381,-1,381,384,116,-1,120,116,384,-1,384,386,120,-1,121,120,386,-1,386,343,121,-1,122,121,343,-1,343,346,122,-1,123,122,346,-1,346,347,123,-1,124,123,347,-1,347,338,124,-1,114,124,338,-1,338,337,114,-1,115,114,337,-1,337,350,115,-1,136,131,374,-1,374,380,136,-1,128,136,380,-1,380,382,128,-1,126,128,382,-1,382,377,126,-1,127,126,377,-1,377,334,127,-1,125,127,334,-1,334,333,125,-1,129,125,333,-1,333,369,129,-1,130,129,369,-1,369,371,130,-1,132,130,371,-1,371,392,132,-1,134,132,392,-1,392,387,134,-1,135,134,387,-1,387,390,135,-1,133,135,390,-1,390,340,133,-1,131,133,340,-1,340,374,131,-1,221,235,400,-1,400,407,221,-1,225,221,407,-1,407,401,225,-1,145,225,401,-1,401,406,145,-1,146,145,406,-1,406,405,146,-1,239,146,405,-1,405,398,239,-1,238,239,398,-1,398,397,238,-1,240,238,397,-1,397,404,240,-1,232,240,404,-1,404,396,232,-1,227,232,396,-1,396,403,227,-1,226,227,403,-1,403,402,226,-1,236,226,402,-1,402,399,236,-1,235,236,399,-1,399,400,235,-1,78,229,77,-1,78,79,230,-1,230,229,78,-1,79,101,230,-1,231,77,229,-1,75,231,228,-1,231,75,77,-1,75,228,76,-1,76,228,209,-1,76,209,69,-1,186,62,72,-1,61,215,213,-1,68,209,243,-1,243,187,53,-1,53,187,72,-1,68,69,209,-1,68,243,53,-1,186,215,62,-1,187,186,72,-1,61,62,215,-1,61,213,208,-1,61,208,58,-1,55,207,220,-1,58,207,55,-1,58,208,207,-1,55,220,56,-1,220,206,56,-1,56,206,57,-1,57,206,217,-1,57,217,65,-1,63,216,218,-1,65,216,63,-1,65,217,216,-1,63,218,64,-1,218,219,64,-1,64,219,66,-1,66,219,212,-1,66,212,59,-1,275,30,54,-1,31,198,199,-1,60,212,211,-1,211,214,67,-1,67,214,54,-1,60,59,212,-1,60,211,67,-1,275,198,30,-1,214,275,54,-1,31,30,198,-1,31,199,202,-1,31,202,43,-1,50,203,51,-1,50,43,201,-1,201,203,50,-1,43,202,201,-1,205,51,203,-1,52,205,204,-1,205,52,51,-1,52,204,44,-1,200,44,204,-1,44,200,45,-1,170,27,37,-1,170,37,189,-1,48,47,408,-1,48,409,49,-1,409,48,408,-1,49,409,410,-1,411,408,47,-1,46,200,411,-1,411,47,46,-1,46,45,200,-1,412,413,414,-1,49,415,416,-1,415,417,416,-1,49,416,412,-1,49,414,418,-1,418,419,49,-1,49,410,420,-1,419,32,49,-1,49,420,415,-1,414,49,412,-1,421,35,422,-1,421,423,35,-1,35,32,424,-1,424,422,35,-1,424,32,425,-1,425,32,419,-1,426,427,42,-1,42,423,428,-1,427,429,430,-1,423,42,35,-1,428,431,42,-1,432,426,431,-1,426,42,431,-1,430,42,427,-1,42,433,434,-1,430,433,42,-1,42,434,435,-1,436,41,435,-1,42,435,41,-1,436,36,41,-1,36,436,437,-1,189,34,437,-1,36,437,34,-1,189,37,34,-1,415,430,429,-1,409,434,410,-1,427,417,429,-1,415,429,417,-1,416,417,427,-1,420,430,415,-1,433,420,410,-1,420,433,430,-1,433,410,434,-1,411,197,196,-1,189,437,183,-1,200,197,411,-1,437,184,183,-1,184,437,196,-1,411,437,436,-1,437,411,196,-1,408,411,436,-1,409,408,435,-1,436,435,408,-1,434,409,435,-1,438,439,440,-1,441,442,443,-1,444,445,446,-1,447,412,426,-1,426,448,447,-1,412,416,427,-1,412,427,426,-1,449,450,451,-1,439,438,441,-1,446,452,444,-1,453,443,454,-1,445,455,446,-1,455,456,457,-1,440,439,458,-1,459,458,439,-1,441,438,445,-1,460,456,455,-1,445,460,455,-1,461,462,446,-1,462,452,446,-1,463,464,465,-1,448,466,447,-1,466,467,468,-1,469,447,466,-1,445,444,470,-1,441,445,470,-1,442,441,470,-1,448,454,466,-1,454,443,442,-1,453,454,448,-1,466,468,469,-1,467,471,468,-1,472,465,464,-1,467,473,471,-1,474,475,476,-1,476,475,477,-1,478,477,475,-1,464,463,475,-1,478,475,463,-1,464,479,472,-1,473,463,471,-1,473,478,463,-1,463,450,471,-1,471,450,449,-1,480,449,481,-1,449,451,481,-1,482,481,451,-1,450,483,484,-1,449,480,485,-1,485,480,486,-1,486,481,482,-1,480,481,486,-1,484,451,450,-1,482,451,484,-1,463,487,483,-1,463,483,450,-1,475,488,489,-1,475,489,464,-1,490,472,479,-1,464,489,491,-1,463,465,487,-1,487,465,492,-1,492,472,490,-1,465,472,492,-1,491,479,464,-1,490,479,491,-1,493,474,476,-1,477,494,495,-1,495,493,476,-1,488,475,474,-1,488,474,493,-1,477,495,476,-1,478,496,494,-1,478,494,477,-1,497,473,467,-1,498,497,467,-1,498,467,466,-1,497,499,473,-1,473,499,478,-1,499,496,478,-1,454,500,498,-1,454,498,466,-1,501,442,470,-1,502,501,470,-1,502,470,444,-1,501,503,442,-1,442,503,454,-1,503,500,454,-1,452,502,444,-1,502,452,504,-1,505,462,461,-1,446,506,507,-1,507,505,461,-1,504,452,462,-1,504,462,505,-1,446,507,461,-1,455,508,506,-1,455,506,446,-1,509,456,460,-1,445,510,511,-1,455,457,508,-1,508,457,512,-1,512,456,509,-1,457,456,512,-1,511,460,445,-1,509,460,511,-1,438,513,510,-1,438,510,445,-1,514,458,459,-1,439,515,516,-1,438,440,513,-1,513,440,517,-1,517,458,514,-1,440,458,517,-1,516,459,439,-1,514,459,516,-1,441,518,515,-1,441,515,439,-1,519,520,453,-1,519,448,432,-1,448,519,453,-1,432,448,426,-1,443,453,520,-1,521,441,443,-1,443,520,521,-1,521,518,441,-1,449,522,471,-1,522,449,485,-1,523,524,469,-1,523,468,522,-1,468,523,469,-1,522,468,471,-1,447,469,524,-1,525,412,447,-1,447,524,525,-1,525,413,412,-1,526,527,528,-1,528,529,526,-1,530,531,532,-1,533,534,532,-1,530,532,534,-1,535,534,533,-1,536,531,530,-1,537,536,528,-1,536,537,531,-1,537,528,527,-1,538,539,540,-1,541,526,542,-1,543,544,545,-1,546,547,548,-1,549,91,550,-1,91,549,551,-1,550,88,113,-1,550,91,88,-1,552,553,554,-1,533,532,531,-1,547,546,555,-1,556,557,538,-1,548,547,558,-1,558,559,560,-1,554,561,552,-1,562,552,561,-1,540,553,552,-1,548,553,540,-1,558,560,563,-1,555,564,547,-1,558,563,548,-1,565,547,564,-1,526,566,545,-1,549,567,568,-1,549,568,551,-1,548,569,546,-1,540,569,548,-1,539,569,540,-1,551,568,557,-1,557,539,538,-1,556,551,557,-1,568,567,570,-1,568,570,571,-1,572,573,571,-1,570,572,571,-1,574,575,542,-1,575,576,542,-1,541,542,576,-1,545,542,526,-1,526,541,573,-1,566,543,545,-1,526,572,527,-1,572,526,573,-1,531,537,533,-1,527,533,537,-1,533,527,572,-1,577,533,572,-1,577,535,533,-1,549,550,578,-1,572,570,579,-1,567,580,581,-1,577,572,579,-1,567,581,570,-1,579,570,581,-1,549,578,580,-1,567,549,580,-1,550,582,578,-1,83,112,110,-1,583,582,83,-1,83,582,550,-1,583,83,87,-1,83,550,113,-1,87,83,70,-1,104,83,110,-1,111,112,113,-1,83,113,112,-1,538,540,584,-1,91,551,585,-1,556,586,587,-1,94,91,585,-1,556,587,551,-1,585,551,587,-1,538,584,586,-1,556,538,586,-1,540,552,588,-1,588,584,540,-1,589,561,554,-1,553,590,554,-1,589,554,590,-1,591,590,553,-1,592,561,589,-1,562,592,588,-1,592,562,561,-1,562,588,552,-1,553,548,593,-1,593,591,553,-1,594,560,559,-1,558,595,559,-1,594,559,595,-1,596,595,558,-1,597,560,594,-1,563,597,593,-1,597,563,560,-1,563,593,548,-1,558,547,598,-1,598,596,558,-1,599,600,564,-1,555,601,599,-1,599,564,555,-1,564,600,565,-1,600,598,565,-1,565,598,547,-1,602,555,546,-1,602,601,555,-1,539,557,603,-1,546,604,602,-1,569,605,604,-1,539,605,569,-1,546,569,604,-1,603,605,539,-1,557,568,606,-1,606,603,557,-1,573,541,607,-1,568,608,606,-1,571,609,608,-1,573,609,571,-1,568,571,608,-1,607,609,573,-1,541,576,610,-1,610,607,541,-1,611,612,574,-1,542,613,611,-1,611,574,542,-1,574,612,575,-1,612,610,575,-1,575,610,576,-1,542,545,614,-1,614,613,542,-1,615,543,566,-1,526,616,566,-1,615,566,616,-1,529,616,526,-1,617,543,615,-1,544,617,614,-1,617,544,543,-1,544,614,545,-1,618,619,620,-1,621,622,620,-1,618,620,622,-1,623,622,621,-1,624,625,626,-1,619,627,628,-1,625,629,630,-1,629,625,624,-1,631,630,632,-1,630,629,632,-1,633,634,630,-1,625,630,634,-1,635,630,631,-1,636,635,637,-1,631,637,635,-1,627,619,618,-1,637,627,636,-1,638,628,627,-1,627,637,639,-1,639,638,627,-1,640,641,642,-1,643,644,645,-1,641,646,647,-1,646,641,640,-1,648,647,649,-1,647,646,649,-1,650,651,647,-1,641,647,651,-1,652,647,648,-1,653,652,654,-1,648,654,652,-1,644,643,655,-1,654,644,653,-1,656,645,644,-1,644,654,657,-1,657,656,644,-1,658,654,659,-1,654,658,657,-1,660,661,662,-1,660,662,663,-1,663,664,660,-1,665,661,666,-1,662,661,665,-1,667,668,661,-1,667,661,660,-1,669,666,661,-1,670,659,669,-1,666,669,659,-1,659,670,671,-1,659,671,658,-1,671,672,673,-1,674,671,675,-1,671,673,675,-1,658,671,674,-1,655,643,676,-1,673,672,677,-1,655,678,672,-1,676,678,655,-1,672,679,677,-1,672,678,679,-1,655,672,671,-1,655,671,644,-1,670,652,653,-1,647,669,661,-1,669,652,670,-1,671,653,644,-1,671,670,653,-1,647,652,669,-1,647,661,668,-1,647,668,650,-1,650,668,667,-1,650,667,651,-1,651,667,660,-1,651,660,641,-1,662,646,640,-1,642,663,640,-1,662,640,663,-1,642,641,664,-1,664,663,642,-1,641,660,664,-1,665,646,662,-1,665,666,649,-1,649,646,665,-1,648,666,659,-1,666,648,649,-1,648,659,654,-1,680,681,682,-1,683,684,685,-1,681,686,687,-1,686,681,680,-1,688,687,689,-1,687,686,689,-1,690,691,687,-1,681,687,691,-1,692,687,688,-1,693,692,694,-1,688,694,692,-1,684,683,695,-1,694,684,693,-1,696,685,684,-1,684,694,697,-1,697,696,684,-1,698,694,699,-1,694,698,697,-1,700,701,702,-1,700,702,703,-1,703,704,700,-1,705,701,706,-1,702,701,705,-1,707,708,701,-1,707,701,700,-1,709,706,701,-1,710,699,709,-1,706,709,699,-1,699,710,711,-1,699,711,698,-1,711,712,713,-1,714,711,715,-1,711,713,715,-1,698,711,714,-1,695,683,716,-1,713,712,717,-1,695,718,712,-1,716,718,695,-1,712,719,717,-1,712,718,719,-1,695,712,711,-1,695,711,684,-1,710,692,693,-1,687,709,701,-1,709,692,710,-1,711,693,684,-1,711,710,693,-1,687,692,709,-1,687,701,708,-1,687,708,690,-1,690,708,707,-1,690,707,691,-1,691,707,700,-1,691,700,681,-1,702,686,680,-1,682,703,680,-1,702,680,703,-1,682,681,704,-1,704,703,682,-1,681,700,704,-1,705,686,702,-1,705,706,689,-1,689,686,705,-1,688,706,699,-1,706,688,689,-1,688,699,694,-1,720,721,722,-1,720,722,723,-1,723,724,720,-1,725,721,726,-1,722,721,725,-1,727,728,721,-1,727,721,720,-1,729,726,721,-1,730,731,729,-1,726,729,731,-1,731,730,732,-1,731,732,733,-1,732,622,623,-1,734,732,735,-1,732,623,735,-1,733,732,734,-1,618,622,732,-1,618,732,627,-1,730,635,636,-1,630,729,721,-1,729,635,730,-1,732,636,627,-1,732,730,636,-1,630,635,729,-1,630,721,728,-1,630,728,633,-1,633,728,727,-1,633,727,634,-1,634,727,720,-1,634,720,625,-1,722,629,624,-1,626,723,624,-1,722,624,723,-1,626,625,724,-1,724,723,626,-1,625,720,724,-1,725,629,722,-1,725,726,632,-1,632,629,725,-1,631,726,731,-1,726,631,632,-1,631,731,637,-1,733,637,731,-1,637,733,639,-1,25,139,40,-1,25,27,169,-1,169,139,25,-1,27,170,169,-1,138,40,139,-1,39,138,137,-1,138,39,40,-1,39,137,26,-1,26,137,188,-1,26,188,38,-1,161,2,24,-1,0,159,158,-1,33,188,173,-1,173,249,29,-1,29,249,24,-1,33,38,188,-1,33,173,29,-1,161,159,2,-1,249,161,24,-1,0,2,159,-1,0,158,156,-1,0,156,16,-1,17,153,155,-1,16,153,17,-1,16,156,153,-1,17,155,19,-1,155,154,19,-1,19,154,18,-1,18,154,164,-1,18,164,21,-1,22,163,162,-1,21,163,22,-1,21,164,163,-1,22,162,20,-1,162,166,20,-1,20,166,23,-1,23,166,165,-1,23,165,14,-1,288,3,28,-1,4,148,143,-1,1,165,237,-1,237,250,15,-1,15,250,28,-1,1,14,165,-1,1,237,15,-1,288,148,3,-1,250,288,28,-1,4,3,148,-1,4,143,142,-1,4,142,9,-1,10,141,8,-1,10,9,144,-1,144,141,10,-1,9,142,144,-1,140,8,141,-1,12,140,103,-1,140,12,8,-1,12,103,11,-1,
        ]
    }
}
Shape{
    appearance Appearance {
        material  Material 	{
            diffuseColor 0.2549019607843137 0.2549019607843137 0.2549019607843137
            specularColor 0.7529411764705882 0.7529411764705882 0.7529411764705882
            ambientIntensity 0.2
            transparency 0
            shininess 0.5
        }
    }
    geometry IndexedFaceSet {
        ccw TRUE
        solid FALSE
        coord DEF co Coordinate {
            point [
                -1.6732 0.2123 0.3675, -1.6732 0.1773 0.3887, -1.6732 0.2035 0.3787, -1.6732 0.7087 0.6299, -1.6732 0.6283 0.6137, -1.6732 0.6132 0.6167, -1.6732 0.2308 0.3316, -1.6732 0.1913 0.3862, -1.6732 -0.2308 0.3316, -1.6732 -0.1773 0.3887, -1.6732 -0.2123 0.3675, -1.6732 -0.2035 0.3787, -1.6732 -0.1913 0.3862, -1.6732 -0.4134 0.6299, -1.6732 -0.4002 0.6282, -1.6732 -0.413 0.6197, -1.6732 0.6526 0.5773, -1.6732 0.6496 0.5924, -1.6732 -0.2396 0.3204, -1.6732 0.7087 0.0, -1.6732 0.6132 0.3104, -1.6732 0.6283 0.3134, -1.6732 0.2396 0.3204, -1.6732 -0.2518 0.3129, -1.6732 0.2518 0.3129, -1.6732 0.2658 0.3104, -1.6732 -0.7087 0.0, -1.6732 0.6411 0.3219, -1.6732 0.6496 0.3347, -1.6732 0.6526 0.3497, -1.6732 0.3887 0.8617, -1.6732 0.3887 0.9646, -1.6732 0.4134 0.9646, -1.6732 0.6411 0.6052, -1.6732 0.3887 0.7589, -1.6732 0.4134 0.6299, -1.6732 0.413 0.6197, -1.6732 0.4002 0.6282, -1.6732 0.3887 0.6561, -1.6732 0.3917 0.641, -1.6732 0.428 0.6167, -1.6732 -0.4134 0.9646, -1.6732 -0.3887 0.9646, -1.6732 -0.3887 0.8617, -1.6732 -0.3887 0.7589, -1.6732 -0.2658 0.3104, -1.6732 -0.3887 0.6561, -1.6732 -0.3917 0.641, -1.6732 -0.428 0.6167, -1.6732 -0.6132 0.6167, -1.6732 -0.7087 0.6299, -1.6732 -0.6526 0.3497, -1.6732 -0.6411 0.6052, -1.6732 -0.6283 0.6137, -1.6732 -0.6526 0.5773, -1.6732 -0.6496 0.5924, -1.6732 -0.6411 0.3219, -1.6732 -0.6496 0.3347, -1.6732 -0.6283 0.3134, -1.6732 -0.6132 0.3104, -1.1614 -0.5709 0.9646, -0.689 -0.3937 0.9646, -1.6732 -0.2332 0.9646, 1.6732 0.3887 0.9646, 1.6732 0.4134 0.9646, 1.1614 0.5709 0.9646, -1.1614 0.7087 0.9646, -1.1614 0.5709 0.9646, 0.689 -0.3937 0.9646, 1.6732 0.1296 0.9646, 1.704 0.5709 0.9646, 1.704 0.4134 0.9646, 1.1614 0.7087 0.9646, -0.689 -0.7087 0.9646, -1.704 0.5709 0.9646, -1.704 0.4134 0.9646, -1.6732 0.2332 0.9646, -1.6732 0.0777 0.9646, -1.6732 -0.0777 0.9646, -1.704 -0.4134 0.9646, -1.704 -0.5709 0.9646, -0.0787 -0.3937 0.9646, -0.6693 -0.3937 0.9646, -1.1614 -0.7087 0.9646, -0.6693 -1.4882 0.9646, -0.0787 -1.4882 0.9646, 1.6732 -0.1296 0.9646, 1.1614 -0.5709 0.9646, 0.689 -0.7087 0.9646, 1.1614 -0.7087 0.9646, 1.6732 -0.3887 0.9646, 1.704 -0.5709 0.9646, 1.6732 -0.4134 0.9646, 1.704 -0.4134 0.9646, 1.6732 0.2518 0.3129, 1.6732 -0.2518 0.3129, 1.6732 0.7087 0.0, 1.6732 -0.6283 0.6137, 1.6732 -0.7087 0.6299, 1.6732 -0.6411 0.6052, 1.6732 -0.6526 0.5773, 1.6732 -0.6496 0.5924, 1.6732 -0.7087 0.0, 1.6732 -0.6132 0.3104, 1.6732 -0.6283 0.3134, 1.6732 -0.3887 0.8617, 1.6732 -0.3887 0.7589, 1.6732 -0.1773 0.3887, 1.6732 -0.2123 0.3675, 1.6732 -0.2308 0.3316, 1.6732 -0.413 0.6197, 1.6732 -0.4002 0.6282, 1.6732 -0.4134 0.6299, 1.6732 -0.3887 0.6561, 1.6732 -0.3917 0.641, 1.6732 0.4134 0.6299, 1.6732 0.3917 0.641, 1.6732 0.4002 0.6282, 1.6732 0.2035 0.3787, 1.6732 0.1773 0.3887, 1.6732 0.2123 0.3675, 1.6732 -0.6132 0.6167, 1.6732 -0.428 0.6167, 1.6732 0.3887 0.7589, 1.6732 0.3887 0.6561, 1.6732 0.3887 0.8617, 1.6732 0.428 0.6167, 1.6732 0.413 0.6197, 1.6732 0.2308 0.3316, 1.6732 0.1913 0.3862, 1.6732 0.6132 0.6167, 1.6732 0.7087 0.6299, 1.6732 0.6526 0.3497, 1.6732 0.6411 0.6052, 1.6732 0.6283 0.6137, 1.6732 0.6526 0.5773, 1.6732 0.6496 0.5924, 1.6732 0.6411 0.3219, 1.6732 0.6496 0.3347, 1.6732 0.6283 0.3134, 1.6732 0.6132 0.3104, 1.6732 0.2658 0.3104, 1.6732 -0.1913 0.3862, 1.6732 -0.2035 0.3787, 1.6732 0.2396 0.3204, 1.6732 -0.2396 0.3204, 1.6732 -0.2658 0.3104, 1.6732 -0.6496 0.3347, 1.6732 -0.6411 0.3219, 1.6732 -0.6526 0.3497, 1.7717 0.4134 0.6299, 1.7717 0.4134 0.748, 1.7717 0.7087 0.748, 1.6732 0.7087 1.063, 1.6732 0.5709 1.063, 1.1614 0.5709 1.063, -1.6732 -0.5709 1.063, -1.1614 -0.7087 1.063, -1.1614 -0.5709 1.063, -1.6732 -0.7087 1.063, -1.6732 0.7087 1.063, -1.1614 0.5709 1.063, -1.1614 0.7087 1.063, -1.6732 0.5709 1.063, 1.1614 -0.5709 1.063, 1.1614 -0.7087 1.063, 1.6732 -0.7087 1.063, 1.6732 -0.5709 1.063, 1.1614 0.7087 1.063, -1.7717 -0.7087 0.748, -1.7717 -0.4134 0.748, -0.689 -0.7087 0.6102, 1.7717 -0.7087 0.748, 1.7717 -0.7087 0.6299, -1.7717 -0.7087 0.6299, 0.689 -0.7087 0.6102, -0.689 -0.3937 0.6102, -0.6693 -0.3937 0.6204, -0.0787 -0.3937 0.6204, 0.689 -0.3937 0.6102, -0.6693 -1.4882 0.374, -0.6693 -0.7087 0.6204, -0.6693 -0.8976 0.374, -0.0787 -1.4882 0.374, -0.0787 -0.8976 0.374, -0.0787 -0.7087 0.6204, 1.7717 -0.4134 0.748, 1.7717 -0.4134 0.6299, 0.8563 0.5906 0.0, 0.128 0.7087 0.0, 0.8563 0.7087 0.0, 0.128 0.5906 0.0, 1.5354 0.5906 0.0, 1.1122 0.5906 0.0, 1.1122 0.7087 0.0, -1.5354 -0.5906 0.0, 1.5748 -0.5512 0.0, 1.5748 0.5512 0.0, 1.5633 0.579 0.0, 1.5505 0.5876 0.0, 1.5718 0.5662 0.0, 1.5633 -0.579 -0.0, 1.5718 -0.5662 0.0, 1.5354 -0.5906 0.0, 1.5505 -0.5876 -0.0, -1.5633 -0.579 0.0, -1.5505 -0.5876 -0.0, -1.5718 -0.5662 0.0, -1.5748 -0.5512 0.0, -1.5748 0.5512 0.0, -1.5633 0.579 -0.0, -1.5718 0.5662 0.0, -1.5354 0.5906 0.0, -1.1122 0.7087 0.0, -1.1122 0.5906 0.0, -1.5505 0.5876 -0.0, -0.128 0.5906 0.0, -0.8563 0.7087 0.0, -0.128 0.7087 0.0, -0.8563 0.5906 0.0, 0.128 0.7087 0.1378, 0.128 0.5906 0.1378, -0.8661 0.7087 0.1378, -0.9449 0.7087 0.1378, -1.0236 0.7087 0.1378, -1.1024 0.7087 0.1378, -1.1122 0.7087 0.1378, -1.7717 0.7087 0.6299, -1.7717 0.7087 0.748, 0.1181 0.7087 0.1378, 0.0709 0.7087 0.1378, 1.7717 0.7087 0.6299, 1.1122 0.7087 0.1378, 0.8563 0.7087 0.1378, 1.0551 0.7087 0.1378, 1.1024 0.7087 0.1378, 0.9606 0.7087 0.1378, 1.0079 0.7087 0.1378, -0.0236 0.7087 0.1378, 0.0236 0.7087 0.1378, -0.128 0.7087 0.1378, 0.9134 0.7087 0.1378, 0.8661 0.7087 0.1378, -0.0709 0.7087 0.1378, -0.8563 0.7087 0.1378, -0.1181 0.7087 0.1378, -0.8661 0.671 0.1378, -0.8661 0.6333 0.1378, -0.8661 0.5956 0.1378, -0.8563 0.5906 0.1378, -1.1024 0.5956 0.1378, -1.1122 0.5906 0.1378, -1.1024 0.6333 0.1378, -1.1024 0.671 0.1378, -1.5354 0.5906 -0.1575, -0.128 0.5906 0.1378, 1.1122 0.5906 0.1378, 1.5354 0.5906 -0.1575, 0.8563 0.5906 0.1378, -1.5718 0.5662 -0.1575, -1.5633 0.579 -0.1575, -1.5748 0.5512 -0.1575, -1.5505 0.5876 -0.1575, -1.5699 0.5643 -0.1714, -1.5551 0.5709 -0.1853, -1.5643 0.5587 -0.1832, -1.5485 0.5856 -0.1714, -1.5354 0.5892 -0.1678, -1.5354 0.5852 -0.1773, -1.5354 0.5615 -0.1955, -1.5461 0.5618 -0.1939, -1.5354 0.5708 -0.1916, -1.5354 0.579 -0.1853, -1.543 0.58 -0.1832, -1.5354 0.5512 -0.1969, -1.5457 0.5512 -0.1955, -1.5552 0.5512 -0.1915, -1.5696 0.5512 -0.1771, -1.5612 0.5769 -0.1725, -1.5734 0.5512 -0.1678, -1.5633 0.5512 -0.1853, -1.5457 -0.5512 -0.1955, -1.5354 -0.5512 -0.1969, -1.5696 -0.5512 -0.1771, -1.5633 -0.5512 -0.1853, -1.5552 -0.5512 -0.1915, -1.5748 -0.5512 -0.1575, -1.5734 -0.5512 -0.1678, 0.3347 0.0991 -0.1969, 0.0936 0.1855 -0.1969, 0.1107 0.2103 -0.1969, 0.2503 0.0946 -0.1969, 0.228 0.0991 -0.1969, 0.5125 0.0991 -0.1969, 0.1214 0.2384 -0.1969, 0.125 0.2683 -0.1969, 1.0348 -0.3712 -0.1969, 0.0443 -0.3852 -0.1969, 0.071 -0.3712 -0.1969, 0.9808 0.2683 -0.1969, 0.9844 0.2384 -0.1969, 0.0936 -0.3512 -0.1969, 0.1107 -0.3264 -0.1969, 0.9951 -0.3264 -0.1969, 0.3614 0.0991 -0.1969, 0.4858 0.0991 -0.1969, 0.4681 0.0446 -0.1969, 0.3792 0.0446 -0.1969, -0.3187 0.0991 -0.1969, -0.4787 0.0991 -0.1969, -0.1107 0.2103 -0.1969, -0.0936 0.1855 -0.1969, -0.071 0.1655 -0.1969, -0.212 0.0991 -0.1969, -0.1214 0.2384 -0.1969, 1.0122 -0.3512 -0.1969, 0.4058 -0.1143 -0.1969, 0.228 -0.1143 -0.1969, 0.2503 -0.1097 -0.1969, 0.2681 -0.1006 -0.1969, 0.2858 -0.0825 -0.1969, 0.2947 -0.0643 -0.1969, 0.2992 -0.0416 -0.1969, 0.2992 0.0265 -0.1969, 0.2947 0.0492 -0.1969, 0.2858 0.0673 -0.1969, 0.2681 0.0855 -0.1969, -0.9951 0.3264 -0.1969, -0.0936 0.3512 -0.1969, -0.1107 0.3264 -0.1969, -0.9808 0.2683 -0.1969, -0.125 0.2683 -0.1969, -0.1498 0.0946 -0.1969, -0.172 0.0991 -0.1969, -0.0742 0.0991 -0.1969, 0.0858 -0.087 -0.1969, 0.068 -0.028 -0.1969, 0.1214 -0.1143 -0.1969, 0.0858 0.0719 -0.1969, 0.0858 0.0991 -0.1969, 0.1214 0.0991 -0.1969, 1.3386 0.5118 -0.1969, 1.1768 0.3712 -0.1969, 1.1501 0.3852 -0.1969, 0.068 -0.0008 -0.1969, -0.0475 -0.0008 -0.1969, -0.0475 0.0719 -0.1969, 0.1214 -0.2983 -0.1969, 0.9808 -0.2683 -0.1969, 0.9844 -0.2983 -0.1969, 0.0858 -0.1143 -0.1969, -0.0475 -0.087 -0.1969, -0.0475 -0.028 -0.1969, -0.0742 -0.1143 -0.1969, -0.1097 -0.0598 -0.1969, -0.2298 -0.0825 -0.1969, -0.2431 -0.0734 -0.1969, -0.1409 -0.0734 -0.1969, -0.1097 0.0446 -0.1969, -0.1142 0.0673 -0.1969, 1.0122 0.3512 -0.1969, 0.0936 0.3512 -0.1969, 1.0348 0.3712 -0.1969, -0.132 0.0855 -0.1969, -0.172 0.0719 -0.1969, -0.2298 0.0673 -0.1969, -0.212 0.0719 -0.1969, -0.1542 0.0673 -0.1969, -0.1364 -0.0598 -0.1969, -0.2342 0.0946 -0.1969, -0.252 0.0855 -0.1969, -0.3187 0.0719 -0.1969, -0.452 0.0719 -0.1969, -0.2786 0.0492 -0.1969, -0.2831 0.0265 -0.1969, -0.9951 0.2103 -0.1969, -1.0122 0.1855 -0.1969, -0.1364 0.0446 -0.1969, -0.452 -0.1143 -0.1969, -0.2831 -0.0416 -0.1969, -0.2786 -0.0643 -0.1969, -0.252 -0.1006 -0.1969, -0.2698 -0.0825 -0.1969, -0.1542 -0.0825 -0.1969, -0.212 -0.087 -0.1969, -0.2342 -0.1097 -0.1969, 0.0936 -0.1855 -0.1969, 0.071 -0.1655 -0.1969, 0.0151 -0.1443 -0.1969, -0.1214 -0.2983 -0.1969, -0.1107 -0.3264 -0.1969, -0.9951 -0.3264 -0.1969, -0.172 -0.1143 -0.1969, -0.1498 -0.1097 -0.1969, -0.132 -0.1006 -0.1969, -0.1142 -0.0825 -0.1969, -0.172 -0.087 -0.1969, -0.252 -0.0598 -0.1969, -0.2564 -0.0416 -0.1969, -0.2564 0.0265 -0.1969, -0.252 0.0446 -0.1969, -0.2431 0.0582 -0.1969, -0.1409 0.0582 -0.1969, -1.3035 0.1535 -0.1969, -1.1768 0.1655 -0.1969, -1.2703 0.1419 -0.1969, -0.9844 -0.2983 -0.1969, -0.125 -0.2683 -0.1969, -0.212 -0.1143 -0.1969, -0.2698 0.0673 -0.1969, -0.9844 0.2384 -0.1969, 1.1967 0.0683 -0.1969, 1.0614 0.1515 -0.1969, 1.0907 0.1443 -0.1969, 0.9951 0.2103 -0.1969, 1.1208 -0.1443 -0.1969, 1.0907 -0.1443 -0.1969, 1.2155 -0.0982 -0.1969, 1.0122 0.1855 -0.1969, 1.0348 0.1655 -0.1969, 1.4805 0.0683 -0.1969, 1.4961 0.315 -0.1969, 1.4921 0.035 -0.1969, 1.0614 -0.1515 -0.1969, 1.1967 -0.0683 -0.1969, 1.3386 -0.1575 -0.1969, 1.2164 -0.2103 -0.1969, 1.1993 -0.1855 -0.1969, 1.2271 0.2384 -0.1969, 1.2308 0.2683 -0.1969, 1.2271 0.2983 -0.1969, 1.3386 0.315 -0.1969, 1.1993 0.3512 -0.1969, 1.2164 0.3264 -0.1969, -0.0151 0.1443 -0.1969, 0.0151 0.1443 -0.1969, 1.1208 0.3924 -0.1969, 1.0907 0.3924 -0.1969, 0.071 0.3712 -0.1969, -0.9844 0.2983 -0.1969, -0.1214 0.2983 -0.1969, 0.071 0.1655 -0.1969, 0.0443 0.1515 -0.1969, 1.3386 0.1575 -0.1969, 1.1993 0.1855 -0.1969, 1.2164 0.2103 -0.1969, 0.125 -0.2683 -0.1969, 0.1214 -0.2384 -0.1969, 0.4414 -0.1143 -0.1969, 1.1208 -0.3924 -0.1969, 1.3386 -0.5118 -0.1969, 1.0907 -0.3924 -0.1969, -0.0936 -0.3512 -0.1969, -1.0122 -0.3512 -0.1969, -1.1993 -0.3512 -0.1969, -1.1768 -0.3712 -0.1969, -1.3386 -0.315 -0.1969, -1.0614 -0.3852 -0.1969, -1.0348 -0.3712 -0.1969, -0.071 -0.3712 -0.1969, 1.1501 -0.3852 -0.1969, 1.1768 -0.3712 -0.1969, 1.1811 0.0 -0.1969, 1.1851 -0.035 -0.1969, 1.3386 -0.315 -0.1969, 1.1993 -0.3512 -0.1969, 1.2703 0.1419 -0.1969, 1.1768 0.1655 -0.1969, 1.3035 0.1535 -0.1969, 1.2271 -0.2983 -0.1969, 1.2308 -0.2683 -0.1969, 1.2164 -0.3264 -0.1969, 1.2703 -0.1419 -0.1969, 1.3035 -0.1535 -0.1969, 1.1768 -0.1655 -0.1969, 1.4961 -0.315 -0.1969, 1.2404 0.1231 -0.1969, 1.1501 0.1515 -0.1969, 1.2155 0.0982 -0.1969, 1.1208 0.1443 -0.1969, 1.1851 0.035 -0.1969, 1.0348 -0.1655 -0.1969, 0.9951 -0.2103 -0.1969, 1.0122 -0.1855 -0.1969, 0.9844 -0.2384 -0.1969, -1.2404 0.1231 -0.1969, -1.1501 0.1515 -0.1969, -1.3386 0.5118 -0.1969, -1.4961 0.5118 -0.1969, -1.0348 -0.1655 -0.1969, -1.0614 -0.1515 -0.1969, -0.4787 -0.1143 -0.1969, -1.2164 -0.2103 -0.1969, -1.3386 -0.1575 -0.1969, -1.1993 -0.1855 -0.1969, -1.4961 0.315 -0.1969, -1.1208 -0.1443 -0.1969, -1.2155 -0.0982 -0.1969, -1.0907 -0.1443 -0.1969, -1.3035 -0.1535 -0.1969, -1.1768 -0.1655 -0.1969, -1.1851 -0.035 -0.1969, -1.1967 -0.0683 -0.1969, -1.0348 0.1655 -0.1969, -1.0614 0.1515 -0.1969, -1.1811 0.0 -0.1969, 1.5354 0.5512 -0.1969, -1.0348 0.3712 -0.1969, -0.0443 0.3852 -0.1969, -0.071 0.3712 -0.1969, 0.1214 0.2983 -0.1969, 0.9951 0.3264 -0.1969, 0.9844 0.2983 -0.1969, -1.0614 0.3852 -0.1969, 0.1107 0.3264 -0.1969, 1.0614 0.3852 -0.1969, -1.1501 0.3852 -0.1969, -1.1768 0.3712 -0.1969, -1.1208 0.3924 -0.1969, -1.3386 0.315 -0.1969, -1.1993 0.3512 -0.1969, -1.2164 0.3264 -0.1969, -1.2308 0.2683 -0.1969, -0.9951 -0.2103 -0.1969, -1.0122 -0.1855 -0.1969, -0.0443 -0.1515 -0.1969, -0.071 -0.1655 -0.1969, -1.4961 -0.315 -0.1969, -1.2308 -0.2683 -0.1969, -1.3386 -0.5118 -0.1969, -1.1208 -0.3924 -0.1969, -1.0907 -0.3924 -0.1969, -1.1501 -0.3852 -0.1969, 1.0614 -0.3852 -0.1969, -0.9808 -0.2683 -0.1969, -0.0936 -0.1855 -0.1969, -0.1107 -0.2103 -0.1969, -0.1214 -0.2384 -0.1969, -0.9844 -0.2384 -0.1969, -1.2703 -0.1419 -0.1969, -1.1501 -0.1515 -0.1969, -1.2404 -0.1231 -0.1969, -1.1967 0.0683 -0.1969, -1.0907 0.1443 -0.1969, -1.1851 0.035 -0.1969, -1.4921 -0.035 -0.1969, -1.4805 -0.0683 -0.1969, -1.2271 -0.2983 -0.1969, -1.2271 -0.2384 -0.1969, -0.0443 0.1515 -0.1969, -1.0122 0.3512 -0.1969, -1.0907 0.3924 -0.1969, 0.0443 0.3852 -0.1969, 0.0151 0.3924 -0.1969, -0.0151 0.3924 -0.1969, -0.0151 -0.1443 -0.1969, -0.0443 -0.3852 -0.1969, -1.4961 -0.5118 -0.1969, -0.0151 -0.3924 -0.1969, 0.0151 -0.3924 -0.1969, 0.1107 -0.2103 -0.1969, 0.0443 -0.1515 -0.1969, 1.4805 -0.0683 -0.1969, 1.4921 -0.035 -0.1969, 1.4961 0.0 -0.1969, 1.4961 0.5118 -0.1969, 1.5354 -0.5512 -0.1969, 1.4961 -0.5118 -0.1969, 1.2271 -0.2384 -0.1969, -1.2271 0.2384 -0.1969, -1.1993 0.1855 -0.1969, -1.3386 0.1575 -0.1969, -1.2164 0.2103 -0.1969, -1.4961 0.0 -0.1969, -1.2271 0.2983 -0.1969, -1.2164 -0.3264 -0.1969, 1.2404 -0.1231 -0.1969, 1.1501 -0.1515 -0.1969, 1.3736 -0.1535 -0.1969, 1.4069 -0.1419 -0.1969, 1.4617 -0.0982 -0.1969, 1.4368 -0.1231 -0.1969, 1.3736 0.1535 -0.1969, 1.4368 0.1231 -0.1969, 1.4617 0.0982 -0.1969, 1.4069 0.1419 -0.1969, -1.2155 0.0982 -0.1969, -1.1208 0.1443 -0.1969, -1.3736 -0.1535 -0.1969, -1.4368 -0.1231 -0.1969, -1.4617 -0.0982 -0.1969, -1.4069 -0.1419 -0.1969, -1.3736 0.1535 -0.1969, -1.4069 0.1419 -0.1969, -1.4617 0.0982 -0.1969, -1.4368 0.1231 -0.1969, -1.4921 0.035 -0.1969, -1.4805 0.0683 -0.1969, 0.2592 0.0582 -0.1969, 0.2681 0.0446 -0.1969, 0.2725 0.0265 -0.1969, 0.228 0.0719 -0.1969, 0.148 -0.087 -0.1969, 0.148 0.0719 -0.1969, 0.2458 0.0673 -0.1969, 0.228 -0.087 -0.1969, 0.2725 -0.0416 -0.1969, 0.2458 -0.0825 -0.1969, 0.2592 -0.0734 -0.1969, 0.2681 -0.0598 -0.1969, 0.4636 0.0265 -0.1969, 0.4236 -0.0961 -0.1969, 0.3836 0.0265 -0.1969, -1.3035 -0.1535 -0.5709, -1.3386 -0.1575 -0.5709, -1.2703 -0.1419 -0.5709, -1.2404 -0.1231 -0.5709, -1.2155 -0.0982 -0.5709, -1.1967 -0.0683 -0.5709, -1.1851 -0.035 -0.5709, -1.1811 0.0 -0.5709, -1.3736 -0.1535 -0.5709, -1.4069 -0.1419 -0.5709, -1.4368 -0.1231 -0.5709, -1.4617 -0.0982 -0.5709, -1.4805 -0.0683 -0.5709, -1.4921 -0.035 -0.5709, -1.4961 0.0 -0.5709, -1.3384 -0.0984 -0.6299, -1.3166 -0.0959 -0.6299, -1.437 0.0 -0.6299, -1.2772 -0.0769 -0.6299, -1.2958 -0.0886 -0.6299, -1.2616 -0.0613 -0.6299, -1.2499 -0.0426 -0.6299, -1.2426 -0.022 -0.6299, -1.2402 0.0 -0.6299, -1.3604 -0.096 -0.6299, -1.3813 -0.0887 -0.6299, -1.3999 -0.077 -0.6299, -1.4154 -0.0615 -0.6299, -1.4272 -0.0428 -0.6299, -1.4345 -0.022 -0.6299, -1.2499 0.0426 -0.6299, -1.2426 0.022 -0.6299, -1.2958 0.0886 -0.6299, -1.2772 0.0769 -0.6299, -1.2616 0.0613 -0.6299, -1.4345 0.022 -0.6299, -1.4272 0.0428 -0.6299, -1.3166 0.0959 -0.6299, -1.3813 0.0887 -0.6299, -1.3604 0.096 -0.6299, -1.4154 0.0615 -0.6299, -1.3384 0.0984 -0.6299, -1.3999 0.077 -0.6299, 1.437 0.0 -0.6299, 1.2958 -0.0886 -0.6299, 1.2772 -0.0769 -0.6299, 1.4154 -0.0615 -0.6299, 1.3813 -0.0887 -0.6299, 1.3604 -0.096 -0.6299, 1.3999 -0.077 -0.6299, 1.3384 -0.0984 -0.6299, 1.4272 -0.0428 -0.6299, 1.3166 -0.0959 -0.6299, 1.4345 -0.022 -0.6299, 1.2616 -0.0613 -0.6299, 1.4273 0.0426 -0.6299, 1.4345 0.022 -0.6299, 1.3813 0.0886 -0.6299, 1.4 0.0769 -0.6299, 1.2402 0.0 -0.6299, 1.4156 0.0613 -0.6299, 1.2499 -0.0426 -0.6299, 1.2426 -0.022 -0.6299, 1.2426 0.022 -0.6299, 1.25 0.0428 -0.6299, 1.3606 0.0959 -0.6299, 1.2959 0.0887 -0.6299, 1.3168 0.096 -0.6299, 1.2617 0.0615 -0.6299, 1.3387 0.0984 -0.6299, 1.2773 0.077 -0.6299, -1.3736 0.1535 -0.5709, -1.1851 0.035 -0.5709, -1.3386 0.1575 -0.5709, -1.4069 0.1419 -0.5709, -1.4368 0.1231 -0.5709, -1.4617 0.0982 -0.5709, -1.4805 0.0683 -0.5709, -1.4921 0.035 -0.5709, -1.3035 0.1535 -0.5709, -1.2703 0.1419 -0.5709, -1.2404 0.1231 -0.5709, -1.2155 0.0982 -0.5709, -1.1967 0.0683 -0.5709, 1.3035 0.1535 -0.5709, 1.4961 -0.0 -0.5709, 1.4921 0.035 -0.5709, 1.3386 0.1575 -0.5709, 1.2703 0.1419 -0.5709, 1.2404 0.1231 -0.5709, 1.2155 0.0982 -0.5709, 1.1967 0.0683 -0.5709, 1.1851 0.035 -0.5709, 1.1811 -0.0 -0.5709, 1.3736 0.1535 -0.5709, 1.4069 0.1419 -0.5709, 1.4368 0.1231 -0.5709, 1.4617 0.0982 -0.5709, 1.4805 0.0683 -0.5709, 1.3736 -0.1535 -0.5709, 1.1851 -0.035 -0.5709, 1.3386 -0.1575 -0.5709, 1.4069 -0.1419 -0.5709, 1.4617 -0.0982 -0.5709, 1.4368 -0.1231 -0.5709, 1.4805 -0.0683 -0.5709, 1.4921 -0.035 -0.5709, 1.3035 -0.1535 -0.5709, 1.2703 -0.1419 -0.5709, 1.2404 -0.1231 -0.5709, 1.2155 -0.0982 -0.5709, 1.1967 -0.0683 -0.5709, -1.4961 -0.315 -0.315, -1.4961 -0.5118 -0.315, -1.3386 -0.5118 -0.315, -1.3386 -0.315 -0.315, -1.3386 0.5118 -0.315, -1.3386 0.315 -0.315, -1.4961 0.315 -0.315, -1.4961 0.5118 -0.315, 1.3386 -0.5118 -0.315, 1.4961 -0.315 -0.315, 1.4961 -0.5118 -0.315, 1.3386 -0.315 -0.315, 1.3386 0.315 -0.315, 1.3386 0.5118 -0.315, 1.4961 0.5118 -0.315, 1.4961 0.315 -0.315, 1.5457 0.5512 -0.1955, 1.5696 0.5512 -0.1771, 1.5633 -0.5512 -0.1853, 1.5633 0.5512 -0.1853, 1.5552 0.5512 -0.1915, 1.555 -0.5512 -0.1916, 1.5457 -0.5512 -0.1955, 1.5748 0.5512 -0.1575, 1.5734 -0.5512 -0.1678, 1.5734 0.5512 -0.1678, 1.5694 -0.5512 -0.1773, 1.5748 -0.5512 -0.1575, 1.5699 -0.5643 -0.1714, 1.5551 -0.5709 -0.1853, 1.5643 -0.5587 -0.1832, 1.5485 -0.5856 -0.1714, 1.5354 -0.5892 -0.1678, 1.5354 -0.5852 -0.1773, 1.5354 -0.5615 -0.1955, 1.5461 -0.5618 -0.1939, 1.5354 -0.5708 -0.1916, 1.5354 -0.5906 -0.1575, 1.5505 -0.5876 -0.1575, 1.5354 -0.579 -0.1853, 1.543 -0.58 -0.1832, 1.5718 -0.5662 -0.1575, 1.5612 -0.5769 -0.1725, 1.5633 -0.579 -0.1575, -1.5354 -0.5906 -0.1575, -1.5354 -0.579 -0.1853, -1.5354 -0.5708 -0.1916, -1.5354 -0.5615 -0.1955, -1.5354 -0.5892 -0.1678, -1.5354 -0.5852 -0.1773, -1.5485 -0.5856 -0.1714, -1.5551 -0.5709 -0.1853, -1.543 -0.58 -0.1832, -1.5699 -0.5643 -0.1714, -1.5461 -0.5618 -0.1939, -1.5718 -0.5662 -0.1575, -1.5643 -0.5587 -0.1832, -1.5505 -0.5876 -0.1575, -1.5612 -0.5769 -0.1725, -1.5633 -0.579 -0.1575, 1.5505 0.5876 -0.1575, 1.5633 0.579 -0.1575, 1.5718 0.5662 -0.1575, 1.5485 0.5856 -0.1714, 1.5551 0.5709 -0.1853, 1.543 0.58 -0.1832, 1.5699 0.5643 -0.1714, 1.5461 0.5618 -0.1939, 1.5643 0.5587 -0.1832, 1.5354 0.5615 -0.1955, 1.5354 0.571 -0.1915, 1.5354 0.5853 -0.1771, 1.5612 0.5769 -0.1725, 1.5354 0.5892 -0.1678, 1.5354 0.579 -0.1853, 0.1214 -0.2983 0.0394, 0.125 -0.2683 0.0394, 0.071 -0.3712 0.0394, 0.0936 -0.3512 0.0394, 0.1107 -0.3264 0.0394, -0.0151 -0.3924 0.0394, 0.0151 -0.3924 0.0394, 0.0443 -0.3852 0.0394, -0.071 -0.3712 0.0394, -0.0936 -0.3512 0.0394, -0.0443 -0.3852 0.0394, -0.1107 -0.3264 0.0394, -0.1214 -0.2983 0.0394, -0.125 -0.2683 0.0394, -0.1214 -0.2384 0.0394, -0.071 -0.1655 0.0394, -0.0936 -0.1855 0.0394, -0.1107 -0.2103 0.0394, 0.0151 -0.1443 0.0394, -0.0151 -0.1443 0.0394, -0.0443 -0.1515 0.0394, 0.071 -0.1655 0.0394, 0.0936 -0.1855 0.0394, 0.0443 -0.1515 0.0394, 0.1107 -0.2103 0.0394, 0.1214 -0.2384 0.0394, -0.0936 0.3512 0.0394, -0.071 0.3712 0.0394, -0.0443 0.3852 0.0394, -0.071 0.1655 0.0394, 0.125 0.2683 0.0394, -0.0443 0.1515 0.0394, -0.0151 0.3924 0.0394, -0.1107 0.3264 0.0394, 0.0151 0.3924 0.0394, 0.0443 0.3852 0.0394, -0.1214 0.2983 0.0394, -0.125 0.2683 0.0394, 0.071 0.3712 0.0394, 0.1107 0.3264 0.0394, -0.0936 0.1855 0.0394, -0.1107 0.2103 0.0394, 0.0936 0.3512 0.0394, -0.1214 0.2384 0.0394, -0.0151 0.1443 0.0394, 0.1214 0.2384 0.0394, 0.1214 0.2983 0.0394, 0.0443 0.1515 0.0394, 0.0936 0.1855 0.0394, 0.071 0.1655 0.0394, 0.0151 0.1443 0.0394, 0.1107 0.2103 0.0394, -1.1993 -0.1855 0.0394, -1.1768 -0.1655 0.0394, -1.1501 -0.1515 0.0394, -1.1768 -0.3712 0.0394, -0.9808 -0.2683 0.0394, -1.1501 -0.3852 0.0394, -1.1208 -0.1443 0.0394, -1.2164 -0.2103 0.0394, -1.0907 -0.1443 0.0394, -1.0614 -0.1515 0.0394, -1.2271 -0.2384 0.0394, -1.2308 -0.2683 0.0394, -1.0348 -0.1655 0.0394, -0.9951 -0.2103 0.0394, -1.1993 -0.3512 0.0394, -1.2164 -0.3264 0.0394, -1.0122 -0.1855 0.0394, -1.2271 -0.2983 0.0394, -1.1208 -0.3924 0.0394, -0.9844 -0.2983 0.0394, -0.9844 -0.2384 0.0394, -1.0614 -0.3852 0.0394, -1.0122 -0.3512 0.0394, -1.0348 -0.3712 0.0394, -1.0907 -0.3924 0.0394, -0.9951 -0.3264 0.0394, -1.1993 0.3512 0.0394, -1.1768 0.3712 0.0394, -1.1501 0.3852 0.0394, -1.1768 0.1655 0.0394, -0.9808 0.2683 0.0394, -1.1501 0.1515 0.0394, -1.1208 0.3924 0.0394, -1.2164 0.3264 0.0394, -1.0907 0.3924 0.0394, -1.0614 0.3852 0.0394, -1.2271 0.2983 0.0394, -1.2308 0.2683 0.0394, -1.0348 0.3712 0.0394, -0.9951 0.3264 0.0394, -1.1993 0.1855 0.0394, -1.2164 0.2103 0.0394, -1.0122 0.3512 0.0394, -1.2271 0.2384 0.0394, -1.1208 0.1443 0.0394, -0.9844 0.2384 0.0394, -0.9844 0.2983 0.0394, -1.0614 0.1515 0.0394, -1.0122 0.1855 0.0394, -1.0348 0.1655 0.0394, -1.0907 0.1443 0.0394, -0.9951 0.2103 0.0394, 1.0122 -0.1855 0.0394, 1.0348 -0.1655 0.0394, 1.0614 -0.1515 0.0394, 1.0348 -0.3712 0.0394, 1.2308 -0.2683 0.0394, 1.0614 -0.3852 0.0394, 1.0907 -0.1443 0.0394, 0.9951 -0.2103 0.0394, 1.1208 -0.1443 0.0394, 1.1501 -0.1515 0.0394, 0.9844 -0.2384 0.0394, 0.9808 -0.2683 0.0394, 1.1768 -0.1655 0.0394, 1.2164 -0.2103 0.0394, 1.0122 -0.3512 0.0394, 0.9951 -0.3264 0.0394, 1.1993 -0.1855 0.0394, 0.9844 -0.2983 0.0394, 1.0907 -0.3924 0.0394, 1.2271 -0.2983 0.0394, 1.2271 -0.2384 0.0394, 1.1501 -0.3852 0.0394, 1.1993 -0.3512 0.0394, 1.1768 -0.3712 0.0394, 1.1208 -0.3924 0.0394, 1.2164 -0.3264 0.0394, 1.0122 0.3512 0.0394, 1.0348 0.3712 0.0394, 1.0614 0.3852 0.0394, 1.0348 0.1655 0.0394, 1.2308 0.2683 0.0394, 1.0614 0.1515 0.0394, 1.0907 0.3924 0.0394, 0.9951 0.3264 0.0394, 1.1208 0.3924 0.0394, 1.1501 0.3852 0.0394, 0.9844 0.2983 0.0394, 0.9808 0.2683 0.0394, 1.1768 0.3712 0.0394, 1.2164 0.3264 0.0394, 1.0122 0.1855 0.0394, 0.9951 0.2103 0.0394, 1.1993 0.3512 0.0394, 0.9844 0.2384 0.0394, 1.0907 0.1443 0.0394, 1.2271 0.2384 0.0394, 1.2271 0.2983 0.0394, 1.1501 0.1515 0.0394, 1.1993 0.1855 0.0394, 1.1768 0.1655 0.0394, 1.1208 0.1443 0.0394, 1.2164 0.2103 0.0394, 1.1024 0.671 0.1378, 1.1024 0.6333 0.1378, 1.1024 0.5956 0.1378, 0.8661 0.5956 0.1378, 0.8661 0.6333 0.1378, 0.8661 0.671 0.1378, 0.1181 0.671 0.1378, 0.1181 0.6333 0.1378, 0.1181 0.5956 0.1378, -0.1181 0.5956 0.1378, -0.1181 0.6333 0.1378, -0.1181 0.671 0.1378, -1.7717 0.4134 0.748, -1.7717 0.4134 0.6299, -1.7717 -0.4134 0.6299, -1.7717 -0.4134 0.6299
            ]
        }
        coordIndex [
            0,1,2,-1,3,4,5,-1,6,1,0,-1,1,7,2,-1,8,9,1,-1,9,10,11,-1,11,12,9,-1,13,14,15,-1,9,8,10,-1,16,17,3,-1,8,1,6,-1,6,18,8,-1,19,20,21,-1,18,6,22,-1,23,18,22,-1,24,23,22,-1,24,25,19,-1,26,24,19,-1,24,26,23,-1,20,19,25,-1,21,27,19,-1,28,29,19,-1,27,28,19,-1,29,16,3,-1,29,3,19,-1,30,31,32,-1,3,33,4,-1,32,34,30,-1,35,36,37,-1,35,38,34,-1,35,37,39,-1,34,32,35,-1,5,40,35,-1,5,35,3,-1,41,42,43,-1,41,43,44,-1,35,40,36,-1,39,38,35,-1,33,3,17,-1,45,23,26,-1,13,44,46,-1,13,47,14,-1,41,44,13,-1,13,46,47,-1,13,48,49,-1,13,15,48,-1,50,13,49,-1,51,26,50,-1,52,50,53,-1,50,49,53,-1,50,54,51,-1,50,52,55,-1,50,55,54,-1,56,26,57,-1,26,51,57,-1,26,56,58,-1,45,26,59,-1,26,58,59,-1,60,61,62,-1,63,64,65,-1,65,66,67,-1,68,69,65,-1,63,65,69,-1,64,70,65,-1,70,64,71,-1,66,65,72,-1,61,60,73,-1,32,67,74,-1,75,32,74,-1,67,31,76,-1,67,32,31,-1,77,67,76,-1,77,78,61,-1,78,62,61,-1,62,42,60,-1,41,79,80,-1,41,60,42,-1,80,60,41,-1,81,67,82,-1,60,83,73,-1,84,85,82,-1,81,65,67,-1,67,61,82,-1,61,67,77,-1,68,65,81,-1,86,69,68,-1,82,85,81,-1,68,87,86,-1,88,89,87,-1,86,87,90,-1,88,87,68,-1,91,92,87,-1,93,92,91,-1,90,87,92,-1,94,95,96,-1,97,98,99,-1,100,101,98,-1,102,103,104,-1,90,92,105,-1,92,106,105,-1,107,108,109,-1,110,111,112,-1,112,113,106,-1,112,111,114,-1,115,116,117,-1,118,119,120,-1,121,122,112,-1,92,112,106,-1,97,121,98,-1,121,112,98,-1,115,123,124,-1,63,125,64,-1,125,123,64,-1,112,122,110,-1,114,113,112,-1,99,98,101,-1,126,115,127,-1,120,119,128,-1,64,123,115,-1,129,119,118,-1,115,124,116,-1,126,130,115,-1,115,117,127,-1,131,115,130,-1,131,132,96,-1,133,131,134,-1,131,130,134,-1,131,135,132,-1,131,133,136,-1,131,136,135,-1,137,96,138,-1,96,132,138,-1,96,139,140,-1,96,137,139,-1,140,141,96,-1,128,107,109,-1,141,94,96,-1,107,142,143,-1,119,107,128,-1,108,107,143,-1,96,95,102,-1,144,128,109,-1,144,109,145,-1,94,145,95,-1,144,145,94,-1,102,95,146,-1,102,146,103,-1,147,102,148,-1,102,104,148,-1,102,147,149,-1,100,98,149,-1,102,149,98,-1,71,64,115,-1,150,151,115,-1,115,151,71,-1,152,153,70,-1,151,70,71,-1,70,153,154,-1,70,151,152,-1,154,155,65,-1,65,70,154,-1,156,157,158,-1,157,156,159,-1,160,161,162,-1,161,160,163,-1,164,165,166,-1,164,166,167,-1,168,155,154,-1,168,154,153,-1,169,159,80,-1,170,80,79,-1,80,159,156,-1,80,170,169,-1,156,158,60,-1,60,80,156,-1,158,157,83,-1,83,60,158,-1,169,50,171,-1,83,171,73,-1,83,157,159,-1,159,169,83,-1,172,98,173,-1,50,169,174,-1,83,169,171,-1,102,175,171,-1,98,172,175,-1,89,172,166,-1,89,166,165,-1,175,172,89,-1,175,89,88,-1,102,98,175,-1,50,26,171,-1,102,171,26,-1,73,171,176,-1,176,61,73,-1,61,176,177,-1,178,68,81,-1,179,68,178,-1,176,179,178,-1,61,177,82,-1,176,178,177,-1,180,84,181,-1,181,182,180,-1,177,181,82,-1,82,181,84,-1,180,183,85,-1,180,85,84,-1,183,184,185,-1,81,85,185,-1,183,185,85,-1,185,178,81,-1,185,181,177,-1,185,177,178,-1,181,185,184,-1,181,184,182,-1,182,184,183,-1,182,183,180,-1,175,88,68,-1,68,179,175,-1,171,175,179,-1,179,176,171,-1,165,164,87,-1,87,89,165,-1,167,87,164,-1,167,91,87,-1,91,172,186,-1,166,91,167,-1,166,172,91,-1,186,93,91,-1,93,112,92,-1,186,187,112,-1,186,112,93,-1,173,98,112,-1,112,187,173,-1,172,173,187,-1,187,186,172,-1,188,189,190,-1,188,191,189,-1,192,193,194,-1,102,26,195,-1,102,196,197,-1,194,96,192,-1,198,199,96,-1,96,199,192,-1,102,197,96,-1,96,200,198,-1,96,197,200,-1,201,202,102,-1,102,202,196,-1,203,204,102,-1,102,204,201,-1,102,195,203,-1,205,206,26,-1,26,206,195,-1,26,207,205,-1,19,208,26,-1,26,208,207,-1,19,209,208,-1,210,211,19,-1,19,211,209,-1,212,213,214,-1,19,215,210,-1,19,212,215,-1,212,19,213,-1,216,217,218,-1,216,219,217,-1,220,189,191,-1,191,221,220,-1,3,222,223,-1,160,162,66,-1,153,152,72,-1,223,224,3,-1,224,225,3,-1,226,19,3,-1,225,226,3,-1,3,227,228,-1,226,213,19,-1,160,66,228,-1,72,168,153,-1,131,220,229,-1,229,230,131,-1,228,66,3,-1,231,131,152,-1,131,72,152,-1,232,96,194,-1,230,72,131,-1,189,233,190,-1,96,232,131,-1,234,131,235,-1,131,232,235,-1,236,131,237,-1,131,234,237,-1,238,72,239,-1,240,218,217,-1,131,236,241,-1,131,241,242,-1,131,242,233,-1,233,189,220,-1,131,233,220,-1,239,72,230,-1,66,238,243,-1,238,66,72,-1,222,3,244,-1,243,245,66,-1,66,245,3,-1,3,245,240,-1,240,217,244,-1,3,240,244,-1,246,222,244,-1,247,246,244,-1,248,247,249,-1,244,249,247,-1,249,250,248,-1,251,252,250,-1,250,249,251,-1,253,252,226,-1,251,226,252,-1,226,225,253,-1,251,213,226,-1,251,214,213,-1,254,216,191,-1,216,221,191,-1,216,254,219,-1,221,216,255,-1,256,193,188,-1,257,254,191,-1,191,188,257,-1,188,258,256,-1,193,257,188,-1,193,192,257,-1,254,212,214,-1,214,251,249,-1,214,249,219,-1,254,214,219,-1,244,217,219,-1,219,249,244,-1,259,211,210,-1,259,210,260,-1,261,209,211,-1,259,261,211,-1,260,210,215,-1,262,215,212,-1,215,262,260,-1,262,212,254,-1,263,264,265,-1,266,267,268,-1,269,270,271,-1,254,267,262,-1,268,272,273,-1,270,264,271,-1,274,275,269,-1,270,276,264,-1,273,271,264,-1,273,272,271,-1,265,277,263,-1,263,259,278,-1,259,260,278,-1,259,279,261,-1,260,262,266,-1,267,266,262,-1,263,279,259,-1,260,266,278,-1,263,278,264,-1,277,279,263,-1,278,266,273,-1,268,273,266,-1,265,276,280,-1,278,273,264,-1,276,265,264,-1,277,265,280,-1,269,275,270,-1,276,270,275,-1,281,274,282,-1,283,280,284,-1,285,276,275,-1,286,279,287,-1,277,287,279,-1,261,279,286,-1,277,280,283,-1,277,283,287,-1,284,276,285,-1,280,276,284,-1,281,275,274,-1,285,275,281,-1,288,289,290,-1,288,291,292,-1,293,294,295,-1,296,297,298,-1,293,299,300,-1,301,302,303,-1,304,290,294,-1,292,289,288,-1,305,306,307,-1,308,309,310,-1,305,307,304,-1,311,312,313,-1,314,310,309,-1,296,298,315,-1,301,315,298,-1,316,317,318,-1,316,318,319,-1,316,319,320,-1,316,321,322,-1,316,320,321,-1,322,323,316,-1,316,323,288,-1,288,323,324,-1,288,324,325,-1,288,325,326,-1,288,326,291,-1,327,328,329,-1,309,330,331,-1,332,333,334,-1,335,336,337,-1,338,339,340,-1,341,342,343,-1,344,345,346,-1,336,344,337,-1,347,348,349,-1,347,349,302,-1,337,350,335,-1,351,352,336,-1,338,344,346,-1,344,340,337,-1,351,336,335,-1,340,344,338,-1,353,354,334,-1,355,356,357,-1,358,359,334,-1,360,361,362,-1,334,359,363,-1,364,365,366,-1,334,363,332,-1,367,365,364,-1,368,358,354,-1,369,370,308,-1,371,308,370,-1,372,371,373,-1,374,372,373,-1,375,309,376,-1,358,368,377,-1,378,379,380,-1,381,378,382,-1,355,383,384,-1,385,378,381,-1,386,387,317,-1,388,353,350,-1,389,390,391,-1,383,355,357,-1,353,392,393,-1,353,393,394,-1,334,354,358,-1,353,394,395,-1,353,395,354,-1,396,384,383,-1,357,356,368,-1,368,356,397,-1,377,368,398,-1,397,398,368,-1,377,398,399,-1,377,399,400,-1,377,400,401,-1,365,367,401,-1,367,402,401,-1,401,402,377,-1,379,378,372,-1,309,331,314,-1,378,380,382,-1,403,404,405,-1,389,406,407,-1,385,408,378,-1,379,372,374,-1,370,409,371,-1,373,371,409,-1,313,369,308,-1,330,309,410,-1,411,412,413,-1,300,414,293,-1,415,416,417,-1,293,418,419,-1,414,418,293,-1,419,412,293,-1,420,421,422,-1,423,424,416,-1,425,426,427,-1,428,429,421,-1,430,431,429,-1,432,342,431,-1,433,432,431,-1,334,434,435,-1,341,431,342,-1,436,437,341,-1,436,341,343,-1,438,362,361,-1,330,439,440,-1,339,334,435,-1,441,289,292,-1,340,442,441,-1,288,290,304,-1,443,444,445,-1,446,447,448,-1,449,450,451,-1,390,452,453,-1,390,453,391,-1,454,455,456,-1,457,458,459,-1,450,460,461,-1,449,460,450,-1,462,463,448,-1,450,461,464,-1,461,465,464,-1,466,467,468,-1,469,470,464,-1,464,465,471,-1,472,473,474,-1,475,464,470,-1,466,476,477,-1,423,463,424,-1,468,467,444,-1,478,479,476,-1,448,463,423,-1,466,477,467,-1,411,480,412,-1,481,448,423,-1,462,448,293,-1,482,448,483,-1,448,481,483,-1,348,448,484,-1,448,482,484,-1,485,405,486,-1,487,488,274,-1,489,490,491,-1,492,493,494,-1,495,274,488,-1,496,497,498,-1,494,499,500,-1,501,490,502,-1,503,309,504,-1,309,491,505,-1,375,410,309,-1,309,503,376,-1,506,487,274,-1,507,508,509,-1,510,511,512,-1,508,507,513,-1,511,514,360,-1,513,487,508,-1,362,438,515,-1,514,361,360,-1,487,516,517,-1,518,516,487,-1,487,517,519,-1,517,520,519,-1,519,520,521,-1,522,495,519,-1,491,523,524,-1,525,526,392,-1,391,406,389,-1,456,527,528,-1,458,452,459,-1,529,456,455,-1,530,531,529,-1,530,529,532,-1,452,458,453,-1,533,450,297,-1,534,407,406,-1,535,536,408,-1,524,489,491,-1,491,378,537,-1,407,534,491,-1,491,538,523,-1,491,534,538,-1,498,497,502,-1,498,502,490,-1,539,540,500,-1,496,541,497,-1,504,542,543,-1,505,544,309,-1,545,546,527,-1,544,504,309,-1,528,547,456,-1,548,528,527,-1,512,299,295,-1,311,308,310,-1,292,340,441,-1,311,313,308,-1,442,340,339,-1,333,312,549,-1,312,333,313,-1,334,549,434,-1,333,549,334,-1,435,442,339,-1,294,305,304,-1,299,293,295,-1,293,305,294,-1,510,512,295,-1,514,511,510,-1,507,509,550,-1,513,551,487,-1,552,341,515,-1,552,515,438,-1,341,553,554,-1,553,341,552,-1,487,341,554,-1,487,506,341,-1,327,550,328,-1,509,328,550,-1,327,329,439,-1,330,440,331,-1,439,329,440,-1,296,533,297,-1,353,555,525,-1,533,451,450,-1,556,529,457,-1,556,457,459,-1,557,529,282,-1,558,529,556,-1,559,450,529,-1,450,282,529,-1,349,303,302,-1,301,303,315,-1,446,448,348,-1,446,348,347,-1,447,560,316,-1,447,316,448,-1,560,386,317,-1,560,317,316,-1,337,387,561,-1,387,337,317,-1,350,561,388,-1,337,561,350,-1,353,388,555,-1,392,526,408,-1,353,525,392,-1,408,536,378,-1,408,526,535,-1,491,537,407,-1,378,536,537,-1,562,563,475,-1,564,475,563,-1,506,421,565,-1,565,341,506,-1,341,437,515,-1,429,431,421,-1,430,433,431,-1,282,450,566,-1,450,559,297,-1,450,567,566,-1,568,475,470,-1,566,567,475,-1,471,469,464,-1,487,554,508,-1,518,487,551,-1,569,495,522,-1,570,571,572,-1,570,404,403,-1,495,573,274,-1,521,574,519,-1,522,519,574,-1,499,539,500,-1,573,282,274,-1,529,455,532,-1,282,527,557,-1,529,531,457,-1,559,529,558,-1,547,575,456,-1,454,456,575,-1,427,473,425,-1,416,424,417,-1,576,577,415,-1,415,417,576,-1,577,472,474,-1,472,577,576,-1,427,474,473,-1,568,425,578,-1,568,426,425,-1,579,475,578,-1,568,578,475,-1,580,475,581,-1,475,579,581,-1,421,506,564,-1,475,580,562,-1,506,566,564,-1,475,564,566,-1,443,428,582,-1,421,564,422,-1,583,421,584,-1,421,420,584,-1,428,421,582,-1,421,585,582,-1,421,583,585,-1,428,443,445,-1,444,443,468,-1,479,478,413,-1,477,476,479,-1,480,293,412,-1,413,478,411,-1,462,293,480,-1,586,587,543,-1,282,573,527,-1,493,548,588,-1,527,573,545,-1,589,527,590,-1,527,546,590,-1,541,540,539,-1,548,527,588,-1,527,591,588,-1,527,589,591,-1,548,493,492,-1,494,493,499,-1,540,541,496,-1,491,490,501,-1,501,505,491,-1,542,504,544,-1,485,587,586,-1,586,543,542,-1,405,404,486,-1,485,486,587,-1,570,403,571,-1,569,571,592,-1,569,572,571,-1,593,495,592,-1,569,592,495,-1,594,495,595,-1,495,593,595,-1,596,495,597,-1,495,594,597,-1,573,495,596,-1,598,599,600,-1,601,602,603,-1,598,600,604,-1,601,604,600,-1,605,600,606,-1,607,606,608,-1,606,609,608,-1,606,607,605,-1,601,600,605,-1,601,605,602,-1,610,611,612,-1,613,493,614,-1,613,615,499,-1,499,493,613,-1,539,615,616,-1,615,539,499,-1,617,541,616,-1,539,616,541,-1,617,618,497,-1,497,541,617,-1,502,618,619,-1,618,502,497,-1,620,501,619,-1,502,619,501,-1,505,501,620,-1,588,614,493,-1,591,621,588,-1,614,588,621,-1,591,589,622,-1,622,621,591,-1,623,589,590,-1,589,623,622,-1,546,624,590,-1,623,590,624,-1,546,545,625,-1,625,624,546,-1,626,545,573,-1,545,626,625,-1,626,573,627,-1,613,628,629,-1,627,630,626,-1,614,628,613,-1,629,615,613,-1,617,616,631,-1,616,615,632,-1,631,616,632,-1,617,631,633,-1,617,633,618,-1,633,634,618,-1,635,619,634,-1,619,618,634,-1,632,615,629,-1,635,636,620,-1,620,619,635,-1,614,637,628,-1,621,638,637,-1,637,614,621,-1,638,622,639,-1,622,638,621,-1,640,639,623,-1,622,623,639,-1,624,641,640,-1,640,623,624,-1,641,625,642,-1,625,641,624,-1,630,642,626,-1,625,626,642,-1,636,638,639,-1,633,632,629,-1,633,631,632,-1,628,634,629,-1,633,629,634,-1,637,635,634,-1,634,628,637,-1,635,638,636,-1,638,635,637,-1,640,643,644,-1,645,646,630,-1,647,641,642,-1,648,649,650,-1,651,652,653,-1,649,653,652,-1,654,649,652,-1,655,651,653,-1,649,654,650,-1,645,630,648,-1,650,645,648,-1,646,647,642,-1,630,646,642,-1,641,643,640,-1,641,647,643,-1,636,639,644,-1,639,640,644,-1,656,657,658,-1,659,660,661,-1,659,662,660,-1,663,664,661,-1,659,661,664,-1,665,666,664,-1,664,663,665,-1,666,657,656,-1,657,666,665,-1,667,668,669,-1,670,671,672,-1,673,674,675,-1,676,677,678,-1,679,680,681,-1,677,681,680,-1,682,677,680,-1,683,679,681,-1,677,682,678,-1,670,672,676,-1,678,670,676,-1,671,673,675,-1,672,671,675,-1,674,668,667,-1,674,673,668,-1,656,658,669,-1,658,667,669,-1,684,654,652,-1,620,636,685,-1,686,654,684,-1,652,687,684,-1,688,655,689,-1,688,687,651,-1,653,690,689,-1,688,651,655,-1,655,653,689,-1,690,653,649,-1,648,691,649,-1,691,690,649,-1,651,687,652,-1,648,630,627,-1,627,691,648,-1,686,650,654,-1,692,645,650,-1,650,686,692,-1,645,693,646,-1,693,645,692,-1,647,646,694,-1,693,694,646,-1,695,643,647,-1,647,694,695,-1,643,696,644,-1,696,643,695,-1,636,644,685,-1,696,685,644,-1,684,571,686,-1,684,687,592,-1,592,571,684,-1,593,687,688,-1,687,593,592,-1,689,595,688,-1,593,688,595,-1,689,690,594,-1,594,595,689,-1,597,690,691,-1,690,597,594,-1,627,596,691,-1,597,691,596,-1,573,596,627,-1,403,686,571,-1,405,692,403,-1,686,403,692,-1,405,485,693,-1,693,692,405,-1,694,485,586,-1,485,694,693,-1,542,695,586,-1,694,586,695,-1,542,544,696,-1,696,695,542,-1,685,544,505,-1,544,685,696,-1,685,505,620,-1,697,682,680,-1,698,656,699,-1,700,682,697,-1,680,701,697,-1,702,683,703,-1,702,701,679,-1,681,704,703,-1,702,679,683,-1,683,681,703,-1,704,681,677,-1,676,705,677,-1,705,704,677,-1,679,701,680,-1,676,672,706,-1,706,705,676,-1,700,678,682,-1,707,670,678,-1,678,700,707,-1,670,708,671,-1,708,670,707,-1,673,671,709,-1,708,709,671,-1,710,668,673,-1,673,709,710,-1,668,711,669,-1,711,668,710,-1,656,669,699,-1,711,699,669,-1,712,663,661,-1,706,672,713,-1,714,663,712,-1,661,715,712,-1,716,717,662,-1,717,715,660,-1,662,717,660,-1,716,662,659,-1,716,659,718,-1,659,664,718,-1,666,719,664,-1,719,718,664,-1,660,715,661,-1,666,656,698,-1,698,719,666,-1,714,665,663,-1,720,657,665,-1,665,714,720,-1,657,721,658,-1,721,657,720,-1,667,658,722,-1,721,722,658,-1,723,674,667,-1,667,722,723,-1,674,724,675,-1,724,674,723,-1,672,675,713,-1,724,713,675,-1,712,425,714,-1,712,715,578,-1,578,425,712,-1,579,715,717,-1,715,579,578,-1,716,581,717,-1,579,717,581,-1,716,718,580,-1,580,581,716,-1,562,718,719,-1,718,562,580,-1,698,563,719,-1,562,719,563,-1,564,563,698,-1,473,714,425,-1,472,720,473,-1,714,473,720,-1,472,576,721,-1,721,720,472,-1,722,576,417,-1,576,722,721,-1,424,723,417,-1,722,417,723,-1,424,463,724,-1,724,723,424,-1,713,463,462,-1,463,713,724,-1,713,462,706,-1,697,443,700,-1,697,701,468,-1,468,443,697,-1,466,701,702,-1,701,466,468,-1,703,476,702,-1,466,702,476,-1,703,704,478,-1,478,476,703,-1,411,704,705,-1,704,411,478,-1,706,480,705,-1,411,705,480,-1,462,480,706,-1,582,700,443,-1,585,707,582,-1,700,582,707,-1,585,583,708,-1,708,707,585,-1,709,583,584,-1,583,709,708,-1,420,710,584,-1,709,584,710,-1,420,422,711,-1,711,710,420,-1,699,422,564,-1,422,699,711,-1,699,564,698,-1,527,725,726,-1,527,726,557,-1,557,726,727,-1,557,727,529,-1,529,727,728,-1,529,728,456,-1,456,728,725,-1,456,725,527,-1,726,728,727,-1,728,726,725,-1,729,730,731,-1,729,731,732,-1,733,734,735,-1,734,733,736,-1,737,738,739,-1,737,739,740,-1,487,729,732,-1,487,732,488,-1,488,732,731,-1,488,731,495,-1,495,731,730,-1,495,730,519,-1,519,730,729,-1,519,729,487,-1,450,733,735,-1,450,735,567,-1,567,735,734,-1,567,734,475,-1,475,734,736,-1,475,736,464,-1,464,736,733,-1,464,733,450,-1,421,740,739,-1,421,739,565,-1,565,739,738,-1,565,738,341,-1,341,738,737,-1,341,737,431,-1,431,737,740,-1,431,740,421,-1,741,566,506,-1,742,743,744,-1,745,746,747,-1,748,749,750,-1,751,750,749,-1,752,749,748,-1,751,743,742,-1,751,742,750,-1,744,746,745,-1,743,746,744,-1,741,747,566,-1,745,747,741,-1,753,754,755,-1,756,757,758,-1,759,760,761,-1,762,757,763,-1,758,764,765,-1,760,754,761,-1,566,747,759,-1,760,746,754,-1,765,761,754,-1,765,764,761,-1,755,751,753,-1,753,766,767,-1,766,768,767,-1,766,749,752,-1,768,763,756,-1,757,756,763,-1,753,749,766,-1,768,756,767,-1,753,767,754,-1,751,749,753,-1,767,756,765,-1,758,765,756,-1,755,746,743,-1,767,765,754,-1,746,755,754,-1,751,755,743,-1,759,747,760,-1,746,760,747,-1,766,202,201,-1,766,201,768,-1,752,196,202,-1,766,752,202,-1,768,201,204,-1,763,204,203,-1,204,763,768,-1,763,203,762,-1,762,195,769,-1,195,762,203,-1,759,282,566,-1,758,770,764,-1,761,771,772,-1,762,773,757,-1,774,757,773,-1,769,773,762,-1,774,770,758,-1,774,758,757,-1,764,771,761,-1,770,771,764,-1,759,772,282,-1,761,772,759,-1,775,776,777,-1,778,287,283,-1,281,779,285,-1,286,287,780,-1,283,284,781,-1,779,776,285,-1,282,772,281,-1,779,771,776,-1,781,285,776,-1,781,284,285,-1,777,774,775,-1,775,782,783,-1,782,784,783,-1,782,773,769,-1,784,780,778,-1,287,778,780,-1,775,773,782,-1,784,778,783,-1,775,783,776,-1,774,773,775,-1,783,778,781,-1,283,781,778,-1,777,771,770,-1,783,781,776,-1,771,777,776,-1,774,777,770,-1,281,772,779,-1,771,779,772,-1,782,205,784,-1,782,769,206,-1,206,205,782,-1,769,195,206,-1,207,784,205,-1,780,207,208,-1,207,780,784,-1,780,208,286,-1,286,209,261,-1,209,286,208,-1,748,196,752,-1,196,748,197,-1,785,198,786,-1,785,257,199,-1,199,198,785,-1,257,192,199,-1,200,786,198,-1,787,200,197,-1,200,787,786,-1,787,197,748,-1,788,789,790,-1,791,750,742,-1,741,792,745,-1,748,750,787,-1,742,744,793,-1,792,789,745,-1,506,794,741,-1,792,795,789,-1,793,745,789,-1,793,744,745,-1,790,796,788,-1,788,785,797,-1,785,786,797,-1,785,798,257,-1,786,787,791,-1,750,791,787,-1,788,798,785,-1,786,791,797,-1,788,797,789,-1,796,798,788,-1,797,791,793,-1,742,793,791,-1,790,795,799,-1,797,793,789,-1,795,790,789,-1,796,790,799,-1,741,794,792,-1,795,792,794,-1,269,506,274,-1,268,799,272,-1,271,795,794,-1,254,798,267,-1,796,267,798,-1,257,798,254,-1,796,799,268,-1,796,268,267,-1,272,795,271,-1,799,795,272,-1,269,794,506,-1,271,794,269,-1,800,801,446,-1,802,803,301,-1,804,347,302,-1,559,805,806,-1,298,297,807,-1,808,459,809,-1,810,558,556,-1,452,390,811,-1,811,809,452,-1,389,812,390,-1,811,390,812,-1,813,389,407,-1,389,813,812,-1,459,808,556,-1,809,459,452,-1,805,558,810,-1,810,556,808,-1,297,559,806,-1,559,558,805,-1,298,807,802,-1,297,806,807,-1,301,803,302,-1,298,802,301,-1,804,800,347,-1,803,804,302,-1,446,347,800,-1,814,813,407,-1,815,816,535,-1,817,537,536,-1,555,818,819,-1,526,525,820,-1,821,387,822,-1,823,388,561,-1,386,560,824,-1,824,822,386,-1,447,825,560,-1,824,560,825,-1,801,447,446,-1,447,801,825,-1,387,821,561,-1,822,387,386,-1,818,388,823,-1,823,561,821,-1,525,555,819,-1,555,388,818,-1,526,820,815,-1,525,819,820,-1,535,816,536,-1,526,815,535,-1,817,814,537,-1,816,817,536,-1,407,537,814,-1,816,815,820,-1,808,801,810,-1,816,819,817,-1,819,816,820,-1,819,818,817,-1,818,823,814,-1,814,817,818,-1,813,823,821,-1,823,813,814,-1,824,809,811,-1,822,812,821,-1,805,810,800,-1,808,825,801,-1,807,803,802,-1,806,804,803,-1,804,806,805,-1,803,807,806,-1,801,800,810,-1,800,804,805,-1,808,809,825,-1,824,825,809,-1,822,811,812,-1,822,824,811,-1,812,813,821,-1,826,827,828,-1,829,830,831,-1,826,832,833,-1,832,826,828,-1,832,834,833,-1,834,835,836,-1,836,833,834,-1,837,835,838,-1,835,837,836,-1,839,840,841,-1,842,843,838,-1,844,831,845,-1,829,846,830,-1,847,848,849,-1,850,851,848,-1,851,850,844,-1,848,847,850,-1,830,845,831,-1,845,851,844,-1,829,840,846,-1,839,846,840,-1,842,841,843,-1,842,839,841,-1,843,837,838,-1,852,853,854,-1,855,856,857,-1,852,858,859,-1,858,852,854,-1,858,860,859,-1,860,861,862,-1,862,859,860,-1,863,861,864,-1,861,863,862,-1,865,866,867,-1,868,869,864,-1,870,857,871,-1,855,872,856,-1,873,874,875,-1,876,877,874,-1,877,876,870,-1,874,873,876,-1,856,871,857,-1,871,877,870,-1,855,866,872,-1,865,872,866,-1,868,867,869,-1,868,865,867,-1,869,863,864,-1,878,879,880,-1,881,882,883,-1,878,884,885,-1,884,878,880,-1,884,886,885,-1,886,887,888,-1,888,885,886,-1,889,887,890,-1,887,889,888,-1,891,892,893,-1,894,895,890,-1,896,883,897,-1,881,898,882,-1,899,900,901,-1,902,903,900,-1,903,902,896,-1,900,899,902,-1,882,897,883,-1,897,903,896,-1,881,892,898,-1,891,898,892,-1,894,893,895,-1,894,891,893,-1,895,889,890,-1,904,905,906,-1,907,908,909,-1,904,910,911,-1,910,904,906,-1,910,912,911,-1,912,913,914,-1,914,911,912,-1,915,913,916,-1,913,915,914,-1,917,918,919,-1,920,921,916,-1,922,909,923,-1,907,924,908,-1,925,926,927,-1,928,929,926,-1,929,928,922,-1,926,925,928,-1,908,923,909,-1,923,929,922,-1,907,918,924,-1,917,924,918,-1,920,919,921,-1,920,917,919,-1,921,915,916,-1,930,931,932,-1,933,934,935,-1,930,936,937,-1,936,930,932,-1,936,938,937,-1,938,939,940,-1,940,937,938,-1,941,939,942,-1,939,941,940,-1,943,944,945,-1,946,947,942,-1,948,935,949,-1,933,950,934,-1,951,952,953,-1,954,955,952,-1,955,954,948,-1,952,951,954,-1,934,949,935,-1,949,955,948,-1,933,944,950,-1,943,950,944,-1,946,945,947,-1,946,943,945,-1,947,941,942,-1,845,830,295,-1,849,848,289,-1,851,294,290,-1,435,844,850,-1,441,442,847,-1,829,312,840,-1,831,434,549,-1,311,310,841,-1,841,840,311,-1,314,843,310,-1,841,310,843,-1,837,314,331,-1,314,837,843,-1,312,829,549,-1,840,312,311,-1,844,434,831,-1,831,549,829,-1,442,435,850,-1,435,434,844,-1,441,847,849,-1,442,850,847,-1,289,848,290,-1,441,849,289,-1,851,845,294,-1,848,851,290,-1,295,294,845,-1,836,837,331,-1,827,826,328,-1,833,440,329,-1,554,834,832,-1,509,508,828,-1,838,438,842,-1,835,553,552,-1,361,514,839,-1,839,842,361,-1,510,846,514,-1,839,514,846,-1,830,510,295,-1,510,830,846,-1,438,838,552,-1,842,438,361,-1,834,553,835,-1,835,552,838,-1,508,554,832,-1,554,553,834,-1,509,828,827,-1,508,832,828,-1,328,826,329,-1,509,827,328,-1,833,836,440,-1,826,833,329,-1,331,440,836,-1,871,856,534,-1,875,874,453,-1,877,406,391,-1,531,870,876,-1,458,457,873,-1,855,455,866,-1,857,530,532,-1,454,575,867,-1,867,866,454,-1,547,869,575,-1,867,575,869,-1,863,547,528,-1,547,863,869,-1,455,855,532,-1,866,455,454,-1,870,530,857,-1,857,532,855,-1,457,531,876,-1,531,530,870,-1,458,873,875,-1,457,876,873,-1,453,874,391,-1,458,875,453,-1,877,871,406,-1,874,877,391,-1,534,406,871,-1,862,863,528,-1,853,852,494,-1,859,548,492,-1,496,860,858,-1,500,540,854,-1,864,489,868,-1,861,498,490,-1,524,523,865,-1,865,868,524,-1,538,872,523,-1,865,523,872,-1,856,538,534,-1,538,856,872,-1,489,864,490,-1,868,489,524,-1,860,498,861,-1,861,490,864,-1,540,496,858,-1,496,498,860,-1,500,854,853,-1,540,858,854,-1,494,852,492,-1,500,853,494,-1,859,862,548,-1,852,859,492,-1,528,548,862,-1,897,882,330,-1,901,900,376,-1,903,410,375,-1,543,896,902,-1,503,504,899,-1,881,404,892,-1,883,587,486,-1,570,572,893,-1,893,892,570,-1,569,895,572,-1,893,572,895,-1,889,569,522,-1,569,889,895,-1,404,881,486,-1,892,404,570,-1,896,587,883,-1,883,486,881,-1,504,543,902,-1,543,587,896,-1,503,899,901,-1,504,902,899,-1,376,900,375,-1,503,901,376,-1,903,897,410,-1,900,903,375,-1,330,410,897,-1,888,889,522,-1,879,878,520,-1,885,574,521,-1,518,886,884,-1,517,516,880,-1,890,507,894,-1,887,551,513,-1,550,327,891,-1,891,894,550,-1,439,898,327,-1,891,327,898,-1,882,439,330,-1,439,882,898,-1,507,890,513,-1,894,507,550,-1,886,551,887,-1,887,513,890,-1,516,518,884,-1,518,551,886,-1,517,880,879,-1,516,884,880,-1,520,878,521,-1,517,879,520,-1,885,888,574,-1,878,885,521,-1,522,574,888,-1,923,908,470,-1,927,926,465,-1,929,469,471,-1,449,922,928,-1,461,460,925,-1,907,296,918,-1,909,451,533,-1,315,303,919,-1,919,918,315,-1,349,921,303,-1,919,303,921,-1,915,349,348,-1,349,915,921,-1,296,907,533,-1,918,296,315,-1,922,451,909,-1,909,533,907,-1,460,449,928,-1,449,451,922,-1,461,925,927,-1,460,928,925,-1,465,926,471,-1,461,927,465,-1,929,923,469,-1,926,929,471,-1,470,469,923,-1,914,915,348,-1,905,904,483,-1,911,484,482,-1,416,912,910,-1,481,423,906,-1,916,474,920,-1,913,415,577,-1,427,426,917,-1,917,920,427,-1,568,924,426,-1,917,426,924,-1,908,568,470,-1,568,908,924,-1,474,916,577,-1,920,474,427,-1,912,415,913,-1,913,577,916,-1,423,416,910,-1,416,415,912,-1,481,906,905,-1,423,910,906,-1,483,904,482,-1,481,905,483,-1,911,914,484,-1,904,911,482,-1,348,484,914,-1,949,934,429,-1,953,952,444,-1,955,428,445,-1,479,948,954,-1,467,477,951,-1,933,419,944,-1,935,413,412,-1,418,414,945,-1,945,944,418,-1,300,947,414,-1,945,414,947,-1,941,300,299,-1,300,941,947,-1,419,933,412,-1,944,419,418,-1,948,413,935,-1,935,412,933,-1,477,479,954,-1,479,413,948,-1,467,951,953,-1,477,954,951,-1,444,952,445,-1,467,953,444,-1,955,949,428,-1,952,955,445,-1,429,428,949,-1,940,941,299,-1,931,930,360,-1,937,512,511,-1,437,938,936,-1,362,515,932,-1,942,342,946,-1,939,436,343,-1,432,433,943,-1,943,946,432,-1,430,950,433,-1,943,433,950,-1,934,430,429,-1,430,934,950,-1,342,942,343,-1,946,342,432,-1,938,436,939,-1,939,343,942,-1,515,437,936,-1,437,436,938,-1,362,932,931,-1,515,936,932,-1,360,930,511,-1,362,931,360,-1,937,940,512,-1,930,937,511,-1,299,512,940,-1,232,194,193,-1,193,256,232,-1,956,235,232,-1,957,956,232,-1,958,957,256,-1,232,256,957,-1,256,959,958,-1,258,960,959,-1,959,256,258,-1,961,960,233,-1,258,233,960,-1,233,242,961,-1,258,190,233,-1,258,188,190,-1,962,229,220,-1,963,962,220,-1,964,963,221,-1,220,221,963,-1,221,965,964,-1,255,966,965,-1,965,221,255,-1,967,966,240,-1,255,240,966,-1,240,245,967,-1,255,218,240,-1,255,216,218,-1,231,115,131,-1,115,231,150,-1,152,150,231,-1,150,152,151,-1,155,168,72,-1,72,65,155,-1,162,161,67,-1,67,66,162,-1,163,67,161,-1,163,74,67,-1,74,228,968,-1,160,74,163,-1,160,228,74,-1,968,75,74,-1,75,35,32,-1,968,969,35,-1,968,35,75,-1,227,3,35,-1,35,969,227,-1,228,227,969,-1,969,968,228,-1,174,970,13,-1,174,13,50,-1,79,41,13,-1,970,170,13,-1,13,170,79,-1,169,970,174,-1,970,169,170,-1,
        ]
    }
}
Shape{
    appearance Appearance {
        material  Material 	{
            diffuseColor 0.8823529411764706 0.8823529411764706 0.8823529411764706
            specularColor 0.7529411764705882 0.7529411764705882 0.7529411764705882
            ambientIntensity 0.2
            transparency 0
            shininess 0.5
        }
    }
    geometry IndexedFaceSet {
        ccw TRUE
        solid FALSE
        coord DEF co Coordinate {
            point [
                -0.4787 0.0991 -0.1969, -0.4787 0.0991 -0.2008, -0.4787 -0.1143 -0.2008, -0.4787 -0.1143 -0.1969, -0.452 -0.1143 -0.2008, -0.452 -0.1143 -0.1969, -0.452 0.0719 -0.2008, -0.452 0.0719 -0.1969, -0.3187 0.0719 -0.2008, -0.3187 0.0719 -0.1969, -0.3187 0.0991 -0.2008, -0.3187 0.0991 -0.1969, -0.2431 -0.0734 -0.2008, -0.2698 -0.0825 -0.2008, -0.252 -0.0598 -0.2008, -0.1097 -0.0598 -0.2008, -0.1142 -0.0825 -0.2008, -0.1364 -0.0598 -0.2008, -0.2342 0.0946 -0.2008, -0.212 0.0719 -0.2008, -0.2298 0.0673 -0.2008, -0.172 0.0719 -0.2008, -0.1498 0.0946 -0.2008, -0.1542 0.0673 -0.2008, -0.132 0.0855 -0.2008, -0.1409 0.0582 -0.2008, -0.172 0.0991 -0.2008, -0.212 0.0991 -0.2008, -0.2431 0.0582 -0.2008, -0.252 0.0855 -0.2008, -0.252 0.0446 -0.2008, -0.2698 0.0673 -0.2008, -0.2786 0.0492 -0.2008, -0.2564 0.0265 -0.2008, -0.2786 -0.0643 -0.2008, -0.2564 -0.0416 -0.2008, -0.2831 -0.0416 -0.2008, -0.2831 0.0265 -0.2008, -0.2298 -0.0825 -0.2008, -0.252 -0.1006 -0.2008, -0.2342 -0.1097 -0.2008, -0.212 -0.087 -0.2008, -0.172 -0.1143 -0.2008, -0.212 -0.1143 -0.2008, -0.172 -0.087 -0.2008, -0.1542 -0.0825 -0.2008, -0.1498 -0.1097 -0.2008, -0.1409 -0.0734 -0.2008, -0.132 -0.1006 -0.2008, -0.1142 0.0673 -0.2008, -0.1364 0.0446 -0.2008, -0.1097 0.0446 -0.2008, -0.0742 0.0991 -0.2008, -0.0475 -0.0008 -0.2008, -0.0742 -0.1143 -0.2008, -0.0475 -0.028 -0.2008, 0.0858 0.0991 -0.2008, -0.0475 0.0719 -0.2008, 0.068 -0.0008 -0.2008, 0.068 -0.028 -0.2008, -0.0475 -0.087 -0.2008, 0.0858 -0.087 -0.2008, 0.0858 -0.1143 -0.2008, 0.0858 0.0719 -0.2008, 0.2947 0.0492 -0.2008, 0.2725 0.0265 -0.2008, 0.2681 0.0446 -0.2008, 0.2992 0.0265 -0.2008, 0.2725 -0.0416 -0.2008, 0.2992 -0.0416 -0.2008, 0.2858 -0.0825 -0.2008, 0.2592 -0.0734 -0.2008, 0.2681 -0.0598 -0.2008, 0.2458 -0.0825 -0.2008, 0.2681 -0.1006 -0.2008, 0.2503 -0.1097 -0.2008, 0.228 -0.087 -0.2008, 0.228 -0.1143 -0.2008, 0.2947 -0.0643 -0.2008, 0.148 -0.087 -0.2008, 0.1214 -0.1143 -0.2008, 0.148 0.0719 -0.2008, 0.1214 0.0991 -0.2008, 0.228 0.0719 -0.2008, 0.2503 0.0946 -0.2008, 0.2458 0.0673 -0.2008, 0.2592 0.0582 -0.2008, 0.2681 0.0855 -0.2008, 0.2858 0.0673 -0.2008, 0.228 0.0991 -0.2008, 0.5125 0.0991 -0.2008, 0.4414 -0.1143 -0.2008, 0.4636 0.0265 -0.2008, 0.3792 0.0446 -0.2008, 0.3347 0.0991 -0.2008, 0.3614 0.0991 -0.2008, 0.3836 0.0265 -0.2008, 0.4858 0.0991 -0.2008, 0.4681 0.0446 -0.2008, 0.4058 -0.1143 -0.2008, 0.4236 -0.0961 -0.2008, -0.1364 0.0446 -0.1969, -0.1097 0.0446 -0.1969, -0.1142 0.0673 -0.1969, -0.132 0.0855 -0.1969, -0.1498 0.0946 -0.1969, -0.172 0.0991 -0.1969, -0.212 0.0991 -0.1969, -0.2342 0.0946 -0.1969, -0.252 0.0855 -0.1969, -0.2698 0.0673 -0.1969, -0.2786 0.0492 -0.1969, -0.2831 0.0265 -0.1969, -0.2831 -0.0416 -0.1969, -0.2786 -0.0643 -0.1969, -0.2698 -0.0825 -0.1969, -0.252 -0.1006 -0.1969, -0.2342 -0.1097 -0.1969, -0.212 -0.1143 -0.1969, -0.172 -0.1143 -0.1969, -0.1498 -0.1097 -0.1969, -0.132 -0.1006 -0.1969, -0.1142 -0.0825 -0.1969, -0.1097 -0.0598 -0.1969, -0.1364 -0.0598 -0.1969, -0.1409 -0.0734 -0.1969, -0.1542 -0.0825 -0.1969, -0.172 -0.087 -0.1969, -0.212 -0.087 -0.1969, -0.2298 -0.0825 -0.1969, -0.2431 -0.0734 -0.1969, -0.252 -0.0598 -0.1969, -0.2564 -0.0416 -0.1969, -0.2564 0.0265 -0.1969, -0.252 0.0446 -0.1969, -0.2431 0.0582 -0.1969, -0.2298 0.0673 -0.1969, -0.212 0.0719 -0.1969, -0.172 0.0719 -0.1969, -0.1542 0.0673 -0.1969, -0.1409 0.0582 -0.1969, -0.0475 0.0719 -0.1969, 0.0858 0.0719 -0.1969, 0.0858 0.0991 -0.1969, -0.0742 0.0991 -0.1969, -0.0742 -0.1143 -0.1969, 0.0858 -0.1143 -0.1969, 0.0858 -0.087 -0.1969, -0.0475 -0.087 -0.1969, -0.0475 -0.028 -0.1969, 0.068 -0.028 -0.1969, 0.068 -0.0008 -0.1969, -0.0475 -0.0008 -0.1969, 0.1214 -0.1143 -0.1969, 0.228 -0.1143 -0.1969, 0.2503 -0.1097 -0.1969, 0.2681 -0.1006 -0.1969, 0.2858 -0.0825 -0.1969, 0.2947 -0.0643 -0.1969, 0.2992 -0.0416 -0.1969, 0.2992 0.0265 -0.1969, 0.2947 0.0492 -0.1969, 0.2858 0.0673 -0.1969, 0.2681 0.0855 -0.1969, 0.2503 0.0946 -0.1969, 0.228 0.0991 -0.1969, 0.1214 0.0991 -0.1969, 0.228 -0.087 -0.1969, 0.148 -0.087 -0.1969, 0.148 0.0719 -0.1969, 0.228 0.0719 -0.1969, 0.2458 0.0673 -0.1969, 0.2592 0.0582 -0.1969, 0.2681 0.0446 -0.1969, 0.2725 0.0265 -0.1969, 0.2725 -0.0416 -0.1969, 0.2681 -0.0598 -0.1969, 0.2592 -0.0734 -0.1969, 0.2458 -0.0825 -0.1969, 0.4058 -0.1143 -0.1969, 0.4414 -0.1143 -0.1969, 0.5125 0.0991 -0.1969, 0.4858 0.0991 -0.1969, 0.4681 0.0446 -0.1969, 0.3792 0.0446 -0.1969, 0.3614 0.0991 -0.1969, 0.3347 0.0991 -0.1969, 0.4636 0.0265 -0.1969, 0.4236 -0.0961 -0.1969, 0.3836 0.0265 -0.1969, 0.3836 0.0265 -0.1969
            ]
        }
        coordIndex [
            0,1,2,-1,0,2,3,-1,3,2,4,-1,3,4,5,-1,5,4,6,-1,5,6,7,-1,7,6,8,-1,7,8,9,-1,9,8,10,-1,9,10,11,-1,11,10,1,-1,11,1,0,-1,6,10,8,-1,6,2,1,-1,6,4,2,-1,10,6,1,-1,12,13,14,-1,15,16,17,-1,18,19,20,-1,21,22,23,-1,23,24,25,-1,26,19,27,-1,28,29,20,-1,30,31,28,-1,32,31,30,-1,30,33,32,-1,14,34,35,-1,33,36,37,-1,38,39,12,-1,40,39,38,-1,41,40,38,-1,42,43,44,-1,45,46,44,-1,47,48,45,-1,17,16,47,-1,25,49,50,-1,16,48,47,-1,48,46,45,-1,46,42,44,-1,43,41,44,-1,43,40,41,-1,12,39,13,-1,13,34,14,-1,34,36,35,-1,35,36,33,-1,37,32,33,-1,28,31,29,-1,20,29,18,-1,18,27,19,-1,26,21,19,-1,26,22,21,-1,22,24,23,-1,24,49,25,-1,49,51,50,-1,52,53,54,-1,53,55,54,-1,52,56,57,-1,55,58,59,-1,60,61,62,-1,62,54,60,-1,60,54,55,-1,58,55,53,-1,53,52,57,-1,56,63,57,-1,64,65,66,-1,67,65,64,-1,67,68,65,-1,67,69,68,-1,70,71,72,-1,73,71,74,-1,75,73,74,-1,75,76,73,-1,76,75,77,-1,68,78,72,-1,79,77,80,-1,81,80,82,-1,83,84,85,-1,79,76,77,-1,86,85,87,-1,74,71,70,-1,70,72,78,-1,78,68,69,-1,86,88,66,-1,88,64,66,-1,88,86,87,-1,87,85,84,-1,89,83,81,-1,84,83,89,-1,80,81,79,-1,89,81,82,-1,90,91,92,-1,93,94,95,-1,93,96,94,-1,97,90,98,-1,92,96,98,-1,92,98,90,-1,91,99,100,-1,96,93,98,-1,91,100,92,-1,100,99,96,-1,94,96,99,-1,101,50,51,-1,101,51,102,-1,102,51,49,-1,102,49,103,-1,103,49,24,-1,103,24,104,-1,104,24,22,-1,104,22,105,-1,105,22,26,-1,105,26,106,-1,106,26,27,-1,106,27,107,-1,107,27,18,-1,107,18,108,-1,108,18,29,-1,108,29,109,-1,109,29,31,-1,109,31,110,-1,110,31,32,-1,110,32,111,-1,111,32,37,-1,111,37,112,-1,112,37,36,-1,112,36,113,-1,113,36,34,-1,113,34,114,-1,114,34,13,-1,114,13,115,-1,115,13,39,-1,115,39,116,-1,116,39,40,-1,116,40,117,-1,117,40,43,-1,117,43,118,-1,118,43,42,-1,118,42,119,-1,119,42,46,-1,119,46,120,-1,120,46,48,-1,120,48,121,-1,121,48,16,-1,121,16,122,-1,122,16,15,-1,122,15,123,-1,123,15,17,-1,123,17,124,-1,124,17,47,-1,124,47,125,-1,125,47,45,-1,125,45,126,-1,126,45,44,-1,126,44,127,-1,127,44,41,-1,127,41,128,-1,128,41,38,-1,128,38,129,-1,129,38,12,-1,129,12,130,-1,130,12,14,-1,130,14,131,-1,131,14,35,-1,131,35,132,-1,132,35,33,-1,132,33,133,-1,133,33,30,-1,133,30,134,-1,134,30,28,-1,134,28,135,-1,135,28,20,-1,135,20,136,-1,136,20,19,-1,136,19,137,-1,137,19,21,-1,137,21,138,-1,138,21,23,-1,138,23,139,-1,139,23,25,-1,139,25,140,-1,140,25,50,-1,140,50,101,-1,141,57,63,-1,141,63,142,-1,142,63,56,-1,142,56,143,-1,143,56,52,-1,143,52,144,-1,144,52,54,-1,144,54,145,-1,145,54,62,-1,145,62,146,-1,146,62,61,-1,146,61,147,-1,147,61,60,-1,147,60,148,-1,148,60,55,-1,148,55,149,-1,149,55,59,-1,149,59,150,-1,150,59,58,-1,150,58,151,-1,151,58,53,-1,151,53,152,-1,152,53,57,-1,152,57,141,-1,153,80,77,-1,153,77,154,-1,154,77,75,-1,154,75,155,-1,155,75,74,-1,155,74,156,-1,156,74,70,-1,156,70,157,-1,157,70,78,-1,157,78,158,-1,158,78,69,-1,158,69,159,-1,159,69,67,-1,159,67,160,-1,160,67,64,-1,160,64,161,-1,161,64,88,-1,161,88,162,-1,162,88,87,-1,162,87,163,-1,163,87,84,-1,163,84,164,-1,164,84,89,-1,164,89,165,-1,165,89,82,-1,165,82,166,-1,166,82,80,-1,166,80,153,-1,167,76,79,-1,167,79,168,-1,168,79,81,-1,168,81,169,-1,169,81,83,-1,169,83,170,-1,170,83,85,-1,170,85,171,-1,171,85,86,-1,171,86,172,-1,172,86,66,-1,172,66,173,-1,173,66,65,-1,173,65,174,-1,174,65,68,-1,174,68,175,-1,175,68,72,-1,175,72,176,-1,176,72,71,-1,176,71,177,-1,177,71,73,-1,177,73,178,-1,178,73,76,-1,178,76,167,-1,179,99,91,-1,179,91,180,-1,180,91,90,-1,180,90,181,-1,181,90,97,-1,181,97,182,-1,182,97,98,-1,182,98,183,-1,183,98,93,-1,183,93,184,-1,184,93,95,-1,184,95,185,-1,185,95,94,-1,185,94,186,-1,186,94,99,-1,186,99,179,-1,187,92,100,-1,187,100,188,-1,188,100,96,-1,188,96,189,-1,189,96,92,-1,189,92,187,-1,
        ]
    }
}