#VRML V2.0 utf8
# 3D model generated by easyeda2kicad.py (https://github.com/uPesy/easyeda2kicad.py)

Shape{
    appearance Appearance {
        material  Material 	{
            diffuseColor 0.20784313725490197 0.20784313725490197 0.20784313725490197
            specularColor 0.01568627450980392 0.01568627450980392 0.01568627450980392
            ambientIntensity 0.2
            transparency 0
            shininess 0.5
        }
    }
    geometry IndexedFaceSet {
        ccw TRUE
        solid FALSE
        coord DEF co Coordinate {
            point [
                -0.1284 0.2335 0.0, -0.1322 0.2311 0.0, -0.1322 0.3937 0.0, -0.1772 -0.2953 0.0, -0.1322 -0.2953 0.0, -0.1322 -0.3189 0.0, -0.2723 -0.1378 0.0, -0.2704 -0.133 0.0, -0.2755 -0.2518 0.0, -0.2723 -0.2559 0.0, -0.2697 0.3248 0.0, -0.2704 0.3299 0.0, -0.2704 -0.2607 0.0, -0.2704 -0.0638 0.0, -0.2723 -0.0591 0.0, -0.2704 0.0638 0.0, -0.2755 -0.055 0.0, -0.2723 0.0591 0.0, -0.2795 0.145 0.0, -0.2843 0.147 0.0, -0.2755 0.2518 0.0, -0.2723 0.3346 0.0, -0.2755 0.3387 0.0, -0.2795 0.3419 0.0, -0.2755 -0.1419 0.0, -0.2795 -0.2487 0.0, -0.2843 -0.2467 0.0, -0.2697 -0.128 0.0, -0.2697 -0.0689 0.0, -0.2755 0.055 0.0, -0.2795 -0.0519 0.0, -0.2843 -0.0499 0.0, -0.2843 0.3438 0.0, -0.2894 0.3445 0.0, -0.3937 0.3937 0.0, -0.3937 0.3445 0.0, -0.1772 0.1988 0.0, -0.2697 0.0689 0.0, -0.2697 0.128 0.0, -0.1695 0.2144 0.0, -0.2755 0.1419 0.0, -0.1727 0.2113 0.0, -0.2723 0.2559 0.0, -0.1657 0.2167 0.0, -0.2704 0.2607 0.0, -0.1614 0.2181 0.0, -0.2697 0.2657 0.0, -0.144 0.2239 0.0, -0.2894 -0.2461 0.0, -0.3937 -0.2461 0.0, -0.3937 -0.1476 0.0, -0.2894 -0.0492 0.0, -0.3937 -0.0492 0.0, -0.3937 0.0492 0.0, -0.2704 0.133 0.0, -0.2723 0.1378 0.0, -0.1767 0.2033 0.0, -0.1751 0.2075 0.0, -0.2894 0.1476 0.0, -0.3937 0.1476 0.0, -0.3937 0.2461 0.0, -0.2894 -0.1476 0.0, -0.2843 -0.147 0.0, -0.2795 -0.145 0.0, -0.2894 0.0492 0.0, -0.2843 0.0499 0.0, -0.2795 0.0519 0.0, -0.2894 0.2461 0.0, -0.2843 0.2467 0.0, -0.2795 0.2487 0.0, -0.2723 -0.3346 0.0, -0.2704 -0.3299 0.0, -0.1322 -0.3587 0.0, -0.2697 -0.3248 0.0, -0.2697 -0.3189 0.0, -0.2697 -0.2657 0.0, -0.2843 -0.3438 0.0, -0.2795 -0.3419 0.0, -0.2755 -0.3387 0.0, -0.2894 -0.3445 0.0, -0.3937 -0.3587 0.0, -0.3937 -0.3445 0.0, 0.0668 -0.3191 0.0, 0.0668 -0.3541 0.0, 0.0503 -0.3189 0.0, 0.052 -0.3541 0.0, 0.0503 -0.3587 0.0, 0.0721 -0.3191 0.0, 0.2697 -0.3189 0.0, 0.0721 -0.3585 0.0, 0.2697 -0.3248 0.0, 0.2704 -0.3299 0.0, 0.2723 -0.3346 0.0, 0.2755 -0.3387 0.0, 0.2795 -0.3419 0.0, 0.052 -0.3585 0.0, 0.3937 -0.3587 0.0, 0.2843 -0.3438 0.0, 0.2894 -0.3445 0.0, 0.3937 -0.3445 0.0, 0.0503 -0.2953 0.0, 0.1772 -0.2953 0.0, 0.0503 0.2953 0.0, 0.2795 0.3419 0.0, 0.1772 0.2953 0.0, 0.2755 0.3387 0.0, 0.2843 0.3438 0.0, 0.0503 0.3937 0.0, 0.2894 0.3445 0.0, 0.3937 0.3937 0.0, 0.3937 0.3445 0.0, 0.2795 0.0519 0.0, 0.2843 -0.0499 0.0, 0.2755 0.055 0.0, 0.2795 -0.0519 0.0, 0.2755 -0.055 0.0, 0.2723 0.3346 0.0, 0.2704 0.3299 0.0, 0.2697 0.3248 0.0, 0.2843 0.147 0.0, 0.2755 0.2518 0.0, 0.2795 0.2487 0.0, 0.2795 0.145 0.0, 0.2755 0.1419 0.0, 0.2723 0.1378 0.0, 0.2697 -0.128 0.0, 0.2704 -0.133 0.0, 0.2723 -0.1378 0.0, 0.2755 -0.1419 0.0, 0.2843 -0.147 0.0, 0.2755 -0.2518 0.0, 0.2795 -0.145 0.0, 0.2704 -0.2607 0.0, 0.2697 -0.2657 0.0, 0.2697 0.2657 0.0, 0.2704 0.2607 0.0, 0.2723 0.2559 0.0, 0.2723 0.0591 0.0, 0.2704 0.0638 0.0, 0.2894 0.0492 0.0, 0.3937 0.0492 0.0, 0.3937 -0.0492 0.0, 0.2723 -0.2559 0.0, 0.2843 0.0499 0.0, 0.2894 -0.0492 0.0, 0.2723 -0.0591 0.0, 0.2704 -0.0638 0.0, 0.2697 -0.0689 0.0, 0.2894 -0.1476 0.0, 0.3937 -0.1476 0.0, 0.3937 -0.2461 0.0, 0.2894 0.2461 0.0, 0.3937 0.2461 0.0, 0.3937 0.1476 0.0, 0.2704 0.133 0.0, 0.2697 0.128 0.0, 0.2697 0.0689 0.0, 0.2894 -0.2461 0.0, 0.2843 -0.2467 0.0, 0.2795 -0.2487 0.0, 0.2843 0.2467 0.0, 0.2894 0.1476 0.0, -0.0133 -0.3189 0.0, -0.0133 -0.2953 0.0, 0.0155 -0.3189 0.0, 0.0155 -0.2953 0.0, -0.0894 0.2933 0.0, -0.0932 0.2908 0.0, -0.0963 0.2876 0.0, -0.0986 0.2838 0.0, -0.1 0.2795 0.0, -0.0503 0.3937 0.0, -0.0807 0.2953 0.0, -0.0852 0.2948 0.0, -0.1058 0.2621 0.0, -0.1154 0.2465 0.0, 0.0155 0.3937 0.0, 0.0155 0.2953 0.0, -0.0133 0.3937 0.0, -0.0133 0.2953 0.0, -0.0503 0.2953 0.0, 0.0193 -0.3521 0.0, 0.0155 -0.3587 0.0, 0.0193 -0.3564 0.0, 0.0235 -0.3581 0.0, 0.0315 -0.3189 0.0, 0.0286 -0.3186 0.0, 0.0251 -0.3189 0.0, 0.0239 -0.3189 0.0, 0.0193 -0.3202 0.0, 0.0193 -0.3255 0.0, 0.0237 -0.3236 0.0, 0.02 -0.3525 0.0, 0.0285 -0.3229 0.0, 0.0324 -0.3234 0.0, 0.0353 -0.3244 0.0, 0.0381 -0.3263 0.0, 0.0405 -0.3289 0.0, 0.0433 -0.3392 0.0, 0.0429 -0.3435 0.0, 0.0418 -0.3468 0.0, 0.0331 -0.3542 0.0, 0.0294 -0.3546 0.0, 0.036 -0.3532 0.0, 0.0384 -0.3515 0.0, 0.0402 -0.3496 0.0, 0.0242 -0.354 0.0, 0.0421 -0.3319 0.0, 0.0431 -0.3361 0.0, 0.042 -0.3551 0.0, 0.0449 -0.352 0.0, 0.047 -0.3482 0.0, 0.0325 -0.3587 0.0, 0.035 -0.3584 0.0, 0.0388 -0.3571 0.0, 0.0465 -0.3295 0.0, 0.0442 -0.3258 0.0, 0.0407 -0.3224 0.0, 0.0369 -0.3202 0.0, 0.0325 -0.3189 0.0, 0.0482 -0.3441 0.0, 0.0486 -0.3395 0.0, 0.048 -0.3339 0.0, 0.0275 -0.3587 0.0, 0.0291 -0.3589 0.0, 0.0155 -0.3937 0.0, 0.0301 -0.3589 0.0, 0.0503 -0.3937 0.0, 0.3937 -0.3937 0.0, -0.3937 -0.3937 0.0, -0.1322 -0.3937 0.0, -0.0503 -0.3937 0.0, -0.0503 -0.3587 0.0, -0.0133 -0.3937 0.0, -0.0133 -0.3587 0.0, 0.0063 -0.3234 0.0, 0.0063 -0.3364 0.0, -0.0085 -0.3234 0.0, -0.0076 -0.3364 0.0, -0.0085 -0.3191 0.0, -0.0076 -0.3407 0.0, 0.0063 -0.3407 0.0, 0.0063 -0.3541 0.0, -0.0095 -0.3541 0.0, -0.0095 -0.3585 0.0, 0.0116 -0.3585 0.0, 0.0116 -0.3191 0.0, -0.0469 -0.3477 0.0, -0.0446 -0.3512 0.0, -0.0414 -0.3543 0.0, -0.0373 -0.3567 0.0, -0.0283 -0.3191 0.0, -0.0503 -0.3189 0.0, -0.0503 -0.2953 0.0, -0.034 -0.3197 0.0, -0.0386 -0.3213 0.0, -0.0429 -0.3242 0.0, -0.0429 -0.3242 0.0, -0.0457 -0.3273 0.0, -0.0475 -0.3307 0.0, -0.0328 -0.358 0.0, -0.0279 -0.3585 0.0, -0.0172 -0.3585 0.0, -0.0172 -0.3191 0.0, -0.0486 -0.3346 0.0, -0.0489 -0.3383 0.0, -0.0483 -0.3436 0.0, -0.0815 -0.3585 0.0, -0.0873 -0.3585 0.0, -0.0719 -0.3191 0.0, -0.0775 -0.3474 0.0, -0.0613 -0.3474 0.0, -0.0575 -0.3585 0.0, -0.0518 -0.3585 0.0, -0.0666 -0.3191 0.0, -0.3937 -0.3937 0.2087, -0.3001 -0.3937 0.0306, 0.1605 -0.3937 0.0716, 0.3937 -0.3937 0.2087, 0.3001 -0.3937 0.0716, -0.1605 -0.3937 0.0306, -0.1605 -0.3937 0.0716, -0.3001 -0.3937 0.0716, 0.1605 -0.3937 0.0306, 0.3001 -0.3937 0.0306, 0.3937 -0.2461 0.0984, 0.3937 0.3937 0.2087, 0.3937 -0.3445 0.0984, 0.3937 -0.0492 0.0984, 0.3937 0.0492 0.0984, 0.3937 0.1476 0.0984, 0.3937 -0.1476 0.0984, 0.3937 0.3445 0.0984, 0.3937 0.2461 0.0984, -0.3937 -0.1476 0.0984, -0.3937 -0.2461 0.0984, -0.3937 0.0492 0.0984, -0.3937 0.3937 0.2087, -0.3937 0.3445 0.0984, -0.3937 0.2461 0.0984, -0.3937 -0.3445 0.0984, -0.3937 -0.0492 0.0984, -0.3937 0.1476 0.0984, 0.1605 0.3937 0.0716, -0.1605 0.3937 0.0306, -0.1605 0.3937 0.0716, 0.1605 0.3937 0.0306, 0.3001 0.3937 0.0306, 0.3001 0.3937 0.0716, -0.3001 0.3937 0.0716, -0.3001 0.3937 0.0306, -0.3588 0.2881 0.2087, -0.3665 0.2981 0.2087, -0.278 0.3348 0.2087, -0.2828 0.3464 0.2087, -0.2905 0.3564 0.2087, -0.2828 0.2981 0.2087, -0.278 0.3098 0.2087, -0.2763 0.3223 0.2087, -0.3121 0.3689 0.2087, -0.3005 0.3641 0.2087, -0.3246 0.274 0.2087, -0.3371 0.2756 0.2087, -0.3488 0.2804 0.2087, -0.2905 0.2881 0.2087, -0.3005 0.2804 0.2087, -0.3121 0.2756 0.2087, -0.3713 0.3098 0.2087, -0.3729 0.3223 0.2087, -0.3713 0.3348 0.2087, -0.3665 0.3464 0.2087, -0.3588 0.3564 0.2087, -0.3488 0.3641 0.2087, -0.3371 0.3689 0.2087, -0.3246 0.3706 0.2087, -0.3246 0.3706 0.2087
            ]
        }
        coordIndex [
            0,1,2,-1,3,4,5,-1,6,7,8,-1,8,7,9,-1,10,11,2,-1,3,12,9,-1,13,14,15,-1,15,14,16,-1,15,16,17,-1,18,19,20,-1,11,21,2,-1,2,21,22,-1,2,22,23,-1,6,8,24,-1,24,8,25,-1,24,25,26,-1,9,7,3,-1,3,7,27,-1,3,27,28,-1,17,16,29,-1,29,16,30,-1,29,30,31,-1,23,32,2,-1,2,32,33,-1,2,33,34,-1,34,33,35,-1,28,13,3,-1,3,13,15,-1,3,15,36,-1,36,15,37,-1,36,37,38,-1,18,39,40,-1,40,39,41,-1,18,20,39,-1,39,20,42,-1,39,42,43,-1,43,42,44,-1,43,44,45,-1,10,2,46,-1,46,2,1,-1,46,1,44,-1,44,1,47,-1,44,47,45,-1,48,49,50,-1,51,52,53,-1,38,54,36,-1,36,54,55,-1,36,55,56,-1,56,55,40,-1,56,40,57,-1,57,40,41,-1,58,59,60,-1,50,61,48,-1,48,61,62,-1,48,62,26,-1,26,62,63,-1,26,63,24,-1,53,64,51,-1,51,64,65,-1,51,65,31,-1,31,65,66,-1,31,66,29,-1,60,67,58,-1,58,67,68,-1,58,68,19,-1,19,68,69,-1,19,69,20,-1,70,71,72,-1,72,71,5,-1,71,73,5,-1,5,73,74,-1,5,74,3,-1,3,74,75,-1,3,75,12,-1,76,77,72,-1,72,77,78,-1,72,78,70,-1,76,72,79,-1,79,72,80,-1,79,80,81,-1,82,83,84,-1,84,83,85,-1,84,85,86,-1,87,88,89,-1,89,88,90,-1,89,90,91,-1,91,92,89,-1,89,92,93,-1,89,93,94,-1,85,95,86,-1,86,95,89,-1,86,89,96,-1,94,97,89,-1,89,97,98,-1,89,98,96,-1,96,98,99,-1,84,100,101,-1,102,103,104,-1,104,103,105,-1,106,107,108,-1,108,107,109,-1,108,109,110,-1,111,112,113,-1,113,112,114,-1,113,114,115,-1,105,116,104,-1,104,116,117,-1,104,117,118,-1,119,120,121,-1,119,122,120,-1,120,122,123,-1,120,123,124,-1,125,126,101,-1,101,126,127,-1,101,127,128,-1,129,130,131,-1,131,130,128,-1,132,133,101,-1,101,133,88,-1,101,88,84,-1,84,88,87,-1,84,87,82,-1,118,134,104,-1,104,134,135,-1,104,135,101,-1,101,135,136,-1,101,136,120,-1,113,101,137,-1,137,101,138,-1,139,140,141,-1,128,130,101,-1,101,130,142,-1,101,142,132,-1,111,143,112,-1,112,143,139,-1,112,139,144,-1,144,139,141,-1,115,145,113,-1,113,145,146,-1,113,146,101,-1,101,146,147,-1,101,147,125,-1,148,149,150,-1,151,152,153,-1,124,154,120,-1,120,154,155,-1,120,155,101,-1,101,155,156,-1,101,156,138,-1,150,157,148,-1,148,157,158,-1,148,158,129,-1,129,158,159,-1,129,159,130,-1,121,160,119,-1,119,160,151,-1,119,151,161,-1,161,151,153,-1,162,163,164,-1,164,163,165,-1,166,167,2,-1,167,168,2,-1,2,168,169,-1,2,169,170,-1,171,172,2,-1,2,172,173,-1,2,173,166,-1,170,174,2,-1,2,174,175,-1,2,175,0,-1,106,103,107,-1,107,103,102,-1,107,102,176,-1,176,102,177,-1,176,177,178,-1,178,177,179,-1,178,179,171,-1,171,179,180,-1,171,180,172,-1,164,181,182,-1,182,181,183,-1,182,183,184,-1,185,186,165,-1,165,186,187,-1,165,187,164,-1,164,187,188,-1,188,189,164,-1,164,189,190,-1,164,190,181,-1,181,190,191,-1,181,191,192,-1,192,191,193,-1,192,193,194,-1,194,195,192,-1,192,195,196,-1,192,196,197,-1,198,199,192,-1,192,199,200,-1,201,202,203,-1,203,202,204,-1,200,205,192,-1,192,205,204,-1,192,204,206,-1,206,204,202,-1,197,207,192,-1,192,207,208,-1,192,208,198,-1,209,210,86,-1,86,210,211,-1,212,213,86,-1,86,213,214,-1,86,214,209,-1,215,216,84,-1,84,216,217,-1,84,217,218,-1,165,100,185,-1,185,100,84,-1,185,84,219,-1,219,84,218,-1,211,220,86,-1,86,220,221,-1,86,221,84,-1,84,221,222,-1,84,222,215,-1,223,224,225,-1,224,226,225,-1,225,226,212,-1,225,212,227,-1,227,212,86,-1,227,86,228,-1,228,86,96,-1,229,80,230,-1,230,80,72,-1,230,72,231,-1,231,72,232,-1,231,232,233,-1,233,232,234,-1,233,234,225,-1,225,234,182,-1,225,182,223,-1,223,182,184,-1,235,236,237,-1,237,236,238,-1,164,239,162,-1,162,239,237,-1,162,237,234,-1,234,237,238,-1,234,238,240,-1,241,242,240,-1,240,242,243,-1,240,243,234,-1,234,243,244,-1,234,244,182,-1,182,244,245,-1,182,245,164,-1,164,245,246,-1,164,246,239,-1,247,248,232,-1,232,248,249,-1,232,249,250,-1,251,252,162,-1,162,252,253,-1,162,253,163,-1,251,254,252,-1,252,254,255,-1,252,255,256,-1,256,257,252,-1,252,257,258,-1,252,258,259,-1,250,260,232,-1,232,260,261,-1,232,261,234,-1,234,261,262,-1,234,262,162,-1,162,262,263,-1,162,263,251,-1,259,264,252,-1,252,264,265,-1,252,265,232,-1,232,265,266,-1,232,266,247,-1,267,232,268,-1,268,232,72,-1,268,72,269,-1,269,72,5,-1,269,5,252,-1,252,5,4,-1,252,4,253,-1,270,271,267,-1,267,271,272,-1,267,272,232,-1,232,272,273,-1,232,273,252,-1,252,273,274,-1,252,274,269,-1,275,229,276,-1,275,277,278,-1,278,277,279,-1,278,279,228,-1,276,229,280,-1,280,229,230,-1,280,230,281,-1,281,230,231,-1,281,231,233,-1,276,282,275,-1,275,282,281,-1,275,281,277,-1,277,281,233,-1,233,225,277,-1,277,225,227,-1,277,227,283,-1,283,227,228,-1,283,228,284,-1,284,228,279,-1,285,286,278,-1,96,99,287,-1,288,141,140,-1,285,278,287,-1,287,278,228,-1,287,228,96,-1,289,290,286,-1,140,289,288,-1,288,289,286,-1,288,286,291,-1,291,286,285,-1,291,285,149,-1,149,285,150,-1,110,109,292,-1,292,109,286,-1,292,286,293,-1,293,286,290,-1,293,290,152,-1,152,290,153,-1,80,229,275,-1,50,49,294,-1,294,49,295,-1,296,53,52,-1,34,35,297,-1,297,35,298,-1,297,298,299,-1,81,80,300,-1,300,80,275,-1,300,275,295,-1,295,275,297,-1,295,297,294,-1,294,297,301,-1,60,59,299,-1,299,59,302,-1,299,302,297,-1,297,302,296,-1,297,296,301,-1,301,296,52,-1,303,304,305,-1,176,303,107,-1,107,303,306,-1,107,306,109,-1,109,306,307,-1,109,307,286,-1,286,307,308,-1,308,303,286,-1,286,303,305,-1,286,305,297,-1,297,305,309,-1,297,309,34,-1,34,309,310,-1,34,310,2,-1,2,310,304,-1,2,304,171,-1,171,304,303,-1,171,303,178,-1,178,303,176,-1,311,312,275,-1,313,286,314,-1,314,286,315,-1,316,278,317,-1,317,278,286,-1,317,286,318,-1,318,286,313,-1,297,319,286,-1,286,319,320,-1,286,320,315,-1,321,322,275,-1,275,322,323,-1,275,323,311,-1,316,324,278,-1,278,324,325,-1,278,325,275,-1,275,325,326,-1,275,326,321,-1,312,327,275,-1,275,327,328,-1,275,328,297,-1,297,328,329,-1,329,330,297,-1,297,330,331,-1,297,331,332,-1,332,333,297,-1,297,333,334,-1,297,334,319,-1,
        ]
    }
}
Shape{
    appearance Appearance {
        material  Material 	{
            diffuseColor 0.8313725490196079 0.8313725490196079 0.8196078431372549
            specularColor 0.6666666666666666 0.6666666666666666 0.6549019607843137
            ambientIntensity 0.2
            transparency 0
            shininess 0.5
        }
    }
    geometry IndexedFaceSet {
        ccw TRUE
        solid FALSE
        coord DEF co Coordinate {
            point [
                -0.3976 0.3445 0.0984, -0.3976 0.2461 0.0984, -0.3937 0.3445 0.0984, -0.3937 0.2461 0.0984, -0.2894 0.3445 0.0, -0.2894 0.3445 -0.0079, -0.3937 0.3445 0.0, -0.3976 0.3445 -0.0079, -0.2843 0.3438 0.0, -0.2843 0.3438 -0.0079, -0.2795 0.3419 0.0, -0.2795 0.3419 -0.0079, -0.2755 0.3387 0.0, -0.2755 0.3387 -0.0079, -0.2723 0.3346 0.0, -0.2723 0.3346 -0.0079, -0.2704 0.3299 0.0, -0.2704 0.3299 -0.0079, -0.2697 0.3248 0.0, -0.2697 0.3248 -0.0079, -0.2697 0.2657 0.0, -0.2697 0.2657 -0.0079, -0.2704 0.2607 0.0, -0.2704 0.2607 -0.0079, -0.2723 0.2559 0.0, -0.2723 0.2559 -0.0079, -0.2755 0.2518 0.0, -0.2755 0.2518 -0.0079, -0.2795 0.2487 0.0, -0.2795 0.2487 -0.0079, -0.2843 0.2467 0.0, -0.2843 0.2467 -0.0079, -0.2894 0.2461 0.0, -0.2894 0.2461 -0.0079, -0.3937 0.2461 0.0, -0.3976 0.2461 -0.0079, -0.3937 0.1476 0.0984, -0.3976 0.1476 0.0984, -0.3937 0.0492 0.0984, -0.3976 0.0492 0.0984, -0.2894 0.1476 0.0, -0.2894 0.1476 -0.0079, -0.3937 0.1476 0.0, -0.3976 0.1476 -0.0079, -0.2843 0.147 0.0, -0.2843 0.147 -0.0079, -0.2795 0.145 0.0, -0.2795 0.145 -0.0079, -0.2755 0.1419 0.0, -0.2755 0.1419 -0.0079, -0.2723 0.1378 0.0, -0.2723 0.1378 -0.0079, -0.2704 0.133 0.0, -0.2704 0.133 -0.0079, -0.2697 0.128 0.0, -0.2697 0.128 -0.0079, -0.2697 0.0689 0.0, -0.2697 0.0689 -0.0079, -0.2704 0.0638 0.0, -0.2704 0.0638 -0.0079, -0.2723 0.0591 0.0, -0.2723 0.0591 -0.0079, -0.2755 0.055 0.0, -0.2755 0.055 -0.0079, -0.2795 0.0519 0.0, -0.2795 0.0519 -0.0079, -0.2843 0.0499 0.0, -0.2843 0.0499 -0.0079, -0.2894 0.0492 0.0, -0.2894 0.0492 -0.0079, -0.3937 0.0492 0.0, -0.3976 0.0492 -0.0079, -0.3937 -0.0492 0.0984, -0.3976 -0.0492 0.0984, -0.3937 -0.1476 0.0984, -0.3976 -0.1476 0.0984, -0.2894 -0.0492 0.0, -0.2894 -0.0492 -0.0079, -0.3937 -0.0492 0.0, -0.3976 -0.0492 -0.0079, -0.2843 -0.0499 0.0, -0.2843 -0.0499 -0.0079, -0.2795 -0.0519 0.0, -0.2795 -0.0519 -0.0079, -0.2755 -0.055 0.0, -0.2755 -0.055 -0.0079, -0.2723 -0.0591 0.0, -0.2723 -0.0591 -0.0079, -0.2704 -0.0638 0.0, -0.2704 -0.0638 -0.0079, -0.2697 -0.0689 0.0, -0.2697 -0.0689 -0.0079, -0.2697 -0.128 0.0, -0.2697 -0.128 -0.0079, -0.2704 -0.133 0.0, -0.2704 -0.133 -0.0079, -0.2723 -0.1378 0.0, -0.2723 -0.1378 -0.0079, -0.2755 -0.1419 0.0, -0.2755 -0.1419 -0.0079, -0.2795 -0.145 0.0, -0.2795 -0.145 -0.0079, -0.2843 -0.147 0.0, -0.2843 -0.147 -0.0079, -0.2894 -0.1476 0.0, -0.2894 -0.1476 -0.0079, -0.3937 -0.1476 0.0, -0.3976 -0.1476 -0.0079, -0.3937 -0.2461 0.0984, -0.3976 -0.2461 0.0984, -0.3937 -0.3445 0.0984, -0.3976 -0.3445 0.0984, -0.2894 -0.2461 0.0, -0.2894 -0.2461 -0.0079, -0.3937 -0.2461 0.0, -0.3976 -0.2461 -0.0079, -0.2843 -0.2467 0.0, -0.2843 -0.2467 -0.0079, -0.2795 -0.2487 0.0, -0.2795 -0.2487 -0.0079, -0.2755 -0.2518 0.0, -0.2755 -0.2518 -0.0079, -0.2723 -0.2559 0.0, -0.2723 -0.2559 -0.0079, -0.2704 -0.2607 0.0, -0.2704 -0.2607 -0.0079, -0.2697 -0.2657 0.0, -0.2697 -0.2657 -0.0079, -0.2697 -0.3248 -0.0079, -0.2697 -0.3189 0.0, -0.2697 -0.3248 0.0, -0.2704 -0.3299 0.0, -0.2704 -0.3299 -0.0079, -0.2723 -0.3346 0.0, -0.2723 -0.3346 -0.0079, -0.2755 -0.3387 0.0, -0.2755 -0.3387 -0.0079, -0.2795 -0.3419 0.0, -0.2795 -0.3419 -0.0079, -0.2843 -0.3438 0.0, -0.2843 -0.3438 -0.0079, -0.2894 -0.3445 0.0, -0.2894 -0.3445 -0.0079, -0.3937 -0.3445 0.0, -0.3976 -0.3445 -0.0079, 0.2894 -0.3445 -0.0079, 0.2894 -0.3445 0.0, 0.2843 -0.3438 0.0, 0.2843 -0.3438 -0.0079, 0.2795 -0.3419 0.0, 0.2795 -0.3419 -0.0079, 0.2755 -0.3387 0.0, 0.2755 -0.3387 -0.0079, 0.2723 -0.3346 0.0, 0.2723 -0.3346 -0.0079, 0.2704 -0.3299 0.0, 0.2704 -0.3299 -0.0079, 0.2697 -0.3248 0.0, 0.2697 -0.3248 -0.0079, 0.2697 -0.2657 0.0, 0.2697 -0.2657 -0.0079, 0.2697 -0.3189 0.0, 0.2704 -0.2607 0.0, 0.2704 -0.2607 -0.0079, 0.2723 -0.2559 0.0, 0.2723 -0.2559 -0.0079, 0.2755 -0.2518 0.0, 0.2755 -0.2518 -0.0079, 0.2795 -0.2487 0.0, 0.2795 -0.2487 -0.0079, 0.2843 -0.2467 0.0, 0.2843 -0.2467 -0.0079, 0.2894 -0.2461 0.0, 0.2894 -0.2461 -0.0079, 0.3937 -0.2461 0.0984, 0.3976 -0.2461 0.0984, 0.3937 -0.2461 0.0, 0.3976 -0.2461 -0.0079, 0.3937 -0.3445 0.0, 0.3976 -0.3445 -0.0079, 0.3937 -0.3445 0.0984, 0.3976 -0.3445 0.0984, 0.2894 -0.1476 -0.0079, 0.2894 -0.1476 0.0, 0.2843 -0.147 0.0, 0.2843 -0.147 -0.0079, 0.2795 -0.145 0.0, 0.2795 -0.145 -0.0079, 0.2755 -0.1419 0.0, 0.2755 -0.1419 -0.0079, 0.2723 -0.1378 0.0, 0.2723 -0.1378 -0.0079, 0.2704 -0.133 0.0, 0.2704 -0.133 -0.0079, 0.2697 -0.128 0.0, 0.2697 -0.128 -0.0079, 0.2697 -0.0689 0.0, 0.2697 -0.0689 -0.0079, 0.2704 -0.0638 0.0, 0.2704 -0.0638 -0.0079, 0.2723 -0.0591 0.0, 0.2723 -0.0591 -0.0079, 0.2755 -0.055 0.0, 0.2755 -0.055 -0.0079, 0.2795 -0.0519 0.0, 0.2795 -0.0519 -0.0079, 0.2843 -0.0499 0.0, 0.2843 -0.0499 -0.0079, 0.2894 -0.0492 0.0, 0.2894 -0.0492 -0.0079, 0.3937 -0.0492 0.0984, 0.3976 -0.0492 0.0984, 0.3937 -0.0492 0.0, 0.3976 -0.0492 -0.0079, 0.3937 -0.1476 0.0, 0.3976 -0.1476 -0.0079, 0.3937 -0.1476 0.0984, 0.3976 -0.1476 0.0984, 0.2894 0.0492 -0.0079, 0.2894 0.0492 0.0, 0.2843 0.0499 0.0, 0.2843 0.0499 -0.0079, 0.2795 0.0519 0.0, 0.2795 0.0519 -0.0079, 0.2755 0.055 0.0, 0.2755 0.055 -0.0079, 0.2723 0.0591 0.0, 0.2723 0.0591 -0.0079, 0.2704 0.0638 0.0, 0.2704 0.0638 -0.0079, 0.2697 0.0689 0.0, 0.2697 0.0689 -0.0079, 0.2697 0.128 0.0, 0.2697 0.128 -0.0079, 0.2704 0.133 0.0, 0.2704 0.133 -0.0079, 0.2723 0.1378 0.0, 0.2723 0.1378 -0.0079, 0.2755 0.1419 0.0, 0.2755 0.1419 -0.0079, 0.2795 0.145 0.0, 0.2795 0.145 -0.0079, 0.2843 0.147 0.0, 0.2843 0.147 -0.0079, 0.2894 0.1476 0.0, 0.2894 0.1476 -0.0079, 0.3937 0.1476 0.0984, 0.3976 0.1476 0.0984, 0.3937 0.1476 0.0, 0.3976 0.1476 -0.0079, 0.3937 0.0492 0.0, 0.3976 0.0492 -0.0079, 0.3937 0.0492 0.0984, 0.3976 0.0492 0.0984, 0.2894 0.2461 -0.0079, 0.2894 0.2461 0.0, 0.2843 0.2467 0.0, 0.2843 0.2467 -0.0079, 0.2795 0.2487 0.0, 0.2795 0.2487 -0.0079, 0.2755 0.2518 0.0, 0.2755 0.2518 -0.0079, 0.2723 0.2559 0.0, 0.2723 0.2559 -0.0079, 0.2704 0.2607 0.0, 0.2704 0.2607 -0.0079, 0.2697 0.2657 0.0, 0.2697 0.2657 -0.0079, 0.2697 0.3248 0.0, 0.2697 0.3248 -0.0079, 0.2704 0.3299 0.0, 0.2704 0.3299 -0.0079, 0.2723 0.3346 0.0, 0.2723 0.3346 -0.0079, 0.2755 0.3387 0.0, 0.2755 0.3387 -0.0079, 0.2795 0.3419 0.0, 0.2795 0.3419 -0.0079, 0.2843 0.3438 0.0, 0.2843 0.3438 -0.0079, 0.2894 0.3445 0.0, 0.2894 0.3445 -0.0079, 0.3937 0.3445 0.0984, 0.3976 0.3445 0.0984, 0.3937 0.3445 0.0, 0.3976 0.3445 -0.0079, 0.3937 0.2461 0.0, 0.3976 0.2461 -0.0079, 0.3937 0.2461 0.0984, 0.3976 0.2461 0.0984, 0.1772 -0.2953 0.0, 0.1772 -0.2953 -0.0079, 0.1772 0.2953 0.0, 0.1772 0.2953 -0.0079, -0.1322 -0.2953 0.0, -0.1772 -0.2953 0.0, -0.1772 -0.2953 -0.0079, 0.0503 -0.2953 0.0, 0.0155 -0.2953 0.0, -0.0133 -0.2953 0.0, -0.0503 -0.2953 0.0, -0.1772 0.1988 0.0, -0.1772 0.1988 -0.0079, -0.1767 0.2033 0.0, -0.1767 0.2033 -0.0079, -0.1751 0.2075 0.0, -0.1751 0.2075 -0.0079, -0.1727 0.2113 0.0, -0.1727 0.2113 -0.0079, -0.1695 0.2144 0.0, -0.1695 0.2144 -0.0079, -0.1657 0.2167 0.0, -0.1657 0.2167 -0.0079, -0.1614 0.2181 0.0, -0.1614 0.2181 -0.0079, -0.144 0.2239 -0.0079, -0.144 0.2239 0.0, -0.1322 0.2311 0.0, -0.1284 0.2335 -0.0079, -0.1284 0.2335 0.0, -0.1154 0.2465 -0.0079, -0.1154 0.2465 0.0, -0.1058 0.2621 -0.0079, -0.1058 0.2621 0.0, -0.1 0.2795 -0.0079, -0.1 0.2795 0.0, -0.0986 0.2838 0.0, -0.0986 0.2838 -0.0079, -0.0963 0.2876 0.0, -0.0963 0.2876 -0.0079, -0.0932 0.2908 0.0, -0.0932 0.2908 -0.0079, -0.0894 0.2933 0.0, -0.0894 0.2933 -0.0079, -0.0852 0.2948 0.0, -0.0852 0.2948 -0.0079, -0.0807 0.2953 0.0, -0.0807 0.2953 -0.0079, -0.0503 0.2953 0.0, -0.0133 0.2953 0.0, 0.0155 0.2953 0.0, 0.0503 0.2953 0.0, -0.3001 -0.3976 0.0306, -0.3001 -0.3976 0.0716, -0.3001 -0.3937 0.0306, -0.3001 -0.3937 0.0716, -0.1605 -0.3976 0.0306, -0.1605 -0.3937 0.0306, -0.1605 -0.3976 0.0716, -0.1605 -0.3937 0.0716, 0.1605 -0.3976 0.0716, 0.3001 -0.3976 0.0716, 0.1605 -0.3937 0.0716, 0.3001 -0.3937 0.0716, 0.1605 -0.3976 0.0306, 0.1605 -0.3937 0.0306, 0.3001 -0.3976 0.0306, 0.3001 -0.3937 0.0306, -0.3001 0.3976 0.0716, -0.3001 0.3976 0.0306, -0.3001 0.3937 0.0716, -0.3001 0.3937 0.0306, -0.1605 0.3976 0.0716, -0.1605 0.3937 0.0716, -0.1605 0.3976 0.0306, -0.1605 0.3937 0.0306, 0.3001 0.3976 0.0716, 0.1605 0.3976 0.0716, 0.3001 0.3937 0.0716, 0.1605 0.3937 0.0716, 0.3001 0.3976 0.0306, 0.3001 0.3937 0.0306, 0.1605 0.3976 0.0306, 0.1605 0.3937 0.0306, -0.2763 0.3223 0.2047, -0.2763 0.3223 0.2087, -0.278 0.3348 0.2047, -0.278 0.3348 0.2087, -0.2828 0.3464 0.2047, -0.2828 0.3464 0.2087, -0.2905 0.3564 0.2047, -0.2905 0.3564 0.2087, -0.3005 0.3641 0.2047, -0.3005 0.3641 0.2087, -0.3121 0.3689 0.2047, -0.3121 0.3689 0.2087, -0.3246 0.3706 0.2047, -0.3246 0.3706 0.2087, -0.3371 0.3689 0.2047, -0.3371 0.3689 0.2087, -0.3488 0.3641 0.2047, -0.3488 0.3641 0.2087, -0.3588 0.3564 0.2047, -0.3588 0.3564 0.2087, -0.3665 0.3464 0.2047, -0.3665 0.3464 0.2087, -0.3713 0.3348 0.2047, -0.3713 0.3348 0.2087, -0.3729 0.3223 0.2047, -0.3729 0.3223 0.2087, -0.3713 0.3098 0.2047, -0.3713 0.3098 0.2087, -0.3665 0.2981 0.2047, -0.3665 0.2981 0.2087, -0.3588 0.2881 0.2047, -0.3588 0.2881 0.2087, -0.3488 0.2804 0.2047, -0.3488 0.2804 0.2087, -0.3371 0.2756 0.2047, -0.3371 0.2756 0.2087, -0.3246 0.274 0.2047, -0.3246 0.274 0.2087, -0.3121 0.2756 0.2047, -0.3121 0.2756 0.2087, -0.3005 0.2804 0.2047, -0.3005 0.2804 0.2087, -0.2905 0.2881 0.2047, -0.2905 0.2881 0.2087, -0.2828 0.2981 0.2047, -0.2828 0.2981 0.2087, -0.278 0.3098 0.2047, -0.278 0.3098 0.2087, -0.3246 0.3223 0.2047, -0.0626 -0.3431 0.0039, -0.0613 -0.3474 0.0039, -0.0758 -0.3431 0.0039, -0.0775 -0.3474 0.0039, -0.0685 -0.3267 0.0039, -0.0666 -0.3191 0.0039, -0.0518 -0.3585 0.0039, -0.0575 -0.3585 0.0039, -0.0689 -0.3253 0.0039, -0.0691 -0.3239 0.0039, -0.0719 -0.3191 0.0039, -0.0692 -0.3239 0.0039, -0.0695 -0.3253 0.0039, -0.0698 -0.3267 0.0039, -0.0873 -0.3585 0.0039, -0.0815 -0.3585 0.0039, -0.0775 -0.3474 0.0, -0.0815 -0.3585 0.0, -0.0613 -0.3474 0.0, -0.0575 -0.3585 0.0, -0.0518 -0.3585 0.0, -0.0666 -0.3191 0.0, -0.0719 -0.3191 0.0, -0.0873 -0.3585 0.0, -0.0698 -0.3267 0.0, -0.0695 -0.3253 0.0, -0.0692 -0.3239 0.0, -0.0691 -0.3239 0.0, -0.0689 -0.3253 0.0, -0.0685 -0.3267 0.0, -0.0626 -0.3431 0.0, -0.0758 -0.3431 0.0, -0.0283 -0.3191 0.0039, -0.0283 -0.3191 0.0, -0.0172 -0.3191 0.0039, -0.0172 -0.3191 0.0, -0.034 -0.3197 0.0039, -0.034 -0.3197 0.0, -0.0386 -0.3213 0.0039, -0.0386 -0.3213 0.0, -0.0429 -0.3242 0.0039, -0.0429 -0.3242 0.0, -0.0429 -0.3242 0.0039, -0.0429 -0.3242 0.0, -0.0457 -0.3273 0.0039, -0.0457 -0.3273 0.0, -0.0475 -0.3307 0.0039, -0.0475 -0.3307 0.0, -0.0486 -0.3346 0.0039, -0.0486 -0.3346 0.0, -0.0489 -0.3383 0.0039, -0.0489 -0.3383 0.0, -0.0483 -0.3436 0.0039, -0.0483 -0.3436 0.0, -0.0469 -0.3477 0.0039, -0.0469 -0.3477 0.0, -0.0446 -0.3512 0.0039, -0.0446 -0.3512 0.0, -0.0414 -0.3543 0.0039, -0.0414 -0.3543 0.0, -0.0373 -0.3567 0.0039, -0.0373 -0.3567 0.0, -0.0328 -0.358 0.0039, -0.0328 -0.358 0.0, -0.0279 -0.3585 0.0039, -0.0279 -0.3585 0.0, -0.0172 -0.3585 0.0039, -0.0172 -0.3585 0.0, -0.041 -0.3289 0.0039, -0.0391 -0.3269 0.0039, -0.0362 -0.325 0.0039, -0.0329 -0.3239 0.0039, -0.0283 -0.3234 0.0039, -0.0225 -0.3234 0.0039, -0.0225 -0.3541 0.0039, -0.0281 -0.3541 0.0039, -0.0322 -0.3538 0.0039, -0.0355 -0.3527 0.0039, -0.0382 -0.3511 0.0039, -0.0404 -0.3489 0.0039, -0.0421 -0.3462 0.0039, -0.0432 -0.3425 0.0039, -0.0436 -0.3384 0.0039, -0.0433 -0.3345 0.0039, -0.0423 -0.3314 0.0039, -0.0281 -0.3541 0.0, -0.0225 -0.3541 0.0, -0.0322 -0.3538 0.0, -0.0355 -0.3527 0.0, -0.0382 -0.3511 0.0, -0.0404 -0.3489 0.0, -0.0421 -0.3462 0.0, -0.0432 -0.3425 0.0, -0.0436 -0.3384 0.0, -0.0433 -0.3345 0.0, -0.0423 -0.3314 0.0, -0.041 -0.3289 0.0, -0.0391 -0.3269 0.0, -0.0362 -0.325 0.0, -0.0329 -0.3239 0.0, -0.0283 -0.3234 0.0, -0.0225 -0.3234 0.0, 0.0116 -0.3191 0.0039, 0.0116 -0.3191 0.0, 0.0116 -0.3585 0.0039, 0.0116 -0.3585 0.0, -0.0085 -0.3191 0.0039, -0.0085 -0.3191 0.0, -0.0085 -0.3234 0.0039, -0.0085 -0.3234 0.0, 0.0063 -0.3234 0.0039, 0.0063 -0.3234 0.0, 0.0063 -0.3364 0.0039, 0.0063 -0.3364 0.0, -0.0076 -0.3364 0.0039, -0.0076 -0.3364 0.0, -0.0076 -0.3407 0.0039, -0.0076 -0.3407 0.0, 0.0063 -0.3407 0.0039, 0.0063 -0.3407 0.0, 0.0063 -0.3541 0.0039, 0.0063 -0.3541 0.0, -0.0095 -0.3541 0.0039, -0.0095 -0.3541 0.0, -0.0095 -0.3585 0.0039, -0.0095 -0.3585 0.0, 0.0325 -0.3587 0.0, 0.0301 -0.3589 0.0, 0.0301 -0.3589 0.0039, 0.035 -0.3584 0.0, 0.035 -0.3584 0.0039, 0.0388 -0.3571 0.0039, 0.0388 -0.3571 0.0, 0.042 -0.3551 0.0039, 0.042 -0.3551 0.0, 0.0449 -0.352 0.0039, 0.0449 -0.352 0.0, 0.047 -0.3482 0.0039, 0.047 -0.3482 0.0, 0.0482 -0.3441 0.0039, 0.0482 -0.3441 0.0, 0.0486 -0.3395 0.0039, 0.0486 -0.3395 0.0, 0.048 -0.3339 0.0039, 0.048 -0.3339 0.0, 0.0465 -0.3295 0.0039, 0.0465 -0.3295 0.0, 0.0442 -0.3258 0.0039, 0.0442 -0.3258 0.0, 0.0407 -0.3224 0.0039, 0.0407 -0.3224 0.0, 0.0369 -0.3202 0.0039, 0.0369 -0.3202 0.0, 0.0325 -0.3189 0.0039, 0.0325 -0.3189 0.0, 0.0315 -0.3189 0.0, 0.0286 -0.3186 0.0039, 0.0286 -0.3186 0.0, 0.0251 -0.3189 0.0, 0.0239 -0.3189 0.0039, 0.0239 -0.3189 0.0, 0.0193 -0.3202 0.0039, 0.0193 -0.3202 0.0, 0.0193 -0.3255 0.0039, 0.0193 -0.3255 0.0, 0.0237 -0.3236 0.0039, 0.0237 -0.3236 0.0, 0.0285 -0.3229 0.0039, 0.0285 -0.3229 0.0, 0.0324 -0.3234 0.0039, 0.0324 -0.3234 0.0, 0.0353 -0.3244 0.0039, 0.0353 -0.3244 0.0, 0.0381 -0.3263 0.0039, 0.0381 -0.3263 0.0, 0.0405 -0.3289 0.0039, 0.0405 -0.3289 0.0, 0.0421 -0.3319 0.0039, 0.0421 -0.3319 0.0, 0.0431 -0.3361 0.0039, 0.0431 -0.3361 0.0, 0.0433 -0.3392 0.0039, 0.0433 -0.3392 0.0, 0.0429 -0.3435 0.0039, 0.0429 -0.3435 0.0, 0.0418 -0.3468 0.0039, 0.0418 -0.3468 0.0, 0.0402 -0.3496 0.0039, 0.0402 -0.3496 0.0, 0.0384 -0.3515 0.0039, 0.0384 -0.3515 0.0, 0.036 -0.3532 0.0039, 0.036 -0.3532 0.0, 0.0331 -0.3542 0.0039, 0.0331 -0.3542 0.0, 0.0294 -0.3546 0.0039, 0.0294 -0.3546 0.0, 0.0242 -0.354 0.0039, 0.0242 -0.354 0.0, 0.02 -0.3525 0.0039, 0.02 -0.3525 0.0, 0.0193 -0.3521 0.0039, 0.0193 -0.3521 0.0, 0.0193 -0.3564 0.0039, 0.0193 -0.3564 0.0, 0.0235 -0.3581 0.0, 0.0235 -0.3581 0.0039, 0.0275 -0.3587 0.0, 0.0291 -0.3589 0.0039, 0.0291 -0.3589 0.0, 0.0721 -0.3191 0.0039, 0.0721 -0.3191 0.0, 0.0721 -0.3585 0.0039, 0.0721 -0.3585 0.0, 0.0668 -0.3191 0.0039, 0.0668 -0.3191 0.0, 0.0668 -0.3541 0.0039, 0.0668 -0.3541 0.0, 0.052 -0.3541 0.0039, 0.052 -0.3541 0.0, 0.052 -0.3585 0.0039, 0.052 -0.3585 0.0, 0.052 -0.3585 0.0
            ]
        }
        coordIndex [
            0,1,2,-1,2,1,3,-1,4,5,6,-1,6,5,7,-1,6,7,2,-1,2,7,0,-1,5,4,8,-1,5,8,9,-1,9,8,10,-1,9,10,11,-1,11,10,12,-1,11,12,13,-1,13,12,14,-1,13,14,15,-1,15,14,16,-1,15,16,17,-1,17,16,18,-1,17,18,19,-1,20,21,18,-1,18,21,19,-1,21,20,22,-1,21,22,23,-1,23,22,24,-1,23,24,25,-1,25,24,26,-1,25,26,27,-1,27,26,28,-1,27,28,29,-1,29,28,30,-1,29,30,31,-1,31,30,32,-1,31,32,33,-1,3,1,34,-1,34,1,35,-1,34,35,32,-1,32,35,33,-1,0,7,1,-1,1,7,35,-1,33,35,7,-1,11,13,15,-1,7,5,33,-1,33,5,19,-1,33,19,21,-1,5,9,19,-1,19,9,11,-1,19,11,17,-1,17,11,15,-1,25,27,29,-1,21,23,33,-1,33,23,25,-1,33,25,31,-1,31,25,29,-1,36,37,38,-1,38,37,39,-1,40,41,42,-1,42,41,43,-1,42,43,36,-1,36,43,37,-1,41,40,44,-1,41,44,45,-1,45,44,46,-1,45,46,47,-1,47,46,48,-1,47,48,49,-1,49,48,50,-1,49,50,51,-1,51,50,52,-1,51,52,53,-1,53,52,54,-1,53,54,55,-1,56,57,54,-1,54,57,55,-1,57,56,58,-1,57,58,59,-1,59,58,60,-1,59,60,61,-1,61,60,62,-1,61,62,63,-1,63,62,64,-1,63,64,65,-1,65,64,66,-1,65,66,67,-1,67,66,68,-1,67,68,69,-1,38,39,70,-1,70,39,71,-1,70,71,68,-1,68,71,69,-1,37,43,39,-1,39,43,71,-1,43,55,71,-1,71,55,57,-1,71,57,69,-1,69,57,67,-1,43,41,55,-1,55,41,45,-1,55,45,47,-1,47,49,55,-1,55,49,51,-1,55,51,53,-1,57,59,61,-1,61,63,57,-1,57,63,65,-1,57,65,67,-1,72,73,74,-1,74,73,75,-1,76,77,78,-1,78,77,79,-1,78,79,72,-1,72,79,73,-1,77,76,80,-1,77,80,81,-1,81,80,82,-1,81,82,83,-1,83,82,84,-1,83,84,85,-1,85,84,86,-1,85,86,87,-1,87,86,88,-1,87,88,89,-1,89,88,90,-1,89,90,91,-1,92,93,90,-1,90,93,91,-1,93,92,94,-1,93,94,95,-1,95,94,96,-1,95,96,97,-1,97,96,98,-1,97,98,99,-1,99,98,100,-1,99,100,101,-1,101,100,102,-1,101,102,103,-1,103,102,104,-1,103,104,105,-1,74,75,106,-1,106,75,107,-1,106,107,104,-1,104,107,105,-1,73,79,75,-1,75,79,107,-1,79,91,107,-1,107,91,93,-1,107,93,105,-1,105,93,103,-1,79,77,91,-1,91,77,81,-1,91,81,83,-1,83,85,91,-1,91,85,87,-1,91,87,89,-1,93,95,103,-1,103,95,97,-1,103,97,101,-1,101,97,99,-1,108,109,110,-1,110,109,111,-1,112,113,114,-1,114,113,115,-1,114,115,108,-1,108,115,109,-1,113,112,116,-1,113,116,117,-1,117,116,118,-1,117,118,119,-1,119,118,120,-1,119,120,121,-1,121,120,122,-1,121,122,123,-1,123,122,124,-1,123,124,125,-1,125,124,126,-1,125,126,127,-1,127,126,128,-1,128,126,129,-1,128,129,130,-1,128,130,131,-1,128,131,132,-1,132,131,133,-1,132,133,134,-1,134,133,135,-1,134,135,136,-1,136,135,137,-1,136,137,138,-1,138,137,139,-1,138,139,140,-1,140,139,141,-1,140,141,142,-1,110,111,143,-1,143,111,144,-1,143,144,141,-1,141,144,142,-1,109,115,111,-1,111,115,144,-1,115,127,144,-1,144,127,128,-1,144,128,142,-1,142,128,140,-1,115,113,127,-1,127,113,117,-1,127,117,119,-1,119,121,127,-1,127,121,123,-1,127,123,125,-1,128,132,140,-1,140,132,134,-1,140,134,138,-1,138,134,136,-1,145,146,147,-1,145,147,148,-1,148,147,149,-1,148,149,150,-1,150,149,151,-1,150,151,152,-1,152,151,153,-1,152,153,154,-1,154,153,155,-1,154,155,156,-1,156,155,157,-1,156,157,158,-1,159,160,161,-1,161,160,158,-1,161,158,157,-1,160,159,162,-1,160,162,163,-1,163,162,164,-1,163,164,165,-1,165,164,166,-1,165,166,167,-1,167,166,168,-1,167,168,169,-1,169,168,170,-1,169,170,171,-1,171,170,172,-1,171,172,173,-1,174,175,176,-1,176,175,177,-1,176,177,172,-1,172,177,173,-1,146,145,178,-1,178,145,179,-1,178,179,180,-1,180,179,181,-1,180,181,174,-1,174,181,175,-1,181,179,175,-1,175,179,177,-1,179,158,177,-1,177,158,160,-1,177,160,173,-1,173,160,171,-1,179,145,158,-1,158,145,148,-1,158,148,150,-1,150,152,158,-1,158,152,154,-1,158,154,156,-1,160,163,171,-1,171,163,165,-1,171,165,169,-1,169,165,167,-1,182,183,184,-1,182,184,185,-1,185,184,186,-1,185,186,187,-1,187,186,188,-1,187,188,189,-1,189,188,190,-1,189,190,191,-1,191,190,192,-1,191,192,193,-1,193,192,194,-1,193,194,195,-1,196,197,194,-1,194,197,195,-1,197,196,198,-1,197,198,199,-1,199,198,200,-1,199,200,201,-1,201,200,202,-1,201,202,203,-1,203,202,204,-1,203,204,205,-1,205,204,206,-1,205,206,207,-1,207,206,208,-1,207,208,209,-1,210,211,212,-1,212,211,213,-1,212,213,208,-1,208,213,209,-1,183,182,214,-1,214,182,215,-1,214,215,216,-1,216,215,217,-1,216,217,210,-1,210,217,211,-1,217,215,211,-1,211,215,213,-1,215,195,213,-1,213,195,197,-1,213,197,209,-1,209,197,207,-1,215,182,195,-1,195,182,185,-1,195,185,187,-1,187,189,195,-1,195,189,191,-1,195,191,193,-1,197,199,207,-1,207,199,201,-1,207,201,205,-1,205,201,203,-1,218,219,220,-1,218,220,221,-1,221,220,222,-1,221,222,223,-1,223,222,224,-1,223,224,225,-1,225,224,226,-1,225,226,227,-1,227,226,228,-1,227,228,229,-1,229,228,230,-1,229,230,231,-1,232,233,230,-1,230,233,231,-1,233,232,234,-1,233,234,235,-1,235,234,236,-1,235,236,237,-1,237,236,238,-1,237,238,239,-1,239,238,240,-1,239,240,241,-1,241,240,242,-1,241,242,243,-1,243,242,244,-1,243,244,245,-1,246,247,248,-1,248,247,249,-1,248,249,244,-1,244,249,245,-1,219,218,250,-1,250,218,251,-1,250,251,252,-1,252,251,253,-1,252,253,246,-1,246,253,247,-1,253,251,247,-1,247,251,249,-1,251,231,249,-1,249,231,233,-1,249,233,245,-1,245,233,243,-1,225,227,223,-1,223,227,221,-1,251,218,231,-1,231,218,221,-1,231,221,229,-1,229,221,227,-1,233,235,243,-1,243,235,237,-1,243,237,241,-1,241,237,239,-1,254,255,256,-1,254,256,257,-1,257,256,258,-1,257,258,259,-1,259,258,260,-1,259,260,261,-1,261,260,262,-1,261,262,263,-1,263,262,264,-1,263,264,265,-1,265,264,266,-1,265,266,267,-1,268,269,266,-1,266,269,267,-1,269,268,270,-1,269,270,271,-1,271,270,272,-1,271,272,273,-1,273,272,274,-1,273,274,275,-1,275,274,276,-1,275,276,277,-1,277,276,278,-1,277,278,279,-1,279,278,280,-1,279,280,281,-1,282,283,284,-1,284,283,285,-1,284,285,280,-1,280,285,281,-1,255,254,286,-1,286,254,287,-1,286,287,288,-1,288,287,289,-1,288,289,282,-1,282,289,283,-1,289,287,283,-1,283,287,285,-1,287,267,285,-1,285,267,269,-1,285,269,281,-1,281,269,279,-1,287,254,267,-1,267,254,257,-1,267,257,259,-1,259,261,267,-1,267,261,263,-1,267,263,265,-1,269,271,279,-1,279,271,273,-1,279,273,277,-1,277,273,275,-1,290,291,292,-1,292,291,293,-1,294,295,296,-1,291,290,297,-1,297,298,291,-1,291,298,299,-1,291,299,296,-1,296,299,300,-1,296,300,294,-1,301,302,295,-1,295,302,296,-1,302,301,303,-1,302,303,304,-1,304,303,305,-1,304,305,306,-1,306,305,307,-1,306,307,308,-1,308,307,309,-1,308,309,310,-1,310,309,311,-1,310,311,312,-1,312,311,313,-1,312,313,314,-1,315,314,313,-1,313,316,315,-1,315,316,317,-1,315,317,318,-1,318,317,319,-1,318,319,320,-1,320,319,321,-1,320,321,322,-1,322,321,323,-1,322,323,324,-1,324,323,325,-1,324,325,326,-1,324,326,327,-1,327,326,328,-1,327,328,329,-1,329,328,330,-1,329,330,331,-1,331,330,332,-1,331,332,333,-1,333,332,334,-1,333,334,335,-1,335,334,336,-1,335,336,337,-1,336,338,337,-1,337,338,339,-1,339,340,337,-1,337,340,341,-1,337,341,293,-1,293,341,292,-1,337,293,324,-1,337,324,335,-1,291,296,302,-1,315,318,291,-1,291,318,320,-1,291,320,293,-1,293,320,322,-1,293,322,324,-1,324,327,329,-1,291,308,310,-1,329,331,324,-1,324,331,333,-1,324,333,335,-1,302,304,291,-1,291,304,306,-1,291,306,308,-1,310,312,291,-1,291,312,314,-1,291,314,315,-1,342,343,344,-1,344,343,345,-1,346,342,347,-1,347,342,344,-1,348,346,349,-1,349,346,347,-1,343,348,345,-1,345,348,349,-1,346,348,342,-1,342,348,343,-1,350,351,352,-1,352,351,353,-1,354,350,355,-1,355,350,352,-1,356,354,357,-1,357,354,355,-1,351,356,353,-1,353,356,357,-1,354,356,350,-1,350,356,351,-1,358,359,360,-1,360,359,361,-1,362,358,363,-1,363,358,360,-1,364,362,365,-1,365,362,363,-1,359,364,361,-1,361,364,365,-1,362,364,358,-1,358,364,359,-1,366,367,368,-1,368,367,369,-1,370,366,371,-1,371,366,368,-1,372,370,373,-1,373,370,371,-1,367,372,369,-1,369,372,373,-1,370,372,366,-1,366,372,367,-1,374,375,376,-1,376,375,377,-1,376,377,378,-1,378,377,379,-1,378,379,380,-1,380,379,381,-1,380,381,382,-1,382,381,383,-1,382,383,384,-1,384,383,385,-1,384,385,386,-1,386,385,387,-1,386,387,388,-1,388,387,389,-1,388,389,390,-1,390,389,391,-1,390,391,392,-1,392,391,393,-1,392,393,394,-1,394,393,395,-1,394,395,396,-1,396,395,397,-1,396,397,398,-1,398,397,399,-1,398,399,400,-1,400,399,401,-1,400,401,402,-1,402,401,403,-1,402,403,404,-1,404,403,405,-1,404,405,406,-1,406,405,407,-1,406,407,408,-1,408,407,409,-1,408,409,410,-1,410,409,411,-1,410,411,412,-1,412,411,413,-1,412,413,414,-1,414,413,415,-1,414,415,416,-1,416,415,417,-1,416,417,418,-1,418,417,419,-1,418,419,420,-1,420,419,421,-1,420,421,374,-1,374,421,375,-1,418,420,422,-1,422,420,374,-1,422,374,376,-1,412,414,422,-1,422,414,416,-1,422,416,418,-1,406,408,422,-1,422,408,410,-1,422,410,412,-1,400,402,422,-1,422,402,404,-1,422,404,406,-1,394,396,422,-1,422,396,398,-1,422,398,400,-1,388,390,422,-1,422,390,392,-1,422,392,394,-1,382,384,422,-1,422,384,386,-1,422,386,388,-1,376,378,422,-1,422,378,380,-1,422,380,382,-1,423,424,425,-1,425,424,426,-1,427,428,423,-1,423,428,429,-1,423,429,424,-1,424,429,430,-1,427,431,428,-1,428,431,432,-1,428,432,433,-1,433,432,434,-1,433,434,435,-1,435,436,433,-1,433,436,425,-1,433,425,437,-1,437,425,426,-1,437,426,438,-1,426,439,438,-1,438,439,440,-1,424,441,426,-1,426,441,439,-1,430,442,424,-1,424,442,441,-1,429,443,430,-1,430,443,442,-1,428,444,429,-1,429,444,443,-1,433,445,428,-1,428,445,444,-1,437,446,433,-1,433,446,445,-1,437,438,446,-1,446,438,440,-1,447,436,435,-1,447,435,448,-1,448,435,434,-1,448,434,449,-1,432,450,434,-1,434,450,449,-1,450,432,431,-1,450,431,451,-1,451,431,427,-1,451,427,452,-1,423,453,427,-1,427,453,452,-1,425,454,423,-1,423,454,453,-1,447,454,436,-1,436,454,425,-1,455,456,457,-1,457,456,458,-1,456,455,459,-1,456,459,460,-1,460,459,461,-1,460,461,462,-1,462,461,463,-1,462,463,464,-1,464,463,465,-1,464,465,466,-1,466,465,467,-1,466,467,468,-1,468,467,469,-1,468,469,470,-1,470,469,471,-1,470,471,472,-1,472,471,473,-1,472,473,474,-1,474,473,475,-1,474,475,476,-1,476,475,477,-1,476,477,478,-1,478,477,479,-1,478,479,480,-1,480,479,481,-1,480,481,482,-1,482,481,483,-1,482,483,484,-1,484,483,485,-1,484,485,486,-1,486,485,487,-1,486,487,488,-1,489,490,487,-1,487,490,488,-1,489,457,490,-1,490,457,458,-1,469,467,491,-1,491,467,465,-1,491,465,492,-1,492,465,463,-1,492,463,493,-1,493,463,461,-1,493,461,494,-1,494,461,459,-1,494,459,495,-1,495,459,455,-1,495,455,496,-1,496,455,457,-1,496,457,497,-1,497,457,489,-1,497,489,498,-1,498,489,487,-1,498,487,499,-1,499,487,485,-1,499,485,500,-1,500,485,483,-1,500,483,501,-1,501,483,481,-1,501,481,502,-1,502,481,479,-1,502,479,503,-1,503,479,477,-1,503,477,504,-1,504,477,475,-1,504,475,505,-1,505,475,473,-1,505,473,506,-1,506,473,471,-1,506,471,507,-1,507,471,469,-1,507,469,491,-1,498,508,497,-1,497,508,509,-1,508,498,499,-1,508,499,510,-1,510,499,500,-1,510,500,511,-1,511,500,501,-1,511,501,512,-1,512,501,502,-1,512,502,513,-1,513,502,503,-1,513,503,514,-1,514,503,504,-1,514,504,515,-1,515,504,505,-1,515,505,516,-1,516,505,506,-1,516,506,517,-1,517,506,507,-1,517,507,518,-1,518,507,491,-1,518,491,519,-1,519,491,492,-1,519,492,520,-1,520,492,493,-1,520,493,521,-1,521,493,494,-1,521,494,522,-1,522,494,495,-1,522,495,523,-1,496,524,495,-1,495,524,523,-1,509,524,497,-1,497,524,496,-1,525,526,527,-1,527,526,528,-1,529,530,525,-1,525,530,526,-1,531,532,529,-1,529,532,530,-1,533,534,531,-1,531,534,532,-1,535,536,533,-1,533,536,534,-1,537,538,535,-1,535,538,536,-1,539,540,537,-1,537,540,538,-1,541,542,539,-1,539,542,540,-1,543,544,541,-1,541,544,542,-1,545,546,543,-1,543,546,544,-1,547,548,545,-1,545,548,546,-1,547,527,548,-1,548,527,528,-1,527,547,545,-1,545,543,527,-1,527,543,541,-1,527,541,525,-1,531,529,533,-1,533,529,525,-1,533,525,535,-1,535,525,541,-1,535,541,537,-1,537,541,539,-1,549,550,551,-1,549,551,552,-1,551,553,552,-1,552,553,554,-1,552,554,555,-1,555,554,556,-1,555,556,557,-1,557,556,558,-1,557,558,559,-1,559,558,560,-1,559,560,561,-1,561,560,562,-1,561,562,563,-1,563,562,564,-1,563,564,565,-1,565,564,566,-1,565,566,567,-1,567,566,568,-1,567,568,569,-1,569,568,570,-1,569,570,571,-1,571,570,572,-1,571,572,573,-1,573,572,574,-1,573,574,575,-1,575,574,576,-1,575,576,577,-1,577,576,578,-1,578,576,579,-1,578,579,580,-1,580,579,581,-1,581,579,582,-1,581,582,583,-1,583,582,584,-1,583,584,585,-1,586,587,584,-1,584,587,585,-1,587,586,588,-1,587,588,589,-1,589,588,590,-1,589,590,591,-1,591,590,592,-1,591,592,593,-1,593,592,594,-1,593,594,595,-1,595,594,596,-1,595,596,597,-1,597,596,598,-1,597,598,599,-1,599,598,600,-1,599,600,601,-1,601,600,602,-1,601,602,603,-1,603,602,604,-1,603,604,605,-1,605,604,606,-1,605,606,607,-1,607,606,608,-1,607,608,609,-1,609,608,610,-1,609,610,611,-1,611,610,612,-1,611,612,613,-1,613,612,614,-1,613,614,615,-1,615,614,616,-1,615,616,617,-1,617,616,618,-1,617,618,619,-1,619,618,620,-1,619,620,621,-1,621,620,622,-1,621,622,623,-1,623,622,624,-1,623,624,625,-1,626,627,624,-1,624,627,625,-1,628,627,629,-1,629,627,626,-1,628,629,630,-1,630,629,631,-1,630,631,632,-1,632,631,551,-1,632,551,550,-1,616,551,618,-1,618,551,631,-1,618,631,620,-1,620,631,629,-1,620,629,622,-1,622,629,626,-1,622,626,624,-1,586,584,588,-1,588,584,582,-1,588,582,590,-1,590,582,579,-1,590,579,592,-1,592,579,576,-1,592,576,594,-1,594,576,574,-1,594,574,596,-1,596,574,572,-1,596,572,598,-1,598,572,570,-1,598,570,600,-1,600,570,568,-1,600,568,602,-1,602,568,566,-1,602,566,604,-1,604,566,564,-1,604,564,606,-1,606,564,562,-1,606,562,608,-1,608,562,560,-1,608,560,610,-1,610,560,558,-1,610,558,612,-1,612,558,556,-1,612,556,614,-1,614,556,554,-1,614,554,616,-1,616,554,553,-1,616,553,551,-1,633,634,635,-1,635,634,636,-1,637,638,633,-1,633,638,634,-1,639,640,637,-1,637,640,638,-1,641,642,639,-1,639,642,640,-1,643,644,641,-1,641,644,642,-1,643,635,644,-1,644,635,636,-1,637,633,639,-1,639,633,635,-1,639,635,641,-1,641,635,643,-1,
        ]
    }
}
Shape{
    appearance Appearance {
        material  Material 	{
            diffuseColor 0.20784313725490197 0.20784313725490197 0.20784313725490197
            specularColor 0.01568627450980392 0.01568627450980392 0.01568627450980392
            ambientIntensity 0.2
            transparency 0
            shininess 0.5
        }
    }
    geometry IndexedFaceSet {
        ccw TRUE
        solid FALSE
        coord DEF co Coordinate {
            point [
                -0.0626 -0.3431 0.0, -0.0758 -0.3431 0.0, -0.0685 -0.3267 0.0, -0.0698 -0.3267 0.0, -0.0689 -0.3253 0.0, -0.0695 -0.3253 0.0, -0.0691 -0.3239 0.0, -0.0692 -0.3239 0.0, -0.0225 -0.3234 0.0, -0.0225 -0.3541 0.0, -0.0283 -0.3234 0.0, -0.0281 -0.3541 0.0, -0.0322 -0.3538 0.0, -0.0436 -0.3384 0.0, -0.0433 -0.3345 0.0, -0.0423 -0.3314 0.0, -0.0329 -0.3239 0.0, -0.0355 -0.3527 0.0, -0.0382 -0.3511 0.0, -0.0404 -0.3489 0.0, -0.0421 -0.3462 0.0, -0.0432 -0.3425 0.0, -0.041 -0.3289 0.0, -0.0391 -0.3269 0.0, -0.0362 -0.325 0.0, -0.0362 -0.325 0.0
            ]
        }
        coordIndex [
            0,1,2,-1,2,1,3,-1,2,3,4,-1,4,3,5,-1,4,5,6,-1,6,5,7,-1,8,9,10,-1,10,9,11,-1,10,11,12,-1,13,14,10,-1,10,14,15,-1,10,15,16,-1,12,17,10,-1,10,17,18,-1,10,18,19,-1,19,20,10,-1,10,20,21,-1,10,21,13,-1,22,23,15,-1,15,23,24,-1,15,24,16,-1,
        ]
    }
}