#VRML V2.0 utf8
# 3D model generated by easyeda2kicad.py (https://github.com/uPesy/easyeda2kicad.py)

Shape{
    appearance Appearance {
        material  Material 	{
            diffuseColor 0.25098039215686274 0.25098039215686274 0.25098039215686274
            specularColor 0.12549019607843137 0.12549019607843137 0.12549019607843137
            ambientIntensity 0.2
            transparency 0
            shininess 0.5
        }
    }
    geometry IndexedFaceSet {
        ccw TRUE
        solid FALSE
        coord DEF co Coordinate {
            point [
                -0.0563 -1.1614 0.0, -0.1634 -1.1614 0.0, -0.0563 -0.7101 0.0, -0.1634 -0.9921 0.0, -0.3366 -1.1614 0.0, -0.6634 -1.1614 0.0, -0.3366 -0.9921 0.0, -0.6634 -0.9921 0.0, -0.8366 -1.1614 0.0, -1.0335 -1.1614 0.0, -0.8366 -0.9921 0.0, -1.0335 -0.7101 0.0, 1.0335 -0.7101 0.0, 1.0335 -1.1614 0.0, 0.8366 -1.1614 0.0, 0.6634 -0.9921 0.0, 0.6634 -1.1614 0.0, 0.3366 -1.1614 0.0, 0.8366 -0.9921 0.0, 0.3366 -0.9921 0.0, 0.0254 -0.7101 0.0, 0.0286 -0.7106 0.0, 0.1634 -0.9921 0.0, 0.0307 -0.7106 0.0, 0.0353 -0.7101 0.0, -0.0486 -0.7097 0.0, -0.0063 -0.7097 0.0, 0.8366 -0.3937 0.0, 0.876 -0.3543 0.0, 0.8366 -0.4016 0.0, 1.0335 -0.3543 0.0, 0.009 -0.7056 0.0, 0.009 -0.6969 0.0, -0.0063 -0.6309 0.0, 0.1634 -1.1614 0.0, 0.0174 -0.709 0.0, 0.1147 -0.7097 0.0, 0.0743 -0.7097 0.0, 0.0404 -0.7096 0.0, 0.048 -0.707 0.0, 0.0352 -0.6395 0.0, 0.0411 -0.6416 0.0, 0.0105 -0.6977 0.0, 0.0466 -0.6452 0.0, 0.0513 -0.6505 0.0, 0.0571 -0.6711 0.0, 0.0563 -0.6797 0.0, 0.0541 -0.6864 0.0, 0.0366 -0.7012 0.0, 0.0293 -0.702 0.0, 0.0423 -0.699 0.0, 0.0472 -0.6958 0.0, 0.0509 -0.6919 0.0, 0.0188 -0.7008 0.0, 0.0635 -0.6517 0.0, 0.0588 -0.6443 0.0, 0.1041 -0.6309 0.0, -0.0466 -0.6309 0.0, -0.0563 -0.4016 0.0, -0.0466 -0.6396 0.0, -0.0486 -0.701 0.0, 0.0546 -0.6566 0.0, 0.0567 -0.665 0.0, 0.0517 -0.6375 0.0, 0.1147 -0.6309 0.0, -0.0169 -0.6741 0.0, -0.0169 -0.701 0.0, -0.0447 -0.6741 0.0, -0.0447 -0.6655 0.0, -0.0169 -0.6655 0.0, -0.0169 -0.6396 0.0, 0.0544 -0.7029 0.0, 0.0603 -0.6967 0.0, 0.0743 -0.701 0.0, 0.0645 -0.6892 0.0, 0.1041 -0.701 0.0, 0.0669 -0.6809 0.0, 0.0676 -0.6718 0.0, 0.0665 -0.6606 0.0, 0.0443 -0.6332 0.0, 0.0355 -0.6306 0.0, 0.0276 -0.63 0.0, 0.0181 -0.6306 0.0, 0.009 -0.6331 0.0, 0.009 -0.6436 0.0, 0.0179 -0.6398 0.0, 0.0275 -0.6386 0.0, -0.876 -0.3543 0.0, -0.8366 -0.3937 0.0, -1.0335 -0.3543 0.0, -0.8366 -0.4016 0.0, -0.0853 -0.7097 0.0, -0.0639 -0.7097 0.0, -0.0639 -0.6309 0.0, -0.0862 -0.6309 0.0, -0.0975 -0.6321 0.0, -0.1067 -0.6354 0.0, -0.1628 -0.6309 0.0, -0.1153 -0.6411 0.0, -0.1331 -0.7097 0.0, -0.1234 -0.6881 0.0, -0.1189 -0.6951 0.0, -0.1154 -0.6412 0.0, -0.121 -0.6474 0.0, -0.1246 -0.6541 0.0, -0.1926 -0.7097 0.0, -0.2041 -0.7097 0.0, -0.1734 -0.6309 0.0, -0.1124 -0.7013 0.0, -0.1042 -0.7061 0.0, -0.0951 -0.7088 0.0, -0.1267 -0.6619 0.0, -0.1273 -0.6693 0.0, -0.1262 -0.6798 0.0, -0.1446 -0.7097 0.0, -0.1521 -0.6876 0.0, -0.1846 -0.6876 0.0, -0.1846 -0.6876 0.0
            ]
        }
        coordIndex [
            0,1,2,-1,2,1,3,-1,4,5,6,-1,6,5,7,-1,8,9,10,-1,10,9,11,-1,10,11,7,-1,7,11,2,-1,7,2,6,-1,6,2,3,-1,12,13,14,-1,15,16,17,-1,14,18,12,-1,12,18,15,-1,12,15,19,-1,19,15,17,-1,20,21,22,-1,22,21,23,-1,22,23,24,-1,2,25,26,-1,27,28,29,-1,29,28,30,-1,29,30,12,-1,31,26,32,-1,32,26,33,-1,34,0,22,-1,22,0,2,-1,22,2,20,-1,20,2,26,-1,20,26,35,-1,35,26,31,-1,36,24,37,-1,37,24,38,-1,37,38,39,-1,40,41,42,-1,42,41,43,-1,42,43,44,-1,45,46,42,-1,42,46,47,-1,48,49,50,-1,50,49,51,-1,47,52,42,-1,42,52,51,-1,42,51,53,-1,53,51,49,-1,54,55,56,-1,33,57,58,-1,58,57,59,-1,58,59,60,-1,44,61,42,-1,42,61,62,-1,42,62,45,-1,55,63,56,-1,56,63,58,-1,56,58,64,-1,64,58,29,-1,64,29,36,-1,36,29,12,-1,36,12,24,-1,24,12,19,-1,24,19,22,-1,65,66,67,-1,67,66,60,-1,67,60,68,-1,68,60,59,-1,68,59,69,-1,69,59,70,-1,39,71,37,-1,37,71,72,-1,37,72,73,-1,73,72,74,-1,73,74,75,-1,74,76,75,-1,75,76,77,-1,75,77,56,-1,56,77,78,-1,56,78,54,-1,63,79,58,-1,58,79,80,-1,58,80,81,-1,81,82,58,-1,58,82,83,-1,58,83,33,-1,33,83,84,-1,33,84,32,-1,32,84,85,-1,32,85,42,-1,42,85,86,-1,42,86,40,-1,87,88,89,-1,89,88,90,-1,89,90,11,-1,91,92,2,-1,2,92,93,-1,94,90,93,-1,93,90,58,-1,93,58,2,-1,2,58,60,-1,2,60,25,-1,95,96,97,-1,97,96,98,-1,99,100,101,-1,98,102,97,-1,97,102,103,-1,97,103,104,-1,105,2,106,-1,106,2,11,-1,106,11,107,-1,107,11,90,-1,107,90,97,-1,97,90,94,-1,97,94,95,-1,101,108,99,-1,99,108,109,-1,99,109,110,-1,104,111,97,-1,97,111,112,-1,97,112,99,-1,99,112,113,-1,99,113,100,-1,110,91,99,-1,99,91,2,-1,99,2,114,-1,114,2,105,-1,114,105,115,-1,115,105,116,-1,
        ]
    }
}
Shape{
    appearance Appearance {
        material  Material 	{
            diffuseColor 1.0 1.0 1.0
            specularColor 0.5019607843137255 0.5019607843137255 0.5019607843137255
            ambientIntensity 0.2
            transparency 0
            shininess 0.5
        }
    }
    geometry IndexedFaceSet {
        ccw TRUE
        solid FALSE
        coord DEF co Coordinate {
            point [
                -0.8366 -0.1772 -0.0039, -0.8366 -0.1772 0.0, -0.8366 0.9882 -0.0039, -0.8366 0.9882 0.0, 0.8366 1.0646 0.0, 0.8366 1.0646 -0.0039, 0.8366 1.1614 0.0, 0.8366 1.2126 -0.0039, 0.8366 1.1499 0.0654, 0.8366 1.2126 0.0654, 0.8366 1.2126 0.0654
            ]
        }
        coordIndex [
            0,1,2,-1,2,1,3,-1,4,5,6,-1,6,5,7,-1,6,7,8,-1,8,7,9,-1,
        ]
    }
}
Shape{
    appearance Appearance {
        material  Material 	{
            diffuseColor 0.25098039215686274 0.25098039215686274 0.25098039215686274
            specularColor 0.12549019607843137 0.12549019607843137 0.12549019607843137
            ambientIntensity 0.2
            transparency 0
            shininess 0.5
        }
    }
    geometry IndexedFaceSet {
        ccw TRUE
        solid FALSE
        coord DEF co Coordinate {
            point [
                0.3393 1.0465 0.0, 0.3366 1.0669 0.0, 0.4154 0.9882 0.0, 0.5846 0.9882 0.0, 0.376 0.9987 0.0, 0.3597 1.0113 0.0, 0.3472 1.0276 0.0, 0.3366 1.1614 0.0, 0.6634 1.1614 0.0, 0.6634 1.0669 0.0, 0.6607 1.0465 0.0, 0.395 0.9909 0.0, 0.6528 1.0276 0.0, 0.6403 1.0113 0.0, 0.605 0.9909 0.0, 0.624 0.9987 0.0, 0.105 0.9909 0.0, 0.0846 0.9882 0.0, 0.1634 1.0669 0.0, 0.1634 1.1614 0.0, 0.1607 1.0465 0.0, 0.1528 1.0276 0.0, 0.1403 1.0113 0.0, -0.1528 1.0276 0.0, -0.1607 1.0465 0.0, -0.1403 1.0113 0.0, -0.1634 1.0669 0.0, -0.124 0.9987 0.0, -0.1634 1.1614 0.0, -0.0846 0.9882 0.0, -0.105 0.9909 0.0, 0.124 0.9987 0.0, -0.6634 1.1614 0.0, -0.3366 1.1614 0.0, -0.3366 1.0669 0.0, -0.6607 1.0465 0.0, -0.6634 1.0669 0.0, -0.5846 0.9882 0.0, -0.4154 0.9882 0.0, -0.605 0.9909 0.0, -0.624 0.9987 0.0, -0.6403 1.0113 0.0, -0.6528 1.0276 0.0, -0.3472 1.0276 0.0, -0.3597 1.0113 0.0, -0.3393 1.0465 0.0, -0.376 0.9987 0.0, -0.395 0.9909 0.0, -1.0335 1.1614 0.0, -0.8366 1.1614 0.0, -0.8366 1.0646 0.0, -0.8366 0.9882 0.0, -0.8366 -0.1772 0.0, -0.8602 0.9882 0.0, -0.8878 -0.1772 0.0, -0.8602 1.0471 0.0, -1.0335 -0.2756 0.0, -0.9665 -0.2756 0.0, -0.8878 -0.1969 0.0, -0.8898 -0.2144 0.0, -0.8956 -0.231 0.0, -0.905 -0.2459 0.0, -0.9174 -0.2584 0.0, -0.9324 -0.2678 0.0, -0.949 -0.2736 0.0, 1.0219 -0.2756 0.0654, 1.0335 -0.2756 -0.0, 1.0335 1.1614 0.0, 0.9606 -1.0885 0.4134, 1.0335 -1.1614 0.0, 1.0335 -0.7101 0.0, 0.9606 1.0885 0.4134, 1.0219 -0.3543 0.0654, 1.0335 -0.3543 0.0, 0.8366 1.1614 0.0, 0.8366 1.1499 0.0654, 0.6634 1.1499 0.0654, -0.9606 1.0885 0.4134, 0.1634 1.1499 0.0654, -0.1634 1.1499 0.0654, -0.3366 1.1499 0.0654, 0.3366 1.1499 0.0654, -0.8366 1.1499 0.0654, -0.6634 1.1499 0.0654, -1.0219 -0.3543 0.0654, -0.9606 -1.0885 0.4134, -1.0219 -0.2756 0.0654, -1.0335 -0.3543 0.0, -1.0335 -0.7101 0.0, -1.0335 -1.1614 0.0, -0.8366 -1.1614 0.0, -0.8366 -1.1499 0.0654, -0.6634 -1.1499 0.0654, 0.1634 -1.1499 0.0654, 0.3366 -1.1499 0.0654, -0.1634 -1.1499 0.0654, -0.1634 -1.1614 0.0, -0.0563 -1.1614 0.0, 0.8366 -1.1614 0.0, 0.8366 -1.1499 0.0654, 0.6634 -1.1499 0.0654, 0.6634 -1.1614 0.0, 0.3366 -1.1614 0.0, -0.6634 -1.1614 0.0, -0.3366 -1.1614 0.0, -0.3366 -1.1499 0.0654, 0.1634 -1.1614 0.0, -0.6537 -0.8308 0.4134, -0.6502 -0.8578 0.4134, -0.8449 -0.91 0.4134, -0.8554 -0.8848 0.4134, -0.8589 -0.8578 0.4134, -0.8554 -0.8308 0.4134, -0.8449 -0.8056 0.4134, -0.8284 -0.784 0.4134, -0.8067 -0.7674 0.4134, -0.7816 -0.757 0.4134, -0.6642 -0.8056 0.4134, -0.6807 -0.784 0.4134, -0.7816 -0.9586 0.4134, -0.8067 -0.9482 0.4134, -0.8284 -0.9316 0.4134, -0.7546 -0.7534 0.4134, -0.7275 -0.757 0.4134, -0.7024 -0.7674 0.4134, -0.6537 -0.8848 0.4134, -0.6642 -0.91 0.4134, -0.6807 -0.9316 0.4134, -0.7024 -0.9482 0.4134, -0.7275 -0.9586 0.4134, -0.7546 -0.9622 0.4134, 0.8878 -0.1772 0.0, 0.8878 -0.1969 0.0, 0.9665 -0.2756 0.0, 0.8898 -0.2144 0.0, 0.8366 1.0646 0.0, 0.8602 1.0471 0.0, 0.8602 0.9882 0.0, 0.8366 0.9882 0.0, 0.8366 -0.1772 0.0, 0.9174 -0.2584 0.0, 0.905 -0.2459 0.0, 0.9324 -0.2678 0.0, 0.949 -0.2736 0.0, 0.8956 -0.231 0.0, 0.8956 -0.231 0.0
            ]
        }
        coordIndex [
            0,1,2,-1,2,1,3,-1,4,5,6,-1,7,8,1,-1,1,8,9,-1,1,9,3,-1,3,9,10,-1,0,2,6,-1,6,2,11,-1,6,11,4,-1,10,12,3,-1,3,12,13,-1,3,13,14,-1,14,13,15,-1,16,17,18,-1,18,17,19,-1,20,21,22,-1,23,24,25,-1,25,24,26,-1,25,26,27,-1,19,17,28,-1,28,17,29,-1,28,29,26,-1,26,29,30,-1,26,30,27,-1,20,22,18,-1,18,22,31,-1,18,31,16,-1,32,33,34,-1,35,36,37,-1,37,36,32,-1,37,32,38,-1,38,32,34,-1,39,40,41,-1,39,41,37,-1,37,41,42,-1,37,42,35,-1,43,44,45,-1,45,44,46,-1,45,46,34,-1,34,46,47,-1,34,47,38,-1,48,49,50,-1,51,52,53,-1,53,52,54,-1,50,55,48,-1,48,55,53,-1,48,53,56,-1,56,53,54,-1,56,54,57,-1,57,54,58,-1,58,59,57,-1,57,59,60,-1,57,60,61,-1,61,62,57,-1,57,62,63,-1,57,63,64,-1,65,66,67,-1,68,69,70,-1,67,71,65,-1,65,71,68,-1,65,68,72,-1,72,68,70,-1,72,70,73,-1,71,67,74,-1,74,75,71,-1,71,75,76,-1,71,76,77,-1,78,19,28,-1,79,80,77,-1,28,79,78,-1,78,79,77,-1,78,77,81,-1,81,77,76,-1,81,76,7,-1,7,76,8,-1,49,48,82,-1,82,48,77,-1,82,77,83,-1,83,77,80,-1,83,80,32,-1,32,80,33,-1,84,85,86,-1,86,85,77,-1,86,77,56,-1,56,77,48,-1,84,87,85,-1,85,87,88,-1,85,88,89,-1,85,89,90,-1,90,91,85,-1,85,91,92,-1,85,92,68,-1,93,94,68,-1,95,96,97,-1,98,69,99,-1,99,69,68,-1,99,68,100,-1,100,68,94,-1,100,94,101,-1,101,94,102,-1,103,104,92,-1,92,104,105,-1,92,105,68,-1,68,105,95,-1,68,95,93,-1,93,95,97,-1,93,97,106,-1,107,108,68,-1,85,109,110,-1,110,111,85,-1,85,111,112,-1,85,112,77,-1,77,112,113,-1,113,114,77,-1,77,114,115,-1,77,115,116,-1,107,68,117,-1,117,68,71,-1,117,71,118,-1,119,120,85,-1,85,120,121,-1,85,121,109,-1,116,122,77,-1,77,122,123,-1,77,123,71,-1,71,123,124,-1,71,124,118,-1,108,125,68,-1,68,125,126,-1,68,126,127,-1,127,128,68,-1,68,128,129,-1,68,129,85,-1,85,129,130,-1,85,130,119,-1,131,67,66,-1,131,66,132,-1,132,66,133,-1,132,133,134,-1,135,74,136,-1,136,74,67,-1,136,67,137,-1,137,67,131,-1,137,131,138,-1,138,131,139,-1,140,141,142,-1,142,141,143,-1,143,141,133,-1,133,141,144,-1,133,144,134,-1,
        ]
    }
}
Shape{
    appearance Appearance {
        material  Material 	{
            diffuseColor 0.0 0.0 0.0
            specularColor 0.0 0.0 0.0
            ambientIntensity 0.2
            transparency 0
            shininess 0.5
        }
    }
    geometry IndexedFaceSet {
        ccw TRUE
        solid FALSE
        coord DEF co Coordinate {
            point [
                -0.6502 -0.8578 0.413, -0.6502 -0.8578 0.4134, -0.6537 -0.8308 0.413, -0.6537 -0.8308 0.4134, -0.6642 -0.8056 0.413, -0.6642 -0.8056 0.4134, -0.6807 -0.784 0.413, -0.6807 -0.784 0.4134, -0.7024 -0.7674 0.413, -0.7024 -0.7674 0.4134, -0.7275 -0.757 0.413, -0.7275 -0.757 0.4134, -0.7546 -0.7534 0.413, -0.7546 -0.7534 0.4134, -0.7816 -0.757 0.413, -0.7816 -0.757 0.4134, -0.8067 -0.7674 0.413, -0.8067 -0.7674 0.4134, -0.8284 -0.784 0.413, -0.8284 -0.784 0.4134, -0.8449 -0.8056 0.413, -0.8449 -0.8056 0.4134, -0.8554 -0.8308 0.413, -0.8554 -0.8308 0.4134, -0.8589 -0.8578 0.413, -0.8589 -0.8578 0.4134, -0.8554 -0.8848 0.413, -0.8554 -0.8848 0.4134, -0.8449 -0.91 0.413, -0.8449 -0.91 0.4134, -0.8284 -0.9316 0.413, -0.8284 -0.9316 0.4134, -0.8067 -0.9482 0.413, -0.8067 -0.9482 0.4134, -0.7816 -0.9586 0.413, -0.7816 -0.9586 0.4134, -0.7546 -0.9622 0.413, -0.7546 -0.9622 0.4134, -0.7275 -0.9586 0.413, -0.7275 -0.9586 0.4134, -0.7024 -0.9482 0.413, -0.7024 -0.9482 0.4134, -0.6807 -0.9316 0.413, -0.6807 -0.9316 0.4134, -0.6642 -0.91 0.413, -0.6642 -0.91 0.4134, -0.6537 -0.8848 0.413, -0.6537 -0.8848 0.4134, -0.7546 -0.8578 0.413, -0.7546 -0.8578 0.413
            ]
        }
        coordIndex [
            0,1,2,-1,2,1,3,-1,2,3,4,-1,4,3,5,-1,4,5,6,-1,6,5,7,-1,6,7,8,-1,8,7,9,-1,8,9,10,-1,10,9,11,-1,10,11,12,-1,12,11,13,-1,12,13,14,-1,14,13,15,-1,14,15,16,-1,16,15,17,-1,16,17,18,-1,18,17,19,-1,18,19,20,-1,20,19,21,-1,20,21,22,-1,22,21,23,-1,22,23,24,-1,24,23,25,-1,24,25,26,-1,26,25,27,-1,26,27,28,-1,28,27,29,-1,28,29,30,-1,30,29,31,-1,30,31,32,-1,32,31,33,-1,32,33,34,-1,34,33,35,-1,34,35,36,-1,36,35,37,-1,36,37,38,-1,38,37,39,-1,38,39,40,-1,40,39,41,-1,40,41,42,-1,42,41,43,-1,42,43,44,-1,44,43,45,-1,44,45,46,-1,46,45,47,-1,46,47,0,-1,0,47,1,-1,44,46,48,-1,48,46,0,-1,48,0,2,-1,38,40,48,-1,48,40,42,-1,48,42,44,-1,32,34,48,-1,48,34,36,-1,48,36,38,-1,26,28,48,-1,48,28,30,-1,48,30,32,-1,20,22,48,-1,48,22,24,-1,48,24,26,-1,14,16,48,-1,48,16,18,-1,48,18,20,-1,8,10,48,-1,48,10,12,-1,48,12,14,-1,2,4,48,-1,48,4,6,-1,48,6,8,-1,
        ]
    }
}
Shape{
    appearance Appearance {
        material  Material 	{
            diffuseColor 1.0 1.0 1.0
            specularColor 0.5019607843137255 0.5019607843137255 0.5019607843137255
            ambientIntensity 0.2
            transparency 0
            shininess 0.5
        }
    }
    geometry IndexedFaceSet {
        ccw TRUE
        solid FALSE
        coord DEF co Coordinate {
            point [
                -0.3366 -1.1499 0.0654, -0.3366 -1.2126 0.0654, -0.1634 -1.1499 0.0654, -0.1634 -1.2126 0.0654, -0.1634 -0.9921 -0.0039, -0.1634 -0.9921 0.0, -0.1634 -1.1614 0.0, -0.1634 -1.2126 -0.0039, -0.3366 -0.9921 -0.0039, -0.3366 -0.9921 0.0, -0.3366 -1.1614 0.0, -0.3366 -1.2126 -0.0039, 0.1634 -1.2126 0.0654, 0.3366 -1.2126 0.0654, 0.1634 -1.1499 0.0654, 0.3366 -1.1499 0.0654, 0.3366 -0.9921 -0.0039, 0.3366 -0.9921 0.0, 0.3366 -1.1614 0.0, 0.3366 -1.2126 -0.0039, 0.1634 -0.9921 -0.0039, 0.1634 -0.9921 0.0, 0.1634 -1.1614 0.0, 0.1634 -1.2126 -0.0039, -0.8366 -1.2126 0.0654, -0.6634 -1.2126 0.0654, -0.8366 -1.1499 0.0654, -0.6634 -1.1499 0.0654, -0.6634 -0.9921 -0.0039, -0.8366 -0.9921 -0.0039, -0.6634 -0.9921 0.0, -0.8366 -0.9921 0.0, -0.8366 -1.1614 0.0, -0.8366 -1.2126 -0.0039, -0.6634 -1.1614 0.0, -0.6634 -1.2126 -0.0039, 0.6634 -1.2126 0.0654, 0.8366 -1.2126 0.0654, 0.6634 -1.1499 0.0654, 0.8366 -1.1499 0.0654, 0.8366 -0.9921 -0.0039, 0.8366 -0.9921 0.0, 0.8366 -1.1614 0.0, 0.8366 -1.2126 -0.0039, 0.6634 -0.9921 -0.0039, 0.6634 -0.9921 0.0, 0.6634 -1.1614 0.0, 0.6634 -1.2126 -0.0039, 1.0846 -0.3543 0.0654, 1.0846 -0.2756 0.0654, 1.0219 -0.3543 0.0654, 1.0219 -0.2756 0.0654, 0.8366 1.2126 0.0654, 0.6634 1.2126 0.0654, 0.8366 1.1499 0.0654, 0.6634 1.1499 0.0654, 0.3366 1.2126 0.0654, 0.1634 1.2126 0.0654, 0.3366 1.1499 0.0654, 0.1634 1.1499 0.0654, -0.1634 1.2126 0.0654, -0.3366 1.2126 0.0654, -0.1634 1.1499 0.0654, -0.3366 1.1499 0.0654, -0.6634 1.2126 0.0654, -0.8366 1.2126 0.0654, -0.6634 1.1499 0.0654, -0.8366 1.1499 0.0654, -1.0846 -0.2756 0.0654, -1.0846 -0.3543 0.0654, -1.0219 -0.2756 0.0654, -1.0219 -0.3543 0.0654, 0.6634 1.0669 -0.0039, 0.6634 1.0669 0.0, 0.6634 1.1614 0.0, 0.6634 1.2126 -0.0039, 0.4154 0.9882 0.0, 0.5846 0.9882 0.0, 0.4154 0.9882 -0.0039, 0.5846 0.9882 -0.0039, 0.3366 1.0669 0.0, 0.3366 1.0669 -0.0039, 0.3366 1.1614 0.0, 0.3366 1.2126 -0.0039, 0.1634 1.0669 -0.0039, 0.1634 1.0669 0.0, 0.1634 1.1614 0.0, 0.1634 1.2126 -0.0039, -0.0846 0.9882 0.0, 0.0846 0.9882 0.0, -0.0846 0.9882 -0.0039, 0.0846 0.9882 -0.0039, -0.1634 1.0669 0.0, -0.1634 1.0669 -0.0039, -0.1634 1.1614 0.0, -0.1634 1.2126 -0.0039, -0.3366 1.0669 -0.0039, -0.3366 1.0669 0.0, -0.3366 1.1614 0.0, -0.3366 1.2126 -0.0039, -0.5846 0.9882 0.0, -0.4154 0.9882 0.0, -0.5846 0.9882 -0.0039, -0.4154 0.9882 -0.0039, -0.6634 1.0669 0.0, -0.6634 1.0669 -0.0039, -0.6634 1.1614 0.0, -0.6634 1.2126 -0.0039, -0.8366 1.0646 -0.0039, -0.8366 1.0646 0.0, -0.8366 1.1614 0.0, -0.8366 1.2126 -0.0039, -0.8366 -0.1772 -0.0039, -0.8878 -0.1772 -0.0039, -0.8366 -0.1772 0.0, -0.8878 -0.1772 0.0, -0.8878 -0.1969 -0.0039, -0.8878 -0.1969 0.0, -0.8898 -0.2144 0.0, -0.8898 -0.2144 -0.0039, -0.8956 -0.231 0.0, -0.8956 -0.231 -0.0039, -0.905 -0.2459 0.0, -0.905 -0.2459 -0.0039, -0.9174 -0.2584 0.0, -0.9174 -0.2584 -0.0039, -0.9324 -0.2678 0.0, -0.9324 -0.2678 -0.0039, -0.949 -0.2736 0.0, -0.949 -0.2736 -0.0039, -0.9665 -0.2756 0.0, -0.9665 -0.2756 -0.0039, -1.0335 -0.2756 0.0, -1.0846 -0.2756 -0.0039, -0.876 -0.3543 -0.0039, -0.876 -0.3543 0.0, -1.0335 -0.3543 0.0, -1.0846 -0.3543 -0.0039, -0.8366 -0.3937 -0.0039, -0.8366 -0.3937 0.0, -0.8366 -0.4016 -0.0039, -0.8366 -0.4016 0.0, -0.0563 -0.4016 0.0, 0.8366 -0.4016 -0.0039, 0.8366 -0.4016 0.0, 0.8366 -0.3937 -0.0039, 0.8366 -0.3937 0.0, 0.876 -0.3543 -0.0039, 0.876 -0.3543 0.0, 1.0335 -0.3543 0.0, 1.0846 -0.3543 -0.0039, 0.9665 -0.2756 -0.0039, 0.9665 -0.2756 0.0, 1.0335 -0.2756 -0.0, 1.0846 -0.2756 -0.0039, 0.949 -0.2736 0.0, 0.949 -0.2736 -0.0039, 0.9324 -0.2678 0.0, 0.9324 -0.2678 -0.0039, 0.9174 -0.2584 0.0, 0.9174 -0.2584 -0.0039, 0.905 -0.2459 0.0, 0.905 -0.2459 -0.0039, 0.8956 -0.231 0.0, 0.8956 -0.231 -0.0039, 0.8898 -0.2144 0.0, 0.8898 -0.2144 -0.0039, 0.8878 -0.1969 0.0, 0.8878 -0.1969 -0.0039, 0.8878 -0.1772 -0.0039, 0.8878 -0.1772 0.0, 0.8366 -0.1772 -0.0039, 0.8366 -0.1772 0.0, 0.8366 0.9882 0.0, 0.8366 0.9882 -0.0039, 0.8366 1.2126 -0.0039, 0.8602 1.0471 -0.0039, 0.8602 0.9882 -0.0039, 0.8366 1.0646 -0.0039, 0.6607 1.0465 -0.0039, -0.8602 0.9882 -0.0039, -0.8602 1.0471 -0.0039, -0.8366 0.9882 -0.0039, -0.1403 1.0113 -0.0039, -0.124 0.9987 -0.0039, -0.3472 1.0276 -0.0039, 0.605 0.9909 -0.0039, 0.3597 1.0113 -0.0039, 0.1528 1.0276 -0.0039, 0.3472 1.0276 -0.0039, 0.3393 1.0465 -0.0039, -0.6607 1.0465 -0.0039, -0.6528 1.0276 -0.0039, -0.6403 1.0113 -0.0039, -0.624 0.9987 -0.0039, 0.1607 1.0465 -0.0039, 0.105 0.9909 -0.0039, 0.124 0.9987 -0.0039, 0.1403 1.0113 -0.0039, 0.624 0.9987 -0.0039, 0.6403 1.0113 -0.0039, 0.6528 1.0276 -0.0039, -0.605 0.9909 -0.0039, 0.376 0.9987 -0.0039, 0.395 0.9909 -0.0039, -0.395 0.9909 -0.0039, -0.376 0.9987 -0.0039, -0.3597 1.0113 -0.0039, -0.105 0.9909 -0.0039, -0.3393 1.0465 -0.0039, -0.1607 1.0465 -0.0039, -0.1528 1.0276 -0.0039, -0.1528 1.0276 -0.0039
            ]
        }
        coordIndex [
            0,1,2,-1,2,1,3,-1,4,5,6,-1,2,3,6,-1,6,3,7,-1,6,7,4,-1,4,8,5,-1,5,8,9,-1,9,8,10,-1,10,8,11,-1,10,11,0,-1,0,11,1,-1,7,3,11,-1,11,3,1,-1,11,8,7,-1,7,8,4,-1,12,13,14,-1,14,13,15,-1,16,17,18,-1,15,13,18,-1,18,13,19,-1,18,19,16,-1,16,20,17,-1,17,20,21,-1,21,20,22,-1,22,20,23,-1,22,23,14,-1,14,23,12,-1,19,13,23,-1,23,13,12,-1,23,20,19,-1,19,20,16,-1,24,25,26,-1,26,25,27,-1,28,29,30,-1,30,29,31,-1,31,29,32,-1,32,29,33,-1,32,33,26,-1,26,33,24,-1,28,30,34,-1,27,25,34,-1,34,25,35,-1,34,35,28,-1,35,25,33,-1,33,25,24,-1,35,33,28,-1,28,33,29,-1,36,37,38,-1,38,37,39,-1,40,41,42,-1,39,37,42,-1,42,37,43,-1,42,43,40,-1,40,44,41,-1,41,44,45,-1,45,44,46,-1,46,44,47,-1,46,47,38,-1,38,47,36,-1,43,37,47,-1,47,37,36,-1,47,44,43,-1,43,44,40,-1,48,49,50,-1,50,49,51,-1,52,53,54,-1,54,53,55,-1,56,57,58,-1,58,57,59,-1,60,61,62,-1,62,61,63,-1,64,65,66,-1,66,65,67,-1,68,69,70,-1,70,69,71,-1,72,73,74,-1,55,53,74,-1,74,53,75,-1,74,75,72,-1,76,77,78,-1,78,77,79,-1,80,81,82,-1,82,81,83,-1,82,83,58,-1,58,83,56,-1,84,85,86,-1,59,57,86,-1,86,57,87,-1,86,87,84,-1,88,89,90,-1,90,89,91,-1,92,93,94,-1,94,93,95,-1,94,95,62,-1,62,95,60,-1,96,97,98,-1,63,61,98,-1,98,61,99,-1,98,99,96,-1,100,101,102,-1,102,101,103,-1,104,105,106,-1,106,105,107,-1,106,107,66,-1,66,107,64,-1,108,109,110,-1,67,65,110,-1,110,65,111,-1,110,111,108,-1,112,113,114,-1,114,113,115,-1,113,116,115,-1,115,116,117,-1,117,116,118,-1,118,116,119,-1,118,119,120,-1,120,119,121,-1,120,121,122,-1,122,121,123,-1,122,123,124,-1,124,123,125,-1,124,125,126,-1,126,125,127,-1,126,127,128,-1,128,127,129,-1,128,129,130,-1,130,129,131,-1,130,131,132,-1,132,131,133,-1,132,133,70,-1,70,133,68,-1,134,135,136,-1,71,69,136,-1,136,69,137,-1,136,137,134,-1,134,138,135,-1,135,138,139,-1,138,140,139,-1,139,140,141,-1,141,140,142,-1,142,140,143,-1,142,143,144,-1,143,145,144,-1,144,145,146,-1,145,147,146,-1,146,147,148,-1,148,147,149,-1,149,147,150,-1,149,150,50,-1,50,150,48,-1,151,152,153,-1,51,49,153,-1,153,49,154,-1,153,154,151,-1,152,151,155,-1,155,151,156,-1,155,156,157,-1,157,156,158,-1,157,158,159,-1,159,158,160,-1,159,160,161,-1,161,160,162,-1,161,162,163,-1,163,162,164,-1,163,164,165,-1,165,164,166,-1,165,166,167,-1,167,166,168,-1,168,169,167,-1,167,169,170,-1,169,171,170,-1,170,171,172,-1,172,171,173,-1,173,171,174,-1,75,53,175,-1,175,53,52,-1,87,57,83,-1,83,57,56,-1,99,61,95,-1,95,61,60,-1,111,65,107,-1,107,65,64,-1,137,69,133,-1,133,69,68,-1,154,49,150,-1,150,49,48,-1,176,177,178,-1,178,177,174,-1,171,147,140,-1,140,147,145,-1,140,145,143,-1,175,178,75,-1,75,178,174,-1,75,174,72,-1,72,174,179,-1,180,181,182,-1,182,181,108,-1,121,119,112,-1,112,119,116,-1,112,116,113,-1,169,168,171,-1,171,168,166,-1,171,166,147,-1,147,166,164,-1,137,133,134,-1,134,133,131,-1,134,131,129,-1,129,127,134,-1,134,127,125,-1,134,125,123,-1,183,184,185,-1,164,162,147,-1,147,162,160,-1,147,160,158,-1,154,150,151,-1,151,150,147,-1,151,147,156,-1,156,147,158,-1,105,182,107,-1,107,182,108,-1,107,108,111,-1,79,186,171,-1,187,188,189,-1,189,188,190,-1,105,191,182,-1,182,191,192,-1,182,192,112,-1,112,192,193,-1,112,193,194,-1,84,87,83,-1,188,195,190,-1,190,195,84,-1,190,84,81,-1,81,84,83,-1,196,197,171,-1,171,197,198,-1,171,198,188,-1,186,199,171,-1,171,199,200,-1,171,200,174,-1,174,200,201,-1,174,201,179,-1,194,202,112,-1,112,202,102,-1,112,102,103,-1,123,121,134,-1,134,121,112,-1,134,112,138,-1,138,112,184,-1,138,184,140,-1,187,203,188,-1,188,203,204,-1,188,204,171,-1,171,204,78,-1,171,78,79,-1,103,205,112,-1,112,205,206,-1,112,206,184,-1,184,206,207,-1,184,207,185,-1,184,208,140,-1,140,208,90,-1,140,90,171,-1,171,90,91,-1,171,91,196,-1,99,95,96,-1,96,95,93,-1,96,93,209,-1,209,93,210,-1,209,210,185,-1,185,210,211,-1,185,211,183,-1,
        ]
    }
}
Shape{
    appearance Appearance {
        material  Material 	{
            diffuseColor 0.5019607843137255 0.25098039215686274 0.0
            specularColor 0.44313725490196076 0.2196078431372549 0.0
            ambientIntensity 0.2
            transparency 0
            shininess 0.5
        }
    }
    geometry IndexedFaceSet {
        ccw TRUE
        solid FALSE
        coord DEF co Coordinate {
            point [
                0.8602 1.0471 0.0, 0.8602 1.0471 -0.0039, 0.8366 1.0646 0.0, 0.8366 1.0646 -0.0039, 0.8602 0.9882 0.0, 0.8602 0.9882 -0.0039, 0.8366 0.9882 -0.0039, 0.8366 0.9882 0.0, -0.8366 0.9882 0.0, -0.8602 0.9882 0.0, -0.8366 0.9882 -0.0039, -0.8602 0.9882 -0.0039, -0.8602 1.0471 0.0, -0.8602 1.0471 -0.0039, -0.8366 1.0646 0.0, -0.8366 1.0646 -0.0039, -0.8366 1.0646 -0.0039
            ]
        }
        coordIndex [
            0,1,2,-1,2,1,3,-1,4,5,0,-1,0,5,1,-1,6,5,7,-1,7,5,4,-1,8,9,10,-1,10,9,11,-1,12,13,9,-1,9,13,11,-1,14,15,12,-1,12,15,13,-1,
        ]
    }
}
Shape{
    appearance Appearance {
        material  Material 	{
            diffuseColor 1.0 1.0 1.0
            specularColor 0.5019607843137255 0.5019607843137255 0.5019607843137255
            ambientIntensity 0.2
            transparency 0
            shininess 0.5
        }
    }
    geometry IndexedFaceSet {
        ccw TRUE
        solid FALSE
        coord DEF co Coordinate {
            point [
                -0.6634 1.0669 -0.0039, -0.6634 1.0669 0.0, -0.6607 1.0465 -0.0039, -0.6607 1.0465 0.0, -0.6528 1.0276 -0.0039, -0.6528 1.0276 0.0, -0.6403 1.0113 -0.0039, -0.6403 1.0113 0.0, -0.624 0.9987 -0.0039, -0.624 0.9987 0.0, -0.605 0.9909 -0.0039, -0.605 0.9909 0.0, -0.5846 0.9882 -0.0039, -0.5846 0.9882 0.0, -0.4154 0.9882 -0.0039, -0.4154 0.9882 0.0, -0.395 0.9909 -0.0039, -0.395 0.9909 0.0, -0.376 0.9987 -0.0039, -0.376 0.9987 0.0, -0.3597 1.0113 -0.0039, -0.3597 1.0113 0.0, -0.3472 1.0276 -0.0039, -0.3472 1.0276 0.0, -0.3393 1.0465 -0.0039, -0.3393 1.0465 0.0, -0.3366 1.0669 -0.0039, -0.3366 1.0669 0.0, -0.1634 1.0669 -0.0039, -0.1634 1.0669 0.0, -0.1607 1.0465 -0.0039, -0.1607 1.0465 0.0, -0.1528 1.0276 -0.0039, -0.1528 1.0276 0.0, -0.1403 1.0113 -0.0039, -0.1403 1.0113 0.0, -0.124 0.9987 -0.0039, -0.124 0.9987 0.0, -0.105 0.9909 -0.0039, -0.105 0.9909 0.0, -0.0846 0.9882 -0.0039, -0.0846 0.9882 0.0, 0.0846 0.9882 -0.0039, 0.0846 0.9882 0.0, 0.105 0.9909 -0.0039, 0.105 0.9909 0.0, 0.124 0.9987 -0.0039, 0.124 0.9987 0.0, 0.1403 1.0113 -0.0039, 0.1403 1.0113 0.0, 0.1528 1.0276 -0.0039, 0.1528 1.0276 0.0, 0.1607 1.0465 -0.0039, 0.1607 1.0465 0.0, 0.1634 1.0669 -0.0039, 0.1634 1.0669 0.0, 0.3366 1.0669 -0.0039, 0.3366 1.0669 0.0, 0.3393 1.0465 -0.0039, 0.3393 1.0465 0.0, 0.3472 1.0276 -0.0039, 0.3472 1.0276 0.0, 0.3597 1.0113 -0.0039, 0.3597 1.0113 0.0, 0.376 0.9987 -0.0039, 0.376 0.9987 0.0, 0.395 0.9909 -0.0039, 0.395 0.9909 0.0, 0.4154 0.9882 -0.0039, 0.4154 0.9882 0.0, 0.5846 0.9882 -0.0039, 0.5846 0.9882 0.0, 0.605 0.9909 -0.0039, 0.605 0.9909 0.0, 0.624 0.9987 -0.0039, 0.624 0.9987 0.0, 0.6403 1.0113 -0.0039, 0.6403 1.0113 0.0, 0.6528 1.0276 -0.0039, 0.6528 1.0276 0.0, 0.6607 1.0465 -0.0039, 0.6607 1.0465 0.0, 0.6634 1.0669 -0.0039, 0.6634 1.0669 0.0, 0.6634 1.0669 0.0
            ]
        }
        coordIndex [
            0,1,2,-1,2,1,3,-1,2,3,4,-1,4,3,5,-1,4,5,6,-1,6,5,7,-1,6,7,8,-1,8,7,9,-1,8,9,10,-1,10,9,11,-1,10,11,12,-1,12,11,13,-1,14,15,16,-1,16,15,17,-1,16,17,18,-1,18,17,19,-1,18,19,20,-1,20,19,21,-1,20,21,22,-1,22,21,23,-1,22,23,24,-1,24,23,25,-1,24,25,26,-1,26,25,27,-1,28,29,30,-1,30,29,31,-1,30,31,32,-1,32,31,33,-1,32,33,34,-1,34,33,35,-1,34,35,36,-1,36,35,37,-1,36,37,38,-1,38,37,39,-1,38,39,40,-1,40,39,41,-1,42,43,44,-1,44,43,45,-1,44,45,46,-1,46,45,47,-1,46,47,48,-1,48,47,49,-1,48,49,50,-1,50,49,51,-1,50,51,52,-1,52,51,53,-1,52,53,54,-1,54,53,55,-1,56,57,58,-1,58,57,59,-1,58,59,60,-1,60,59,61,-1,60,61,62,-1,62,61,63,-1,62,63,64,-1,64,63,65,-1,64,65,66,-1,66,65,67,-1,66,67,68,-1,68,67,69,-1,70,71,72,-1,72,71,73,-1,72,73,74,-1,74,73,75,-1,74,75,76,-1,76,75,77,-1,76,77,78,-1,78,77,79,-1,78,79,80,-1,80,79,81,-1,80,81,82,-1,82,81,83,-1,
        ]
    }
}
Shape{
    appearance Appearance {
        material  Material 	{
            diffuseColor 0.0 0.0 0.0
            specularColor 0.0 0.0 0.0
            ambientIntensity 0.2
            transparency 0
            shininess 0.5
        }
    }
    geometry IndexedFaceSet {
        ccw TRUE
        solid FALSE
        coord DEF co Coordinate {
            point [
                -0.1734 -0.6309 0.0004, -0.2041 -0.7097 0.0004, -0.1734 -0.6309 0.0, -0.2041 -0.7097 0.0, -0.1926 -0.7097 0.0004, -0.1926 -0.7097 0.0, -0.1846 -0.6876 0.0004, -0.1846 -0.6876 0.0, -0.1521 -0.6876 0.0004, -0.1521 -0.6876 0.0, -0.1446 -0.7097 0.0004, -0.1446 -0.7097 0.0, -0.1331 -0.7097 0.0004, -0.1331 -0.7097 0.0, -0.1628 -0.6309 0.0004, -0.1628 -0.6309 0.0, -0.1548 -0.6789 0.0004, -0.1811 -0.6789 0.0004, -0.1665 -0.646 0.0004, -0.1673 -0.6433 0.0004, -0.1678 -0.6405 0.0004, -0.168 -0.6405 0.0004, -0.1685 -0.6433 0.0004, -0.1692 -0.646 0.0004, -0.1548 -0.6789 0.0, -0.1811 -0.6789 0.0, -0.1665 -0.646 -0.0, -0.1673 -0.6433 -0.0, -0.1678 -0.6405 0.0, -0.168 -0.6405 0.0, -0.1685 -0.6433 0.0, -0.1692 -0.646 0.0, -0.0853 -0.7097 0.0004, -0.0639 -0.7097 0.0004, -0.0853 -0.7097 0.0, -0.0639 -0.7097 0.0, -0.0639 -0.6309 0.0004, -0.0639 -0.6309 0.0, -0.0862 -0.6309 0.0004, -0.0862 -0.6309 0.0, -0.1273 -0.6693 0.0004, -0.1273 -0.6693 0.0, -0.1267 -0.6619 0.0, -0.1267 -0.6619 0.0004, -0.1246 -0.6541 0.0, -0.1246 -0.6541 0.0004, -0.121 -0.6474 0.0, -0.121 -0.6474 0.0004, -0.1154 -0.6412 0.0, -0.1154 -0.6412 0.0004, -0.1153 -0.6411 0.0, -0.1153 -0.6411 0.0004, -0.1067 -0.6354 0.0, -0.1067 -0.6354 0.0004, -0.0975 -0.6321 0.0, -0.0975 -0.6321 0.0004, -0.0951 -0.7088 0.0, -0.0951 -0.7088 0.0004, -0.1042 -0.7061 0.0, -0.1042 -0.7061 0.0004, -0.1124 -0.7013 0.0, -0.1124 -0.7013 0.0004, -0.1189 -0.6951 0.0, -0.1189 -0.6951 0.0004, -0.1234 -0.6881 0.0, -0.1234 -0.6881 0.0004, -0.1262 -0.6798 0.0, -0.1262 -0.6798 0.0004, -0.1115 -0.6506 0.0004, -0.1077 -0.6465 0.0004, -0.1019 -0.6428 0.0004, -0.0954 -0.6406 0.0004, -0.0861 -0.6396 0.0004, -0.0745 -0.6396 0.0004, -0.0745 -0.701 0.0004, -0.0857 -0.701 0.0004, -0.094 -0.7002 0.0004, -0.1006 -0.6982 0.0004, -0.106 -0.695 0.0004, -0.1104 -0.6906 0.0004, -0.1137 -0.6852 0.0004, -0.116 -0.6778 0.0004, -0.1167 -0.6695 0.0004, -0.1161 -0.6617 0.0004, -0.1142 -0.6555 0.0004, -0.0861 -0.6396 0.0, -0.0745 -0.6396 0.0, -0.0954 -0.6406 0.0, -0.1019 -0.6428 0.0, -0.1077 -0.6465 0.0, -0.1115 -0.6506 0.0, -0.1142 -0.6555 0.0, -0.1161 -0.6617 -0.0, -0.1167 -0.6695 0.0, -0.116 -0.6778 -0.0, -0.1137 -0.6852 0.0, -0.1104 -0.6906 0.0, -0.106 -0.695 0.0, -0.1006 -0.6982 0.0, -0.094 -0.7002 0.0, -0.0857 -0.701 0.0, -0.0745 -0.701 0.0, -0.0486 -0.701 0.0004, -0.0486 -0.7097 0.0004, -0.0486 -0.701 0.0, -0.0486 -0.7097 0.0, -0.0063 -0.7097 0.0004, -0.0063 -0.7097 0.0, -0.0063 -0.6309 0.0004, -0.0063 -0.6309 0.0, -0.0466 -0.6309 0.0004, -0.0466 -0.6309 0.0, -0.0466 -0.6396 0.0004, -0.0466 -0.6396 0.0, -0.0169 -0.6396 0.0004, -0.0169 -0.6396 0.0, -0.0169 -0.6655 0.0004, -0.0169 -0.6655 0.0, -0.0447 -0.6655 0.0004, -0.0447 -0.6655 0.0, -0.0447 -0.6741 0.0004, -0.0447 -0.6741 0.0, -0.0169 -0.6741 0.0004, -0.0169 -0.6741 0.0, -0.0169 -0.701 0.0004, -0.0169 -0.701 0.0, 0.009 -0.6969 0.0004, 0.009 -0.7056 0.0004, 0.009 -0.6969 0.0, 0.009 -0.7056 0.0, 0.0174 -0.709 0.0004, 0.0307 -0.7106 0.0004, 0.0307 -0.7106 0.0, 0.0286 -0.7106 0.0, 0.0286 -0.7106 0.0004, 0.0254 -0.7101 0.0, 0.0174 -0.709 0.0, 0.0353 -0.7101 0.0, 0.0404 -0.7096 0.0004, 0.0404 -0.7096 0.0, 0.048 -0.707 0.0004, 0.048 -0.707 0.0, 0.0544 -0.7029 0.0004, 0.0544 -0.7029 0.0, 0.0603 -0.6967 0.0004, 0.0603 -0.6967 0.0, 0.0645 -0.6892 0.0004, 0.0645 -0.6892 0.0, 0.0669 -0.6809 0.0004, 0.0669 -0.6809 0.0, 0.0676 -0.6718 0.0004, 0.0676 -0.6718 0.0, 0.0276 -0.63 0.0004, 0.0276 -0.63 0.0, 0.0355 -0.6306 0.0, 0.0355 -0.6306 0.0004, 0.0443 -0.6332 0.0, 0.0443 -0.6332 0.0004, 0.0517 -0.6375 0.0, 0.0517 -0.6375 0.0004, 0.0588 -0.6443 0.0, 0.0588 -0.6443 0.0004, 0.0635 -0.6517 0.0, 0.0635 -0.6517 0.0004, 0.0665 -0.6606 0.0, 0.0665 -0.6606 0.0004, 0.009 -0.6331 0.0004, 0.009 -0.6331 0.0, 0.0181 -0.6306 0.0, 0.0181 -0.6306 0.0004, 0.009 -0.6436 0.0004, 0.009 -0.6436 0.0, 0.0275 -0.6386 0.0004, 0.0275 -0.6386 0.0, 0.0179 -0.6398 0.0, 0.0179 -0.6398 0.0004, 0.0571 -0.6711 0.0004, 0.0571 -0.6711 0.0, 0.0567 -0.665 0.0, 0.0567 -0.665 0.0004, 0.0546 -0.6566 0.0, 0.0546 -0.6566 0.0004, 0.0513 -0.6505 0.0, 0.0513 -0.6505 0.0004, 0.0466 -0.6452 0.0, 0.0466 -0.6452 0.0004, 0.0411 -0.6416 0.0, 0.0411 -0.6416 0.0004, 0.0352 -0.6395 0.0, 0.0352 -0.6395 0.0004, 0.0293 -0.702 0.0004, 0.0293 -0.702 0.0, 0.0366 -0.7012 0.0, 0.0366 -0.7012 0.0004, 0.0423 -0.699 0.0, 0.0423 -0.699 0.0004, 0.0472 -0.6958 0.0, 0.0472 -0.6958 0.0004, 0.0509 -0.6919 0.0, 0.0509 -0.6919 0.0004, 0.0541 -0.6864 0.0, 0.0541 -0.6864 0.0004, 0.0563 -0.6797 0.0, 0.0563 -0.6797 0.0004, 0.0105 -0.6977 0.0, 0.0105 -0.6977 0.0004, 0.0188 -0.7008 0.0, 0.0188 -0.7008 0.0004, 0.0743 -0.701 0.0004, 0.0743 -0.7097 0.0004, 0.0743 -0.701 0.0, 0.0743 -0.7097 0.0, 0.1147 -0.7097 0.0004, 0.1147 -0.7097 0.0, 0.1147 -0.6309 0.0004, 0.1147 -0.6309 0.0, 0.1041 -0.6309 0.0004, 0.1041 -0.6309 0.0, 0.1041 -0.701 0.0004, 0.1041 -0.701 0.0, 0.1041 -0.701 0.0
            ]
        }
        coordIndex [
            0,1,2,-1,2,1,3,-1,1,4,3,-1,3,4,5,-1,4,6,5,-1,5,6,7,-1,6,8,7,-1,7,8,9,-1,8,10,9,-1,9,10,11,-1,10,12,11,-1,11,12,13,-1,12,14,13,-1,13,14,15,-1,14,0,15,-1,15,0,2,-1,16,8,17,-1,17,8,6,-1,18,14,16,-1,16,14,12,-1,16,12,8,-1,8,12,10,-1,18,19,14,-1,14,19,20,-1,14,20,0,-1,0,20,21,-1,0,21,22,-1,22,23,0,-1,0,23,17,-1,0,17,1,-1,1,17,6,-1,1,6,4,-1,16,17,24,-1,24,17,25,-1,18,16,26,-1,26,16,24,-1,18,26,27,-1,18,27,19,-1,19,27,28,-1,19,28,20,-1,21,20,29,-1,29,20,28,-1,21,29,30,-1,21,30,22,-1,22,30,31,-1,22,31,23,-1,17,23,25,-1,25,23,31,-1,32,33,34,-1,34,33,35,-1,33,36,35,-1,35,36,37,-1,36,38,37,-1,37,38,39,-1,40,41,42,-1,40,42,43,-1,43,42,44,-1,43,44,45,-1,45,44,46,-1,45,46,47,-1,47,46,48,-1,47,48,49,-1,49,48,50,-1,49,50,51,-1,51,50,52,-1,51,52,53,-1,53,52,54,-1,53,54,55,-1,55,54,39,-1,55,39,38,-1,32,34,56,-1,32,56,57,-1,57,56,58,-1,57,58,59,-1,59,58,60,-1,59,60,61,-1,61,60,62,-1,61,62,63,-1,63,62,64,-1,63,64,65,-1,65,64,66,-1,65,66,67,-1,67,66,41,-1,67,41,40,-1,45,47,68,-1,68,47,49,-1,68,49,69,-1,69,49,51,-1,69,51,70,-1,70,51,53,-1,70,53,71,-1,71,53,55,-1,71,55,72,-1,72,55,38,-1,72,38,73,-1,73,38,36,-1,73,36,74,-1,74,36,33,-1,74,33,75,-1,75,33,32,-1,75,32,76,-1,76,32,57,-1,76,57,77,-1,77,57,59,-1,77,59,78,-1,78,59,61,-1,78,61,79,-1,79,61,63,-1,79,63,80,-1,80,63,65,-1,80,65,81,-1,81,65,67,-1,81,67,82,-1,82,67,40,-1,82,40,83,-1,83,40,43,-1,83,43,84,-1,84,43,45,-1,84,45,68,-1,72,73,85,-1,85,73,86,-1,72,85,87,-1,72,87,71,-1,71,87,88,-1,71,88,70,-1,70,88,89,-1,70,89,69,-1,69,89,90,-1,69,90,68,-1,68,90,91,-1,68,91,84,-1,84,91,92,-1,84,92,83,-1,83,92,93,-1,83,93,82,-1,82,93,94,-1,82,94,81,-1,81,94,95,-1,81,95,80,-1,80,95,96,-1,80,96,79,-1,79,96,97,-1,79,97,78,-1,78,97,98,-1,78,98,77,-1,77,98,99,-1,77,99,76,-1,76,99,100,-1,76,100,75,-1,74,75,101,-1,101,75,100,-1,73,74,86,-1,86,74,101,-1,102,103,104,-1,104,103,105,-1,103,106,105,-1,105,106,107,-1,106,108,107,-1,107,108,109,-1,108,110,109,-1,109,110,111,-1,110,112,111,-1,111,112,113,-1,112,114,113,-1,113,114,115,-1,114,116,115,-1,115,116,117,-1,116,118,117,-1,117,118,119,-1,118,120,119,-1,119,120,121,-1,120,122,121,-1,121,122,123,-1,122,124,123,-1,123,124,125,-1,124,102,125,-1,125,102,104,-1,106,103,102,-1,102,124,106,-1,106,124,122,-1,106,122,108,-1,112,110,114,-1,114,110,108,-1,114,108,116,-1,116,108,122,-1,116,122,118,-1,118,122,120,-1,126,127,128,-1,128,127,129,-1,129,127,130,-1,131,132,133,-1,131,133,134,-1,134,133,135,-1,134,135,130,-1,130,135,136,-1,130,136,129,-1,132,131,137,-1,137,131,138,-1,137,138,139,-1,139,138,140,-1,139,140,141,-1,141,140,142,-1,141,142,143,-1,143,142,144,-1,143,144,145,-1,145,144,146,-1,145,146,147,-1,147,146,148,-1,147,148,149,-1,149,148,150,-1,149,150,151,-1,152,153,154,-1,152,154,155,-1,155,154,156,-1,155,156,157,-1,157,156,158,-1,157,158,159,-1,159,158,160,-1,159,160,161,-1,161,160,162,-1,161,162,163,-1,163,162,164,-1,163,164,165,-1,165,164,151,-1,165,151,150,-1,166,167,168,-1,166,168,169,-1,169,168,153,-1,169,153,152,-1,166,170,167,-1,167,170,171,-1,172,173,174,-1,172,174,175,-1,175,174,171,-1,175,171,170,-1,176,177,178,-1,176,178,179,-1,179,178,180,-1,179,180,181,-1,181,180,182,-1,181,182,183,-1,183,182,184,-1,183,184,185,-1,185,184,186,-1,185,186,187,-1,187,186,188,-1,187,188,189,-1,189,188,173,-1,189,173,172,-1,190,191,192,-1,190,192,193,-1,193,192,194,-1,193,194,195,-1,195,194,196,-1,195,196,197,-1,197,196,198,-1,197,198,199,-1,199,198,200,-1,199,200,201,-1,201,200,202,-1,201,202,203,-1,203,202,177,-1,203,177,176,-1,126,128,204,-1,126,204,205,-1,205,204,206,-1,205,206,207,-1,207,206,191,-1,207,191,190,-1,193,131,190,-1,190,131,134,-1,190,134,207,-1,207,134,130,-1,207,130,205,-1,205,130,127,-1,205,127,126,-1,170,166,175,-1,175,166,169,-1,175,169,172,-1,172,169,152,-1,172,152,189,-1,189,152,155,-1,189,155,187,-1,187,155,157,-1,187,157,185,-1,185,157,159,-1,185,159,183,-1,183,159,161,-1,183,161,181,-1,181,161,163,-1,181,163,179,-1,179,163,165,-1,179,165,176,-1,176,165,150,-1,176,150,203,-1,203,150,148,-1,203,148,201,-1,201,148,146,-1,201,146,199,-1,199,146,144,-1,199,144,197,-1,197,144,142,-1,197,142,195,-1,195,142,140,-1,195,140,193,-1,193,140,138,-1,193,138,131,-1,208,209,210,-1,210,209,211,-1,209,212,211,-1,211,212,213,-1,212,214,213,-1,213,214,215,-1,214,216,215,-1,215,216,217,-1,216,218,217,-1,217,218,219,-1,218,208,219,-1,219,208,210,-1,216,214,218,-1,218,214,212,-1,218,212,208,-1,208,212,209,-1,
        ]
    }
}
Shape{
    appearance Appearance {
        material  Material 	{
            diffuseColor 0.25098039215686274 0.25098039215686274 0.25098039215686274
            specularColor 0.12549019607843137 0.12549019607843137 0.12549019607843137
            ambientIntensity 0.2
            transparency 0
            shininess 0.5
        }
    }
    geometry IndexedFaceSet {
        ccw TRUE
        solid FALSE
        coord DEF co Coordinate {
            point [
                -0.1548 -0.6789 0.0, -0.1811 -0.6789 0.0, -0.1665 -0.646 -0.0, -0.1692 -0.646 0.0, -0.1673 -0.6433 -0.0, -0.1685 -0.6433 0.0, -0.1678 -0.6405 0.0, -0.168 -0.6405 0.0, -0.0745 -0.6396 0.0, -0.0745 -0.701 0.0, -0.0861 -0.6396 0.0, -0.0857 -0.701 0.0, -0.094 -0.7002 0.0, -0.1167 -0.6695 0.0, -0.1161 -0.6617 -0.0, -0.1142 -0.6555 0.0, -0.0954 -0.6406 0.0, -0.1006 -0.6982 0.0, -0.106 -0.695 0.0, -0.1104 -0.6906 0.0, -0.1137 -0.6852 0.0, -0.116 -0.6778 -0.0, -0.1115 -0.6506 0.0, -0.1077 -0.6465 0.0, -0.1019 -0.6428 0.0, -0.1019 -0.6428 0.0
            ]
        }
        coordIndex [
            0,1,2,-1,2,1,3,-1,2,3,4,-1,4,3,5,-1,4,5,6,-1,6,5,7,-1,8,9,10,-1,10,9,11,-1,10,11,12,-1,13,14,10,-1,10,14,15,-1,10,15,16,-1,12,17,10,-1,10,17,18,-1,10,18,19,-1,19,20,10,-1,10,20,21,-1,10,21,13,-1,22,23,15,-1,15,23,24,-1,15,24,16,-1,
        ]
    }
}